<svg width="40" height="40" viewBox="0 0 40 40" fill="none" xmlns="http://www.w3.org/2000/svg">
<path d="M30.625 0H9.375C4.19733 0 0 4.19733 0 9.375V30.625C0 35.8027 4.19733 40 9.375 40H30.625C35.8027 40 40 35.8027 40 30.625V9.375C40 4.19733 35.8027 0 30.625 0Z" fill="#0CBC8D"/>
<g clip-path="url(#clip0_734_28192)">
<path d="M19.3772 32.9861C18.2931 32.9322 17.2197 32.7452 16.1813 32.4293C16.0611 32.3841 15.9398 32.3422 15.8173 32.3036C12.3474 31.1618 9.40508 28.4101 7.98916 24.9825C7.40858 23.5838 7.07855 22.0939 7.01416 20.5809C7.00549 20.4086 7.00116 18.1 7.00007 14.3019C7.00007 7.76937 6.99466 8.23195 7.07591 7.97845C7.24924 7.42704 7.72916 7.05437 8.32608 7.00562C8.78216 6.96879 9.08441 7.10095 10.0627 7.76287C10.6715 8.17454 11.2749 8.60787 12.0083 9.15929C12.3496 9.41604 12.3907 9.44204 12.4157 9.42687L12.7948 9.1777C13.4232 8.76495 13.9973 8.44429 14.6365 8.15395C15.5771 7.7286 16.5653 7.41763 17.5799 7.2277C18.3088 7.08795 19.0489 7.01543 19.791 7.01104C21.026 6.9937 22.0411 7.10962 23.2057 7.40104C27.0515 8.36304 30.2885 11.0963 31.9027 14.746C32.4357 15.9518 32.8181 17.3785 32.9264 18.5615C32.9622 18.958 32.9687 19.0274 32.9838 19.2235C32.9925 19.3372 33.0001 19.6633 33.0001 19.9482C33.0001 20.7965 32.9297 21.649 32.817 22.1842C32.7981 22.2777 32.7815 22.3716 32.7672 22.4659C32.7065 22.8754 32.5353 23.5351 32.3349 24.1288C32.1128 24.7929 31.9373 25.211 31.5939 25.8979C30.8809 27.3011 29.9179 28.5625 28.7523 29.6202C28.2757 30.0492 27.8542 30.384 27.3873 30.7068C26.6864 31.1889 25.9714 31.5865 25.1784 31.9353C24.5284 32.2224 23.6184 32.5192 22.9023 32.6785C22.4811 32.7741 22.0552 32.8472 21.6262 32.8973C20.8803 32.9904 20.128 33.0201 19.3772 32.9861ZM18.7163 26.5728C19.0348 26.5078 19.4508 26.3464 19.6523 26.2077C19.8083 26.1005 20.116 25.8004 21.8883 24.027C22.5205 23.389 23.1575 22.756 23.7993 22.1279C23.8177 22.1279 25.6269 20.3187 25.6269 20.2981C25.6269 20.2765 27.4036 18.5128 27.4263 18.5128C27.4372 18.5128 27.4946 18.4619 27.5542 18.398C28.0601 17.8617 28.293 17.3612 28.3298 16.722C28.358 16.253 28.2648 15.7373 28.0947 15.4264C27.8518 14.9633 27.4826 14.5787 27.0298 14.317C26.7254 14.1405 26.4752 14.0646 26.0678 14.0245C25.7363 13.991 25.3225 14.0245 25.0408 14.1058C24.7776 14.1816 24.3876 14.4026 24.1167 14.6269C24.0712 14.6648 22.7312 15.9973 21.1397 17.5876L18.2462 20.4801L17.0621 19.2993C16.4121 18.6493 15.8487 18.0925 15.8108 18.0621C15.3945 17.7359 14.8892 17.5433 14.3613 17.5096C13.9237 17.4955 13.3755 17.6071 13.0353 17.7805C12.7708 17.9345 12.5302 18.1265 12.3214 18.3503C12.2044 18.4803 12.0105 18.737 12.0072 18.7674C12.004 18.7999 11.9975 18.815 11.9368 18.9407C11.7895 19.2493 11.7069 19.5848 11.6942 19.9265C11.6822 20.1746 11.6833 20.2136 11.7147 20.4585C11.7635 20.8409 11.9747 21.3045 12.2672 21.6664C12.3214 21.7346 13.3181 22.741 14.4816 23.9024C16.1142 25.5328 16.6266 26.0365 16.7284 26.1113C17.0827 26.3713 17.4683 26.5316 17.9212 26.6053C18.1183 26.6378 18.4628 26.6226 18.7163 26.5728Z" fill="white"/>
</g>
<defs>
<clipPath id="clip0_734_28192">
<rect width="26" height="26" fill="white" transform="translate(7 7)"/>
</clipPath>
</defs>
</svg>
