<svg width="40" height="40" viewBox="0 0 40 40" fill="none" xmlns="http://www.w3.org/2000/svg">
<path d="M30.625 0H9.375C4.19733 0 0 4.19733 0 9.375V30.625C0 35.8027 4.19733 40 9.375 40H30.625C35.8027 40 40 35.8027 40 30.625V9.375C40 4.19733 35.8027 0 30.625 0Z" fill="#F07C00"/>
<path d="M13.0761 32.9366C12.2001 32.7983 11.3575 32.4932 10.5926 32.0374C8.86744 31.031 7.57993 29.2284 7.16675 27.2427C7.00597 26.466 6.9857 25.4845 7.00701 19.4353C7.02723 12.9257 7.01231 13.2616 7.31691 12.1891C7.46811 11.655 7.88878 10.7374 8.19334 10.2749C9.31686 8.57405 10.9696 7.48208 13.0175 7.08671C13.4264 7.00764 14.0185 7.00003 19.4668 7.00003C26.1237 7.00003 25.9043 6.99028 26.9916 7.3402C28.0473 7.68765 29.0105 8.27699 29.807 9.06282C30.6035 9.84865 31.212 10.81 31.5857 11.8728C31.9372 12.8878 31.9542 13.0503 31.9787 15.7239L32 18.1397L31.5836 18.43C30.9894 18.8427 30.2099 19.5783 29.1172 20.7591C27.8585 22.1198 26.5869 23.3807 25.9416 23.9083C24.5476 25.0468 23.2707 25.6968 21.9736 25.9276C21.2985 26.0467 20.1824 26.0001 19.5222 25.8246C18.9333 25.6686 18.9716 25.6426 18.749 26.3273C18.5682 26.8691 18.4544 27.4317 18.4104 28.0021L18.3774 28.443L18.2219 28.4105C16.928 28.1494 15.6458 27.0185 15.1506 25.7023C14.9832 25.2819 14.8895 24.835 14.8737 24.3817L14.8567 24.0134L14.5276 23.7057C13.8418 23.0666 13.3956 22.2845 13.2551 21.473C13.0293 20.1806 13.6171 18.7193 14.8929 17.4041C16.239 16.0142 18.223 14.9234 20.1676 14.5009C20.8683 14.3492 22.1036 14.3091 22.7266 14.4196C23.9385 14.6341 24.9278 15.2571 25.5434 16.1952C25.7372 16.4887 25.7511 16.531 25.7319 16.7964C25.727 16.9915 25.6584 17.1794 25.537 17.3305C25.0418 18.0357 23.569 18.7907 21.9844 19.1504C19.1889 19.7841 17.4116 18.9966 17.6895 17.2449C17.7172 17.0683 17.7321 16.9156 17.7225 16.9058C17.6884 16.8712 17.4105 17.0185 17.1101 17.2308C16.6 17.5926 16.1485 18.2968 15.992 18.9717C15.9536 19.1407 15.9387 19.4115 15.9558 19.6759C15.9771 20.0344 16.0122 20.1677 16.1602 20.4732C16.2582 20.6747 16.4531 20.9607 16.5947 21.1112L16.8503 21.3832L16.7481 21.5153C16.4466 21.9172 16.2038 22.3612 16.0271 22.8337C15.8267 23.4689 15.7882 24.1455 15.9153 24.7999C16.025 25.2994 16.3636 25.9862 16.7023 26.3902C16.96 26.699 17.551 27.2179 17.6458 27.2179C17.6713 27.2179 17.6926 27.1659 17.6926 27.1031C17.6937 26.8539 17.8886 26.049 18.0398 25.6655C18.4903 24.5194 19.4785 23.5423 21.043 22.6973C21.3039 22.5565 22.0568 22.1881 22.717 21.8772C24.1653 21.1948 24.9566 20.7777 25.3911 20.4635C26.6435 19.5611 27.4176 18.2265 27.67 16.5366C27.7616 15.9191 27.7616 14.7664 27.67 14.1457C27.2781 11.5046 25.3325 9.70848 22.5392 9.41162C19.4242 9.07906 15.4595 11.5273 13.0165 15.2907C11.828 17.1215 11.0251 19.1527 10.6875 21.1872C10.5565 21.9758 10.5075 23.4404 10.5884 24.1663C10.794 26.0122 11.4638 27.5007 12.615 28.6685C13.1915 29.258 13.8656 29.7395 14.6064 30.0909C17.1282 31.315 19.9204 31.3421 22.3751 30.1678C23.4358 29.6597 24.4773 28.8721 25.5945 27.7304C26.6807 26.62 27.4155 25.6937 29.4197 22.901C30.5272 21.3594 31.4047 20.3357 31.8392 20.079L31.999 19.9858L31.9787 23.3343C31.9596 26.5766 31.9553 26.7001 31.8477 27.1919C31.2088 30.0931 29.1428 32.2141 26.3154 32.8706L25.817 32.9865L19.667 32.9974C14.6256 33.006 13.4371 32.9952 13.0751 32.9367L13.0761 32.9366Z" fill="white"/>
</svg>
