<svg width="40" height="40" viewBox="0 0 40 40" fill="none" xmlns="http://www.w3.org/2000/svg">
<g clip-path="url(#clip0_734_28163)">
<rect width="40" height="40" fill="#2BA9DC"/>
<path d="M29.7843 10.1763C29.7843 10.1763 32.1892 9.31063 31.988 11.4129C31.9218 12.2786 31.3207 15.3089 30.8527 18.586L29.2494 28.2945C29.2494 28.2945 29.1157 29.7168 27.9129 29.9643C26.7107 30.2111 24.9069 29.0985 24.5726 28.8511C24.3052 28.6654 19.5621 25.8826 17.8919 24.5226C17.4239 24.1511 16.8891 23.4094 17.9588 22.5437L24.9731 16.3597C25.7748 15.618 26.5764 13.8866 23.2361 15.9889L13.8824 21.8631C13.8824 21.8631 12.8133 22.482 10.8095 21.9254L6.46632 20.6883C6.46632 20.6883 4.86301 19.7609 7.60225 18.8334C14.2835 15.9272 22.5013 12.9592 29.783 10.1763H29.7843Z" fill="white"/>
</g>
<defs>
<clipPath id="clip0_734_28163">
<rect width="40" height="40" rx="7" fill="white"/>
</clipPath>
</defs>
</svg>
