<svg width="27" height="26" viewBox="0 0 27 26" fill="none" xmlns="http://www.w3.org/2000/svg">
<path fill-rule="evenodd" clip-rule="evenodd" d="M1.19995 25.3L2.99994 19C1.99994 17.2 1.39993 15.2 1.39993 13C1.39993 6.4 6.79993 1 13.3999 1C19.9999 1 25.3999 6.4 25.3999 13C25.3999 19.6 19.9999 25 13.3999 25C11.2999 25 9.39995 24.5 7.69995 23.5L1.19995 25.3Z" fill="#0075A6"/>
<path fill-rule="evenodd" clip-rule="evenodd" d="M8.39999 22.3001C8.09999 22.1001 7.69999 22.1001 7.29999 22.2001L3.39999 23.2001L4.5 19.5001C4.6 19.1001 4.59999 18.7001 4.39999 18.3001C3.49999 16.8001 3 15.0001 3 13.1001C3 7.3001 7.7 2.6001 13.5 2.6001C19.3 2.6001 24 7.3001 24 13.1001C24 18.9001 19.3 23.6001 13.5 23.6001C11.6 23.6001 9.89999 23.1001 8.39999 22.3001Z" fill="#85DBF6"/>
<path fill-rule="evenodd" clip-rule="evenodd" d="M8.79993 21.6001C8.29993 21.3001 7.69995 21.3 7.19995 21.4L4.49994 22.1001L5.19995 19.7C5.39995 19.1 5.29994 18.5 4.99994 17.9C4.19994 16.5 3.69995 14.8 3.69995 13C3.69995 7.60005 8.09993 3.30005 13.3999 3.30005C18.7999 3.30005 23.0999 7.70005 23.0999 13C23.0999 18.4 18.6999 22.7 13.3999 22.7C11.6999 22.8 10.1999 22.4001 8.79993 21.6001Z" fill="#0075A6"/>
<path fill-rule="evenodd" clip-rule="evenodd" d="M9.09982 21.0001C8.39982 20.6001 7.59981 20.5001 6.89981 20.7001L5.49982 21.1001L5.7998 19.9001C5.9998 19.1001 5.89982 18.3001 5.49982 17.6001C4.69982 16.3001 4.2998 14.8001 4.2998 13.1001C4.2998 8.1001 8.2998 4.1001 13.2998 4.1001C18.2998 4.1001 22.2998 8.1001 22.2998 13.1001C22.2998 18.1001 18.2998 22.1001 13.2998 22.1001C11.8998 22.1001 10.3998 21.7001 9.09982 21.0001Z" fill="white"/>
<path fill-rule="evenodd" clip-rule="evenodd" d="M19.2 16.0001C18.9 15.8001 17.3 15.1001 17 15.0001C16.7 14.9001 16.5 14.8001 16.3 15.2001C16.1 15.5001 15.5 16.2001 15.3 16.4001C15.1 16.6001 14.9 16.6001 14.6 16.5001C14.3 16.3001 13.3 16.0001 12.1 14.9001C11.2 14.1001 10.5 13.0001 10.3 12.7001C10.1 12.4001 10.3 12.2002 10.4 12.1002C10.5 12.0002 10.7 11.7001 10.9 11.5001C11.1 11.3001 11.1 11.2001 11.2 11.0001C11.3 10.8001 11.3 10.6001 11.2 10.4001C11.1 10.2001 10.5 8.70015 10.2 8.00015C9.90001 7.40015 9.7 7.50015 9.5 7.50015C9.3 7.50015 9.09999 7.50015 8.89999 7.50015C8.69999 7.50015 8.40001 7.60014 8.10001 7.90014C7.80001 8.20014 7 9.00015 7 10.6002C7 12.2002 8.09999 13.7001 8.29999 13.9001C8.49999 14.1001 10.5 17.3001 13.7 18.7001C14.5 19.0001 15 19.2001 15.5 19.4001C16.3 19.6001 16.9 19.6001 17.5 19.5001C18.1 19.4001 19.4 18.7001 19.6 18.0001C19.9 17.3001 19.9 16.6001 19.8 16.5001C19.7 16.2001 19.5 16.2001 19.2 16.0001Z" fill="#00A2E5"/>
<path fill-rule="evenodd" clip-rule="evenodd" d="M15.3999 19.6001C14.8999 19.5001 14.2999 19.3001 13.5999 18.9001C10.2999 17.5001 8.19995 14.2001 8.09995 14.0001C7.99995 13.8001 6.69995 12.2001 6.69995 10.5001C6.69995 8.80009 7.59993 7.9001 7.89993 7.6001C8.29993 7.2001 8.69994 7.1001 8.99994 7.1001C9.19994 7.1001 9.39995 7.1001 9.59995 7.1001C9.59995 7.1001 9.89995 7.10009 10.0999 7.20009C10.2999 7.30009 10.5 7.50009 10.7 7.90009C11 8.60009 11.6 10.1001 11.7 10.2001C11.8 10.4001 11.9 10.7001 11.7 11.1001C11.6 11.3001 11.4999 11.5001 11.2999 11.7001C11.1999 11.9001 10.9999 12.1001 10.7999 12.3001L10.7 12.4001V12.5001C10.9 12.8001 11.4999 13.8001 12.3999 14.6001C13.5999 15.6001 14.4999 15.9001 14.7999 16.1001C14.8999 16.1001 14.8999 16.1001 14.8999 16.2001H14.9999C15.1999 16.0001 15.7999 15.3001 15.9999 15.0001C16.0999 14.9001 16.1999 14.8001 16.2999 14.7001C16.3999 14.6001 16.4999 14.6001 16.5999 14.6001C16.7999 14.6001 17 14.7001 17.2 14.7001C17.5 14.8001 19.0999 15.6001 19.3999 15.8001C19.5999 15.9001 19.8999 16.0001 20.0999 16.2001L20.2 16.3001C20.2 16.3001 20.1999 16.4001 20.2999 16.4001C20.3999 16.7001 20.2999 17.4001 20.0999 18.1001C19.7999 19.0001 18.4 19.8001 17.7 19.9001C17 19.9001 16.1999 19.9001 15.3999 19.6001ZM17.3999 19.0001C17.8999 18.9001 19 18.3001 19.2 17.7001C19.4 17.1001 19.3999 16.7001 19.3999 16.5001C19.2999 16.5001 19.1999 16.4001 18.9999 16.3001C18.6999 16.1001 17.1999 15.4001 16.8999 15.3001C16.7999 15.3001 16.8 15.3001 16.7 15.2001H16.5999C16.5999 15.2001 16.5999 15.2001 16.4999 15.3001C16.2999 15.6001 15.6999 16.4001 15.4999 16.6001C15.3999 16.7001 15.3 16.8001 15.2 16.9001C15.1 16.9001 15.0999 16.9001 14.9999 17.0001C14.7999 17.0001 14.5999 17.0001 14.3999 16.9001C14.0999 16.8001 12.9999 16.4001 11.7999 15.3001C10.7999 14.4001 10.1999 13.3001 9.99994 13.0001C9.89994 12.9001 9.89993 12.7001 9.89993 12.6001C9.89993 12.5001 9.89993 12.4001 9.89993 12.3001C9.99993 12.1001 10.1 11.9001 10.2 11.9001C10.3 11.8001 10.5 11.6001 10.7 11.4001C10.8 11.3001 10.8999 11.2001 10.9999 10.9001C10.9999 10.8001 10.9999 10.8001 10.9999 10.7001C10.8999 10.5001 10.2999 8.90009 9.99994 8.30009C9.89994 8.00009 9.79993 8.00009 9.79993 8.00009C9.79993 8.00009 9.79995 8.00009 9.59995 8.00009C9.39995 8.00009 9.19994 8.00009 8.99994 8.00009C8.89994 8.00009 8.59993 8.00009 8.39993 8.30009C8.09993 8.60009 7.39993 9.30009 7.39993 10.7001C7.39993 12.1001 8.39995 13.5001 8.59995 13.8001C8.79995 14.0001 10.7999 17.2001 13.7999 18.5001C14.4999 18.8001 15.0999 19.0001 15.5999 19.2001C16.2999 19.1001 16.8999 19.1001 17.3999 19.0001Z" fill="#0075A6"/>
</svg>
