<svg width="26" height="26" viewBox="0 0 26 26" fill="none" xmlns="http://www.w3.org/2000/svg">
<path fill-rule="evenodd" clip-rule="evenodd" d="M0.800049 13.1001C0.800049 6.5001 6.20005 1.1001 12.8 1.1001C15.4 1.1001 17.8 1.90009 19.8 3.30009H16.7001C15.5001 2.80009 14.2 2.6001 12.8 2.6001C7.00005 2.6001 2.30005 7.3001 2.30005 13.1001C2.30005 18.9001 7.00005 23.6001 12.8 23.6001C14.2 23.6001 15.5001 23.3001 16.7001 22.8001H19.8C17.8 24.2001 15.4 25.0001 12.8 25.0001C6.20005 25.1001 0.800049 19.7001 0.800049 13.1001ZM23.3 13.1001C23.3 9.8001 21.7 6.80009 19.3 4.80009H21.5001C23.5001 7.00009 24.8 9.9001 24.8 13.1001C24.8 16.3001 23.5001 19.2001 21.5001 21.3001H19.3C21.7 19.4001 23.3 16.4001 23.3 13.1001Z" fill="#0075A6"/>
<path fill-rule="evenodd" clip-rule="evenodd" d="M3.1001 13.1001C3.1001 11.8001 3.30008 10.6 3.80008 9.50005C4.30008 8.30005 6.50009 8.40005 7.40009 7.50005C8.00009 6.90005 7.0001 5.20005 7.7001 4.80005H22.7001C23.5001 4.80005 24.1001 5.40004 24.1001 6.20004V19.9C24.1001 20.7 23.5001 21.3 22.7001 21.3H7.7001C4.9001 19.6 3.1001 16.6001 3.1001 13.1001Z" fill="#00A2E5"/>
<path fill-rule="evenodd" clip-rule="evenodd" d="M23.1002 21.2L11.3002 11.3001L4.00018 17.4C3.90018 17.2 3.8002 16.9 3.7002 16.7L11.0002 10.5C11.1002 10.4 11.3002 10.4 11.5002 10.5L23.5002 20.6001C23.7002 20.7001 23.7002 21.0001 23.5002 21.1001C23.5002 21.3001 23.2002 21.3 23.1002 21.2Z" fill="#85DBF6"/>
<path fill-rule="evenodd" clip-rule="evenodd" d="M10.4001 14.7001L3.90015 9.20015C4.70015 7.40015 6.00016 5.90015 7.60016 4.90015H22.7002C23.0002 4.90015 23.3002 5.00015 23.6002 5.20015L12.3001 14.8002C11.8001 15.1002 10.9001 15.1001 10.4001 14.7001Z" fill="#85DBF6"/>
<path fill-rule="evenodd" clip-rule="evenodd" d="M6.6001 20.6H22.7001C23.1001 20.6 23.4001 20.3 23.4001 19.9V6.2C23.4001 5.8 23.1001 5.5 22.7001 5.5H6.6001C7.3001 4.9 8.2001 4.4 9.1001 4H22.7001C23.9001 4 24.9001 5 24.9001 6.2V19.9C24.9001 21.1 23.9001 22.1 22.7001 22.1H9.1001C8.2001 21.7 7.3001 21.2 6.6001 20.6Z" fill="#0075A6"/>
<path fill-rule="evenodd" clip-rule="evenodd" d="M10.2001 14.9001L3.80005 9.50009C3.90005 9.30009 4.00007 9.0001 4.10007 8.8001L10.7001 14.4001C11.0001 14.7001 11.7001 14.7001 12.1001 14.4001L23.4001 4.8001C23.6001 4.7001 23.8001 4.7001 23.9001 4.8001C24.0001 5.0001 24.0001 5.2001 23.9001 5.3001L12.6001 14.9001C11.9001 15.5001 10.8001 15.5001 10.2001 14.9001Z" fill="#0075A6"/>
</svg>
