<svg width="19" height="26" viewBox="0 0 19 26" fill="none" xmlns="http://www.w3.org/2000/svg">
<path d="M9.20007 24.2L2.90005 13.2C2.30005 12.1 1.80005 10.7 1.80005 9.39999C1.80005 5.29999 5.10007 2 9.20007 2C13.3001 2 16.6001 5.29999 16.6001 9.39999C16.6001 10.8 16.2001 12.1 15.5001 13.2L9.20007 24.2Z" stroke="white" stroke-width="2.9676" stroke-miterlimit="10" stroke-linecap="round" stroke-linejoin="round"/>
<path d="M9.20007 24.2L2.90005 13.2C2.30005 12.1 1.80005 10.7 1.80005 9.39999C1.80005 5.29999 5.10007 2 9.20007 2C13.3001 2 16.6001 5.29999 16.6001 9.39999C16.6001 10.8 16.2001 12.1 15.5001 13.2L9.20007 24.2Z" fill="#85DBF6"/>
<path d="M9.20007 24.2L2.90005 13.2C2.30005 12.1 1.80005 10.7 1.80005 9.39999C1.80005 5.29999 5.10007 2 9.20007 2C13.3001 2 16.6001 5.29999 16.6001 9.39999C16.6001 10.8 16.2001 12.1 15.5001 13.2L9.20007 24.2Z" stroke="#0075A6" stroke-width="1.4838" stroke-miterlimit="10" stroke-linecap="round" stroke-linejoin="round"/>
<path d="M9.2002 6.5C10.8002 6.5 12.2002 7.9 12.2002 9.5C12.2002 11.1 10.8002 12.5 9.2002 12.5C7.6002 12.5 6.2002 11.1 6.2002 9.5C6.3002 7.7 7.6002 6.5 9.2002 6.5Z" fill="white"/>
<path d="M9.2002 6.5C10.8002 6.5 12.2002 7.9 12.2002 9.5C12.2002 11.1 10.8002 12.5 9.2002 12.5C7.6002 12.5 6.2002 11.1 6.2002 9.5C6.3002 7.7 7.6002 6.5 9.2002 6.5Z" stroke="#0075A6" stroke-width="1.4838" stroke-miterlimit="10" stroke-linecap="round" stroke-linejoin="round"/>
</svg>
