<svg width="27" height="26" viewBox="0 0 27 26" fill="none" xmlns="http://www.w3.org/2000/svg">
<path fill-rule="evenodd" clip-rule="evenodd" d="M13.5999 1.1001C20.1999 1.1001 25.5999 6.5001 25.5999 13.1001C25.5999 19.7001 20.1999 25.1001 13.5999 25.1001C6.99985 25.1001 1.59985 19.7001 1.59985 13.1001C1.59985 6.5001 6.99985 1.1001 13.5999 1.1001Z" fill="#0075A6"/>
<path fill-rule="evenodd" clip-rule="evenodd" d="M13.5999 2.6001C19.3999 2.6001 24.0999 7.3001 24.0999 13.1001C24.0999 18.9001 19.3999 23.6001 13.5999 23.6001C7.79985 23.6001 3.09985 18.9001 3.09985 13.1001C3.09985 7.3001 7.79985 2.6001 13.5999 2.6001Z" fill="#00A2E5"/>
<path fill-rule="evenodd" clip-rule="evenodd" d="M15.2998 19.1001L12.0998 16.9001C11.7998 16.7001 11.4998 16.4001 11.3998 15.9001C11.2998 15.5001 11.3998 15.1001 11.5998 14.9001L11.7998 14.7001L10.6998 15.4001C9.99981 15.8001 9.19981 15.7001 8.69981 15.6001L6.19981 14.7001C5.49981 14.5001 5.19982 13.6001 5.59982 13.0001C5.89982 12.5001 6.49981 12.3001 6.69981 12.3001L18.0998 7.40009C18.4998 7.20009 19.1998 7.1001 19.7998 7.5001C20.3998 8.0001 20.2998 8.8001 20.2998 9.0001L18.8998 18.4001C18.7998 18.9001 18.4998 19.8001 17.5998 19.9001C16.5998 19.9001 15.6998 19.4001 15.2998 19.1001Z" fill="#0075A6"/>
<path fill-rule="evenodd" clip-rule="evenodd" d="M10.2998 14.6L15.5998 11.2C15.8998 11 16.4998 10.6 16.6998 10.8C16.7998 10.9 16.5998 11.4 16.3998 11.5L12.3998 15C12.1998 15.1 12.0998 15.4 12.1998 15.6C12.1998 15.8 12.3998 16 12.5998 16.1L15.7998 18.3C16.2998 18.6 16.8998 19 17.4998 18.9C17.8998 18.8 18.1998 18.4 18.1998 18L19.5998 8.60004C19.5998 8.30004 19.5998 8.00004 19.3998 7.80004C19.1998 7.60004 18.7998 7.70004 18.4998 7.80004L7.09984 12.7C6.79984 12.8 6.49982 12.9 6.39982 13.2C6.29982 13.4 6.39984 13.7 6.59984 13.8L9.09984 14.7C9.29984 14.9 9.89983 14.9 10.2998 14.6Z" fill="white"/>
</svg>
