<svg width="26" height="26" viewBox="0 0 26 26" fill="none" xmlns="http://www.w3.org/2000/svg">
<path fill-rule="evenodd" clip-rule="evenodd" d="M23.4001 19.0001L22.3001 17.9001C23.1001 16.5001 23.5002 14.8001 23.5002 13.1001C23.5002 7.3001 18.8002 2.6001 13.0002 2.6001C7.20015 2.6001 2.50015 7.3001 2.50015 13.1001C2.50015 13.5001 2.20016 13.9001 1.70016 13.9001C1.30016 13.9001 0.900146 13.6001 0.900146 13.1001C0.900146 6.5001 6.30015 1.1001 12.9001 1.1001C19.5001 1.1001 24.9001 6.5001 24.9001 13.1001C25.0001 15.2001 24.4001 17.3001 23.4001 19.0001Z" fill="#0075A6"/>
<path fill-rule="evenodd" clip-rule="evenodd" d="M17.8001 24.6001L19.5001 22.2001C19.7001 21.9001 19.6001 21.8 19.3001 21.9L19.1001 22.0001C18.8001 22.1001 18.5001 22.4001 18.3001 22.6001L16.8001 24.8001C16.7001 25.1001 16.6001 25.3001 17.0001 25.3001C17.3001 25.1001 17.6001 24.9001 17.8001 24.6001Z" fill="#0075A6"/>
<path fill-rule="evenodd" clip-rule="evenodd" d="M16.2998 25L15.3998 23C15.2998 22.8 15.3998 22.5 15.5998 22.5H15.6998C15.8998 22.4 16.1998 22.6 16.2998 22.8L17.1998 24.8C17.2998 25 17.1998 25.3 16.9998 25.3H16.8998C16.6998 25.3 16.3998 25.2 16.2998 25Z" fill="#0075A6"/>
<path fill-rule="evenodd" clip-rule="evenodd" d="M15.6001 25.1001L16.3001 22.7C16.4001 22.4 16.2001 22.3 16.0001 22.3H15.8001C15.6001 22.4 15.3001 22.6 15.2001 22.9L14.6001 25.1001C14.6001 25.4001 14.7001 25.6001 15.0001 25.6001C15.3001 25.7001 15.6001 25.4001 15.6001 25.1001Z" fill="#0075A6"/>
<path fill-rule="evenodd" clip-rule="evenodd" d="M14.5001 25.4L13.9001 23.3C13.8001 23.1 14.0002 22.8 14.2002 22.8H14.3001C14.5001 22.8 14.8001 22.9 14.9001 23.2L15.5001 25.3C15.6001 25.5 15.4002 25.8 15.2002 25.8H15.1001C14.8001 25.8 14.5001 25.6 14.5001 25.4Z" fill="#0075A6"/>
<path fill-rule="evenodd" clip-rule="evenodd" d="M13.7 25.4L14.7999 23.2C14.8999 23 14.8 22.8 14.6 22.8H14.4C14.2 22.8 13.8999 23 13.7999 23.3L12.7999 25.3C12.6999 25.6 12.8 25.8 13.1 25.9C13.3 25.8 13.6 25.6 13.7 25.4Z" fill="#0075A6"/>
<path fill-rule="evenodd" clip-rule="evenodd" d="M12.5001 25.4L12.3 23.2C12.3 23 12.5001 22.8 12.7001 22.8H12.8C13 22.8 13.3 23 13.3 23.2L13.5001 25.4C13.5001 25.6 13.3001 25.8 13.1001 25.8H13.0001C12.8001 25.8 12.5001 25.6 12.5001 25.4Z" fill="#0075A6"/>
<path fill-rule="evenodd" clip-rule="evenodd" d="M11.8001 25.4001L13.2002 23.3002C13.3002 23.1002 13.3001 22.9001 13.0001 22.9001H12.8001C12.6001 22.9001 12.2001 23.0002 12.1001 23.3002L10.9001 25.2001C10.8001 25.5001 10.8001 25.7002 11.1001 25.8002C11.3001 25.7002 11.6001 25.6001 11.8001 25.4001Z" fill="#0075A6"/>
<path fill-rule="evenodd" clip-rule="evenodd" d="M10.6001 25.2001L10.7001 23.0001C10.7001 22.8001 10.9001 22.6001 11.2001 22.6001H11.3001C11.5001 22.6001 11.7001 22.9001 11.7001 23.1001L11.6001 25.3001C11.6001 25.5001 11.4001 25.7001 11.1001 25.7001H11.0001C10.8001 25.7001 10.6001 25.4001 10.6001 25.2001Z" fill="#0075A6"/>
<path fill-rule="evenodd" clip-rule="evenodd" d="M9.89997 24.9999L11.6 23.1999C11.8 22.9999 11.7 22.7999 11.5 22.6999H11.3C11.1 22.5999 10.7 22.7999 10.5 22.9999L8.99998 24.6999C8.79998 24.9999 8.79999 25.1999 9.09999 25.2999C9.39999 25.2999 9.69997 25.1999 9.89997 24.9999Z" fill="#0075A6"/>
<path fill-rule="evenodd" clip-rule="evenodd" d="M8.7002 24.6999L9.10019 22.4999C9.10019 22.2999 9.40019 22.0999 9.60019 22.1999H9.7002C9.9002 22.2999 10.1002 22.4999 10.0002 22.7999L9.60019 24.9999C9.60019 25.1999 9.30019 25.3999 9.10019 25.2999H9.00018C8.80018 25.1999 8.7002 24.8999 8.7002 24.6999Z" fill="#0075A6"/>
<path fill-rule="evenodd" clip-rule="evenodd" d="M8.00019 24.4L10.0002 22.9C10.2002 22.7 10.2002 22.5 10.0002 22.4L9.90019 22.3C9.70019 22.2 9.3002 22.3 9.1002 22.4L7.30018 23.8C7.10018 24 7.00018 24.3 7.30018 24.4C7.50018 24.6 7.80019 24.5 8.00019 24.4Z" fill="#0075A6"/>
<path fill-rule="evenodd" clip-rule="evenodd" d="M7.00017 23.9L7.80015 21.8C7.90015 21.6 8.10015 21.5 8.30015 21.6L8.40016 21.7C8.60016 21.8 8.70017 22.1 8.60017 22.3L7.80015 24.4C7.70015 24.6 7.50015 24.7 7.30015 24.6L7.20018 24.5C7.00018 24.4 6.90017 24.1 7.00017 23.9Z" fill="#0075A6"/>
<path fill-rule="evenodd" clip-rule="evenodd" d="M6.40009 23.5001L8.6001 22.4001C8.8001 22.3001 8.90011 22.1001 8.70011 21.9001L8.6001 21.8001C8.4001 21.7001 8.00008 21.7001 7.80008 21.8001L5.80008 22.9001C5.60008 23.1001 5.40011 23.3001 5.70011 23.5001C5.80011 23.6001 6.10009 23.6001 6.40009 23.5001Z" fill="#0075A6"/>
<path fill-rule="evenodd" clip-rule="evenodd" d="M5.39982 22.8001L6.39982 20.8001C6.49982 20.6001 6.79983 20.5001 6.99983 20.7001L7.09984 20.8001C7.29984 20.9001 7.39982 21.2001 7.29982 21.4001L6.29982 23.4001C6.19982 23.6001 5.89984 23.7001 5.69984 23.5001L5.59984 23.4001C5.39984 23.3001 5.29982 23.0001 5.39982 22.8001Z" fill="#0075A6"/>
<path fill-rule="evenodd" clip-rule="evenodd" d="M4.80003 22.3002L7.10005 21.5002C7.40005 21.4002 7.40006 21.2002 7.20006 21.1002L7.10005 21.0002C6.90005 20.8002 6.60003 20.8002 6.30003 20.9002L4.20006 21.7002C3.90006 21.9002 3.80004 22.1002 4.00004 22.3002C4.20004 22.3002 4.60003 22.4002 4.80003 22.3002Z" fill="#0075A6"/>
<path fill-rule="evenodd" clip-rule="evenodd" d="M4.0001 21.5001L5.40009 19.8001C5.60009 19.6001 5.8001 19.6001 6.0001 19.8001L6.1001 19.9001C6.3001 20.1001 6.3001 20.4001 6.1001 20.6001L4.70011 22.3001C4.50011 22.5001 4.3001 22.5001 4.1001 22.3001L4.0001 22.2001C3.8001 22.0001 3.8001 21.7001 4.0001 21.5001Z" fill="#0075A6"/>
<path fill-rule="evenodd" clip-rule="evenodd" d="M3.50013 20.9001L5.90012 20.4001C6.20012 20.3001 6.30013 20.2001 6.10013 20.0001L6.00013 19.9001C5.80013 19.7001 5.50014 19.6001 5.20014 19.7001L3.00013 20.2001C2.70013 20.3001 2.50014 20.5001 2.70014 20.8001C2.90014 20.9001 3.20013 21.0001 3.50013 20.9001Z" fill="#0075A6"/>
<path fill-rule="evenodd" clip-rule="evenodd" d="M2.79995 20.0001L4.39995 18.5001C4.59995 18.3001 4.79996 18.4001 4.99996 18.6001L5.09997 18.7001C5.19997 18.9001 5.19996 19.2001 4.99996 19.4001L3.39995 20.9001C3.19995 21.1001 2.99995 21.0001 2.79995 20.8001L2.69997 20.7001C2.59997 20.4001 2.59995 20.2001 2.79995 20.0001Z" fill="#0075A6"/>
<path fill-rule="evenodd" clip-rule="evenodd" d="M2.40007 19.4L4.90007 19.3C5.20007 19.3 5.30009 19.1 5.20009 18.9L5.10008 18.8C5.00008 18.6 4.60007 18.4 4.40007 18.5L2.10008 18.6C1.80008 18.7 1.60009 18.8 1.70009 19.1C1.80009 19.2 2.10007 19.4 2.40007 19.4Z" fill="#0075A6"/>
<path fill-rule="evenodd" clip-rule="evenodd" d="M1.80001 18.3L3.60002 17C3.80002 16.9 4.10003 16.9 4.20003 17.1L4.30001 17.2C4.40001 17.4 4.30002 17.7 4.10002 17.8L2.30001 19.1C2.10001 19.2 1.80003 19.2 1.70003 19L1.60002 18.9C1.50002 18.7 1.60001 18.5 1.80001 18.3Z" fill="#0075A6"/>
<path fill-rule="evenodd" clip-rule="evenodd" d="M1.50006 17.6L3.90005 17.8999C4.20005 17.8999 4.30007 17.8 4.20007 17.6L4.10007 17.5C4.00007 17.3 3.70006 17.1 3.50006 17L1.30005 16.7C1.00005 16.7 0.800049 16.8 0.800049 17.1C1.00005 17.4 1.30006 17.6 1.50006 17.6Z" fill="#0075A6"/>
<path fill-rule="evenodd" clip-rule="evenodd" d="M1.10007 16.5002L3.10007 15.5002C3.30007 15.4002 3.60007 15.5002 3.60007 15.7002V15.8002C3.70007 16.0002 3.60005 16.3002 3.30005 16.4002L1.30005 17.4002C1.10005 17.5002 0.800049 17.4002 0.800049 17.2002V17.1002C0.800049 16.9002 0.900067 16.6002 1.10007 16.5002Z" fill="#0075A6"/>
<path fill-rule="evenodd" clip-rule="evenodd" d="M1 15.8L3.39999 16.5C3.69999 16.6 3.79999 16.4 3.79999 16.2V16C3.69999 15.8 3.50001 15.5 3.20001 15.4L1 14.8C0.7 14.8 0.5 14.8 0.5 15.2C0.5 15.4 0.7 15.7 1 15.8Z" fill="#0075A6"/>
<path fill-rule="evenodd" clip-rule="evenodd" d="M0.700165 14.6001L2.80014 13.9001C3.00014 13.8001 3.30014 14.0001 3.30014 14.2001V14.3001C3.30014 14.5001 3.20015 14.8001 3.00015 14.9001L0.900146 15.6001C0.700146 15.7001 0.400146 15.5001 0.400146 15.3001V15.2001C0.400146 15.0001 0.500165 14.7001 0.700165 14.6001Z" fill="#0075A6"/>
<path fill-rule="evenodd" clip-rule="evenodd" d="M1.40009 13.8L3.00009 14.6C3.20009 14.7 3.30008 14.5999 3.30008 14.3999V14.3C3.30008 14.1 3.10009 13.4999 3.00009 13.3999L1.50009 12.7C1.30009 12.7 1.1001 13.1 1.1001 13.3C1.1001 13.5 1.20009 13.7 1.40009 13.8Z" fill="#0075A6"/>
<path fill-rule="evenodd" clip-rule="evenodd" d="M22.1 23.2L23.3 21.2C23.6 20.7 23.6 20.2 23.2 19.8L20.7 17.3C20.3 16.9 19.8 16.9 19.3 17.1L16.9 18.5C15.8 18.3 14.3 16.9 13.2 15.9C12.1 14.8 10.8 13.4 10.6 12.2L12 9.80003C12.2 9.30003 12.3 8.80002 11.8 8.40002L9.29998 5.90002C8.89998 5.50002 8.49999 5.50003 7.89999 5.80003L5.89999 7.00003C5.29999 7.40003 5.50001 8.20003 5.70001 9.10003C6.70001 12.8 8.50001 15.3 11.2 17.9C13.8 20.5 16.3 22.4 20 23.4C20.9 23.6 21.7 23.8 22.1 23.2Z" fill="#0075A6"/>
<path fill-rule="evenodd" clip-rule="evenodd" d="M20.6999 22.8L20.0999 22.7L18.7999 22.3C15.9999 21.3 13.8999 19.7 11.5999 17.4C9.39994 15.1 7.69994 13 6.69994 10.2L6.29992 8.99999L6.19994 8.6C5.99994 7.7 6.09994 7.69999 6.19994 7.69999L8.19994 6.49999C8.49994 6.29999 8.59994 6.39999 8.69994 6.49999L11.1999 8.99999C11.2999 9.09999 11.2999 9.09999 11.2999 9.19999L11.1999 9.49999L9.79992 11.8C9.69992 12 9.69994 12.1 9.69994 12.3C9.99994 13.9 11.4999 15.4 12.4999 16.4C13.4999 17.4 15.2999 19.1 16.5999 19.3C16.7999 19.3 16.8999 19.3 17.0999 19.2L19.3999 17.8L19.6999 17.7L19.8999 17.8L22.3999 20.3C22.4999 20.4 22.5999 20.5 22.3999 20.8L21.1999 22.8C21.3999 22.8 21.1999 22.8 20.6999 22.8Z" fill="#00A2E5"/>
</svg>
