<svg width="82" height="76" viewBox="0 0 82 76" fill="none" xmlns="http://www.w3.org/2000/svg">
<path fill-rule="evenodd" clip-rule="evenodd" d="M6.80005 21.1001H13.6C34.4 21.1001 49.6 26.0001 49.6 31.6001C49.6 34.2001 45.9 39.0001 43.7 42.1001C40.4 46.8001 35.6 49.6001 33.1 54.9001C31.3 58.6001 27.7001 62.4001 23.3001 62.4001H11.3001C1.20005 50.4001 -0.499952 36.7001 6.80005 21.1001Z" fill="#00A2E5" stroke="#0075A6" stroke-width="0.75" stroke-miterlimit="79.8403" stroke-linecap="round" stroke-linejoin="round"/>
<path fill-rule="evenodd" clip-rule="evenodd" d="M28.9001 51.5V50C28.9001 46.3 36.6001 34.8 37.9001 32.8V31.3C37.9001 29.7 39.9001 28.3 41.7001 28.3C42.8001 28.3 43.9001 29 44.7001 29.8C45.5001 29.8 46.2001 30 46.2001 30.6C46.2001 30.8 46.2001 31 46.1001 31.2L32.7001 56.8H22.9001L25.9001 50.8C26.8001 50.9 27.8001 51.2 28.7001 51.5C29.6001 51.8 29.1001 51.6 28.9001 51.5Z" fill="white"/>
<path d="M28.9001 51.5V50C28.9001 46.3 36.6001 34.8 37.9001 32.8V31.3C37.9001 29.7 39.9001 28.3 41.7001 28.3C42.8001 28.3 43.9001 29 44.7001 29.8C45.5001 29.8 46.2001 30 46.2001 30.6C46.2001 30.8 46.2001 31 46.1001 31.2L32.7001 56.8H22.9001L25.9001 50.8C27.5001 51 28.9001 51.6 30.4001 52.3" stroke="#0075A6" stroke-width="0.75" stroke-miterlimit="79.8403" stroke-linecap="round" stroke-linejoin="round"/>
<path d="M44.7002 29.7L36.7002 44.9C33.3002 46.7 30.8002 50 29.7002 55.2" stroke="#0075A6" stroke-width="0.75" stroke-miterlimit="79.8403" stroke-linecap="round" stroke-linejoin="round"/>
<path d="M23.7002 55.2H33.5002" stroke="#0075A6" stroke-width="0.75" stroke-miterlimit="79.8403" stroke-linecap="round" stroke-linejoin="round"/>
<path d="M39 1.6001C57.2 1.6001 72.4 14.9001 75.3 32.3001" stroke="#0075A6" stroke-width="1.5" stroke-miterlimit="79.8403" stroke-linecap="round" stroke-linejoin="round"/>
<path d="M67.8001 61.2002C61.1001 69.6002 50.7001 75.1002 39.1001 75.1002C34.7001 75.1002 30.5001 74.3002 26.6001 72.9002" stroke="#0075A6" stroke-width="1.5" stroke-miterlimit="79.8403" stroke-linecap="round" stroke-linejoin="round"/>
<path d="M49.5 73.6001C56.1274 73.6001 61.5 68.2275 61.5 61.6001C61.5 54.9727 56.1274 49.6001 49.5 49.6001C42.8726 49.6001 37.5 54.9727 37.5 61.6001C37.5 68.2275 42.8726 73.6001 49.5 73.6001Z" stroke="white" stroke-width="3" stroke-miterlimit="79.8403" stroke-linecap="round" stroke-linejoin="round"/>
<path fill-rule="evenodd" clip-rule="evenodd" d="M34.5 65.4001L64.5 59.4001L60 43.6001C50.3 44.4001 42.5 48.1001 33.8 53.4001L34.5 65.4001Z" fill="#00A2E5"/>
<path d="M34.5 65.4001L64.5 59.4001" stroke="#0075A6" stroke-width="0.75" stroke-miterlimit="79.8403" stroke-linecap="round" stroke-linejoin="round"/>
<path fill-rule="evenodd" clip-rule="evenodd" d="M37.5 61.6001C37.5 55.0001 42.9 49.6001 49.5 49.6001C56.1 49.6001 61.5 55.0001 61.5 61.6001C61.5 68.2001 56.1 73.6001 49.5 73.6001C42.9 73.6001 37.5 68.2001 37.5 61.6001ZM58.9 61.6001C58.9 56.4001 54.7 52.2001 49.5 52.2001C44.3 52.2001 40.1 56.4001 40.1 61.6001C40.1 66.8001 44.3 71.0001 49.5 71.0001C54.7 71.0001 58.9 66.8001 58.9 61.6001Z" fill="#00A2E5"/>
<path d="M49.5 73.6001C56.1274 73.6001 61.5 68.2275 61.5 61.6001C61.5 54.9727 56.1274 49.6001 49.5 49.6001C42.8726 49.6001 37.5 54.9727 37.5 61.6001C37.5 68.2275 42.8726 73.6001 49.5 73.6001Z" stroke="#0075A6" stroke-width="1.5" stroke-miterlimit="79.8403" stroke-linecap="round" stroke-linejoin="round"/>
<path d="M49.5001 71.0002C54.6916 71.0002 58.9001 66.7917 58.9001 61.6002C58.9001 56.4087 54.6916 52.2002 49.5001 52.2002C44.3086 52.2002 40.1001 56.4087 40.1001 61.6002C40.1001 66.7917 44.3086 71.0002 49.5001 71.0002Z" fill="white"/>
<path d="M49.5001 62.7C50.1077 62.7 50.6001 62.2075 50.6001 61.6C50.6001 60.9925 50.1077 60.5 49.5001 60.5C48.8926 60.5 48.4001 60.9925 48.4001 61.6C48.4001 62.2075 48.8926 62.7 49.5001 62.7Z" stroke="#0075A6" stroke-width="0.75" stroke-miterlimit="79.8403" stroke-linecap="round" stroke-linejoin="round"/>
<path fill-rule="evenodd" clip-rule="evenodd" d="M49.4999 58.6001C49.0999 58.6001 48.5999 58.4001 48.3999 58.1001L47.1999 56.4001C46.7999 55.9001 46.3999 54.8001 47.1999 54.5001C47.8999 54.3001 48.6999 54.1001 49.4999 54.1001C50.2999 54.1001 51.0999 54.2001 51.7999 54.5001C52.5999 54.8001 52.0999 55.9001 51.7999 56.4001L50.5999 58.1001C50.3999 58.4001 49.8999 58.6001 49.4999 58.6001Z" fill="#00A2E5"/>
<path fill-rule="evenodd" clip-rule="evenodd" d="M46.7 60.7C46.6 61.1 46.2 61.4 45.8 61.6L43.8 62.2C43.2 62.4 42 62.5 42 61.6C42 60.8 42.1 60.1 42.4 59.3C42.6 58.5 43 57.9 43.4 57.2C43.9 56.5 44.8 57.3 45.2 57.8L46.5 59.4C46.7 59.8 46.8 60.3 46.7 60.7Z" fill="#00A2E5"/>
<path fill-rule="evenodd" clip-rule="evenodd" d="M47.8001 64C48.1001 64.2 48.4001 64.7 48.4001 65.1L48.3001 67.2C48.3001 67.8 48.0001 69 47.2001 68.8C46.5001 68.6 45.8001 68.2 45.1001 67.7C44.5001 67.2 43.9001 66.7 43.5001 66.1C43.0001 65.4 44.0001 64.8 44.6001 64.6L46.5001 63.9C47.0001 63.7 47.5001 63.8 47.8001 64Z" fill="#00A2E5"/>
<path fill-rule="evenodd" clip-rule="evenodd" d="M52.3999 60.7C52.4999 61.1 52.8999 61.4 53.2999 61.6L55.2999 62.2C55.8999 62.4 57.0999 62.5 57.0999 61.6C57.0999 60.8 56.9999 60.1 56.6999 59.3C56.4999 58.5 56.0999 57.9 55.6999 57.2C55.1999 56.5 54.2999 57.3 53.8999 57.8L52.5999 59.4C52.2999 59.8 52.2999 60.3 52.3999 60.7Z" fill="#00A2E5"/>
<path fill-rule="evenodd" clip-rule="evenodd" d="M51.3 64C51 64.2 50.7 64.7 50.7 65.1L50.8 67.2C50.8 67.8 51.1 69 51.9 68.8C52.6 68.6 53.3 68.2 54 67.7C54.6 67.2 55.2 66.7 55.6 66.1C56.1 65.4 55.1 64.8 54.5 64.6L52.6 63.9C52.1 63.7 51.6 63.8 51.3 64Z" fill="#00A2E5"/>
<path d="M49.4999 58.6001C49.0999 58.6001 48.5999 58.4001 48.3999 58.1001L47.1999 56.4001C46.7999 55.9001 46.3999 54.8001 47.1999 54.5001C47.8999 54.3001 48.6999 54.1001 49.4999 54.1001C50.2999 54.1001 51.0999 54.2001 51.7999 54.5001C52.5999 54.8001 52.0999 55.9001 51.7999 56.4001L50.5999 58.1001C50.3999 58.4001 49.8999 58.6001 49.4999 58.6001Z" stroke="#0075A6" stroke-width="0.75" stroke-miterlimit="79.8403" stroke-linecap="round" stroke-linejoin="round"/>
<path d="M46.7 60.7C46.6 61.1 46.2 61.4 45.8 61.6L43.8 62.2C43.2 62.4 42 62.5 42 61.6C42 60.8 42.1 60.1 42.4 59.3C42.6 58.5 43 57.9 43.4 57.2C43.9 56.5 44.8 57.3 45.2 57.8L46.5 59.4C46.7 59.8 46.8 60.3 46.7 60.7Z" stroke="#0075A6" stroke-width="0.75" stroke-miterlimit="79.8403" stroke-linecap="round" stroke-linejoin="round"/>
<path d="M47.8001 64C48.1001 64.2 48.4001 64.7 48.4001 65.1L48.3001 67.2C48.3001 67.8 48.0001 69 47.2001 68.8C46.5001 68.6 45.8001 68.2 45.1001 67.7C44.5001 67.2 43.9001 66.7 43.5001 66.1C43.0001 65.4 44.0001 64.8 44.6001 64.6L46.5001 63.9C47.0001 63.7 47.5001 63.8 47.8001 64Z" stroke="#0075A6" stroke-width="0.75" stroke-miterlimit="79.8403" stroke-linecap="round" stroke-linejoin="round"/>
<path d="M52.3999 60.7C52.4999 61.1 52.8999 61.4 53.2999 61.6L55.2999 62.2C55.8999 62.4 57.0999 62.5 57.0999 61.6C57.0999 60.8 56.9999 60.1 56.6999 59.3C56.4999 58.5 56.0999 57.9 55.6999 57.2C55.1999 56.5 54.2999 57.3 53.8999 57.8L52.5999 59.4C52.2999 59.8 52.2999 60.3 52.3999 60.7Z" stroke="#0075A6" stroke-width="0.75" stroke-miterlimit="79.8403" stroke-linecap="round" stroke-linejoin="round"/>
<path d="M51.3 64C51 64.2 50.7 64.7 50.7 65.1L50.8 67.2C50.8 67.8 51.1 69 51.9 68.8C52.6 68.6 53.3 68.2 54 67.7C54.6 67.2 55.2 66.7 55.6 66.1C56.1 65.4 55.1 64.8 54.5 64.6L52.6 63.9C52.1 63.7 51.6 63.8 51.3 64Z" stroke="#0075A6" stroke-width="0.75" stroke-miterlimit="79.8403" stroke-linecap="round" stroke-linejoin="round"/>
<path d="M49.5001 71.0002C54.6916 71.0002 58.9001 66.7917 58.9001 61.6002C58.9001 56.4087 54.6916 52.2002 49.5001 52.2002C44.3086 52.2002 40.1001 56.4087 40.1001 61.6002C40.1001 66.7917 44.3086 71.0002 49.5001 71.0002Z" stroke="#0075A6" stroke-width="0.75" stroke-miterlimit="79.8403" stroke-linecap="round" stroke-linejoin="round"/>
<path d="M64.8 60.6C65.1 61.1 65.8 61.6 67 61.4C68.8 61.1 70.7 60.5 72.3 59.7C74.5 58.6 75.4 56.3 76.8 54.5C78.3 52.6 80.2 51.2 80.2 48.8C80.2 45 77.2 42 77.2 38.3C77.2 37 78 35.8 78 34.5C78 33.2 76.2 32.3 75 32.3L65.2 31.5" stroke="white" stroke-width="3" stroke-miterlimit="79.8403" stroke-linecap="round" stroke-linejoin="round"/>
<path d="M43.6 42.1001C40.3 46.8001 35.5 49.6001 33 54.9001C31.2 58.6001 27.6 62.4001 23.2 62.4001H20.3" stroke="#00A2E5" stroke-width="3" stroke-miterlimit="79.8403" stroke-linecap="round" stroke-linejoin="round"/>
<path fill-rule="evenodd" clip-rule="evenodd" d="M14.3001 65.4H34.5001V61.6C34.5001 53.3 41.2001 46.6 49.5001 46.6C57.0001 46.6 63.3001 52.2 64.3001 59.4C64.4001 60.1 64.7001 61.8 66.9001 61.4C68.7001 61.1 70.6001 60.5 72.2001 59.7C74.4001 58.6 75.3001 56.3 76.7001 54.5C78.2001 52.6 80.1001 51.2 80.1001 48.8C80.1001 45 77.1001 42 77.1001 38.3C77.1001 37 77.9001 35.8 77.9001 34.5C77.9001 33.2 76.1001 32.3 74.9001 32.3L65.1001 31.5C51.3001 23.2 41.1001 18 20.1001 18H8.1001L6.6001 21H13.4001C34.2001 21 49.4001 25.9 49.4001 31.5C49.4001 34.1 45.7001 38.9 43.5001 42C40.2001 46.7 35.4001 49.5 32.9001 54.8C31.1001 58.5 27.5001 62.3 23.1001 62.3H11.1001L14.3001 65.4Z" fill="#85DBF6"/>
<path fill-rule="evenodd" clip-rule="evenodd" d="M13.5002 64.6001L11.3002 62.4001H23.3002C27.6002 62.4001 31.3002 58.6001 33.1002 54.9001C35.6002 49.7001 40.4002 46.8001 43.7002 42.1001C45.6002 39.4001 48.6002 35.5001 49.4002 32.8001C49.5002 33.2001 49.6002 33.5001 49.6002 33.9001C49.6002 36.5001 45.9002 41.3001 43.7002 44.4001C40.4002 49.1001 35.6002 51.9001 33.1002 57.2001C31.3002 60.9001 27.7002 64.7001 23.3002 64.7001L13.5002 64.6001ZM77.3002 40.6001C77.3002 40.3001 77.3002 40.0001 77.4002 39.7001C78.0002 42.8001 80.3002 45.6001 80.3002 48.9001C80.3002 49.2001 80.3002 49.6001 80.2002 49.9001C79.6002 46.6001 77.3002 43.9001 77.3002 40.6001ZM75.0002 34.6001L65.2002 33.8001C51.4002 25.5001 41.2002 20.3001 20.2002 20.3001H8.2002L7.80019 21.1001H6.7002L8.2002 18.1001H20.2002C41.2002 18.1001 51.4002 23.3001 65.2002 31.6001L75.0002 32.4001C76.2002 32.5001 78.0002 33.4001 78.0002 34.6001C78.0002 35.1001 77.9002 35.6001 77.8002 36.0001C77.3002 35.2001 76.0002 34.7001 75.0002 34.6001Z" fill="white"/>
<path fill-rule="evenodd" clip-rule="evenodd" d="M79.5 45.9001C78.5 43.4001 77.7 40.9001 77.3 38.4001H72.8C72.1 38.4001 72 39.6001 72 40.6001C72 43.7001 76.7 44.4001 79.5 45.9001Z" fill="#00A2E5"/>
<path d="M14.3001 65.4H34.5001V61.6C34.5001 53.3 41.2001 46.6 49.5001 46.6C57.0001 46.6 63.3001 52.2 64.3001 59.4C64.4001 60.1 64.7001 61.8 66.9001 61.4C68.7001 61.1 70.6001 60.5 72.2001 59.7C74.4001 58.6 75.3001 56.3 76.7001 54.5C78.2001 52.6 80.1001 51.2 80.1001 48.8C80.1001 45 77.1001 42 77.1001 38.3C77.1001 37 77.9001 35.8 77.9001 34.5C77.9001 33.2 76.1001 32.3 74.9001 32.3L65.1001 31.5C51.3001 23.2 41.1001 18 20.1001 18H8.1001" stroke="#0075A6" stroke-width="1.5" stroke-miterlimit="79.8403" stroke-linecap="round" stroke-linejoin="round"/>
<path d="M6.80005 21.1001H13.6C34.4 21.1001 49.6 26.0001 49.6 31.6001C49.6 34.2001 45.9 39.0001 43.7 42.1001C40.4 46.8001 35.6 49.6001 33.1 54.9001C31.3 58.6001 27.7001 62.4001 23.3001 62.4001H11.3001" stroke="#0075A6" stroke-width="1.5" stroke-miterlimit="79.8403" stroke-linecap="round" stroke-linejoin="round"/>
<path d="M26 33.9L14.2 35.2C12.6 35.4 12.1 33.7 12.6 30.8C12.8 29.5 13.1 28.1 13.3 26.8L14.4 22L15.3 21.2C16.5 20.3 18.3 20 21 20C27 20 29.6 23.4 29.6 28.6C29.7 31.3 28.2 33.7 26 33.9Z" stroke="#00A2E5" stroke-width="2.25" stroke-miterlimit="79.8403" stroke-linecap="round" stroke-linejoin="round"/>
<path fill-rule="evenodd" clip-rule="evenodd" d="M13.7001 20.3001C9.80011 30.0001 9.20011 44.3001 9.90011 60.6001C2.00011 49.4001 -1.79989 36.7001 7.70011 19.1001L13.7001 20.3001Z" fill="#85DBF6"/>
<path fill-rule="evenodd" clip-rule="evenodd" d="M11.3001 21.1001L9.1001 35.3001H3.1001C3.2001 30.5001 3.8001 25.6001 7.6001 21.1001H11.3001Z" fill="#00A2E5"/>
<path d="M6.80005 21.1001H12.8001" stroke="#0075A6" stroke-width="1.5" stroke-miterlimit="79.8403" stroke-linecap="round" stroke-linejoin="round"/>
<path d="M3 35.4001H9.8" stroke="#0075A6" stroke-width="1.5" stroke-miterlimit="79.8403" stroke-linecap="round" stroke-linejoin="round"/>
<path d="M23.8001 71.8C11.1001 66 2.30005 53.2001 2.30005 38.4001C2.30005 21.3001 14.0001 6.90005 29.9001 2.80005" stroke="white" stroke-width="3" stroke-miterlimit="79.8403" stroke-linecap="round" stroke-linejoin="round"/>
<path d="M26.5002 72.9001C12.4002 67.8001 2.2002 54.2001 2.2002 38.3001C2.2002 18.0001 18.7002 1.6001 38.9002 1.6001" stroke="#0075A6" stroke-width="1.5" stroke-miterlimit="79.8403" stroke-linecap="round" stroke-linejoin="round"/>
<path d="M9.80005 60.1001V42.9001C9.80005 34.9001 11.1 28.4001 12.8 21.1001C14.6 18.7001 17.4 18.1001 21 18.1001C28.1 18.1001 31.5 22.5001 31.5 28.6001C31.5 31.4001 29.1 40.1001 26.3 48.6001C25.1 52.3001 23.2 54.7001 22 57.8001C20 62.8001 18.8 67.7001 18 67.7001C16.2 67.6001 12 62.6001 9.80005 60.1001Z" stroke="white" stroke-width="3" stroke-miterlimit="79.8403" stroke-linecap="round" stroke-linejoin="round"/>
<path fill-rule="evenodd" clip-rule="evenodd" d="M9.80005 60.1001V42.9001C9.80005 34.9001 11.1 28.4001 12.8 21.1001C14.6 18.7001 17.4 18.1001 21 18.1001C28.1 18.1001 31.5 22.5001 31.5 28.6001C31.5 31.4001 29.1 40.1001 26.3 48.6001C25.1 52.3001 23.2 54.7001 22 57.8001C20 62.8001 18.8 67.7001 18 67.7001C16.2 67.6001 12 62.6001 9.80005 60.1001ZM14.3 35.2001L26.1 33.9001C28.2 33.7001 29.7 31.3001 29.7 28.6001C29.7 23.4001 27.1 20.0001 21.1 20.0001C18.4 20.0001 16.7 20.3001 15.4 21.2001L14.5 22.0001L13.4 26.8001C13.1 28.1001 12.9 29.5001 12.7 30.8001C12.2 33.7001 12.7 35.4001 14.3 35.2001Z" fill="#85DBF6"/>
<path fill-rule="evenodd" clip-rule="evenodd" d="M12.8001 22.6001V21.1001C14.6001 18.7001 17.4001 18.1001 21.0001 18.1001C28.1001 18.1001 31.5001 22.5001 31.5001 28.6001C31.5001 28.8001 31.5001 29.0001 31.5001 29.2001C31.2001 23.6001 27.8001 19.6001 21.0001 19.6001C17.4001 19.6001 14.6001 20.2001 12.8001 22.6001ZM12.5001 33.4001C12.6001 34.7001 13.2001 35.3001 14.2001 35.2001L26.0001 33.9001C28.0001 33.7001 29.4001 31.6001 29.6001 29.2001C29.6001 29.5001 29.6001 29.8001 29.6001 30.1001C29.6001 32.8001 28.1001 35.9001 26.0001 36.2001L14.2001 37.5001C12.9001 37.6001 12.3001 35.7001 12.5001 33.4001Z" fill="white"/>
<path d="M9.80005 60.1001V42.9001C9.80005 34.9001 11.1 28.4001 12.8 21.1001C14.6 18.7001 17.4 18.1001 21 18.1001C28.1 18.1001 31.5 22.5001 31.5 28.6001C31.5 31.4001 29.1 40.1001 26.3 48.6001C25.1 52.3001 23.2 54.7001 22 57.8001C20 62.8001 18.8 67.7001 18 67.7001C16.2 67.6001 12 62.6001 9.80005 60.1001Z" stroke="#0075A6" stroke-width="1.5" stroke-miterlimit="79.8403" stroke-linecap="round" stroke-linejoin="round"/>
<path d="M26 33.9L14.2 35.2C12.6 35.4 12.1 33.7 12.6 30.8C12.8 29.5 13.1 28.1 13.3 26.8L14.4 22L15.3 21.2C16.5 20.3 18.3 20 21 20C27 20 29.6 23.4 29.6 28.6C29.7 31.3 28.2 33.7 26 33.9Z" stroke="#0075A6" stroke-width="0.75" stroke-miterlimit="79.8403" stroke-linecap="round" stroke-linejoin="round"/>
<path d="M77.3 38.4001H72.8C72.1 38.4001 72 39.6001 72 40.6001C72 43.7001 76.7 44.4001 79.5 45.8001" stroke="#0075A6" stroke-width="1.5" stroke-miterlimit="79.8403" stroke-linecap="round" stroke-linejoin="round"/>
</svg>
