<svg width="77" height="76" viewBox="0 0 77 76" fill="none" xmlns="http://www.w3.org/2000/svg">
<path d="M38.8999 1.6001C59.1999 1.6001 75.5999 18.1001 75.5999 38.3001C75.5999 58.5001 59.0999 75.0001 38.8999 75.0001" stroke="#0075A6" stroke-width="1.5" stroke-miterlimit="79.8403" stroke-linecap="round" stroke-linejoin="round"/>
<path fill-rule="evenodd" clip-rule="evenodd" d="M12.5 63.9001H69V62.4001C68.2 62.4001 67.5 61.7001 67.5 60.9001V55.6001C67.5 54.8001 68.2 54.1001 69 54.1001V52.6001C68.2 52.6001 67.5 51.9001 67.5 51.1001V45.9001C67.5 45.1001 68.2 44.4001 69 44.4001V42.9001H63C62.2 42.9001 61.5 42.2001 61.5 41.4001V36.2001C61.5 35.4001 62.2 34.7001 63 34.7001V33.2001C62.2 33.2001 61.5 32.5001 61.5 31.7001V26.5001C61.5 25.7001 62.2 25.0001 63 25.0001V23.5001H30.8C30 23.5001 29.3 22.8001 29.3 22.0001V16.6001C29.3 16.2001 29.5 15.8001 29.7 15.5001L30 15.3001V13.6001H11.8999C12.8999 12.5001 13.9 11.5001 15 10.6001H31.6C32.4 10.6001 33.1 11.3001 33.1 12.1001V16.6001C33.1 17.0001 32.9 17.4001 32.7 17.7001L32.3999 17.9001V20.4001H64.6C65.4 20.4001 66.1 21.1001 66.1 21.9001V26.4001C66.1 27.2001 65.4 27.9001 64.6 27.9001V30.1001C65.4 30.1001 66.1 30.8001 66.1 31.6001V36.1001C66.1 36.9001 65.4 37.6001 64.6 37.6001V39.8001H70.6C71.4 39.8001 72.1 40.5001 72.1 41.3001V45.8001C72.1 46.6001 71.4 47.3001 70.6 47.3001V49.5001C71.4 49.5001 72.1 50.2001 72.1 51.0001V55.5001C72.1 56.3001 71.4 57.0001 70.6 57.0001V59.2001C71.4 59.2001 72.1 59.9001 72.1 60.7001V65.2001C72.1 66.0001 71.4 66.7001 70.6 66.7001H15.8999C14.5999 65.9001 13.5 64.9001 12.5 63.9001ZM2.19995 38.4001C2.19995 37.2001 2.29995 36.1001 2.39995 35.0001C2.79995 35.3001 2.99995 35.7001 2.99995 36.2001V41.4001C2.99995 41.8001 2.79995 42.3001 2.49995 42.5001C2.29995 41.1001 2.19995 39.8001 2.19995 38.4001ZM2.89995 31.0001V31.6001C2.89995 31.9001 2.79996 32.2001 2.59996 32.5001C2.69996 32.0001 2.79995 31.5001 2.89995 31.0001Z" fill="white"/>
<path fill-rule="evenodd" clip-rule="evenodd" d="M2.19995 38.4001C2.19995 28.1001 6.39995 18.8001 13.2 12.1001H31.3999V16.6001H30.6V21.9001H64.3999V26.4001H62.8999V31.6001H64.3999V36.1001H62.8999V41.3001H70.3999V45.8001H68.8999V51.0001H70.3999V55.5001H68.8999V60.7001H70.3999V65.2001H14C6.69995 58.6001 2.19995 49.0001 2.19995 38.4001Z" fill="#85DBF6"/>
<path fill-rule="evenodd" clip-rule="evenodd" d="M7.3999 57.3002V19.5002C7.9999 18.5002 8.59991 17.6002 9.29991 16.7002H15.6999V65.5002H13.9999C11.3999 63.0002 9.1999 60.3002 7.3999 57.3002Z" fill="#00A2E5"/>
<path fill-rule="evenodd" clip-rule="evenodd" d="M6.69995 56.0001V20.7001C6.89995 20.3001 7.19995 19.8001 7.49995 19.4001V57.2001C7.19995 56.8001 6.89995 56.4001 6.69995 56.0001Z" fill="#0075A6"/>
<path fill-rule="evenodd" clip-rule="evenodd" d="M15.7 65.0001V17.0001C15.7 16.8001 15.9 16.6001 16.1 16.6001C16.3 16.6001 16.5 16.8001 16.5 17.0001V65.0001C16.5 65.2001 16.3 65.4001 16.1 65.4001C15.8 65.4001 15.7 65.2001 15.7 65.0001Z" fill="#0075A6"/>
<path fill-rule="evenodd" clip-rule="evenodd" d="M26.8999 65.4001V16.6001H30.6999V21.9001H35.1999V65.4001H26.8999Z" fill="#00A2E5"/>
<path fill-rule="evenodd" clip-rule="evenodd" d="M26.2 65.0001V17.0001C26.2 16.8001 26.4 16.6001 26.6 16.6001C26.8 16.6001 27 16.8001 27 17.0001V65.0001C27 65.2001 26.8 65.4001 26.6 65.4001C26.3 65.4001 26.2 65.2001 26.2 65.0001Z" fill="#0075A6"/>
<path fill-rule="evenodd" clip-rule="evenodd" d="M29.8999 64.9V16.9C29.8999 16.7 30.0999 16.5 30.2999 16.5C30.4999 16.5 30.6999 16.7 30.6999 16.9V64.9C30.6999 65.1 30.4999 65.3 30.2999 65.3C30.0999 65.3 29.8999 65.1 29.8999 64.9Z" fill="#0075A6"/>
<path fill-rule="evenodd" clip-rule="evenodd" d="M35.2 65V21.9C35.2 21.7 35.4 21.5 35.6 21.5C35.8 21.5 36 21.7 36 21.9V65C36 65.2 35.8 65.4 35.6 65.4C35.3 65.4 35.2 65.2 35.2 65Z" fill="#0075A6"/>
<path fill-rule="evenodd" clip-rule="evenodd" d="M48.7 65.4001V24.1001H57V65.4001H48.7Z" fill="#00A2E5"/>
<path fill-rule="evenodd" clip-rule="evenodd" d="M47.8999 65.0001V24.5001C47.8999 24.3001 48.0999 24.1001 48.2999 24.1001C48.4999 24.1001 48.6999 24.3001 48.6999 24.5001V65.0001C48.6999 65.2001 48.4999 65.4001 48.2999 65.4001C48.0999 65.4001 47.8999 65.2001 47.8999 65.0001Z" fill="#0075A6"/>
<path fill-rule="evenodd" clip-rule="evenodd" d="M56.8999 65.0001V24.5001C56.8999 24.3001 57.0999 24.1001 57.2999 24.1001C57.4999 24.1001 57.6999 24.3001 57.6999 24.5001V65.0001C57.6999 65.2001 57.4999 65.4001 57.2999 65.4001C57.0999 65.4001 56.8999 65.2001 56.8999 65.0001Z" fill="#0075A6"/>
<path fill-rule="evenodd" clip-rule="evenodd" d="M13.2 12.1001H31.4V16.6001H9.30005C10.5 15.0001 11.8 13.5001 13.2 12.1001Z" fill="white"/>
<path fill-rule="evenodd" clip-rule="evenodd" d="M6.09996 21.9001H64.3999V26.4001H4.19995C4.69995 24.8001 5.39996 23.3001 6.09996 21.9001Z" fill="white"/>
<path fill-rule="evenodd" clip-rule="evenodd" d="M2.79996 31.6001H64.3999V36.1001H2.19995C2.29995 34.6001 2.49996 33.1001 2.79996 31.6001Z" fill="white"/>
<path fill-rule="evenodd" clip-rule="evenodd" d="M2.30005 41.4001H70.4V45.9001H2.90004C2.60004 44.4001 2.40005 42.9001 2.30005 41.4001Z" fill="white"/>
<path fill-rule="evenodd" clip-rule="evenodd" d="M4.5 51.1001H70.5V55.6001H6.60001C5.70001 54.2001 5 52.7001 4.5 51.1001Z" fill="white"/>
<path fill-rule="evenodd" clip-rule="evenodd" d="M9.8999 60.9001H70.3999V65.4001H13.9999C12.4999 64.0001 11.0999 62.5001 9.8999 60.9001Z" fill="white"/>
<path fill-rule="evenodd" clip-rule="evenodd" d="M9.90004 15.9001H30.7V12.9001H12.5C13 12.4001 13.5 11.9001 14 11.4001H31.4C31.8 11.4001 32.2 11.7001 32.2 12.2001V16.6001C32.2 17.0001 31.9 17.4001 31.4 17.4001H8.80005C9.10005 16.8001 9.50004 16.3001 9.90004 15.9001Z" fill="#0075A6"/>
<path fill-rule="evenodd" clip-rule="evenodd" d="M4.49991 25.6001H63.6999V22.6001H5.69991C5.89991 22.1001 6.19991 21.6001 6.49991 21.1001H64.3999C64.7999 21.1001 65.1999 21.4001 65.1999 21.9001V26.4001C65.1999 26.8001 64.8999 27.2001 64.3999 27.2001H3.8999C4.0999 26.6001 4.29991 26.1001 4.49991 25.6001Z" fill="#0075A6"/>
<path fill-rule="evenodd" clip-rule="evenodd" d="M2.30006 35.3H63.7001V32.3H2.70005C2.80005 31.8 2.90006 31.3 3.00006 30.8H64.5001C64.9001 30.8 65.3001 31.1 65.3001 31.6V36.1C65.3001 36.5 65.0001 36.9 64.5001 36.9H2.30006C2.20006 36.3 2.30006 35.8 2.30006 35.3Z" fill="#0075A6"/>
<path fill-rule="evenodd" clip-rule="evenodd" d="M2.80005 45.1001H69.7V42.1001H2.40004C2.40004 41.6001 2.30005 41.1001 2.30005 40.6001H70.5C70.9 40.6001 71.3 40.9001 71.3 41.4001V45.9001C71.3 46.3001 71 46.7001 70.5 46.7001H3.20004C3.00004 46.1001 2.90005 45.6001 2.80005 45.1001Z" fill="#0075A6"/>
<path fill-rule="evenodd" clip-rule="evenodd" d="M6.09996 54.9001H69.7V51.9001H4.79996C4.59996 51.4001 4.39995 50.9001 4.19995 50.4001H70.3999C70.7999 50.4001 71.2 50.7001 71.2 51.2001V55.7001C71.2 56.1001 70.8999 56.5001 70.3999 56.5001H6.89995C6.59995 55.9001 6.29996 55.4001 6.09996 54.9001Z" fill="#0075A6"/>
<path fill-rule="evenodd" clip-rule="evenodd" d="M13.2 64.6001H69.7V61.6001H10.5C10.1 61.1001 9.70005 60.6001 9.30005 60.1001H70.4C70.8 60.1001 71.2 60.4001 71.2 60.9001V65.4001C71.2 65.8001 70.9 66.2001 70.4 66.2001H14.8C14.3 65.6001 13.7 65.1001 13.2 64.6001Z" fill="#0075A6"/>
<path fill-rule="evenodd" clip-rule="evenodd" d="M62.2 30.9V27.1C62.2 26.7 62.5 26.3 63 26.3C63.4 26.3 63.8 26.6 63.8 27.1V30.9C63.8 31.3 63.5 31.7 63 31.7C62.5 31.6 62.2 31.3 62.2 30.9Z" fill="#0075A6"/>
<path fill-rule="evenodd" clip-rule="evenodd" d="M62.2 40.6V36.8C62.2 36.4 62.5 36 63 36C63.4 36 63.8 36.3 63.8 36.8V40.6C63.8 41 63.5 41.4 63 41.4C62.5 41.4 62.2 41 62.2 40.6Z" fill="#0075A6"/>
<path fill-rule="evenodd" clip-rule="evenodd" d="M68.2 50.4V46.6C68.2 46.2 68.5 45.8 69 45.8C69.4 45.8 69.8 46.1 69.8 46.6V50.4C69.8 50.8 69.5 51.2 69 51.2C68.5 51.1 68.2 50.8 68.2 50.4Z" fill="#0075A6"/>
<path fill-rule="evenodd" clip-rule="evenodd" d="M68.2 60.1V56.3C68.2 55.9 68.5 55.5 69 55.5C69.4 55.5 69.8 55.8 69.8 56.3V60.1C69.8 60.5 69.5 60.9 69 60.9C68.5 60.9 68.2 60.5 68.2 60.1Z" fill="#0075A6"/>
<path fill-rule="evenodd" clip-rule="evenodd" d="M36.7 19.6V15.8C36.7 15.4 37 15 37.5 15C37.9 15 38.3 15.3 38.3 15.8V19.6C38.3 20 38 20.4 37.5 20.4C37 20.4 36.7 20 36.7 19.6Z" fill="#0075A6" stroke="white" stroke-width="0.25" stroke-miterlimit="10"/>
<path fill-rule="evenodd" clip-rule="evenodd" d="M39.7 19.6V15.8C39.7 15.4 40 15 40.5 15C40.9 15 41.3 15.3 41.3 15.8V19.6C41.3 20 41 20.4 40.5 20.4C40 20.4 39.7 20 39.7 19.6Z" fill="#0075A6" stroke="white" stroke-width="0.25" stroke-miterlimit="10"/>
<path fill-rule="evenodd" clip-rule="evenodd" d="M37.3999 18.1C37.3999 17.7 37.6999 17.3 38.1999 17.3H40.4999C40.8999 17.3 41.2999 17.6 41.2999 18.1C41.2999 18.5 40.9999 18.9 40.4999 18.9H38.1999C37.7999 18.9 37.3999 18.5 37.3999 18.1Z" fill="#0075A6"/>
<path fill-rule="evenodd" clip-rule="evenodd" d="M41.8999 19.1001V16.4001C41.8999 15.7001 42.4999 15.1001 43.1999 15.1001H45.0999C45.7999 15.1001 46.3999 15.7001 46.3999 16.4001V19.1001C46.3999 19.8001 45.7999 20.4001 45.0999 20.4001H43.1999C42.4999 20.4001 41.8999 19.8001 41.8999 19.1001ZM44.8999 18.9001V16.6001H43.3999V18.8001H44.8999V18.9001Z" fill="#0075A6" stroke="white" stroke-width="0.25" stroke-miterlimit="10"/>
<path fill-rule="evenodd" clip-rule="evenodd" d="M48.7 19.6V15.8C48.7 15.4 49 15 49.5 15C49.9 15 50.3 15.3 50.3 15.8V19.6C50.3 20 50 20.4 49.5 20.4C49 20.4 48.7 20 48.7 19.6Z" fill="#0075A6" stroke="white" stroke-width="0.25" stroke-miterlimit="10"/>
<path fill-rule="evenodd" clip-rule="evenodd" d="M47.2 15.9001C47.2 15.5001 47.5 15.1001 48 15.1001H51C51.4 15.1001 51.8 15.4001 51.8 15.9001C51.8 16.3001 51.5 16.7001 51 16.7001H48C47.5 16.6001 47.2 16.3001 47.2 15.9001Z" fill="#0075A6"/>
<path fill-rule="evenodd" clip-rule="evenodd" d="M52.3999 19.6V15.8C52.3999 15.4 52.6999 15 53.1999 15H55.4999C55.8999 15 56.2999 15.3 56.2999 15.8C56.2999 16.2 55.9999 16.6 55.4999 16.6H53.9999V18.8H55.5999C55.9999 18.8 56.3999 19.1 56.3999 19.6C56.3999 20 56.0999 20.4 55.5999 20.4H53.2999C52.7999 20.4 52.3999 20 52.3999 19.6Z" fill="#0075A6" stroke="white" stroke-width="0.25" stroke-miterlimit="10"/>
<path fill-rule="evenodd" clip-rule="evenodd" d="M53.2 17.7C53.2 17.5 53.4 17.3 53.6 17.3H55.1C55.3 17.3 55.5 17.5 55.5 17.7C55.5 17.9 55.3 18.1 55.1 18.1H53.6C53.3 18.1 53.2 17.9 53.2 17.7Z" fill="#0075A6"/>
<path fill-rule="evenodd" clip-rule="evenodd" d="M56.8999 19.6V15.8C56.8999 15.4 57.1999 15 57.6999 15C58.0999 15 58.4999 15.3 58.4999 15.8V18.8H59.9999C60.3999 18.8 60.7999 19.1 60.7999 19.6C60.7999 20 60.4999 20.4 59.9999 20.4H57.6999C57.2999 20.4 56.8999 20 56.8999 19.6Z" fill="#0075A6" stroke="white" stroke-width="0.25" stroke-miterlimit="10"/>
<path d="M19.3 69.4C8.99996 62.9 2.19995 51.4 2.19995 38.3C2.39995 21.2 14.4 6.4 29.5 2.5" stroke="white" stroke-width="3" stroke-miterlimit="79.8403" stroke-linecap="round" stroke-linejoin="round"/>
<path d="M38.8999 75.1001C18.5999 75.1001 2.19995 58.6001 2.19995 38.4001C2.19995 18.2001 18.5999 1.6001 38.8999 1.6001" stroke="#0075A6" stroke-width="1.5" stroke-miterlimit="79.8403" stroke-linecap="round" stroke-linejoin="round"/>
<path d="M71.1999 30.8H8.8999V46.6H71.1999V30.8Z" fill="white"/>
<path d="M14.2 42.1V35.3" stroke="white" stroke-width="3" stroke-miterlimit="79.8403" stroke-linecap="round" stroke-linejoin="round"/>
<path d="M14.2 35.4001H16.8C17.8 35.4001 18.7 36.2001 18.7 37.3001C18.7 38.4001 17.9 39.2001 16.8 39.2001H14.8999" stroke="white" stroke-width="3" stroke-miterlimit="79.8403" stroke-linecap="round" stroke-linejoin="round"/>
<path d="M17.2 39.1001L18.7 42.1001" stroke="white" stroke-width="3" stroke-miterlimit="79.8403" stroke-linecap="round" stroke-linejoin="round"/>
<path d="M23.8999 38.4001H22.3999" stroke="white" stroke-width="3" stroke-miterlimit="79.8403" stroke-linecap="round" stroke-linejoin="round"/>
<path d="M25.3998 42.1H21.5999V35.3H25.3998" stroke="white" stroke-width="3" stroke-miterlimit="79.8403" stroke-linecap="round" stroke-linejoin="round"/>
<path d="M31.3998 35.8C30.7998 35.5 30.2998 35.3 29.4998 35.3C28.4998 35.3 27.5999 35.8 27.5999 36.7C27.5999 37.8 28.5998 38.2 29.4998 38.6C30.3998 39 31.3998 39.4 31.3998 40.5C31.3998 41.4 30.4998 41.9 29.4998 41.9C28.7998 41.9 28.1999 41.7 27.5999 41.4" stroke="white" stroke-width="3" stroke-miterlimit="79.8403" stroke-linecap="round" stroke-linejoin="round"/>
<path d="M36.7 38.4001H35.2" stroke="white" stroke-width="3" stroke-miterlimit="79.8403" stroke-linecap="round" stroke-linejoin="round"/>
<path d="M38.1999 42.1H34.3999V35.3H38.1999" stroke="white" stroke-width="3" stroke-miterlimit="79.8403" stroke-linecap="round" stroke-linejoin="round"/>
<path d="M41.2 42.1V35.3" stroke="white" stroke-width="3" stroke-miterlimit="79.8403" stroke-linecap="round" stroke-linejoin="round"/>
<path d="M41.2 35.4001H43.8C44.8 35.4001 45.7 36.2001 45.7 37.3001C45.7 38.4001 44.9 39.2001 43.8 39.2001H41.8999" stroke="white" stroke-width="3" stroke-miterlimit="79.8403" stroke-linecap="round" stroke-linejoin="round"/>
<path d="M44.2 39.1001L45.7 42.1001" stroke="white" stroke-width="3" stroke-miterlimit="79.8403" stroke-linecap="round" stroke-linejoin="round"/>
<path d="M47.8999 35.4001L50.4999 42.2001L53.0999 35.4001" stroke="white" stroke-width="3" stroke-miterlimit="79.8403" stroke-linecap="round" stroke-linejoin="round"/>
<path d="M57.7 38.4001H56.2" stroke="white" stroke-width="3" stroke-miterlimit="79.8403" stroke-linecap="round" stroke-linejoin="round"/>
<path d="M59.1999 42.1H55.3999V35.3H59.1999" stroke="white" stroke-width="3" stroke-miterlimit="79.8403" stroke-linecap="round" stroke-linejoin="round"/>
<path d="M62.2 42.1V35.3" stroke="white" stroke-width="3" stroke-miterlimit="79.8403" stroke-linecap="round" stroke-linejoin="round"/>
<path d="M62.2 35.4001H64.8C65.8 35.4001 66.7 36.9001 66.7 38.8001C66.7 40.7001 65.9 42.2001 64.8 42.2001H62.2" stroke="white" stroke-width="3" stroke-miterlimit="79.8403" stroke-linecap="round" stroke-linejoin="round"/>
<path d="M14.2 42.1V35.3" stroke="#0075A6" stroke-width="1.5" stroke-miterlimit="79.8403" stroke-linecap="round" stroke-linejoin="round"/>
<path d="M14.2 35.4001H16.8C17.8 35.4001 18.7 36.2001 18.7 37.3001C18.7 38.4001 17.9 39.2001 16.8 39.2001H14.8999" stroke="#0075A6" stroke-width="1.5" stroke-miterlimit="79.8403" stroke-linecap="round" stroke-linejoin="round"/>
<path d="M17.2 39.1001L18.7 42.1001" stroke="#0075A6" stroke-width="1.5" stroke-miterlimit="79.8403" stroke-linecap="round" stroke-linejoin="round"/>
<path d="M23.8999 38.4001H22.3999" stroke="#0075A6" stroke-width="1.5" stroke-miterlimit="79.8403" stroke-linecap="round" stroke-linejoin="round"/>
<path d="M25.3998 42.1H21.5999V35.3H25.3998" stroke="#0075A6" stroke-width="1.5" stroke-miterlimit="79.8403" stroke-linecap="round" stroke-linejoin="round"/>
<path d="M31.3998 35.8C30.7998 35.5 30.2998 35.3 29.4998 35.3C28.4998 35.3 27.5999 35.8 27.5999 36.7C27.5999 37.8 28.5998 38.2 29.4998 38.6C30.3998 39 31.3998 39.4 31.3998 40.5C31.3998 41.4 30.4998 41.9 29.4998 41.9C28.7998 41.9 28.1999 41.7 27.5999 41.4" stroke="#0075A6" stroke-width="1.5" stroke-miterlimit="79.8403" stroke-linecap="round" stroke-linejoin="round"/>
<path d="M36.7 38.4001H35.2" stroke="#0075A6" stroke-width="1.5" stroke-miterlimit="79.8403" stroke-linecap="round" stroke-linejoin="round"/>
<path d="M38.1999 42.1H34.3999V35.3H38.1999" stroke="#0075A6" stroke-width="1.5" stroke-miterlimit="79.8403" stroke-linecap="round" stroke-linejoin="round"/>
<path d="M41.2 42.1V35.3" stroke="#0075A6" stroke-width="1.5" stroke-miterlimit="79.8403" stroke-linecap="round" stroke-linejoin="round"/>
<path d="M41.2 35.4001H43.8C44.8 35.4001 45.7 36.2001 45.7 37.3001C45.7 38.4001 44.9 39.2001 43.8 39.2001H41.8999" stroke="#0075A6" stroke-width="1.5" stroke-miterlimit="79.8403" stroke-linecap="round" stroke-linejoin="round"/>
<path d="M44.2 39.1001L45.7 42.1001" stroke="#0075A6" stroke-width="1.5" stroke-miterlimit="79.8403" stroke-linecap="round" stroke-linejoin="round"/>
<path d="M47.8999 35.4001L50.4999 42.2001L53.0999 35.4001" stroke="#0075A6" stroke-width="1.5" stroke-miterlimit="79.8403" stroke-linecap="round" stroke-linejoin="round"/>
<path d="M57.7 38.4001H56.2" stroke="#0075A6" stroke-width="1.5" stroke-miterlimit="79.8403" stroke-linecap="round" stroke-linejoin="round"/>
<path d="M59.1999 42.1H55.3999V35.3H59.1999" stroke="#0075A6" stroke-width="1.5" stroke-miterlimit="79.8403" stroke-linecap="round" stroke-linejoin="round"/>
<path d="M62.2 42.1V35.3" stroke="#0075A6" stroke-width="1.5" stroke-miterlimit="79.8403" stroke-linecap="round" stroke-linejoin="round"/>
<path d="M62.2 35.4001H64.8C65.8 35.4001 66.7 36.9001 66.7 38.8001C66.7 40.7001 65.9 42.2001 64.8 42.2001H62.2" stroke="#0075A6" stroke-width="1.5" stroke-miterlimit="79.8403" stroke-linecap="round" stroke-linejoin="round"/>
<path d="M71.1999 30.8H8.8999V46.6H71.1999V30.8Z" stroke="white" stroke-width="3" stroke-miterlimit="79.8403" stroke-linecap="round" stroke-linejoin="round"/>
<path d="M71.1999 30.8H8.8999V46.6H71.1999V30.8Z" stroke="#0075A6" stroke-width="1.5" stroke-miterlimit="79.8403" stroke-linecap="round" stroke-linejoin="round"/>
</svg>
