<svg width="81" height="85" viewBox="0 0 81 85" fill="none" xmlns="http://www.w3.org/2000/svg">
<path d="M38.0001 78.3C58.2689 78.3 74.7001 61.824 74.7001 41.5C74.7001 21.1759 58.2689 4.69995 38.0001 4.69995C17.7312 4.69995 1.30005 21.1759 1.30005 41.5C1.30005 61.824 17.7312 78.3 38.0001 78.3Z" stroke="#0075A6" stroke-width="1.5" stroke-miterlimit="79.8403" stroke-linecap="round" stroke-linejoin="round"/>
<path d="M37.4001 76.3C35.7001 75.3 34.0001 74.3 32.3001 73.3C31.1001 72.5 31.0002 72.3 31.7002 71C32.1002 70.3 32.4002 69.6 32.7002 68.8C32.0002 69.3 31.3002 69.8 30.6002 70.2C29.8002 70.7 29.3001 70.6 28.8001 69.9C27.8001 68.4 27.2001 66.8 26.8001 65.1C26.7001 64.3 26.9002 63.8 27.5002 63.3C29.1002 62 30.7001 60.6 32.3001 59.2C33.5001 58.1 33.7001 56.7 32.8001 55.3C32.7001 55.1 32.4002 55 32.2002 55C31.3002 55.1 30.3001 55.3 29.4001 55.5C29.4001 56.3 29.6002 57.1 29.5002 57.9C29.3002 60 27.8002 61.8 25.7002 62.3C23.9002 62.7 22.1002 63.1 20.2002 63.4C19.8002 63.5 19.2002 63.2 19.0002 62.9C17.8002 61.7 16.7002 60.4 15.6002 59.1C15.3002 58.8 15.1002 58.7 14.7002 58.7C13.2002 59 11.7002 58.2 11.1002 56.8C10.5002 55.4 10.8002 53.8 12.0002 52.8C13.2002 51.8 14.9002 51.8 16.1002 52.7C17.3002 53.6 17.8002 55.3 17.1002 56.7C16.6002 57.6 17.5001 57.9 17.8001 58.4C18.1001 58.9 18.5001 58.6 18.8001 58.5C19.9001 58.1 21.0002 57.7 22.1002 57.3C23.1002 56.9 23.5001 56.4 23.4001 55.3C23.3001 54.3 23.3002 53.4 23.1002 52.4C23.0002 51.6 23.3001 51.1 23.9001 50.8C25.7001 49.7 27.5002 48.6 29.2002 47.4C29.0002 47.4 28.8002 47.4 28.6002 47.4C24.6002 48 20.7002 48.5 16.7002 49.1C13.8002 49.5 11.4002 48.8 9.60016 46.4C9.20016 45.9 8.80014 45.3 8.30014 44.8C7.70014 44 7.80016 43.5 8.60016 42.9C9.60016 42.1 10.5002 41.4 11.7002 40.5C10.1002 40.5 8.70015 40.3 7.40015 39.6C5.60015 38.6 4.30016 37.1 3.60016 35.2C3.30016 34.2 3.50016 33.7 4.60016 33.5C5.60016 33.3 6.70015 33 7.90015 32.8C7.50015 32.6 7.30016 32.5 7.10016 32.4C4.10016 30.8 2.50015 28.2 2.40015 24.8C2.40015 23.6 2.90016 23.2 4.10016 23.5C5.40016 23.9 6.70016 24.2 8.20016 24.6C8.00016 24.3 7.90014 24.2 7.80014 24C5.00014 20.1 3.90015 15.7 4.40015 10.9C4.50015 10.4 4.50016 9.8 5.10016 9.6C5.80016 9.4 6.20016 9.8 6.60016 10.2C11.8002 15.7 16.9002 21.2 22.1002 26.7C23.7002 28.4 23.9001 29.6 22.9001 31.8C22.8001 32 22.7002 32.3 22.6002 32.5C22.3002 33.2 22.2001 33.8 22.8001 34.4C23.3001 35 24.1001 35.2 24.8001 35C25.5001 34.8 26.1002 34.3 26.7002 34C26.8002 33.9 26.9001 33.7 26.9001 33.6C26.9001 33.4 26.9001 33.1 26.9001 32.9C26.9001 31.2 26.9002 31.1 28.6002 31C28.8002 31 29.1002 30.7 29.1002 30.6C30.0002 27.2 29.2002 24.2 26.7002 21.7C26.4002 21.4 26.1001 21.4 25.8001 21.6C25.2001 22 24.6001 22.4 23.9001 22.8C23.0001 23.4 22.3002 23.1 22.0002 22.1C21.5002 20 22.3002 17.9 24.0002 16.6C24.6002 16.2 25.2001 15.8 25.8001 15.4C25.5001 14.7 25.1001 14 24.8001 13.3C24.3001 12.2 24.7001 11.6 25.9001 11.5C28.4001 11.5 30.8001 11.5 33.3001 11.5C34.0001 11.5 34.5002 11.8 34.7002 12.5C35.7002 12 36.3002 11.1 36.5002 9.8C36.3002 9.8 36.1001 9.8 35.9001 9.8C34.5001 9.8 34.5002 9.7 34.0002 8.4C33.6002 7.2 33.0001 6.1 33.3001 4.8C33.5001 3.9 33.9002 3.1 34.7002 2.6C35.5002 2.1 36.3002 1.6 37.1002 1.2C37.4002 1.1 37.9002 1.1 38.2002 1.2C38.9002 1.5 39.6001 2 40.3001 2.4C41.7001 3.3 42.3001 5 41.8001 6.6C41.6001 7.3 41.4002 7.9 41.1002 8.5C40.8002 9.4 40.5002 9.6 39.5002 9.6C39.2002 9.6 39.0002 9.6 38.7002 9.6C38.7002 10.7 39.3002 11.7 40.5002 12.4C40.7002 11.4 41.4002 11.3 42.2002 11.3C44.5002 11.3 46.9002 11.3 49.2002 11.3C50.5002 11.3 50.9001 12 50.3001 13.2C50.0001 13.8 49.7001 14.4 49.4001 15.1C49.4001 15.1 49.4001 15.1 49.4001 15.3C50.0001 15.7 50.7001 16.1 51.3001 16.6C53.0001 18 53.7002 19.8 53.2002 22C53.0002 23.1 52.3001 23.4 51.4001 22.8C50.7001 22.4 50.1001 21.9 49.4001 21.5C49.2001 21.4 48.8002 21.4 48.7002 21.6C46.3002 23.6 45.1002 27.6 46.2002 30.6C46.3002 30.8 46.6001 31 46.8001 31C48.4001 31.1 48.5002 31.2 48.5002 32.8C48.5002 33.3 48.5001 33.9 48.8001 34.1C49.6001 34.7 50.4002 35.4 51.6002 35.1C52.7002 34.8 53.2001 33.8 52.8001 32.8C52.6001 32.4 52.4002 32 52.2002 31.6C51.4002 29.8 51.6001 28.5 52.9001 27.1C56.3001 23.5 59.7002 19.9 63.1002 16.2C64.9002 14.2 66.8002 12.3 68.6002 10.3C69.0002 9.9 69.4002 9.4 70.0002 9.7C70.7001 9.9 70.7001 10.5 70.8001 11.1C71.3001 15.9 70.2001 20.3 67.3001 24.2C67.2001 24.4 67.1001 24.5 66.9001 24.8C68.3001 24.4 69.7001 24 71.0002 23.7C72.2001 23.4 72.7002 23.8 72.7002 25C72.6002 28.4 71.1002 30.9 68.2002 32.5C67.9002 32.6 67.7002 32.8 67.2002 33C68.3002 33.3 69.3002 33.5 70.2002 33.7C71.5002 34 71.8001 34.4 71.3001 35.7C70.2001 38.7 67.3002 40.7 64.2002 40.8C64.0002 40.8 63.8001 40.8 63.4001 40.8C64.5001 41.7 65.4001 42.4 66.3001 43.1C67.3001 43.9 67.4002 44.2 66.6002 45.3C66.2002 45.8 65.8001 46.3 65.4001 46.8C63.6001 49.1 61.3002 49.9 58.5002 49.5C54.5002 48.9 50.5002 48.4 46.5002 47.8C46.3002 47.8 46.1002 47.8 45.7002 47.8C46.0002 48 46.2002 48.2 46.5002 48.3C48.1002 49.3 49.7001 50.3 51.3001 51.2C51.9001 51.6 52.1002 52 52.1002 52.7C52.0002 53.8 51.9001 54.9 51.9001 56C52.8001 54.8 53.8002 54 55.2002 53.6C57.4002 53 59.7002 53.8 61.0002 55.7C62.3002 57.6 62.3002 60.1 61.0002 61.9C59.7002 63.7 57.4002 64.5 55.2002 63.9C53.6002 63.5 52.0001 63 50.4001 62.8C47.1001 62.3 45.1002 59.2 46.0002 56.1C46.0002 56.1 46.0002 56 46.0002 55.9C45.0002 55.7 44.1002 55.5 43.1002 55.4C43.0002 55.4 42.7002 55.5 42.7002 55.6C41.8002 56.9 42.0002 58.5 43.2002 59.6C44.8002 61 46.4002 62.4 48.1002 63.8C48.7002 64.3 48.9002 64.8 48.7002 65.5C48.4002 67.3 47.7002 69 46.7002 70.4C46.2002 71.1 45.7002 71.2 45.0002 70.7C44.3002 70.2 43.6001 69.7 42.8001 69.3C43.2001 70 43.6002 70.8 44.0002 71.5C44.6002 72.6 44.5002 72.9 43.5002 73.6C41.7002 74.7 39.9002 75.7 38.2002 76.7C37.8002 76.3 37.6001 76.3 37.4001 76.3ZM6.20016 35.2C7.30016 37.5 9.90015 38.7 12.4001 38.3C13.5001 38.1 14.5002 37.9 15.6002 37.7C16.2002 37.6 16.6001 37.8 16.8001 38.3C17.1001 38.8 16.9001 39.3 16.4001 39.6C16.2001 39.8 15.9002 40 15.6002 40.2C13.9002 41.5 12.3002 42.8 10.6002 44.1C10.6002 44.2 10.7002 44.3 10.7002 44.3C10.9002 44.6 11.1001 44.8 11.3001 45.1C12.6001 46.8 14.2001 47.5 16.3001 47.1C18.9001 46.7 21.5002 46.4 24.1002 46C25.2002 45.8 26.4002 45.7 27.5002 45.5C26.2002 42.5 27.1002 39.4 26.7002 36.3C26.4002 36.5 26.1001 36.6 25.9001 36.7C23.4001 37.8 20.6001 36.2 20.3001 33.6C20.2001 32.6 20.6002 31.7 21.0002 30.9C21.7002 29.4 21.7002 29.2 20.6002 28C16.1002 23.2 11.5002 18.4 7.00015 13.5C6.80015 13.3 6.70016 13.1 6.60016 12.9C6.50016 13 6.40014 13 6.30014 13.1C6.40014 14.2 6.50016 15.2 6.70016 16.3C7.40016 20 9.30016 23.1 12.1002 25.5C12.6002 25.9 13.1002 26.4 12.7002 27.1C12.3002 27.8 11.6002 27.6 11.0002 27.5C9.30015 27 7.60015 26.6 6.00015 26.1C5.60015 26 5.20016 25.9 4.70016 25.8C4.80016 26.1 4.80014 26.3 4.80014 26.5C5.50014 29 7.20014 30.5 9.80014 31.1C10.9001 31.3 11.9002 31.5 13.0002 31.7C13.5002 31.8 13.9001 32.2 13.9001 32.7C13.9001 33.3 13.6002 33.6 13.0002 33.7C12.8002 33.7 12.7002 33.8 12.5002 33.8C10.4002 34.2 8.30016 34.7 6.20016 35.2ZM69.0002 12.8C68.2001 13.7 67.5001 14.4 66.9001 15C62.8001 19.4 58.7002 23.7 54.6002 28.1C53.7002 29 53.7002 29.4 54.2002 30.6C54.4002 31 54.5002 31.3 54.7002 31.7C55.7002 34 54.5002 36.3 52.1002 36.9C50.9002 37.2 49.7002 36.9 48.5002 36.2C48.5002 37.5 48.5002 38.6 48.5002 39.8C48.5002 41.7 48.8002 43.6 47.7002 45.5C48.0002 45.6 48.3002 45.6 48.6002 45.7C51.9002 46.2 55.2002 46.6 58.5002 47.1C61.4002 47.5 63.1002 46.8 64.7002 44.2C64.5002 44.1 64.3002 43.9 64.2002 43.7C62.5002 42.4 60.8002 41.1 59.1002 39.8C58.6002 39.4 58.3002 39 58.6002 38.4C58.9002 37.8 59.4002 37.7 60.0002 37.8C61.5002 38.1 63.0002 38.4 64.5002 38.4C66.6002 38.4 68.2001 37.2 69.3001 35.3C69.1001 35.2 68.9001 35.2 68.8001 35.1C66.7001 34.6 64.6002 34.2 62.5002 33.7C61.9002 33.6 61.4002 33.3 61.5002 32.6C61.5002 32 62.0002 31.7 62.6002 31.6C63.6002 31.4 64.6002 31.2 65.6002 31C68.1002 30.4 69.8002 28.9 70.5002 26.4C70.6002 26.2 70.6002 26 70.6002 25.7C68.3002 26.3 66.2002 26.9 64.0002 27.5C63.4002 27.7 62.9002 27.6 62.5002 27C62.2002 26.4 62.5002 26 63.0002 25.5C64.0002 24.5 65.0001 23.5 65.8001 22.4C68.0001 19.7 68.9002 16.5 69.0002 12.8ZM41.8001 71.7C41.7001 71.5 41.6002 71.4 41.6002 71.2C40.7002 69.4 39.7001 67.7 38.8001 65.9C38.5001 65.4 38.4001 64.9 38.9001 64.4C39.4001 63.9 39.9001 64.1 40.4001 64.5C41.0001 64.9 41.6002 65.4 42.2002 65.8C43.3002 66.5 44.3002 67.3 45.5002 68.1C45.8002 67.1 46.1002 66.3 46.5002 65.4C46.7002 65 46.5002 64.7 46.2002 64.4C44.8002 63.2 43.4002 62 42.0002 60.8C41.2002 60.1 40.6001 59.3 40.3001 58.2C39.7001 56.2 40.5002 54.5 41.6002 53C41.7002 52.8 42.2002 52.6 42.5002 52.7C44.2002 53 45.9002 53.3 47.6002 53.6C48.3002 53.7 48.6002 54.2 48.5002 55C48.4002 55.5 48.2002 55.9 48.1002 56.3C47.6002 58.2 48.7002 59.8 50.6002 60.3C51.8002 60.6 53.1001 60.7 54.3001 61.1C55.1001 61.3 55.6001 61.1 55.9001 60.4C54.8001 60 53.7002 59.6 52.6002 59.2C50.9002 58.5 50.0002 57.2 50.1002 55.4C50.1002 54.6 50.2001 53.9 50.3001 53.1C50.4001 52.6 50.2001 52.4 49.8001 52.2C48.1001 51.2 46.5001 50.2 44.8001 49.2C44.4001 48.9 44.1001 49 43.8001 49.3C42.2001 50.5 40.5001 51.7 38.9001 52.9C38.1001 53.5 37.8002 53.5 37.0002 52.9C35.3002 51.7 33.7002 50.5 32.1002 49.3C31.8002 49 31.5002 49 31.1002 49.3C29.5002 50.3 27.8002 51.4 26.1002 52.3C25.7002 52.6 25.5002 52.8 25.6002 53.3C25.7002 53.9 25.7001 54.4 25.8001 55C26.0001 57.4 25.1001 58.7 22.9001 59.5C21.9001 59.9 20.9002 60.2 20.0002 60.6C20.0002 60.7 20.0001 60.8 19.9001 60.9C20.3001 61.1 20.7002 61.5 21.1002 61.4C22.5002 61.2 24.0001 60.9 25.4001 60.6C27.1001 60.2 28.1001 58.7 27.8001 56.9C27.7001 56.4 27.5001 55.9 27.4001 55.4C27.2001 54.5 27.5001 54.1 28.3001 53.9C29.9001 53.6 31.5002 53.3 33.2002 53C33.8002 52.9 34.2002 53.1 34.5002 53.6C34.6002 53.9 34.8001 54.1 34.9001 54.4C36.4001 57.1 35.9002 59.3 33.6002 61.3C32.3002 62.4 30.9002 63.6 29.6002 64.8C29.4002 65 29.2001 65.3 29.3001 65.4C29.6001 66.4 29.9001 67.3 30.3001 68.4C31.4001 67.6 32.3001 67 33.3001 66.3C34.1001 65.7 34.9002 65.2 35.6002 64.6C36.0002 64.3 36.5001 64.3 36.9001 64.6C37.3001 64.9 37.4002 65.4 37.1002 65.9C37.0002 66.1 36.9001 66.3 36.8001 66.5C35.9001 68.2 34.9002 70 34.0002 71.8C35.3002 72.6 36.6001 73.3 37.9001 74C38.0001 74.1 38.3001 74.1 38.4001 74C39.3001 73.2 40.5001 72.4 41.8001 71.7ZM29.0002 32.8C29.0002 33 28.9001 33 28.9001 33.1C28.9001 36.2 28.9001 39.3 28.9001 42.5C28.9001 43.8 29.6002 44.9 30.6002 45.7C32.8002 47.3 35.0002 48.9 37.1002 50.5C37.5002 50.8 37.7002 50.7 38.1002 50.5C40.2002 49 42.3001 47.4 44.4001 45.9C45.8001 44.9 46.4001 43.7 46.4001 42C46.4001 39.2 46.4001 36.4 46.4001 33.6C46.4001 33.4 46.4001 33.1 46.4001 32.8C40.6001 32.8 34.9002 32.8 29.0002 32.8ZM36.7002 30.7C36.7002 30.5 36.7002 30.4 36.7002 30.3C36.4002 25.5 34.9002 21.2 32.1002 17.2C31.7002 16.6 31.3002 16.3 30.6002 16.4C29.8002 16.5 28.9002 16.4 28.1002 16.4C27.9002 16.4 27.6001 16.4 27.4001 16.6C26.7001 17.1 25.9002 17.6 25.2002 18.1C24.6002 18.5 24.3002 19.1 24.2002 19.9C24.7002 19.6 25.1002 19.3 25.5002 19C26.2002 18.5 26.7001 18.6 27.4001 19.1C30.4001 21.5 31.8002 24.5 31.6002 28.3C31.6002 29.1 31.4001 29.8 31.3001 30.7C33.1001 30.7 34.8002 30.7 36.7002 30.7ZM44.2002 30.7C44.1002 30.4 44.1002 30.2 44.1002 30C43.3002 25.6 44.7002 22 48.2002 19.2C48.8002 18.7 49.4002 18.7 50.0002 19.1C50.4002 19.4 50.8001 19.6 51.4001 20C51.2001 19.1 50.8002 18.5 50.2002 18.1C48.9002 17 47.4002 16.2 45.6002 16.6C45.3002 16.7 45.0002 16.6 44.6002 16.6C44.2002 16.6 43.9002 16.7 43.6002 17.1C41.8002 19.6 40.4002 22.4 39.7002 25.4C39.3002 27.1 39.0002 28.9 38.7002 30.8C40.6002 30.7 42.4002 30.7 44.2002 30.7ZM37.7002 12.4C36.7002 13.7 35.6002 14.5 34.1002 14.8C33.2002 15 33.1002 15.2 33.6002 15.9C35.3002 18.3 36.6001 20.8 37.4001 23.6C37.5001 23.8 37.6002 24 37.7002 24.3C38.7002 21.1 40.1002 18.2 42.0002 15.7C42.3002 15.3 42.1002 15 41.7002 14.9C40.1002 14.5 38.8002 13.7 37.7002 12.4ZM57.6002 61.5C59.0002 61.3 60.0001 59.9 59.9001 58.4C59.9001 56.8 58.6002 55.4 57.1002 55.2C55.4002 55 54.0002 55.9 53.6002 57.4C55.0002 57.9 56.4002 58.4 57.7002 58.9C58.6002 59.2 58.8002 60 58.2002 60.7C58.0002 61 57.8002 61.2 57.6002 61.5ZM37.7002 7.3C39.6002 7.3 39.6002 7.3 40.0002 5.6C40.2002 4.9 40.0001 4.4 39.4001 4C38.1001 2.9 37.8001 2.9 36.3001 3.8C36.3001 3.8 36.3002 3.8 36.2002 3.8C35.4002 4.3 35.2001 4.9 35.4001 5.8C35.8001 7.3 35.8001 7.3 37.4001 7.3C37.6001 7.3 37.7002 7.3 37.7002 7.3ZM15.4001 55.4C15.4001 54.7 14.9002 54.1 14.2002 54.1C13.5002 54.1 12.9001 54.7 12.9001 55.4C12.9001 56 13.5002 56.6 14.1002 56.6C14.9002 56.7 15.4001 56.1 15.4001 55.4ZM27.5002 13.3C27.6002 14.2 28.0001 14.6 28.9001 14.4C29.4001 14.3 30.0002 14.3 30.5002 14.4C31.4002 14.5 31.7001 14 31.9001 13.3C30.4001 13.3 29.0002 13.3 27.5002 13.3ZM43.5002 13.3C43.7002 14 44.0001 14.6 44.9001 14.4C45.4001 14.3 46.0002 14.3 46.5002 14.4C47.4002 14.5 47.8001 14.1 47.9001 13.3C46.5001 13.3 45.0002 13.3 43.5002 13.3Z" fill="#0074A5" stroke="white" stroke-width="2.1524" stroke-miterlimit="10"/>
<path d="M37.5002 76.3C35.8002 75.3 34.1002 74.3 32.4002 73.3C31.2002 72.5 31.1002 72.3 31.8002 71C32.2002 70.3 32.5002 69.6 32.8002 68.8C32.1002 69.3 31.4003 69.8 30.7003 70.2C29.9003 70.7 29.4002 70.6 28.9002 69.9C27.9002 68.4 27.3002 66.8 26.9002 65.1C26.8002 64.3 27.0002 63.8 27.6003 63.3C29.2003 62 30.8002 60.6 32.4002 59.2C33.6002 58.1 33.8002 56.7 32.9002 55.3C32.8002 55.1 32.5002 55 32.3002 55C31.4002 55.1 30.4002 55.3 29.5002 55.5C29.5002 56.3 29.7003 57.1 29.6003 57.9C29.4002 60 27.9002 61.8 25.8002 62.3C24.0002 62.7 22.2002 63.1 20.3002 63.4C19.9002 63.5 19.3003 63.2 19.1003 62.9C17.9003 61.7 16.8003 60.4 15.7003 59.1C15.4003 58.8 15.2002 58.7 14.8002 58.7C13.3002 59 11.8003 58.2 11.2003 56.8C10.6003 55.4 10.9003 53.8 12.1003 52.8C13.3003 51.8 15.0003 51.8 16.2003 52.7C17.4003 53.6 17.9003 55.3 17.2003 56.7C16.7003 57.6 17.6002 57.9 17.9002 58.4C18.2002 58.9 18.6002 58.6 18.9002 58.5C20.0002 58.1 21.1003 57.7 22.2003 57.3C23.2003 56.9 23.6002 56.4 23.5002 55.3C23.4002 54.3 23.4003 53.4 23.2003 52.4C23.1003 51.6 23.4002 51.1 24.0002 50.8C25.8002 49.7 27.6002 48.6 29.3002 47.4C29.1002 47.4 28.9003 47.4 28.7003 47.4C24.7003 48 20.8002 48.5 16.8002 49.1C13.9002 49.5 11.5003 48.8 9.70026 46.4C9.30026 45.9 8.90024 45.3 8.40024 44.8C7.80024 44 7.90026 43.5 8.70026 42.9C9.70026 42.1 10.6002 41.4 11.8002 40.5C10.2002 40.5 8.80024 40.3 7.50024 39.6C5.70024 38.6 4.40026 37.1 3.70026 35.2C3.40026 34.2 3.60026 33.7 4.70026 33.5C5.70026 33.3 6.80024 33 8.00024 32.8C7.60024 32.6 7.40026 32.5 7.20026 32.4C4.20026 30.8 2.60024 28.2 2.50024 24.8C2.50024 23.6 3.00026 23.2 4.20026 23.5C5.50026 23.9 6.80023 24.2 8.30023 24.6C8.10023 24.3 8.00024 24.2 7.90024 24C5.10024 20.1 4.00024 15.7 4.50024 10.9C4.60024 10.4 4.60026 9.8 5.20026 9.6C5.90026 9.4 6.30026 9.8 6.70026 10.2C11.9003 15.7 17.0003 21.2 22.2003 26.7C23.8003 28.4 24.0002 29.6 23.0002 31.8C22.9002 32 22.8003 32.3 22.7003 32.5C22.4003 33.2 22.3002 33.8 22.9002 34.4C23.4002 35 24.2002 35.2 24.9002 35C25.6002 34.8 26.2002 34.3 26.8002 34C26.9002 33.9 27.0002 33.7 27.0002 33.6C27.0002 33.4 27.0002 33.1 27.0002 32.9C27.0002 31.2 27.0003 31.1 28.7003 31C28.9003 31 29.2003 30.7 29.2003 30.6C30.1003 27.2 29.3002 24.2 26.8002 21.7C26.5002 21.4 26.2002 21.4 25.9002 21.6C25.3002 22 24.7002 22.4 24.0002 22.8C23.1002 23.4 22.4002 23.1 22.1003 22.1C21.6003 20 22.4002 17.9 24.1003 16.6C24.7003 16.2 25.3002 15.8 25.9002 15.4C25.6002 14.7 25.2002 14 24.9002 13.3C24.4002 12.2 24.8002 11.6 26.0002 11.5C28.5002 11.5 30.9002 11.5 33.4002 11.5C34.1002 11.5 34.6002 11.8 34.8002 12.5C35.8002 12 36.4002 11.1 36.6003 9.8C36.4002 9.8 36.2002 9.8 36.0002 9.8C34.6002 9.8 34.6003 9.7 34.1003 8.4C33.7003 7.2 33.1002 6.1 33.4002 4.8C33.6002 3.9 34.0002 3.1 34.8002 2.6C35.6002 2.1 36.4003 1.6 37.2003 1.2C37.5003 1.1 38.0002 1.1 38.3002 1.2C39.0002 1.5 39.7002 2 40.4002 2.4C41.8002 3.3 42.4002 5 41.9002 6.6C41.7002 7.3 41.5003 7.9 41.2003 8.5C40.9003 9.4 40.6003 9.6 39.6003 9.6C39.3003 9.6 39.1002 9.6 38.8002 9.6C38.8002 10.7 39.4002 11.7 40.6003 12.4C40.8003 11.4 41.5002 11.3 42.3002 11.3C44.6002 11.3 47.0002 11.3 49.3002 11.3C50.6002 11.3 51.0002 12 50.4002 13.2C50.1002 13.8 49.8002 14.4 49.5002 15.1C49.5002 15.1 49.5002 15.1 49.5002 15.3C50.1002 15.7 50.8002 16.1 51.4002 16.6C53.1002 18 53.8002 19.8 53.3002 22C53.1002 23.1 52.4002 23.4 51.5002 22.8C50.8002 22.4 50.2002 21.9 49.5002 21.5C49.3002 21.4 48.9002 21.4 48.8002 21.6C46.4002 23.6 45.2002 27.6 46.3002 30.6C46.4002 30.8 46.7002 31 46.9002 31C48.5002 31.1 48.6003 31.2 48.6003 32.8C48.6003 33.3 48.6002 33.9 48.9002 34.1C49.7002 34.7 50.5003 35.4 51.7003 35.1C52.8003 34.8 53.3002 33.8 52.9002 32.8C52.7002 32.4 52.5002 32 52.3002 31.6C51.5002 29.8 51.7002 28.5 53.0002 27.1C56.4002 23.5 59.8003 19.9 63.2003 16.2C65.0003 14.2 66.9003 12.3 68.7003 10.3C69.1003 9.9 69.5003 9.4 70.1003 9.7C70.8002 9.9 70.8002 10.5 70.9002 11.1C71.4002 15.9 70.3002 20.3 67.4002 24.2C67.3002 24.4 67.2002 24.5 67.0002 24.8C68.4002 24.4 69.8002 24 71.1003 23.7C72.3002 23.4 72.8002 23.8 72.8002 25C72.7002 28.4 71.2002 30.9 68.3002 32.5C68.0002 32.6 67.8002 32.8 67.3002 33C68.4002 33.3 69.4002 33.5 70.3002 33.7C71.6002 34 71.9002 34.4 71.4002 35.7C70.3002 38.7 67.4002 40.7 64.3002 40.8C64.1002 40.8 63.9002 40.8 63.5002 40.8C64.6002 41.7 65.5002 42.4 66.4002 43.1C67.4002 43.9 67.5003 44.2 66.7003 45.3C66.3003 45.8 65.9002 46.3 65.5002 46.8C63.7002 49.1 61.4002 49.9 58.6003 49.5C54.6003 48.9 50.6003 48.4 46.6003 47.8C46.4002 47.8 46.2002 47.8 45.8002 47.8C46.1002 48 46.3003 48.2 46.6003 48.3C48.2002 49.3 49.8002 50.3 51.4002 51.2C52.0002 51.6 52.2003 52 52.2003 52.7C52.1003 53.8 52.0002 54.9 52.0002 56C52.9002 54.8 53.9002 54 55.3002 53.6C57.5002 53 59.8003 53.8 61.1003 55.7C62.4002 57.6 62.4002 60.1 61.1003 61.9C59.8003 63.7 57.5002 64.5 55.3002 63.9C53.7002 63.5 52.1002 63 50.5002 62.8C47.2002 62.3 45.2002 59.2 46.1003 56.1C46.1003 56.1 46.1003 56 46.1003 55.9C45.1003 55.7 44.2003 55.5 43.2003 55.4C43.1003 55.4 42.8002 55.5 42.8002 55.6C41.9002 56.9 42.1002 58.5 43.3002 59.6C44.9002 61 46.5003 62.4 48.2003 63.8C48.8003 64.3 49.0002 64.8 48.8002 65.5C48.5002 67.3 47.8002 69 46.8002 70.4C46.3002 71.1 45.8003 71.2 45.1003 70.7C44.4002 70.2 43.7002 69.7 42.9002 69.3C43.3002 70 43.7002 70.8 44.1003 71.5C44.7002 72.6 44.6003 72.9 43.6003 73.6C41.8003 74.7 40.0002 75.7 38.3002 76.7C37.9002 76.3 37.7002 76.3 37.5002 76.3ZM6.20026 35.2C7.30026 37.5 9.90024 38.7 12.4002 38.3C13.5002 38.1 14.5002 37.9 15.6003 37.7C16.2003 37.6 16.6002 37.8 16.8002 38.3C17.1002 38.8 16.9002 39.3 16.4002 39.6C16.2002 39.8 15.9003 40 15.6003 40.2C13.9003 41.5 12.3003 42.8 10.6003 44.1C10.6003 44.2 10.7003 44.3 10.7003 44.3C10.9003 44.6 11.1002 44.8 11.3002 45.1C12.6002 46.8 14.2002 47.5 16.3002 47.1C18.9002 46.7 21.5002 46.4 24.1003 46C25.2003 45.8 26.4002 45.7 27.5002 45.5C26.2002 42.5 27.1003 39.4 26.7003 36.3C26.4003 36.5 26.1002 36.6 25.9002 36.7C23.4002 37.8 20.6002 36.2 20.3002 33.6C20.2002 32.6 20.6002 31.7 21.0002 30.9C21.7002 29.4 21.7003 29.2 20.6003 28C16.1003 23.2 11.5002 18.4 7.00024 13.5C6.80024 13.3 6.70025 13.1 6.60025 12.9C6.50025 13 6.40023 13 6.30023 13.1C6.40023 14.2 6.50026 15.2 6.70026 16.3C7.40026 20 9.30025 23.1 12.1003 25.5C12.6003 25.9 13.1003 26.4 12.7003 27.1C12.3003 27.8 11.6002 27.6 11.0002 27.5C9.30024 27 7.60024 26.6 6.00024 26.1C5.60024 26 5.20026 25.9 4.70026 25.8C4.80026 26.1 4.80023 26.3 4.80023 26.5C5.50023 29 7.20023 30.5 9.80023 31.1C10.9002 31.3 11.9002 31.5 13.0002 31.7C13.5002 31.8 13.9002 32.2 13.9002 32.7C13.9002 33.3 13.6002 33.6 13.0002 33.7C12.8002 33.7 12.7002 33.8 12.5002 33.8C10.5002 34.2 8.40026 34.7 6.20026 35.2ZM69.0002 12.8C68.2002 13.7 67.5002 14.4 66.9002 15C62.8002 19.4 58.7002 23.7 54.6003 28.1C53.7002 29 53.7003 29.4 54.2003 30.6C54.4003 31 54.5003 31.3 54.7003 31.7C55.7003 34 54.5003 36.3 52.1003 36.9C50.9002 37.2 49.7002 36.9 48.5002 36.2C48.5002 37.5 48.5002 38.6 48.5002 39.8C48.5002 41.7 48.8003 43.6 47.7003 45.5C48.0003 45.6 48.3003 45.6 48.6003 45.7C51.9002 46.2 55.2002 46.6 58.5002 47.1C61.4002 47.5 63.1003 46.8 64.7003 44.2C64.5003 44.1 64.3003 43.9 64.2003 43.7C62.5003 42.4 60.8003 41.1 59.1003 39.8C58.6003 39.4 58.3003 39 58.6003 38.4C58.9002 37.8 59.4002 37.7 60.0002 37.8C61.5002 38.1 63.0002 38.4 64.5002 38.4C66.6002 38.4 68.2002 37.2 69.3002 35.3C69.1002 35.2 68.9002 35.2 68.8002 35.1C66.7002 34.6 64.6002 34.2 62.5002 33.7C61.9002 33.6 61.4002 33.3 61.5002 32.6C61.5002 32 62.0003 31.7 62.6003 31.6C63.6003 31.4 64.6003 31.2 65.6003 31C68.1003 30.4 69.8002 28.9 70.5002 26.4C70.6002 26.2 70.6003 26 70.6003 25.7C68.3002 26.3 66.2002 26.9 64.0002 27.5C63.4002 27.7 62.9002 27.6 62.5002 27C62.2002 26.4 62.5002 26 63.0002 25.5C64.0002 24.5 65.0002 23.5 65.8002 22.4C68.0002 19.6 69.0002 16.4 69.0002 12.8ZM41.8002 71.6C41.7002 71.4 41.6003 71.3 41.6003 71.1C40.7002 69.3 39.7002 67.6 38.8002 65.8C38.5002 65.3 38.4002 64.8 38.9002 64.3C39.4002 63.8 39.9002 64 40.4002 64.4C41.0002 64.8 41.6003 65.3 42.2003 65.7C43.3003 66.4 44.3002 67.2 45.5002 68C45.8002 67 46.1002 66.2 46.5002 65.3C46.7002 64.9 46.5003 64.6 46.2003 64.3C44.8003 63.1 43.4002 61.9 42.0002 60.7C41.2002 60 40.6002 59.2 40.3002 58.1C39.7002 56.1 40.5003 54.4 41.6003 52.9C41.7002 52.7 42.2002 52.5 42.5002 52.6C44.2002 52.9 45.9002 53.2 47.6003 53.5C48.3003 53.6 48.6002 54.1 48.5002 54.9C48.4002 55.4 48.2002 55.8 48.1003 56.2C47.6003 58.1 48.7002 59.7 50.6003 60.2C51.8003 60.5 53.1002 60.6 54.3002 61C55.1002 61.2 55.6002 61 55.9002 60.3C54.8002 59.9 53.7002 59.5 52.6003 59.1C50.9002 58.4 50.0003 57.1 50.1003 55.3C50.1003 54.5 50.2002 53.8 50.3002 53C50.4002 52.5 50.2002 52.3 49.8002 52.1C48.1002 51.1 46.5002 50.1 44.8002 49.1C44.4002 48.8 44.1002 48.9 43.8002 49.2C42.2002 50.4 40.5002 51.6 38.9002 52.8C38.1002 53.4 37.8002 53.4 37.0002 52.8C35.3002 51.6 33.7003 50.4 32.1003 49.2C31.8003 48.9 31.5002 48.9 31.1003 49.2C29.5002 50.2 27.8003 51.3 26.1003 52.2C25.7003 52.5 25.5002 52.7 25.6003 53.2C25.7003 53.8 25.7002 54.3 25.8002 54.9C26.0002 57.3 25.1002 58.6 22.9002 59.4C21.9002 59.8 20.9002 60.1 20.0002 60.5C20.0002 60.6 20.0002 60.7 19.9002 60.8C20.3002 61 20.7003 61.4 21.1003 61.3C22.5002 61.1 24.0002 60.8 25.4002 60.5C27.1002 60.1 28.1002 58.6 27.8002 56.8C27.7002 56.3 27.5002 55.8 27.4002 55.3C27.2002 54.4 27.5002 54 28.3002 53.8C29.9002 53.5 31.5003 53.2 33.2003 52.9C33.8003 52.8 34.2002 53 34.5002 53.5C34.6002 53.8 34.8002 54 34.9002 54.3C36.4002 57 35.9002 59.2 33.6003 61.2C32.3003 62.3 30.9002 63.5 29.6003 64.7C29.4002 64.9 29.2002 65.2 29.3002 65.3C29.6002 66.3 29.9002 67.2 30.3002 68.3C31.4002 67.5 32.3002 66.9 33.3002 66.2C34.1002 65.6 34.9002 65.1 35.6003 64.5C36.0003 64.2 36.5002 64.2 36.9002 64.5C37.3002 64.8 37.4002 65.3 37.1003 65.8C37.0003 66 36.9002 66.2 36.8002 66.4C35.9002 68.1 34.9002 69.9 34.0002 71.7C35.3002 72.5 36.6002 73.2 37.9002 73.9C38.0002 74 38.3002 74 38.4002 73.9C39.3002 73.1 40.5002 72.4 41.8002 71.6ZM29.1003 32.8C29.1003 33 29.0002 33 29.0002 33.1C29.0002 36.2 29.0002 39.3 29.0002 42.5C29.0002 43.8 29.7003 44.9 30.7003 45.7C32.9003 47.3 35.1003 48.9 37.2003 50.5C37.6003 50.8 37.8003 50.7 38.2003 50.5C40.3003 49 42.4002 47.4 44.5002 45.9C45.9002 44.9 46.5002 43.7 46.5002 42C46.5002 39.2 46.5002 36.4 46.5002 33.6C46.5002 33.4 46.5002 33.1 46.5002 32.8C40.7002 32.8 34.9002 32.8 29.1003 32.8ZM36.7003 30.7C36.7003 30.5 36.7003 30.4 36.7003 30.3C36.4003 25.5 34.9002 21.2 32.1003 17.2C31.7003 16.6 31.3003 16.3 30.6003 16.4C29.8003 16.5 28.9002 16.4 28.1003 16.4C27.9002 16.4 27.6002 16.4 27.4002 16.6C26.7002 17.1 25.9003 17.6 25.2003 18.1C24.6003 18.5 24.3003 19.1 24.2003 19.9C24.7003 19.6 25.1002 19.3 25.5002 19C26.2002 18.5 26.7002 18.6 27.4002 19.1C30.4002 21.5 31.8003 24.5 31.6003 28.3C31.6003 29.1 31.4002 29.8 31.3002 30.7C33.1002 30.7 34.8003 30.7 36.7003 30.7ZM44.3002 30.7C44.2002 30.4 44.2003 30.2 44.2003 30C43.4003 25.6 44.8002 22 48.3002 19.2C48.9002 18.7 49.5003 18.7 50.1003 19.1C50.5003 19.4 50.9002 19.6 51.5002 20C51.3002 19.1 50.9002 18.5 50.3002 18.1C49.0002 17 47.5003 16.2 45.7003 16.6C45.4003 16.7 45.1003 16.6 44.7003 16.6C44.3003 16.6 44.0003 16.7 43.7003 17.1C41.9003 19.6 40.5002 22.4 39.8002 25.4C39.4002 27.1 39.1002 28.9 38.8002 30.8C40.6002 30.7 42.4002 30.7 44.3002 30.7ZM37.8002 12.3C36.8002 13.6 35.7003 14.4 34.2003 14.7C33.3003 14.9 33.2003 15.1 33.7003 15.8C35.4003 18.2 36.7002 20.7 37.5002 23.5C37.6002 23.7 37.7002 23.9 37.8002 24.2C38.8002 21 40.2002 18.1 42.1003 15.6C42.4002 15.2 42.2002 14.9 41.8002 14.8C40.1002 14.5 38.8002 13.7 37.8002 12.3ZM57.6003 61.5C59.0003 61.3 60.0002 59.9 59.9002 58.4C59.9002 56.8 58.6003 55.4 57.1003 55.2C55.4002 55 54.0003 55.9 53.6003 57.4C55.0003 57.9 56.4003 58.4 57.7003 58.9C58.6003 59.2 58.8003 60 58.2003 60.7C58.1003 60.9 57.8003 61.2 57.6003 61.5ZM37.7003 7.3C39.6003 7.3 39.6002 7.3 40.0002 5.6C40.2002 4.9 40.0002 4.4 39.4002 4C38.1002 2.9 37.8002 2.9 36.3002 3.8C36.3002 3.8 36.3003 3.8 36.2003 3.8C35.4003 4.3 35.2002 4.9 35.4002 5.8C35.8002 7.3 35.8002 7.3 37.4002 7.3C37.6002 7.3 37.7003 7.3 37.7003 7.3ZM15.5002 55.4C15.5002 54.7 15.0002 54.1 14.3002 54.1C13.6002 54.1 13.0002 54.7 13.0002 55.4C13.0002 56 13.6003 56.6 14.2003 56.6C14.9003 56.7 15.5002 56.1 15.5002 55.4ZM27.5002 13.3C27.6002 14.2 28.0002 14.6 28.9002 14.4C29.4002 14.3 30.0002 14.3 30.5002 14.4C31.4002 14.5 31.7002 14 31.9002 13.3C30.5002 13.3 29.0002 13.3 27.5002 13.3ZM43.6003 13.3C43.8003 14 44.1002 14.6 45.0002 14.4C45.5002 14.3 46.1003 14.3 46.6003 14.4C47.5003 14.5 47.9002 14.1 48.0002 13.3C46.5002 13.3 45.1003 13.3 43.6003 13.3Z" fill="#0074A5"/>
<path d="M6.20007 35.1999C8.40007 34.6999 10.5001 34.1999 12.6001 33.7999C12.8001 33.7999 12.9001 33.6999 13.1001 33.6999C13.7001 33.5999 14.0001 33.1999 14.0001 32.6999C14.0001 32.0999 13.6001 31.7999 13.1001 31.6999C12.0001 31.4999 11.0001 31.2999 9.90005 31.0999C7.40005 30.4999 5.70005 28.9999 4.90005 26.4999C4.80005 26.2999 4.80005 26.0999 4.80005 25.7999C5.30005 25.8999 5.70007 25.9999 6.10007 26.0999C7.80007 26.5999 9.50007 26.9999 11.1001 27.4999C11.7001 27.6999 12.4 27.8999 12.8 27.0999C13.2 26.3999 12.7001 25.8999 12.2001 25.4999C9.30007 22.9999 7.50005 19.9999 6.80005 16.2999C6.60005 15.2999 6.50005 14.1999 6.40005 13.0999C6.50005 12.9999 6.60007 12.9999 6.70007 12.8999C6.80007 13.0999 6.90007 13.2999 7.10007 13.4999C11.6001 18.2999 16.2001 23.0999 20.7001 27.9999C21.8001 29.1999 21.9001 29.3999 21.1001 30.8999C20.7001 31.7999 20.3001 32.5999 20.4001 33.5999C20.7001 36.1999 23.5001 37.7999 26.0001 36.6999C26.3001 36.5999 26.5 36.3999 26.8 36.2999C27.2 39.2999 26.3001 42.4999 27.6001 45.4999C26.5001 45.6999 25.3001 45.7999 24.2001 45.9999C21.6001 46.3999 19.0001 46.6999 16.4001 47.0999C14.3001 47.3999 12.6001 46.7999 11.4001 45.0999C11.2001 44.7999 11 44.5999 10.8 44.2999C10.8 44.1999 10.7001 44.1999 10.7001 44.0999C12.4001 42.7999 14.0001 41.4999 15.7001 40.1999C16.0001 39.9999 16.2001 39.7999 16.5001 39.5999C16.9001 39.2999 17.1001 38.7999 16.9001 38.2999C16.6001 37.7999 16.2001 37.5999 15.7001 37.6999C14.6001 37.8999 13.6001 38.0999 12.5001 38.2999C9.90006 38.6999 7.30007 37.4999 6.20007 35.1999Z" fill="#85DBF6"/>
<path d="M69.0001 12.8C69.0001 16.5 68.0001 19.7 65.9001 22.5C65.1001 23.6 64.0001 24.6 63.1001 25.6C62.7001 26 62.3001 26.4 62.6001 27.1C62.9001 27.7 63.4001 27.7 64.1001 27.6C66.2001 27 68.4001 26.4001 70.7001 25.8001C70.7001 26.1001 70.6001 26.3 70.6001 26.5C69.9001 29 68.2001 30.5 65.7001 31.1C64.7001 31.3 63.7001 31.5 62.7001 31.7C62.1001 31.8 61.6001 32.1 61.6001 32.7C61.6001 33.4 62.0001 33.7001 62.6001 33.8001C64.7001 34.3001 66.8001 34.7 68.9001 35.2C69.0001 35.2 69.2001 35.3001 69.4001 35.4001C68.3001 37.3001 66.8001 38.4 64.6001 38.5C63.1001 38.5 61.6001 38.1001 60.1001 37.9001C59.5001 37.8001 59.0001 37.8 58.7001 38.5C58.4001 39.1 58.7001 39.5001 59.2001 39.9001C60.9001 41.2001 62.6 42.5001 64.3 43.8001C64.5 43.9001 64.7 44.1001 64.8 44.3001C63.2 46.9001 61.6001 47.7 58.6001 47.2C55.3001 46.7 52.0001 46.3001 48.7001 45.8001C48.4001 45.8001 48.2 45.7 47.8 45.6C48.8 43.8 48.5001 41.8001 48.6001 39.9001C48.6001 38.8001 48.6001 37.6001 48.6001 36.3001C49.8001 37.0001 50.9001 37.3 52.2001 37C54.6001 36.4 55.8 34.0001 54.8 31.8001C54.6 31.4001 54.5 31.1 54.3 30.7C53.7 29.5 53.8001 29.1 54.7001 28.2C58.8001 23.8 62.9001 19.5 67.0001 15.1C67.5001 14.3 68.2001 13.6 69.0001 12.8Z" fill="#85DBF6"/>
<path d="M41.8002 71.7001C40.5002 72.5001 39.3002 73.2001 38.0002 73.9001C37.9002 74.0001 37.6002 74.0001 37.5002 73.9001C36.2002 73.2001 35.0002 72.4001 33.6003 71.7001C34.6003 69.9001 35.5002 68.2001 36.4002 66.4001C36.5002 66.2001 36.6003 66.0001 36.7003 65.8001C36.9003 65.3001 36.9002 64.9001 36.5002 64.5001C36.1002 64.1001 35.6003 64.2001 35.2003 64.5001C34.4003 65.0001 33.6002 65.6001 32.9002 66.2001C32.0002 66.9001 31.0002 67.5001 29.9002 68.3001C29.5002 67.2001 29.2002 66.3001 28.9002 65.3001C28.9002 65.1001 29.1003 64.8001 29.2003 64.7001C30.5003 63.5001 31.9003 62.4001 33.2003 61.2001C35.5003 59.2001 35.9002 57.0001 34.5002 54.3001C34.4002 54.0001 34.2003 53.8001 34.1003 53.5001C33.8003 53.0001 33.4002 52.8001 32.8002 52.9001C31.2002 53.2001 29.6002 53.5001 27.9002 53.8001C27.0002 54.0001 26.8002 54.5001 27.0002 55.3001C27.1002 55.8001 27.3002 56.3001 27.4002 56.8001C27.7002 58.5001 26.7002 60.1001 25.0002 60.5001C23.6002 60.8001 22.2003 61.1001 20.7003 61.3001C20.3003 61.4001 19.9002 61.0001 19.5002 60.8001C19.5002 60.7001 19.5003 60.6001 19.6003 60.5001C20.6003 60.1001 21.6002 59.8001 22.5002 59.4001C24.7002 58.6001 25.6002 57.2001 25.4002 54.9001C25.4002 54.3001 25.3003 53.8001 25.2003 53.2001C25.1003 52.7001 25.2003 52.4001 25.7003 52.2001C27.4003 51.2001 29.0003 50.2001 30.7003 49.2001C31.1003 49.0001 31.3003 49.0001 31.7003 49.2001C33.3003 50.4001 35.0002 51.6001 36.6003 52.8001C37.4002 53.4001 37.7002 53.4001 38.5002 52.8001C40.1002 51.6001 41.8002 50.4001 43.4002 49.2001C43.8002 48.9001 44.0002 48.9001 44.4002 49.1001C46.0002 50.1001 47.7002 51.2001 49.4002 52.1001C49.8002 52.3001 49.9002 52.6001 49.9002 53.0001C49.8002 53.8001 49.7003 54.5001 49.7003 55.3001C49.6003 57.1001 50.5003 58.5001 52.2003 59.1001C53.3003 59.5001 54.4002 59.9001 55.5002 60.3001C55.2002 61.1001 54.7002 61.2001 53.9002 61.0001C52.7002 60.7001 51.4003 60.5001 50.2003 60.2001C48.3003 59.8001 47.3003 58.1001 47.7003 56.2001C47.8003 55.7001 48.0002 55.3001 48.1003 54.9001C48.3003 54.2001 48.0003 53.7001 47.2003 53.5001C45.5003 53.2001 43.8003 52.9001 42.1003 52.6001C41.8003 52.6001 41.3003 52.7001 41.2003 52.9001C40.1003 54.5001 39.3002 56.1001 39.9002 58.1001C40.2002 59.2001 40.8003 60.0001 41.6003 60.7001C43.0002 61.9001 44.4002 63.1001 45.8002 64.3001C46.2002 64.6001 46.3003 64.9001 46.1003 65.3001C45.8003 66.1001 45.5002 67.0001 45.1003 68.0001C43.9002 67.2001 42.9002 66.4001 41.8002 65.7001C41.2002 65.3001 40.6002 64.9001 40.0002 64.4001C39.5002 64.0001 39.0002 63.9001 38.5002 64.3001C38.0002 64.7001 38.1002 65.3001 38.4002 65.8001C39.4002 67.5001 40.3003 69.3001 41.2003 71.1001C41.7003 71.3001 41.7002 71.5001 41.8002 71.7001Z" fill="#85DBF6"/>
<path d="M29.0002 32.8C34.8002 32.8 40.6002 32.8 46.5002 32.8C46.5002 33.1 46.5002 33.3 46.5002 33.6C46.5002 36.4 46.5002 39.2 46.5002 42C46.5002 43.7 45.9002 44.9 44.5002 45.9C42.4002 47.4 40.3003 48.9 38.2003 50.5C37.8003 50.8 37.6003 50.8 37.2003 50.5C35.0003 48.9 32.8003 47.3 30.7003 45.7C29.6003 44.9 29.0002 43.9 29.0002 42.5C29.0002 39.4 29.0002 36.3 29.0002 33.1C29.0002 33.1 29.0002 33 29.0002 32.8ZM37.7003 35.1C36.0003 35.1 34.3003 35.1 32.6003 35.1C31.6003 35.1 31.2003 35.5 31.2003 36.5C31.2003 38.4 31.2003 40.3 31.2003 42.2C31.2003 42.9 31.5002 43.5 32.0002 43.9C33.6002 45 35.2002 46.2 36.8002 47.4C37.4002 47.8 37.9002 47.8 38.5002 47.4C40.1002 46.2 41.7002 45.1 43.3002 43.9C43.9002 43.5 44.2003 42.9 44.2003 42.2C44.2003 40.3 44.2003 38.4 44.2003 36.4C44.2003 35.4 43.8002 35.1 42.8002 35.1C41.1002 35.1 39.4003 35.1 37.7003 35.1Z" fill="#00A1E4"/>
<path d="M36.7002 30.7C34.9002 30.7 33.1002 30.7 31.3002 30.7C31.4002 29.9 31.5002 29.1001 31.6002 28.3001C31.8002 24.5001 30.3002 21.5001 27.4002 19.1001C26.8002 18.6001 26.2002 18.5001 25.5002 19.0001C25.1002 19.3001 24.7002 19.5001 24.2002 19.9001C24.3002 19.1001 24.7002 18.5001 25.2002 18.1001C25.9002 17.6001 26.6002 17.1001 27.4002 16.6001C27.6002 16.5001 27.9002 16.4001 28.1002 16.4001C28.9002 16.4001 29.8002 16.5001 30.6002 16.4001C31.3002 16.3001 31.8002 16.6 32.1002 17.2C34.8002 21.1 36.3002 25.5001 36.7002 30.3001C36.7002 30.4001 36.7002 30.5 36.7002 30.7Z" fill="#85DBF6"/>
<path d="M44.2001 30.7001C42.3001 30.7001 40.6001 30.7001 38.6001 30.7001C38.9001 28.8001 39.2001 27.0001 39.6001 25.3001C40.3001 22.3001 41.7001 19.5001 43.5001 17.0001C43.8001 16.6001 44.0001 16.5001 44.5001 16.5001C44.8001 16.5001 45.1001 16.6001 45.5001 16.5001C47.3001 16.2001 48.8001 16.9001 50.1001 18.0001C50.7001 18.5001 51.1001 19.0001 51.3001 19.9001C50.8001 19.6001 50.3001 19.3001 49.9001 19.0001C49.3001 18.5001 48.7001 18.6001 48.1001 19.1001C44.6001 21.9001 43.2001 25.5001 44.0001 29.9001C44.1001 30.2001 44.2001 30.4001 44.2001 30.7001Z" fill="#85DBF6"/>
<path d="M37.7002 12.3999C38.7002 13.7999 40.0002 14.5999 41.7002 14.8999C42.2002 14.9999 42.3001 15.2999 42.0001 15.6999C40.1001 18.2999 38.7002 21.0999 37.7002 24.2999C37.6002 23.9999 37.5001 23.7999 37.4001 23.5999C36.5001 20.7999 35.2002 18.2999 33.6002 15.8999C33.1002 15.0999 33.1002 14.9999 34.1002 14.7999C35.6002 14.3999 36.7002 13.5999 37.7002 12.3999Z" fill="white"/>
<path d="M57.6002 61.5C57.8002 61.2 58.1002 61 58.3002 60.7C58.9002 60 58.7002 59.2 57.8002 58.9C56.4002 58.4 55.0002 57.9 53.7002 57.4C54.1002 55.9 55.5002 55 57.2002 55.2C58.8002 55.4 60.0002 56.8 60.0002 58.4C59.9002 59.9 58.9002 61.3 57.6002 61.5Z" fill="white"/>
<path d="M37.7002 7.30007H37.6002C36.0002 7.30007 36.0002 7.30007 35.6002 5.80007C35.3002 4.90007 35.6002 4.30007 36.4002 3.80007C36.4002 3.80007 36.4002 3.80007 36.5002 3.80007C37.9002 2.90007 38.3002 2.90007 39.6002 4.00007C40.1002 4.40007 40.3002 5.00007 40.2002 5.60007C39.6002 7.30007 39.6002 7.30007 37.7002 7.30007Z" fill="#00A2E5"/>
<path d="M15.4001 55.4001C15.4001 56.1001 14.8002 56.7001 14.1002 56.6001C13.4002 56.6001 12.9001 56.0001 12.9001 55.4001C12.9001 54.7001 13.5002 54.1001 14.2002 54.1001C14.9002 54.2001 15.5001 54.7001 15.4001 55.4001Z" fill="#00A2E5"/>
<path d="M27.5002 13.3C29.0002 13.3 30.4002 13.3 31.9002 13.3C31.7002 14 31.4002 14.6001 30.5002 14.4001C30.0002 14.3001 29.4002 14.3001 28.9002 14.4001C28.0002 14.5001 27.6002 14.2 27.5002 13.3Z" fill="#00A2E5"/>
<path d="M43.5002 13.3C45.0002 13.3 46.5002 13.3 48.0002 13.3C47.9002 14.1 47.5003 14.5001 46.6003 14.4001C46.1003 14.3001 45.5002 14.3001 45.0002 14.4001C44.1002 14.6001 43.8002 14 43.5002 13.3Z" fill="#00A1E4"/>
<path d="M37.7001 35.1001C39.4001 35.1001 41.1001 35.1001 42.8001 35.1001C43.8001 35.1001 44.1001 35.5001 44.2001 36.4001C44.2001 38.3001 44.2001 40.2001 44.2001 42.2001C44.2001 42.9001 43.9001 43.5001 43.3001 43.9001C41.7001 45.0001 40.1001 46.2001 38.5001 47.4001C37.9001 47.8001 37.4001 47.8001 36.8001 47.4001C35.2001 46.2001 33.6001 45.1001 32.0001 43.9001C31.4001 43.5001 31.1001 42.9001 31.2001 42.2001C31.2001 40.3001 31.2001 38.4001 31.2001 36.5001C31.2001 35.5001 31.6001 35.1001 32.6001 35.1001C34.4001 35.1001 36.0001 35.1001 37.7001 35.1001ZM33.3001 37.2001C33.3001 38.8001 33.3001 40.3001 33.3001 41.9001C33.3001 42.1001 33.5001 42.3001 33.7001 42.5001C34.9001 43.4001 36.1001 44.3001 37.3001 45.1001C37.5001 45.2001 37.9001 45.3001 38.1001 45.1001C39.3001 44.3001 40.5001 43.4001 41.7001 42.5001C41.9001 42.4001 42.0001 42.2001 42.1001 42.0001C42.1001 40.4001 42.1001 38.9001 42.1001 37.3001C39.2001 37.2001 36.3001 37.2001 33.3001 37.2001Z" fill="#0075A6"/>
<path d="M33.3 37.2C36.3 37.2 39.1001 37.2 42.1001 37.2C42.1001 38.8 42.1001 40.4 42.1001 41.9C42.1001 42.1 41.9001 42.3 41.7001 42.4C40.5001 43.3 39.3001 44.2 38.1001 45C37.9001 45.1 37.5 45.1 37.3 45C36.1 44.2 34.9001 43.3 33.7001 42.4C33.5001 42.3 33.3 42 33.3 41.8C33.3 40.4 33.3 38.8 33.3 37.2Z" fill="white"/>
<path d="M45.7002 34V42.2" stroke="white" stroke-width="1.0762" stroke-miterlimit="10" stroke-linecap="round"/>
<path d="M38.3 4L38.8 4.4" stroke="white" stroke-width="1.0762" stroke-miterlimit="10" stroke-linecap="round"/>
<path d="M6.90015 13.2C10.5001 17.9 21.3001 29.1999 21.3001 29.1999C21.3001 29.1999 22.0002 30.2 21.2002 30.9C20.3002 31.7 19.8001 34.5 20.9001 35.8" stroke="white" stroke-width="1.0762" stroke-miterlimit="10" stroke-linecap="round"/>
<path d="M69.1001 13.3C69.4001 14.1 68.5001 21.4 62.6001 26" stroke="white" stroke-width="1.0762" stroke-miterlimit="10" stroke-linecap="round"/>
<path d="M70.6002 26.1001C70.5002 28.9001 67.6002 30.6001 61.7002 31.3001" stroke="white" stroke-width="1.0762" stroke-miterlimit="10" stroke-linecap="round"/>
<path d="M69.1001 35.6001C67.9001 37.2001 67.6001 37.4001 66.0001 38.1001C64.4001 38.8001 59.3 37.4001 59.3 37.4001" stroke="white" stroke-width="1.0762" stroke-miterlimit="10" stroke-linecap="round"/>
<path d="M72.1001 50.2H68.3V54H72.1001V50.2Z" fill="#85DBF6"/>
<path d="M72.1001 50.2H68.3V54H72.1001V50.2Z" stroke="#0075A6" stroke-width="0.75" stroke-miterlimit="79.8403" stroke-linecap="round" stroke-linejoin="round"/>
<path d="M65.4001 50.2H61.6001V54H65.4001V50.2Z" fill="#85DBF6"/>
<path d="M65.4001 50.2H61.6001V54H65.4001V50.2Z" stroke="#0075A6" stroke-width="0.75" stroke-miterlimit="79.8403" stroke-linecap="round" stroke-linejoin="round"/>
<path d="M72.1001 56.9001H68.3V60.7001H72.1001V56.9001Z" fill="#85DBF6"/>
<path d="M72.1001 56.9001H68.3V60.7001H72.1001V56.9001Z" stroke="#0075A6" stroke-width="0.75" stroke-miterlimit="79.8403" stroke-linecap="round" stroke-linejoin="round"/>
<path d="M79.2 81.7V50.8C79.2 50.2 78.7 49.8 78.2 49.8H55.5C54.9 49.8 54.5 50.3 54.5 50.8V81.7C54.5 82.3 55 82.7 55.5 82.7H78.2C78.7 82.8 79.2 82.3 79.2 81.7Z" stroke="white" stroke-width="3" stroke-miterlimit="79.8403" stroke-linecap="round" stroke-linejoin="round"/>
<path fill-rule="evenodd" clip-rule="evenodd" d="M79.2 81.7V50.8C79.2 50.2 78.7 49.8 78.2 49.8H55.5C54.9 49.8 54.5 50.3 54.5 50.8V81.7C54.5 82.3 55 82.7 55.5 82.7H78.2C78.7 82.8 79.2 82.3 79.2 81.7Z" fill="#00A2E5"/>
<path d="M79.2 81.7V50.8C79.2 50.2 78.7 49.8 78.2 49.8H55.5C54.9 49.8 54.5 50.3 54.5 50.8V81.7C54.5 82.3 55 82.7 55.5 82.7H78.2C78.7 82.8 79.2 82.3 79.2 81.7Z" stroke="#0075A6" stroke-width="1.5" stroke-miterlimit="79.8403" stroke-linecap="round" stroke-linejoin="round"/>
<path d="M66.8001 68.9C70.5004 68.9 73.5001 65.9003 73.5001 62.2C73.5001 58.4997 70.5004 55.5 66.8001 55.5C63.0998 55.5 60.1001 58.4997 60.1001 62.2C60.1001 65.9003 63.0998 68.9 66.8001 68.9Z" fill="white"/>
<path d="M66.8001 68.9C70.5004 68.9 73.5001 65.9003 73.5001 62.2C73.5001 58.4997 70.5004 55.5 66.8001 55.5C63.0998 55.5 60.1001 58.4997 60.1001 62.2C60.1001 65.9003 63.0998 68.9 66.8001 68.9Z" stroke="#0075A6" stroke-width="0.75" stroke-miterlimit="79.8403" stroke-linecap="round" stroke-linejoin="round"/>
<path d="M66.8001 68.8001C68.8435 68.8001 70.5001 65.8452 70.5001 62.2001C70.5001 58.555 68.8435 55.6001 66.8001 55.6001C64.7566 55.6001 63.1001 58.555 63.1001 62.2001C63.1001 65.8452 64.7566 68.8001 66.8001 68.8001Z" stroke="#0075A6" stroke-width="0.75" stroke-miterlimit="79.8403" stroke-linecap="round" stroke-linejoin="round"/>
<path d="M61.8999 57.5C63.0999 58.3 64.7999 58.8 66.7999 58.8C68.7999 58.8 70.4999 58.3 71.6999 57.5" stroke="#0075A6" stroke-width="0.75" stroke-miterlimit="79.8403" stroke-linecap="round" stroke-linejoin="round"/>
<path d="M61.8999 66.8C63.0999 66 64.7999 65.5 66.7999 65.5C68.7999 65.5 70.4999 66 71.6999 66.8" stroke="#0075A6" stroke-width="0.75" stroke-miterlimit="79.8403" stroke-linecap="round" stroke-linejoin="round"/>
<path d="M60.3999 62.2H73.1999" stroke="#0075A6" stroke-width="0.75" stroke-miterlimit="79.8403" stroke-linecap="round" stroke-linejoin="round"/>
<path d="M66.8 55.8V68.6" stroke="#0075A6" stroke-width="0.75" stroke-miterlimit="79.8403" stroke-linecap="round" stroke-linejoin="round"/>
<path d="M60.8 73.4001H72.8" stroke="white" stroke-width="0.75" stroke-miterlimit="79.8403" stroke-linecap="round" stroke-linejoin="round"/>
<path d="M59.3 75.7H74.3" stroke="white" stroke-width="0.75" stroke-miterlimit="79.8403" stroke-linecap="round" stroke-linejoin="round"/>
<path d="M77.3001 60.7V51.7H73.6001" stroke="white" stroke-width="0.75" stroke-miterlimit="79.8403" stroke-linecap="round" stroke-linejoin="round"/>
</svg>
