<svg width="86" height="81" viewBox="0 0 86 81" fill="none" xmlns="http://www.w3.org/2000/svg">
<path d="M3.5 75.7C7.9 80.1 17.5 78.1 27.9 71.5" stroke="#0075A6" stroke-width="1.5" stroke-miterlimit="79.8403" stroke-linecap="round" stroke-linejoin="round"/>
<path d="M19.3999 66.5C23.5999 69.9 28.4999 72.3 33.8999 73.6" stroke="white" stroke-width="3" stroke-miterlimit="79.8403" stroke-linecap="round" stroke-linejoin="round"/>
<path d="M42.3 74.5001C62.6241 74.5001 79.1 58.069 79.1 37.8001C79.1 17.5313 62.6241 1.1001 42.3 1.1001C21.9759 1.1001 5.5 17.5313 5.5 37.8001C5.5 58.069 21.9759 74.5001 42.3 74.5001Z" fill="white"/>
<path fill-rule="evenodd" clip-rule="evenodd" d="M5.59985 37.8C5.59985 26.7 10.4998 16.8 18.2998 10C12.6998 16.4 9.29984 24.9 9.29984 34C9.29984 54.3 25.7998 70.8 45.9998 70.8C55.1998 70.8 63.5998 67.4 69.9998 61.8C63.2998 69.6 53.2999 74.5 42.1999 74.5C22.0999 74.6 5.59985 58.1 5.59985 37.8Z" fill="#85DBF6"/>
<path d="M42.3 74.5001C62.6241 74.5001 79.1 58.069 79.1 37.8001C79.1 17.5313 62.6241 1.1001 42.3 1.1001C21.9759 1.1001 5.5 17.5313 5.5 37.8001C5.5 58.069 21.9759 74.5001 42.3 74.5001Z" stroke="#0075A6" stroke-width="1.5" stroke-miterlimit="79.8403" stroke-linecap="round" stroke-linejoin="round"/>
<path d="M42.3 74.6C53.5114 74.6 62.6 58.1241 62.6 37.8C62.6 17.4759 53.5114 1 42.3 1C31.0886 1 22 17.4759 22 37.8C22 58.1241 31.0886 74.6 42.3 74.6Z" stroke="#0075A6" stroke-width="1.5" stroke-miterlimit="79.8403" stroke-linecap="round" stroke-linejoin="round"/>
<path d="M15.5999 12.7C22.0999 16.9 31.6998 19.5 42.2998 19.5C52.8998 19.5 62.4998 16.9 68.9998 12.7" stroke="#0075A6" stroke-width="1.5" stroke-miterlimit="79.8403" stroke-linecap="round" stroke-linejoin="round"/>
<path d="M15.5999 63C22.0999 58.8 31.6998 56.2 42.2998 56.2C52.8998 56.2 62.4998 58.8 68.9998 63" stroke="#0075A6" stroke-width="1.5" stroke-miterlimit="79.8403" stroke-linecap="round" stroke-linejoin="round"/>
<path d="M6.3999 37.8H78.3999" stroke="#0075A6" stroke-width="1.5" stroke-miterlimit="79.8403" stroke-linecap="round" stroke-linejoin="round"/>
<path d="M42.2998 1.80005V73.8" stroke="#0075A6" stroke-width="1.5" stroke-miterlimit="79.8403" stroke-linecap="round" stroke-linejoin="round"/>
<path d="M12.0998 44.8999C8.49982 49.4999 5.5998 54.0999 3.7998 58.2999" stroke="white" stroke-width="3" stroke-miterlimit="79.8403" stroke-linecap="round" stroke-linejoin="round"/>
<path fill-rule="evenodd" clip-rule="evenodd" d="M18.2002 52.0001L14.6002 44.9001L13.0002 46.1001C11.6002 47.2001 9.80017 45.4001 10.9002 44.0001L12.1002 42.4001L5.00017 38.8001C4.30017 38.4001 4.00016 37.6001 4.30016 36.8001C4.60016 36.1001 5.10016 35.3001 5.80016 34.7001C6.50016 34.1001 7.40017 33.7001 8.50017 33.9001L16.9002 35.5001L19.8002 31.4001C20.8002 30.0001 21.8002 28.7001 22.8002 27.8001L27.6002 23.0001V22.9001L24.1002 19.4001L7.60018 11.5001C7.60018 11.5001 7.50016 11.5001 7.30016 11.5001C7.00016 11.5001 6.80016 11.6001 6.30016 11.6001C4.70016 11.9001 3.90016 9.70008 5.30016 8.80008C7.20016 7.70008 9.50016 6.90008 11.8002 7.60008L19.5002 9.80008L20.2002 8.90009C20.6002 8.40009 21.1002 7.90008 21.7002 7.30008C22.2002 6.80008 23.5002 6.10008 24.5002 7.10008L26.1002 8.70009C27.1002 9.70009 26.4002 11.0001 25.9002 11.5001L27.9002 12.1001L28.6002 11.2001C29.0002 10.7001 29.6002 10.1001 30.3002 9.40009C30.8002 8.90009 32.1002 8.20009 33.1002 9.20009L34.7002 10.8001C35.7002 11.8001 35.1002 13.1001 34.5002 13.6001L34.2002 13.9001H34.3002C34.7002 14.0001 35.1002 14.1001 35.4002 14.1001L36.3002 14.0001L41.9002 8.40009C43.1002 7.20009 44.9002 6.00008 46.5002 5.10008C47.8002 4.40008 50.1002 3.40008 51.6002 4.30008L51.7002 4.40009L51.8002 4.50008L51.9002 4.60008L52.0002 4.70009L52.1002 4.80008L52.2002 4.90009L52.3002 5.00008C53.2002 6.50008 52.2002 8.80008 51.5002 10.1001C50.6002 11.8001 49.4002 13.5001 48.2002 14.7001L42.6002 20.3001L42.5002 21.2001C42.5002 21.6001 42.6002 22.0001 42.7002 22.3001V22.4001L43.0002 22.1001C43.5002 21.6001 44.8002 20.9001 45.8002 21.9001L47.4002 23.5001C48.4002 24.5001 47.8002 25.8001 47.2002 26.3001C46.5002 27.0001 45.9002 27.5001 45.4002 28.0001L44.5002 28.7001L45.1002 30.7001C45.6002 30.2001 46.9002 29.5001 47.9002 30.5001L49.5002 32.1001C50.5002 33.1001 49.8002 34.4001 49.3002 34.9001C48.7002 35.5001 48.2002 36.0001 47.7002 36.4001L46.8002 37.1001L49.0002 44.8001C49.7002 47.1001 48.9002 49.5001 47.8002 51.3001C46.9002 52.7001 44.8002 51.9001 45.0002 50.3001C45.1002 49.9001 45.1002 49.6001 45.1002 49.3001C45.1002 49.1001 45.1002 49.0001 45.1002 49.0001L37.2002 32.6001L33.7002 29.1001H33.6002L28.8002 33.9001C27.9002 34.8001 26.6002 35.9001 25.2002 36.9001L21.1002 39.8001L22.7002 48.2001C22.9002 49.3001 22.5002 50.3001 21.9002 50.9001C21.3002 51.6001 20.6002 52.1001 19.8002 52.4001C19.4002 53.1001 18.5002 52.7001 18.2002 52.0001Z" fill="white"/>
<path fill-rule="evenodd" clip-rule="evenodd" d="M20.6 14.4001L19 12.8001C19.9 11.3001 20.4 10.4001 22.6 8.10011C22.9 7.80011 23.5 7.60011 23.8 7.90011L25.4 9.50011C25.8 9.90011 25.6 10.4001 25.2 10.7001C23 13.0001 22.1 13.4001 20.6 14.4001Z" fill="#85DBF6"/>
<path d="M20.6 14.4001L19 12.8001C19.9 11.3001 20.4 10.4001 22.6 8.10011C22.9 7.80011 23.5 7.60011 23.8 7.90011L25.4 9.50011C25.8 9.90011 25.6 10.4001 25.2 10.7001C23 13.0001 22.1 13.4001 20.6 14.4001Z" stroke="#0075A6" stroke-width="0.75" stroke-miterlimit="79.8403" stroke-linecap="round" stroke-linejoin="round"/>
<path fill-rule="evenodd" clip-rule="evenodd" d="M29.2001 16.5L27.6001 14.9C28.5001 13.4 29.0001 12.5 31.2001 10.2C31.5001 9.89997 32.1001 9.69996 32.4001 9.99996L34.0001 11.6C34.4001 12 34.2001 12.5 33.8001 12.8C31.6001 15.2 30.7001 15.6 29.2001 16.5Z" fill="#85DBF6"/>
<path d="M29.2001 16.5L27.6001 14.9C28.5001 13.4 29.0001 12.5 31.2001 10.2C31.5001 9.89997 32.1001 9.69996 32.4001 9.99996L34.0001 11.6C34.4001 12 34.2001 12.5 33.8001 12.8C31.6001 15.2 30.7001 15.6 29.2001 16.5Z" stroke="#0075A6" stroke-width="0.75" stroke-miterlimit="79.8403" stroke-linecap="round" stroke-linejoin="round"/>
<path fill-rule="evenodd" clip-rule="evenodd" d="M28.6001 24C35.1001 19.1 36.1001 17.3 37.2001 15.4C36.2001 15.8 35.0001 15.7 34.0001 15.4L11.5001 9.00003C9.70009 8.50003 7.8001 9.10003 6.1001 10.1C6.8001 10 7.6001 9.80003 8.2001 10.1L24.8001 18.1L28.5001 21.8C29.1001 22.4 29.2001 23.5 28.6001 24Z" fill="#00A2E5"/>
<path d="M37.2001 15.5001C36.2001 15.9001 35.0001 15.8001 34.0001 15.5001L11.5001 9.10013C9.70009 8.60013 7.8001 9.20013 6.1001 10.2001C6.8001 10.1001 7.6001 9.90013 8.2001 10.2001L24.8001 18.2001L28.5001 21.9001C29.0001 22.4001 29.0001 23.5001 28.5001 24.0001" stroke="#0075A6" stroke-width="1.5" stroke-miterlimit="79.8403" stroke-linecap="round" stroke-linejoin="round"/>
<path fill-rule="evenodd" clip-rule="evenodd" d="M14.3001 41.8L17.5001 37.1L8.2001 35.3C7.1001 35.1 6.1001 36.1 5.6001 37.3L14.3001 41.8Z" fill="#00A2E5"/>
<path d="M17.5001 37.2001L8.2001 35.4001C7.1001 35.2001 6.1001 36.2001 5.6001 37.4001L14.3001 41.8001" stroke="#0075A6" stroke-width="1.5" stroke-miterlimit="79.8403" stroke-linecap="round" stroke-linejoin="round"/>
<path fill-rule="evenodd" clip-rule="evenodd" d="M12 44.9001C16.2 39.7001 20.3 32.3001 23.8 28.8001L43.1 9.50008C45.2 7.40008 50.1 4.70008 51.1 5.80008C52.2 6.90008 49.5 11.7001 47.4 13.8001L28.1 33.1001C24.6 36.6001 17.3 40.7001 12 44.9001Z" fill="#85DBF6"/>
<path fill-rule="evenodd" clip-rule="evenodd" d="M42.5 36.4001L44.1 38.0001C45.6 37.0001 46.5 36.6001 48.8 34.4001C49.1 34.1001 49.3 33.5001 49 33.2001L47.4 31.6001C47 31.2001 46.5 31.4001 46.2 31.8001C43.9 33.9001 43.5 34.8001 42.5 36.4001Z" fill="#85DBF6"/>
<path d="M42.5 36.4001L44.1 38.0001C45.6 37.0001 46.5 36.6001 48.8 34.4001C49.1 34.1001 49.3 33.5001 49 33.2001L47.4 31.6001C47 31.2001 46.5 31.4001 46.2 31.8001C43.9 33.9001 43.5 34.8001 42.5 36.4001Z" stroke="#0075A6" stroke-width="0.75" stroke-miterlimit="79.8403" stroke-linecap="round" stroke-linejoin="round"/>
<path fill-rule="evenodd" clip-rule="evenodd" d="M40.4001 27.8L42.0002 29.4C43.5002 28.4 44.4002 28 46.7002 25.8C47.0002 25.5 47.2001 24.9 46.9001 24.6L45.3001 23C44.9001 22.6 44.4002 22.8 44.1002 23.2C41.8002 25.4 41.4001 26.3 40.4001 27.8Z" fill="#85DBF6"/>
<path d="M40.4001 27.8L42.0002 29.4C43.5002 28.4 44.4002 28 46.7002 25.8C47.0002 25.5 47.2001 24.9 46.9001 24.6L45.3001 23C44.9001 22.6 44.4002 22.8 44.1002 23.2C41.8002 25.4 41.4001 26.3 40.4001 27.8Z" stroke="#0075A6" stroke-width="0.75" stroke-miterlimit="79.8403" stroke-linecap="round" stroke-linejoin="round"/>
<path fill-rule="evenodd" clip-rule="evenodd" d="M32.9001 28.3002C37.8001 21.8002 39.6002 20.8002 41.5002 19.7002C41.1002 20.7002 41.2002 21.9002 41.5002 22.9002L47.9001 45.4002C48.4001 47.2002 47.8001 49.1002 46.8001 50.8002C46.9001 50.1002 47.1001 49.3002 46.8001 48.7002L38.8001 32.1002L35.1002 28.4002C34.5002 27.8002 33.4001 27.8002 32.9001 28.3002Z" fill="#00A2E5"/>
<path d="M41.5 19.8C41.1 20.8 41.2 22 41.5 23L47.9 45.5C48.4 47.3 47.8 49.2 46.8 50.9C46.9 50.2 47.1 49.4 46.8 48.8L38.8 32.2L35.1 28.5C34.6 28 33.5 28 33 28.5" stroke="#0075A6" stroke-width="1.5" stroke-miterlimit="79.8403" stroke-linecap="round" stroke-linejoin="round"/>
<path fill-rule="evenodd" clip-rule="evenodd" d="M15.1001 42.6001L19.8001 39.4001L21.6001 48.7001C21.8001 49.8001 20.8001 50.8001 19.6001 51.3001L15.1001 42.6001Z" fill="#00A2E5"/>
<path d="M19.8002 39.4001L21.6002 48.7001C21.8002 49.8001 20.8002 50.8001 19.6002 51.3001L15.2002 42.6001" stroke="#0075A6" stroke-width="1.5" stroke-miterlimit="79.8403" stroke-linecap="round" stroke-linejoin="round"/>
<path d="M12 44.9001C16.2 39.7001 20.3 32.3001 23.8 28.8001L43.1 9.50008C45.2 7.40008 50.1 4.70008 51.1 5.80008C52.2 6.90008 49.5 11.7001 47.4 13.8001L28.1 33.1001C24.6 36.6001 17.3 40.7001 12 44.9001Z" stroke="#0075A6" stroke-width="1.5" stroke-miterlimit="79.8403" stroke-linecap="round" stroke-linejoin="round"/>
<path d="M46.3 8.99997C48.2 7.99997 48.9001 8.69997 47.9001 10.6" stroke="#0075A6" stroke-width="0.75" stroke-miterlimit="79.8403" stroke-linecap="round" stroke-linejoin="round"/>
<path d="M83.5999 78.0001V47.1001C83.5999 46.5001 83.0999 46.1001 82.5999 46.1001H59.8999C59.2999 46.1001 58.8999 46.6001 58.8999 47.1001V78.0001C58.8999 78.6001 59.3999 79.0001 59.8999 79.0001H82.5999C83.0999 79.1001 83.5999 78.6001 83.5999 78.0001Z" stroke="white" stroke-width="3" stroke-miterlimit="79.8403" stroke-linecap="round" stroke-linejoin="round"/>
<path fill-rule="evenodd" clip-rule="evenodd" d="M83.5999 78.0001V47.1001C83.5999 46.5001 83.0999 46.1001 82.5999 46.1001H59.8999C59.2999 46.1001 58.8999 46.6001 58.8999 47.1001V78.0001C58.8999 78.6001 59.3999 79.0001 59.8999 79.0001H82.5999C83.0999 79.1001 83.5999 78.6001 83.5999 78.0001Z" fill="#00A2E5"/>
<path d="M83.5999 78.0001V47.1001C83.5999 46.5001 83.0999 46.1001 82.5999 46.1001H59.8999C59.2999 46.1001 58.8999 46.6001 58.8999 47.1001V78.0001C58.8999 78.6001 59.3999 79.0001 59.8999 79.0001H82.5999C83.0999 79.1001 83.5999 78.6001 83.5999 78.0001Z" stroke="#0075A6" stroke-width="1.5" stroke-miterlimit="79.8403" stroke-linecap="round" stroke-linejoin="round"/>
<path d="M71.2 65.2C74.9003 65.2 77.9 62.2004 77.9 58.5C77.9 54.7997 74.9003 51.8 71.2 51.8C67.4997 51.8 64.5 54.7997 64.5 58.5C64.5 62.2004 67.4997 65.2 71.2 65.2Z" fill="white"/>
<path d="M71.2 65.2C74.9003 65.2 77.9 62.2004 77.9 58.5C77.9 54.7997 74.9003 51.8 71.2 51.8C67.4997 51.8 64.5 54.7997 64.5 58.5C64.5 62.2004 67.4997 65.2 71.2 65.2Z" stroke="#0075A6" stroke-width="0.75" stroke-miterlimit="79.8403" stroke-linecap="round" stroke-linejoin="round"/>
<path d="M71.2 65.1001C73.2435 65.1001 74.9 62.1452 74.9 58.5001C74.9 54.8551 73.2435 51.9001 71.2 51.9001C69.1566 51.9001 67.5 54.8551 67.5 58.5001C67.5 62.1452 69.1566 65.1001 71.2 65.1001Z" stroke="#0075A6" stroke-width="0.75" stroke-miterlimit="79.8403" stroke-linecap="round" stroke-linejoin="round"/>
<path d="M66.2998 53.8C67.4998 54.6 69.1998 55.1 71.1998 55.1C73.1998 55.1 74.8998 54.6 76.0998 53.8" stroke="#0075A6" stroke-width="0.75" stroke-miterlimit="79.8403" stroke-linecap="round" stroke-linejoin="round"/>
<path d="M66.2998 63.1C67.4998 62.3 69.1998 61.8 71.1998 61.8C73.1998 61.8 74.8998 62.3 76.0998 63.1" stroke="#0075A6" stroke-width="0.75" stroke-miterlimit="79.8403" stroke-linecap="round" stroke-linejoin="round"/>
<path d="M64.7998 58.5H77.5998" stroke="#0075A6" stroke-width="0.75" stroke-miterlimit="79.8403" stroke-linecap="round" stroke-linejoin="round"/>
<path d="M71.2 52.1001V64.9001" stroke="#0075A6" stroke-width="0.75" stroke-miterlimit="79.8403" stroke-linecap="round" stroke-linejoin="round"/>
<path d="M65.2 69.7002H77.2" stroke="white" stroke-width="0.75" stroke-miterlimit="79.8403" stroke-linecap="round" stroke-linejoin="round"/>
<path d="M63.7 72H78.7" stroke="white" stroke-width="0.75" stroke-miterlimit="79.8403" stroke-linecap="round" stroke-linejoin="round"/>
<path d="M81.7 57V48H78" stroke="white" stroke-width="0.75" stroke-miterlimit="79.8403" stroke-linecap="round" stroke-linejoin="round"/>
<path d="M10.7 46.7C1.69995 58.7 -1.60006 70.6 3.49994 75.7" stroke="#0075A6" stroke-width="1.5" stroke-miterlimit="79.8403" stroke-linecap="round" stroke-linejoin="round"/>
</svg>
