<svg width="81" height="85" viewBox="0 0 81 85" fill="none" xmlns="http://www.w3.org/2000/svg">
<path d="M40.2999 84C61.8943 84 79.4 66.4944 79.4 44.9001C79.4 23.3057 61.8943 5.80005 40.2999 5.80005C18.7056 5.80005 1.19995 23.3057 1.19995 44.9001C1.19995 66.4944 18.7056 84 40.2999 84Z" stroke="#0075A6" stroke-width="1.5724" stroke-miterlimit="10" stroke-linecap="round" stroke-linejoin="round"/>
<path fill-rule="evenodd" clip-rule="evenodd" d="M68.9 70.5999C60.2 65.6999 50.7999 62.0999 42.0999 66.2999C39.7999 67.3999 33.4 64.4999 32.9 68.1999C32.5 71.2999 39.8 70.8999 41.2 70.6999C34.8 74.2999 26.6 73.0999 19.9 69.7999C17.3 68.4999 13.9999 70.5999 16.7999 71.9999C16.8999 72.5999 28.1999 79.1999 32.0999 79.2999C38.9999 79.3999 38.1999 80.8999 43.5999 79.0999C50.9999 76.5999 55.9 76.4999 60.4 78.2999C63.7 76.0999 66.5 73.4999 68.9 70.5999Z" fill="#85DBF6"/>
<path fill-rule="evenodd" clip-rule="evenodd" d="M61.2 76.9998C58.5 76.2998 53.8 74.0998 43.8 75.8998C34.2 77.5998 30.2 79.8998 24.6 74.6998C24.2 74.2998 23.4 73.6998 23.2 73.4998C23 73.2998 23.2 72.7998 24.1 72.0998C25.9 70.4998 29.8 75.1998 32.9 75.0998C32.9 75.0998 44.2 73.2998 46 73.1998C50.7 72.9998 49.3 73.0998 54.5 67.6998C56.8 65.5998 64.5 67.1998 67.5 69.9998C69.2 71.3998 68.2 72.2998 61.2 76.9998Z" fill="white"/>
<path fill-rule="evenodd" clip-rule="evenodd" d="M19.0999 72.2C19.0999 72 17.9999 72.4 17.7999 71.8C17.3999 70.8 16.3999 70.6 16.4999 70.5C17.5999 68.5 22.0999 69.8 22.8999 71.8C23.1999 72.5 22.4999 73.7 21.6999 74.3C21.2999 73.5 20.8999 73.1 19.0999 72.2Z" fill="white"/>
<path d="M18.5 73.2C18.5 68.4 23.2 71.3 24.9 72.4" stroke="#0075A6" stroke-width="1.5724" stroke-miterlimit="10" stroke-linecap="round" stroke-linejoin="round"/>
<path fill-rule="evenodd" clip-rule="evenodd" d="M55.6998 67L51.4998 71.6L46.9998 73.1L40.0998 73.8L31.8998 74.9L27.7998 73.4L32.6998 73.2L36.8998 72.5L40.8998 71.3C47.2998 63.2 46.7998 70.7 55.6998 67Z" fill="white"/>
<path d="M57.7 77.5C55 76.8 53.4 77.1 43.2999 78.1C31.0999 79.3 33 80.7 24.9 75.7C23.6 74.9 21.2999 74.3 23.0999 72.7C24.7999 71.1 29.6 74.9 32.7 74.9C32.7 74.9 41.5 73.4 43.2 73.3C47.9 73.1 50.7 73.1 56 67.7" stroke="#0075A6" stroke-width="1.5724" stroke-miterlimit="10" stroke-linecap="round" stroke-linejoin="round"/>
<path fill-rule="evenodd" clip-rule="evenodd" d="M33.7 67.9999C38.6 69.9999 42.2 67.7999 44.4 65.5999C42.8 65.7999 41.0999 66.2999 39.4999 66.5999C37.7999 66.5999 36.1 66.4999 34.4 66.4999C34 66.8999 33.7 66.9999 33.7 67.9999Z" fill="white"/>
<path d="M68.9 70.5999C60.2 65.6999 50.7999 62.0999 42.0999 66.2999C39.7999 67.3999 33.4 64.4999 32.9 68.1999C32.5 71.2999 39.8 70.8999 41.2 70.6999C34.8 74.2999 26.6 73.0999 19.9 69.7999C17.9 68.7999 15.7 69.7999 15.7 70.7999C15.7 71.4999 17.2 72.3999 17.7 72.7999C20.6 74.6999 28.7999 79.2999 31.9999 79.2999C38.8999 79.3999 38.0999 80.8999 43.4999 79.0999C50.8999 76.5999 55.7999 76.4999 60.2999 78.2999C63.6999 76.0999 66.5 73.4999 68.9 70.5999Z" stroke="#0075A6" stroke-width="1.5724" stroke-miterlimit="10" stroke-linecap="round" stroke-linejoin="round"/>
<path d="M41.2 70.6999C42.5 68.1999 44.0999 66.6999 45.9999 64.8999" stroke="#0075A6" stroke-width="1.5724" stroke-miterlimit="10" stroke-linecap="round" stroke-linejoin="round"/>
<path d="M14.7998 1.69995V64H62.1998V1.69995H14.7998Z" fill="#85DBF6" stroke="#0075A6" stroke-width="1.5724" stroke-miterlimit="10" stroke-linecap="round" stroke-linejoin="round"/>
<path d="M60.6998 62.4H16.2998V3.19995H60.6998V62.4Z" fill="white"/>
<path d="M57.8999 15.7H19.0999" stroke="#0075A6" stroke-width="0.81" stroke-miterlimit="10" stroke-linecap="round" stroke-linejoin="round"/>
<path d="M52.2997 58.2999C55.3925 58.2999 57.8997 55.7926 57.8997 52.6999C57.8997 49.6071 55.3925 47.0999 52.2997 47.0999C49.2069 47.0999 46.6997 49.6071 46.6997 52.6999C46.6997 55.7926 49.2069 58.2999 52.2997 58.2999Z" stroke="#0075A6" stroke-width="0.81" stroke-miterlimit="10" stroke-linecap="round" stroke-linejoin="round"/>
<path d="M52.2996 56.3998C54.3431 56.3998 55.9996 54.7432 55.9996 52.6998C55.9996 50.6563 54.3431 48.9998 52.2996 48.9998C50.2562 48.9998 48.5996 50.6563 48.5996 52.6998C48.5996 54.7432 50.2562 56.3998 52.2996 56.3998Z" fill="#0075A6"/>
<path d="M57.8999 19.8H19.0999" stroke="#0075A6" stroke-width="0.81" stroke-miterlimit="10" stroke-linecap="round" stroke-linejoin="round"/>
<path d="M57.8999 23.8999H19.0999" stroke="#0075A6" stroke-width="0.81" stroke-miterlimit="10" stroke-linecap="round" stroke-linejoin="round"/>
<path d="M57.8999 28H19.0999" stroke="#0075A6" stroke-width="0.81" stroke-miterlimit="10" stroke-linecap="round" stroke-linejoin="round"/>
<path d="M57.8999 32.0999H19.0999" stroke="#0075A6" stroke-width="0.81" stroke-miterlimit="10" stroke-linecap="round" stroke-linejoin="round"/>
<path d="M39.5999 41.0999H19.0999" stroke="#0075A6" stroke-width="0.81" stroke-miterlimit="10" stroke-linecap="round" stroke-linejoin="round"/>
<path d="M39.5999 45.0999H19.0999" stroke="#0075A6" stroke-width="0.81" stroke-miterlimit="10" stroke-linecap="round" stroke-linejoin="round"/>
<path d="M39.5999 49.0999H19.0999" stroke="#0075A6" stroke-width="0.81" stroke-miterlimit="10" stroke-linecap="round" stroke-linejoin="round"/>
<path d="M39.5999 56.9998H31.5999" stroke="#0075A6" stroke-width="0.81" stroke-miterlimit="10" stroke-linecap="round" stroke-linejoin="round"/>
<path d="M27.0999 56.9998H19.0999" stroke="#0075A6" stroke-width="0.81" stroke-miterlimit="10" stroke-linecap="round" stroke-linejoin="round"/>
<path d="M35.2998 11.6999V6.8999" stroke="#0075A6" stroke-miterlimit="10" stroke-linecap="round" stroke-linejoin="round"/>
<path d="M35.2998 6.8999H37.1998C37.9998 6.8999 38.5998 7.4999 38.5998 8.1999C38.5998 8.9999 37.9998 9.5999 37.1998 9.5999H35.8998" stroke="#0075A6" stroke-miterlimit="10" stroke-linecap="round" stroke-linejoin="round"/>
<path d="M37.3999 9.59985L38.4999 11.6999" stroke="#0075A6" stroke-miterlimit="10" stroke-linecap="round" stroke-linejoin="round"/>
<path d="M33.4998 6.8999V10.3999C33.4998 11.0999 32.7998 11.6999 31.8998 11.6999C30.9998 11.6999 30.2998 11.0999 30.2998 10.3999V6.8999" stroke="#0075A6" stroke-miterlimit="10" stroke-linecap="round" stroke-linejoin="round"/>
<path d="M18.2998 11.6999V6.8999" stroke="#0075A6" stroke-miterlimit="10" stroke-linecap="round" stroke-linejoin="round"/>
<path d="M28.0999 7.1999C27.6999 6.9999 27.2999 6.8999 26.7999 6.8999C26.0999 6.8999 25.4999 7.2999 25.3999 7.8999C25.3999 8.6999 26.1999 8.8999 26.7999 9.2999C27.3999 9.5999 28.0999 9.8999 28.0999 10.6999C28.0999 11.3999 27.4999 11.6999 26.7999 11.6999C26.2999 11.6999 25.7999 11.5999 25.4999 11.3999" stroke="#0075A6" stroke-miterlimit="10" stroke-linecap="round" stroke-linejoin="round"/>
<path d="M55.4998 9.2998H57.0997" stroke="#0075A6" stroke-miterlimit="10" stroke-linecap="round" stroke-linejoin="round"/>
<path d="M55.4998 11.6999V6.8999" stroke="#0075A6" stroke-miterlimit="10" stroke-linecap="round" stroke-linejoin="round"/>
<path d="M53.5997 7.7999C53.3997 7.2999 52.7997 6.8999 52.0997 6.8999C51.1997 6.8999 50.4998 7.4999 50.4998 8.1999V10.3999C50.4998 11.0999 51.1997 11.6999 52.0997 11.6999C52.7997 11.6999 53.3997 11.2999 53.5997 10.7999" stroke="#0075A6" stroke-miterlimit="10" stroke-linecap="round" stroke-linejoin="round"/>
<path d="M39.9998 11.6999L41.8998 6.8999L43.7997 11.6999" stroke="#0075A6" stroke-miterlimit="10" stroke-linecap="round" stroke-linejoin="round"/>
<path d="M43.0998 10.5999H40.7998" stroke="#0075A6" stroke-miterlimit="10" stroke-linecap="round" stroke-linejoin="round"/>
<path d="M20.0999 11.6999V6.8999" stroke="#0075A6" stroke-miterlimit="10" stroke-linecap="round" stroke-linejoin="round"/>
<path d="M23.4001 11.6999V6.8999" stroke="#0075A6" stroke-miterlimit="10" stroke-linecap="round" stroke-linejoin="round"/>
<path d="M23.3999 11.6999L20.0999 6.8999" stroke="#0075A6" stroke-miterlimit="10" stroke-linecap="round" stroke-linejoin="round"/>
<path d="M45.3999 11.6999V6.8999" stroke="#0075A6" stroke-miterlimit="10" stroke-linecap="round" stroke-linejoin="round"/>
<path d="M48.6001 11.6999V6.8999" stroke="#0075A6" stroke-miterlimit="10" stroke-linecap="round" stroke-linejoin="round"/>
<path d="M48.5999 11.6999L45.3999 6.8999" stroke="#0075A6" stroke-miterlimit="10" stroke-linecap="round" stroke-linejoin="round"/>
<path d="M55.4998 11.7H58.6998" stroke="#0075A6" stroke-miterlimit="10" stroke-linecap="round" stroke-linejoin="round"/>
<path d="M55.4998 6.8999H58.6998" stroke="#0075A6" stroke-miterlimit="10" stroke-linecap="round" stroke-linejoin="round"/>
<path d="M50.9001 66C39.6001 60.9 34.6001 50.1 34.0001 43.5C33.5001 37.4 33.2001 30.2 33.5001 21.4C39.5001 21.1 45.2001 19.7 50.9001 17.7C56.6001 19.7 62.3001 21.1 68.3001 21.4C68.5001 30.1 68.3001 37.4 67.8001 43.5C67.2001 50.1 62.2001 60.9 50.9001 66Z" stroke="white" stroke-width="3.1924" stroke-miterlimit="10" stroke-linecap="round" stroke-linejoin="round"/>
<path fill-rule="evenodd" clip-rule="evenodd" d="M50.9001 66C39.6001 60.9 34.6001 50.1 34.0001 43.5C33.5001 37.4 33.2001 30.2 33.5001 21.4C39.5001 21.1 45.2001 19.7 50.9001 17.7C56.6001 19.7 62.3001 21.1 68.3001 21.4C68.5001 30.1 68.3001 37.4 67.8001 43.5C67.2001 50.1 62.2001 60.9 50.9001 66Z" fill="#00A2E5"/>
<path fill-rule="evenodd" clip-rule="evenodd" d="M34.2002 44.8C34.2002 44.4 34.1002 43.9 34.1002 43.6C33.6002 37.5 33.3002 30.3 33.6002 21.5C39.6002 21.2 45.3002 19.8 51.0002 17.8C56.7002 19.8 62.4002 21.2 68.4002 21.5C68.6002 30.2 68.4002 37.5 67.9002 43.6C67.9002 44 67.8002 44.4 67.8002 44.8C63.6002 46.3 57.7002 47.2 51.1002 47.2C44.3002 47.1 38.4002 46.2 34.2002 44.8Z" fill="#85DBF6"/>
<path fill-rule="evenodd" clip-rule="evenodd" d="M62.8001 47.1C63.4001 45.5 63.8001 44 63.8001 42.5C64.3001 36.5 64.3001 30.7 64.3001 26.2C58.6001 25.9 57.0001 25.7 50.9001 24.7C44.8001 25.7 43.1001 25.9 37.4001 26.2C37.4001 30.7 37.4001 36.5 37.9001 42.5C38.0001 43.9 38.4001 45.5 38.9001 47.1C41.7001 48.8 46.0001 49.9 50.8001 49.9C55.7001 49.9 60.0001 48.8 62.8001 47.1Z" fill="#85DBF6"/>
<path d="M58 37.0999H53V32.0999H49V37.0999H44V41.0999H49V46.0999H53V41.0999H58V37.0999Z" fill="#0075A6"/>
<path d="M50.9001 66C39.6001 60.9 34.6001 50.1 34.0001 43.5C33.5001 37.4 33.2001 30.2 33.5001 21.4C39.5001 21.1 45.2001 19.7 50.9001 17.7C56.6001 19.7 62.3001 21.1 68.3001 21.4C68.5001 30.1 68.3001 37.4 67.8001 43.5C67.2001 50.1 62.2001 60.9 50.9001 66Z" stroke="#0075A6" stroke-width="1.5724" stroke-miterlimit="10" stroke-linecap="round" stroke-linejoin="round"/>
<path d="M50.9 61.7999C57.3 59.0999 63.3 49.1999 63.9 42.5999C64.4 36.5999 64.4 30.7999 64.4 26.2999C58.7 25.9999 57.1 25.4999 51 23.3999C44.9 25.4999 43.2 25.9999 37.5 26.2999C37.5 30.7999 37.5 36.5999 38 42.5999C38.6 49.0999 44.5 59.0999 50.9 61.7999Z" stroke="white" stroke-width="0.81" stroke-miterlimit="10" stroke-linecap="round" stroke-linejoin="round"/>
</svg>
