<svg width="82" height="81" viewBox="0 0 82 81" fill="none" xmlns="http://www.w3.org/2000/svg">
<path d="M41.6 0.900062C63.4 1.20006 80.8001 19.3001 80.4001 41.1001C80.0001 62.9001 62.0001 80.3001 40.2001 79.9001C18.4001 79.5001 1.00007 61.5001 1.40007 39.7001C1.80007 18.0001 19.8 0.600062 41.6 0.900062Z" stroke="#0075A6" stroke-width="1.6151" stroke-miterlimit="10" stroke-linecap="round" stroke-linejoin="round"/>
<path d="M27.6001 17.5V10.3" stroke="#0075A6" stroke-width="1.6151" stroke-miterlimit="10" stroke-linecap="round" stroke-linejoin="round"/>
<path d="M27.6001 10.3H30.4001C31.5001 10.3 32.4001 11.3 32.4001 12.3C32.4001 13.4 31.4001 14.3001 30.4001 14.3001H28.4001" stroke="#0075A6" stroke-width="1.6151" stroke-miterlimit="10" stroke-linecap="round" stroke-linejoin="round"/>
<path d="M30.8 14.3L32.5001 17.5" stroke="#0075A6" stroke-width="1.6151" stroke-miterlimit="10" stroke-linecap="round" stroke-linejoin="round"/>
<path d="M52.7002 17.5V10.3" stroke="#0075A6" stroke-width="1.6151" stroke-miterlimit="10" stroke-linecap="round" stroke-linejoin="round"/>
<path d="M50.2002 10.3H55.0002" stroke="#0075A6" stroke-width="1.6151" stroke-miterlimit="10" stroke-linecap="round" stroke-linejoin="round"/>
<path d="M35.1001 17.5V10.3" stroke="#0075A6" stroke-width="1.6151" stroke-miterlimit="10" stroke-linecap="round" stroke-linejoin="round"/>
<path d="M35.1001 13.8H37.5001" stroke="#0075A6" stroke-width="1.6151" stroke-miterlimit="10" stroke-linecap="round" stroke-linejoin="round"/>
<path d="M35.1001 10.3H40.0001" stroke="#0075A6" stroke-width="1.6151" stroke-miterlimit="10" stroke-linecap="round" stroke-linejoin="round"/>
<path d="M35.1001 17.5H40.0001" stroke="#0075A6" stroke-width="1.6151" stroke-miterlimit="10" stroke-linecap="round" stroke-linejoin="round"/>
<path d="M42.7002 17.5V10.3" stroke="#0075A6" stroke-width="1.6151" stroke-miterlimit="10" stroke-linecap="round" stroke-linejoin="round"/>
<path d="M47.5 17.5V10.3" stroke="#0075A6" stroke-width="1.6151" stroke-miterlimit="10" stroke-linecap="round" stroke-linejoin="round"/>
<path d="M47.5002 17.5L42.7002 10.3" stroke="#0075A6" stroke-width="1.6151" stroke-miterlimit="10" stroke-linecap="round" stroke-linejoin="round"/>
<path d="M77.3001 37.3C77.2001 37.5 77.0001 38.2 76.4001 38.3C75.8001 38.4 71.0001 38.5 71.0001 38.5L70.9001 38.7C72.0001 40 74.4001 43.1 74.9001 44.8L77.0001 46.2C77.4001 46.5 77.8001 47 77.6001 47.5C77.6001 48.8 77.4001 51.7 77.3001 54.8C77.3001 55.2 77.3001 55.7 77.4001 56.1C77.7001 61.7 78.0001 69.6 76.8001 73C76.7001 73.3 76.4001 73.6 76.0001 73.9C75.7001 74.1 75.4001 74.2 74.8001 74.3C73.6001 74.5 69.1001 74.4 69.1001 74.4C69.1001 74.4 66.5001 74.4 66.5001 72.3C66.5001 71.8 66.5001 71.2 66.5001 70.5C65.4001 70.5 64.6001 70.5 64.6001 70.5C64.6001 70.5 62.0001 70.5 62.0001 68.4V68C61.4001 68 60.8001 68 60.5001 68C56.2001 68 42.7001 67.8 42.7001 67.8H41.3001H39.8001C39.8001 67.8 26.3001 68 22.0001 68C21.7001 68 21.0001 68 20.5001 68V68.3C20.4001 70.4 17.8001 70.4 17.8001 70.4C17.8001 70.4 16.9001 70.4 15.9001 70.4C15.9001 71.2 15.9001 71.7 15.9001 72.2C15.9001 74.3 13.3001 74.3 13.3001 74.3C13.3001 74.3 8.70006 74.4 7.60006 74.2C7.10006 74.1 6.70011 74 6.40011 73.8C6.10011 73.6 5.90006 73.3 5.60006 72.9C4.30006 69.5 4.60008 61.5 5.00008 56C5.00008 55.6 5.00006 55.2 5.10006 54.8C4.90006 51.7 4.80009 48.7 4.70009 47.4C4.70009 46.9 4.90007 46.4 5.30007 46.1L7.40011 44.7C7.80011 43 10.3001 39.8 11.4001 38.6L11.3001 38.5C11.3001 38.5 6.60008 38.4 6.00008 38.3C5.60008 38.2 5.20006 37.5 5.10006 37.3C4.90006 37.2 4.70009 37 4.70009 36.7C4.80009 35.6 5.50008 33.5 7.50008 33.2C9.30008 32.9 10.7001 33 11.4001 33.1C11.7001 33.1 11.9001 33.4 11.9001 33.7C12.0001 34.7 12.0001 35.7 11.8001 36.5C11.9001 36.4 12.1001 36.3 12.1001 36.2C12.2001 36.1 12.3001 35.9 12.5001 35.9H12.6001C14.1001 32.8 16.7001 27.7 19.2001 26.1C22.6001 23.8 39.8001 24.1 40.9001 24.1C42.0001 24.1 59.3001 23.9 62.6001 26.1C65.0001 27.7 67.7001 32.8 69.2001 35.9H69.4001C69.6001 35.9 69.7001 36.1 69.8001 36.2C69.9001 36.3 70.0001 36.5 70.1001 36.5C70.0001 35.7 70.0001 34.7 70.1001 33.7C70.2001 33.4 70.3001 33.1 70.6001 33.1C71.4001 33 72.6001 32.9 74.6001 33.2C76.7001 33.5 77.3001 35.7 77.4001 36.7C77.7001 36.9 77.5001 37.2 77.3001 37.3Z" stroke="white" stroke-width="3.23" stroke-miterlimit="10" stroke-linecap="round" stroke-linejoin="round"/>
<path d="M77.1001 37.3001C77.4001 37.3001 77.7001 37 77.6001 36.5C77.5001 35.4 76.8001 33.3 74.8001 33C73.0001 32.7 71.6001 32.8 70.8001 32.9C70.5001 32.9 70.3001 33.2 70.3001 33.5C70.1001 35 70.3002 36.8 70.7002 37C71.3002 37.4 75.6001 37.4001 77.1001 37.3001Z" fill="#85DBF6" stroke="#0075A6" stroke-width="0.7923" stroke-miterlimit="10" stroke-linecap="round" stroke-linejoin="round"/>
<path d="M5.39999 37.3001C5.09999 37.3001 4.79999 37 4.89999 36.5C4.99999 35.4 5.69997 33.3 7.69997 33C9.49997 32.7 10.8999 32.8 11.5999 32.9C11.8999 32.9 12.0999 33.2 12.0999 33.5C12.1999 35 12.1 36.8 11.7 37C11.2 37.4 6.89999 37.4001 5.39999 37.3001Z" fill="#85DBF6" stroke="#0075A6" stroke-width="0.7923" stroke-miterlimit="10" stroke-linecap="round" stroke-linejoin="round"/>
<path d="M71.7001 47.3001C71.7001 47.3001 72.7001 46.3001 73.0001 52.1001C73.2001 57.7001 73.6001 65.6001 72.2001 69.0001C72.1001 69.3001 71.8001 69.6001 71.4001 69.9001C71.1001 70.1001 70.8001 70.2001 70.2001 70.3001C69.0001 70.5001 64.5001 70.4001 64.5001 70.4001C64.5001 70.4001 61.9001 70.4001 61.9001 68.3001C61.9001 66.6001 61.9001 62.7001 61.9001 62.7001L71.7001 47.3001Z" fill="#263138"/>
<path d="M71.7001 47.3001C71.7001 47.3001 72.7001 46.3001 73.0001 52.1001C73.2001 57.7001 73.6001 65.6001 72.2001 69.0001C72.1001 69.3001 71.8001 69.6001 71.4001 69.9001C71.1001 70.1001 70.8001 70.2001 70.2001 70.3001C69.0001 70.5001 64.5001 70.4001 64.5001 70.4001C64.5001 70.4001 61.9001 70.4001 61.9001 68.3001C61.9001 66.6001 61.9001 62.7001 61.9001 62.7001L71.7001 47.3001Z" fill="#00A2E5" stroke="#0075A6" stroke-width="1.6151" stroke-miterlimit="10" stroke-linecap="round" stroke-linejoin="round"/>
<path d="M10.7001 47.3001C10.7001 47.3001 9.70012 46.3001 9.40012 52.1001C9.20012 57.7001 8.80011 65.6001 10.2001 69.0001C10.3001 69.3001 10.6001 69.6001 11.0001 69.9001C11.3001 70.1001 11.6001 70.2001 12.2001 70.3001C13.4001 70.5001 17.9001 70.4001 17.9001 70.4001C17.9001 70.4001 20.5001 70.4001 20.6001 68.3001C20.6001 66.6001 20.6001 62.7001 20.6001 62.7001L10.7001 47.3001Z" fill="#263138"/>
<path d="M10.7001 47.3001C10.7001 47.3001 9.70012 46.3001 9.40012 52.1001C9.20012 57.7001 8.80011 65.6001 10.2001 69.0001C10.3001 69.3001 10.6001 69.6001 11.0001 69.9001C11.3001 70.1001 11.6001 70.2001 12.2001 70.3001C13.4001 70.5001 17.9001 70.4001 17.9001 70.4001C17.9001 70.4001 20.5001 70.4001 20.6001 68.3001C20.6001 66.6001 20.6001 62.7001 20.6001 62.7001L10.7001 47.3001Z" fill="#00A2E5" stroke="#0075A6" stroke-width="1.6151" stroke-miterlimit="10" stroke-linecap="round" stroke-linejoin="round"/>
<path d="M6.20004 51.2C6.20004 51.2 5.20003 50.2 5.00003 56C4.70003 61.6 4.4 69.5 5.6 72.9C5.7 73.2 6.00005 73.5 6.40005 73.8C6.70005 74 7 74.1 7.6 74.2C8.8 74.4 13.3 74.3 13.3 74.3C13.3 74.3 15.9001 74.3 15.9001 72.2C15.9001 70.5 15.9001 66.6 15.9001 66.6L6.20004 51.2Z" fill="#00A2E5" stroke="#0075A6" stroke-width="1.6151" stroke-miterlimit="10" stroke-linecap="round" stroke-linejoin="round"/>
<path d="M76.3002 51.2C76.3002 51.2 77.3002 50.2 77.5002 56C77.8002 61.6 78.1002 69.5 76.9002 72.9C76.8002 73.2 76.5002 73.5 76.1002 73.8C75.9002 74 75.5002 74.1 75.0002 74.2C73.8002 74.4 69.3002 74.3 69.3002 74.3C69.3002 74.3 66.7002 74.3 66.7002 72.2C66.7002 70.5 66.7002 66.6 66.7002 66.6L76.3002 51.2Z" fill="#00A2E5" stroke="#0075A6" stroke-width="1.6151" stroke-miterlimit="10" stroke-linecap="round" stroke-linejoin="round"/>
<path d="M41.3 23.9C42.4 23.9 59.7001 23.7 63.0001 25.9C66.5001 28.3 70.6 38 70.6 38C70.6 38 74.6001 42.5 75.0001 44.7L77.2001 46.1C77.6001 46.4 78 46.9 77.8 47.4C77.7001 51.1 76.9 65.6 75.8 67.2C74.6001 68.8 63.5001 68 60.5001 68C56.2001 68 42.7001 67.8 42.7001 67.8H41.3H39.9001C39.9001 67.8 26.4 68 22.1 68C19.1 68 8.00005 68.9 6.80005 67.2C5.50005 65.6 4.90005 51.1 4.80005 47.4C4.80005 46.9 5.00009 46.4 5.40009 46.1L7.50006 44.7C8.00006 42.6 11.9001 38 11.9001 38C11.9001 38 16.0001 28.1 19.5001 25.9C22.9001 23.7 40.1 23.9 41.3 23.9Z" fill="white" stroke="#0075A6" stroke-width="1.6151" stroke-miterlimit="10" stroke-linecap="round" stroke-linejoin="round"/>
<path d="M41.3 55.9H41.2001C37.0001 55.8 32.8001 55.5 28.7001 54.9C27.3001 54.8 25.8 54.5 24.8 53.5L41.1 53.8H41.3H41.5001L57.8 53.5C56.8 54.6 55.3001 54.8 53.9001 54.9C49.8001 55.4 45.6001 55.8 41.4001 55.9H41.3Z" fill="#00A2E5"/>
<path d="M23.3001 46C26.7001 45.5 34.1001 45.2 41.3001 45.2C48.5001 45.2 55.8001 45.4 59.3001 46C60.4001 46.1 61.1001 47.3 60.8001 48.3C60.5001 49.6 59.0001 53.6 56.6001 54.1C55.5001 54.4 49.3001 54.6 42.6001 54.7C42.2001 54.7 41.7001 54.7 41.3001 54.7C40.9001 54.7 40.4001 54.7 40.1001 54.7C33.4001 54.6 27.2001 54.4 26.1001 54.1C23.7001 53.6 22.2001 49.5 21.8001 48.3C21.5001 47.3 22.1001 46.3 23.3001 46Z" fill="#00A2E5" stroke="#0075A6" stroke-width="0.7923" stroke-miterlimit="10" stroke-linecap="round" stroke-linejoin="round"/>
<path d="M22.2002 49.1001C22.2002 49.1001 30.7002 49.1001 41.2002 49.1001C51.7002 49.1001 60.2002 49.1001 60.2002 49.1001" stroke="#0075A6" stroke-width="0.7923" stroke-miterlimit="10" stroke-linecap="round" stroke-linejoin="round"/>
<path d="M23.2002 51C23.2002 51 31.3002 51 41.3002 51C51.3002 51 59.4002 51 59.4002 51" stroke="#0075A6" stroke-width="0.7923" stroke-miterlimit="10" stroke-linecap="round" stroke-linejoin="round"/>
<path d="M24.7002 53C24.7002 53 32.1002 53.1 41.1002 53.1C50.2002 53.1 57.5002 53.1 57.5002 53C57.5002 53 50.2002 53 41.1002 53C32.1002 53 24.7002 53 24.7002 53Z" fill="#445964" stroke="#0075A6" stroke-width="0.7923" stroke-miterlimit="10" stroke-linecap="round" stroke-linejoin="round"/>
<path d="M22.2002 47.1001C22.2002 47.1001 30.7002 47.1001 41.1002 47.1001C30.7002 47.0001 22.2002 47.0001 22.2002 47.1001Z" fill="#445964"/>
<path d="M41.1002 47.1001C30.7002 47.1001 22.2002 47.1001 22.2002 47.1001C22.2002 47.0001 30.7002 47.0001 41.1002 47.1001ZM41.1002 47.1001C51.6002 47.1001 60.1002 47.1001 60.1002 47.1001" stroke="#0075A6" stroke-width="0.7923" stroke-miterlimit="10" stroke-linecap="round" stroke-linejoin="round"/>
<path d="M58.1001 64.9001C58.1001 64.9001 50.5001 64.9001 41.1001 64.9001C50.6001 65.0001 58.1001 65.0001 58.1001 64.9001Z" fill="#445964"/>
<path d="M41.1001 64.9001C50.5001 64.9001 58.1001 64.9001 58.1001 64.9001C58.1001 65.0001 50.6001 65.0001 41.1001 64.9001ZM41.1001 64.9001C31.7001 64.9001 24.1001 64.9001 24.1001 64.9001" stroke="#0075A6" stroke-width="0.7923" stroke-miterlimit="10" stroke-linecap="round" stroke-linejoin="round"/>
<path d="M21.2002 65.5001C24.6002 62.3001 26.3002 60.4001 28.0002 59.6001C29.3002 59.0001 35.1002 58.6001 41.1002 58.6001H41.3002C47.3002 58.6001 53.3002 58.9001 54.6002 59.6001M54.6002 59.6001C56.3002 60.5001 57.9002 62.3001 61.4002 65.5001C58.0002 62.3001 56.3002 60.4001 54.6002 59.6001Z" stroke="#0075A6" stroke-width="0.7923" stroke-miterlimit="10" stroke-linecap="round" stroke-linejoin="round"/>
<path d="M73.8 66C73.7 65.8 73.5 65.7 73.2 65.7C72.2 65.8 62.3 66 60.9 65.7C59.5 65.4 54.9999 60.2 53.0999 59.9C51.4999 59.6 43.6 59.5 41.2 59.6C38.7 59.5 30.9 59.7 29.3 59.9C27.4 60.2 22.9 65.4 21.5 65.7C20.1 66 10.2 65.8 9.19998 65.7C8.89998 65.7 8.69995 65.8 8.59995 66C8.49995 66.3 8.69995 66.8 9.09995 66.8C11.1999 66.9 19.2999 66.7 21.0999 66.7C34.3999 66.5 48 66.5 61.3 66.7C63 66.7 71.2 66.9 73.3 66.8C73.7 66.9 74.1 66.5 73.8 66Z" fill="#00A2E5"/>
<path d="M62.2 60.7C62.2 60.7 61.7 59.8 62.2 59.6C62.7 59.4 72.6 58.2 73.1 58.1C73.9 58 74.2 58.4 74.4 59.3C74.6 60.3 74.9 62.6 74.2 63.3C73.4 63.9 72.2 64.3 69.8 64.4C67.3 64.5 66 64.6 64.9 64C63.5 63.2 62.2 60.7 62.2 60.7Z" fill="#00A2E5" stroke="#0075A6" stroke-width="0.7923" stroke-miterlimit="10" stroke-linecap="round" stroke-linejoin="round"/>
<path d="M20.3001 60.7C20.3001 60.7 20.8001 59.8 20.3001 59.6C19.8001 59.4 9.90013 58.2 9.40013 58.1C8.60013 58 8.30008 58.4 8.10008 59.3C7.90008 60.3 7.6001 62.6 8.3001 63.3C9.1001 63.9 10.3001 64.3 12.8001 64.4C15.3001 64.5 16.6001 64.6 17.7001 64C18.9001 63.2 20.3001 60.7 20.3001 60.7Z" fill="#00A2E5" stroke="#0075A6" stroke-width="0.7923" stroke-miterlimit="10" stroke-linecap="round" stroke-linejoin="round"/>
<path d="M40.8 44.5C40.9 44.5 41 44.5 41.1 44.5C41.2 44.5 41.5001 44.5 41.9001 44.5C42.5001 44.5 43.4 44.5 44.6 44.5C46.9 44.5 50.0001 44.5 53.4001 44.5C55.1001 44.5 56.7001 44.5 58.2001 44.5C59.0001 44.5 59.7001 44.5 60.4001 44.5C60.7001 44.5 61.0001 44.5 61.4001 44.5C61.8001 44.5 62 44.6 62.3 44.7C62.7 45 63.2001 45.3 63.5001 45.7C63.7001 45.8 63.8001 46 64.0001 46.1C64.1001 46.2 64.3001 46.3001 64.5001 46.3001C64.7001 46.3001 64.8001 46.3001 64.9001 46.3001C65.0001 46.3001 65.1001 46.3001 65.2001 46.3001C65.3001 46.3001 65.3001 46.3001 65.4001 46.3001C65.4001 46.3001 65.3001 46.3001 65.2001 46.3001C65.1001 46.3001 65.0001 46.3001 64.9001 46.3001C64.8001 46.3001 64.6001 46.3001 64.5001 46.3001C64.4001 46.2001 64.2 46.2 64.1 46.1C64 46 63.8 45.9 63.6 45.7C63.3 45.4 62.8001 45.1 62.4001 44.7C62.2001 44.5 61.9001 44.4 61.5001 44.5C61.2001 44.5 60.9001 44.5 60.5001 44.5C59.9001 44.5 59.1001 44.5 58.4001 44.5C56.9001 44.5 55.3 44.5 53.6 44.5C50.2 44.5 47 44.5 44.8 44.5C43.7 44.5 42.8 44.5 42.1 44.5C41.8 44.5 41.6 44.5 41.3 44.5C41.1 44.4 41.1 44.4 40.8 44.5Z" fill="#263138"/>
<path d="M64.5001 46.3001C64.3001 46.3001 64.1001 46.2 64.0001 46.1C63.8001 46 63.7001 45.8 63.5001 45.7C63.2001 45.3 62.7 45 62.3 44.7C62 44.6 61.8001 44.5 61.4001 44.5C61.0001 44.5 60.7001 44.5 60.4001 44.5C59.7001 44.5 59.0001 44.5 58.2001 44.5C56.7001 44.5 55.1001 44.5 53.4001 44.5C50.0001 44.5 46.9 44.5 44.6 44.5C43.4 44.5 42.5001 44.5 41.9001 44.5C41.5001 44.5 41.2 44.5 41.1 44.5C41 44.5 40.9 44.5 40.8 44.5C41.1 44.4 41.1 44.4 41.3 44.5C41.6 44.5 41.8 44.5 42.1 44.5C42.8 44.5 43.7 44.5 44.8 44.5C47 44.5 50.2 44.5 53.6 44.5C55.3 44.5 56.9001 44.5 58.4001 44.5C59.1001 44.5 59.9001 44.5 60.5001 44.5C60.9001 44.5 61.2001 44.5 61.5001 44.5C61.9001 44.4 62.2001 44.5 62.4001 44.7C62.8001 45.1 63.3 45.4 63.6 45.7C63.8 45.9 64 46 64.1 46.1C64.2 46.2 64.4001 46.2001 64.5001 46.3001ZM64.5001 46.3001C64.7001 46.3001 64.8001 46.3001 64.9001 46.3001M64.5001 46.3001C64.6001 46.3001 64.8001 46.3001 64.9001 46.3001M64.9001 46.3001C65.0001 46.3001 65.1001 46.3001 65.2001 46.3001M65.2001 46.3001C65.3001 46.3001 65.3001 46.3001 65.4001 46.3001M65.2001 46.3001C65.3001 46.3001 65.4001 46.3001 65.4001 46.3001M65.4001 46.3001C65.5001 46.3001 65.5001 46.3001 65.5001 46.3001" stroke="#0075A6" stroke-width="0.7923" stroke-miterlimit="10" stroke-linecap="round" stroke-linejoin="round"/>
<path d="M41.6001 44.5C41.5001 44.5 41.5001 44.5 41.4001 44.5C41.2001 44.5 41.0001 44.5 40.6001 44.5C40.0001 44.5 39.1001 44.5 37.9001 44.5C35.6001 44.5 32.5001 44.5 29.1001 44.5C27.4001 44.5 25.8001 44.5 24.2001 44.5C23.4001 44.5 22.7001 44.5 22.0001 44.5C21.7001 44.5 21.4001 44.5 21.0001 44.5C20.7001 44.5 20.4001 44.6 20.1001 44.7C19.7001 45 19.2001 45.5 18.9001 45.7C18.8001 45.8 18.6001 46 18.5001 46.1C18.4001 46.2 18.2001 46.3 18.1001 46.3C18.0001 46.3 17.8001 46.3 17.7001 46.3C17.6001 46.3 17.5001 46.3 17.4001 46.3C17.3001 46.3 17.3001 46.3 17.2001 46.3C17.2001 46.3 17.3001 46.3 17.4001 46.3C17.5001 46.3 17.6001 46.3 17.7001 46.3C17.8001 46.3 18.0001 46.3 18.1001 46.3C18.2001 46.3 18.4001 46.2 18.6001 46.1C18.7001 46 18.9001 45.9 19.0001 45.7C19.3001 45.4 19.8001 45.1 20.2001 44.7C20.4001 44.5 20.7001 44.4 21.1001 44.5C21.4001 44.5 21.7001 44.5 22.1001 44.5C22.7001 44.5 23.5001 44.5 24.2001 44.5C25.7001 44.5 27.3001 44.5 29.1001 44.5C32.5001 44.5 35.7001 44.5 37.9001 44.5C39.0001 44.5 39.9001 44.5 40.6001 44.5C41.1001 44.5 41.3001 44.5 41.6001 44.5C41.5001 44.5 41.4001 44.5 41.6001 44.5Z" fill="#263138"/>
<path d="M41.6001 44.5C41.5001 44.5 41.5001 44.5 41.4001 44.5C41.2001 44.5 41.0001 44.5 40.6001 44.5M41.6001 44.5C41.3001 44.5 41.1001 44.5 40.6001 44.5M41.6001 44.5C41.4001 44.5 41.5001 44.5 41.6001 44.5ZM40.6001 44.5C40.0001 44.5 39.1001 44.5 37.9001 44.5M40.6001 44.5C39.9001 44.5 39.0001 44.5 37.9001 44.5M37.9001 44.5C35.6001 44.5 32.5001 44.5 29.1001 44.5M37.9001 44.5C35.7001 44.5 32.5001 44.5 29.1001 44.5M29.1001 44.5C27.4001 44.5 25.8001 44.5 24.2001 44.5M29.1001 44.5C27.3001 44.5 25.7001 44.5 24.2001 44.5M24.2001 44.5C23.4001 44.5 22.7001 44.5 22.0001 44.5C21.7001 44.5 21.4001 44.5 21.0001 44.5C20.7001 44.5 20.4001 44.6 20.1001 44.7C19.7001 45 19.2001 45.5 18.9001 45.7C18.8001 45.8 18.6001 46 18.5001 46.1C18.4001 46.2 18.2001 46.3 18.1001 46.3M24.2001 44.5C23.5001 44.5 22.7001 44.5 22.1001 44.5C21.7001 44.5 21.4001 44.5 21.1001 44.5C20.7001 44.4 20.4001 44.5 20.2001 44.7C19.8001 45.1 19.3001 45.4 19.0001 45.7C18.9001 45.9 18.7001 46 18.6001 46.1C18.4001 46.2 18.2001 46.3 18.1001 46.3M18.1001 46.3C18.0001 46.3 17.8001 46.3 17.7001 46.3C17.6001 46.3 17.5001 46.3 17.4001 46.3M17.4001 46.3C17.3001 46.3 17.3001 46.3 17.2001 46.3M17.4001 46.3C17.3001 46.3 17.2001 46.3 17.2001 46.3M17.2001 46.3C17.1001 46.3 17.1001 46.3 17.1001 46.3" stroke="#0075A6" stroke-width="0.7923" stroke-miterlimit="10" stroke-linecap="round" stroke-linejoin="round"/>
<path d="M20.4003 26.6001C20.5003 26.5001 20.6003 26.4001 20.8003 26.3001L40.9003 25.4001H41.0003L61.5003 26.3001C61.7003 26.3001 61.8003 26.4001 61.9003 26.6001L67.1003 35.7001C67.3003 36.0001 67.1003 36.5001 66.8003 36.5001C66.3003 36.5001 65.4003 36.5001 64.3003 36.5001C62.7003 36.4001 49.9003 36.5001 43.1003 36.5001C43.1003 36.5001 42.3003 36.5001 41.1003 36.5001C39.8003 36.5001 39.1003 36.5001 39.1003 36.5001C32.3003 36.5001 19.5003 36.5001 17.9003 36.5001C16.8003 36.5001 16.0003 36.5001 15.4003 36.5001C15.1003 36.5001 14.9003 36.2001 15.1003 35.9001L20.4003 26.6001Z" fill="#85DBF6"/>
<path d="M49.3 34.5001C49.3 33.6001 49.6001 31.2001 50.4001 30.5001C51.0001 30.0001 52.6001 29.9001 53.2001 29.9001H53.3C53.7 29.9001 56.2 30.0001 57.1 30.5001C57.9 31.1001 58.2001 33.6001 58.2001 34.5001C58.2001 35.0001 57.8001 35.5001 57.2001 35.5001H54.0001H53.6H50.4001C49.8001 35.5001 49.3 35.1001 49.3 34.5001Z" fill="#00A2E5" stroke="#0075A6" stroke-width="0.7923" stroke-miterlimit="10" stroke-linecap="round" stroke-linejoin="round"/>
<path d="M39.1002 36.5001L67.3002 36.4001C67.3002 36.4001 66.1002 37.8001 64.0002 37.8001C62.1002 37.8001 43.0002 37.8001 39.7002 37.8001C39.7002 37.8001 39.6002 37.8001 39.5002 37.8001C39.3002 37.8001 39.2002 37.8001 39.2002 37.8001C36.1002 37.8001 19.7002 37.8001 18.0002 37.8001C16.2002 37.8001 15.2002 36.5001 15.2002 36.5001H39.1002Z" fill="#85DBF6"/>
<path d="M33.1002 34.5001C33.1002 33.6001 32.8002 31.2001 31.9002 30.5001C31.3002 30.0001 29.9002 29.9001 29.1002 29.9001H29.0002C28.7002 29.9001 26.1002 30.0001 25.3002 30.5001C24.5002 31.1001 24.2002 33.6001 24.2002 34.5001C24.2002 35.0001 24.6002 35.5001 25.2002 35.5001H28.4002H28.8002H32.0002C32.7002 35.5001 33.1002 35.1001 33.1002 34.5001Z" fill="#00A2E5" stroke="#0075A6" stroke-width="0.7923" stroke-miterlimit="10" stroke-linecap="round" stroke-linejoin="round"/>
<path d="M38.4001 28.1001C38.3001 28.1001 38.1001 28.2001 38.0001 28.3001C37.7001 28.6001 37.1001 29.5001 37.1001 29.7001C37.1001 30.0001 37.3001 30.2001 37.6001 30.3001C37.9001 30.3001 44.0001 30.3001 44.6001 30.3001C44.7001 30.3001 44.7001 30.3001 44.7001 30.3001C44.9001 30.2001 45.3001 30.1001 45.2001 29.8001C45.2001 29.6001 44.7001 28.7001 44.4001 28.3001C44.3001 28.2001 44.2001 28.1001 44.0001 28.1001H38.4001Z" fill="#00A2E5" stroke="#0075A6" stroke-width="0.7923" stroke-miterlimit="10" stroke-linecap="round" stroke-linejoin="round"/>
<path d="M41.5001 27H41.1001V28.2H41.5001V27Z" fill="#263138" stroke="#0075A6" stroke-width="0.7923" stroke-miterlimit="10" stroke-linecap="round" stroke-linejoin="round"/>
<path d="M62.7002 25.8C62.7002 25.9 62.8002 25.9 62.8002 25.9C62.9002 26 62.9002 26.1 63.0002 26.3C63.2002 26.6 63.4002 27.2 63.8002 27.7C64.4002 28.9 65.3002 30.5 66.4002 32.3C67.2002 33.8 67.9002 35.1 68.5002 36.2C69.3002 36.7 69.8002 37.2 70.2002 37.5C70.4002 37.6 70.5002 37.8 70.7002 37.8L70.8002 37.9C70.8002 37.9 70.8002 37.9 70.8002 37.8C70.8002 37.8 70.7002 37.8 70.7002 37.7C70.6002 37.6 70.4002 37.5 70.3002 37.4C69.9002 37.1 69.3002 36.6 68.6002 36C68.0002 34.9 67.2002 33.5 66.4002 32.1C65.4002 30.3 64.5002 28.7 63.8002 27.5C63.5002 27 63.2002 26.4 63.0002 26.1C62.9002 26 62.9002 25.8 62.8002 25.8C62.7002 25.9 62.7002 25.8 62.7002 25.8Z" fill="#263138" stroke="#0075A6" stroke-width="0.7923" stroke-miterlimit="10" stroke-linecap="round" stroke-linejoin="round"/>
<path d="M19.9001 25.8C19.8001 25.9 19.8 25.9 19.8 25.9C19.7 26 19.7 26.1 19.6 26.2C19.4 26.5 19.2 27.1 18.8 27.6C18.2 28.8 17.3001 30.4 16.2001 32.2C15.3001 33.7 14.7 35 14.1 36.1C13.3 36.6 12.8001 37.2 12.4001 37.5C12.2001 37.6 12.1001 37.8 12.0001 37.8C11.9001 37.9 11.9001 37.9 11.9001 37.9L11.8 38C11.8 38 11.8001 38 11.9001 38L12.0001 37.9C12.1001 37.8 12.3001 37.7 12.5001 37.6C12.9001 37.3 13.5001 36.8 14.2001 36.3C14.8001 35.2 15.5001 33.8 16.4001 32.4C17.4001 30.6 18.3001 29 19.0001 27.8C19.3001 27.3 19.5 26.7 19.8 26.4C19.9 26.2 19.9001 26.1 20.0001 26C19.8001 25.9 19.9001 25.8 19.9001 25.8Z" fill="#263138" stroke="#0075A6" stroke-width="0.7923" stroke-miterlimit="10" stroke-linecap="round" stroke-linejoin="round"/>
<path d="M15.0999 35.8L20.4 26.6C20.5 26.5 20.5999 26.4 20.7999 26.4L39.0999 25.6L40.7999 25.5C40.9999 25.5 41.2 25.5 41.4 25.5L43.0999 25.6L61.4 26.4C61.6 26.4 61.6999 26.5 61.7999 26.6L67.0999 35.8C67.2999 36.1 67.0999 36.4 66.7999 36.6C66.6999 36.6 66.6999 36.6 66.5999 36.6C66.1999 36.7 47.6 36.6 41 36.6C34.6 36.6 16 36.7 15.5 36.6C15.4 36.6 15.2999 36.6 15.2999 36.6C15.0999 36.5 14.8999 36.2 15.0999 35.8ZM17.5999 35.4L41.2 35.6L64.7999 35.4C65.0999 35.4 65.4 35 65.2 34.6C64.1 32.9 61.7 28.5 61.2 27.9C60.4 26.9 48.8999 26.8 42.7999 26.8H42.7C42.4 26.8 41.7999 26.8 41.0999 26.8C40.4999 26.8 39.9 26.8 39.5 26.8H39.4C33.3 26.8 21.8 26.9 21 27.9C20.6 28.4 18.1 32.8 17 34.6C17 35.1 17.1999 35.4 17.5999 35.4Z" fill="#00A2E5"/>
<path d="M75.1001 49.3001C75.1001 49.3001 75.9001 51.7001 71.0001 52.7001H70.9001C70.9001 52.8001 68.2001 53.6001 64.9001 54.4001C61.6001 55.2001 58.9001 55.8001 58.9001 55.7001C58.9001 55.7001 58.9001 55.7001 59.0001 55.6001L62.9001 52.8001C62.9001 52.8001 74.2001 51.0001 74.4001 49.3001C74.7001 47.4001 74.4001 45.1001 74.4001 45.1001L75.1001 49.3001Z" fill="#00A2E5"/>
<path d="M66.7001 49.6001C66.1001 49.6001 65.5001 49.9001 65.3001 50.5001C65.2001 50.3001 65.1001 50.0001 65.1001 49.7001C65.1001 48.7001 65.9001 48.1001 66.7001 48.1001C67.5001 48.1001 68.3001 48.9001 68.3001 49.7001C68.3001 50.0001 68.2001 50.2001 68.1001 50.5001C67.9001 49.9001 67.3001 49.6001 66.7001 49.6001Z" fill="#85DBF6"/>
<path d="M71.6001 48.0001C70.8001 48.0001 70.1001 48.4001 69.8001 49.1001C69.7001 48.8001 69.6001 48.5001 69.6001 48.1001C69.6001 46.9001 70.6001 46.1001 71.6001 46.1001C72.7001 46.1001 73.6001 47.1001 73.6001 48.1001C73.6001 48.4001 73.5001 48.9001 73.4001 49.1001C73.1001 48.4001 72.4001 48.0001 71.6001 48.0001Z" fill="#85DBF6"/>
<path d="M65.1001 49.7001C65.1001 50.7001 65.9001 51.3001 66.7001 51.3001C67.5001 51.3001 68.3001 50.5001 68.3001 49.7001C68.3001 48.7001 67.5001 48.1001 66.7001 48.1001C65.8001 48.0001 65.1001 48.7001 65.1001 49.7001Z" stroke="#0075A6" stroke-width="0.7923" stroke-miterlimit="10" stroke-linecap="round" stroke-linejoin="round"/>
<path d="M71.6002 50.1001C72.7002 50.1001 73.6002 49.1001 73.6002 48.1001C73.6002 47.1001 72.6002 46.1001 71.6002 46.1001C70.4002 46.1001 69.6002 47.1001 69.6002 48.1001C69.5002 49.2001 70.5002 50.1001 71.6002 50.1001Z" stroke="#0075A6" stroke-width="0.7923" stroke-miterlimit="10" stroke-linecap="round" stroke-linejoin="round"/>
<path d="M7.40004 49.3001C7.40004 49.3001 6.60002 51.7001 11.5 52.7001H11.6C11.6 52.8001 14.3 53.6001 17.6 54.4001C20.9 55.3001 23.6 55.8001 23.6 55.7001C23.6 55.7001 23.6 55.7001 23.5 55.6001L19.7 52.8001C19.7 52.8001 8.40003 51.0001 8.20003 49.3001C7.90003 47.4001 8.20003 45.1001 8.20003 45.1001L7.40004 49.3001Z" fill="#00A2E5"/>
<path d="M15.8002 49.6001C16.4002 49.6001 17.0002 49.9001 17.2002 50.5001C17.3002 50.3001 17.4002 50.0001 17.4002 49.7001C17.4002 48.7001 16.6002 48.1001 15.8002 48.1001C14.8002 48.1001 14.2002 48.9001 14.2002 49.7001C14.2002 50.0001 14.3002 50.2001 14.4002 50.5001C14.6002 49.9001 15.1002 49.6001 15.8002 49.6001Z" fill="#85DBF6"/>
<path d="M10.8001 48.0001C11.6001 48.0001 12.3001 48.4001 12.6001 49.1001C12.8001 48.8001 12.9001 48.5001 12.9001 48.1001C12.9001 46.9001 11.9001 46.1001 10.9001 46.1001C9.90015 46.1001 8.90015 47.1001 8.90015 48.1001C8.90015 48.4001 9.00013 48.9001 9.20013 49.1001C9.30013 48.4001 10.1001 48.0001 10.8001 48.0001Z" fill="#85DBF6"/>
<path d="M17.4002 49.7001C17.4002 50.7001 16.6002 51.3001 15.8002 51.3001C14.8002 51.3001 14.2002 50.5001 14.2002 49.7001C14.2002 48.7001 15.0002 48.1001 15.8002 48.1001C16.6002 48.0001 17.4002 48.7001 17.4002 49.7001Z" stroke="#0075A6" stroke-width="0.7923" stroke-miterlimit="10" stroke-linecap="round" stroke-linejoin="round"/>
<path d="M10.8 50.1001C11.9 50.1001 12.8 49.1001 12.8 48.1001C12.8 47.1001 11.8 46.1001 10.8 46.1001C9.70005 46.1001 8.80005 47.1001 8.80005 48.1001C8.80005 49.1001 9.70005 50.1001 10.8 50.1001Z" stroke="#0075A6" stroke-width="0.7923" stroke-miterlimit="10" stroke-linecap="round" stroke-linejoin="round"/>
<path d="M19.7998 52.9C19.7998 52.9 19.6998 52.6 19.4998 52.1C19.2998 51.6 18.9998 50.9 18.4998 50.1C18.2998 49.7 18.0998 49.2 17.6998 48.8C17.3998 48.3 17.1998 47.8 16.6998 47.3C16.4998 47.1 16.2998 46.8 16.0998 46.5C15.7998 46.3 15.5998 46.1 15.1998 46C14.8998 45.8 14.6998 45.7 14.2998 45.5C13.9998 45.3 13.6998 45.2 13.2998 45C12.6998 44.7 11.9999 44.4 11.3999 44.1C11.0999 44 10.7999 43.9 10.3999 43.9C10.0999 43.8 9.79985 43.8 9.39985 43.8C9.09985 43.8 8.79985 43.9 8.39985 44.1C7.99985 44.3 7.99985 44.6 7.89985 44.9C7.79985 45.2 7.79984 45.4 7.69984 45.7C7.59984 46 7.5998 46.2 7.5998 46.5C7.3998 47.5 7.29984 48.1 7.19984 48.6C7.09984 49.1 7.0998 49.4 7.0998 49.4C6.9998 49.9 7.19984 51.8 11.1998 52.6H11.3999C11.3999 52.7 14.0999 53.5 17.3999 54.3C20.6999 55.1 23.3999 55.7 23.3999 55.6C23.3999 55.6 23.3998 55.6 23.2998 55.5L19.7998 52.9Z" stroke="#0075A6" stroke-width="0.7923" stroke-miterlimit="10" stroke-linecap="round" stroke-linejoin="round"/>
<path d="M62.7 52.9C62.7 52.9 62.8 52.6 63 52.1C63.2 51.6 63.5 50.9 64 50.1C64.2 49.7 64.4 49.2 64.8 48.8C65.1 48.3 65.3 47.8 65.8 47.3C66 47.1 66.2 46.8 66.4 46.5C66.6 46.3 66.9 46.1 67.3 46C67.6 45.8 67.9 45.7 68.3 45.5C68.6 45.3 68.9 45.2 69.3 45C69.9 44.7 70.6 44.4 71.2 44.1C71.5 44 71.8 43.9 72.2 43.9C72.5 43.8 72.8 43.8 73.2 43.8C73.5 43.8 73.8 43.9 74.2 44.1C74.6 44.3 74.6 44.6 74.7 44.9C74.8 45.2 74.9 45.4 74.9 45.7C75 46 75 46.2 75 46.5C75.2 47.5 75.3 48.1 75.4 48.6C75.5 49.1 75.5 49.4 75.5 49.4C75.6 49.9 75.4 51.8 71.3 52.6H71C71 52.7 68.3 53.5 65 54.3C61.7 55.2 59 55.7 59 55.6C59 55.6 59 55.6 59.1 55.5L62.7 52.9Z" stroke="#0075A6" stroke-width="0.7923" stroke-miterlimit="10" stroke-linecap="round" stroke-linejoin="round"/>
</svg>
