<svg width="84" height="91" viewBox="0 0 84 91" fill="none" xmlns="http://www.w3.org/2000/svg">
<path d="M41.4001 10.2001C63.2001 10.5001 80.6001 28.6001 80.2001 50.4001C79.8001 72.2001 61.8001 89.6001 40.0001 89.2001C18.2001 88.8001 0.80012 70.8001 1.20012 49.0001C1.60012 27.3001 19.6001 9.90011 41.4001 10.2001Z" stroke="#0075A6" stroke-width="1.6151" stroke-miterlimit="10" stroke-linecap="round" stroke-linejoin="round"/>
<path d="M5.80029 71.9001C5.80029 62.6001 5.80029 53.5001 5.80029 44.2001C6.70029 42.9001 7.60032 42.8001 8.70032 44.0001C9.20032 44.5001 9.70032 45.1001 10.2003 45.7001C10.9003 44.9001 11.5003 44.4001 12.0003 43.8001C12.5003 43.3001 13.1003 43.1001 13.8003 43.4001C14.5003 43.7001 14.7003 44.3001 14.7003 45.0001C14.7003 46.8001 14.7003 48.5001 14.7003 50.3001C14.7003 50.9001 14.7003 51.5001 14.7003 52.2001C15.2003 52.2001 15.7003 52.2001 16.2003 52.2001C16.2003 51.9001 16.2003 51.7001 16.2003 51.4001C16.2003 49.3001 16.2003 47.2001 16.2003 45.1001C16.2003 44.4001 16.4003 43.8001 17.1003 43.5001C17.8003 43.2001 18.4003 43.5001 18.9003 44.0001C19.4003 44.6001 20.0003 45.1001 20.5003 45.7001C21.6003 44.9001 22.4003 44.2001 22.1003 42.8001C22.1003 42.6001 22.1003 42.5001 22.1003 42.3001C22.0003 41.5001 22.3003 40.9001 22.9003 40.3001C24.0003 39.3001 25.0003 38.3001 26.0003 37.3001C25.2003 36.8001 24.9003 36.2001 25.1003 35.5001C25.3003 34.9001 25.7003 34.5001 26.4003 34.4001C27.1003 34.3001 27.7003 34.7001 27.9003 35.3001C28.0003 35.7001 28.0003 36.1001 27.9003 36.5001C27.8003 36.9001 27.5003 37.2001 27.3003 37.4001C28.3003 38.3001 29.4003 39.3001 30.4003 40.5001C30.7003 40.8001 30.9003 41.4001 31.0003 41.9001C31.1003 42.3001 31.0003 42.8001 31.0003 43.2001C32.1003 43.2001 33.0003 43.2001 34.0003 43.2001C34.0003 42.9001 34.0003 42.6001 34.0003 42.3001C34.0003 37.4001 34.0003 32.4001 34.0003 27.5001C34.0003 26.4001 34.2003 25.5001 35.4003 25.3001C35.5003 24.4001 35.5003 23.6001 35.7003 22.8001C36.1003 20.6001 36.6003 18.3001 37.0003 16.1001C37.0003 15.9001 36.9003 15.6001 36.8003 15.4001C36.7003 14.9001 36.4003 14.4001 36.4003 13.9001C36.4003 13.0001 36.7003 12.2001 36.8003 11.3001C36.8003 11.0001 36.7003 10.6001 36.5003 10.3001C35.9003 9.6001 35.2003 9.0001 34.6003 8.4001C34.2003 8.0001 34.0003 7.5001 34.2003 6.9001C34.4003 6.3001 34.8003 5.9001 35.5003 5.9001C35.8003 5.9001 36.1003 5.8001 36.4003 5.8001C38.7003 5.5001 38.7003 5.5001 39.7003 3.5001C39.8003 3.3001 39.9003 3.1001 40.0003 2.9001C40.4003 2.5001 40.7003 2.1001 41.1003 1.6001C41.4003 1.6001 41.7003 1.6001 41.9003 1.6001C42.3003 2.0001 42.7003 2.4001 43.0003 2.9001C43.4003 3.5001 43.7003 4.2001 44.0003 4.9001C44.2003 5.3001 44.4003 5.5001 44.8003 5.5001C45.7003 5.6001 46.5003 5.8001 47.4003 5.9001C48.1003 6.0001 48.5003 6.3001 48.7003 7.0001C48.9003 7.6001 48.7003 8.1001 48.2003 8.6001C47.6003 9.2001 46.9003 9.8001 46.3003 10.5001C46.1003 10.7001 46.0003 11.1001 46.0003 11.3001C46.1003 12.2001 46.4003 13.1001 46.4003 14.0001C46.4003 14.5001 46.1003 15.0001 46.0003 15.5001C45.9003 15.7001 45.7003 15.9001 45.8003 16.1001C46.4003 19.2001 47.0003 22.3001 47.6003 25.5001C48.5003 25.8001 48.8003 26.2001 48.8003 27.4001C48.8003 32.4001 48.8003 37.5001 48.8003 42.6001C48.8003 42.9001 48.8003 43.1001 48.8003 43.4001C49.9003 43.4001 50.8003 43.4001 51.8003 43.4001C51.8003 43.0001 51.8003 42.7001 51.8003 42.5001C51.7003 41.6001 52.0003 41.0001 52.7003 40.4001C53.7003 39.5001 54.7003 38.5001 55.7003 37.5001C54.9003 37.0001 54.6003 36.4001 54.8003 35.8001C55.0003 35.2001 55.4003 34.7001 56.0003 34.7001C56.7003 34.6001 57.3003 34.9001 57.5003 35.5001C57.6003 35.9001 57.6003 36.3001 57.5003 36.7001C57.4003 37.1001 57.0003 37.3001 56.7003 37.6001C57.6003 38.4001 58.4003 39.3001 59.3003 40.1001C60.3003 40.9001 60.8003 41.8001 60.5003 43.1001C60.2003 44.5001 61.1003 45.2001 62.1003 45.9001C62.5003 45.5001 62.9003 45.1001 63.2003 44.7001C63.8003 44.0001 64.4003 43.3001 65.5003 43.7001C66.6003 44.1001 66.4003 45.1001 66.4003 46.0001C66.4003 47.9001 66.4003 49.7001 66.4003 51.6001C66.4003 51.8001 66.4003 52.1001 66.4003 52.4001C66.9003 52.4001 67.4003 52.4001 67.9003 52.4001C67.9003 52.1001 67.9003 51.9001 67.9003 51.6001C67.9003 49.5001 67.9003 47.4001 67.9003 45.4001C67.9003 44.6001 68.1003 44.0001 68.8003 43.7001C69.5003 43.4001 70.1003 43.7001 70.7003 44.3001C71.2003 44.9001 71.8003 45.4001 72.4003 46.0001C73.0003 45.3001 73.6003 44.7001 74.2003 44.2001C74.5003 44.0001 74.8003 43.7001 75.1003 43.7001C76.1003 43.5001 76.8003 44.2001 76.8003 45.4001C76.8003 54.1001 76.8003 62.8001 76.8003 71.5001C76.8003 73.0001 76.3003 73.4001 74.8003 73.4001C52.2003 73.4001 29.7003 73.4001 7.10028 73.4001C6.80028 73.0001 6.20029 72.8001 5.80029 71.9001ZM74.3003 70.0001C74.3003 65.0001 74.3003 60.0001 74.3003 55.2001C69.9003 55.2001 65.4003 55.2001 61.0003 55.2001C61.0003 60.1001 61.0003 65.1001 61.0003 70.0001C65.5003 70.0001 69.8003 70.0001 74.3003 70.0001ZM22.1003 70.0001C22.1003 65.0001 22.1003 60.0001 22.1003 55.2001C17.7003 55.2001 13.2003 55.2001 8.80029 55.2001C8.80029 60.1001 8.80029 65.1001 8.80029 70.0001C13.2003 70.0001 17.6003 70.0001 22.1003 70.0001ZM52.0003 55.1001C52.0003 52.1001 52.0003 49.2001 52.0003 46.2001C45.1003 46.2001 38.1003 46.2001 31.2003 46.2001C31.2003 49.2001 31.2003 52.1001 31.2003 55.1001C32.8003 55.1001 34.3003 55.1001 35.8003 55.1001C36.1003 55.1001 36.5003 54.9001 36.6003 54.7001C37.8003 53.2001 38.9003 51.6001 40.1003 50.1001C41.0003 48.9001 42.0003 48.9001 42.9003 50.1001C44.1003 51.6001 45.2003 53.2001 46.4003 54.7001C46.5003 54.9001 46.8003 55.1001 47.0003 55.1001C48.7003 55.2001 50.3003 55.1001 52.0003 55.1001ZM26.7003 40.9001C25.6003 41.6001 25.1003 42.5001 25.1003 43.8001C25.2003 52.3001 25.1003 60.7001 25.1003 69.1001C25.1003 69.4001 25.1003 69.7001 25.1003 70.0001C26.1003 70.0001 27.1003 70.0001 28.0003 70.0001C28.0003 69.9001 28.1003 69.9001 28.1003 69.8001C28.1003 60.7001 28.1003 51.7001 28.1003 42.5001C28.1003 42.3001 28.0003 42.1001 27.8003 41.9001C27.5003 41.6001 27.1003 41.2001 26.7003 40.9001ZM56.6003 40.7001C56.2003 41.1001 56.0003 41.3001 55.8003 41.4001C55.1003 41.9001 54.9003 42.6001 54.9003 43.5001C54.9003 52.1001 54.9003 60.6001 54.9003 69.2001C54.9003 69.5001 54.9003 69.7001 54.9003 70.0001C55.9003 70.0001 56.9003 70.0001 57.9003 70.0001C57.9003 68.8001 57.9003 67.6001 57.9003 66.5001C57.9003 58.6001 57.9003 50.8001 57.9003 42.9001C57.9003 42.6001 57.8003 42.2001 57.6003 42.0001C57.4003 41.5001 57.0003 41.1001 56.6003 40.7001ZM52.0003 58.1001C45.1003 58.1001 38.1003 58.1001 31.2003 58.1001C31.2003 59.1001 31.2003 60.0001 31.2003 61.0001C38.1003 61.0001 45.1003 61.0001 52.0003 61.0001C52.0003 60.0001 52.0003 59.1001 52.0003 58.1001ZM44.5003 25.3001C44.5003 24.7001 44.5003 24.1001 44.4003 23.5001C43.9003 20.8001 43.3003 18.1001 42.8003 15.2001C42.7003 14.6001 42.1003 14.0001 41.6003 14.0001C41.1003 14.0001 40.5003 14.6001 40.4003 15.2001C39.9003 17.9001 39.3003 20.7001 38.8003 23.5001C38.7003 24.1001 38.7003 24.7001 38.7003 25.3001C40.6003 25.3001 42.5003 25.3001 44.5003 25.3001ZM45.9003 36.3001C44.8003 37.9001 43.3003 38.7001 41.5003 38.7001C39.7003 38.7001 38.2003 37.9001 37.1003 36.3001C37.1003 38.6001 37.1003 40.9001 37.1003 43.1001C40.1003 43.1001 43.0003 43.1001 46.0003 43.1001C45.9003 40.9001 45.9003 38.7001 45.9003 36.3001ZM52.0003 64.2001C51.0003 64.2001 50.1003 64.2001 49.1003 64.2001C49.1003 66.2001 49.1003 68.1001 49.1003 70.0001C50.1003 70.0001 51.0003 70.0001 52.0003 70.0001C52.0003 68.0001 52.0003 66.1001 52.0003 64.2001ZM34.1003 64.2001C33.1003 64.2001 32.2003 64.2001 31.2003 64.2001C31.2003 66.2001 31.2003 68.1001 31.2003 70.0001C32.2003 70.0001 33.1003 70.0001 34.1003 70.0001C34.1003 68.0001 34.1003 66.1001 34.1003 64.2001ZM40.0003 70.0001C40.0003 68.0001 40.0003 66.1001 40.0003 64.1001C39.0003 64.1001 38.1003 64.1001 37.2003 64.1001C37.2003 66.1001 37.2003 68.0001 37.2003 70.0001C38.1003 70.0001 39.0003 70.0001 40.0003 70.0001ZM46.0003 64.2001C45.0003 64.2001 44.1003 64.2001 43.1003 64.2001C43.1003 66.2001 43.1003 68.1001 43.1003 70.0001C44.1003 70.0001 45.0003 70.0001 46.0003 70.0001C46.0003 68.1001 46.0003 66.1001 46.0003 64.2001ZM41.5003 35.8001C42.7003 35.8001 43.7003 34.8001 43.7003 33.6001C43.7003 32.4001 42.7003 31.3001 41.5003 31.3001C40.3003 31.3001 39.3003 32.3001 39.3003 33.5001C39.3003 34.8001 40.3003 35.8001 41.5003 35.8001ZM38.9003 8.3001C40.0003 9.1001 40.3003 10.1001 39.9003 11.4001C41.0003 10.6001 42.0003 10.6001 43.1003 11.4001C42.7003 10.1001 43.0003 9.1001 44.1003 8.3001C42.7003 8.4001 41.9003 7.7001 41.4003 6.4001C41.1003 7.7001 40.2003 8.3001 38.9003 8.3001ZM71.4003 52.1001C72.4003 52.1001 73.4003 52.1001 74.3003 52.1001C74.3003 50.9001 74.3003 49.7001 74.3003 48.4001C73.3003 49.5001 72.4003 49.4001 71.4003 48.4001C71.4003 49.8001 71.4003 50.9001 71.4003 52.1001ZM8.80029 52.1001C9.80029 52.1001 10.8003 52.1001 11.7003 52.1001C11.7003 50.9001 11.7003 49.7001 11.7003 48.6001C11.2003 48.8001 10.7003 49.1001 10.2003 49.1001C9.70032 49.1001 9.30029 48.8001 8.80029 48.6001C8.80029 49.7001 8.80029 50.9001 8.80029 52.1001ZM19.3003 48.5001C19.3003 49.8001 19.3003 51.0001 19.3003 52.2001C20.3003 52.2001 21.2003 52.2001 22.1003 52.2001C22.1003 51.0001 22.1003 49.8001 22.1003 48.5001C21.0003 49.5001 20.5003 49.5001 19.3003 48.5001ZM63.9003 48.6001C63.4003 48.8001 62.9003 49.1001 62.4003 49.1001C61.9003 49.1001 61.5003 48.8001 61.0003 48.6001C61.0003 49.7001 61.0003 50.9001 61.0003 52.1001C62.0003 52.1001 62.9003 52.1001 63.9003 52.1001C63.9003 50.9001 63.9003 49.7001 63.9003 48.6001ZM42.6003 28.3001C43.2003 28.6001 43.8003 28.8001 44.4003 29.2001C45.0003 29.6001 45.4003 30.1001 45.9003 30.5001C45.9003 29.8001 45.9003 29.0001 45.9003 28.3001C44.8003 28.3001 43.7003 28.3001 42.6003 28.3001ZM37.1003 30.7001C38.0003 29.4001 39.1003 28.7001 40.7003 28.3001C39.4003 28.3001 38.3003 28.3001 37.1003 28.3001C37.1003 29.1001 37.1003 29.8001 37.1003 30.7001ZM40.1003 55.1001C41.1003 55.1001 42.0003 55.1001 43.0003 55.1001C42.5003 54.4001 42.0003 53.8001 41.5003 53.2001C41.0003 53.9001 40.6003 54.4001 40.1003 55.1001Z" fill="#0074A5" stroke="white" stroke-width="2" stroke-miterlimit="10"/>
<path d="M5.7002 72.3C5.7002 63 5.7002 53.9 5.7002 44.6C6.6002 43.3 7.50016 43.2 8.60016 44.4C9.10016 44.9 9.60016 45.5 10.1002 46.1C10.8002 45.3 11.4002 44.8 11.9002 44.2C12.4002 43.7 13.0002 43.5 13.7002 43.8C14.4002 44.1 14.6002 44.7 14.6002 45.4C14.6002 47.2 14.6002 48.9 14.6002 50.7C14.6002 51.3 14.6002 51.9 14.6002 52.6C15.1002 52.6 15.6002 52.6 16.1002 52.6C16.1002 52.3 16.1002 52.1 16.1002 51.8C16.1002 49.7 16.1002 47.6 16.1002 45.5C16.1002 44.8 16.3002 44.2 17.0002 43.9C17.7002 43.6 18.3002 43.9 18.8002 44.4C19.3002 45 19.9002 45.5 20.4002 46.1C21.5002 45.3 22.3002 44.6 22.0002 43.2C22.0002 43 22.0002 42.9 22.0002 42.7C21.9002 41.9 22.2002 41.3 22.8002 40.7C23.9002 39.7 24.9002 38.7 25.9002 37.7C25.1002 37.2 24.8002 36.6 25.0002 35.9C25.2002 35.3 25.6002 34.9 26.3002 34.8C27.0002 34.7 27.6002 35.1 27.8002 35.7C27.9002 36.1 27.9002 36.5 27.8002 36.9C27.7002 37.3 27.4002 37.6 27.2002 37.8C28.2002 38.7 29.3002 39.7 30.3002 40.9C30.6002 41.2 30.8002 41.8 30.9002 42.3C31.0002 42.7 30.9002 43.2 30.9002 43.6C32.0002 43.6 32.9002 43.6 33.9002 43.6C33.9002 43.3 33.9002 43 33.9002 42.7C33.9002 37.8 33.9002 32.8 33.9002 27.9C33.9002 26.8 34.1002 25.9 35.3002 25.7C35.4002 24.8 35.4002 24 35.6002 23.2C36.0002 21 36.5002 18.7 36.9002 16.5C36.9002 16.3 36.8002 16 36.7002 15.8C36.6002 15.3 36.3002 14.8 36.3002 14.3C36.3002 13.4 36.6002 12.6 36.7002 11.7C36.7002 11.4 36.6002 11 36.4002 10.7C35.8002 10 35.1002 9.4 34.5002 8.8C34.1002 8.4 33.9002 7.9 34.1002 7.3C34.3002 6.7 34.7002 6.3 35.4002 6.3C35.7002 6.3 36.0002 6.2 36.3002 6.2C38.6002 5.9 38.6002 5.9 39.6002 3.9C39.7002 3.7 39.8002 3.5 39.9002 3.3C40.3002 2.9 40.6002 2.5 41.0002 2C41.3002 2 41.6002 2 41.8002 2C42.2002 2.4 42.6002 2.8 42.9002 3.3C43.3002 3.9 43.6002 4.6 43.9002 5.3C44.1002 5.7 44.3002 5.9 44.7002 5.9C45.6002 6 46.4002 6.2 47.3002 6.3C48.0002 6.4 48.4002 6.7 48.6002 7.4C48.8002 8 48.6002 8.5 48.1002 9C47.5002 9.6 46.8002 10.2 46.2002 10.9C46.0002 11.1 45.9002 11.5 45.9002 11.7C46.0002 12.6 46.3002 13.5 46.3002 14.4C46.3002 14.9 46.0002 15.4 45.9002 15.9C45.8002 16.1 45.6002 16.3 45.7002 16.5C46.3002 19.6 46.9002 22.7 47.5002 25.9C48.4002 26.2 48.7002 26.6 48.7002 27.8C48.7002 32.8 48.7002 37.9 48.7002 43C48.7002 43.3 48.7002 43.5 48.7002 43.8C49.8002 43.8 50.7002 43.8 51.7002 43.8C51.7002 43.4 51.7002 43.1 51.7002 42.9C51.6002 42 51.9002 41.4 52.6002 40.8C53.6002 39.9 54.6002 38.9 55.6002 37.9C54.8002 37.4 54.5002 36.8 54.7002 36.2C54.9002 35.6 55.3002 35.1 55.9002 35.1C56.6002 35 57.2002 35.3 57.4002 35.9C57.5002 36.3 57.5002 36.7 57.4002 37.1C57.3002 37.5 56.9002 37.7 56.6002 38C57.5002 38.8 58.3002 39.7 59.2002 40.5C60.2002 41.3 60.7002 42.2 60.4002 43.5C60.1002 44.9 61.0002 45.6 62.0002 46.3C62.4002 45.9 62.8002 45.5 63.1002 45.1C63.7002 44.4 64.3002 43.7 65.4002 44.1C66.5002 44.5 66.3002 45.5 66.3002 46.4C66.3002 48.3 66.3002 50.1 66.3002 52C66.3002 52.2 66.3002 52.5 66.3002 52.8C66.8002 52.8 67.3002 52.8 67.8002 52.8C67.8002 52.5 67.8002 52.3 67.8002 52C67.8002 49.9 67.8002 47.8 67.8002 45.8C67.8002 45 68.0002 44.4 68.7002 44.1C69.4002 43.8 70.0002 44.1 70.6002 44.7C71.1002 45.3 71.7002 45.8 72.3002 46.4C72.9002 45.7 73.5002 45.1 74.1002 44.6C74.4002 44.4 74.7002 44.1 75.0002 44.1C76.0002 43.9 76.7002 44.6 76.7002 45.8C76.7002 54.5 76.7002 63.2 76.7002 71.9C76.7002 73.4 76.2002 73.8 74.7002 73.8C52.1002 73.8 29.6002 73.8 7.00018 73.8C6.70018 73.4 6.1002 73.2 5.7002 72.3ZM74.3002 70.4C74.3002 65.4 74.3002 60.4 74.3002 55.6C69.9002 55.6 65.4002 55.6 61.0002 55.6C61.0002 60.5 61.0002 65.5 61.0002 70.4C65.4002 70.4 69.7002 70.4 74.3002 70.4ZM22.0002 70.4C22.0002 65.4 22.0002 60.4 22.0002 55.6C17.6002 55.6 13.1002 55.6 8.7002 55.6C8.7002 60.5 8.7002 65.5 8.7002 70.4C13.1002 70.4 17.6002 70.4 22.0002 70.4ZM51.9002 55.5C51.9002 52.5 51.9002 49.6 51.9002 46.6C45.0002 46.6 38.0002 46.6 31.1002 46.6C31.1002 49.6 31.1002 52.5 31.1002 55.5C32.7002 55.5 34.2002 55.5 35.7002 55.5C36.0002 55.5 36.4002 55.3 36.5002 55.1C37.7002 53.6 38.8002 52 40.0002 50.5C40.9002 49.3 41.9002 49.3 42.8002 50.5C44.0002 52 45.1002 53.6 46.3002 55.1C46.4002 55.3 46.7002 55.5 46.9002 55.5C48.6002 55.6 50.2002 55.5 51.9002 55.5ZM26.6002 41.3C25.5002 42 25.0002 42.9 25.0002 44.2C25.1002 52.7 25.0002 61.1 25.0002 69.5C25.0002 69.8 25.0002 70.1 25.0002 70.4C26.0002 70.4 27.0002 70.4 27.9002 70.4C27.9002 70.3 28.0002 70.3 28.0002 70.2C28.0002 61.1 28.0002 52.1 28.0002 42.9C28.0002 42.7 27.9002 42.5 27.7002 42.3C27.4002 42 27.0002 41.6 26.6002 41.3ZM56.5002 41.1C56.1002 41.5 55.9002 41.7 55.7002 41.8C55.0002 42.3 54.8002 43 54.8002 43.9C54.8002 52.5 54.8002 61 54.8002 69.6C54.8002 69.9 54.8002 70.1 54.8002 70.4C55.8002 70.4 56.8002 70.4 57.8002 70.4C57.8002 69.2 57.8002 68 57.8002 66.9C57.8002 59 57.8002 51.2 57.8002 43.3C57.8002 43 57.7002 42.6 57.5002 42.4C57.3002 41.9 56.9002 41.5 56.5002 41.1ZM51.9002 58.5C45.0002 58.5 38.0002 58.5 31.1002 58.5C31.1002 59.5 31.1002 60.4 31.1002 61.4C38.0002 61.4 45.0002 61.4 51.9002 61.4C51.9002 60.4 51.9002 59.5 51.9002 58.5ZM44.4002 25.7C44.4002 25.1 44.4002 24.5 44.3002 23.9C43.8002 21.2 43.2002 18.5 42.7002 15.6C42.6002 15 42.0002 14.4 41.5002 14.4C41.0002 14.4 40.4002 15 40.3002 15.6C39.8002 18.3 39.2002 21.1 38.7002 23.9C38.6002 24.5 38.6002 25.1 38.6002 25.7C40.5002 25.7 42.4002 25.7 44.4002 25.7ZM45.9002 36.6C44.8002 38.2 43.3002 39 41.5002 39C39.7002 39 38.2002 38.2 37.1002 36.6C37.1002 38.9 37.1002 41.2 37.1002 43.4C40.1002 43.4 43.0002 43.4 46.0002 43.4C45.9002 41.3 45.9002 39.1 45.9002 36.6ZM51.9002 64.5C50.9002 64.5 50.0002 64.5 49.0002 64.5C49.0002 66.5 49.0002 68.4 49.0002 70.3C50.0002 70.3 50.9002 70.3 51.9002 70.3C51.9002 68.4 51.9002 66.4 51.9002 64.5ZM34.0002 64.5C33.0002 64.5 32.1002 64.5 31.1002 64.5C31.1002 66.5 31.1002 68.4 31.1002 70.3C32.1002 70.3 33.0002 70.3 34.0002 70.3C34.0002 68.4 34.0002 66.4 34.0002 64.5ZM39.9002 70.4C39.9002 68.4 39.9002 66.5 39.9002 64.5C38.9002 64.5 38.0002 64.5 37.1002 64.5C37.1002 66.5 37.1002 68.4 37.1002 70.4C38.0002 70.4 38.9002 70.4 39.9002 70.4ZM46.0002 64.5C45.0002 64.5 44.1002 64.5 43.1002 64.5C43.1002 66.5 43.1002 68.4 43.1002 70.3C44.1002 70.3 45.0002 70.3 46.0002 70.3C46.0002 68.5 46.0002 66.4 46.0002 64.5ZM41.4002 36.1C42.6002 36.1 43.6002 35.1 43.6002 33.9C43.6002 32.7 42.6002 31.6 41.4002 31.6C40.2002 31.6 39.2002 32.6 39.2002 33.8C39.2002 35.1 40.2002 36.1 41.4002 36.1ZM38.8002 8.6C39.9002 9.4 40.2002 10.4 39.8002 11.7C40.9002 10.9 41.9002 10.9 43.0002 11.7C42.6002 10.4 42.9002 9.4 44.0002 8.6C42.6002 8.7 41.8002 8 41.3002 6.7C41.0002 8 40.1002 8.6 38.8002 8.6ZM71.3002 52.4C72.3002 52.4 73.3002 52.4 74.2002 52.4C74.2002 51.2 74.2002 50 74.2002 48.7C73.2002 49.8 72.3002 49.7 71.3002 48.7C71.3002 50.1 71.3002 51.2 71.3002 52.4ZM8.7002 52.4C9.7002 52.4 10.7002 52.4 11.6002 52.4C11.6002 51.2 11.6002 50 11.6002 48.9C11.1002 49.1 10.6002 49.4 10.1002 49.4C9.60016 49.4 9.2002 49.1 8.7002 48.9C8.7002 50 8.7002 51.2 8.7002 52.4ZM19.2002 48.8C19.2002 50.1 19.2002 51.3 19.2002 52.5C20.2002 52.5 21.1002 52.5 22.0002 52.5C22.0002 51.3 22.0002 50.1 22.0002 48.8C20.9002 49.8 20.4002 49.8 19.2002 48.8ZM63.8002 48.9C63.3002 49.1 62.8002 49.4 62.3002 49.4C61.8002 49.4 61.4002 49.1 60.9002 48.9C60.9002 50 60.9002 51.2 60.9002 52.4C61.9002 52.4 62.8002 52.4 63.8002 52.4C63.8002 51.2 63.8002 50 63.8002 48.9ZM42.5002 28.7C43.1002 29 43.7002 29.2 44.3002 29.6C44.9002 30 45.3002 30.5 45.8002 30.9C45.8002 30.2 45.8002 29.4 45.8002 28.7C44.8002 28.7 43.6002 28.7 42.5002 28.7ZM37.0002 31.1C37.9002 29.8 39.0002 29.1 40.6002 28.7C39.3002 28.7 38.2002 28.7 37.0002 28.7C37.0002 29.5 37.0002 30.2 37.0002 31.1ZM40.0002 55.5C41.0002 55.5 41.9002 55.5 42.9002 55.5C42.4002 54.8 41.9002 54.2 41.4002 53.6C40.9002 54.3 40.5002 54.8 40.0002 55.5Z" fill="#0074A5" stroke="white" stroke-width="0.5" stroke-miterlimit="10"/>
<path d="M74.3002 70.4001C69.9002 70.4001 65.4002 70.4001 61.0002 70.4001C61.0002 65.5001 61.0002 60.5001 61.0002 55.6001C65.4002 55.6001 69.9002 55.6001 74.3002 55.6001C74.3002 60.5001 74.3002 65.4001 74.3002 70.4001Z" fill="#00A2E5" stroke="#00A2E5" stroke-width="1.0071" stroke-miterlimit="10"/>
<path d="M22.0002 70.4001C17.6002 70.4001 13.1002 70.4001 8.7002 70.4001C8.7002 65.5001 8.7002 60.5001 8.7002 55.6001C13.1002 55.6001 17.6002 55.6001 22.0002 55.6001C22.0002 60.5001 22.0002 65.4001 22.0002 70.4001Z" fill="#00A2E5" stroke="#00A2E5" stroke-width="1.0071" stroke-miterlimit="10"/>
<path d="M51.9003 55.5001C50.2003 55.5001 48.7003 55.5001 47.1003 55.5001C46.9003 55.5001 46.6003 55.3001 46.5003 55.1001C45.3003 53.6001 44.2003 52.0001 43.0003 50.5001C42.1003 49.3001 41.1003 49.3001 40.2003 50.5001C39.0003 52.0001 37.9003 53.6001 36.7003 55.1001C36.5003 55.3001 36.2003 55.5001 35.9003 55.5001C34.4003 55.5001 32.9003 55.5001 31.3003 55.5001C31.3003 52.5001 31.3003 49.6001 31.3003 46.6001C38.2003 46.6001 45.1003 46.6001 52.1003 46.6001C51.9003 49.5001 51.9003 52.4001 51.9003 55.5001Z" fill="#00A2E5" stroke="#00A2E5" stroke-width="1.0071" stroke-miterlimit="10"/>
<path d="M26.6002 41.3C27.0002 41.7 27.4002 42 27.8002 42.4C27.9002 42.6 28.1002 42.8 28.1002 43C28.1002 52.1 28.1002 61.1 28.1002 70.3C28.1002 70.3 28.1002 70.4 28.0002 70.5C27.1002 70.5 26.1002 70.5 25.1002 70.5C25.1002 70.2 25.1002 69.9 25.1002 69.6C25.1002 61.1 25.1002 52.7 25.1002 44.3C25.0002 42.9 25.4002 42 26.6002 41.3Z" fill="#84DAF5" stroke="#84DAF5" stroke-width="1.0071" stroke-miterlimit="10"/>
<path d="M56.5003 41.1001C56.9003 41.6001 57.3003 41.9001 57.5003 42.4001C57.7003 42.7001 57.8003 43.0001 57.8003 43.3001C57.8003 51.2001 57.8003 59.0001 57.8003 66.9001C57.8003 68.1001 57.8003 69.2001 57.8003 70.4001C56.8003 70.4001 55.9003 70.4001 54.8003 70.4001C54.8003 70.1001 54.8003 69.8001 54.8003 69.6001C54.8003 61.0001 54.8003 52.5001 54.8003 43.9001C54.8003 43.0001 55.0003 42.3001 55.7003 41.8001C55.9003 41.6001 56.1003 41.4001 56.5003 41.1001Z" fill="#84DAF5" stroke="#84DAF5" stroke-width="1.0071" stroke-miterlimit="10"/>
<path d="M51.9001 58.5C51.9001 59.5 51.9001 60.4 51.9001 61.4C45.0001 61.4 38.0001 61.4 31.1001 61.4C31.1001 60.4 31.1001 59.5 31.1001 58.5C38.0001 58.5 44.9001 58.5 51.9001 58.5Z" fill="#84DAF5" stroke="#84DAF5" stroke-width="1.0071" stroke-miterlimit="10"/>
<path d="M44.4003 25.7001C42.4003 25.7001 40.5002 25.7001 38.5002 25.7001C38.5002 25.1001 38.5002 24.5001 38.6002 23.9001C39.1002 21.2001 39.7003 18.4001 40.2003 15.6001C40.3003 15.0001 40.9003 14.4001 41.4003 14.4001C41.9003 14.4001 42.5002 15.0001 42.6002 15.6001C43.1002 18.3001 43.7003 21.0001 44.2003 23.9001C44.4003 24.4001 44.4003 25.1001 44.4003 25.7001Z" fill="#85DBF6" stroke="#85DBF6" stroke-width="1.0071" stroke-miterlimit="10"/>
<path d="M45.9003 36.6001C45.9003 38.9001 45.9003 41.1001 45.9003 43.4001C43.0003 43.4001 40.1002 43.4001 37.0002 43.4001C37.0002 41.2001 37.0002 39.0001 37.0002 36.6001C38.1002 38.1001 39.6003 39.0001 41.4003 39.0001C43.3003 39.1001 44.8003 38.2001 45.9003 36.6001Z" fill="#00A2E5" stroke="#00A2E5" stroke-width="1.0071" stroke-miterlimit="10"/>
<path d="M51.9003 64.5C51.9003 66.5 51.9003 68.4 51.9003 70.3C50.9003 70.3 50.0002 70.3 49.0002 70.3C49.0002 68.4 49.0002 66.4 49.0002 64.5C49.9002 64.5 50.9003 64.5 51.9003 64.5Z" fill="#00A2E5" stroke="#00A2E5" stroke-width="1.0071" stroke-miterlimit="10"/>
<path d="M34.0001 64.5C34.0001 66.4 34.0001 68.4 34.0001 70.3C33.0001 70.3 32.1001 70.3 31.1001 70.3C31.1001 68.4 31.1001 66.4 31.1001 64.5C32.1001 64.5 33.0001 64.5 34.0001 64.5Z" fill="#00A2E5" stroke="#00A2E5" stroke-width="1.0071" stroke-miterlimit="10"/>
<path d="M39.9001 70.4C38.9001 70.4 38.0001 70.4 37.1001 70.4C37.1001 68.5 37.1001 66.5 37.1001 64.5C38.0001 64.5 39.0001 64.5 39.9001 64.5C39.9001 66.4 39.9001 68.4 39.9001 70.4Z" fill="#00A2E5" stroke="#00A2E5" stroke-width="1.0071" stroke-miterlimit="10"/>
<path d="M46.0001 64.5C46.0001 66.5 46.0001 68.4 46.0001 70.3C45.0001 70.3 44.1001 70.3 43.1001 70.3C43.1001 68.3 43.1001 66.4 43.1001 64.5C43.9001 64.5 45.0001 64.5 46.0001 64.5Z" fill="#00A2E5" stroke="#00A2E5" stroke-width="1.0071" stroke-miterlimit="10"/>
<path d="M41.4002 36.1002C40.2002 36.1002 39.2002 35.1002 39.2002 33.9002C39.2002 32.7002 40.2002 31.7002 41.4002 31.7002C42.6002 31.7002 43.7002 32.7002 43.6002 34.0002C43.6002 35.1002 42.6002 36.1002 41.4002 36.1002Z" fill="#85DBF6" stroke="#85DBF6" stroke-width="1.0071" stroke-miterlimit="10"/>
<path d="M38.8003 8.60019C40.2003 8.60019 41.0003 8.0002 41.4003 6.7002C41.9003 8.0002 42.7003 8.60019 44.1003 8.60019C43.0003 9.40019 42.7003 10.4002 43.1003 11.7002C42.0003 10.9002 41.0003 10.9002 39.9003 11.7002C40.2003 10.6002 39.9003 9.40019 38.8003 8.60019Z" fill="#85DBF6" stroke="#85DBF6" stroke-width="1.0071" stroke-miterlimit="10"/>
<path d="M71.3003 52.4002C71.3003 51.2002 71.3003 50.0002 71.3003 48.7002C72.3003 49.6002 73.2003 49.8002 74.2003 48.7002C74.2003 50.0002 74.2003 51.2002 74.2003 52.4002C73.2003 52.4002 72.3003 52.4002 71.3003 52.4002Z" fill="#84DAF5" stroke="#84DAF5" stroke-width="1.0071" stroke-miterlimit="10"/>
<path d="M8.7002 52.4001C8.7002 51.2001 8.7002 50.0001 8.7002 48.9001C9.2002 49.1001 9.60016 49.4001 10.1002 49.4001C10.6002 49.4001 11.1002 49.1001 11.6002 48.9001C11.6002 50.0001 11.6002 51.1001 11.6002 52.4001C10.6002 52.4001 9.7002 52.4001 8.7002 52.4001Z" fill="#84DAF5" stroke="#84DAF5" stroke-width="1.0071" stroke-miterlimit="10"/>
<path d="M19.2002 48.8C20.5002 49.8 20.9002 49.8 22.0002 48.8C22.0002 50 22.0002 51.2 22.0002 52.5C21.1002 52.5 20.1002 52.5 19.2002 52.5C19.2002 51.2 19.2002 50 19.2002 48.8Z" fill="#84DAF5" stroke="#84DAF5" stroke-width="1.0071" stroke-miterlimit="10"/>
<path d="M63.8001 48.9001C63.8001 50.0001 63.8001 51.2001 63.8001 52.4001C62.8001 52.4001 61.9001 52.4001 60.9001 52.4001C60.9001 51.2001 60.9001 50.0001 60.9001 48.9001C61.4001 49.1001 61.8001 49.4001 62.3001 49.4001C62.8001 49.5001 63.3001 49.1001 63.8001 48.9001Z" fill="#84DAF5" stroke="#84DAF5" stroke-width="1.0071" stroke-miterlimit="10"/>
<path d="M42.5002 28.7002C43.6002 28.7002 44.7002 28.7002 45.8002 28.7002C45.8002 29.5002 45.8002 30.2002 45.8002 30.9002C45.3002 30.4002 44.8002 29.9002 44.3002 29.6002C43.8002 29.2002 43.1002 29.0002 42.5002 28.7002Z" fill="#00A2E5" stroke="#00A2E5" stroke-width="1.0071" stroke-miterlimit="10"/>
<path d="M37.0002 31.1002C37.0002 30.2002 37.0002 29.5002 37.0002 28.7002C38.1002 28.7002 39.2002 28.7002 40.6002 28.7002C39.0002 29.1002 37.9002 29.9002 37.0002 31.1002Z" fill="#00A2E5" stroke="#00A2E5" stroke-width="1.0071" stroke-miterlimit="10"/>
<path d="M40.0002 55.5001C40.5002 54.8001 40.9002 54.2001 41.5002 53.6001C42.0002 54.3001 42.4002 54.9001 43.0002 55.5001C41.9002 55.5001 41.0002 55.5001 40.0002 55.5001Z" fill="#84DAF5" stroke="#84DAF5" stroke-width="1.0071" stroke-miterlimit="10"/>
<path d="M30.6001 46.6001H52.4001" stroke="#83D9F4" stroke-width="1.0071" stroke-miterlimit="10"/>
<path d="M8.2002 55.6001H22.5002" stroke="#83D9F4" stroke-width="1.0071" stroke-miterlimit="10"/>
<path d="M60.4001 55.6001H74.7001" stroke="#83D9F4" stroke-width="1.0071" stroke-miterlimit="10"/>
<path fill-rule="evenodd" clip-rule="evenodd" d="M29.8004 35.9C29.8004 37 28.5004 38.6 27.1004 37.9C26.1004 37.4 25.1004 38.4 24.7004 37.1C24.5004 36.3 24.8004 34.8 26.2004 34.8C27.8004 34.8 29.8004 34.8 29.8004 35.9Z" fill="white"/>
<path d="M56.6001 37.9C57.9808 37.9 59.1001 37.1389 59.1001 36.2C59.1001 35.2611 57.9808 34.5 56.6001 34.5C55.2194 34.5 54.1001 35.2611 54.1001 36.2C54.1001 37.1389 55.2194 37.9 56.6001 37.9Z" fill="white"/>
<path d="M41.3003 14.3C42.4003 14.6 42.8003 15.5 42.8003 15.5L44.6003 24.5" stroke="white" stroke-width="1.075" stroke-miterlimit="10" stroke-linecap="round"/>
<path d="M30.5002 58.2002H52.4003" stroke="white" stroke-width="1.075" stroke-miterlimit="10"/>
<path d="M26.6001 41.2002C28.3001 42.1002 28.1001 43.8002 28.1001 43.8002L28.2001 69.3002" stroke="white" stroke-miterlimit="10" stroke-linecap="round"/>
<path d="M56.6001 40.9001C56.6001 40.9001 57.4001 41.9001 57.8001 43.0001C58.2001 44.1001 57.9001 53.3001 57.9001 53.3001" stroke="white" stroke-miterlimit="10" stroke-linecap="round"/>
<path d="M44.2 87.2002L41.6 81.7002C42.8 81.2002 43.3 79.7002 42.8 78.5002C42.3 77.3002 40.8 76.8002 39.6 77.3002L37 71.8002C36.7 71.2002 37 70.5002 37.6 70.2002L72.6 53.9002C73.2 53.6002 73.9 53.9002 74.2 54.5002L76.8 60.0002C75.6 60.5002 75.1 62.0002 75.6 63.2002C76.1 64.4002 77.6 64.9002 78.8 64.4002L81.4 69.9002C81.7 70.5002 81.4 71.2002 80.8 71.5002L45.9 87.8002C45.3 88.1002 44.5 87.8002 44.2 87.2002Z" stroke="white" stroke-width="3.225" stroke-miterlimit="79.8403" stroke-linecap="round" stroke-linejoin="round"/>
<path fill-rule="evenodd" clip-rule="evenodd" d="M44.2 87.2002L41.6 81.7002C42.8 81.2002 43.3 79.7002 42.8 78.5002C42.3 77.3002 40.8 76.8002 39.6 77.3002L37 71.8002C36.7 71.2002 37 70.5002 37.6 70.2002L72.6 53.9002C73.2 53.6002 73.9 53.9002 74.2 54.5002L76.8 60.0002C75.6 60.5002 75.1 62.0002 75.6 63.2002C76.1 64.4002 77.6 64.9002 78.8 64.4002L81.4 69.9002C81.7 70.5002 81.4 71.2002 80.8 71.5002L45.9 87.8002C45.3 88.1002 44.5 87.8002 44.2 87.2002Z" fill="white"/>
<path d="M44.2 87.2002L41.6 81.7002C42.8 81.2002 43.3 79.7002 42.8 78.5002C42.3 77.3002 40.8 76.8002 39.6 77.3002L37 71.8002C36.7 71.2002 37 70.5002 37.6 70.2002L72.6 53.9002C73.2 53.6002 73.9 53.9002 74.2 54.5002L76.8 60.0002C75.6 60.5002 75.1 62.0002 75.6 63.2002C76.1 64.4002 77.6 64.9002 78.8 64.4002L81.4 69.9002C81.7 70.5002 81.4 71.2002 80.8 71.5002L45.9 87.8002C45.3 88.1002 44.5 87.8002 44.2 87.2002Z" stroke="#0075A6" stroke-width="1.6125" stroke-miterlimit="79.8403" stroke-linecap="round" stroke-linejoin="round"/>
<path d="M68.5 58.2002L68.8 59.0002" stroke="#0075A6" stroke-width="0.8062" stroke-miterlimit="79.8403" stroke-linecap="round" stroke-linejoin="round"/>
<path d="M69.5 60.3003L69.8 61.1003" stroke="#0075A6" stroke-width="0.8062" stroke-miterlimit="79.8403" stroke-linecap="round" stroke-linejoin="round"/>
<path d="M70.5 62.5002L70.8 63.3002" stroke="#0075A6" stroke-width="0.8062" stroke-miterlimit="79.8403" stroke-linecap="round" stroke-linejoin="round"/>
<path d="M71.5 64.7002L71.8 65.5002" stroke="#0075A6" stroke-width="0.8062" stroke-miterlimit="79.8403" stroke-linecap="round" stroke-linejoin="round"/>
<path d="M72.6001 66.9001L72.9001 67.7001" stroke="#0075A6" stroke-width="0.8062" stroke-miterlimit="79.8403" stroke-linecap="round" stroke-linejoin="round"/>
<path d="M73.5 69.0002L73.8 69.8002" stroke="#0075A6" stroke-width="0.8062" stroke-miterlimit="79.8403" stroke-linecap="round" stroke-linejoin="round"/>
<path d="M74.6001 71.3003L74.9001 72.1003" stroke="#0075A6" stroke-width="0.8062" stroke-miterlimit="79.8403" stroke-linecap="round" stroke-linejoin="round"/>
<path d="M71.8 71.0002L67.2001 61.2002C66.9001 60.4002 66 60.1002 65.3 60.4002L43 70.8002C42.2 71.1002 41.9001 72.0002 42.2001 72.7002L46.8 82.5002C47.1 83.3002 48.0001 83.6002 48.7001 83.3002L71 73.0002C71.8 72.6002 72.1 71.7002 71.8 71.0002Z" stroke="#0075A6" stroke-width="0.8062" stroke-miterlimit="79.8403" stroke-linecap="round" stroke-linejoin="round"/>
<path d="M50.3 76.3002L64.9001 69.5002" stroke="#0075A6" stroke-width="0.8062" stroke-miterlimit="79.8403" stroke-linecap="round" stroke-linejoin="round"/>
<path d="M41 88.1001V82.1001C42.3 82.1001 43.5 81.0001 43.5 79.7001C43.5 78.4001 42.4 77.3001 41 77.3001V71.3001C41 70.7001 41.5 70.1001 42.2 70.1001H80.9C81.5 70.1001 82.1 70.6001 82.1 71.3001V77.3001C80.8 77.3001 79.6 78.4001 79.6 79.7001C79.6 81.0001 80.7 82.1001 82.1 82.1001V88.1001C82.1 88.7001 81.6 89.3001 80.9 89.3001H42.2C41.6 89.2001 41 88.7001 41 88.1001Z" stroke="white" stroke-width="3.225" stroke-miterlimit="79.8403" stroke-linecap="round" stroke-linejoin="round"/>
<path fill-rule="evenodd" clip-rule="evenodd" d="M41 88.1001V82.1001C42.3 82.1001 43.5 81.0001 43.5 79.7001C43.5 78.4001 42.4 77.3001 41 77.3001V71.3001C41 70.7001 41.5 70.1001 42.2 70.1001H80.9C81.5 70.1001 82.1 70.6001 82.1 71.3001V77.3001C80.8 77.3001 79.6 78.4001 79.6 79.7001C79.6 81.0001 80.7 82.1001 82.1 82.1001V88.1001C82.1 88.7001 81.6 89.3001 80.9 89.3001H42.2C41.6 89.2001 41 88.7001 41 88.1001Z" fill="white"/>
<path d="M41 88.1001V82.1001C42.3 82.1001 43.5 81.0001 43.5 79.7001C43.5 78.4001 42.4 77.3001 41 77.3001V71.3001C41 70.7001 41.5 70.1001 42.2 70.1001H80.9C81.5 70.1001 82.1 70.6001 82.1 71.3001V77.3001C80.8 77.3001 79.6 78.4001 79.6 79.7001C79.6 81.0001 80.7 82.1001 82.1 82.1001V88.1001C82.1 88.7001 81.6 89.3001 80.9 89.3001H42.2C41.6 89.2001 41 88.7001 41 88.1001Z" stroke="#0075A6" stroke-width="1.6125" stroke-miterlimit="79.8403" stroke-linecap="round" stroke-linejoin="round"/>
<path d="M75.3 71.9001V72.8001" stroke="#0075A6" stroke-width="0.8062" stroke-miterlimit="79.8403" stroke-linecap="round" stroke-linejoin="round"/>
<path d="M75.3 74.4001V75.3001" stroke="#0075A6" stroke-width="0.8062" stroke-miterlimit="79.8403" stroke-linecap="round" stroke-linejoin="round"/>
<path d="M75.3 76.8V77.7" stroke="#0075A6" stroke-width="0.8062" stroke-miterlimit="79.8403" stroke-linecap="round" stroke-linejoin="round"/>
<path d="M75.3 79.2002V80.1002" stroke="#0075A6" stroke-width="0.8062" stroke-miterlimit="79.8403" stroke-linecap="round" stroke-linejoin="round"/>
<path d="M75.3 81.6001V82.5001" stroke="#0075A6" stroke-width="0.8062" stroke-miterlimit="79.8403" stroke-linecap="round" stroke-linejoin="round"/>
<path d="M75.3 84.1001V85.0001" stroke="#0075A6" stroke-width="0.8062" stroke-miterlimit="79.8403" stroke-linecap="round" stroke-linejoin="round"/>
<path d="M75.3 86.5002V87.4002" stroke="#0075A6" stroke-width="0.8062" stroke-miterlimit="79.8403" stroke-linecap="round" stroke-linejoin="round"/>
<path d="M48.4 86.5002H70C71.6 86.5002 72.9 85.2002 72.9 83.6002V75.6002C72.9 74.0002 71.6 72.7002 70 72.7002H48.4C46.8 72.7002 45.5 74.0002 45.5 75.6002V83.6002C45.5 85.2002 46.8 86.5002 48.4 86.5002Z" stroke="#0075A6" stroke-width="0.8062" stroke-miterlimit="79.8403" stroke-linecap="round" stroke-linejoin="round"/>
<path d="M52.7002 78.4001H65.6002" stroke="#0075A6" stroke-width="0.8062" stroke-miterlimit="79.8403" stroke-linecap="round" stroke-linejoin="round"/>
<path d="M51.1001 80.9001H67.2001" stroke="#0075A6" stroke-width="0.8062" stroke-miterlimit="79.8403" stroke-linecap="round" stroke-linejoin="round"/>
</svg>
