<svg width="94" height="82" viewBox="0 0 94 82" fill="none" xmlns="http://www.w3.org/2000/svg">
<path d="M7.59961 40.4001C7.59961 18.6001 25.2996 0.800049 47.0996 0.800049C68.8996 0.800049 86.5996 18.5001 86.5996 40.4001" stroke="#0075A6" stroke-width="1.6125" stroke-miterlimit="79.8403" stroke-linecap="round" stroke-linejoin="round"/>
<path d="M46.9999 41.2001C47.4417 41.2001 47.7999 40.8419 47.7999 40.4001C47.7999 39.9583 47.4417 39.6001 46.9999 39.6001C46.5581 39.6001 46.1998 39.9583 46.1998 40.4001C46.1998 40.8419 46.5581 41.2001 46.9999 41.2001Z" fill="#999999"/>
<path d="M86.4999 40.4001C86.4999 44.6001 85.8998 48.6001 84.6998 52.4001" stroke="#0075A6" stroke-width="1.6125" stroke-miterlimit="79.8403" stroke-linecap="round" stroke-linejoin="round"/>
<path d="M9.99988 52.7001C6.89988 52.7001 3.9999 49.8001 1.8999 47.9001L3.8999 41.5001H7.59985L9.09985 36.7001H5.3999L6.69983 32.6001H46.1998C59.6998 32.6001 77.5998 34.9001 92.1998 40.7001L78.7999 52.7001H9.99988Z" stroke="white" stroke-width="3.225" stroke-miterlimit="79.8403" stroke-linecap="round" stroke-linejoin="round"/>
<path fill-rule="evenodd" clip-rule="evenodd" d="M9.99988 52.7001C6.89988 52.7001 3.9999 49.8001 1.8999 47.9001L3.8999 41.5001H7.59985L9.09985 36.7001H5.3999L6.69983 32.6001H46.1998C59.6998 32.6001 77.5998 34.9001 92.1998 40.7001L78.7999 52.7001H9.99988Z" fill="white"/>
<path fill-rule="evenodd" clip-rule="evenodd" d="M3.09961 44.2L3.89966 41.8H90.8997L88.1996 44.2H3.09961Z" fill="#00A2E5"/>
<path d="M3.09961 44.2L3.89966 41.8H90.8997L88.1996 44.2H3.09961Z" stroke="#0075A6" stroke-width="0.8062" stroke-miterlimit="79.8403" stroke-linecap="round" stroke-linejoin="round"/>
<path fill-rule="evenodd" clip-rule="evenodd" d="M44.6 32.4H22V26.8H48.7C61.6 26.8 69.1 31.6 74.1 35.1C64.1 33.6 54.4 32.8 44.6 32.4Z" fill="#85DBF6"/>
<path fill-rule="evenodd" clip-rule="evenodd" d="M44.4999 32.4L46.9999 26.8H48.5999C61.4999 26.8 68.9999 31.6 73.9999 35.1C64.6999 33.5 54.8999 32.5 44.4999 32.4Z" fill="white"/>
<path d="M9.99988 52.7001C6.89988 52.7001 3.9999 49.8001 1.8999 47.9001L3.8999 41.5001H7.59985L9.09985 36.7001H5.3999L6.69983 32.6001H46.1998C59.6998 32.6001 77.5998 34.9001 92.1998 40.7001L78.7999 52.7001H9.99988Z" stroke="#0075A6" stroke-width="1.6125" stroke-miterlimit="79.8403" stroke-linecap="round" stroke-linejoin="round"/>
<path fill-rule="evenodd" clip-rule="evenodd" d="M46.5996 26.9001L47.7997 23.6001H54.0996L56.8997 27.4001L46.5996 26.9001Z" fill="#00A2E5"/>
<path d="M44.5996 32.4001L47.7997 23.6001H54.0996L56.8997 27.4001" stroke="#0075A6" stroke-width="1.6125" stroke-miterlimit="79.8403" stroke-linecap="round" stroke-linejoin="round"/>
<path d="M46.9999 26.9001H48.5999C61.4999 26.9001 68.9999 31.7001 73.9999 35.2001" stroke="#0075A6" stroke-width="1.6125" stroke-miterlimit="79.8403" stroke-linecap="round" stroke-linejoin="round"/>
<path d="M46.2 26.9001H19.5" stroke="#0075A6" stroke-width="1.6125" stroke-miterlimit="79.8403" stroke-linecap="round" stroke-linejoin="round"/>
<path d="M22 26.9001V32.5001" stroke="#0075A6" stroke-width="1.6125" stroke-miterlimit="79.8403" stroke-linecap="round" stroke-linejoin="round"/>
<path d="M8.69971 36.1001H46.5997C59.5997 36.1001 76.7998 37.4001 90.8998 40.5001" stroke="#0075A6" stroke-width="0.8062" stroke-miterlimit="79.8403" stroke-linecap="round" stroke-linejoin="round"/>
<path d="M7.19971 41.7H90.1997" stroke="#0075A6" stroke-width="0.8062" stroke-miterlimit="79.8403" stroke-linecap="round" stroke-linejoin="round"/>
<path d="M73.9999 40.1001H90.0999" stroke="#0075A6" stroke-width="0.8062" stroke-miterlimit="79.8403" stroke-linecap="round" stroke-linejoin="round"/>
<path d="M2.2998 47.4001H18.3998" stroke="#0075A6" stroke-width="0.8062" stroke-miterlimit="79.8403" stroke-linecap="round" stroke-linejoin="round"/>
<path d="M1.8999 53.4C6.0999 53.4 9.89985 52.3 13.0999 50.6C16.2999 48.8 20.3999 47.8 24.4999 47.8C28.5999 47.8 32.6999 48.9 35.8999 50.6C39.0999 52.4 42.8999 53.4 47.0999 53.4C51.2999 53.4 55.0999 52.3 58.2999 50.6C61.4999 48.8 65.5998 47.8 69.6998 47.8C73.7998 47.8 77.8999 48.9 81.0999 50.6C84.2999 52.4 88.0999 53.4 92.2999 53.4" stroke="white" stroke-width="3.225" stroke-miterlimit="79.8403" stroke-linecap="round" stroke-linejoin="round"/>
<path fill-rule="evenodd" clip-rule="evenodd" d="M9.2998 52.2C10.5998 51.8 11.8997 51.2 13.0997 50.6C16.2997 48.8 20.3998 47.8 24.4998 47.8C28.5998 47.8 32.6998 48.9 35.8998 50.6C39.0998 52.4 42.8997 53.4 47.0997 53.4C51.2997 53.4 55.0998 52.3 58.2998 50.6C61.4998 48.8 65.5997 47.8 69.6997 47.8C73.7997 47.8 77.8997 48.9 81.0997 50.6C82.2997 51.2 83.5998 51.8 84.8998 52.2C79.7998 68.2 64.8997 79.8 47.1997 79.8C29.3997 79.8 14.3998 68.2 9.2998 52.2Z" fill="#85DBF6"/>
<path d="M84.7 52.3C79.6 68.2 64.7 79.8 47.1 79.8C29.5 79.8 14.6 68.3 9.5 52.4" stroke="#0075A6" stroke-width="1.6125" stroke-miterlimit="79.8403" stroke-linecap="round" stroke-linejoin="round"/>
<path d="M45.0996 14L52.1996 23.7" stroke="#0075A6" stroke-width="1.6125" stroke-miterlimit="79.8403" stroke-linecap="round" stroke-linejoin="round"/>
<path fill-rule="evenodd" clip-rule="evenodd" d="M47.3999 20.0001C47.3999 19.6001 47.6999 19.1001 48.2999 19.1001H51.4999C51.8999 19.1001 52.3999 19.4001 52.3999 20.0001C52.3999 20.4001 52.0999 20.9001 51.4999 20.9001H48.2999C47.6999 20.7001 47.3999 20.4001 47.3999 20.0001Z" fill="white"/>
<path d="M47.3999 20.0001C47.3999 19.6001 47.6999 19.1001 48.2999 19.1001H51.4999C51.8999 19.1001 52.3999 19.4001 52.3999 20.0001C52.3999 20.4001 52.0999 20.9001 51.4999 20.9001H48.2999C47.6999 20.7001 47.3999 20.4001 47.3999 20.0001Z" stroke="#0075A6" stroke-width="0.8062" stroke-miterlimit="79.8403" stroke-linecap="round" stroke-linejoin="round"/>
<path fill-rule="evenodd" clip-rule="evenodd" d="M44.8999 16.7C44.8999 16.3 45.1999 15.8 45.7999 15.8H48.9999C49.3999 15.8 49.8999 16.1 49.8999 16.7C49.8999 17.1 49.5999 17.6 48.9999 17.6H45.7999C45.2999 17.5 44.8999 17.2 44.8999 16.7Z" fill="white"/>
<path d="M44.8999 16.7C44.8999 16.3 45.1999 15.8 45.7999 15.8H48.9999C49.3999 15.8 49.8999 16.1 49.8999 16.7C49.8999 17.1 49.5999 17.6 48.9999 17.6H45.7999C45.2999 17.5 44.8999 17.2 44.8999 16.7Z" stroke="#0075A6" stroke-width="0.8062" stroke-miterlimit="79.8403" stroke-linecap="round" stroke-linejoin="round"/>
<path d="M1.8999 53.4C6.0999 53.4 9.89985 52.3 13.0999 50.6C16.2999 48.8 20.3999 47.8 24.4999 47.8C28.5999 47.8 32.6999 48.9 35.8999 50.6C39.0999 52.4 42.8999 53.4 47.0999 53.4C51.2999 53.4 55.0999 52.3 58.2999 50.6C61.4999 48.8 65.5998 47.8 69.6998 47.8C73.7998 47.8 77.8999 48.9 81.0999 50.6C84.2999 52.4 88.0999 53.4 92.2999 53.4" stroke="#0075A6" stroke-width="1.6125" stroke-miterlimit="79.8403" stroke-linecap="round" stroke-linejoin="round"/>
<path d="M49.8 37.7H30.5V40.1H49.8V37.7Z" fill="#00A2E5"/>
<path d="M49.8 37.7H30.5V40.1H49.8V37.7Z" stroke="#0075A6" stroke-width="0.8062" stroke-miterlimit="79.8403" stroke-linecap="round" stroke-linejoin="round"/>
<path d="M24.8999 41.7V37.7H28.8999V41.8" stroke="#0075A6" stroke-width="0.8062" stroke-miterlimit="79.8403" stroke-linecap="round" stroke-linejoin="round"/>
<path d="M36.8999 37.7V40.1" stroke="#0075A6" stroke-width="0.8062" stroke-miterlimit="79.8403" stroke-linecap="round" stroke-linejoin="round"/>
<path d="M43.3999 37.7V40.1" stroke="#0075A6" stroke-width="0.8062" stroke-miterlimit="79.8403" stroke-linecap="round" stroke-linejoin="round"/>
<path d="M31.3998 27.2H25.6997V30.4H31.3998V27.2Z" fill="#00A2E5"/>
<path d="M31.3998 27.2H25.6997V30.4H31.3998V27.2Z" stroke="#0075A6" stroke-width="0.8062" stroke-miterlimit="79.8403" stroke-linecap="round" stroke-linejoin="round"/>
<path d="M40.2997 27.2002H34.5996V30.4002H40.2997V27.2002Z" fill="#00A2E5"/>
<path d="M40.2997 27.2002H34.5996V30.4002H40.2997V27.2002Z" stroke="#0075A6" stroke-width="0.8062" stroke-miterlimit="79.8403" stroke-linecap="round" stroke-linejoin="round"/>
<path d="M13.5996 37.7002H20.0996" stroke="#0075A6" stroke-width="0.8062" stroke-miterlimit="79.8403" stroke-linecap="round" stroke-linejoin="round"/>
<path d="M13.5996 39.3H20.0996" stroke="#0075A6" stroke-width="0.8062" stroke-miterlimit="79.8403" stroke-linecap="round" stroke-linejoin="round"/>
<path d="M52.1998 37.7H55.3999" stroke="#0075A6" stroke-width="0.8062" stroke-miterlimit="79.8403" stroke-linecap="round" stroke-linejoin="round"/>
<path d="M52.1998 39.3H55.3999" stroke="#0075A6" stroke-width="0.8062" stroke-miterlimit="79.8403" stroke-linecap="round" stroke-linejoin="round"/>
<path d="M53.4999 77.9001L50.8999 72.4001C52.0999 71.9001 52.5999 70.4001 52.0999 69.2001C51.5999 68.0001 50.0999 67.5001 48.8999 68.0001L46.2999 62.5001C45.9999 61.9001 46.2999 61.2001 46.8999 60.9001L81.8999 44.6001C82.4999 44.3001 83.1999 44.6001 83.4999 45.2001L86.0999 50.7001C84.8999 51.2001 84.3999 52.7001 84.8999 53.9001C85.3999 55.1001 86.8999 55.6001 88.0999 55.1001L90.6998 60.6001C90.9998 61.2001 90.6998 61.9001 90.1998 62.2001L54.9999 78.5001C54.4999 78.8001 53.6999 78.6001 53.4999 77.9001Z" stroke="white" stroke-width="3.225" stroke-miterlimit="79.8403" stroke-linecap="round" stroke-linejoin="round"/>
<path fill-rule="evenodd" clip-rule="evenodd" d="M53.4999 77.9001L50.8999 72.4001C52.0999 71.9001 52.5999 70.4001 52.0999 69.2001C51.5999 68.0001 50.0999 67.5001 48.8999 68.0001L46.2999 62.5001C45.9999 61.9001 46.2999 61.2001 46.8999 60.9001L81.8999 44.6001C82.4999 44.3001 83.1999 44.6001 83.4999 45.2001L86.0999 50.7001C84.8999 51.2001 84.3999 52.7001 84.8999 53.9001C85.3999 55.1001 86.8999 55.6001 88.0999 55.1001L90.6998 60.6001C90.9998 61.2001 90.6998 61.9001 90.1998 62.2001L54.9999 78.5001C54.4999 78.8001 53.6999 78.6001 53.4999 77.9001Z" fill="white"/>
<path d="M53.4999 77.9001L50.8999 72.4001C52.0999 71.9001 52.5999 70.4001 52.0999 69.2001C51.5999 68.0001 50.0999 67.5001 48.8999 68.0001L46.2999 62.5001C45.9999 61.9001 46.2999 61.2001 46.8999 60.9001L81.8999 44.6001C82.4999 44.3001 83.1999 44.6001 83.4999 45.2001L86.0999 50.7001C84.8999 51.2001 84.3999 52.7001 84.8999 53.9001C85.3999 55.1001 86.8999 55.6001 88.0999 55.1001L90.6998 60.6001C90.9998 61.2001 90.6998 61.9001 90.1998 62.2001L54.9999 78.5001C54.4999 78.8001 53.6999 78.6001 53.4999 77.9001Z" stroke="#0075A6" stroke-width="1.6125" stroke-miterlimit="79.8403" stroke-linecap="round" stroke-linejoin="round"/>
<path d="M77.6998 48.9001L77.9999 49.7001" stroke="#0075A6" stroke-width="0.8062" stroke-miterlimit="79.8403" stroke-linecap="round" stroke-linejoin="round"/>
<path d="M78.7999 51.0002L79.0999 51.8002" stroke="#0075A6" stroke-width="0.8062" stroke-miterlimit="79.8403" stroke-linecap="round" stroke-linejoin="round"/>
<path d="M79.6998 53.2002L79.9999 54.0002" stroke="#0075A6" stroke-width="0.8062" stroke-miterlimit="79.8403" stroke-linecap="round" stroke-linejoin="round"/>
<path d="M80.7999 55.4001L81.0999 56.2001" stroke="#0075A6" stroke-width="0.8062" stroke-miterlimit="79.8403" stroke-linecap="round" stroke-linejoin="round"/>
<path d="M81.7999 57.6001L82.0999 58.4001" stroke="#0075A6" stroke-width="0.8062" stroke-miterlimit="79.8403" stroke-linecap="round" stroke-linejoin="round"/>
<path d="M82.7999 59.7002L83.0999 60.5002" stroke="#0075A6" stroke-width="0.8062" stroke-miterlimit="79.8403" stroke-linecap="round" stroke-linejoin="round"/>
<path d="M83.7999 62.0002L84.0999 62.8002" stroke="#0075A6" stroke-width="0.8062" stroke-miterlimit="79.8403" stroke-linecap="round" stroke-linejoin="round"/>
<path d="M80.9999 61.7002L76.3999 51.9002C76.0999 51.1002 75.1999 50.8002 74.4999 51.1002L52.1998 61.4002C51.3998 61.7002 51.0999 62.6002 51.3999 63.3002L55.9999 73.1002C56.2999 73.9002 57.1999 74.2002 57.8999 73.9002L80.1998 63.6002C81.0998 63.3002 81.2999 62.4002 80.9999 61.7002Z" stroke="#0075A6" stroke-width="0.8062" stroke-miterlimit="79.8403" stroke-linecap="round" stroke-linejoin="round"/>
<path d="M59.5001 67.1L74.1001 60.3" stroke="#0075A6" stroke-width="0.8062" stroke-miterlimit="79.8403" stroke-linecap="round" stroke-linejoin="round"/>
<path d="M50.2999 78.8V72.8C51.5999 72.8 52.7999 71.7 52.7999 70.4C52.7999 69.1 51.6999 68 50.2999 68V62C50.2999 61.4 50.7999 60.8 51.4999 60.8H90.1998C90.7998 60.8 91.3999 61.3 91.3999 62V68C90.0999 68 88.8999 69.1 88.8999 70.4C88.8999 71.7 89.9999 72.8 91.3999 72.8V78.8C91.3999 79.4 90.8998 80 90.1998 80H51.4999C50.7999 80 50.2999 79.4 50.2999 78.8Z" stroke="white" stroke-width="3.225" stroke-miterlimit="79.8403" stroke-linecap="round" stroke-linejoin="round"/>
<path fill-rule="evenodd" clip-rule="evenodd" d="M50.2999 78.8V72.8C51.5999 72.8 52.7999 71.7 52.7999 70.4C52.7999 69.1 51.6999 68 50.2999 68V62C50.2999 61.4 50.7999 60.8 51.4999 60.8H90.1998C90.7998 60.8 91.3999 61.3 91.3999 62V68C90.0999 68 88.8999 69.1 88.8999 70.4C88.8999 71.7 89.9999 72.8 91.3999 72.8V78.8C91.3999 79.4 90.8998 80 90.1998 80H51.4999C50.7999 80 50.2999 79.4 50.2999 78.8Z" fill="white"/>
<path d="M50.2999 78.8V72.8C51.5999 72.8 52.7999 71.7 52.7999 70.4C52.7999 69.1 51.6999 68 50.2999 68V62C50.2999 61.4 50.7999 60.8 51.4999 60.8H90.1998C90.7998 60.8 91.3999 61.3 91.3999 62V68C90.0999 68 88.8999 69.1 88.8999 70.4C88.8999 71.7 89.9999 72.8 91.3999 72.8V78.8C91.3999 79.4 90.8998 80 90.1998 80H51.4999C50.7999 80 50.2999 79.4 50.2999 78.8Z" stroke="#0075A6" stroke-width="1.6125" stroke-miterlimit="79.8403" stroke-linecap="round" stroke-linejoin="round"/>
<path d="M84.5999 62.6001V63.5001" stroke="#0075A6" stroke-width="0.8062" stroke-miterlimit="79.8403" stroke-linecap="round" stroke-linejoin="round"/>
<path d="M84.5999 65.1001V66.0001" stroke="#0075A6" stroke-width="0.8062" stroke-miterlimit="79.8403" stroke-linecap="round" stroke-linejoin="round"/>
<path d="M84.5999 67.5V68.4" stroke="#0075A6" stroke-width="0.8062" stroke-miterlimit="79.8403" stroke-linecap="round" stroke-linejoin="round"/>
<path d="M84.5999 70V70.9" stroke="#0075A6" stroke-width="0.8062" stroke-miterlimit="79.8403" stroke-linecap="round" stroke-linejoin="round"/>
<path d="M84.5999 72.3V73.2" stroke="#0075A6" stroke-width="0.8062" stroke-miterlimit="79.8403" stroke-linecap="round" stroke-linejoin="round"/>
<path d="M84.5999 74.8V75.7" stroke="#0075A6" stroke-width="0.8062" stroke-miterlimit="79.8403" stroke-linecap="round" stroke-linejoin="round"/>
<path d="M84.5999 77.2002V78.1002" stroke="#0075A6" stroke-width="0.8062" stroke-miterlimit="79.8403" stroke-linecap="round" stroke-linejoin="round"/>
<path d="M57.5999 77.2001H79.1998C80.7998 77.2001 82.0999 75.9001 82.0999 74.3001V66.3001C82.0999 64.7001 80.7998 63.4001 79.1998 63.4001H57.5999C55.9999 63.4001 54.6998 64.7001 54.6998 66.3001V74.3001C54.6998 75.9001 55.9999 77.2001 57.5999 77.2001Z" stroke="#0075A6" stroke-width="0.8062" stroke-miterlimit="79.8403" stroke-linecap="round" stroke-linejoin="round"/>
<path d="M61.8999 69.1001H74.7999" stroke="#0075A6" stroke-width="0.8062" stroke-miterlimit="79.8403" stroke-linecap="round" stroke-linejoin="round"/>
<path d="M60.3999 71.6001H76.4999" stroke="#0075A6" stroke-width="0.8062" stroke-miterlimit="79.8403" stroke-linecap="round" stroke-linejoin="round"/>
</svg>
