<svg width="93" height="82" viewBox="0 0 93 82" fill="none" xmlns="http://www.w3.org/2000/svg">
<path d="M46.5 80.0999C68.3152 80.0999 86 62.3704 86 40.4999C86 18.6294 68.3152 0.899902 46.5 0.899902C24.6848 0.899902 7 18.6294 7 40.4999C7 62.3704 24.6848 80.0999 46.5 80.0999Z" stroke="#0075A6" stroke-width="1.6125" stroke-miterlimit="79.8403" stroke-linecap="round" stroke-linejoin="round"/>
<path d="M91.3 53H1.90002" stroke="white" stroke-width="2.4187" stroke-miterlimit="79.8403" stroke-linecap="round" stroke-linejoin="round"/>
<path d="M46.5 41.3C46.9418 41.3 47.3 40.9418 47.3 40.5C47.3 40.0581 46.9418 39.7 46.5 39.7C46.0582 39.7 45.7 40.0581 45.7 40.5C45.7 40.9418 46.0582 41.3 46.5 41.3Z" fill="#999999"/>
<path d="M8.30005 44.2V48.2H11.5V44.2" stroke="white" stroke-width="2.4187" stroke-miterlimit="79.8403" stroke-linecap="round" stroke-linejoin="round"/>
<path d="M84.8 44.2V48.2H81.6V44.2" stroke="white" stroke-width="2.4187" stroke-miterlimit="79.8403" stroke-linecap="round" stroke-linejoin="round"/>
<path d="M60.3 48.0999H32.9" stroke="#0075A6" stroke-width="0.8062" stroke-miterlimit="79.8403" stroke-linecap="round" stroke-linejoin="round"/>
<path d="M91.3 51.3999H1.90002" stroke="white" stroke-width="2.4187" stroke-miterlimit="79.8403" stroke-linecap="round" stroke-linejoin="round"/>
<path d="M88 44.2H5V46.7H88V44.2Z" stroke="white" stroke-width="2.4187" stroke-miterlimit="79.8403" stroke-linecap="round" stroke-linejoin="round"/>
<path d="M88 44.2H5V46.7H88V44.2Z" fill="#00A2E5"/>
<path d="M88 44.2H5V46.7H88V44.2Z" stroke="#0075A6" stroke-width="0.8062" stroke-miterlimit="79.8403" stroke-linecap="round" stroke-linejoin="round"/>
<path fill-rule="evenodd" clip-rule="evenodd" d="M20.0002 47V49.4H27.3003V47H20.0002Z" fill="#00A2E5"/>
<path d="M29.7 51.3998C31.2463 51.3998 32.5 50.1462 32.5 48.5998C32.5 47.0534 31.2463 45.7998 29.7 45.7998C28.1536 45.7998 26.9 47.0534 26.9 48.5998C26.9 50.1462 28.1536 51.3998 29.7 51.3998Z" fill="white"/>
<path d="M29.7 51.3998C31.2463 51.3998 32.5 50.1462 32.5 48.5998C32.5 47.0534 31.2463 45.7998 29.7 45.7998C28.1536 45.7998 26.9 47.0534 26.9 48.5998C26.9 50.1462 28.1536 51.3998 29.7 51.3998Z" stroke="#0075A6" stroke-width="0.8062" stroke-miterlimit="79.8403" stroke-linecap="round" stroke-linejoin="round"/>
<path d="M29.7 49.7999C30.3627 49.7999 30.9 49.2626 30.9 48.5999C30.9 47.9372 30.3627 47.3999 29.7 47.3999C29.0372 47.3999 28.5 47.9372 28.5 48.5999C28.5 49.2626 29.0372 49.7999 29.7 49.7999Z" stroke="#0075A6" stroke-width="0.8062" stroke-miterlimit="79.8403" stroke-linecap="round" stroke-linejoin="round"/>
<path d="M17.5 51.3998C19.0464 51.3998 20.3 50.1462 20.3 48.5998C20.3 47.0534 19.0464 45.7998 17.5 45.7998C15.9536 45.7998 14.7 47.0534 14.7 48.5998C14.7 50.1462 15.9536 51.3998 17.5 51.3998Z" fill="white"/>
<path d="M17.5 51.3998C19.0464 51.3998 20.3 50.1462 20.3 48.5998C20.3 47.0534 19.0464 45.7998 17.5 45.7998C15.9536 45.7998 14.7 47.0534 14.7 48.5998C14.7 50.1462 15.9536 51.3998 17.5 51.3998Z" stroke="#0075A6" stroke-width="0.8062" stroke-miterlimit="79.8403" stroke-linecap="round" stroke-linejoin="round"/>
<path d="M17.5 49.7999C18.1627 49.7999 18.7 49.2626 18.7 48.5999C18.7 47.9372 18.1627 47.3999 17.5 47.3999C16.8373 47.3999 16.3 47.9372 16.3 48.5999C16.3 49.2626 16.8373 49.7999 17.5 49.7999Z" stroke="#0075A6" stroke-width="0.8062" stroke-miterlimit="79.8403" stroke-linecap="round" stroke-linejoin="round"/>
<path d="M20.0002 46.5H21.1002L22.2002 48.1H25.3003L26.4003 46.5H27.5002" stroke="#0075A6" stroke-width="0.8062" stroke-miterlimit="79.8403" stroke-linecap="round" stroke-linejoin="round"/>
<path d="M23.5002 44.8999V48.0999" stroke="#0075A6" stroke-width="0.8062" stroke-miterlimit="79.8403" stroke-linecap="round" stroke-linejoin="round"/>
<path d="M26.8 49.7H20.4" stroke="#0075A6" stroke-width="0.8062" stroke-miterlimit="79.8403" stroke-linecap="round" stroke-linejoin="round"/>
<path fill-rule="evenodd" clip-rule="evenodd" d="M73.2 47V49.4H65.9V47H73.2Z" fill="#00A2E5"/>
<path d="M63.5 51.3998C65.0464 51.3998 66.3 50.1462 66.3 48.5998C66.3 47.0534 65.0464 45.7998 63.5 45.7998C61.9536 45.7998 60.7 47.0534 60.7 48.5998C60.7 50.1462 61.9536 51.3998 63.5 51.3998Z" fill="white"/>
<path d="M63.5 51.3998C65.0464 51.3998 66.3 50.1462 66.3 48.5998C66.3 47.0534 65.0464 45.7998 63.5 45.7998C61.9536 45.7998 60.7 47.0534 60.7 48.5998C60.7 50.1462 61.9536 51.3998 63.5 51.3998Z" stroke="#0075A6" stroke-width="0.8062" stroke-miterlimit="79.8403" stroke-linecap="round" stroke-linejoin="round"/>
<path d="M63.5 49.7999C64.1627 49.7999 64.7 49.2626 64.7 48.5999C64.7 47.9372 64.1627 47.3999 63.5 47.3999C62.8373 47.3999 62.3 47.9372 62.3 48.5999C62.3 49.2626 62.8373 49.7999 63.5 49.7999Z" stroke="#0075A6" stroke-width="0.8062" stroke-miterlimit="79.8403" stroke-linecap="round" stroke-linejoin="round"/>
<path d="M75.6 51.3998C77.1464 51.3998 78.4 50.1462 78.4 48.5998C78.4 47.0534 77.1464 45.7998 75.6 45.7998C74.0536 45.7998 72.8 47.0534 72.8 48.5998C72.8 50.1462 74.0536 51.3998 75.6 51.3998Z" fill="white"/>
<path d="M75.6 51.3998C77.1464 51.3998 78.4 50.1462 78.4 48.5998C78.4 47.0534 77.1464 45.7998 75.6 45.7998C74.0536 45.7998 72.8 47.0534 72.8 48.5998C72.8 50.1462 74.0536 51.3998 75.6 51.3998Z" stroke="#0075A6" stroke-width="0.8062" stroke-miterlimit="79.8403" stroke-linecap="round" stroke-linejoin="round"/>
<path d="M75.6 49.7999C76.2627 49.7999 76.8 49.2626 76.8 48.5999C76.8 47.9372 76.2627 47.3999 75.6 47.3999C74.9372 47.3999 74.4 47.9372 74.4 48.5999C74.4 49.2626 74.9372 49.7999 75.6 49.7999Z" stroke="#0075A6" stroke-width="0.8062" stroke-miterlimit="79.8403" stroke-linecap="round" stroke-linejoin="round"/>
<path d="M73.2 46.5H72.1L71 48.1H67.9L66.8 46.5H65.7" stroke="#0075A6" stroke-width="0.8062" stroke-miterlimit="79.8403" stroke-linecap="round" stroke-linejoin="round"/>
<path d="M69.5002 44.8999V48.0999" stroke="#0075A6" stroke-width="0.8062" stroke-miterlimit="79.8403" stroke-linecap="round" stroke-linejoin="round"/>
<path d="M66.3 49.7H72.7" stroke="#0075A6" stroke-width="0.8062" stroke-miterlimit="79.8403" stroke-linecap="round" stroke-linejoin="round"/>
<path d="M89.4 26.8999H3.90002V43.8999H89.4V26.8999Z" stroke="white" stroke-width="3.225" stroke-miterlimit="79.8403" stroke-linecap="round" stroke-linejoin="round"/>
<path d="M89.4 26.8999H3.90002V43.8999H89.4V26.8999Z" fill="#00A2E5"/>
<path d="M89.6 39.2998H3.40002V41.6998H89.6V39.2998Z" fill="#85DBF6"/>
<path fill-rule="evenodd" clip-rule="evenodd" d="M3.90002 43V29.2H1.40002V43H3.90002Z" fill="#85DBF6"/>
<path fill-rule="evenodd" clip-rule="evenodd" d="M89.3 43V29.2H91.8V43H89.3Z" fill="#85DBF6"/>
<path d="M89.4 26.8999H3.90002V43.8999H89.4V26.8999Z" stroke="#0075A6" stroke-width="1.6125" stroke-miterlimit="79.8403" stroke-linecap="round" stroke-linejoin="round"/>
<path d="M6.69995 43.6999V31.2999C6.69995 30.7999 7.09998 30.3999 7.59998 30.3999H12.3C12.8 30.3999 13.2 30.7999 13.2 31.2999V43.7999H6.69995V43.6999Z" stroke="#0075A6" stroke-width="0.8062" stroke-miterlimit="79.8403" stroke-linecap="round" stroke-linejoin="round"/>
<path fill-rule="evenodd" clip-rule="evenodd" d="M42.9 32.9V36.8C42.9 37.3 43.3 37.7 43.8 37.7H49.3C49.8 37.7 50.2 37.3 50.2 36.8V32.9C50.2 32.4 49.8 32 49.3 32H43.8C43.3 32 42.9 32.4 42.9 32.9Z" fill="white"/>
<path d="M42.9 32.9V36.8C42.9 37.3 43.3 37.7 43.8 37.7H49.3C49.8 37.7 50.2 37.3 50.2 36.8V32.9C50.2 32.4 49.8 32 49.3 32H43.8C43.3 32 42.9 32.4 42.9 32.9Z" stroke="#0075A6" stroke-width="0.8062" stroke-miterlimit="79.8403" stroke-linecap="round" stroke-linejoin="round"/>
<path fill-rule="evenodd" clip-rule="evenodd" d="M15.5 32.9V36.8C15.5 37.3 15.9 37.7 16.4 37.7H17.9C18.4 37.7 18.8 37.3 18.8 36.8V32.9C18.8 32.4 18.4 32 17.9 32H16.4C15.9 32 15.5 32.4 15.5 32.9Z" fill="white"/>
<path d="M15.5 32.9V36.8C15.5 37.3 15.9 37.7 16.4 37.7H17.9C18.4 37.7 18.8 37.3 18.8 36.8V32.9C18.8 32.4 18.4 32 17.9 32H16.4C15.9 32 15.5 32.4 15.5 32.9Z" stroke="#0075A6" stroke-width="0.8062" stroke-miterlimit="79.8403" stroke-linecap="round" stroke-linejoin="round"/>
<path fill-rule="evenodd" clip-rule="evenodd" d="M8.30005 32.9V36.8C8.30005 37.3 8.69995 37.7 9.19995 37.7H10.7C11.2 37.7 11.6 37.3 11.6 36.8V32.9C11.6 32.4 11.2 32 10.7 32H9.19995C8.69995 32 8.30005 32.4 8.30005 32.9Z" fill="white"/>
<path d="M8.30005 32.9V36.8C8.30005 37.3 8.69995 37.7 9.19995 37.7H10.7C11.2 37.7 11.6 37.3 11.6 36.8V32.9C11.6 32.4 11.2 32 10.7 32H9.19995C8.69995 32 8.30005 32.4 8.30005 32.9Z" stroke="#0075A6" stroke-width="0.8062" stroke-miterlimit="79.8403" stroke-linecap="round" stroke-linejoin="round"/>
<path d="M3.90002 29.2H1.40002V43H3.90002" stroke="#0075A6" stroke-width="1.6125" stroke-miterlimit="79.8403" stroke-linecap="round" stroke-linejoin="round"/>
<path fill-rule="evenodd" clip-rule="evenodd" d="M32.5 32.9V36.8C32.5 37.3 32.9 37.7 33.4 37.7H38.9C39.4 37.7 39.8 37.3 39.8 36.8V32.9C39.8 32.4 39.4 32 38.9 32H33.4C32.9 32 32.5 32.4 32.5 32.9Z" fill="white"/>
<path d="M32.5 32.9V36.8C32.5 37.3 32.9 37.7 33.4 37.7H38.9C39.4 37.7 39.8 37.3 39.8 36.8V32.9C39.8 32.4 39.4 32 38.9 32H33.4C32.9 32 32.5 32.4 32.5 32.9Z" stroke="#0075A6" stroke-width="0.8062" stroke-miterlimit="79.8403" stroke-linecap="round" stroke-linejoin="round"/>
<path fill-rule="evenodd" clip-rule="evenodd" d="M21.9 32.9V36.8C21.9 37.3 22.3 37.7 22.8 37.7H28.3C28.8 37.7 29.2 37.3 29.2 36.8V32.9C29.2 32.4 28.8 32 28.3 32H22.8C22.4 32 21.9 32.4 21.9 32.9Z" fill="white"/>
<path d="M21.9 32.9V36.8C21.9 37.3 22.3 37.7 22.8 37.7H28.3C28.8 37.7 29.2 37.3 29.2 36.8V32.9C29.2 32.4 28.8 32 28.3 32H22.8C22.4 32 21.9 32.4 21.9 32.9Z" stroke="#0075A6" stroke-width="0.8062" stroke-miterlimit="79.8403" stroke-linecap="round" stroke-linejoin="round"/>
<path d="M86.5 43.6999V31.2999C86.5 30.7999 86.1 30.3999 85.6 30.3999H80.9C80.4 30.3999 80 30.7999 80 31.2999V43.7999H86.5V43.6999Z" stroke="#0075A6" stroke-width="0.8062" stroke-miterlimit="79.8403" stroke-linecap="round" stroke-linejoin="round"/>
<path fill-rule="evenodd" clip-rule="evenodd" d="M77.6 32.9V36.8C77.6 37.3 77.2 37.7 76.7 37.7H75.2C74.7 37.7 74.3 37.3 74.3 36.8V32.9C74.3 32.4 74.7 32 75.2 32H76.7C77.2 32 77.6 32.4 77.6 32.9Z" fill="white"/>
<path d="M77.6 32.9V36.8C77.6 37.3 77.2 37.7 76.7 37.7H75.2C74.7 37.7 74.3 37.3 74.3 36.8V32.9C74.3 32.4 74.7 32 75.2 32H76.7C77.2 32 77.6 32.4 77.6 32.9Z" stroke="#0075A6" stroke-width="0.8062" stroke-miterlimit="79.8403" stroke-linecap="round" stroke-linejoin="round"/>
<path fill-rule="evenodd" clip-rule="evenodd" d="M84.9 32.9V36.8C84.9 37.3 84.5 37.7 84 37.7H82.5C82 37.7 81.6 37.3 81.6 36.8V32.9C81.6 32.4 82 32 82.5 32H84C84.5 32 84.9 32.4 84.9 32.9Z" fill="white"/>
<path d="M84.9 32.9V36.8C84.9 37.3 84.5 37.7 84 37.7H82.5C82 37.7 81.6 37.3 81.6 36.8V32.9C81.6 32.4 82 32 82.5 32H84C84.5 32 84.9 32.4 84.9 32.9Z" stroke="#0075A6" stroke-width="0.8062" stroke-miterlimit="79.8403" stroke-linecap="round" stroke-linejoin="round"/>
<path d="M89.3 29.2H91.8V43H89.3" stroke="#0075A6" stroke-width="1.6125" stroke-miterlimit="79.8403" stroke-linecap="round" stroke-linejoin="round"/>
<path fill-rule="evenodd" clip-rule="evenodd" d="M60.6 32.9V36.8C60.6 37.3 60.2 37.7 59.7 37.7H54.2C53.7 37.7 53.3 37.3 53.3 36.8V32.9C53.3 32.4 53.7 32 54.2 32H59.7C60.3 32 60.6 32.4 60.6 32.9Z" fill="white"/>
<path d="M60.6 32.9V36.8C60.6 37.3 60.2 37.7 59.7 37.7H54.2C53.7 37.7 53.3 37.3 53.3 36.8V32.9C53.3 32.4 53.7 32 54.2 32H59.7C60.3 32 60.6 32.4 60.6 32.9Z" stroke="#0075A6" stroke-width="0.8062" stroke-miterlimit="79.8403" stroke-linecap="round" stroke-linejoin="round"/>
<path fill-rule="evenodd" clip-rule="evenodd" d="M71.2 32.9V36.8C71.2 37.3 70.8 37.7 70.3 37.7H64.8C64.3 37.7 63.9 37.3 63.9 36.8V32.9C63.9 32.4 64.3 32 64.8 32H70.3C70.7 32 71.2 32.4 71.2 32.9Z" fill="white"/>
<path d="M71.2 32.9V36.8C71.2 37.3 70.8 37.7 70.3 37.7H64.8C64.3 37.7 63.9 37.3 63.9 36.8V32.9C63.9 32.4 64.3 32 64.8 32H70.3C70.7 32 71.2 32.4 71.2 32.9Z" stroke="#0075A6" stroke-width="0.8062" stroke-miterlimit="79.8403" stroke-linecap="round" stroke-linejoin="round"/>
<path d="M89.6 39.2998H3.40002V41.6998H89.6V39.2998Z" stroke="#0075A6" stroke-width="0.8062" stroke-miterlimit="79.8403" stroke-linecap="round" stroke-linejoin="round"/>
<path d="M5.80005 33.5999V42.3999" stroke="white" stroke-width="0.8062" stroke-miterlimit="79.8403" stroke-linecap="round" stroke-linejoin="round"/>
<path d="M13.9 33.5999V42.3999" stroke="white" stroke-width="0.8062" stroke-miterlimit="79.8403" stroke-linecap="round" stroke-linejoin="round"/>
<path d="M87.3 33.5999V42.3999" stroke="white" stroke-width="0.8062" stroke-miterlimit="79.8403" stroke-linecap="round" stroke-linejoin="round"/>
<path d="M79.2 33.5999V42.3999" stroke="white" stroke-width="0.8062" stroke-miterlimit="79.8403" stroke-linecap="round" stroke-linejoin="round"/>
<path d="M8.30005 44.2V48.2H11.5V44.2" stroke="#0075A6" stroke-width="0.8062" stroke-miterlimit="79.8403" stroke-linecap="round" stroke-linejoin="round"/>
<path d="M91.3 51.3999H1.90002" stroke="#0075A6" stroke-width="0.8062" stroke-miterlimit="79.8403" stroke-linecap="round" stroke-linejoin="round"/>
<path d="M84.8 44.2V48.2H81.6V44.2" stroke="#0075A6" stroke-width="0.8062" stroke-miterlimit="79.8403" stroke-linecap="round" stroke-linejoin="round"/>
<path d="M81.6 45.7998H84.8" stroke="#0075A6" stroke-width="0.8062" stroke-miterlimit="79.8403" stroke-linecap="round" stroke-linejoin="round"/>
<path d="M91.3 53H1.90002" stroke="#0075A6" stroke-width="0.8062" stroke-miterlimit="79.8403" stroke-linecap="round" stroke-linejoin="round"/>
<path d="M53 77.8999L50.4 72.3999C51.6 71.8999 52.1 70.3999 51.6 69.1999C51.1 67.9999 49.6 67.4999 48.4 67.9999L45.8001 62.4999C45.5001 61.8999 45.8 61.1999 46.4 60.8999L81.4 44.5999C82 44.2999 82.7 44.5999 83 45.0999L85.6 50.5999C84.4 51.0999 83.9 52.5999 84.4 53.7999C84.9 54.9999 86.4 55.4999 87.6 54.9999L90.2 60.4999C90.5 61.0999 90.2 61.7999 89.7 62.0999L54.5 78.4999C54.1 78.7999 53.3 78.5999 53 77.8999Z" stroke="white" stroke-width="3.225" stroke-miterlimit="79.8403" stroke-linecap="round" stroke-linejoin="round"/>
<path fill-rule="evenodd" clip-rule="evenodd" d="M53 77.8999L50.4 72.3999C51.6 71.8999 52.1 70.3999 51.6 69.1999C51.1 67.9999 49.6 67.4999 48.4 67.9999L45.8001 62.4999C45.5001 61.8999 45.8 61.1999 46.4 60.8999L81.4 44.5999C82 44.2999 82.7 44.5999 83 45.0999L85.6 50.5999C84.4 51.0999 83.9 52.5999 84.4 53.7999C84.9 54.9999 86.4 55.4999 87.6 54.9999L90.2 60.4999C90.5 61.0999 90.2 61.7999 89.7 62.0999L54.5 78.4999C54.1 78.7999 53.3 78.5999 53 77.8999Z" fill="white"/>
<path d="M53 77.8999L50.4 72.3999C51.6 71.8999 52.1 70.3999 51.6 69.1999C51.1 67.9999 49.6 67.4999 48.4 67.9999L45.8001 62.4999C45.5001 61.8999 45.8 61.1999 46.4 60.8999L81.4 44.5999C82 44.2999 82.7 44.5999 83 45.0999L85.6 50.5999C84.4 51.0999 83.9 52.5999 84.4 53.7999C84.9 54.9999 86.4 55.4999 87.6 54.9999L90.2 60.4999C90.5 61.0999 90.2 61.7999 89.7 62.0999L54.5 78.4999C54.1 78.7999 53.3 78.5999 53 77.8999Z" stroke="#0075A6" stroke-width="1.6125" stroke-miterlimit="79.8403" stroke-linecap="round" stroke-linejoin="round"/>
<path d="M77.3 48.8999L77.6 49.6999" stroke="#0075A6" stroke-width="0.8062" stroke-miterlimit="79.8403" stroke-linecap="round" stroke-linejoin="round"/>
<path d="M78.3 51L78.6 51.8" stroke="#0075A6" stroke-width="0.8062" stroke-miterlimit="79.8403" stroke-linecap="round" stroke-linejoin="round"/>
<path d="M79.3 53.2L79.6 54" stroke="#0075A6" stroke-width="0.8062" stroke-miterlimit="79.8403" stroke-linecap="round" stroke-linejoin="round"/>
<path d="M80.3 55.3999L80.6 56.1999" stroke="#0075A6" stroke-width="0.8062" stroke-miterlimit="79.8403" stroke-linecap="round" stroke-linejoin="round"/>
<path d="M81.4 57.5999L81.7 58.3999" stroke="#0075A6" stroke-width="0.8062" stroke-miterlimit="79.8403" stroke-linecap="round" stroke-linejoin="round"/>
<path d="M82.3 59.7L82.6 60.5" stroke="#0075A6" stroke-width="0.8062" stroke-miterlimit="79.8403" stroke-linecap="round" stroke-linejoin="round"/>
<path d="M83.4 62L83.7 62.8" stroke="#0075A6" stroke-width="0.8062" stroke-miterlimit="79.8403" stroke-linecap="round" stroke-linejoin="round"/>
<path d="M80.5999 61.7L76 51.9C75.7 51.1 74.7999 50.8 74.0999 51.1L51.8 61.4C51 61.7 50.7 62.6 51 63.3L55.5999 73.1C55.8999 73.9 56.8 74.2 57.5 73.9L79.8 63.6C80.6 63.3 80.8999 62.4 80.5999 61.7Z" stroke="#0075A6" stroke-width="0.8062" stroke-miterlimit="79.8403" stroke-linecap="round" stroke-linejoin="round"/>
<path d="M59.1 67.1999L73.7 60.3999" stroke="#0075A6" stroke-width="0.8062" stroke-miterlimit="79.8403" stroke-linecap="round" stroke-linejoin="round"/>
<path d="M49.8 78.7998V72.7998C51.1 72.7998 52.3 71.6998 52.3 70.3998C52.3 69.0998 51.2 67.9998 49.8 67.9998V61.9998C49.8 61.3998 50.3 60.7998 51 60.7998H89.7C90.3 60.7998 90.9 61.2998 90.9 61.9998V67.9998C89.6 67.9998 88.4 69.0998 88.4 70.3998C88.4 71.6998 89.5 72.7998 90.9 72.7998V78.7998C90.9 79.3998 90.4 79.9998 89.7 79.9998H51C50.3 79.9998 49.8 79.3998 49.8 78.7998Z" stroke="white" stroke-width="3.225" stroke-miterlimit="79.8403" stroke-linecap="round" stroke-linejoin="round"/>
<path fill-rule="evenodd" clip-rule="evenodd" d="M49.8 78.7998V72.7998C51.1 72.7998 52.3 71.6998 52.3 70.3998C52.3 69.0998 51.2 67.9998 49.8 67.9998V61.9998C49.8 61.3998 50.3 60.7998 51 60.7998H89.7C90.2999 60.7998 90.9 61.2998 90.9 61.9998V67.9998C89.6 67.9998 88.4 69.0998 88.4 70.3998C88.4 71.6998 89.5 72.7998 90.9 72.7998V78.7998C90.9 79.3998 90.4 79.9998 89.7 79.9998H51C50.3 79.9998 49.8 79.3998 49.8 78.7998Z" fill="white"/>
<path d="M49.8 78.7998V72.7998C51.1 72.7998 52.3 71.6998 52.3 70.3998C52.3 69.0998 51.2 67.9998 49.8 67.9998V61.9998C49.8 61.3998 50.3 60.7998 51 60.7998H89.7C90.3 60.7998 90.9 61.2998 90.9 61.9998V67.9998C89.6 67.9998 88.4 69.0998 88.4 70.3998C88.4 71.6998 89.5 72.7998 90.9 72.7998V78.7998C90.9 79.3998 90.4 79.9998 89.7 79.9998H51C50.3 79.9998 49.8 79.3998 49.8 78.7998Z" stroke="#0075A6" stroke-width="1.6125" stroke-miterlimit="79.8403" stroke-linecap="round" stroke-linejoin="round"/>
<path d="M84.1 62.5999V63.4999" stroke="#0075A6" stroke-width="0.8062" stroke-miterlimit="79.8403" stroke-linecap="round" stroke-linejoin="round"/>
<path d="M84.1 65.0999V65.9999" stroke="#0075A6" stroke-width="0.8062" stroke-miterlimit="79.8403" stroke-linecap="round" stroke-linejoin="round"/>
<path d="M84.1 67.4998V68.3998" stroke="#0075A6" stroke-width="0.8062" stroke-miterlimit="79.8403" stroke-linecap="round" stroke-linejoin="round"/>
<path d="M84.1 69.9998V70.8998" stroke="#0075A6" stroke-width="0.8062" stroke-miterlimit="79.8403" stroke-linecap="round" stroke-linejoin="round"/>
<path d="M84.1 72.2998V73.1998" stroke="#0075A6" stroke-width="0.8062" stroke-miterlimit="79.8403" stroke-linecap="round" stroke-linejoin="round"/>
<path d="M84.1 74.7998V75.6998" stroke="#0075A6" stroke-width="0.8062" stroke-miterlimit="79.8403" stroke-linecap="round" stroke-linejoin="round"/>
<path d="M84.1 77.2V78.1" stroke="#0075A6" stroke-width="0.8062" stroke-miterlimit="79.8403" stroke-linecap="round" stroke-linejoin="round"/>
<path d="M57.1 77.1999H78.7C80.3 77.1999 81.6 75.8999 81.6 74.2999V66.2999C81.6 64.6999 80.3 63.3999 78.7 63.3999H57.1C55.5 63.3999 54.2 64.6999 54.2 66.2999V74.2999C54.2 75.8999 55.6 77.1999 57.1 77.1999Z" stroke="#0075A6" stroke-width="0.8062" stroke-miterlimit="79.8403" stroke-linecap="round" stroke-linejoin="round"/>
<path d="M61.5 69.0999H74.4" stroke="#0075A6" stroke-width="0.8062" stroke-miterlimit="79.8403" stroke-linecap="round" stroke-linejoin="round"/>
<path d="M59.9 71.5999H76" stroke="#0075A6" stroke-width="0.8062" stroke-miterlimit="79.8403" stroke-linecap="round" stroke-linejoin="round"/>
</svg>
