<svg width="102" height="82" viewBox="0 0 102 82" fill="none" xmlns="http://www.w3.org/2000/svg">
<path fill-rule="evenodd" clip-rule="evenodd" d="M92 41.2001C92 19.5001 74.3 1.6001 52.5 1.6001C30.7 1.6001 13 19.4001 13 41.2001C13 63.0001 30.7 80.7001 52.6 80.7001C74.5 80.7001 92 63.0001 92 41.2001Z" fill="white"/>
<path d="M92 41.2001C92 19.5001 74.3 1.6001 52.5 1.6001C30.7 1.6001 13 19.4001 13 41.2001C13 63.0001 30.7 80.7001 52.6 80.7001C74.5 80.7001 92 63.0001 92 41.2001Z" stroke="#0075A6" stroke-width="1.6151" stroke-miterlimit="10" stroke-linecap="round" stroke-linejoin="round"/>
<path d="M25.1 27.4001C26 27.6001 26.8 28.0001 27.7 28.2001C28.6 28.3001 29.4001 28.2001 30.3001 28.2001C30.8001 28.2001 31.5001 28.1001 32.0001 28.2001C33.8001 28.5001 35.5001 28.8001 37.4001 28.3001C38.0001 28.1001 39.0001 28.6001 40.0001 28.8001C40.3001 28.5001 40.8 27.9001 41.2 27.4001C42.4 26.1001 43.5001 25.9001 45.0001 27.0001C46.6001 28.1001 48.7 27.8001 50.1 26.2001C50.9 25.4001 51.8 24.8001 52.7 24.2001C53.3 23.7001 54.1 23.2001 54.6 22.7001C55.8 21.6001 57.0001 21.1001 58.5001 21.8001C58.7001 21.9001 59.0001 22.0001 59.4001 22.1001C60.8001 22.5001 61.2 23.0001 61.2 24.5001C61.2 26.3001 61.6001 26.6001 63.4001 26.0001C64.7001 25.6001 65.9 26.0001 67.1 26.5001C70.2 27.9001 69.7001 28.0001 71.4001 25.1001C71.8001 24.5001 72.3 23.7001 72.7 23.1001C73.5 22.1001 74.4 21.7001 75.6 21.6001C76.4 21.6001 77.2 21.3001 77.7 20.8001C78.9 19.9001 80.1 19.2001 81.6 18.9001C82.5 18.7001 82.9 18.0001 83.1 17.3001C83.7 14.9001 85.3001 13.4001 87.3001 12.2001C87.8001 11.9001 88.5001 11.6001 88.9001 11.1001C89.7001 10.5001 90.4001 9.8001 90.9001 9.0001C91.9001 7.7001 92.7001 7.5001 94.0001 8.5001C95.6001 9.8001 95.7001 11.0001 94.3001 12.5001C93.8001 13.1001 93.2 13.9001 92.6 14.6001C93 14.8001 93.4 15.0001 93.6 15.0001C95.4 15.4001 96 16.6001 96.2 18.3001C96.4 20.3001 96.6001 22.5001 95.8001 24.4001C95.2001 25.9001 95.5 27.3001 96.7 28.5001C99.2 31.1001 100.1 34.2001 100.7 37.6001C100.7 37.8001 100.8 38.1001 100.7 38.4001C100.6 38.7001 100.4 39.2001 100.2 39.3001C99.9 39.4001 99.4 39.2001 99.1 39.0001C98.1 38.5001 97.3 37.6001 96.2 37.4001C93.5 37.0001 92.4001 34.8001 92.4001 32.1001C92.4001 31.6001 92.5001 31.1001 92.5001 30.6001C92.5001 30.4001 92.6001 30.2001 92.5001 30.0001C92.2001 29.6001 91.7001 29.1001 91.3001 28.6001C91.0001 29.0001 90.4001 29.5001 90.3001 30.0001C90.2001 30.4001 90.4 31.0001 90.6 31.4001C91.6 33.5001 91.2001 34.4001 89.3001 35.8001C87.8001 36.9001 86.5 38.2001 85.2 39.3001C84.6 39.9001 84.3 40.7001 84.6 41.7001C84.8 42.3001 84.6001 43.1001 84.5001 43.8001C84.5001 44.1001 84.3 44.4001 84.2 45.0001C84.7 44.8001 85.2 44.7001 85.6 44.6001C86.6 44.2001 87.4001 44.3001 88.3001 44.9001C89.7001 45.9001 90.8 47.2001 91.2 48.8001C91.8 50.9001 92.3 53.1001 92.7 55.2001C93.2 58.1001 91.8001 60.5001 90.0001 62.6001C89.2001 63.5001 88.2 63.4001 86.7 62.4001C85.7 61.8001 85.3 61.0001 85.7 59.9001C85.9 59.3001 86.3 58.7001 86.6 58.1001C86.8 57.6001 86.9 57.0001 87.2 56.4001C86.6 56.5001 86.2001 56.4001 85.9001 56.6001C84.2001 57.2001 82.5001 56.9001 80.8001 56.2001C79.9001 55.9001 79.1001 55.1001 78.4001 54.4001C77.1001 53.0001 76.4 52.8001 74.6 53.8001C75.4 55.7001 74.3001 57.3001 73.5001 59.1001C73.3001 59.6001 72.3 60.0001 71.7 60.3001C70.4 60.8001 69 61.3001 67.6 61.8001C66.5 62.2001 65.7 62.1001 64.7 61.8001C64.1 61.6001 63.4001 61.2001 62.8001 60.9001C62.2001 60.8001 61.3001 60.7001 60.8001 61.0001C59.8001 61.5001 59.2001 61.4001 58.3001 60.9001C58.1001 60.7001 57.8001 60.6001 57.5001 60.4001C56.5001 59.6001 56.2001 59.8001 56.0001 60.9001C55.7001 62.2001 55 62.7001 53.7 62.3001C52 61.8001 50.4 61.8001 48.6 62.4001C48.1 62.6001 47.4001 62.4001 46.8001 62.3001C46.3001 62.2001 45.8001 62.1001 45.3001 62.0001C44.9001 61.9001 44.4 61.9001 44.1 61.7001C43.1 60.7001 42.0001 60.4001 40.8001 59.9001C40.3001 59.7001 39.8001 58.9001 39.5001 58.4001C39.3001 58.1001 39.3 57.6001 39.2 57.3001C39 55.6001 38.2001 54.3001 36.4001 53.8001C35.9001 53.6001 35.4001 52.9001 35.0001 52.6001C34.5001 52.2001 34.0001 51.6001 33.5001 51.4001C32.0001 51.0001 30.4001 50.8001 28.8001 50.4001C27.8001 50.2001 27.3001 50.9001 27.0001 51.8001C26.2001 53.7001 26.1 53.8001 24.2 53.0001C23.9 52.9001 23.7001 52.8001 23.3001 52.7001C21.1001 52.3001 19.6001 51.1001 18.9001 49.0001C18.6001 48.2001 17.9 47.9001 17.1 47.9001C15.1 47.7001 13.7 48.9001 13.6 50.9001C13.5 52.7001 13.2001 52.9001 11.3001 53.3001C10.9001 53.4001 10.4 53.7001 10.2 54.2001C9.60001 55.1001 9.20003 56.1001 8.60003 57.0001C8.10003 57.9001 7.50003 57.8001 7.10003 56.9001C5.80003 54.2001 4.40003 51.6001 3.10003 48.9001C2.60003 47.8001 2.10008 46.5001 1.90008 45.4001C1.70008 44.2001 2.30006 43.7001 3.50006 43.7001C4.50006 43.7001 5.50006 43.6001 6.50006 43.4001C7.80006 43.1001 8.30011 42.2001 7.80011 41.0001C7.20011 39.5001 6.90011 38.1001 7.80011 36.6001C7.80011 36.5001 7.90011 36.4001 7.80011 36.3001C7.50011 34.4001 8.40008 33.0001 9.40008 31.5001C9.60008 31.2001 9.70011 31.0001 9.80011 30.6001C10.3001 28.0001 12.3001 27.1001 14.5001 26.4001C15.5001 26.1001 16.5001 26.2001 17.5001 25.9001C18.3001 25.7001 19.1 25.5001 19.7 24.9001C20.9 23.8001 21.9001 22.6001 22.9001 21.6001C24.7001 19.6001 26.9 19.9001 28.2 22.2001C28.7 23.3001 29 24.5001 28.6 25.6001C28.2 27.2001 27.0001 27.9001 25.3001 27.5001C25.1001 27.1001 25.1 27.2001 25.1 27.4001ZM25.1 51.2001C25.2 51.0001 25.3001 50.7001 25.4001 50.4001C26.0001 49.2001 26.9001 48.1001 28.4001 48.4001C30.2001 48.6001 32.2001 49.0001 34.0001 49.4001C35.1001 49.6001 35.9001 50.2001 36.4001 51.2001C36.5001 51.5001 36.9001 51.8001 37.3001 52.0001C39.2001 52.6001 40.4 53.8001 40.6 55.9001C40.6 56.1001 40.7 56.3001 40.7 56.4001C40.9 57.5001 41.5 58.3001 42.7 58.3001C43 58.3001 43.3 58.5001 43.6 58.6001C44.5 59.5001 45.5 59.8001 46.7 60.1001C47.7 60.4001 48.4001 60.4001 49.3001 60.1001C50.5001 59.6001 51.7001 59.5001 53.0001 60.0001C53.4001 60.2001 53.9001 60.2001 54.3001 60.3001C55.3001 57.6001 56.3001 57.1001 58.5001 58.5001C59.3001 59.0001 59.9001 59.1001 60.8001 58.7001C61.3001 58.5001 62.1 58.5001 62.6 58.6001C63.4 58.7001 64 59.1001 64.6 59.5001C65.7 60.0001 66.8001 60.0001 67.8001 59.4001C68.7001 59.0001 69.6001 58.6001 70.5001 58.4001C71.5001 58.2001 72.4001 58.1001 72.5001 56.8001C72.6001 55.8001 73.5001 55.1001 73.0001 54.0001C72.6001 52.9001 72.9001 52.3001 73.9001 51.7001C75.7001 50.8001 78.0001 50.6001 79.5001 52.8001C79.8001 53.3001 80.4001 53.9001 80.9001 54.1001C82.4001 54.6001 83.8001 55.2001 85.5001 54.5001C86.4001 54.2001 87.3 54.2001 88.1 55.0001C88.7 55.9001 88.7001 56.7001 88.3001 57.7001C88.0001 58.3001 87.7001 59.0001 87.3001 59.5001C87.1001 59.9001 87.0001 60.4001 87.5001 60.6001C87.9001 60.8001 88.5001 61.4001 89.0001 60.7001C90.0001 59.5001 90.9001 58.2001 90.9001 56.6001C91.1001 53.3001 90.3 50.2001 88.7 47.2001C87.7 45.4001 87.1001 45.3001 85.0001 45.9001H84.9001C84.1001 45.7001 83.2001 45.7001 82.5001 45.3001C81.7001 44.9001 82.4001 44.1001 82.5001 43.5001C82.6001 42.9001 82.9 42.1001 82.7 41.5001C82.3 40.2001 82.6001 39.1001 83.5001 38.3001C84.8001 36.9001 86.3 35.6001 87.7 34.4001C89.4 33.0001 89.5 33.1001 88.7 31.0001C88.2 29.6001 88.8 27.7001 90.2 26.9001C91.3 26.3001 92.5001 26.7001 93.5001 28.1001C93.8001 28.5001 94.0001 29.2001 94.0001 29.7001C94.0001 30.6001 93.9001 31.4001 93.9001 32.2001C93.8001 34.0001 94.7001 35.0001 96.4001 35.5001C97.2001 35.7001 97.8001 35.9001 98.5001 36.1001C98.5001 36.0001 98.5001 35.9001 98.5001 35.8001C98.5001 35.6001 98.4001 35.4001 98.4001 35.2001C98.0001 32.7001 96.7 30.8001 95.1 29.0001C93.8 27.5001 93.4 25.9001 94.1 24.1001C94.9 22.3001 94.7001 20.4001 94.5001 18.5001C94.4001 17.2001 94 16.5001 92.7 16.0001C91 15.6001 90.7 14.5001 91.6 13.0001C92.1 12.0001 92.9 11.2001 93.6 10.2001C93.3 9.90011 93.1001 9.4001 92.5001 9.0001C91.6001 11.1001 89.9 12.0001 88.2 13.0001C86.4 14.1001 85.0001 15.5001 84.4001 17.5001C84.1001 18.8001 83.2001 19.8001 81.8001 20.1001C80.5001 20.4001 79.5001 21.2001 78.5001 21.8001C77.6001 22.3001 76.7 22.8001 75.6 22.9001C74.6 23.0001 74 23.3001 73.6 24.1001C73 25.3001 72.2 26.4001 71.6 27.5001C70.7 28.8001 69.9001 29.1001 68.5001 28.6001C67.6001 28.3001 66.8001 27.8001 66.0001 27.5001C65.1001 27.2001 64.4001 27.1001 63.5001 27.4001C61.4001 28.2001 59.7 27.0001 59.7 24.7001C59.7 24.4001 59.7001 23.8001 59.5001 23.6001C58.9001 22.7001 56.7001 22.7001 55.8001 23.5001C55.0001 24.1001 54.2001 24.8001 53.4001 25.3001C52.6001 25.8001 51.8 26.4001 51.1 27.0001C49.2 29.0001 46.4 29.5001 44.1 28.0001C43.3 27.5001 42.8001 27.6001 42.3001 28.2001C41.8001 28.8001 41.2 29.5001 40.6 30.0001C40.1 30.4001 39.5001 30.5001 39.0001 30.0001C38.1001 29.2001 37.2 29.1001 36.1 29.8001C35.3 30.2001 34.7001 30.2001 33.8001 29.8001C33.2001 29.6001 32.5001 29.4001 31.9001 29.4001C30.5001 29.3001 29.1 29.5001 27.7 29.4001C25.7 29.3001 23.9 28.6001 23.1 26.6001C22.6 25.4001 23.2001 24.2001 24.5001 24.2001C25.0001 24.2001 25.6001 24.6001 26.3001 25.1001C26.4001 24.8001 26.8001 24.3001 26.8001 23.8001C26.7001 23.0001 26.5 22.2001 26.2 21.5001C25.7 20.5001 24.9 20.5001 24.2 21.4001C23 22.7001 21.8 23.9001 20.7 25.2001C19.7 26.3001 18.5 26.5001 17.2 26.6001C15.9 26.7001 14.5 27.1001 13.2 27.7001C12.4 28.0001 11.9001 28.9001 11.5001 29.5001C11.0001 30.4001 10.6 31.3001 10.1 32.2001C9.60003 33.1001 9.20011 33.9001 9.30011 34.9001C9.30011 35.4001 9.20006 36.1001 9.00006 36.6001C8.60006 37.5001 8.70006 38.2001 9.00006 39.0001C10.1001 41.7001 9.10001 43.4001 6.20001 44.1001C5.20001 44.3001 4.30001 44.3001 3.20001 44.4001C4.30001 47.7001 5.80008 50.8001 7.90008 53.5001C8.20008 53.0001 8.40008 52.3001 8.90008 51.9001C9.40008 51.4001 10.1 50.8001 10.7 50.8001C11.7 50.7001 11.8001 50.3001 11.8001 49.5001C11.7001 48.4001 12.1001 47.5001 13.0001 46.7001C14.2001 45.7001 15.5001 45.3001 17.0001 45.4001C18.5001 45.5001 19.7001 46.0001 20.3001 47.4001C20.8001 48.9001 21.9001 49.8001 23.4001 50.1001C24.0001 50.8001 24.5 51.0001 25.1 51.2001Z" fill="#0074A5" stroke="white" stroke-width="2.15" stroke-miterlimit="10"/>
<path d="M25.1 51.2C24.5 51 23.8 50.8 23.7 50.2C22.2 49.9 21.1 49.1 20.5 47.6C20 46.1 18.6 45.5 17.1 45.5C15.6 45.4 14.5 45.8 13.3 46.7C12.4 47.5 12 48.3 12.1 49.5C12.1 50.3 12 50.7 11 50.8C10.4 50.9 9.69995 51.4 9.19995 51.9C8.79995 52.3 8.59995 53 8.19995 53.5C6.09995 50.8 4.5 47.7 3.5 44.4C4.6 44.3 5.5 44.3 6.5 44.1C9.4 43.6 10.3 41.7 9.30005 39C9.00005 38.1 8.90005 37.4 9.30005 36.6C9.50005 36.1 9.69998 35.4 9.59998 34.9C9.49998 33.8 9.80002 33 10.4 32.2C10.9 31.3 11.3 30.4 11.8 29.5C12.2 28.7 12.8 28 13.5 27.7C14.7 27.2 16.1 26.7 17.5 26.6C18.9 26.5 20.1 26.2 21 25.2C22.2 23.9 23.4 22.7 24.5 21.4C25.3 20.6 26 20.5 26.5 21.5C26.9 22.1 27.1 23 27.1 23.8C27.1 24.2 26.7 24.8 26.6 25.1C25.8 24.7 25.3 24.2 24.8 24.2C23.5 24.2 22.9 25.4 23.4 26.6C24.3 28.6 26.1 29.3 28 29.4C29.4 29.5 30.8 29.4 32.2 29.4C32.8 29.4 33.5 29.6 34.1 29.8C34.9 30.1 35.6 30.2 36.4 29.8C37.5 29.2 38.4 29.3 39.3 30C39.8 30.5 40.4 30.4 40.9 30C41.5 29.5 42.1 28.8 42.6 28.2C43.1 27.6 43.7 27.4 44.4 28C46.7 29.5 49.6 29.1 51.4 27C52 26.4 52.9 25.8 53.7 25.3C54.5 24.7 55.3 24.1 56.1 23.5C57 22.7 59.1 22.9 59.8 23.6C60 23.8 60 24.2 60 24.7C60 27 61.6 28.1 63.8 27.4C64.7001 27.1 65.4 27.1 66.3 27.5C67.2001 27.9 67.9 28.3 68.8 28.6C70.3 29.1 71.2 28.8 71.9 27.5C72.7 26.3 73.3 25.2 73.9 24.1C74.3 23.3 75 23 75.9 22.9C76.8 22.8 77.9 22.4 78.8 21.8C79.9 21 80.8 20.4 82.1 20.1C83.5 19.8 84.3999 18.8 84.7 17.5C85.2 15.5 86.6 14.1 88.5 13C90.2 12 91.9 11.1 92.8 9C93.2001 9.5 93.6 9.9 93.9 10.2C93.1 11.2 92.4 12 91.9 13C90.9 14.5 91.3 15.6 93 16C94.4 16.4 94.7001 17.2 94.8 18.5C95 20.4 95 22.3 94.4 24.1C93.6 25.9 94.1 27.5 95.4 29C97 30.8 98.2999 32.8 98.7 35.2C98.7 35.4 98.8 35.6 98.8 35.8C98.8 35.9 98.8 36 98.8 36.1C98 35.9 97.4 35.7 96.6 35.5C94.9 35.1 94.1 34 94.1 32.2C94.1 31.3 94.2999 30.5 94.2 29.7C94.2 29.2 94 28.5 93.7 28.1C92.6 26.7 91.4 26.4 90.4 26.9C89 27.7 88.4 29.7 88.9 31C89.8 33.1 89.8 33 87.9 34.4C86.4 35.6 85 36.9 83.7 38.3C82.7999 39.2 82.6 40.2 82.9 41.5C83.1 42.1 82.7999 42.9 82.7 43.5C82.6 44.1 81.8999 44.9 82.7 45.3C83.2999 45.7 84.2 45.7 85.1 45.9H85.2C87.2 45.3 87.9 45.4 88.9 47.2C90.4 50.1 91.4 53.3 91.1 56.7C91 58.3 90 59.5 89.1 60.7C88.6 61.5 87.9 61 87.5 60.8C87 60.6 87 60 87.2 59.6C87.5 59 88 58.4 88.2 57.7C88.6 56.8 88.6 56 88 55.1C87.2 54.2 86.5 54.3 85.6 54.6C84 55.2 82.4 54.7 80.9 54.1C80.4 53.9 79.8 53.3 79.5 52.8C78 50.7 76 50.9 74.2 51.8C73.1 52.2 72.7999 52.8 73.2 53.9C73.6 55 72.7999 55.7 72.7 56.7C72.6 57.9 71.7 58.2 70.7 58.4C69.7 58.6 68.8 58.9 68 59.3C66.9 59.9 65.7 60 64.6 59.4C64 59.1 63.3 58.6 62.6 58.5C62 58.4 61.4 58.4 60.9 58.6C60 59 59.5 59 58.6 58.5C56.4 57.1 55.3 57.5 54.4 60.3C54 60.2 53.5 60.2 53.1 60C51.9 59.5 50.7 59.5 49.5 60.1C48.6 60.4 47.7001 60.5 46.8 60.1C45.7001 59.8 44.6 59.5 43.7 58.6C43.5 58.4 43.2 58.3 42.9 58.3C41.6 58.3 41 57.7 40.8 56.7C40.8 56.5 40.6 55.9 40.6 55.8C40.4 53.8 39.3 52.7 37.4 52C37.1 51.9 36.5 51.5 36.4 51.2C36 50.1 35.1 49.6 34.1 49.4C32.3 49 30.5 48.7 28.5 48.4C27 48.2 26.3 49.2 25.6 50.3C25.7 50.3 25.3 51 25.1 51.2Z" fill="#84DAF5"/>
<path d="M25.1 27.4001C26 27.6001 26.8 28.0001 27.7 28.2001C28.6 28.3001 29.4001 28.2001 30.3001 28.2001C30.8001 28.2001 31.5001 28.1001 32.0001 28.2001C33.8001 28.5001 35.5001 28.8001 37.4001 28.3001C38.0001 28.1001 39.0001 28.6001 40.0001 28.8001C40.3001 28.5001 40.8 27.9001 41.2 27.4001C42.4 26.1001 43.5001 25.9001 45.0001 27.0001C46.6001 28.1001 48.7 27.8001 50.1 26.2001C50.9 25.4001 51.8 24.8001 52.7 24.2001C53.3 23.7001 54.1 23.2001 54.6 22.7001C55.8 21.6001 57.0001 21.1001 58.5001 21.8001C58.7001 21.9001 59.0001 22.0001 59.4001 22.1001C60.8001 22.5001 61.2 23.0001 61.2 24.5001C61.2 26.3001 61.6001 26.6001 63.4001 26.0001C64.7001 25.6001 65.9 26.0001 67.1 26.5001C70.2 27.9001 69.7001 28.0001 71.4001 25.1001C71.8001 24.5001 72.3 23.7001 72.7 23.1001C73.5 22.1001 74.4 21.7001 75.6 21.6001C76.4 21.6001 77.2 21.3001 77.7 20.8001C78.9 19.9001 80.1 19.2001 81.6 18.9001C82.5 18.7001 82.9 18.0001 83.1 17.3001C83.7 14.9001 85.3001 13.4001 87.3001 12.2001C87.8001 11.9001 88.5001 11.6001 88.9001 11.1001C89.7001 10.5001 90.4001 9.8001 90.9001 9.0001C91.9001 7.7001 92.7001 7.5001 94.0001 8.5001C95.6001 9.8001 95.7001 11.0001 94.3001 12.5001C93.8001 13.1001 93.2 13.9001 92.6 14.6001C93 14.8001 93.4 15.0001 93.6 15.0001C95.4 15.4001 96 16.6001 96.2 18.3001C96.4 20.3001 96.6001 22.5001 95.8001 24.4001C95.2001 25.9001 95.5 27.3001 96.7 28.5001C99.2 31.1001 100.1 34.2001 100.7 37.6001C100.7 37.8001 100.8 38.1001 100.7 38.4001C100.6 38.7001 100.4 39.2001 100.2 39.3001C99.9 39.4001 99.4 39.2001 99.1 39.0001C98.1 38.5001 97.3 37.6001 96.2 37.4001C93.5 37.0001 92.4001 34.8001 92.4001 32.1001C92.4001 31.6001 92.5001 31.1001 92.5001 30.6001C92.5001 30.4001 92.6001 30.2001 92.5001 30.0001C92.2001 29.6001 91.7001 29.1001 91.3001 28.6001C91.0001 29.0001 90.4001 29.5001 90.3001 30.0001C90.2001 30.4001 90.4 31.0001 90.6 31.4001C91.6 33.5001 91.2001 34.4001 89.3001 35.8001C87.8001 36.9001 86.5 38.2001 85.2 39.3001C84.6 39.9001 84.3 40.7001 84.6 41.7001C84.8 42.3001 84.6001 43.1001 84.5001 43.8001C84.5001 44.1001 84.3 44.4001 84.2 45.0001C84.7 44.8001 85.2 44.7001 85.6 44.6001C86.6 44.2001 87.4001 44.3001 88.3001 44.9001C89.7001 45.9001 90.8 47.2001 91.2 48.8001C91.8 50.9001 92.3 53.1001 92.7 55.2001C93.2 58.1001 91.8001 60.5001 90.0001 62.6001C89.2001 63.5001 88.2 63.4001 86.7 62.4001C85.7 61.8001 85.3 61.0001 85.7 59.9001C85.9 59.3001 86.3 58.7001 86.6 58.1001C86.8 57.6001 86.9 57.0001 87.2 56.4001C86.6 56.5001 86.2001 56.4001 85.9001 56.6001C84.2001 57.2001 82.5001 56.9001 80.8001 56.2001C79.9001 55.9001 79.1001 55.1001 78.4001 54.4001C77.1001 53.0001 76.4 52.8001 74.6 53.8001C75.4 55.7001 74.3001 57.3001 73.5001 59.1001C73.3001 59.6001 72.3 60.0001 71.7 60.3001C70.4 60.8001 69 61.3001 67.6 61.8001C66.5 62.2001 65.7 62.1001 64.7 61.8001C64.1 61.6001 63.4001 61.2001 62.8001 60.9001C62.2001 60.8001 61.3001 60.7001 60.8001 61.0001C59.8001 61.5001 59.2001 61.4001 58.3001 60.9001C58.1001 60.7001 57.8001 60.6001 57.5001 60.4001C56.5001 59.6001 56.2001 59.8001 56.0001 60.9001C55.7001 62.2001 55 62.7001 53.7 62.3001C52 61.8001 50.4 61.8001 48.6 62.4001C48.1 62.6001 47.4001 62.4001 46.8001 62.3001C46.3001 62.2001 45.8001 62.1001 45.3001 62.0001C44.9001 61.9001 44.4 61.9001 44.1 61.7001C43.1 60.7001 42.0001 60.4001 40.8001 59.9001C40.3001 59.7001 39.8001 58.9001 39.5001 58.4001C39.3001 58.1001 39.3 57.6001 39.2 57.3001C39 55.6001 38.2001 54.3001 36.4001 53.8001C35.9001 53.6001 35.4001 52.9001 35.0001 52.6001C34.5001 52.2001 34.0001 51.6001 33.5001 51.4001C32.0001 51.0001 30.4001 50.8001 28.8001 50.4001C27.8001 50.2001 27.3001 50.9001 27.0001 51.8001C26.2001 53.7001 26.1 53.8001 24.2 53.0001C23.9 52.9001 23.7001 52.8001 23.3001 52.7001C21.1001 52.3001 19.6001 51.1001 18.9001 49.0001C18.6001 48.2001 17.9 47.9001 17.1 47.9001C15.1 47.7001 13.7 48.9001 13.6 50.9001C13.5 52.7001 13.2001 52.9001 11.3001 53.3001C10.9001 53.4001 10.4 53.7001 10.2 54.2001C9.60001 55.1001 9.20003 56.1001 8.60003 57.0001C8.10003 57.9001 7.50003 57.8001 7.10003 56.9001C5.80003 54.2001 4.40003 51.6001 3.10003 48.9001C2.60003 47.8001 2.10008 46.5001 1.90008 45.4001C1.70008 44.2001 2.30006 43.7001 3.50006 43.7001C4.50006 43.7001 5.50006 43.6001 6.50006 43.4001C7.80006 43.1001 8.30011 42.2001 7.80011 41.0001C7.20011 39.5001 6.90011 38.1001 7.80011 36.6001C7.80011 36.5001 7.90011 36.4001 7.80011 36.3001C7.50011 34.4001 8.40008 33.0001 9.40008 31.5001C9.60008 31.2001 9.70011 31.0001 9.80011 30.6001C10.3001 28.0001 12.3001 27.1001 14.5001 26.4001C15.5001 26.1001 16.5001 26.2001 17.5001 25.9001C18.3001 25.7001 19.1 25.5001 19.7 24.9001C20.9 23.8001 21.9001 22.6001 22.9001 21.6001C24.7001 19.6001 26.9 19.9001 28.2 22.2001C28.7 23.3001 29 24.5001 28.6 25.6001C28.2 27.2001 27.0001 27.9001 25.3001 27.5001C25.1001 27.1001 25.1 27.2001 25.1 27.4001ZM25.1 51.2001C25.2 51.0001 25.3001 50.7001 25.4001 50.4001C26.0001 49.2001 26.9001 48.1001 28.4001 48.4001C30.2001 48.6001 32.2001 49.0001 34.0001 49.4001C35.1001 49.6001 35.9001 50.2001 36.4001 51.2001C36.5001 51.5001 36.9001 51.8001 37.3001 52.0001C39.2001 52.6001 40.4 53.8001 40.6 55.9001C40.6 56.1001 40.7 56.3001 40.7 56.4001C40.9 57.5001 41.5 58.3001 42.7 58.3001C43 58.3001 43.3 58.5001 43.6 58.6001C44.5 59.5001 45.5 59.8001 46.7 60.1001C47.7 60.4001 48.4001 60.4001 49.3001 60.1001C50.5001 59.6001 51.7001 59.5001 53.0001 60.0001C53.4001 60.2001 53.9001 60.2001 54.3001 60.3001C55.3001 57.6001 56.3001 57.1001 58.5001 58.5001C59.3001 59.0001 59.9001 59.1001 60.8001 58.7001C61.3001 58.5001 62.1 58.5001 62.6 58.6001C63.4 58.7001 64 59.1001 64.6 59.5001C65.7 60.0001 66.8001 60.0001 67.8001 59.4001C68.7001 59.0001 69.6001 58.6001 70.5001 58.4001C71.5001 58.2001 72.4001 58.1001 72.5001 56.8001C72.6001 55.8001 73.5001 55.1001 73.0001 54.0001C72.6001 52.9001 72.9001 52.3001 73.9001 51.7001C75.7001 50.8001 78.0001 50.6001 79.5001 52.8001C79.8001 53.3001 80.4001 53.9001 80.9001 54.1001C82.4001 54.6001 83.8001 55.2001 85.5001 54.5001C86.4001 54.2001 87.3 54.2001 88.1 55.0001C88.7 55.9001 88.7001 56.7001 88.3001 57.7001C88.0001 58.3001 87.7001 59.0001 87.3001 59.5001C87.1001 59.9001 87.0001 60.4001 87.5001 60.6001C87.9001 60.8001 88.5001 61.4001 89.0001 60.7001C90.0001 59.5001 90.9001 58.2001 90.9001 56.6001C91.1001 53.3001 90.3 50.2001 88.7 47.2001C87.7 45.4001 87.1001 45.3001 85.0001 45.9001H84.9001C84.1001 45.7001 83.2001 45.7001 82.5001 45.3001C81.7001 44.9001 82.4001 44.1001 82.5001 43.5001C82.6001 42.9001 82.9 42.1001 82.7 41.5001C82.3 40.2001 82.6001 39.1001 83.5001 38.3001C84.8001 36.9001 86.3 35.6001 87.7 34.4001C89.4 33.0001 89.5 33.1001 88.7 31.0001C88.2 29.6001 88.8 27.7001 90.2 26.9001C91.3 26.3001 92.5001 26.7001 93.5001 28.1001C93.8001 28.5001 94.0001 29.2001 94.0001 29.7001C94.0001 30.6001 93.9001 31.4001 93.9001 32.2001C93.8001 34.0001 94.7001 35.0001 96.4001 35.5001C97.2001 35.7001 97.8001 35.9001 98.5001 36.1001C98.5001 36.0001 98.5001 35.9001 98.5001 35.8001C98.5001 35.6001 98.4001 35.4001 98.4001 35.2001C98.0001 32.7001 96.7 30.8001 95.1 29.0001C93.8 27.5001 93.4 25.9001 94.1 24.1001C94.9 22.3001 94.7001 20.4001 94.5001 18.5001C94.4001 17.2001 94 16.5001 92.7 16.0001C91 15.6001 90.7 14.5001 91.6 13.0001C92.1 12.0001 92.9 11.2001 93.6 10.2001C93.3 9.90011 93.1001 9.4001 92.5001 9.0001C91.6001 11.1001 89.9 12.0001 88.2 13.0001C86.4 14.1001 85.0001 15.5001 84.4001 17.5001C84.1001 18.8001 83.2001 19.8001 81.8001 20.1001C80.5001 20.4001 79.5001 21.2001 78.5001 21.8001C77.6001 22.3001 76.7 22.8001 75.6 22.9001C74.6 23.0001 74 23.3001 73.6 24.1001C73 25.3001 72.2 26.4001 71.6 27.5001C70.7 28.8001 69.9001 29.1001 68.5001 28.6001C67.6001 28.3001 66.8001 27.8001 66.0001 27.5001C65.1001 27.2001 64.4001 27.1001 63.5001 27.4001C61.4001 28.2001 59.7 27.0001 59.7 24.7001C59.7 24.4001 59.7001 23.8001 59.5001 23.6001C58.9001 22.7001 56.7001 22.7001 55.8001 23.5001C55.0001 24.1001 54.2001 24.8001 53.4001 25.3001C52.6001 25.8001 51.8 26.4001 51.1 27.0001C49.2 29.0001 46.4 29.5001 44.1 28.0001C43.3 27.5001 42.8001 27.6001 42.3001 28.2001C41.8001 28.8001 41.2 29.5001 40.6 30.0001C40.1 30.4001 39.5001 30.5001 39.0001 30.0001C38.1001 29.2001 37.2 29.1001 36.1 29.8001C35.3 30.2001 34.7001 30.2001 33.8001 29.8001C33.2001 29.6001 32.5001 29.4001 31.9001 29.4001C30.5001 29.3001 29.1 29.5001 27.7 29.4001C25.7 29.3001 23.9 28.6001 23.1 26.6001C22.6 25.4001 23.2001 24.2001 24.5001 24.2001C25.0001 24.2001 25.6001 24.6001 26.3001 25.1001C26.4001 24.8001 26.8001 24.3001 26.8001 23.8001C26.7001 23.0001 26.5 22.2001 26.2 21.5001C25.7 20.5001 24.9 20.5001 24.2 21.4001C23 22.7001 21.8 23.9001 20.7 25.2001C19.7 26.3001 18.5 26.5001 17.2 26.6001C15.9 26.7001 14.5 27.1001 13.2 27.7001C12.4 28.0001 11.9001 28.9001 11.5001 29.5001C11.0001 30.4001 10.6 31.3001 10.1 32.2001C9.60003 33.1001 9.20011 33.9001 9.30011 34.9001C9.30011 35.4001 9.20006 36.1001 9.00006 36.6001C8.60006 37.5001 8.70006 38.2001 9.00006 39.0001C10.1001 41.7001 9.10001 43.4001 6.20001 44.1001C5.20001 44.3001 4.30001 44.3001 3.20001 44.4001C4.30001 47.7001 5.80008 50.8001 7.90008 53.5001C8.20008 53.0001 8.40008 52.3001 8.90008 51.9001C9.40008 51.4001 10.1 50.8001 10.7 50.8001C11.7 50.7001 11.8001 50.3001 11.8001 49.5001C11.7001 48.4001 12.1001 47.5001 13.0001 46.7001C14.2001 45.7001 15.5001 45.3001 17.0001 45.4001C18.5001 45.5001 19.7001 46.0001 20.3001 47.4001C20.8001 48.9001 21.9001 49.8001 23.4001 50.1001C24.0001 50.8001 24.5 51.0001 25.1 51.2001Z" fill="#0074A5"/>
<path d="M81.9 50.1001H82L82.1 50.3001H82.2L82.3 50.1001H82.4V50.0001L82.6 49.9001H82.4L82.6 49.8001L82.4 49.7001V49.6001L81.9 50.1001Z" fill="#0075A6"/>
<path d="M77.9 46.5V46.6L78.6 47L79.2 47.6L79.8 48L80.3 48.5L80.8 49.1L81.4 49.6L81.9 50.1L82.4 49.6L81.9 49.1L81.4 48.5L80.8 48.1L80.2 47.6L79.7 47L79 46.5L78.4 46.1V46L77.9 46.5Z" fill="#0075A6"/>
<path d="M78.4 46H78.3V45.8H78.1H78L77.9 46V46.1H77.8V46.2V46.3V46.4V46.5H77.9L78.4 46Z" fill="#0075A6"/>
<path d="M75.8 44.9H75.9H76V45L76.1 44.9H76.2V44.8L76.3 44.7V44.6V44.4L76.2 44.3L75.8 44.9Z" fill="#0075A6"/>
<path d="M71.3 42L72 42.4L72.8 42.8L73.4 43.3L74.1 43.7L74.8 44.2L75.5 44.7L75.8 44.9L76.2 44.3L75.9 44.1L75.1 43.6L74.5 43.2L73.8 42.7L73.1 42.3L72.3 41.9L71.6 41.4V41.3L71.3 42Z" fill="#0075A6"/>
<path d="M71.6 41.3H71.5H71.4H71.3H71.2V41.4L71.1 41.5V41.7V41.8L71.2 41.9L71.3 42L71.6 41.3Z" fill="#0075A6"/>
<path d="M68.8 40.7H68.9H69H69.1H69.2V40.6L69.3 40.5V40.4V40.3V40.1H69.2V40H69.1L68.8 40.7Z" fill="#0075A6"/>
<path d="M64 38.4L64.3 38.5L65 39L65.9 39.3L66.6 39.6L67.5 40L68.3 40.4L68.8 40.7L69.1 40L68.6 39.8L67.7 39.4L67 39.1L66.1 38.6L65.4 38.3L64.5 38L64.2 37.8L64 38.4Z" fill="#0075A6"/>
<path d="M64.2 37.8H64.1H64L63.8 37.9L63.7 38V38.1V38.2V38.3L63.8 38.4H64L64.2 37.8Z" fill="#0075A6"/>
<path d="M61.4 37.5L61.5 37.6H61.6V37.5H61.7L61.8 37.4V37.2V37.1V37V36.9H61.7L61.6 36.8L61.4 37.5Z" fill="#0075A6"/>
<path d="M56.2 36L57.2 36.2L58.2 36.5L59 36.7L59.9 37L60.8 37.2L61.4 37.5L61.6 36.8L60.9 36.7L60.1 36.4L59.2 36.1L58.3 35.8L57.4 35.5L56.4 35.3H56.3L56.2 36Z" fill="#0075A6"/>
<path d="M56.3 35.3H56.2H56.1V35.4H56V35.5V35.6V35.7V35.8H56.1V36H56.2L56.3 35.3Z" fill="#0075A6"/>
<path d="M53.6 35.3002H53.7H53.9V35.2002H54V35.1002V35.0002V34.9002V34.8002H53.9V34.7002H53.7L53.6 35.3002Z" fill="#0075A6"/>
<path d="M48.3 34.5002H48.5L49.4 34.6002L50.4 34.8002L51.5 34.9002L52.5 35.1002L53.4 35.3002H53.6L53.7 34.7002L53.5 34.6002L52.6 34.5002L51.6 34.2002L50.5 34.0002L49.6 33.9002L48.5 33.7002H48.4L48.3 34.5002Z" fill="#0075A6"/>
<path d="M48.4 33.7002H48.3L48.2 33.8002H48V33.9002H47.9V34.0002V34.1002L48 34.2002V34.3002H48.2L48.3 34.5002L48.4 33.7002Z" fill="#0075A6"/>
<path d="M45.6 34.0001L45.7 34.1001V34.0001H45.8L45.9 33.9001V33.8001V33.7001V33.6001V33.5001H45.8H45.7V33.4001L45.6 34.0001Z" fill="#0075A6"/>
<path d="M40.2 33.7001L41.1 33.8001H42.1L43.2 33.9001L44.3 34.0001H45.4H45.6L45.7 33.4001H45.4L44.4 33.3001L43.3 33.2001H42.2L41.2 33.1001H40.2V33.7001Z" fill="#0075A6"/>
<path d="M40.2 33.1001H40.1L40 33.2001H39.9V33.3001V33.4001V33.5001V33.6001V33.7001H40H40.1H40.2V33.1001Z" fill="#0075A6"/>
<path d="M37.5 33.7001H37.6L37.7 33.6001L37.8 33.5001V33.4001V33.3001H37.7V33.2001L37.6 33.1001H37.5V33.7001Z" fill="#0075A6"/>
<path d="M32 33.9001H32.1L33.3 33.8001H34.4L35.6 33.7001H36.7H37.5V33.1001H36.7H35.6L34.4 33.2001H33.2L32 33.3001V33.9001Z" fill="#0075A6"/>
<path d="M32 33.3H31.9H31.8V33.4H31.7V33.5V33.6V33.7V33.8H31.8V33.9H31.9H32V33.3Z" fill="#0075A6"/>
<path d="M29.3 34.1H29.4L29.6 34H29.7V33.9V33.8V33.7L29.6 33.6L29.4 33.5H29.3V34.1Z" fill="#0075A6"/>
<path d="M25 34.7L26.2 34.6L27.4 34.3L28.6 34.2L29.3 34.1V33.5L28.5 33.6L27.3 33.7L26.1 33.8L24.9 34L25 34.7Z" fill="#0075A6"/>
<path d="M24.9 34H24.8V34.1H24.7L24.6 34.2V34.3V34.5L24.7 34.6V34.7H24.8H24.9H25L24.9 34Z" fill="#0075A6"/>
<path d="M81.3 48.2002C82.5 48.2002 83.5 49.2002 83.5 50.3002C83.5 51.4002 82.5 52.4002 81.3 52.4002C80.1 52.4002 79.1 51.4002 79.1 50.3002C79.1 49.2002 80.1 48.2002 81.3 48.2002Z" stroke="white" stroke-width="2.6251" stroke-miterlimit="10" stroke-linecap="round" stroke-linejoin="round"/>
<path d="M81.3 48.2002C82.5 48.2002 83.5 49.2002 83.5 50.3002C83.5 51.4002 82.5 52.4002 81.3 52.4002C80.1 52.4002 79.1 51.4002 79.1 50.3002C79.1 49.2002 80.1 48.2002 81.3 48.2002Z" fill="white"/>
<path d="M81.3 47.8C82.8 47.8 83.9 49 83.9 50.4C83.9 51.9 82.7 53 81.3 53C79.9 53 78.7 51.8 78.7 50.4C78.7 49 79.8 47.8 81.3 47.8Z" stroke="#0075A6" stroke-width="0.875" stroke-miterlimit="10" stroke-linecap="round" stroke-linejoin="round"/>
<path d="M72.1 44.1L72.3001 41.3H72.5C73.5 41.1 73.9 39.8 73.1 39H73L74.3001 36.5C74.6001 36 74.4 35.2 74 34.8C73.5 34.4 72.5001 33.9 71.4001 34.4C71.3001 34.4 71.3 34.5 71.2 34.5H71.1L68.1 36.4L66.6 35.6C66.1 35.4 65.4 35.2 65 35L63.1 34.5L68.5 26.3C69 25.4 68.5001 24.3 67.4001 24.3C66.3001 24.3 65 24.5 64.2 25.4L60.7 29.1L60.3001 28.9C60.0001 28.8 59.5 28.6 59 28.5C58.4 28.3 57.4 28.5 57.1 29.6L56.7 31.2C56.5 31.7 56.6001 32.2 56.8001 32.5L57.1 32.8L56.9001 32.9L53.9001 32C53.1001 31.8 52.3 31.7 51.5 31.7C50.9 31.7 49.8 31.8 49 32.2C48.8 32.3 48.5001 32.6 48.4001 33.2C48.3001 33.6 48.4 34.1 48.5 34.4C48.8 35.2 49.7 35.8 50.2 36.1C50.8 36.5 51.7001 37 52.4001 37.2L55.4001 38.1L55.5 38.3L55.1 38.4C54.8 38.5 54.5 38.8 54.2 39.4L53.8001 41C53.5001 42 54.2001 42.7 54.9001 42.9C55.4001 43 55.9001 43.1 56.3001 43.2L56.7 43.3L57.9001 48.2C58.2001 49.5 59.2 50.3 60.1 50.9C61 51.4 62.1 50.8 62.1 49.7L61.9001 39.9L63.7 40.4C64.2 40.6 64.8001 40.7 65.4001 40.7L67 40.9L68.5 44.1V44.2C68.5 44.3 68.6 44.4 68.6 44.5C69.2 45.4 70.4 45.5 71 45.5C71.5 45.3 72 44.8 72.1 44.1Z" fill="white"/>
<path d="M60.8 32.3L61.1999 30.7C60.2999 30.2 59.9 29.7 58.3 29.3C58.1 29.2 57.7999 29.3 57.6999 29.7L57.3 31.2C57.2 31.5 57.4 31.8 57.6 31.8C59.2 32.4 59.8 32.3 60.8 32.3Z" fill="#85DBF6"/>
<path d="M60.8 32.3L61.1999 30.7C60.2999 30.2 59.9 29.7 58.3 29.3C58.1 29.2 57.7999 29.3 57.6999 29.7L57.3 31.2C57.2 31.5 57.4 31.8 57.6 31.8C59.2 32.4 59.8 32.3 60.8 32.3Z" stroke="#0075A6" stroke-width="0.6693" stroke-miterlimit="10" stroke-linecap="round" stroke-linejoin="round"/>
<path d="M61.6 35.6002C58.2 35.2002 57.3 34.6002 56.5 34.2002C56.9 34.1002 57.4 33.9002 57.7 33.6002L64.9 26.5002C65.4 26.0002 66.3 25.7002 67.2 25.7002L61.2 34.8002C61.1 35.1002 61.3 35.5002 61.6 35.6002Z" fill="#00A2E5"/>
<path d="M58.5 40.5L58.1 42.1C57.1 42.1 56.5 42.2 54.9 41.8C54.7 41.7 54.5 41.5 54.6 41.2L55 39.7C55.1 39.3 55.4 39.3 55.6 39.3C57.2 39.6 57.6 39.9 58.5 40.5Z" fill="#85DBF6"/>
<path d="M58.5 40.5L58.1 42.1C57.1 42.1 56.5 42.2 54.9 41.8C54.7 41.7 54.5 41.5 54.6 41.2L55 39.7C55.1 39.3 55.4 39.3 55.6 39.3C57.2 39.6 57.6 39.9 58.5 40.5Z" stroke="#0075A6" stroke-width="0.6693" stroke-miterlimit="10" stroke-linecap="round" stroke-linejoin="round"/>
<path d="M60.8 38.1002C57.6 36.7002 56.7 36.7002 55.7 36.7002C56 37.0002 56.2 37.5002 56.3 37.9002L58.6 47.8002C58.8 48.6002 59.4 49.2002 60.1 49.6002L59.9 38.6002C60.2 38.2002 60.5 38.0002 60.8 38.1002Z" fill="#00A2E5"/>
<path d="M55.9 36.7002C56.2 37.0002 56.4 37.5002 56.5 37.9002L58.8 47.8002C59 48.6002 59.6 49.2002 60.3 49.6002L60.1 38.6002C60.2 38.3002 60.6 38.1002 61 38.2002" stroke="#0075A6" stroke-width="1.075" stroke-miterlimit="10" stroke-linecap="round" stroke-linejoin="round"/>
<path d="M71.2 39.5002L67.9 38.1002L71.8 35.7002C72.1 35.4002 72.8 35.6002 73.2 35.9002L71.2 39.5002Z" fill="#00A2E5"/>
<path d="M67.9 38.0001L71.8 35.6001C72.1 35.3001 72.8 35.5001 73.2 35.8001L71.3 39.5001" stroke="#0075A6" stroke-width="1.075" stroke-miterlimit="10" stroke-linecap="round" stroke-linejoin="round"/>
<path d="M56.5 34.1001C56.9 34.0001 57.4 33.8001 57.7 33.5001L64.9 26.4001C65.4 25.9001 66.3 25.6001 67.2 25.6001L61.2 34.7001C61.1 35.0001 61.3 35.5001 61.6 35.6001" stroke="#0075A6" stroke-width="1.075" stroke-miterlimit="10" stroke-linecap="round" stroke-linejoin="round"/>
<path d="M71.1 39.9001L67.6 39.4001L69.5 43.5001C69.6 43.9001 70.3 44.1001 70.8 44.0001L71.1 39.9001Z" fill="#00A2E5"/>
<path d="M67.5 39.4001L69.4 43.5001C69.5 43.9001 70.2 44.1001 70.7 44.0001L71 39.9001" stroke="#0075A6" stroke-width="1.075" stroke-miterlimit="10" stroke-linecap="round" stroke-linejoin="round"/>
<path d="M72.2 40.0001C69.5 38.9001 66.4 37.0001 64.4 36.3001L53.1 33.1001C51.8 32.8001 49.4001 32.7001 49.3001 33.3001C49.1001 33.9001 51.1 35.2001 52.4 35.6001L63.7 38.8001C65.8 39.5001 69.4 39.5001 72.2 40.0001Z" fill="#85DBF6"/>
<path d="M72.2 40.0002C69.3 39.6002 65.6 39.5002 63.6 38.9002L52.3001 35.7002C51.0001 35.4002 49.1 34.1002 49.2 33.4002C49.4 32.8002 51.8 32.8002 53 33.2002L64.3001 36.4002C66.4001 37.0002 69.5 39.0002 72.2 40.0002Z" stroke="#0075A6" stroke-width="1.075" stroke-miterlimit="10" stroke-linecap="round" stroke-linejoin="round"/>
<path d="M24.2 32.8L18.7 23.2C18.2 22.2 17.7 21.1 17.7 19.9C17.7 16.4 20.6 13.5 24.1 13.5C27.6 13.5 30.5 16.4 30.5 19.9C30.5 21.1 30.2 22.3 29.5 23.2L24.2 32.8Z" stroke="white" stroke-width="2.5753" stroke-miterlimit="10" stroke-linecap="round" stroke-linejoin="round"/>
<path d="M24.2 32.8L18.7 23.2C18.2 22.2 17.7 21.1 17.7 19.9C17.7 16.4 20.6 13.5 24.1 13.5C27.6 13.5 30.5 16.4 30.5 19.9C30.5 21.1 30.2 22.3 29.5 23.2L24.2 32.8Z" fill="#85DBF6"/>
<path d="M24.2 32.8L18.7 23.2C18.2 22.2 17.7 21.1 17.7 19.9C17.7 16.4 20.6 13.5 24.1 13.5C27.6 13.5 30.5 16.4 30.5 19.9C30.5 21.1 30.2 22.3 29.5 23.2L24.2 32.8Z" stroke="#0075A6" stroke-width="1.2876" stroke-miterlimit="10" stroke-linecap="round" stroke-linejoin="round"/>
<path d="M24.2 17.5C25.6 17.5 26.8 18.7 26.8 20.1C26.8 21.5 25.6 22.7 24.2 22.7C22.8 22.7 21.6 21.5 21.6 20.1C21.6 18.5 22.8 17.5 24.2 17.5Z" fill="white"/>
<path d="M24.2 17.5C25.6 17.5 26.8 18.7 26.8 20.1C26.8 21.5 25.6 22.7 24.2 22.7C22.8 22.7 21.6 21.5 21.6 20.1C21.6 18.5 22.8 17.5 24.2 17.5Z" stroke="#0075A6" stroke-width="1.2876" stroke-miterlimit="10" stroke-linecap="round" stroke-linejoin="round"/>
</svg>
