<svg width="81" height="80" viewBox="0 0 81 80" fill="none" xmlns="http://www.w3.org/2000/svg">
<path d="M40.3002 79.2C61.8945 79.2 79.4002 61.6943 79.4002 40.1C79.4002 18.5057 61.8945 1 40.3002 1C18.7058 1 1.2002 18.5057 1.2002 40.1C1.2002 61.6943 18.7058 79.2 40.3002 79.2Z" stroke="#0075A6" stroke-width="1.5724" stroke-miterlimit="10" stroke-linecap="round" stroke-linejoin="round"/>
<path d="M17.5002 5.6001V67.9001H64.9003V5.6001H17.5002Z" fill="#85DBF6" stroke="#0075A6" stroke-width="1.5724" stroke-miterlimit="10" stroke-linecap="round" stroke-linejoin="round"/>
<path d="M63.4003 66.3001H19.0002V7.1001H63.4003V66.3001Z" fill="white"/>
<path d="M60.6003 19.6001H21.8003" stroke="#0075A6" stroke-width="0.81" stroke-miterlimit="10" stroke-linecap="round" stroke-linejoin="round"/>
<path d="M55.0004 62.2C58.0932 62.2 60.6003 59.6928 60.6003 56.6C60.6003 53.5072 58.0932 51 55.0004 51C51.9076 51 49.4004 53.5072 49.4004 56.6C49.4004 59.6928 51.9076 62.2 55.0004 62.2Z" stroke="#0075A6" stroke-width="0.81" stroke-miterlimit="10" stroke-linecap="round" stroke-linejoin="round"/>
<path d="M55.0003 60.2999C57.0438 60.2999 58.7003 58.6434 58.7003 56.5999C58.7003 54.5565 57.0438 52.8999 55.0003 52.8999C52.9569 52.8999 51.3003 54.5565 51.3003 56.5999C51.3003 58.6434 52.9569 60.2999 55.0003 60.2999Z" fill="#0075A6"/>
<path d="M60.6003 23.7002H21.8003" stroke="#0075A6" stroke-width="0.81" stroke-miterlimit="10" stroke-linecap="round" stroke-linejoin="round"/>
<path d="M60.6003 27.8H21.8003" stroke="#0075A6" stroke-width="0.81" stroke-miterlimit="10" stroke-linecap="round" stroke-linejoin="round"/>
<path d="M60.6003 31.9001H21.8003" stroke="#0075A6" stroke-width="0.81" stroke-miterlimit="10" stroke-linecap="round" stroke-linejoin="round"/>
<path d="M60.6003 36H21.8003" stroke="#0075A6" stroke-width="0.81" stroke-miterlimit="10" stroke-linecap="round" stroke-linejoin="round"/>
<path d="M42.3003 45H21.8003" stroke="#0075A6" stroke-width="0.81" stroke-miterlimit="10" stroke-linecap="round" stroke-linejoin="round"/>
<path d="M42.3003 49H21.8003" stroke="#0075A6" stroke-width="0.81" stroke-miterlimit="10" stroke-linecap="round" stroke-linejoin="round"/>
<path d="M42.3003 53H21.8003" stroke="#0075A6" stroke-width="0.81" stroke-miterlimit="10" stroke-linecap="round" stroke-linejoin="round"/>
<path d="M42.3003 60.8999H34.3003" stroke="#0075A6" stroke-width="0.81" stroke-miterlimit="10" stroke-linecap="round" stroke-linejoin="round"/>
<path d="M29.8003 60.8999H21.8003" stroke="#0075A6" stroke-width="0.81" stroke-miterlimit="10" stroke-linecap="round" stroke-linejoin="round"/>
<path d="M38.0002 15.6001V10.8" stroke="#0075A6" stroke-miterlimit="10" stroke-linecap="round" stroke-linejoin="round"/>
<path d="M38.0002 10.8H39.9003C40.7003 10.8 41.3002 11.4001 41.3002 12.1001C41.3002 12.9001 40.7003 13.5 39.9003 13.5H38.6002" stroke="#0075A6" stroke-miterlimit="10" stroke-linecap="round" stroke-linejoin="round"/>
<path d="M40.1001 13.5L41.2001 15.6" stroke="#0075A6" stroke-miterlimit="10" stroke-linecap="round" stroke-linejoin="round"/>
<path d="M36.2003 10.8V14.3C36.2003 15 35.5002 15.6001 34.6002 15.6001C33.7002 15.6001 33.0002 15 33.0002 14.3V10.8" stroke="#0075A6" stroke-miterlimit="10" stroke-linecap="round" stroke-linejoin="round"/>
<path d="M21.0002 15.6001V10.8" stroke="#0075A6" stroke-miterlimit="10" stroke-linecap="round" stroke-linejoin="round"/>
<path d="M30.8001 11.1001C30.4001 10.9001 30.0001 10.8 29.5001 10.8C28.8001 10.8 28.2001 11.2 28.1001 11.8C28.1001 12.6 28.9001 12.8 29.5001 13.2C30.1001 13.5 30.8001 13.8001 30.8001 14.6001C30.8001 15.3001 30.2001 15.6001 29.5001 15.6001C29.0001 15.6001 28.5001 15.5 28.2001 15.3" stroke="#0075A6" stroke-miterlimit="10" stroke-linecap="round" stroke-linejoin="round"/>
<path d="M58.2002 13.2H59.8002" stroke="#0075A6" stroke-miterlimit="10" stroke-linecap="round" stroke-linejoin="round"/>
<path d="M58.2002 15.6001V10.8" stroke="#0075A6" stroke-miterlimit="10" stroke-linecap="round" stroke-linejoin="round"/>
<path d="M56.3002 11.7C56.1002 11.2 55.5002 10.8 54.8002 10.8C53.9002 10.8 53.2002 11.4001 53.2002 12.1001V14.3C53.2002 15 53.9002 15.6001 54.8002 15.6001C55.5002 15.6001 56.1002 15.2 56.3002 14.7" stroke="#0075A6" stroke-miterlimit="10" stroke-linecap="round" stroke-linejoin="round"/>
<path d="M42.7002 15.6001L44.6002 10.8L46.5002 15.6001" stroke="#0075A6" stroke-miterlimit="10" stroke-linecap="round" stroke-linejoin="round"/>
<path d="M45.8002 14.5H43.5002" stroke="#0075A6" stroke-miterlimit="10" stroke-linecap="round" stroke-linejoin="round"/>
<path d="M22.8003 15.6001V10.8" stroke="#0075A6" stroke-miterlimit="10" stroke-linecap="round" stroke-linejoin="round"/>
<path d="M26.1003 15.6001V10.8" stroke="#0075A6" stroke-miterlimit="10" stroke-linecap="round" stroke-linejoin="round"/>
<path d="M26.1003 15.6001L22.8003 10.8" stroke="#0075A6" stroke-miterlimit="10" stroke-linecap="round" stroke-linejoin="round"/>
<path d="M48.1001 15.6001V10.8" stroke="#0075A6" stroke-miterlimit="10" stroke-linecap="round" stroke-linejoin="round"/>
<path d="M51.3 15.6001V10.8" stroke="#0075A6" stroke-miterlimit="10" stroke-linecap="round" stroke-linejoin="round"/>
<path d="M51.3001 15.6001L48.1001 10.8" stroke="#0075A6" stroke-miterlimit="10" stroke-linecap="round" stroke-linejoin="round"/>
<path d="M58.2002 15.6001H61.4002" stroke="#0075A6" stroke-miterlimit="10" stroke-linecap="round" stroke-linejoin="round"/>
<path d="M58.2002 10.8H61.4002" stroke="#0075A6" stroke-miterlimit="10" stroke-linecap="round" stroke-linejoin="round"/>
<path d="M9.60028 42.6C10.4003 41 10.0003 39.1 9.60028 37.5C9.20028 35.7 9.90029 29 9.30029 27.7" stroke="white" stroke-width="3.1924" stroke-miterlimit="10" stroke-linecap="round" stroke-linejoin="round"/>
<path d="M13.4004 24.3L11.6003 24.4" stroke="white" stroke-width="3.1924" stroke-miterlimit="10" stroke-linecap="round" stroke-linejoin="round"/>
<path d="M13.8004 25.6001H10.9004L11.2004 55.4001C11.2004 55.7001 11.3004 56.0001 11.2004 56.4001C11.4004 59.6001 12.2004 64.7001 12.4004 65.6001H12.7004V66.3001C12.7004 66.4001 12.8004 66.6001 13.0004 66.6001C13.1004 66.6001 13.3004 66.5001 13.3004 66.3001L13.2004 65.6001H13.5004C13.6004 64.8001 14.4004 59.6001 14.5004 56.4001L14.2004 25.7001L13.8004 25.6001Z" stroke="white" stroke-width="3.1924" stroke-miterlimit="10" stroke-linecap="round" stroke-linejoin="round"/>
<path fill-rule="evenodd" clip-rule="evenodd" d="M13.8004 25.6001H10.9004L11.2004 55.4001C11.2004 55.7001 11.3004 56.0001 11.2004 56.4001C11.4004 59.6001 12.2004 64.7001 12.4004 65.6001H12.7004V66.3001C12.7004 66.4001 12.8004 66.6001 13.0004 66.6001C13.1004 66.6001 13.3004 66.5001 13.3004 66.3001L13.2004 65.6001H13.5004C13.6004 64.8001 14.4004 59.6001 14.5004 56.4001L14.2004 25.7001L13.8004 25.6001Z" fill="#00A2E5"/>
<path d="M13.8004 25.6001H10.9004V29.2001H14.3004V25.7001L13.8004 25.6001Z" fill="white"/>
<path d="M11.2002 56.4001C11.4002 59.6001 12.2002 64.7002 12.4002 65.6002H12.7002V66.3002C12.7002 66.4002 12.8002 66.6002 13.0002 66.6002C13.1002 66.6002 13.3002 66.5002 13.3002 66.3002L13.2002 65.6002H13.5002C13.6002 64.8002 14.4002 59.6001 14.5002 56.4001H11.2002Z" fill="white"/>
<path d="M9.60028 42.6C10.4003 41 10.0003 39.1 9.60028 37.5C9.20028 35.7 9.90029 29 9.30029 27.7" stroke="#0075A6" stroke-width="0.81" stroke-miterlimit="10" stroke-linecap="round" stroke-linejoin="round"/>
<path d="M13.4004 24.3L11.6003 24.4" stroke="#0075A6" stroke-width="0.81" stroke-miterlimit="10" stroke-linecap="round" stroke-linejoin="round"/>
<path d="M13.8004 25.6001H10.9004L11.2004 55.4001C11.2004 55.7001 11.3004 56.0001 11.2004 56.4001C11.4004 59.6001 12.2004 64.7001 12.4004 65.6001H12.7004V66.3001C12.7004 66.4001 12.8004 66.6001 13.0004 66.6001C13.1004 66.6001 13.3004 66.5001 13.3004 66.3001L13.2004 65.6001H13.5004C13.6004 64.8001 14.4004 59.6001 14.5004 56.4001L14.2004 25.7001L13.8004 25.6001Z" stroke="#0075A6" stroke-width="0.81" stroke-miterlimit="10" stroke-linecap="round" stroke-linejoin="round"/>
<path d="M53.6002 69.9001C42.3002 64.8001 37.3003 54.0001 36.7003 47.4001C36.2003 41.3001 35.9003 34.1001 36.2003 25.3001C42.2003 25.0001 47.9002 23.6001 53.6002 21.6001C59.3002 23.6001 65.0002 25.0001 71.0002 25.3001C71.2002 34.0001 71.0002 41.3001 70.5002 47.4001C69.9002 54.0001 64.9002 64.8001 53.6002 69.9001Z" stroke="white" stroke-width="3.1924" stroke-miterlimit="10" stroke-linecap="round" stroke-linejoin="round"/>
<path fill-rule="evenodd" clip-rule="evenodd" d="M53.6002 69.9001C42.3002 64.8001 37.3003 54.0001 36.7003 47.4001C36.2003 41.3001 35.9003 34.1001 36.2003 25.3001C42.2003 25.0001 47.9002 23.6001 53.6002 21.6001C59.3002 23.6001 65.0002 25.0001 71.0002 25.3001C71.2002 34.0001 71.0002 41.3001 70.5002 47.4001C69.9002 54.0001 64.9002 64.8001 53.6002 69.9001Z" fill="#00A2E5"/>
<path fill-rule="evenodd" clip-rule="evenodd" d="M36.9004 48.7002C36.9004 48.3002 36.8004 47.8002 36.8004 47.5002C36.3004 41.4002 36.0004 34.2002 36.3004 25.4002C42.3004 25.1002 48.0004 23.7002 53.7004 21.7002C59.4004 23.7002 65.1003 25.1002 71.1003 25.4002C71.3003 34.1002 71.1003 41.4002 70.6003 47.5002C70.6003 47.9002 70.5004 48.3002 70.5004 48.7002C66.3004 50.2002 60.4004 51.1002 53.8004 51.1002C47.0004 51.0002 41.1004 50.1002 36.9004 48.7002Z" fill="#85DBF6"/>
<path fill-rule="evenodd" clip-rule="evenodd" d="M65.5001 51.0001C66.1001 49.4001 66.5001 47.9001 66.5001 46.4001C67.0001 40.4001 67.0001 34.6001 67.0001 30.1001C61.3001 29.8001 59.7001 29.6001 53.6001 28.6001C47.5001 29.6001 45.8001 29.8001 40.1001 30.1001C40.1001 34.6001 40.1001 40.4001 40.6001 46.4001C40.7001 47.8001 41.1001 49.4001 41.6001 51.0001C44.4001 52.7001 48.7001 53.8001 53.5001 53.8001C58.4001 53.8001 62.7001 52.7001 65.5001 51.0001Z" fill="#85DBF6"/>
<path d="M60.7002 41H55.7002V36H51.7002V41H46.7002V45H51.7002V50H55.7002V45H60.7002V41Z" fill="#0075A6"/>
<path d="M53.6002 69.9001C42.3002 64.8001 37.3003 54.0001 36.7003 47.4001C36.2003 41.3001 35.9003 34.1001 36.2003 25.3001C42.2003 25.0001 47.9002 23.6001 53.6002 21.6001C59.3002 23.6001 65.0002 25.0001 71.0002 25.3001C71.2002 34.0001 71.0002 41.3001 70.5002 47.4001C69.9002 54.0001 64.9002 64.8001 53.6002 69.9001Z" stroke="#0075A6" stroke-width="1.5724" stroke-miterlimit="10" stroke-linecap="round" stroke-linejoin="round"/>
<path d="M53.6002 65.7C60.0002 63 66.0002 53.1 66.6002 46.5C67.1002 40.5 67.1002 34.7 67.1002 30.2C61.4002 29.9 59.8002 29.4 53.7002 27.3C47.6002 29.4 45.9002 29.9 40.2002 30.2C40.2002 34.7 40.2002 40.5 40.7002 46.5C41.3002 53 47.2002 63 53.6002 65.7Z" stroke="white" stroke-width="0.81" stroke-miterlimit="10" stroke-linecap="round" stroke-linejoin="round"/>
</svg>
