<svg width="87" height="85" viewBox="0 0 87 85" fill="none" xmlns="http://www.w3.org/2000/svg">
<path d="M43.4999 6.8999C63.7999 6.8999 80.2 23.2999 80.2 43.5999C80.2 63.8999 63.7999 80.3999 43.4999 80.3999C23.1999 80.3999 6.69995 63.9999 6.69995 43.5999C6.69995 23.2999 23.1999 6.8999 43.4999 6.8999Z" stroke="#0075A6" stroke-width="1.5024" stroke-miterlimit="10" stroke-linecap="round" stroke-linejoin="round"/>
<path d="M57.2 21C60.3 23.1 62.3 26.1 62.3 29.4C62.3 32.9 60.1 36.1 56.8 38.1C57.1 40.4 57.9 42.3 58.6 43.6C56 42.8 53.6 41.6 51.9 40.1C50.5 40.4 49 40.6 47.4 40.6C39.9 40.6 33.6 36.4 32.5 31" stroke="white" stroke-width="3.0047" stroke-miterlimit="10" stroke-linecap="round" stroke-linejoin="round"/>
<path d="M22.4999 75.1999C20.8999 67.0999 19.0999 60.3999 16.4999 57.1999C13.4999 57.0999 10.4999 56.2999 7.49994 54.8999C3.69994 62.6999 2.69995 72.4999 2.19995 82.6999H16.4999" stroke="white" stroke-width="3.0047" stroke-miterlimit="10" stroke-linecap="round" stroke-linejoin="round"/>
<path d="M29.1999 75.2V82.7H16.3999C15.1999 82.7 14.0999 82.4 13.0999 82C10.8999 81 8.99985 79.2 8.09985 77C7.69985 76.1 7.3999 75 7.3999 73.7V64.7C7.3999 62.2 9.3999 60.2 11.8999 60.2C14.3999 60.2 16.3999 62.2 16.3999 64.7V74.8999C16.4999 74.9999 16.5999 75.1 16.6999 75.2H29.1999Z" stroke="white" stroke-width="3.0047" stroke-miterlimit="10" stroke-linecap="round" stroke-linejoin="round"/>
<path d="M29.1999 75.8999C32.2999 75.8999 33.4999 74.3999 35.8999 74.3999C36.7999 74.3999 37.3999 74.6999 37.3999 75.1999C37.3999 76.2999 35.8999 77.1999 35.8999 78.1999C35.8999 79.0999 42.5999 79.1999 42.5999 80.3999C42.5999 81.4999 41.1999 82.5999 38.8999 82.5999H29.0999" stroke="white" stroke-width="3.0047" stroke-miterlimit="10" stroke-linecap="round" stroke-linejoin="round"/>
<path d="M47.2 82.5999L56.2 71.3999" stroke="white" stroke-width="3.0047" stroke-miterlimit="10" stroke-linecap="round" stroke-linejoin="round"/>
<path d="M57.7 75.8999C55.5 75.3999 53.2 75.2 51 75.2C49.7 75.2 48 77.6999 48 78.8999C48 80.2999 50.2 82.5999 51.8 82.5999H57.8V75.8999H57.7Z" stroke="white" stroke-width="3.0047" stroke-miterlimit="10" stroke-linecap="round" stroke-linejoin="round"/>
<path d="M7.90002 47C8.30002 48.1 9 49.2 9 50.4C9 52.7 8.1 53.6 7.5 54.9" stroke="white" stroke-width="3.0047" stroke-miterlimit="10" stroke-linecap="round" stroke-linejoin="round"/>
<path d="M78.7 48.2C78.2 49 78 49.1999 78 50.3999C78 52.6999 78.8 53.5999 79.5 54.8999" stroke="white" stroke-width="3.0047" stroke-miterlimit="10" stroke-linecap="round" stroke-linejoin="round"/>
<path d="M7.90002 47C7.00002 44.4 6 41.9 6 39.2C6 35.3 9.30001 31.7 12.7 31.7C15.5 31.7 20.9 32 20.9 34C20.9 36.4 19 36.2 17.2 36.2C16.1 36.2 14.9 36.5999 14.9 38.3999C14.9 39.4999 14.3 41.3999 13.4 41.3999C12.9 41.3999 12.6 40.7 11.9 40.7C11.4 40.7 10.4 41.5999 10.4 42.8999C10.4 43.6999 11.2 44.9 11.9 45.1C10.9 46.5 9.50002 47 7.90002 47Z" stroke="white" stroke-width="3.0047" stroke-miterlimit="10" stroke-linecap="round" stroke-linejoin="round"/>
<path d="M78.7 48.0999C79.6 45.4999 81.7 45.8999 81.7 39.0999C81.7 35.1999 77.7 31.5999 74.2 31.5999C71.4 31.5999 65.2 32.5999 65.2 35.2999C65.2 38.6999 68.6 35.2999 70.4 35.2999C71.4 35.2999 71.9 36.4999 71.9 38.2999C71.9 38.9999 72.3999 39.5999 72.7999 40.2999C73.0999 40.6999 73.1 41.2999 73.4 41.2999C74 41.2999 74.2 40.5999 74.9 40.5999C75.4 40.5999 76.4 41.4999 76.4 42.7999C76.4 43.5999 75.5 44.7998 74.9 44.9998C76.1 46.4998 77.2 48.0999 78.7 48.0999Z" stroke="white" stroke-width="3.0047" stroke-miterlimit="10" stroke-linecap="round" stroke-linejoin="round"/>
<path d="M64.5 75.1999C66.1 67.0999 67.9 60.3999 70.5 57.1999C73.5 57.0999 76.5 56.2999 79.5 54.8999C83.2 62.6999 84.2 72.4999 84.7 82.6999H70.4" stroke="white" stroke-width="3.0047" stroke-miterlimit="10" stroke-linecap="round" stroke-linejoin="round"/>
<path d="M57.7 75.2V82.7H70.4999C71.6999 82.7 72.8999 82.4 73.7999 82C75.9999 81 77.7999 79.2 78.7999 77C79.1999 76.1 79.4999 75 79.4999 73.7V64.7C79.4999 62.2 77.4999 60.2 74.9999 60.2C72.4999 60.2 70.4999 62.2 70.4999 64.7V74.8999C70.3999 74.9999 70.3 75.1 70.2 75.2H57.7Z" stroke="white" stroke-width="3.0047" stroke-miterlimit="10" stroke-linecap="round" stroke-linejoin="round"/>
<path fill-rule="evenodd" clip-rule="evenodd" d="M20 35.7998C21 37.2998 21.7 38.9998 21.7 40.5998C21.7 41.3998 21 41.9998 21 42.7998C21 44.1998 23.2 44.8998 23.2 46.3998C23.2 46.9998 21.7 47.0998 21.7 48.5998C21.7 49.5998 22.5 50.1998 22.5 50.9998C22.5 51.4998 21.5 51.7998 21 51.7998C20 51.7998 18.8 51.6998 17.6 51.4998C16.9 52.6998 16.5 54.6998 16.4 57.0998L11.8 59.0998L7.5 54.7998C8.2 53.4998 9 52.5998 9 50.2998C9 49.0998 8.30002 47.9998 7.90002 46.8998L9.59998 37.4998L15.8 33.7998L20 35.7998Z" fill="white"/>
<path d="M17.5999 51.7C16.7999 52.9 16.4999 54.8 16.3999 57.2" stroke="white" stroke-width="3.0047" stroke-miterlimit="10" stroke-linecap="round" stroke-linejoin="round"/>
<path fill-rule="evenodd" clip-rule="evenodd" d="M16.4999 82.5998L22.4999 75.0998C20.8999 66.9998 19.0999 60.2998 16.4999 57.0998C13.4999 56.9998 10.4999 56.1998 7.49994 54.7998C3.69994 62.5998 2.69995 72.3998 2.19995 82.5998H16.4999Z" fill="#00A2E5"/>
<path fill-rule="evenodd" clip-rule="evenodd" d="M66.3998 36.9C65.6998 38.1 65.2998 39.4 65.2998 40.6C65.2998 41.4 65.9998 42 65.9998 42.8C65.9998 44.2 63.7998 44.9 63.7998 46.4C63.7998 47.5 65.2998 46.7 65.2998 48.2C65.2998 49.2 65.5998 51.8 66.7998 51.8C67.6998 51.8 68.5998 51.7 69.3998 51.6C70.1998 52.8 70.4998 54.7 70.5998 57.1L74.8998 58.6L79.4998 54.8C78.7998 53.5 77.9998 52.6 77.9998 50.3C77.9998 49.1 78.1998 48.9 78.6998 48.1L78.8998 38.3L71.3998 33.5L66.3998 36.9Z" fill="white"/>
<path fill-rule="evenodd" clip-rule="evenodd" d="M7.49994 54.8999C10.3999 56.2999 13.4999 57.0999 16.4999 57.1999C17.2999 58.1999 17.9999 59.3999 18.5999 60.8999C15.5999 60.7999 12.6 59.9999 9.69995 58.6999C6.39995 65.4999 5.19995 73.8999 4.69995 82.6999H2.19995C2.69995 72.4999 3.69994 62.6999 7.49994 54.8999Z" fill="#85DBF6"/>
<path d="M22.4999 75.1999C20.8999 67.0999 19.0999 60.3999 16.4999 57.1999C13.4999 57.0999 10.4999 56.2999 7.49994 54.8999C3.69994 62.6999 2.69995 72.4999 2.19995 82.6999H16.4999" stroke="#0075A6" stroke-width="1.5024" stroke-miterlimit="10" stroke-linecap="round" stroke-linejoin="round"/>
<path fill-rule="evenodd" clip-rule="evenodd" d="M29.1999 75.2V82.7H16.3999C15.1999 82.7 14.0999 82.4 13.0999 82C10.8999 81 8.99985 79.2 8.09985 77C7.69985 76.1 7.3999 75 7.3999 73.7V64.7C7.3999 62.2 9.3999 60.2 11.8999 60.2C14.3999 60.2 16.3999 62.2 16.3999 64.7V74.8999C16.4999 74.9999 16.5999 75.1 16.6999 75.2H29.1999Z" fill="#00A2E5"/>
<path fill-rule="evenodd" clip-rule="evenodd" d="M26.9999 82.6V77.3999H14.4999C14.3999 77.2999 14.2999 77.2 14.1999 77.1V66.8999C14.1999 64.3999 12.1999 62.3999 9.69989 62.3999C8.99989 62.3999 8.3999 62.4999 7.8999 62.7999C8.5999 61.1999 10.1999 60.2 11.9999 60.2C14.4999 60.2 16.4999 62.2 16.4999 64.7V74.8999C16.5999 74.9999 16.6999 75.1 16.7999 75.2H29.2999V82.7H26.9999V82.6Z" fill="#85DBF6"/>
<path fill-rule="evenodd" clip-rule="evenodd" d="M29.2 82.5999V75.8999C32.3 75.8999 33.5 74.3999 35.9 74.3999C36.8 74.3999 37.4 74.6999 37.4 75.1999C37.4 76.2999 35.9 77.1999 35.9 78.1999C35.9 79.0999 42.5999 79.1999 42.5999 80.3999C42.5999 81.4999 41.2 82.5999 38.9 82.5999H29.2Z" fill="white"/>
<path fill-rule="evenodd" clip-rule="evenodd" d="M29.2 82.6V80.4H38.9999C40.1999 80.4 41.1999 80.1 41.7999 79.7C42.3999 79.9 42.7 80.1 42.7 80.4C42.7 81.5 41.2999 82.6 38.9999 82.6H29.2ZM35.9999 75.9C35.9999 75.4 36.4 75 36.7 74.5C37.2 74.6 37.4999 74.8 37.4999 75.2C37.4999 75.7 37.1999 76.1 36.9999 76.5C36.3999 76.3 35.9999 76.1 35.9999 75.9Z" fill="#85DBF6"/>
<path d="M29.1999 75.2V82.7H16.3999C15.1999 82.7 14.0999 82.4 13.0999 82C10.8999 81 8.99985 79.2 8.09985 77C7.69985 76.1 7.3999 75 7.3999 73.7V64.7C7.3999 62.2 9.3999 60.2 11.8999 60.2C14.3999 60.2 16.3999 62.2 16.3999 64.7V74.8999C16.4999 74.9999 16.5999 75.1 16.6999 75.2H29.1999Z" stroke="#0075A6" stroke-width="1.5024" stroke-miterlimit="10" stroke-linecap="round" stroke-linejoin="round"/>
<path d="M25.8999 75.5V82.3" stroke="#0075A6" stroke-width="0.737" stroke-miterlimit="10" stroke-linecap="round" stroke-linejoin="round"/>
<path d="M29.1999 75.8999C32.2999 75.8999 33.4999 74.3999 35.8999 74.3999C36.7999 74.3999 37.3999 74.6999 37.3999 75.1999C37.3999 76.2999 35.8999 77.1999 35.8999 78.1999C35.8999 79.0999 42.5999 79.1999 42.5999 80.3999C42.5999 81.4999 41.1999 82.5999 38.8999 82.5999H29.0999" stroke="#0075A6" stroke-width="1.5024" stroke-miterlimit="10" stroke-linecap="round" stroke-linejoin="round"/>
<path d="M47.2 82.5999L56.2 71.3999" stroke="#0075A6" stroke-width="1.5024" stroke-miterlimit="10" stroke-linecap="round" stroke-linejoin="round"/>
<path fill-rule="evenodd" clip-rule="evenodd" d="M57.7 75.8999C55.5 75.3999 53.2 75.2 51 75.2C49.7 75.2 48 77.6999 48 78.8999C48 80.2999 50.2 82.5999 51.8 82.5999H57.8V75.8999H57.7Z" fill="white"/>
<path fill-rule="evenodd" clip-rule="evenodd" d="M48 78.8999C48 78.5999 48.1 78.2 48.3 77.7C49 79 50.6 80.3999 51.8 80.3999H57.8V82.5999H51.8C50.2 82.5999 48 80.2999 48 78.8999Z" fill="#85DBF6"/>
<path d="M57.7 75.8999C55.5 75.3999 53.2 75.2 51 75.2C49.7 75.2 48 77.6999 48 78.8999C48 80.2999 50.2 82.5999 51.8 82.5999H57.8V75.8999H57.7Z" stroke="#0075A6" stroke-width="1.5024" stroke-miterlimit="10" stroke-linecap="round" stroke-linejoin="round"/>
<path d="M7.90002 47C8.30002 48.1 9 49.2 9 50.4C9 52.7 8.1 53.6 7.5 54.9" stroke="#0075A6" stroke-width="1.5024" stroke-miterlimit="10" stroke-linecap="round" stroke-linejoin="round"/>
<path d="M20 35.7998C21 37.2998 21.7 38.9998 21.7 40.5998C21.7 41.3998 21 41.9998 21 42.7998C21 44.1998 23.2 44.8998 23.2 46.3998C23.2 46.9998 21.7 47.0998 21.7 48.5998C21.7 49.5998 22.5 50.1998 22.5 50.9998C22.5 51.4998 21.5 51.7998 21 51.7998C18.3 51.7998 14.9 51.0998 12 50.2998" stroke="white" stroke-width="3.0047" stroke-miterlimit="10" stroke-linecap="round" stroke-linejoin="round"/>
<path d="M20 35.7998C21 37.2998 21.7 38.9998 21.7 40.5998C21.7 41.3998 21 41.9998 21 42.7998C21 44.1998 23.2 44.8998 23.2 46.3998C23.2 46.9998 21.7 47.0998 21.7 48.5998C21.7 49.5998 22.5 50.1998 22.5 50.9998C22.5 51.4998 21.5 51.7998 21 51.7998C18.3 51.7998 14.9 51.0998 12 50.2998" stroke="#0075A6" stroke-width="1.5024" stroke-miterlimit="10" stroke-linecap="round" stroke-linejoin="round"/>
<path d="M17.5999 51.7C16.7999 52.9 16.4999 54.8 16.3999 57.2" stroke="#0075A6" stroke-width="1.5024" stroke-miterlimit="10" stroke-linecap="round" stroke-linejoin="round"/>
<path d="M78.7 48.2C78.2 49 78 49.1999 78 50.3999C78 52.6999 78.8 53.5999 79.5 54.8999" stroke="#0075A6" stroke-width="1.5024" stroke-miterlimit="10" stroke-linecap="round" stroke-linejoin="round"/>
<path d="M66.3998 36.8999C65.6998 38.0999 65.2998 39.3999 65.2998 40.5999C65.2998 41.3999 65.9998 41.9999 65.9998 42.7999C65.9998 44.1999 63.7998 44.8999 63.7998 46.3999C63.7998 47.4999 65.2998 46.6999 65.2998 48.1999C65.2998 49.1999 65.5998 51.7999 66.7998 51.7999C69.4998 51.7999 72.1998 51.0999 74.9998 50.2999" stroke="white" stroke-width="3.0047" stroke-miterlimit="10" stroke-linecap="round" stroke-linejoin="round"/>
<path d="M69.3999 51.7C70.1999 52.9 70.4999 54.8 70.5999 57.2" stroke="white" stroke-width="3.0047" stroke-miterlimit="10" stroke-linecap="round" stroke-linejoin="round"/>
<path d="M66.3998 36.8999C65.6998 38.0999 65.2998 39.3999 65.2998 40.5999C65.2998 41.3999 65.9998 41.9999 65.9998 42.7999C65.9998 44.1999 63.7998 44.8999 63.7998 46.3999C63.7998 47.4999 65.2998 46.6999 65.2998 48.1999C65.2998 49.1999 65.5998 51.7999 66.7998 51.7999C69.4998 51.7999 72.1998 51.0999 74.9998 50.2999" stroke="#0075A6" stroke-width="1.5024" stroke-miterlimit="10" stroke-linecap="round" stroke-linejoin="round"/>
<path d="M69.3999 51.7C70.1999 52.9 70.4999 54.8 70.5999 57.2" stroke="#0075A6" stroke-width="1.5024" stroke-miterlimit="10" stroke-linecap="round" stroke-linejoin="round"/>
<path fill-rule="evenodd" clip-rule="evenodd" d="M57.1999 20.9999C60.2999 23.0999 62.2999 26.0999 62.2999 29.3999C62.2999 32.8999 60.0999 36.0999 56.7999 38.0999C57.0999 40.3999 57.8999 42.2999 58.5999 43.5999C55.9999 42.7999 53.5999 41.5999 51.8999 40.0999C50.4999 40.3999 48.9999 40.5999 47.3999 40.5999C39.8999 40.5999 33.5999 36.3999 32.4999 30.9999C31.4999 25.5999 35.5999 21.0999 37.5999 18.8999L57.1999 20.9999Z" fill="#00A2E5"/>
<path fill-rule="evenodd" clip-rule="evenodd" d="M53.7999 41.5999C53.7999 41.3999 53.7999 41.2999 53.6999 41.0999C54.8999 40.3999 55.8999 39.4999 56.7999 38.5999C57.0999 40.6999 57.7999 42.3999 58.4999 43.5999C56.7999 43.0999 55.1999 42.3999 53.7999 41.5999ZM59.1999 32.3999C59.1999 28.9999 57.1999 25.9999 54.0999 23.9999L34.8999 21.9999C35.7999 20.7999 36.6999 19.6999 37.4999 18.8999L57.1999 20.9999C60.2999 23.0999 62.2999 26.0999 62.2999 29.3999C62.2999 32.5999 60.4999 35.4999 57.6999 37.4999C58.5999 35.9999 59.1999 34.2999 59.1999 32.3999Z" fill="#85DBF6"/>
<path d="M57.2 21C60.3 23.1 62.3 26.1 62.3 29.4C62.3 32.9 60.1 36.1 56.8 38.1C57.1 40.4 57.9 42.3 58.6 43.6C56 42.8 53.6 41.6 51.9 40.1C50.5 40.4 49 40.6 47.4 40.6C39.9 40.6 33.6 36.4 32.5 31" stroke="#0075A6" stroke-width="1.5024" stroke-miterlimit="10" stroke-linecap="round" stroke-linejoin="round"/>
<path d="M29.2 26.3999C25.1 23.8999 22.5 20.1999 22.5 15.8999C22.5 8.3999 30.6 2.3999 40.5 2.3999C50.4 2.3999 58.5 8.4999 58.5 15.8999C58.5 23.2999 50.4 29.3999 40.5 29.3999C38.7 29.3999 36.9 29.1999 35.2 28.7999C33.1 30.6999 30.1 32.0999 27 33.0999C27.9 31.4999 28.8 29.1999 29.2 26.3999Z" stroke="white" stroke-width="3.0047" stroke-miterlimit="10" stroke-linecap="round" stroke-linejoin="round"/>
<path fill-rule="evenodd" clip-rule="evenodd" d="M29.2 26.3999C25.1 23.8999 22.5 20.1999 22.5 15.8999C22.5 8.3999 30.6 2.3999 40.5 2.3999C50.4 2.3999 58.5 8.4999 58.5 15.8999C58.5 23.2999 50.4 29.3999 40.5 29.3999C38.7 29.3999 36.9 29.1999 35.2 28.7999C33.1 30.6999 30.1 32.0999 27 33.0999C27.9 31.4999 28.8 29.1999 29.2 26.3999Z" fill="white"/>
<path fill-rule="evenodd" clip-rule="evenodd" d="M55.4999 18.8999C55.4999 11.3999 47.3999 5.3999 37.4999 5.3999C32.4999 5.3999 28 6.8999 24.7 9.3999C27.8 5.1999 33.6999 2.3999 40.4999 2.3999C50.3999 2.3999 58.4999 8.4999 58.4999 15.8999C58.4999 19.5999 56.4999 22.9999 53.2999 25.3999C54.6999 23.4999 55.4999 21.2999 55.4999 18.8999Z" fill="#85DBF6"/>
<path d="M29.2 26.3999C25.1 23.8999 22.5 20.1999 22.5 15.8999C22.5 8.3999 30.6 2.3999 40.5 2.3999C50.4 2.3999 58.5 8.4999 58.5 15.8999C58.5 23.2999 50.4 29.3999 40.5 29.3999C38.7 29.3999 36.9 29.1999 35.2 28.7999C33.1 30.6999 30.1 32.0999 27 33.0999C27.9 31.4999 28.8 29.1999 29.2 26.3999Z" stroke="#0075A6" stroke-width="1.5024" stroke-miterlimit="10" stroke-linecap="round" stroke-linejoin="round"/>
<path fill-rule="evenodd" clip-rule="evenodd" d="M7.90002 47C7.00002 44.4 6 41.9 6 39.2C6 35.3 9.30001 31.7 12.7 31.7C15.5 31.7 20.9 32 20.9 34C20.9 36.4 19 36.2 17.2 36.2C16.1 36.2 14.9 36.5999 14.9 38.3999C14.9 39.4999 14.3 41.3999 13.4 41.3999C12.9 41.3999 12.6 40.7 11.9 40.7C11.4 40.7 10.4 41.5999 10.4 42.8999C10.4 43.6999 11.2 44.9 11.9 45.1C10.9 46.5 9.50002 47 7.90002 47Z" fill="#85DBF6"/>
<path fill-rule="evenodd" clip-rule="evenodd" d="M78.7 48.0999C79.6 45.4999 81.7 45.8999 81.7 39.0999C81.7 35.1999 77.7 31.5999 74.2 31.5999C71.4 31.5999 65.2 32.5999 65.2 35.2999C65.2 38.6999 68.6 35.2999 70.4 35.2999C71.4 35.2999 71.9 36.4999 71.9 38.2999C71.9 38.9999 72.3999 39.5999 72.7999 40.2999C73.0999 40.6999 73.1 41.2999 73.4 41.2999C74 41.2999 74.2 40.5999 74.9 40.5999C75.4 40.5999 76.4 41.4999 76.4 42.7999C76.4 43.5999 75.5 44.7998 74.9 44.9998C76.1 46.4998 77.2 48.0999 78.7 48.0999Z" fill="#00A2E5"/>
<path d="M7.90002 47C7.00002 44.4 6 41.9 6 39.2C6 35.3 9.30001 31.7 12.7 31.7C15.5 31.7 20.9 32 20.9 34C20.9 36.4 19 36.2 17.2 36.2C16.1 36.2 14.9 36.5999 14.9 38.3999C14.9 39.4999 14.3 41.3999 13.4 41.3999C12.9 41.3999 12.6 40.7 11.9 40.7C11.4 40.7 10.4 41.5999 10.4 42.8999C10.4 43.6999 11.2 44.9 11.9 45.1C10.9 46.5 9.50002 47 7.90002 47Z" stroke="#0075A6" stroke-width="1.5024" stroke-miterlimit="10" stroke-linecap="round" stroke-linejoin="round"/>
<path d="M78.7 48.0999C79.6 45.4999 81.7 45.8999 81.7 39.0999C81.7 35.1999 77.7 31.5999 74.2 31.5999C71.4 31.5999 65.2 32.5999 65.2 35.2999C65.2 38.6999 68.6 35.2999 70.4 35.2999C71.4 35.2999 71.9 36.4999 71.9 38.2999C71.9 38.9999 72.3999 39.5999 72.7999 40.2999C73.0999 40.6999 73.1 41.2999 73.4 41.2999C74 41.2999 74.2 40.5999 74.9 40.5999C75.4 40.5999 76.4 41.4999 76.4 42.7999C76.4 43.5999 75.5 44.7998 74.9 44.9998C76.1 46.4998 77.2 48.0999 78.7 48.0999Z" stroke="#0075A6" stroke-width="1.5024" stroke-miterlimit="10" stroke-linecap="round" stroke-linejoin="round"/>
<path fill-rule="evenodd" clip-rule="evenodd" d="M70.5 82.5998L64.5 75.0998C66.1 66.9998 67.9 60.2998 70.5 57.0998C73.5 56.9998 76.5 56.1998 79.5 54.7998C83.2 62.5998 84.2 72.3998 84.7 82.5998H70.5Z" fill="#85DBF6"/>
<path fill-rule="evenodd" clip-rule="evenodd" d="M66.9 78.0998L64.5 75.0998C66.1 66.9998 67.9 60.2998 70.5 57.0998C73.5 56.9998 76.5 56.1998 79.5 54.7998C80.1 56.0998 80.7 57.3998 81.1 58.7998C78.3 59.9998 75.5 60.6998 72.7 60.7998C70.2 63.9998 68.4 70.3998 66.9 78.0998Z" fill="white"/>
<path d="M64.5 75.1999C66.1 67.0999 67.9 60.3999 70.5 57.1999C73.5 57.0999 76.5 56.2999 79.5 54.8999C83.2 62.6999 84.2 72.4999 84.7 82.6999H70.4" stroke="#0075A6" stroke-width="1.5024" stroke-miterlimit="10" stroke-linecap="round" stroke-linejoin="round"/>
<path fill-rule="evenodd" clip-rule="evenodd" d="M57.7 75.2V82.7H70.4999C71.6999 82.7 72.8999 82.4 73.7999 82C75.9999 81 77.7999 79.2 78.7999 77C79.1999 76.1 79.4999 75 79.4999 73.7V64.7C79.4999 62.2 77.4999 60.2 74.9999 60.2C72.4999 60.2 70.4999 62.2 70.4999 64.7V74.8999C70.3999 74.9999 70.3 75.1 70.2 75.2H57.7Z" fill="#85DBF6"/>
<path fill-rule="evenodd" clip-rule="evenodd" d="M57.7 82.5999V80.3998H68.2C69.4 80.3998 70.4999 80.0999 71.4999 79.6999C73.6999 78.6999 75.5999 76.8999 76.4999 74.6999C76.8999 73.7999 77.2 72.6998 77.2 71.3998V62.3998C77.2 61.6998 77.0999 61.0999 76.7999 60.5999C78.3999 61.2999 79.4999 62.8999 79.4999 64.6999V73.6999C79.4999 74.8999 79.1999 75.9998 78.7999 76.9998C77.7999 79.1998 75.9999 81.0998 73.7999 81.9998C72.8999 82.3998 71.6999 82.6999 70.4999 82.6999H57.7V82.5999Z" fill="#00A2E5"/>
<path d="M57.7 75.2V82.7H70.4999C71.6999 82.7 72.8999 82.4 73.7999 82C75.9999 81 77.7999 79.2 78.7999 77C79.1999 76.1 79.4999 75 79.4999 73.7V64.7C79.4999 62.2 77.4999 60.2 74.9999 60.2C72.4999 60.2 70.4999 62.2 70.4999 64.7V74.8999C70.3999 74.9999 70.3 75.1 70.2 75.2H57.7Z" stroke="#0075A6" stroke-width="1.5024" stroke-miterlimit="10" stroke-linecap="round" stroke-linejoin="round"/>
<path d="M61.0999 75.5V82.3" stroke="#0075A6" stroke-width="0.737" stroke-miterlimit="10" stroke-linecap="round" stroke-linejoin="round"/>
<path d="M33 12.0999H48" stroke="#0075A6" stroke-width="1.5024" stroke-miterlimit="10" stroke-linecap="round" stroke-linejoin="round"/>
<path d="M33 15.8999H48" stroke="#0075A6" stroke-width="1.5024" stroke-miterlimit="10" stroke-linecap="round" stroke-linejoin="round"/>
<path d="M33 19.7H48" stroke="#0075A6" stroke-width="1.5024" stroke-miterlimit="10" stroke-linecap="round" stroke-linejoin="round"/>
<path d="M9.3999 73.7C9.3999 74.6 9.5999 75.5 9.8999 76.2C10.6999 78 12.1999 79.4999 13.9999 80.2999C14.6999 80.5999 15.5999 80.7999 16.4999 80.7999H24.3999" stroke="white" stroke-width="0.737" stroke-miterlimit="10" stroke-linecap="round" stroke-linejoin="round"/>
</svg>
