<svg width="76" height="76" viewBox="0 0 76 76" fill="none" xmlns="http://www.w3.org/2000/svg">
<path d="M38.1999 0.899902C58.4999 0.899902 74.8999 17.2999 74.8999 37.5999C74.8999 57.8999 58.4999 74.3999 38.1999 74.3999C17.8999 74.3999 1.3999 57.9999 1.3999 37.5999C1.4999 17.2999 17.8999 0.899902 38.1999 0.899902Z" stroke="#0075A6" stroke-width="1.5024" stroke-miterlimit="10" stroke-linecap="round" stroke-linejoin="round"/>
<path d="M12.4 31.7C7.99996 29 5.19995 24.8999 5.19995 20.3999C5.19995 12.2999 13.9 5.69995 24.7 5.69995C35.5 5.69995 44.2 12.2999 44.2 20.3999C44.2 28.4999 35.4 35 24.7 35C22.7 35 20.7999 34.7999 18.9999 34.3999C16.6999 36.4999 13.4999 38 10.0999 39.1C10.8999 37.3 12 34.8 12.4 31.7Z" stroke="white" stroke-width="3.2572" stroke-miterlimit="10" stroke-linecap="round" stroke-linejoin="round"/>
<path fill-rule="evenodd" clip-rule="evenodd" d="M12.4 31.7C7.99996 29 5.19995 24.8999 5.19995 20.3999C5.19995 12.2999 13.9 5.69995 24.7 5.69995C35.5 5.69995 44.2 12.2999 44.2 20.3999C44.2 28.4999 35.4 35 24.7 35C22.7 35 20.7999 34.7999 18.9999 34.3999C16.6999 36.4999 13.4999 38 10.0999 39.1C10.8999 37.3 12 34.8 12.4 31.7Z" fill="white"/>
<path fill-rule="evenodd" clip-rule="evenodd" d="M40.8999 23.6C40.8999 15.5 32.1999 8.99995 21.3999 8.99995C15.9999 8.99995 11.0999 10.7 7.59985 13.3C10.8999 8.79996 17.2999 5.69995 24.6999 5.69995C35.4999 5.69995 44.1999 12.2999 44.1999 20.3999C44.1999 24.3999 41.9999 28.1 38.4999 30.7C39.9999 28.6 40.8999 26.2 40.8999 23.6Z" fill="#85DBF6"/>
<path d="M12.4 31.7C7.99996 29 5.19995 24.8999 5.19995 20.3999C5.19995 12.2999 13.9 5.69995 24.7 5.69995C35.5 5.69995 44.2 12.2999 44.2 20.3999C44.2 28.4999 35.4 35 24.7 35C22.7 35 20.7999 34.7999 18.9999 34.3999C16.6999 36.4999 13.4999 38 10.0999 39.1C10.8999 37.3 12 34.8 12.4 31.7Z" stroke="#0075A6" stroke-width="1.6286" stroke-miterlimit="10" stroke-linecap="round" stroke-linejoin="round"/>
<path d="M16.5 16.3H32.8" stroke="#0075A6" stroke-width="1.6286" stroke-miterlimit="10" stroke-linecap="round" stroke-linejoin="round"/>
<path d="M16.5 20.3999H32.8" stroke="#0075A6" stroke-width="1.6286" stroke-miterlimit="10" stroke-linecap="round" stroke-linejoin="round"/>
<path d="M16.5 24.3999H32.8" stroke="#0075A6" stroke-width="1.6286" stroke-miterlimit="10" stroke-linecap="round" stroke-linejoin="round"/>
<path d="M63.6999 59.2998C68.0999 56.5998 70.8999 52.4998 70.8999 47.9998C70.8999 39.8998 62.1999 33.2998 51.3999 33.2998C40.5999 33.2998 31.8999 39.8998 31.8999 47.9998C31.8999 56.0998 40.6999 62.5998 51.3999 62.5998C53.3999 62.5998 55.2999 62.3998 57.0999 61.9998C59.3999 64.0998 62.5999 65.5998 65.9999 66.6998C65.0999 64.8998 64.0999 62.3998 63.6999 59.2998Z" stroke="white" stroke-width="3.2572" stroke-miterlimit="10" stroke-linecap="round" stroke-linejoin="round"/>
<path fill-rule="evenodd" clip-rule="evenodd" d="M63.6999 59.2998C68.0999 56.5998 70.8999 52.4998 70.8999 47.9998C70.8999 39.8998 62.1999 33.2998 51.3999 33.2998C40.5999 33.2998 31.8999 39.8998 31.8999 47.9998C31.8999 56.0998 40.6999 62.5998 51.3999 62.5998C53.3999 62.5998 55.2999 62.3998 57.0999 61.9998C59.3999 64.0998 62.5999 65.5998 65.9999 66.6998C65.0999 64.8998 64.0999 62.3998 63.6999 59.2998Z" fill="white"/>
<path fill-rule="evenodd" clip-rule="evenodd" d="M35.0998 51.1998C35.0998 43.0998 43.7998 36.5998 54.5998 36.5998C59.9998 36.5998 64.8998 38.2998 68.3998 40.8998C65.0998 36.3998 58.6998 33.2998 51.2998 33.2998C40.4998 33.2998 31.7998 39.8998 31.7998 47.9998C31.7998 51.9998 33.9998 55.6998 37.4998 58.2998C35.9998 56.1998 35.0998 53.7998 35.0998 51.1998Z" fill="#85DBF6"/>
<path d="M63.6999 59.2998C68.0999 56.5998 70.8999 52.4998 70.8999 47.9998C70.8999 39.8998 62.1999 33.2998 51.3999 33.2998C40.5999 33.2998 31.8999 39.8998 31.8999 47.9998C31.8999 56.0998 40.6999 62.5998 51.3999 62.5998C53.3999 62.5998 55.2999 62.3998 57.0999 61.9998C59.3999 64.0998 62.5999 65.5998 65.9999 66.6998C65.0999 64.8998 64.0999 62.3998 63.6999 59.2998Z" stroke="#0075A6" stroke-width="1.6286" stroke-miterlimit="10" stroke-linecap="round" stroke-linejoin="round"/>
<path d="M59.4998 43.8999H43.2998" stroke="#0075A6" stroke-width="1.6286" stroke-miterlimit="10" stroke-linecap="round" stroke-linejoin="round"/>
<path d="M59.4998 47.9998H43.2998" stroke="#0075A6" stroke-width="1.6286" stroke-miterlimit="10" stroke-linecap="round" stroke-linejoin="round"/>
<path d="M59.4998 51.9998H43.2998" stroke="#0075A6" stroke-width="1.6286" stroke-miterlimit="10" stroke-linecap="round" stroke-linejoin="round"/>
</svg>
