<svg width="64" height="56" viewBox="0 0 64 56" fill="none" xmlns="http://www.w3.org/2000/svg">
<path d="M13.4 42.3999C6.70002 38.3999 2.5 32.2 2.5 25.3C2.5 13.1 15.7 3.19995 31.9 3.19995C48.1 3.19995 61.3 13.1 61.3 25.3C61.3 37.4 48.1 47.3999 31.9 47.3999C28.9 47.3999 26 47.0999 23.3 46.3999C19.8 49.4999 15 51.9 9.90002 53.5C11.2 50.9 12.8 47.0999 13.4 42.3999Z" stroke="white" stroke-width="4.9126" stroke-miterlimit="10" stroke-linecap="round" stroke-linejoin="round"/>
<path fill-rule="evenodd" clip-rule="evenodd" d="M13.4 42.3999C6.70002 38.3999 2.5 32.2 2.5 25.3C2.5 13.1 15.7 3.19995 31.9 3.19995C48.1 3.19995 61.3 13.1 61.3 25.3C61.3 37.4 48.1 47.3999 31.9 47.3999C28.9 47.3999 26 47.0999 23.3 46.3999C19.8 49.4999 15 51.9 9.90002 53.5C11.2 50.9 12.8 47.0999 13.4 42.3999Z" fill="white"/>
<path fill-rule="evenodd" clip-rule="evenodd" d="M56.4001 30.2C56.4001 18 43.2001 8.09996 27.0001 8.09996C18.8001 8.09996 11.5001 10.6 6.1001 14.6C11.1001 7.79996 20.7001 3.19995 31.9001 3.19995C48.1001 3.19995 61.3002 13.1 61.3002 25.3C61.3002 31.3 58.0001 36.8 52.7001 40.8C55.1001 37.7 56.4001 34.1 56.4001 30.2Z" fill="#85DBF6"/>
<path d="M13.4 42.3999C6.70002 38.3999 2.5 32.2 2.5 25.3C2.5 13.1 15.7 3.19995 31.9 3.19995C48.1 3.19995 61.3 13.1 61.3 25.3C61.3 37.4 48.1 47.3999 31.9 47.3999C28.9 47.3999 26 47.0999 23.3 46.3999C19.8 49.4999 15 51.9 9.90002 53.5C11.2 50.9 12.8 47.0999 13.4 42.3999Z" stroke="#0075A6" stroke-width="2.4563" stroke-miterlimit="10" stroke-linecap="round" stroke-linejoin="round"/>
<path d="M19.6001 19.2H44.2001" stroke="#0075A6" stroke-width="2.4563" stroke-miterlimit="10" stroke-linecap="round" stroke-linejoin="round"/>
<path d="M19.6001 25.3H44.2001" stroke="#0075A6" stroke-width="2.4563" stroke-miterlimit="10" stroke-linecap="round" stroke-linejoin="round"/>
<path d="M19.6001 31.3999H44.2001" stroke="#0075A6" stroke-width="2.4563" stroke-miterlimit="10" stroke-linecap="round" stroke-linejoin="round"/>
</svg>
