<svg width="53" height="53" viewBox="0 0 53 53" fill="none" xmlns="http://www.w3.org/2000/svg">
<path fill-rule="evenodd" clip-rule="evenodd" d="M6.59996 6.5999C12.7 0.499902 22.5 0.499902 28.6 6.5999C34.7 12.6999 34.7 22.4999 28.6 28.5999C22.5 34.6999 12.7 34.6999 6.59996 28.5999C0.499956 22.4999 0.599956 12.5999 6.59996 6.5999Z" fill="#85DBF6"/>
<path d="M7.8001 7.7C13.4001 2.1 22.4 2.1 28 7.7C33.6 13.3 33.6 22.3 28 27.9C22.4 33.5 13.4001 33.5 7.8001 27.9C2.2001 22.3 2.2001 13.3 7.8001 7.7Z" stroke="white" stroke-width="2.2961" stroke-miterlimit="10" stroke-linecap="round" stroke-linejoin="round"/>
<path d="M32.4 36.1L26.7 30.3999L30.5 26.7L36.1 32.3L32.4 36.1Z" stroke="white" stroke-width="2.2394" stroke-miterlimit="10" stroke-linecap="round" stroke-linejoin="round"/>
<path d="M6.7 6.6998C12.9 0.499804 22.8 0.499804 29 6.6998C35.2 12.8998 35.2 22.7998 29 28.9998C22.8 35.1998 12.9 35.1998 6.7 28.9998C0.6 22.7998 0.6 12.7998 6.7 6.6998Z" stroke="white" stroke-width="2.9764" stroke-miterlimit="10" stroke-linecap="round" stroke-linejoin="round"/>
<path d="M50.7 46.3L35.4 31C34.9 30.6 34.2 30.6 33.8 31L31.1 33.8C30.6 34.3 30.6 34.9999 31.1 35.3999L46.4 50.7C46.9 51.2 47.6 51.2 48 50.7L50.8 47.8999C51.2 47.3999 51.2 46.7 50.7 46.3Z" stroke="white" stroke-width="2.9764" stroke-miterlimit="10" stroke-linecap="round" stroke-linejoin="round"/>
<path fill-rule="evenodd" clip-rule="evenodd" d="M32.4 36.1L26.7 30.3999L30.5 26.7L36.1 32.3L32.4 36.1Z" fill="white"/>
<path d="M32.4 36.1L27 30.7C27.7 30.2 28.4 29.6 29 29C29.6 28.4 30.2 27.7 30.7 27L36.1 32.4L32.4 36.1Z" stroke="#0075A6" stroke-width="0.737" stroke-miterlimit="10" stroke-linecap="round" stroke-linejoin="round"/>
<path d="M6.7 6.6998C12.9 0.499804 22.8 0.499804 29 6.6998C35.2 12.8998 35.2 22.7998 29 28.9998C22.8 35.1998 12.9 35.1998 6.7 28.9998C0.6 22.7998 0.6 12.7998 6.7 6.6998Z" stroke="#0075A6" stroke-width="1.5024" stroke-miterlimit="10" stroke-linecap="round" stroke-linejoin="round"/>
<path fill-rule="evenodd" clip-rule="evenodd" d="M50.7 46.3L35.4 31C34.9 30.6 34.2 30.6 33.8 31L31.1 33.8C30.6 34.3 30.6 34.9999 31.1 35.3999L46.4 50.7C46.9 51.2 47.6 51.2 48 50.7L50.8 47.8999C51.2 47.3999 51.2 46.7 50.7 46.3Z" fill="#85DBF6"/>
<path d="M50.7 46.3L35.4 31C34.9 30.6 34.2 30.6 33.8 31L31.1 33.8C30.6 34.3 30.6 34.9999 31.1 35.3999L46.4 50.7C46.9 51.2 47.6 51.2 48 50.7L50.8 47.8999C51.2 47.3999 51.2 46.7 50.7 46.3Z" stroke="#0075A6" stroke-width="1.5024" stroke-miterlimit="10" stroke-linecap="round" stroke-linejoin="round"/>
<path d="M47.1 48.7998L48.9 47.0998L34.6 32.7998" stroke="#0075A6" stroke-width="0.737" stroke-miterlimit="10" stroke-linecap="round" stroke-linejoin="round"/>
<path d="M8.50005 8.4998C13.6 3.3998 21.9 3.3998 27.1 8.4998C32.2 13.5998 32.2 21.8998 27.1 27.0998C22 32.1998 13.7 32.1998 8.50005 27.0998C3.40005 21.8998 3.40005 13.5998 8.50005 8.4998Z" stroke="#0075A6" stroke-width="0.737" stroke-miterlimit="10" stroke-linecap="round" stroke-linejoin="round"/>
<path d="M7.8001 7.7C13.4001 2.1 22.4 2.1 28 7.7C33.6 13.3 33.6 22.3 28 27.9C22.4 33.5 13.4001 33.5 7.8001 27.9C2.2001 22.3 2.2001 13.3 7.8001 7.7Z" stroke="white" stroke-width="0.737" stroke-miterlimit="10" stroke-linecap="round" stroke-linejoin="round"/>
</svg>
