<svg width="77" height="76" viewBox="0 0 77 76" fill="none" xmlns="http://www.w3.org/2000/svg">
<path d="M39 0.997559C59.4869 0.997559 76.0001 17.599 76.0001 37.9976C76.0001 58.3962 59.3986 74.9977 39 74.9977" stroke="#0587D6" stroke-width="1.51065" stroke-miterlimit="79.8403" stroke-linecap="round" stroke-linejoin="round"/>
<path fill-rule="evenodd" clip-rule="evenodd" d="M12.4201 63.783H69.2889V62.2818C68.4942 62.2818 67.7877 61.5754 67.7877 60.7806V55.4823C67.7877 54.6875 68.4942 53.9811 69.2889 53.9811V52.3916C68.4942 52.3916 67.7877 51.6851 67.7877 50.8904V45.6804C67.7877 44.8856 68.4942 44.1792 69.2889 44.1792V42.678H63.2841C62.4894 42.678 61.7829 41.9715 61.7829 41.1768V35.9667C61.7829 35.172 62.4894 34.4655 63.2841 34.4655V32.9643C62.4894 32.9643 61.7829 32.2579 61.7829 31.4631V26.2531C61.7829 25.4584 62.4894 24.7519 63.2841 24.7519V23.2507H30.876C30.0812 23.2507 29.3748 22.5443 29.3748 21.7495V16.2746C29.3748 15.833 29.5514 15.4798 29.8163 15.1266L30.0812 14.95V13.2722H11.8019C12.7733 12.1242 13.833 11.1528 14.8926 10.2698H31.5824C32.3771 10.2698 33.0836 10.9762 33.0836 11.771V16.2746C33.0836 16.7161 32.907 17.0693 32.6421 17.4225L32.3771 17.5991V20.16H64.7853C65.5801 20.16 66.2865 20.8665 66.2865 21.6612V26.1648C66.2865 26.9595 65.5801 27.666 64.7853 27.666V29.8736C65.5801 29.8736 66.2865 30.5801 66.2865 31.3748V35.8784C66.2865 36.6732 65.5801 37.3796 64.7853 37.3796V39.5873H70.7901C71.5849 39.5873 72.2913 40.2937 72.2913 41.0885V45.592C72.2913 46.3868 71.5849 47.0932 70.7901 47.0932V49.3009C71.5849 49.3009 72.2913 50.0073 72.2913 50.8021V55.3057C72.2913 56.1004 71.5849 56.8069 70.7901 56.8069V59.0145C71.5849 59.0145 72.2913 59.721 72.2913 60.5157V65.0193C72.2913 65.814 71.5849 66.5205 70.7901 66.5205H15.6874C14.5394 65.814 13.3914 64.7544 12.4201 63.783ZM2 38.0861C2 36.8498 2.0883 35.7901 2.17661 34.6421C2.61814 34.9071 2.79475 35.3486 2.79475 35.8784V41.0885C2.79475 41.53 2.61814 41.9715 2.26492 42.2364C2.08831 40.8235 2 39.499 2 38.0861ZM2.70645 30.6684V31.2865C2.70645 31.5514 2.61814 31.9047 2.44153 32.1696C2.52983 31.6398 2.61814 31.1099 2.70645 30.6684Z" fill="white"/>
<path fill-rule="evenodd" clip-rule="evenodd" d="M2 38.0859C2 27.7542 6.23867 18.3055 13.0382 11.5942H31.4058V16.0978H30.611V21.3962H64.6087V25.8998H63.1075V31.1098H64.6087V35.6134H63.1075V40.8234H70.7018V45.327H69.2006V50.537H70.7018V55.0406H69.2006V60.2507H70.7018V64.7542H13.9213C6.59189 58.3962 2 48.7709 2 38.0859Z" fill="#85DBF6"/>
<path fill-rule="evenodd" clip-rule="evenodd" d="M7.29883 57.1599V19.1002C7.91697 18.1288 8.5351 17.1575 9.24155 16.2744H15.6879V65.4607H14.0101C11.2726 62.8998 9.06494 60.1623 7.29883 57.1599Z" fill="#00A2E5"/>
<path fill-rule="evenodd" clip-rule="evenodd" d="M6.5918 55.8356V20.2484C6.76841 19.8069 7.12164 19.3654 7.38656 18.9238V56.9836C7.03333 56.6304 6.76841 56.1888 6.5918 55.8356Z" fill="#0587D6"/>
<path fill-rule="evenodd" clip-rule="evenodd" d="M15.5996 64.8426V16.5394C15.5996 16.3628 15.7762 16.0979 16.0411 16.0979C16.2177 16.0979 16.4827 16.2745 16.4827 16.5394V64.8426C16.4827 65.0192 16.3061 65.2842 16.0411 65.2842C15.6879 65.2842 15.5996 65.1076 15.5996 64.8426Z" fill="#0587D6"/>
<path fill-rule="evenodd" clip-rule="evenodd" d="M26.9023 65.2842V16.0979H30.6995V21.3962H35.2031V65.1959C35.2914 65.2842 26.9023 65.2842 26.9023 65.2842Z" fill="#00A2E5"/>
<path fill-rule="evenodd" clip-rule="evenodd" d="M26.1973 64.8426V16.5394C26.1973 16.3628 26.3739 16.0979 26.6388 16.0979C26.9037 16.0979 27.0803 16.2745 27.0803 16.5394V64.8426C27.0803 65.0192 26.9037 65.2842 26.6388 65.2842C26.2856 65.2842 26.1973 65.1076 26.1973 64.8426Z" fill="#0587D6"/>
<path fill-rule="evenodd" clip-rule="evenodd" d="M29.9043 21.6612V16.0979C29.9043 16.0979 30.0809 16.0979 30.3458 16.0979C30.5224 16.0979 30.7874 16.0979 30.7874 16.0979V21.7495C30.7874 21.7495 30.6107 21.7495 30.3458 21.7495C30.0809 21.7495 29.9043 21.7495 29.9043 21.6612Z" fill="#0587D6"/>
<path fill-rule="evenodd" clip-rule="evenodd" d="M35.291 64.8426V21.4845C35.291 21.3079 35.4676 21.043 35.7325 21.043C35.9092 21.043 36.1741 21.2196 36.1741 21.4845V64.9309C36.1741 65.1075 35.9975 65.3724 35.7325 65.3724C35.3793 65.2841 35.291 65.1075 35.291 64.8426Z" fill="#0587D6"/>
<path fill-rule="evenodd" clip-rule="evenodd" d="M48.8906 65.2844V23.6924H57.2797V65.2844C57.1914 65.2844 48.8906 65.2844 48.8906 65.2844Z" fill="#00A2E5"/>
<path fill-rule="evenodd" clip-rule="evenodd" d="M48.0078 64.8428V24.1339C48.0078 23.9573 48.1844 23.6924 48.4493 23.6924C48.7143 23.6924 48.8909 23.869 48.8909 24.1339V64.9311C48.8909 65.1077 48.7143 65.3727 48.4493 65.3727C48.1844 65.3727 48.0078 65.1077 48.0078 64.8428Z" fill="#0587D6"/>
<path fill-rule="evenodd" clip-rule="evenodd" d="M57.1035 64.8428V24.1339C57.1035 23.9573 57.2801 23.6924 57.545 23.6924C57.7217 23.6924 57.9866 23.869 57.9866 24.1339V64.9311C57.9866 65.1077 57.81 65.3727 57.545 65.3727C57.2801 65.2844 57.1035 65.1077 57.1035 64.8428Z" fill="#0587D6"/>
<path fill-rule="evenodd" clip-rule="evenodd" d="M13.1261 11.5942H31.4937V16.0978H9.15234C10.3886 14.5083 11.7132 13.0071 13.1261 11.5942Z" fill="white"/>
<path fill-rule="evenodd" clip-rule="evenodd" d="M5.97397 21.4844H64.6972V25.988H4.03125C4.56108 24.3985 5.26753 22.8973 5.97397 21.4844Z" fill="white"/>
<path fill-rule="evenodd" clip-rule="evenodd" d="M2.61772 31.2866H64.6966V35.7902H2.08789C2.08789 34.289 2.3528 32.7878 2.61772 31.2866Z" fill="white"/>
<path fill-rule="evenodd" clip-rule="evenodd" d="M2.08789 41.0881H70.7014V45.5917H2.70603C2.44111 44.1788 2.1762 42.5893 2.08789 41.0881Z" fill="white"/>
<path fill-rule="evenodd" clip-rule="evenodd" d="M4.29688 50.8901H70.791V55.3937H6.41621C5.53315 53.9808 4.82671 52.4796 4.29688 50.8901Z" fill="white"/>
<path fill-rule="evenodd" clip-rule="evenodd" d="M9.76953 60.7803H70.7004V65.2839H13.9199C12.4187 63.871 11.0058 62.3698 9.76953 60.7803Z" fill="white"/>
<path fill-rule="evenodd" clip-rule="evenodd" d="M9.77144 15.3913H30.6999V12.3889H12.3323C12.8621 11.8591 13.3037 11.4175 13.8335 10.8877H31.318C31.7596 10.8877 32.1128 11.1526 32.1128 11.6824V16.0977C32.1128 16.5393 31.8479 16.8925 31.318 16.8925H8.53516C8.97668 16.3626 9.32992 15.8328 9.77144 15.3913Z" fill="#0587D6"/>
<path fill-rule="evenodd" clip-rule="evenodd" d="M4.29588 25.1933H63.9022V22.1909H5.53216C5.70877 21.6611 6.06199 21.2195 6.3269 20.6897H64.6087C65.0502 20.6897 65.4034 20.9546 65.4034 21.4844V25.988C65.4034 26.4296 65.1385 26.7828 64.6087 26.7828H3.67773C3.94265 26.2529 4.11927 25.7231 4.29588 25.1933Z" fill="#0587D6"/>
<path fill-rule="evenodd" clip-rule="evenodd" d="M2.08808 34.9953H63.902V31.9929H2.44129C2.5296 31.4631 2.61791 31.0215 2.70621 30.4917H64.7851C65.2266 30.4917 65.5798 30.7566 65.5798 31.2865V35.79C65.5798 36.2316 65.3149 36.5848 64.7851 36.5848H2.08808C1.99977 35.9667 2.08808 35.4368 2.08808 34.9953Z" fill="#0587D6"/>
<path fill-rule="evenodd" clip-rule="evenodd" d="M2.61772 44.8853H69.9949V41.7947H2.17619C2.17619 41.2648 2.08789 40.8233 2.08789 40.2935H70.7897C71.2312 40.2935 71.5844 40.5584 71.5844 41.0882V45.5918C71.5844 46.0333 71.3195 46.3865 70.7897 46.3865H2.97095C2.79434 45.8567 2.70602 45.3269 2.61772 44.8853Z" fill="#0587D6"/>
<path fill-rule="evenodd" clip-rule="evenodd" d="M5.97397 54.6874H69.9956V51.685H4.64939C4.47278 51.1552 4.20786 50.7137 4.03125 50.1838H70.702C71.1436 50.1838 71.4968 50.4488 71.4968 50.9786V55.4822C71.4968 55.9237 71.2319 56.2769 70.702 56.2769H6.76872C6.4155 55.7471 6.15058 55.2173 5.97397 54.6874Z" fill="#0587D6"/>
<path fill-rule="evenodd" clip-rule="evenodd" d="M13.1261 64.4892H69.9949V61.4868H10.3886C9.94709 60.957 9.59387 60.5154 9.15234 59.9856H70.7014C71.1429 59.9856 71.4961 60.2505 71.4961 60.7803V65.2839C71.4961 65.7255 71.2312 66.0787 70.7014 66.0787H14.7156C14.1858 65.4605 13.5676 65.019 13.1261 64.4892Z" fill="#0587D6"/>
<path fill-rule="evenodd" clip-rule="evenodd" d="M62.4883 30.5799V26.7828C62.4883 26.3413 62.7532 25.988 63.283 25.988C63.7246 25.988 64.0778 26.2529 64.0778 26.7828V30.5799C64.0778 31.0215 63.8129 31.3747 63.283 31.3747C62.7532 31.2864 62.4883 30.9332 62.4883 30.5799Z" fill="#0587D6"/>
<path fill-rule="evenodd" clip-rule="evenodd" d="M62.4883 40.2936V36.4964C62.4883 36.0549 62.7532 35.7017 63.283 35.7017C63.7246 35.7017 64.0778 35.9666 64.0778 36.4964V40.2936C64.0778 40.7351 63.8129 41.0883 63.283 41.0883C62.7532 41.0883 62.4883 40.7351 62.4883 40.2936Z" fill="#0587D6"/>
<path fill-rule="evenodd" clip-rule="evenodd" d="M68.4941 50.1839V46.3868C68.4941 45.9453 68.7591 45.592 69.2889 45.592C69.7304 45.592 70.0836 45.857 70.0836 46.3868V50.1839C70.0836 50.6255 69.8187 50.9787 69.2889 50.9787C68.7591 50.8904 68.4941 50.6255 68.4941 50.1839Z" fill="#0587D6"/>
<path fill-rule="evenodd" clip-rule="evenodd" d="M68.4941 59.9859V56.1888C68.4941 55.7473 68.7591 55.394 69.2889 55.394C69.7304 55.394 70.0836 55.659 70.0836 56.1888V59.9859C70.0836 60.4275 69.8187 60.7807 69.2889 60.7807C68.7591 60.7807 68.4941 60.3392 68.4941 59.9859Z" fill="#0587D6"/>
<path d="M19.2196 69.3462C8.88784 62.8116 2 51.2436 2 37.9977C2.17661 20.7781 14.2745 5.85444 29.4631 1.96899" stroke="white" stroke-width="3.02138" stroke-miterlimit="79.8403" stroke-linecap="round" stroke-linejoin="round"/>
<path d="M39.0001 75.086C18.5132 75.086 2 58.4846 2 38.0859C2 17.6873 18.5132 0.997559 39.0001 0.997559" stroke="#0587D6" stroke-width="1.51065" stroke-miterlimit="79.8403" stroke-linecap="round" stroke-linejoin="round"/>
<path d="M71.5842 30.4917H8.79883V46.3867H71.5842V30.4917Z" fill="white"/>
<path d="M71.5842 30.4036H8.79883V46.2986H71.5842V30.4036Z" stroke="white" stroke-width="3.02138" stroke-miterlimit="79.8403" stroke-linecap="round" stroke-linejoin="round"/>
<path d="M71.5842 30.4036H8.79883V46.2986H71.5842V30.4036Z" stroke="#0587D6" stroke-width="1.51065" stroke-miterlimit="79.8403" stroke-linecap="round" stroke-linejoin="round"/>
<path d="M18.4253 41.3537C17.7188 41.3537 17.1007 41.1771 16.7475 40.6472C16.3059 40.1174 16.1293 39.4993 16.041 38.7928C16.041 38.263 16.1293 37.9098 16.2176 37.4682C16.3059 37.0267 16.4826 36.7618 16.8358 36.4969C17.0124 36.2319 17.3656 35.967 17.7188 35.7904C17.9837 35.6138 18.337 35.6138 18.6902 35.6138C19.0434 35.6138 19.3966 35.7021 19.6616 35.7904C19.9265 35.967 20.2797 36.2319 20.4563 36.4969C20.6329 36.7618 20.8978 37.115 21.0745 37.4682C21.1628 37.9098 21.2511 38.263 21.2511 38.7045C21.2511 39.3226 21.1628 39.8525 20.9861 40.2057C20.8095 40.6472 20.4563 40.9122 20.1031 41.0888C19.7499 41.2654 19.3083 41.3537 18.8668 41.3537H18.4253ZM18.5136 39.5876H18.9551C19.3966 39.5876 19.5733 39.4993 19.7499 39.3227C19.9265 39.146 20.0148 38.8811 20.0148 38.5279C20.0148 37.9981 19.9265 37.7331 19.5732 37.3799C19.3966 37.115 19.0434 36.9384 18.6902 36.9384C18.5136 36.9384 18.1604 37.0267 17.9838 37.115C17.8071 37.2033 17.5422 37.5565 17.4539 37.7331C17.3656 37.9098 17.2773 38.263 17.2773 38.4396C17.2773 38.7045 17.3656 39.0577 17.5422 39.2343C17.8071 39.4993 18.1604 39.5876 18.5136 39.5876ZM24.8716 41.3537C24.1651 41.3537 23.547 41.1771 23.2821 40.7355C22.8406 40.294 22.7523 39.7642 22.7523 39.0577V38.6162C22.7523 38.5279 22.7523 38.4396 22.8406 38.3513C22.9289 38.263 23.0172 38.263 23.1055 38.263H23.8119C23.9002 38.263 23.9885 38.263 23.9885 38.3513C24.0768 38.4396 24.0768 38.4396 24.0768 38.6162V38.8811C24.0768 39.0577 24.1651 39.3227 24.2534 39.411C24.3418 39.4993 24.5184 39.4993 24.7833 39.4993H26.0196C26.4611 39.4993 26.726 39.4993 26.9026 39.3227C27.0792 39.2343 27.1675 39.0577 27.1675 38.7045C27.1675 38.6162 27.1675 38.5279 27.1675 38.4396C27.1675 38.3513 27.0792 38.263 27.0792 37.9981L26.1079 35.3489C26.1079 35.2606 26.0196 35.084 26.0196 34.9074C26.0196 34.8191 26.1079 34.7308 26.1962 34.7308L26.9026 34.4658C26.9909 34.4658 27.0792 34.3775 27.1675 34.4658C27.2558 34.5541 27.2558 34.5541 27.3441 34.6424L28.5804 37.8215C28.757 38.263 28.8453 38.6162 29.022 38.7928C29.1103 38.9694 29.2869 39.2343 29.5518 39.2343C29.7284 39.3227 29.905 39.411 30.0816 39.411C30.1699 39.411 30.2582 39.411 30.3465 39.411V40.5589C30.3465 40.8238 30.4348 41.1771 30.0816 41.1771C29.6401 41.1771 29.1986 40.9122 28.757 40.7355C28.3155 40.5589 28.0506 40.2057 27.7857 39.7642C27.6974 40.2057 27.3441 40.4706 27.0792 40.7355C26.6377 40.9122 26.1962 41.1771 25.578 41.1771L24.9599 41.2654L24.8716 41.3537ZM34.1437 41.3537C33.7022 41.3537 33.4372 41.2654 33.084 41.1771C32.6425 41.0888 32.4659 40.7355 32.2893 40.294C32.1127 40.7355 31.7594 41.0005 31.4062 41.0888C30.9647 41.1771 30.6115 41.2654 30.1699 41.2654C30.0816 41.2654 29.9933 41.1771 29.9933 41.0888V39.9408C29.9933 39.6759 30.0816 39.4993 30.4348 39.4993C30.9647 39.4993 31.2296 39.411 31.4062 39.3227C31.5828 39.146 31.6711 38.7928 31.6711 38.4396V37.3799C31.6711 37.2916 31.6711 37.2033 31.7594 37.2033C31.8477 37.115 31.8477 37.115 31.936 37.115H32.7308C32.9074 37.115 32.9957 37.2033 32.9957 37.3799V38.3513C32.9957 38.7928 33.084 39.0577 33.2606 39.2343C33.4372 39.411 33.7905 39.4993 34.1437 39.4993C34.4969 39.4993 34.8501 39.411 35.0267 39.2343C35.115 39.0577 35.2034 38.7045 35.2034 38.3513V37.3799C35.2034 37.2916 35.2034 37.2033 35.2917 37.115C35.2917 37.0267 35.38 37.0267 35.4683 37.0267H36.263C36.3513 37.0267 36.4396 37.0267 36.4396 37.115C36.4396 37.2033 36.5279 37.2916 36.5279 37.3799V38.3513C36.5279 38.7928 36.6162 39.0577 36.7928 39.2343C36.9695 39.411 37.3227 39.4993 37.6759 39.4993C38.0291 39.4993 38.2941 39.411 38.4707 39.2343C38.6473 39.0577 38.6473 38.7045 38.6473 38.4396C38.6473 38.3513 38.6473 38.263 38.6473 38.1747C38.6473 38.0864 38.6473 37.9981 38.559 37.9098L38.2941 36.9384C38.2941 36.8501 38.2941 36.7618 38.2941 36.6735C38.2941 36.5852 38.3824 36.5852 38.4707 36.5852L39.2654 36.4086C39.3537 36.4086 39.442 36.4086 39.5303 36.4086C39.6186 36.4086 39.6186 36.4969 39.6186 36.5852L39.7952 37.4682C39.7952 37.6448 39.8835 37.9981 39.8835 38.1747C39.8835 38.3513 39.8835 38.6162 39.8835 38.7928C39.8835 39.3227 39.7953 39.7642 39.6186 40.2057C39.442 40.6472 39.0888 40.9122 38.8239 41.0888C38.3824 41.2654 38.0291 41.3537 37.411 41.3537C36.9695 41.3537 36.6162 41.2654 36.263 41.1771C35.8215 41.0888 35.6449 40.7355 35.4683 40.4706C35.38 40.6472 35.2917 40.9122 35.0267 41.0005C34.8501 41.0888 34.5852 41.1771 34.4086 41.2654C34.4086 41.2654 34.3203 41.2654 34.232 41.3537H34.1437ZM36.263 33.8477C36.1747 33.936 36.1747 33.936 36.0864 33.936C35.9981 33.936 35.9981 33.936 35.9098 33.8477L35.38 33.2296C35.2917 33.1413 35.2917 33.0529 35.38 32.9646L35.9098 32.3465C35.9981 32.2582 36.0864 32.2582 36.1747 32.3465L36.7046 32.9646C36.7929 33.0529 36.7929 33.1413 36.7046 33.4062L36.263 33.8477ZM35.2917 35.6138C35.2917 35.7021 35.2034 35.7021 35.115 35.7021C35.0267 35.7021 35.0267 35.7021 34.9384 35.6138L34.3203 34.9957C34.3203 34.9074 34.232 34.9074 34.232 34.8191C34.232 34.7308 34.232 34.7308 34.3203 34.6424L34.9384 34.0243C35.0267 33.936 35.115 33.936 35.38 34.0243L35.9981 34.6424C36.0864 34.7308 36.0864 34.7308 36.0864 34.8191C36.0864 34.9074 36.0864 34.9074 35.9981 34.9957L35.2917 35.6138ZM37.411 35.6138C37.3227 35.7021 37.3227 35.7021 37.2344 35.7021C37.1461 35.7021 37.1461 35.7021 37.0578 35.6138L36.4396 34.9957C36.4396 34.9074 36.3513 34.9074 36.3513 34.8191C36.3513 34.7308 36.3513 34.7308 36.4396 34.6424L37.0578 34.0243C37.1461 33.936 37.2344 33.936 37.4993 34.0243L38.1174 34.6424C38.2057 34.7308 38.2057 34.7308 38.2057 34.8191C38.2057 34.9074 38.2057 34.9074 38.1174 34.9957L37.411 35.6138ZM45.3585 44.5327C45.2702 44.5327 45.0936 44.5327 44.917 44.4444C44.8287 44.3561 44.8287 44.2678 44.8287 44.0028V43.2964C44.8287 43.2081 44.8287 43.1198 44.917 43.0315C45.0053 42.9432 45.0936 42.9432 45.3585 42.9432H46.3299C47.0363 42.9432 47.6545 42.8549 48.0077 42.5017C48.3609 42.1484 48.7141 41.7952 48.8907 41.2654C49.0673 40.7355 49.0673 40.0291 49.0673 39.2343H50.3036C50.3036 40.4706 50.2153 41.442 49.8621 42.1484C49.5972 42.9432 49.1557 43.5613 48.4492 43.8262C47.8311 44.2678 47.0363 44.4444 46.0649 44.4444L45.7117 44.5327H45.3585ZM49.1556 39.2343C49.1556 38.7045 48.979 38.3513 48.6258 37.9981C48.3609 37.7332 48.0077 37.4682 47.6544 37.4682C47.4778 37.4682 47.1246 37.4682 47.0363 37.5565C46.8597 37.6448 46.7714 37.7332 46.5948 37.9981C46.5065 38.1747 46.5065 38.263 46.5065 38.5279C46.5065 38.7928 46.5948 39.0577 46.7714 39.146C46.948 39.2343 47.3012 39.3227 47.5662 39.3227C48.0077 39.3227 48.2726 39.2343 48.7141 39.146C48.979 39.0577 49.3323 38.8811 49.4206 38.7045L49.5089 40.0291C49.3323 40.2057 48.979 40.5589 48.7141 40.6472C48.2726 40.7355 47.9194 40.8238 47.4778 40.8238C47.0363 40.8238 46.5948 40.7355 46.2416 40.5589C45.9767 40.3823 45.6234 40.0291 45.5351 39.7642C45.3585 39.4993 45.2702 39.0577 45.2702 38.6162C45.2702 38.1747 45.3585 37.9098 45.4468 37.6448C45.5351 37.3799 45.7117 37.0267 45.9766 36.7618C46.1533 36.5852 46.5065 36.232 46.7714 36.1436C47.0363 36.0553 47.4778 35.967 47.9194 35.967C48.4492 35.967 48.8907 36.0553 49.3323 36.4086C49.7738 36.5852 50.0387 37.0267 50.2153 37.5565C50.3919 38.0864 50.3036 38.7928 50.3036 39.3227L49.1556 39.2343ZM50.8335 44.5327C50.7452 44.5327 50.6568 44.5327 50.5685 44.4444C50.5685 44.3561 50.4802 44.3561 50.4802 44.1795V43.3847C50.4802 43.2964 50.4802 43.2081 50.5685 43.1198C50.6568 43.0315 50.7452 43.0315 50.8335 43.0315H51.275C51.8931 43.0315 52.2463 42.9432 52.6879 42.7666C53.1294 42.59 53.306 42.1484 53.3943 41.7952C53.5709 41.3537 53.5709 40.9122 53.5709 40.3823C53.5709 39.9408 53.5709 39.4993 53.4826 39.0577C53.3943 38.6162 53.306 38.1747 53.2177 37.6448C53.2177 37.4682 53.2177 37.3799 53.2177 37.2033C53.2177 37.115 53.306 37.115 53.4826 37.0267L54.1891 36.8501C54.2774 36.8501 54.3657 36.8501 54.454 36.8501C54.5423 36.9384 54.5423 37.0267 54.6306 37.2916C54.7189 37.8215 54.8072 38.263 55.0721 38.8811C55.1604 39.4993 55.2487 40.0291 55.2487 40.4706C55.2487 41.2654 55.1604 41.9718 54.8072 42.59C54.5423 43.2081 54.1008 43.7379 53.5709 44.0912C53.0411 44.5327 52.3347 44.7093 51.4516 44.7093L50.8335 44.5327ZM55.4254 44.5327C55.337 44.5327 55.2487 44.5327 55.1604 44.4444C55.0721 44.3561 55.0721 44.3561 55.0721 44.1795V43.3847C55.0721 43.2964 55.0721 43.2081 55.1604 43.1198C55.2487 43.0315 55.337 43.0315 55.4254 43.0315H55.8669C56.485 43.0315 56.8382 42.9432 57.2798 42.7666C57.7213 42.59 57.8979 42.1484 57.9862 41.7952C58.0745 41.3537 58.1628 40.9122 58.1628 40.3823C58.1628 39.9408 58.0745 39.4993 58.0745 39.0577C57.9862 38.6162 57.8979 38.1747 57.8096 37.6448C57.8096 37.4682 57.8096 37.3799 57.8096 37.2033C57.8096 37.115 57.8979 37.115 57.9862 37.0267L58.781 36.8501C58.8693 36.8501 58.9576 36.8501 59.0459 36.8501C59.1342 36.9384 59.1342 37.0267 59.2225 37.2916C59.3108 37.8215 59.3991 38.263 59.664 38.8811C59.8406 39.4993 59.7523 40.0291 59.7523 40.4706C59.7523 41.2654 59.664 41.9718 59.3108 42.59C59.0459 43.2081 58.6044 43.7379 58.0745 44.0912C57.4564 44.5327 56.8382 44.7093 55.9552 44.7093L55.4254 44.5327ZM58.3394 35.7021C58.3394 35.7904 58.2511 35.7904 58.1628 35.7904C58.0745 35.7904 58.0745 35.7904 57.9862 35.7021L57.3681 35.084C57.3681 34.9957 57.2798 34.9957 57.2798 34.9074C57.2798 34.8191 57.2798 34.8191 57.3681 34.7308L57.9862 34.1126C57.9862 34.1126 58.0745 34.0243 58.1628 34.0243C58.2511 34.0243 58.2511 34.0243 58.3394 34.1126L58.9576 34.7308C59.0459 34.8191 59.0459 34.9957 58.9576 35.1723L58.3394 35.7021ZM60.0172 44.5327C59.9289 44.5327 59.8406 44.5327 59.7523 44.4444C59.664 44.3561 59.664 44.3561 59.664 44.1795V43.3847C59.664 43.2964 59.664 43.2081 59.7523 43.1198C59.8406 43.0315 59.9289 43.0315 60.0172 43.0315H60.4588C61.0769 43.0315 61.6068 42.9432 61.8717 42.7666C62.3132 42.59 62.4898 42.1484 62.5781 41.7952C62.6664 41.3537 62.7547 40.9122 62.7547 40.3823C62.7547 39.9408 62.7547 39.4993 62.6664 39.0577C62.5781 38.6162 62.4898 38.1747 62.4015 37.6448C62.4015 37.4682 62.4015 37.3799 62.4015 37.2033C62.4015 37.115 62.4898 37.115 62.6664 37.0267L63.3729 36.8501C63.4612 36.8501 63.5495 36.8501 63.6378 36.8501C63.7261 36.9384 63.7261 37.0267 63.8144 37.2916C63.9027 37.8215 63.991 38.263 64.2559 38.8811C64.3442 39.4993 64.3442 40.0291 64.3442 40.4706C64.3442 41.2654 64.2559 41.9718 63.9027 42.59C63.5495 43.2081 63.1963 43.7379 62.6664 44.0912C62.1366 44.5327 61.4301 44.7093 60.5471 44.7093L60.0172 44.5327Z" fill="#0587D6"/>
<path d="M40.7675 19.6302C40.2376 19.6302 39.7961 19.5418 39.3546 19.3652C38.9131 19.1886 38.6481 18.7471 38.5598 18.3939C38.3832 17.9523 38.2949 17.5991 38.2949 17.0693C38.2949 16.8927 38.2949 16.5395 38.3832 16.3628C38.4715 16.1862 38.4715 15.833 38.5598 15.6564C38.5598 15.5681 38.6481 15.4798 38.6481 15.4798C38.6481 15.4798 38.7364 15.4798 38.8247 15.4798L39.2663 15.5681C39.3546 15.5681 39.4429 15.6564 39.4429 15.6564C39.4429 15.6564 39.4429 15.7447 39.4429 15.833C39.3546 16.0096 39.3546 16.2745 39.2663 16.4511C39.2663 16.6278 39.178 16.7161 39.178 16.981C39.178 17.2459 39.2663 17.5991 39.3546 17.7757C39.4429 17.9523 39.6195 18.2173 39.8844 18.3939C40.061 18.4822 40.4142 18.5705 40.7675 18.5705H40.9441C41.209 18.5705 41.5622 18.4822 41.8271 18.3939C42.0921 18.3056 42.357 17.9523 42.4453 17.6874C42.5336 17.4225 42.6219 17.0693 42.6219 16.5395V10.7996C42.6219 10.7113 42.6219 10.7113 42.7102 10.623C42.7102 10.623 42.7985 10.5347 42.8868 10.5347H43.505C43.5933 10.5347 43.5933 10.5347 43.6816 10.623C43.6816 10.623 43.7699 10.7113 43.7699 10.7996V15.3915C43.7699 15.6564 43.7699 15.9213 43.8582 16.0096C43.9465 16.0979 44.0348 16.1862 44.2997 16.2745C44.4763 16.2745 44.7412 16.3628 44.9178 16.3628C45.0062 16.3628 45.0061 16.3628 45.0061 16.4511V17.2459C45.0061 17.4225 44.9178 17.5108 44.7412 17.5108C44.4763 17.5108 44.2114 17.5108 44.0348 17.4225C43.8582 17.3342 43.5933 17.2459 43.505 17.1576C43.4166 17.6874 43.3283 18.0406 42.9751 18.4822C42.7985 18.9237 42.357 19.1003 42.0921 19.2769C41.6505 19.4535 41.2973 19.5418 40.7675 19.6302ZM44.7412 17.5108C44.6529 17.5108 44.6529 17.4225 44.6529 17.3342L44.7412 16.8044C44.7412 16.6278 44.8295 16.3628 45.0061 16.3628H45.1828C45.4477 16.3628 45.6243 16.3628 45.7126 16.2745C45.8009 16.1862 45.8892 15.833 45.8892 15.4798V14.5967C45.8892 14.4201 45.9775 14.4201 46.0658 14.4201H46.684C46.8606 14.4201 46.8606 14.5084 46.8606 14.5967V15.4798C46.8606 15.9213 46.9489 16.0979 47.0372 16.2745C47.1255 16.4511 47.567 16.3628 47.8319 16.3628H48.0085C48.0969 16.3628 48.0085 16.4511 48.0085 16.5395V17.3342C48.0085 17.5108 48.0085 17.5108 47.8319 17.5108C47.567 17.5108 47.1255 17.5108 46.8606 17.4225C46.5957 17.3342 46.3307 17.1576 46.1541 16.8044C46.0658 17.0693 45.8892 17.3342 45.536 17.4225C45.2711 17.5991 45.0944 17.5108 44.7412 17.5108ZM45.8009 13.4488L45.7126 13.5371C45.6243 13.5371 45.6243 13.5371 45.6243 13.4488L45.1828 13.0072L45.0945 12.9189C45.0945 12.9189 45.0944 12.8306 45.1828 12.8306L45.6243 12.3891L45.7126 12.3008C45.7126 12.3008 45.8009 12.3008 45.8009 12.3891L46.2424 12.8306L46.3307 12.9189C46.3307 13.0072 46.3307 13.0072 46.2424 13.0072L45.8009 13.4488ZM47.2138 13.4488L47.1255 13.5371C47.0372 13.5371 47.0372 13.5371 47.0372 13.4488L46.5956 13.0072L46.5073 12.9189C46.5073 12.9189 46.5073 12.8306 46.5956 12.8306L47.0372 12.3891L47.1255 12.3008C47.1255 12.3008 47.2138 12.3008 47.2138 12.3891L47.6553 12.8306L47.7436 12.9189C47.7436 12.9189 47.7436 13.0072 47.6553 13.0072L47.2138 13.4488ZM52.2472 17.7757C51.9823 17.7757 51.6291 17.7757 51.2759 17.6874C51.0109 17.5991 50.5694 17.5108 50.3045 17.2459C50.1279 17.3342 49.863 17.4225 49.6863 17.5108C49.5097 17.5991 49.2448 17.5991 48.9799 17.5991C48.715 17.5991 48.2735 17.5991 47.8319 17.5991C47.7436 17.5991 47.7436 17.5991 47.7436 17.5108V16.7161C47.7436 16.5395 47.8319 16.4511 48.0085 16.4511C48.2735 16.4511 48.6267 16.4511 48.8033 16.4511C48.9799 16.4511 49.2448 16.4511 49.4214 16.3628C49.3331 16.2745 49.2448 16.1862 49.1565 16.0979C49.0682 16.0096 48.9799 15.833 48.8916 15.6564C48.8033 15.4798 48.8033 15.3915 48.8033 15.1266C48.8033 14.8616 48.8916 14.5084 48.9799 14.3318C49.1565 14.1552 49.4214 13.8903 49.598 13.802C49.863 13.7137 50.2162 13.6254 50.4811 13.6254C50.5694 13.6254 50.6577 13.6254 50.6577 13.6254C50.746 13.6254 50.746 13.6254 50.8343 13.7137V13.9786L49.9513 13.3604C49.863 13.3604 49.863 13.2721 49.863 13.2721C49.863 13.1838 49.863 13.1838 49.863 13.1838L50.3045 12.654C50.3928 12.5657 50.3928 12.5657 50.4811 12.5657C50.5694 12.5657 50.5694 12.5657 50.6577 12.654L52.8654 14.2435C53.3069 14.5084 53.5718 14.8616 53.7484 15.0383C53.925 15.3032 54.0133 15.6564 54.0133 15.9213C54.0133 16.1862 53.925 16.6278 53.8367 16.8044C53.6601 17.0693 53.3952 17.3342 53.1303 17.5108C52.9537 17.6874 52.6004 17.7757 52.2472 17.7757ZM50.3928 16.0096C50.5694 15.9213 50.8343 15.7447 51.0109 15.4798C51.0992 15.3032 51.1875 15.2149 51.1875 14.95C51.1875 14.685 51.0992 14.5084 51.0109 14.4201C50.9226 14.3318 50.746 14.2435 50.4811 14.2435C50.3045 14.2435 50.0396 14.3318 49.9513 14.4201C49.7747 14.5084 49.7747 14.685 49.7747 14.95C49.7747 15.2149 49.7747 15.3915 49.863 15.4798C50.0396 15.7447 50.1279 15.9213 50.3928 16.0096ZM52.2472 16.6278C52.5121 16.6278 52.6887 16.5395 52.8654 16.4511C53.042 16.3628 53.042 16.1862 53.042 15.9213C53.042 15.6564 52.9537 15.6564 52.8654 15.3915C52.7771 15.3032 52.6004 15.1266 52.3355 14.95L51.3642 14.2435L51.5408 14.1552C51.6291 14.3318 51.7174 14.4201 51.8057 14.5967C51.894 14.685 51.894 14.8616 51.894 15.0383C51.894 15.3032 51.8057 15.5681 51.7174 15.7447C51.6291 15.9213 51.4525 16.1862 51.0992 16.3628C51.1876 16.4511 51.2758 16.4511 51.3642 16.4511C51.4525 16.4511 51.5408 16.5395 51.6291 16.5395C51.9823 16.6278 52.1589 16.6278 52.2472 16.6278Z" fill="#0587D6"/>
</svg>
