<svg width="76" height="76" viewBox="0 0 76 76" fill="none" xmlns="http://www.w3.org/2000/svg">
<path d="M38 75C58.4346 75 75 58.4345 75 38C75 17.5655 58.4346 1 38 1C17.5655 1 1 17.5655 1 38C1 58.4345 17.5655 75 38 75Z" stroke="#0587D6" stroke-width="1.48781" stroke-miterlimit="9.9999" stroke-linecap="round" stroke-linejoin="round"/>
<path d="M14.3438 4.95239V66.9238H61.6312V4.95239H14.3438Z" fill="white" stroke="white" stroke-width="3.49131" stroke-miterlimit="10" stroke-linecap="round" stroke-linejoin="round"/>
<path d="M14.3438 5.45044V67.4219H61.6312V5.45044H14.3438Z" fill="#85DBF6" stroke="#0587D6" stroke-width="1.56521" stroke-miterlimit="10" stroke-linecap="round" stroke-linejoin="round"/>
<path d="M60.1368 65.8455H15.8359V6.8606H60.1368V65.8455Z" fill="white"/>
<path d="M51.7595 61.6975C54.8293 61.6975 57.3179 59.209 57.3179 56.1392C57.3179 53.0694 54.8293 50.5808 51.7595 50.5808C48.6897 50.5808 46.2012 53.0694 46.2012 56.1392C46.2012 59.209 48.6897 61.6975 51.7595 61.6975Z" stroke="#0587D6" stroke-width="0.806292" stroke-miterlimit="10" stroke-linecap="round" stroke-linejoin="round"/>
<path d="M51.7596 59.7895C53.7756 59.7895 55.4099 58.1553 55.4099 56.1393C55.4099 54.1233 53.7756 52.489 51.7596 52.489C49.7436 52.489 48.1094 54.1233 48.1094 56.1393C48.1094 58.1553 49.7436 59.7895 51.7596 59.7895Z" fill="#0587D6"/>
<path d="M57.3177 27.5176H18.6582" stroke="#0587D6" stroke-width="0.806292" stroke-miterlimit="10" stroke-linecap="round" stroke-linejoin="round"/>
<path d="M57.3177 31.5828H18.6582" stroke="#0587D6" stroke-width="0.806292" stroke-miterlimit="10" stroke-linecap="round" stroke-linejoin="round"/>
<path d="M57.3177 35.6477H18.6582" stroke="#0587D6" stroke-width="0.806292" stroke-miterlimit="10" stroke-linecap="round" stroke-linejoin="round"/>
<path d="M39.0645 44.6074H18.6562" stroke="#0587D6" stroke-width="0.806292" stroke-miterlimit="10" stroke-linecap="round" stroke-linejoin="round"/>
<path d="M39.0645 48.5894H18.6562" stroke="#0587D6" stroke-width="0.806292" stroke-miterlimit="10" stroke-linecap="round" stroke-linejoin="round"/>
<path d="M39.0645 52.5718H18.6562" stroke="#0587D6" stroke-width="0.806292" stroke-miterlimit="10" stroke-linecap="round" stroke-linejoin="round"/>
<path d="M39.0657 60.3699H31.1016" stroke="#0587D6" stroke-width="0.806292" stroke-miterlimit="10" stroke-linecap="round" stroke-linejoin="round"/>
<path d="M26.6204 60.3699H18.6562" stroke="#0587D6" stroke-width="0.806292" stroke-miterlimit="10" stroke-linecap="round" stroke-linejoin="round"/>
<path d="M49.1057 69.4126C38.6527 64.9327 34.0069 55.5582 33.5092 49.668C33.0114 44.3586 32.8455 38.0536 33.0114 30.3382C38.4868 30.0894 43.7963 28.845 49.1057 27.1028C54.3322 28.845 59.6417 30.0894 65.2001 30.3382C65.366 37.9706 65.2001 44.2756 64.7023 49.668C64.1216 55.4752 59.4758 64.9327 49.1057 69.4126Z" stroke="white" stroke-width="2.87043" stroke-miterlimit="10" stroke-linecap="round" stroke-linejoin="round"/>
<path fill-rule="evenodd" clip-rule="evenodd" d="M49.1057 69.4126C38.6527 64.9327 34.0069 55.5582 33.5092 49.668C33.0114 44.3586 32.8455 38.0536 33.0114 30.3382C38.4868 30.0894 43.7963 28.845 49.1057 27.1028C54.3322 28.845 59.6417 30.0894 65.2001 30.3382C65.366 37.9706 65.2001 44.2756 64.7023 49.668C64.1216 55.4752 59.4758 64.9327 49.1057 69.4126Z" fill="#00A2E5"/>
<path fill-rule="evenodd" clip-rule="evenodd" d="M33.5922 50.8295C33.5922 50.4977 33.5092 50.0829 33.5092 49.751C33.0114 44.4416 32.8455 38.1366 33.0114 30.4212C38.4868 30.1724 43.7963 28.928 49.1057 27.1858C54.3322 28.928 59.6417 30.1724 65.2001 30.4212C65.366 38.0536 65.2001 44.3586 64.7023 49.751C64.7023 50.0829 64.6194 50.4147 64.6194 50.8295C60.7202 52.1569 55.2448 52.9035 49.1887 52.9035C43.0497 52.8206 37.4913 52.0739 33.5922 50.8295Z" fill="#85DBF6"/>
<path fill-rule="evenodd" clip-rule="evenodd" d="M60.139 52.8204C60.7197 51.4101 61.0515 50.0827 61.0515 48.8383C61.5493 43.6118 61.5493 38.5512 61.5493 34.6521C56.3228 34.4032 54.8295 34.2373 49.1882 33.3247C43.5469 34.2373 41.9706 34.4032 36.7441 34.6521C36.7441 38.5512 36.7441 43.6118 37.2419 48.8383C37.3248 50.0827 37.7397 51.493 38.1545 52.8204C40.8092 54.3137 44.7083 55.2263 49.1882 55.2263C53.5851 55.2263 57.4843 54.3967 60.139 52.8204Z" fill="#85DBF6"/>
<path d="M55.6596 44.1096H51.0138V39.7126H47.2806V44.1096H42.6348V47.6768H47.2806V51.9908H51.0138V47.6768H55.6596V44.1096Z" fill="#0587D6"/>
<path d="M49.1057 69.4126C38.6527 64.9327 34.0069 55.5582 33.5092 49.668C33.0114 44.3586 32.8455 38.0536 33.0114 30.3382C38.4868 30.0894 43.7963 28.845 49.1057 27.1028C54.3322 28.845 59.6417 30.0894 65.2001 30.3382C65.366 37.9706 65.2001 44.2756 64.7023 49.668C64.1216 55.4752 59.4758 64.9327 49.1057 69.4126Z" stroke="#0587D6" stroke-width="1.41381" stroke-miterlimit="10" stroke-linecap="round" stroke-linejoin="round"/>
<path d="M49.1063 65.7624C55.0794 63.4395 60.5548 54.7286 61.1355 49.0043C61.6333 43.7778 61.6333 38.7172 61.6333 34.8181C56.4068 34.5692 54.9135 34.1544 49.2722 32.2463C43.6309 34.0715 42.0546 34.4863 36.8281 34.8181C36.8281 38.7172 36.8282 43.7778 37.3259 49.0043C37.6578 54.5627 43.2161 63.3565 49.1063 65.7624Z" stroke="white" stroke-width="0.72831" stroke-miterlimit="10" stroke-linecap="round" stroke-linejoin="round"/>
<path d="M30.7709 20.5488C29.7754 20.5488 29.0288 20.2999 28.448 19.8851C27.9503 19.3873 27.5355 18.6407 27.3696 17.6452C27.0377 18.1429 26.6229 18.4748 26.1252 18.7236C25.6274 18.9725 25.0466 19.1384 24.383 19.1384C23.3874 19.1384 22.6408 18.8896 22.0601 18.3088C21.5623 17.8111 21.2305 17.0644 21.2305 16.1519C21.2305 15.6541 21.3964 15.0734 21.5623 14.5756C21.8112 14.0779 22.226 13.6631 22.7237 13.1653C23.2215 12.7505 23.9682 12.3357 24.8807 12.0038L27.0377 11.1742V10.2617C27.0377 10.0958 27.1207 10.0128 27.2036 9.92984C27.2866 9.84688 27.3695 9.76392 27.5354 9.76392H28.7798C28.9458 9.76392 29.0287 9.84688 29.1117 9.92984C29.1947 10.0128 29.1947 10.0958 29.1947 10.2617V15.903C29.1947 16.6496 29.2776 17.1474 29.5265 17.3963C29.7754 17.6452 30.1902 17.8111 30.8539 17.8111H31.5176C31.6005 17.8111 31.6835 17.8111 31.6835 17.894C31.7664 17.977 31.7665 18.06 31.7665 18.1429V19.8851C31.7665 20.2169 31.6005 20.3828 31.1857 20.3828H30.7709V20.5488ZM24.9637 16.8985C25.3785 16.8985 25.7933 16.8156 26.1252 16.6496C26.457 16.4837 26.7058 16.2348 26.8718 15.903C27.0377 15.5711 27.1206 15.2393 27.1206 14.9075V13.4142L25.4614 13.9949C24.7977 14.2438 24.3 14.4927 24.0511 14.8245C23.7193 15.1563 23.5534 15.4882 23.5534 15.82C23.5534 16.1519 23.7193 16.4837 23.9682 16.7326C24.217 16.7326 24.5489 16.8985 24.9637 16.8985ZM38.0714 20.6317C37.7396 20.6317 37.4907 20.6317 37.1589 20.5488C36.827 20.4658 36.5781 20.3829 36.2463 20.2999C35.9144 20.134 35.5826 20.051 35.2508 19.8021C34.836 19.6362 34.4212 19.3873 34.0064 19.0555C33.7575 19.4703 33.5086 19.7192 33.1768 19.968C32.8449 20.134 32.596 20.2999 32.2642 20.3828C31.9324 20.4658 31.6835 20.4658 31.3517 20.4658C31.1857 20.4658 31.0198 20.3829 31.0198 20.134V18.3918C31.0198 17.977 31.1857 17.8111 31.6005 17.8111C31.8494 17.8111 32.0153 17.7281 32.1813 17.6452C32.3472 17.5622 32.5131 17.3963 32.679 17.1474C32.8449 16.8985 33.0938 16.5667 33.3427 16.0689C33.8404 15.1563 34.2552 14.4927 34.753 13.9949C35.2508 13.4971 35.6656 13.1653 36.1633 12.9994C36.6611 12.8335 37.0759 12.7505 37.5737 12.7505C38.0714 12.7505 38.5692 12.8335 39.067 12.9994C39.5647 13.1653 39.9795 13.4971 40.3114 13.9949C40.7262 14.4097 41.058 15.0734 41.3069 15.903C41.4728 16.4008 41.7217 16.8156 41.8876 17.0644C42.0536 17.3133 42.3024 17.5622 42.5513 17.6452C42.8002 17.7281 43.132 17.8111 43.4639 17.8111C43.6298 17.8111 43.7957 17.894 43.7957 18.1429V19.8851C43.7957 20.2999 43.6298 20.4658 43.215 20.4658C42.7172 20.4658 42.2195 20.3829 41.8876 20.134C41.4728 19.8851 41.141 19.5532 40.8091 19.0555C40.5602 19.5532 40.1455 19.968 39.6477 20.2169C39.1499 20.5488 38.5692 20.6317 38.0714 20.6317ZM38.0714 18.3088C38.4033 18.3088 38.7351 18.2259 38.901 18.06C39.1499 17.894 39.2329 17.5622 39.3158 17.1474C39.3158 16.8156 39.2329 16.4008 39.067 16.1519C38.901 15.82 38.6522 15.5711 38.4033 15.3223C38.1544 15.1563 37.8225 14.9904 37.4907 14.9904C37.2418 14.9904 36.993 15.0734 36.7441 15.1563C36.4952 15.2393 36.2463 15.4882 35.9974 15.82C35.7485 16.1519 35.4167 16.5667 35.0849 17.1474C35.6656 17.4792 36.1634 17.7281 36.4952 17.894C36.8271 18.06 37.1589 18.1429 37.4078 18.2259C37.5737 18.2259 37.8225 18.3088 38.0714 18.3088ZM43.215 20.5488C43.0491 20.5488 42.8831 20.4658 42.8831 20.2169V18.4748C42.8831 18.06 43.0491 17.894 43.4639 17.894C44.2105 17.894 44.7083 17.7281 45.0401 17.3963C45.372 17.0644 45.4549 16.5667 45.4549 15.7371V13.9119C45.4549 13.5801 45.6208 13.4142 45.9527 13.4142H47.1971C47.5289 13.4142 47.6949 13.5801 47.6949 13.9119V15.7371C47.6949 16.2348 47.7778 16.6496 47.8607 16.9815C48.0267 17.3133 48.2756 17.4792 48.6074 17.6452C48.9393 17.8111 49.437 17.8111 50.0177 17.8111C50.1837 17.8111 50.3496 17.894 50.3496 18.1429V19.8851C50.3496 20.2999 50.1837 20.4658 49.7689 20.4658C48.9393 20.4658 48.1926 20.2999 47.5289 20.051C46.8653 19.8021 46.4504 19.3044 46.1186 18.6407C45.8697 19.3044 45.4549 19.8021 44.9571 20.051C44.4594 20.3829 43.8787 20.5488 43.215 20.5488ZM45.5379 24.282C45.4549 24.365 45.372 24.365 45.289 24.365C45.206 24.365 45.1231 24.282 45.0401 24.282L44.2105 23.4524C44.1276 23.3694 44.1275 23.2865 44.1275 23.2035C44.1275 23.1205 44.1276 23.0376 44.2105 22.9546L45.0401 22.125C45.1231 22.0421 45.206 22.0421 45.289 22.0421C45.372 22.0421 45.4549 22.0421 45.5379 22.125L46.3675 22.9546C46.4504 23.0376 46.5334 23.1205 46.5334 23.2035C46.5334 23.2865 46.5334 23.3694 46.3675 23.4524L45.5379 24.282ZM48.3585 24.282C48.2756 24.365 48.1926 24.365 48.1097 24.365C48.0267 24.365 47.9437 24.282 47.8607 24.282L46.9482 23.4524C46.8652 23.3694 46.8653 23.2865 46.8653 23.2035C46.8653 23.1205 46.8652 23.0376 46.9482 22.9546L47.8607 22.125C47.9437 22.0421 48.0267 22.0421 48.1097 22.0421C48.1926 22.0421 48.2756 22.0421 48.3585 22.125L49.1881 22.9546C49.2711 23.0376 49.3541 23.1205 49.3541 23.2035C49.3541 23.2865 49.3541 23.3694 49.1881 23.4524L48.3585 24.282ZM49.9348 20.5488C49.8518 20.5488 49.7688 20.5488 49.6859 20.4658C49.6029 20.3829 49.6029 20.2999 49.6029 20.2169V18.3918C49.6029 18.2259 49.6859 18.06 49.7689 17.977C49.8518 17.894 50.0178 17.894 50.1837 17.894H50.3496C50.9303 17.894 51.3451 17.7281 51.594 17.3963C51.8428 17.0644 52.0088 16.6496 52.0088 15.9859C52.0088 15.7371 52.0088 15.5711 52.0088 15.4052C52.0088 15.2393 51.9258 14.9904 51.9258 14.8245L51.594 13.2483C51.511 13.0823 51.594 12.9164 51.677 12.8335C51.7599 12.7505 51.8428 12.6675 52.0088 12.6675L53.1702 12.4187C53.5021 12.3357 53.7509 12.5016 53.8339 12.8335L54.2487 14.7415C54.3317 14.9904 54.3317 15.3223 54.4146 15.6541C54.4976 15.9859 54.4976 16.2348 54.4976 16.4837C54.4976 17.6452 54.1658 18.6407 53.585 19.3873C53.0043 20.134 52.0918 20.4658 51.0133 20.4658H49.9348V20.5488ZM52.0088 24.365C51.9258 24.4479 51.8429 24.4479 51.7599 24.4479C51.6769 24.4479 51.511 24.365 51.4281 24.365L50.5985 23.4524C50.5155 23.3694 50.4326 23.2865 50.4326 23.2035C50.4326 23.1205 50.5155 23.0376 50.5985 22.9546L51.4281 22.0421C51.511 21.9591 51.594 21.8761 51.7599 21.8761C51.9258 21.8761 51.9258 21.9591 52.0088 22.0421L52.8384 22.9546C52.9213 23.0376 53.0043 23.1205 53.0043 23.2035C53.0043 23.2865 53.0043 23.4524 52.8384 23.5353L52.0088 24.365Z" fill="#0587D6"/>
</svg>
