<svg width="83" height="81" viewBox="0 0 83 81" fill="none" xmlns="http://www.w3.org/2000/svg">
<path d="M76.4057 41.6201C76.4057 20.8619 59.4217 3.87793 38.7421 3.87793C17.984 3.87793 1 20.8619 1 41.6201C1 62.3783 17.984 79.2836 38.7421 79.2836C59.4217 79.3622 76.4057 62.3783 76.4057 41.6201Z" stroke="#0587D6" stroke-width="1.54192" stroke-miterlimit="10" stroke-linecap="round" stroke-linejoin="round"/>
<path d="M69.8008 21.2551C72.1597 23.2209 72.4742 25.8943 74.1254 28.3318C74.5185 28.8822 74.6758 31.0052 75.069 31.0052C75.698 31.0052 77.3492 28.5677 77.7424 28.0959C78.6073 26.8378 79.4722 25.737 80.3371 25.737C80.573 25.737 80.8876 26.2874 80.8876 26.5233C80.8876 26.7592 80.3372 27.1523 79.4722 28.7249C78.6073 30.4548 78.2928 33.9145 77.1134 35.7229C76.2484 36.981 76.8774 37.9246 76.8774 39.0254C76.7202 41.1484 76.7988 43.4286 76.4843 45.473L74.2827 61.1989" stroke="white" stroke-width="2.29834" stroke-miterlimit="10" stroke-linecap="round" stroke-linejoin="round"/>
<path d="M3.35871 40.126C2.65104 45.3942 4.06638 58.4466 5.08856 61.3559" stroke="white" stroke-width="2.45025" stroke-miterlimit="10" stroke-linecap="round" stroke-linejoin="round"/>
<path d="M6.11084 61.6705C5.48181 59.9406 3.51607 47.7531 3.75196 45.9446" stroke="white" stroke-width="2.29834" stroke-miterlimit="10" stroke-linecap="round" stroke-linejoin="round"/>
<path fill-rule="evenodd" clip-rule="evenodd" d="M60.0518 65.9949C60.2091 66.6239 60.6022 67.253 61.1526 67.7247C61.3885 67.9606 62.9611 68.3538 63.3543 68.2752C66.4208 67.6461 67.9148 65.9163 71.2172 66.7812C71.2958 66.7812 71.3745 66.8598 71.4531 66.8598C72.947 62.9284 65.2414 60.1763 66.8926 56.2448C66.2636 55.144 67.6789 53.886 67.6789 52.5493V49.7972C67.6003 47.1238 65.32 43.3496 64.0619 41.8557L62.9611 39.654C61.703 39.1823 59.1082 36.6661 57.7715 36.902C55.1768 36.6661 53.8401 36.0371 52.582 35.9584C51.7957 35.9584 50.5376 37.2165 49.3582 37.2951C48.0215 39.4181 42.4388 40.9907 40.8662 36.8234C37.2493 34.9363 33.7896 34.8576 31.1162 34.15C30.5658 33.9927 30.723 35.6439 30.094 35.6439L29.1504 36.1157C27.1061 37.3738 25.1403 36.9806 23.4891 38.8677L13.4246 50.1904C13.2673 50.3476 12.0092 51.4484 11.7733 51.5271L7.52734 53.2569C9.25719 54.3577 10.2007 56.0876 9.33581 58.6824C8.94266 59.5473 8.62815 60.4908 8.15637 61.3558C9.02129 62.4566 9.6503 63.4001 10.0434 64.4223C10.1221 64.4223 10.2793 64.5009 10.4366 64.5796C10.8297 64.7368 11.2229 64.9727 11.6947 65.13C11.852 65.2086 11.9306 65.2872 12.1665 65.3659C12.7955 65.6018 13.4245 65.9949 14.0536 66.4667C14.5254 66.7026 14.8399 66.9385 15.3903 67.1743C15.9407 67.4102 16.727 67.882 17.1201 68.3538C17.7491 69.0615 17.9851 68.0393 17.356 68.2752L17.5132 67.7247C17.985 67.5675 17.6705 68.1179 18.2209 67.9606C18.85 67.7248 18.6141 67.0171 19.5576 67.0171C19.7935 67.0171 20.7371 65.2086 20.973 65.2872C23.1746 60.6481 24.4327 57.5029 24.8258 58.2106C26.0053 60.4122 28.6 65.5231 28.6 68.9828C28.6 69.6905 28.6 71.4203 28.5214 72.0494C27.8923 75.6663 27.1061 77.4748 30.723 78.2611C37.4852 79.6764 46.6062 79.5978 53.7615 76.5312C56.199 75.4304 56.3562 72.9929 56.3562 70.3195L56.2776 69.8477C56.2776 67.1743 58.322 65.4445 59.0296 63.2429C58.4792 62.7711 59.1869 63.4001 60.0518 65.9949Z" fill="#00A2E5"/>
<path d="M29.0704 62.0636C28.7559 61.6705 27.2619 61.0414 26.3184 62.0636C26.7901 62.6926 27.1833 63.4789 27.2619 64.2652C28.2055 65.9165 28.52 67.8036 28.9131 70.5556C29.2276 72.6786 28.9918 74.723 28.4414 76.6887L28.9131 76.6101C29.0704 75.981 29.149 75.1947 29.2277 75.1161C29.9353 72.8358 30.9575 69.3761 30.5644 66.9386C30.0926 63.7935 30.4857 64.108 29.0704 62.0636Z" fill="#85DBF6"/>
<path fill-rule="evenodd" clip-rule="evenodd" d="M66.1043 69.0617L65.6325 68.5113L64.6889 67.5677C64.6103 67.4891 64.6103 67.4105 64.6103 67.1746L65.0821 63.0859L65.2393 62.2996C66.2615 57.8963 68.1486 50.4265 68.5418 48.1463L68.6204 47.7531V47.6745L68.6991 46.8096C68.6991 46.5737 68.6991 46.1805 68.6991 45.9446C68.6991 44.7652 68.5418 43.114 68.1486 40.5192C68.07 39.9688 68.07 39.1039 67.9914 38.3176C67.9127 37.5313 67.9127 36.745 67.8341 36.4305C67.2051 34.5434 67.1264 33.7571 66.2615 32.4204L65.7898 31.87C65.7898 31.87 65.7898 31.7913 65.7111 31.7913C65.7111 31.7127 65.6325 31.6341 65.6325 31.5554L65.5539 31.4768H65.4752C65.3966 31.3982 65.3966 31.3982 65.3966 31.3196L65.318 31.2409H65.2393C65.1607 31.2409 65.0821 31.2409 65.0035 31.1623C64.8462 31.005 64.8462 30.8478 64.8462 30.8478C64.7676 30.6905 64.6889 30.6119 64.6103 30.4546C64.4531 30.4546 64.2958 30.2974 64.3744 30.0615C64.3744 29.9042 64.5317 29.747 64.6103 29.6683C64.6889 29.5897 64.7676 29.5111 64.8462 29.5111C64.9248 29.3538 65.0035 29.3538 65.1607 29.4324C65.2394 29.5111 65.318 29.5897 65.318 29.747C65.5539 29.5111 65.5538 29.9829 65.4752 29.747C65.4752 29.747 65.3966 29.6683 65.318 29.5897L65.1607 29.6683C65.0821 29.5111 65.0034 29.6683 65.0821 29.5111L65.318 29.747V29.6683C65.3966 29.6683 65.4752 29.5897 65.5539 29.5897C65.7111 29.5111 65.7898 29.9042 65.5539 29.6683C65.4752 29.5897 65.2393 29.6683 65.2393 29.5897C65.3966 30.6119 66.1043 29.2752 66.3402 30.2974C66.4974 30.376 66.4974 30.4546 66.6547 30.5333C66.8905 30.7691 67.1265 31.005 67.3623 31.2409C67.6769 31.5554 67.9914 31.87 68.3059 32.1845C68.3845 31.9486 68.4632 31.7127 68.4632 31.3982C68.2273 30.8478 67.9914 30.2974 67.6769 29.747C67.1265 28.5675 66.576 27.4667 66.0256 26.2873C66.0256 26.2086 66.1043 26.13 66.1043 26.13C66.1043 25.8941 65.947 25.7369 65.7898 25.5796C65.7898 25.1865 65.7111 24.7933 65.7111 24.4002C65.8684 24.2429 65.947 24.0856 66.1829 23.8498C66.3402 23.9284 66.6547 24.1643 66.8906 24.4788C67.2051 24.8719 67.3623 25.3437 67.441 25.5796C67.9127 26.2873 68.3845 26.9163 68.8563 27.624C69.9571 30.6905 70.2716 31.3196 70.2716 31.3196C70.4289 31.2409 70.0358 28.8034 69.2495 26.2873C68.5418 24.0856 67.8341 22.6703 68.2272 22.2772C68.3845 22.0413 68.699 22.1985 69.0135 22.2772C69.1708 22.5131 69.3281 22.7489 69.4853 22.9848C69.8785 23.6925 70.2716 24.4788 70.6648 25.1865C70.9007 25.8155 71.8442 25.501 72.0801 26.0514C72.316 27.624 72.7091 28.253 72.8664 28.8034C72.945 29.0393 72.945 29.2752 73.0237 29.2752C73.1023 29.2752 73.1809 30.1401 73.1809 29.6683C73.1809 29.1966 73.1809 28.9607 73.1023 28.4889C72.945 27.7812 72.945 26.5232 72.2374 24.3215C71.7656 23.8498 71.5297 22.9848 71.6084 22.5917C71.6084 22.5131 71.8442 22.1199 71.9228 21.9626C72.316 22.1199 72.316 21.9626 72.7091 22.1199C73.0237 22.7489 73.5741 23.378 73.8886 24.007C74.0458 24.5574 74.2817 25.1865 74.439 25.7369C74.3604 26.3659 74.7535 27.3881 75.068 28.5675C75.3825 29.5897 75.4612 30.1401 75.7757 30.6119C75.7757 32.0272 75.4612 31.87 75.697 31.9486C75.8543 31.9486 75.8543 33.2067 76.0116 32.9708C76.1688 32.6563 75.933 32.4204 76.1688 32.1058C76.2475 31.87 76.2475 31.6341 76.3261 31.4768C76.4047 31.2409 75.8543 30.5333 76.0116 30.2974C76.1688 30.0615 76.562 29.9829 76.7193 29.8256C76.8765 29.747 76.562 28.5675 76.7193 28.4889C76.8765 28.4103 77.3483 27.7812 77.4269 27.7812C77.5842 27.7812 77.9773 27.624 78.2132 27.7026C78.2132 27.7026 78.5277 27.7026 78.685 28.0171C78.8423 28.253 78.4491 29.8256 78.3705 30.0615C78.2918 30.2187 78.1346 30.6905 78.0559 30.8478C77.9773 30.9264 77.9773 31.4768 77.8987 31.5554C77.5842 32.0272 77.8987 32.6563 77.5842 33.128C77.3483 34.3075 77.0337 35.7228 76.4833 37.2954C75.8543 38.9466 74.9108 39.1039 75.1467 41.5414C74.8322 42.7208 75.3825 44.4507 75.2253 46.2592C75.068 47.989 75.3039 49.8761 75.3826 51.0555C74.5176 56.2451 77.191 62.5354 73.4954 66.4669C73.1809 68.9044 69.6426 70.0053 67.5196 70.0053C67.5982 69.0617 66.5761 69.5335 66.1043 69.0617Z" fill="white"/>
<path fill-rule="evenodd" clip-rule="evenodd" d="M16.4119 65.5232C15.6256 66.3881 13.8172 67.6462 12.4805 67.6462C9.6498 67.6462 6.81911 65.0514 5.7183 61.749C5.08926 60.0191 2.88764 47.8316 3.12353 45.9445C3.20216 44.6864 3.20219 41.8557 3.20219 40.6763C3.20219 38.0815 3.5167 38.2388 3.04492 36.9021L3.20219 33.7569C2.4159 31.9484 5.32517 29.0391 4.0671 27.3879C3.90984 27.152 4.61751 25.894 4.61751 25.7367C4.61751 25.3436 5.32515 25.3436 5.7183 25.3436C6.34733 25.3436 5.71831 27.0734 6.03283 27.3879C6.58324 28.4101 4.22437 28.4101 5.16793 29.7468C5.40382 30.2972 5.01067 28.4101 5.56107 28.2528C6.19011 27.7024 7.21226 25.6581 7.68403 25.2649C9.41388 23.6923 9.09937 21.5693 11.3796 20.7044C11.93 20.5472 15.6256 21.4121 15.9401 21.4121C16.6478 21.4121 18.4563 24.6359 18.4563 24.7931C18.4563 25.3436 14.918 29.7468 14.4462 29.8254H18.299C18.928 29.9041 18.2204 31.4767 17.7486 31.398C16.4119 31.1621 14.0531 34.0714 13.8172 34.3073C12.7164 35.1722 11.7728 38.1602 11.0651 39.4182C10.4361 40.2831 9.80706 44.0574 10.9079 46.4163L15.1538 60.1764L16.4119 65.5232Z" fill="white"/>
<path fill-rule="evenodd" clip-rule="evenodd" d="M15.1557 66.8601C16.0206 65.602 19.1658 60.098 19.8735 58.5254C19.6376 56.7955 19.3231 55.4588 18.4582 54.9084C17.7505 54.2794 15.0771 51.3701 14.3694 51.3701C12.7968 51.2915 11.7747 54.4366 11.9319 55.3802C12.8755 59.233 14.1335 63.0073 15.1557 66.8601Z" fill="white"/>
<path fill-rule="evenodd" clip-rule="evenodd" d="M51.4016 28.4103L40.5508 27.4668V32.8136C41.7302 34.5435 43.3814 36.0374 46.448 36.0374C46.8411 36.0374 47.2343 35.9588 47.706 35.8801L47.8633 35.8015C49.0428 33.1281 50.3008 30.8479 51.4016 28.4103Z" fill="white"/>
<path fill-rule="evenodd" clip-rule="evenodd" d="M54.6251 12.3701C53.7602 8.28133 49.8287 7.18051 49.8287 5.92244V4.34985C49.8287 5.45067 48.492 5.92244 47.6271 5.92244C41.4154 5.92244 37.5625 12.9205 37.5625 17.8741C37.5625 19.2895 37.6411 20.6262 37.7198 21.8842C37.9557 24.3217 39.4496 26.2875 40.9436 27.8601C42.5162 29.4327 44.1674 30.5335 46.369 30.5335C48.5706 30.5335 50.3005 29.354 51.7945 27.8601C53.3671 26.2875 54.4679 24.2431 54.7038 21.8842C55.3328 18.5818 55.3328 15.5152 54.6251 12.3701Z" fill="white"/>
<path fill-rule="evenodd" clip-rule="evenodd" d="M29.541 32.735C29.541 32.735 29.7769 28.1745 32.4503 22.7491C32.4503 22.7491 29.4623 15.4365 31.2708 10.4829C33.0007 5.60786 35.9886 2.54131 41.2568 0.654199C43.1439 0.0251636 45.1096 -0.0534683 46.7608 0.0251612C50.3778 0.26105 53.6016 2.54131 55.4887 5.76511C56.9827 8.35989 58.5553 11.8982 58.1621 14.9648C57.5331 21.0192 60.5996 20.9406 57.6117 29.8257C57.6117 29.8257 55.7246 32.5778 58.7911 34.3076" fill="white"/>
<path fill-rule="evenodd" clip-rule="evenodd" d="M39.1349 4.42828C39.1349 4.42828 35.2821 8.35975 35.2035 17.0876C35.1248 25.8155 36.3043 23.6139 38.0342 28.3316C39.8426 33.0494 38.6632 31.7913 39.6067 34.1502C40.4717 36.5091 42.3588 42.0132 42.3588 42.0132L42.2801 42.7995C42.2801 42.7995 38.1128 40.6765 37.0906 37.9244C37.0906 37.9244 36.3829 40.5978 34.889 41.3841C34.889 41.3841 35.5966 34.9365 35.3607 34.622L30.5644 35.3297C30.5644 35.3297 29.8567 29.5111 33.6309 23.2207C33.6309 23.2207 33.0805 11.8194 33.7095 11.8194C33.7095 11.5836 35.2035 4.27102 39.1349 4.42828Z" fill="#85DBF6"/>
<path fill-rule="evenodd" clip-rule="evenodd" d="M54.783 8.83154C54.783 8.83154 57.535 14.1783 57.2991 17.4022C57.0633 20.626 57.2992 26.2087 55.8838 29.3538C54.3899 32.4204 57.2991 34.9365 57.2991 34.9365L58.7145 36.4305L58.5572 36.8236L52.1096 35.8014C52.1096 35.8014 49.7507 40.1261 49.7507 42.2491C49.7507 42.2491 46.9987 40.991 51.1661 31.7127C52.2669 29.3538 53.9181 27.2308 55.0975 22.3558C55.6479 19.2893 55.1761 14.5715 54.783 8.83154Z" fill="#85DBF6"/>
<path d="M44.0121 1.67651L39.4516 3.56362C38.6653 4.0354 36.5423 5.52936 35.8347 6.39428C34.3407 8.36002 33.8689 10.4044 33.4758 12.8419C33.3185 14.3359 33.2399 15.9084 33.3185 17.4024L33.5544 21.4911C33.633 22.592 33.4758 23.4569 33.0826 24.3218L31.2741 28.8037C30.8023 29.9831 30.6451 31.1626 30.5665 32.342L30.252 36.0376L35.2056 34.6223" stroke="#0587D6" stroke-width="0.931523" stroke-miterlimit="10" stroke-linecap="round" stroke-linejoin="round"/>
<path d="M53.4473 5.68652L55.6489 10.4043C56.8283 12.6059 57.0642 14.9648 57.2215 17.6382V21.8842C57.1428 24.2431 56.5924 27.3096 55.6489 29.8258C55.1771 31.2411 55.413 32.8137 56.4352 33.9145C56.5924 34.1504 56.8283 34.3076 56.9856 34.5435L58.4796 36.9024" stroke="#0587D6" stroke-width="0.931523" stroke-miterlimit="10" stroke-linecap="round" stroke-linejoin="round"/>
<path d="M49.1197 37.61C45.2669 41.1483 41.9644 38.3176 41.9644 38.3176C41.9644 38.3176 39.6055 35.8015 39.291 31.241" stroke="#0587D6" stroke-width="0.756415" stroke-miterlimit="10" stroke-linecap="round" stroke-linejoin="round"/>
<path d="M39.5284 33.6785C39.5284 33.6785 41.2582 38.1603 42.4377 42.3277C42.5163 42.5636 42.2804 42.8781 41.9659 42.7995C40.6292 42.2491 37.8771 40.6765 36.9336 37.374" stroke="#0074A5" stroke-width="0.769704" stroke-miterlimit="10" stroke-linecap="round"/>
<path d="M52.2676 35.8013C52.2676 35.8013 55.8845 36.3517 58.3221 36.9807" stroke="#0587D6" stroke-width="0.756415" stroke-miterlimit="10" stroke-linecap="round" stroke-linejoin="round"/>
<path d="M58.4004 36.981C58.6363 36.981 60.7593 38.3963 60.9165 38.4749C62.096 39.4185 63.6686 40.9911 64.0617 41.856C65.0839 43.1927 67.6787 48.854 67.9146 49.6403" stroke="#0587D6" stroke-width="1.3367" stroke-miterlimit="10" stroke-linecap="round" stroke-linejoin="round"/>
<path fill-rule="evenodd" clip-rule="evenodd" d="M41.1018 27.7025C39.5292 26.1299 38.2711 24.0856 37.878 21.7267C37.7993 20.4686 37.7207 19.0533 37.7207 17.7166C37.7207 17.5593 37.7207 17.3234 37.7207 17.0875C37.7993 18.1883 37.7993 19.0533 37.878 19.9182C38.1139 22.3557 39.6078 25.0291 41.1018 26.6017C42.5957 28.1743 44.3256 29.2751 46.5272 29.2751C48.7288 29.2751 50.4587 28.1743 51.9527 26.6017C53.5253 25.0291 54.626 22.3557 54.8619 19.9182C55.0192 18.7388 55.0978 17.5593 55.0978 16.4585C55.1765 18.267 55.0192 19.9182 54.8619 21.8053C54.4688 24.2428 53.2894 26.2086 51.9527 27.7811C50.3801 29.3537 48.7288 30.4545 46.5272 30.4545C44.1683 30.5332 42.5171 29.4324 41.1018 27.7025Z" fill="#85DBF6"/>
<path fill-rule="evenodd" clip-rule="evenodd" d="M49.9083 5.76486C49.9083 6.86567 48.5716 7.33745 47.7066 7.33745C41.4949 7.33745 37.6421 12.7629 37.6421 17.7165C37.6421 23.6137 39.0574 28.1743 40.7086 32.7348C38.7429 30.3759 35.2832 23.8496 35.2832 18.5028C35.2832 14.4141 35.6763 9.46044 37.878 6.07937C39.8437 3.17008 43.3034 1.20435 46.5272 1.20435C50.4587 1.20435 54.626 4.50678 54.626 10.9544C54.626 11.033 54.626 11.1117 54.626 11.1903L54.7833 12.4484C53.9184 8.35963 49.9869 8.67415 49.9869 7.57333V6.00075H49.8297L49.9083 5.76486Z" fill="#85DBF6"/>
<path d="M53.6802 34.5432C53.6802 34.5432 49.277 37.2953 50.1419 43.1139C45.9745 40.2046 52.9726 28.4101 53.9948 25.7367C55.0956 22.9847 55.4101 19.9968 55.4101 17.0875C55.4101 15.2004 55.017 13.3133 54.7025 11.1903C54.7025 11.1117 54.7025 11.033 54.7025 10.9544C54.7025 4.58541 50.5351 1.20435 46.6036 1.20435C43.537 1.20435 39.9987 3.17008 37.9543 6.07937C35.8313 9.46044 35.3596 14.4141 35.3596 18.5028C35.3596 21.8053 35.5955 24.9504 36.0673 28.3315C36.8536 34.5432 38.1116 39.4183 34.5733 41.6199C34.5733 41.6199 36.6963 35.1723 34.416 29.511" stroke="#0587D6" stroke-width="0.931523" stroke-miterlimit="10" stroke-linecap="round" stroke-linejoin="round"/>
<path d="M49.2006 2.69824C49.5938 3.24865 49.9083 5.13576 49.9083 5.76479C49.9083 6.8656 48.5716 7.33738 47.7066 7.33738C41.4949 7.33738 37.6421 12.7628 37.6421 17.7165C37.6421 23.6137 39.0574 28.1742 40.7086 32.7347C38.7429 30.3758 35.2832 23.8496 35.2832 18.5028" stroke="#0587D6" stroke-width="0.931523" stroke-miterlimit="10" stroke-linecap="round" stroke-linejoin="round"/>
<path d="M49.9082 5.76514V7.33773C49.9082 8.5958 53.8397 8.20265 54.7046 12.2128" stroke="#0587D6" stroke-width="0.756415" stroke-miterlimit="10" stroke-linecap="round" stroke-linejoin="round"/>
<path d="M37.8789 21.8054C38.1148 24.2429 39.6087 26.2087 41.1027 27.7813C42.6753 29.3539 44.3265 30.4547 46.5281 30.4547C48.7298 30.4547 50.4596 29.2752 51.9536 27.7813C53.4476 26.2087 54.627 24.1643 54.8629 21.8054" stroke="#0587D6" stroke-width="0.756415" stroke-miterlimit="10" stroke-linecap="round" stroke-linejoin="round"/>
<path d="M47.5476 3.56372C41.4145 3.56372 37.6403 7.65246 36.7754 13.6283" stroke="#0587D6" stroke-width="0.756415" stroke-miterlimit="10" stroke-linecap="round" stroke-linejoin="round"/>
<path d="M44.0104 16.3799C42.9096 15.6722 41.8089 15.5149 40.5508 16.3012" stroke="#00A2E5" stroke-width="0.756415" stroke-miterlimit="10" stroke-linecap="round" stroke-linejoin="round"/>
<path fill-rule="evenodd" clip-rule="evenodd" d="M42.6744 15.751C43.0676 15.8296 43.3035 16.1441 43.2248 16.5373C43.1462 16.9304 42.8317 17.1663 42.4385 17.0877C42.0454 17.0091 41.8095 16.6946 41.8881 16.3014C41.9667 15.8296 42.3599 15.6724 42.6744 15.751Z" fill="#0587D6"/>
<path fill-rule="evenodd" clip-rule="evenodd" d="M46.4475 26.4444C48.0201 26.4444 48.5705 25.1863 49.3568 24.4C48.0987 23.8496 47.9415 24.0069 47.3124 24.0069C46.9193 24.0069 46.6047 24.1641 46.2116 24.1641C45.9757 24.1641 45.5826 24.0069 45.1108 24.0069C44.5604 24.0069 44.3245 24.0069 43.0664 24.4C44.3245 25.1863 44.7963 26.4444 46.4475 26.4444Z" fill="#00A2E5"/>
<path d="M49.9077 24.3218C49.0427 24.7149 47.7847 25.0294 46.448 25.0294C45.1113 25.0294 43.8532 24.7936 42.9883 24.3218" stroke="#0587D6" stroke-width="0.756415" stroke-miterlimit="10" stroke-linecap="round" stroke-linejoin="round"/>
<path d="M44.7168 21.2551C45.4245 21.2551 45.8176 21.9628 46.4467 21.9628C47.0757 21.9628 47.5474 21.2551 48.1765 21.2551" stroke="#0587D6" stroke-width="0.756415" stroke-miterlimit="10" stroke-linecap="round" stroke-linejoin="round"/>
<path d="M48.9629 16.3799C50.0637 15.6722 51.0859 15.5149 52.4226 16.3012" stroke="#00A2E5" stroke-width="0.756415" stroke-miterlimit="10" stroke-linecap="round" stroke-linejoin="round"/>
<path fill-rule="evenodd" clip-rule="evenodd" d="M50.1446 15.751C50.5378 15.6724 50.8523 15.8296 50.9309 16.3014C51.0095 16.7732 50.8523 17.0091 50.3805 17.0877C49.9874 17.1663 49.6729 17.0091 49.5943 16.5373C49.5156 16.2228 49.8301 15.751 50.1446 15.751Z" fill="#0587D6"/>
<path d="M46.7637 14.8075H46.0561C45.2698 14.8075 43.6186 14.1785 42.2032 14.1785H38.1931C38.1931 16.9305 37.9572 18.8962 41.2597 18.8962C45.9774 18.8962 45.1125 15.5152 45.8988 15.5152H46.6065C47.4714 15.5152 46.5278 18.8962 51.2456 18.8962C54.6267 18.8962 54.3122 16.8519 54.3122 14.1785H50.302C49.2799 14.1785 47.55 14.8075 46.7637 14.8075Z" stroke="#0587D6" stroke-width="0.71545" stroke-miterlimit="10" stroke-linecap="round" stroke-linejoin="round"/>
<path fill-rule="evenodd" clip-rule="evenodd" d="M65.8685 68.9832C65.0036 67.7251 62.4088 63.5578 61.7012 62.2211C62.2516 58.4469 65.1609 56.3239 67.677 55.6162L65.8685 68.9832Z" fill="white"/>
<path d="M6.34647 28.7249C5.87469 29.2753 6.03194 28.0173 6.58235 27.231C6.11057 27.3882 7.21135 26.9164 6.89683 26.366C6.18917 24.9507 6.42508 25.2652 5.63878 24.7148C5.32426 24.4789 3.98754 24.8721 3.75166 25.8156C3.67303 25.9729 3.75169 27.5455 3.20129 28.1745C3.04403 28.3318 2.72949 30.0616 2.88675 30.2975C2.80812 31.477 2.17908 31.8701 2.72948 33.4427L3.35851 36.352C3.83029 37.7673 3.59444 36.1161 3.59444 38.6322C3.59444 39.8903 3.90892 39.0254 3.90892 40.1262" stroke="white" stroke-width="2.05372" stroke-miterlimit="10" stroke-linecap="round" stroke-linejoin="round"/>
<path fill-rule="evenodd" clip-rule="evenodd" d="M13.188 29.6688C14.2888 29.5902 14.6033 29.7474 14.3674 30.7696C16.4904 30.691 16.3332 31.32 15.2324 32.3422C16.3332 32.7353 16.0973 33.5216 14.5247 34.7011L13.1094 34.4652L13.188 29.6688Z" fill="white"/>
<path d="M10.9854 38.7109C10.3564 39.5759 10.0419 44.9227 10.7496 47.3602L15.7032 61.199" stroke="#0587D6" stroke-width="0.756415" stroke-miterlimit="10" stroke-linecap="round" stroke-linejoin="round"/>
<path d="M17.5117 68.0395C23.0158 64.5798 24.1952 56.5596 24.9029 58.0535C26.0823 60.2552 28.7558 65.602 28.7558 69.0617C28.7558 71.8137 28.3626 74.4871 27.1045 76.9246" stroke="#0587D6" stroke-width="1.3367" stroke-miterlimit="10" stroke-linecap="round" stroke-linejoin="round"/>
<path fill-rule="evenodd" clip-rule="evenodd" d="M19.4785 57.9749C19.4785 57.9749 21.287 65.4447 18.6922 67.0959C18.6922 67.0959 17.2769 67.7249 16.0188 66.3882C15.9402 66.3096 19.6357 65.6019 19.4785 57.9749Z" fill="#85DBF6"/>
<path d="M12.6367 50.7413L19.792 43.1929C20.4996 41.9348 21.2859 40.5195 22.9372 39.3401C24.038 38.5538 25.8465 37.0598 27.1832 36.7453L30.0924 35.8804" stroke="#0587D6" stroke-width="1.3367" stroke-miterlimit="10" stroke-linecap="round" stroke-linejoin="round"/>
<path d="M62.2517 67.6467C60.1287 67.0963 58.4775 62.6931 58.2416 63.4007C57.534 65.5237 56.04 67.0963 56.04 69.7697C56.04 71.1064 55.6468 73.1508 56.04 74.4875" stroke="#0587D6" stroke-width="1.3367" stroke-miterlimit="10" stroke-linecap="round" stroke-linejoin="round"/>
<path d="M58.0052 74.0156C52.2653 77.3967 45.8177 79.2052 38.8196 79.2052C33.3156 79.2052 27.9688 77.9471 23.0938 75.8241" stroke="white" stroke-width="3.08377" stroke-miterlimit="10" stroke-linecap="round" stroke-linejoin="round"/>
<path d="M58.9496 73.4653C53.0524 77.2395 46.2117 79.3625 38.8205 79.3625C32.6088 79.3625 26.6329 77.79 21.4434 75.1952" stroke="#0587D6" stroke-width="1.54192" stroke-miterlimit="10" stroke-linecap="round" stroke-linejoin="round"/>
<path d="M65.8685 68.9833C65.0036 67.7252 62.4875 63.7938 61.7012 62.2998" stroke="#0587D6" stroke-width="0.756415" stroke-miterlimit="10" stroke-linecap="round" stroke-linejoin="round"/>
<path d="M30.0924 37.6882C29.3847 37.9241 26.8686 38.5532 25.2174 39.654C23.9593 40.4403 22.9371 41.5411 22.0722 42.7205L19.9492 45.8657" stroke="#85DBF6" stroke-width="0.756415" stroke-miterlimit="10" stroke-linecap="round" stroke-linejoin="round"/>
<path d="M12.7168 51.2913C12.7168 51.2913 20.2652 53.0997 20.737 61.3558C20.8156 62.6139 20.5797 63.872 20.0293 64.9728C17.2773 70.6341 14.9971 66.3095 15.6261 67.1744" stroke="#0587D6" stroke-width="1.74479" stroke-miterlimit="10" stroke-linecap="round" stroke-linejoin="round"/>
<path d="M66.4181 55.5376C62.4867 58.4469 60.4423 61.828 60.9927 64.58C61.5431 67.332 62.1721 68.4328 64.2951 67.9611" stroke="#0587D6" stroke-width="1.74479" stroke-miterlimit="10" stroke-linecap="round" stroke-linejoin="round"/>
<path d="M15.1543 66.8605C15.1543 66.8605 19.9507 60.4129 20.1866 57.6609" stroke="#0587D6" stroke-width="1.02635" stroke-miterlimit="10" stroke-linecap="round" stroke-linejoin="round"/>
<path d="M13.7385 51.3699C12.8736 52.4707 12.7949 52.7066 12.7949 52.7066" stroke="#0587D6" stroke-width="1.02635" stroke-miterlimit="10" stroke-linecap="round" stroke-linejoin="round"/>
<path d="M59.1074 69.6907L64.6901 70.2411C65.4764 71.5778 66.1055 72.6786 66.8918 74.0939" stroke="white" stroke-width="2.79457" stroke-miterlimit="10" stroke-linejoin="round"/>
<path d="M15.3098 68.9831C11.0638 70.7916 7.21094 68.1182 7.21094 68.1182" stroke="white" stroke-width="3.08377" stroke-miterlimit="10" stroke-linejoin="round"/>
<path d="M30.7989 44.2935C30.7989 44.2935 23.3291 48.3822 25.4521 59.0758" stroke="#0587D6" stroke-width="1.3367" stroke-miterlimit="10" stroke-linecap="round"/>
<path d="M57.457 45.9446C57.457 45.9446 63.3542 52.7853 58.2433 63.4003" stroke="#0587D6" stroke-width="1.3367" stroke-miterlimit="10" stroke-linecap="round" stroke-linejoin="round"/>
<path d="M76.1677 30.6905C76.4822 30.2973 76.7967 30.4546 76.954 30.0614C77.3471 29.1179 76.5608 28.4102 77.583 27.6239C78.4479 27.1522 78.9983 27.7026 78.9983 27.7026C78.9983 27.7026 78.7624 29.511 78.0548 31.5554C77.8189 32.1844 77.4257 34.3861 77.3471 35.0151C77.0326 36.5091 76.5608 37.4526 75.7745 38.7893C75.0669 39.9688 75.5386 44.372 75.46 46.495L75.9318 60.8842C76.0891 63.9507 72.6293 69.5334 70.3491 69.6121C69.2483 69.6907 66.7321 69.7693 65.8672 68.8258" stroke="#0587D6" stroke-width="0.786295" stroke-miterlimit="10" stroke-linecap="round" stroke-linejoin="round"/>
<path d="M76.4047 33.2852C76.4047 33.2066 76.4833 32.1058 76.2474 31.1622C76.0115 30.2973 75.4611 28.4888 75.4611 28.4888C75.4611 28.4888 74.0458 22.2771 72.945 21.9626C72.2373 21.8053 72.0801 22.4343 72.0801 22.7489C72.0801 22.7489 74.1244 27.5453 73.6527 29.9041" stroke="#0587D6" stroke-width="0.786295" stroke-miterlimit="10" stroke-linecap="round" stroke-linejoin="round"/>
<path d="M69.2489 22.9849C68.8558 21.5695 70.3497 21.6482 70.7428 22.3558" stroke="#0587D6" stroke-width="0.786295" stroke-miterlimit="10" stroke-linecap="round" stroke-linejoin="round"/>
<path d="M66.1032 61.9063C66.1819 57.6603 68.9339 46.9667 69.1697 45.3941C69.327 44.8437 69.5629 43.8215 69.7202 43.1139C69.9561 41.9344 69.8774 40.8336 69.6416 39.5755C69.5629 39.1824 69.5629 38.9465 69.327 38.7106C69.0125 38.2388 68.5407 37.3739 68.6193 36.7449C68.6193 36.1945 68.6194 35.7227 68.5407 35.0936C68.0689 33.1279 67.9117 32.263 67.1254 30.8477C66.9681 30.3759 64.6879 28.2529 65.0024 27.7025C65.8673 26.6803 68.0689 29.9827 68.5407 30.4545L69.4843 31.634C70.2706 29.6682 66.8109 25.894 66.575 24.2428C66.575 24.0069 66.575 23.8496 66.6536 23.771C66.8109 23.3779 67.5185 23.2992 67.833 23.6137" stroke="#0587D6" stroke-width="0.786295" stroke-miterlimit="10" stroke-linecap="round" stroke-linejoin="round"/>
<path d="M71.6082 31.0836C70.9792 27.7025 67.834 23.6138 67.834 23.6138" stroke="#0587D6" stroke-width="0.786295" stroke-miterlimit="10" stroke-linecap="round" stroke-linejoin="round"/>
<path d="M69.248 23.1421C69.4839 23.4566 72.1573 29.747 71.5283 31.0837" stroke="#0587D6" stroke-width="0.786295" stroke-miterlimit="10" stroke-linecap="round" stroke-linejoin="round"/>
<path d="M70.666 22.3562C71.9241 24.0074 73.6539 30.0619 73.6539 30.0619" stroke="#0587D6" stroke-width="0.786295" stroke-miterlimit="10" stroke-linecap="round" stroke-linejoin="round"/>
<path d="M5.24609 32.8133C5.24609 32.7347 5.63922 30.3758 6.111 29.5895C6.50415 28.8032 7.68359 27.3093 7.68359 27.3093C7.68359 27.3093 9.72795 21.8052 12.0082 21.7266C12.5586 21.8838 12.6372 22.277 12.4014 22.7487C12.4014 22.7487 9.25619 26.523 9.0203 28.8818" stroke="#0587D6" stroke-width="0.786295" stroke-miterlimit="10" stroke-linecap="round" stroke-linejoin="round"/>
<path d="M15.2317 23.7713C15.6248 22.9063 14.6813 22.4346 14.1309 22.9063" stroke="#0587D6" stroke-width="0.786295" stroke-miterlimit="10" stroke-linecap="round" stroke-linejoin="round"/>
<path d="M10.9863 38.6317C11.9299 37.6095 12.1658 36.9018 12.7162 35.5651C13.5811 33.9926 13.7384 32.8131 15.0751 31.8696C15.311 31.7123 18.2203 29.1175 17.7485 28.6457C17.1981 27.4663 14.3674 30.4542 13.8956 30.6901L12.4803 31.2405C12.8735 29.5107 16.1759 27.309 17.1194 25.7365C17.3553 25.1861 16.8836 24.557 16.1759 24.7929" stroke="#0587D6" stroke-width="0.786295" stroke-miterlimit="10" stroke-linecap="round" stroke-linejoin="round"/>
<path d="M10.5938 30.3761C11.4587 28.489 16.1765 24.7935 16.1765 24.7935" stroke="#0587D6" stroke-width="0.786295" stroke-miterlimit="10" stroke-linecap="round" stroke-linejoin="round"/>
<path d="M15.1534 23.8496C14.8388 24.0855 10.5142 29.1178 10.5929 30.2972" stroke="#0587D6" stroke-width="0.786295" stroke-miterlimit="10" stroke-linecap="round" stroke-linejoin="round"/>
<path d="M14.0538 22.9062C12.0881 23.9284 9.02148 28.9607 9.02148 28.9607" stroke="#0587D6" stroke-width="0.786295" stroke-miterlimit="10" stroke-linecap="round" stroke-linejoin="round"/>
<path d="M14.8384 67.0172C14.8384 67.0172 8.78391 70.6341 5.16695 60.0192C4.85243 58.2893 3.59435 43.8215 4.61654 37.2953C4.14476 35.8013 4.22338 36.0372 3.67297 34.4646C3.51571 34.0714 3.43706 33.4424 3.35844 32.892C3.27981 32.263 3.35845 31.5553 3.67297 30.9263C3.90886 30.3759 4.06612 29.8254 4.06612 28.8033C4.06612 28.646 4.06613 28.4101 4.22339 28.2529C4.45928 27.7811 5.00968 26.6016 5.00968 25.5795L5.24556 25.5008C5.24556 25.5008 6.26775 25.1077 6.58227 26.1299C6.81816 26.9162 5.8746 27.5452 6.03186 28.4888C6.11049 28.9605 6.03185 29.1178 6.26774 29.5896" stroke="#0587D6" stroke-width="0.786295" stroke-miterlimit="10" stroke-linecap="round" stroke-linejoin="round"/>
</svg>
