<svg width="140" height="144" viewBox="0 0 140 144" fill="none" xmlns="http://www.w3.org/2000/svg">
<path d="M68.4224 136.093C105.363 136.093 135.31 106.076 135.31 69.0467C135.31 32.0178 105.363 2 68.4224 2C31.4816 2 1.53516 32.0178 1.53516 69.0467C1.53516 106.076 31.4816 136.093 68.4224 136.093Z" stroke="#0587D6" stroke-width="2.73088" stroke-miterlimit="79.8403" stroke-linecap="round" stroke-linejoin="round"/>
<path d="M79.5963 92.5131C76.0844 92.5131 71.4549 93.6305 69.22 95.3865C66.5062 97.6214 62.0365 92.5131 58.3649 92.5131C58.0456 92.5131 56.6089 92.5131 55.3318 91.236C54.5336 90.4378 54.0547 89.3204 54.0547 88.203V61.5439H83.7469V88.3626C83.9065 90.5975 81.8312 92.5131 79.5963 92.5131Z" fill="white" stroke="white" stroke-width="1.59635" stroke-miterlimit="10"/>
<path d="M68.8995 127.633C68.5802 127.473 68.4206 127.154 68.1013 126.994C64.749 125.079 64.1104 123.961 64.749 120.13C65.3875 116.937 66.1857 113.745 66.9838 110.552C67.1435 109.754 67.3031 108.796 67.3031 107.838C65.0682 109.754 63.9508 112.308 62.8333 115.022C61.7159 117.735 61.0774 120.449 60.9177 123.482C59.0021 122.844 57.5654 122.046 56.6075 120.29C55.969 119.172 56.2883 118.055 56.6075 116.937C58.2039 112.308 61.237 108.796 65.7068 106.242C65.8664 106.082 66.1857 106.082 66.3453 105.763C66.5049 105.603 66.505 105.444 66.505 105.284C66.505 105.124 66.1857 104.965 66.026 104.965C65.7068 104.965 65.3875 104.965 65.0682 105.124C58.8424 107.678 54.3726 111.989 52.2974 118.534C52.1377 119.013 51.9781 119.172 51.4992 119.013C50.0625 118.534 48.9451 117.735 47.9872 116.299C47.3487 115.181 47.5084 114.064 48.1469 112.946C49.1047 111.35 50.5414 109.913 51.9781 108.796C55.6497 106.082 59.8002 104.166 64.27 102.889C65.3875 102.57 65.3875 102.57 64.9086 101.612C63.9508 99.2178 62.6737 96.9829 60.4388 95.3865C59.0021 94.2691 57.5654 93.9498 55.8094 94.2691C54.0534 94.748 52.9359 96.3444 53.0956 98.26C53.0956 98.8985 53.2552 99.3774 53.4148 100.016C53.7341 101.293 53.5745 101.293 52.2974 101.612C49.7432 102.091 47.1891 102.41 44.6349 103.049C43.1982 103.368 41.9211 104.166 40.8037 104.645C41.9211 105.922 42.8789 107.04 43.9964 108.157C44.6349 108.796 44.6349 109.275 44.156 109.913C43.6771 110.552 42.8789 110.712 42.2404 110.073C41.2826 109.275 40.1651 108.317 39.2073 107.359C38.7284 107.04 38.5687 106.88 37.9302 107.2C35.5357 108.317 32.6622 107.2 31.7044 104.805C31.2255 103.688 31.3852 102.57 31.8641 101.612C32.0237 101.133 32.0237 100.974 31.7044 100.655C27.7135 96.9829 23.8823 93.1517 19.8914 89.4801C19.5721 89.1608 19.2529 89.1608 18.7739 89.3204C17.6565 89.959 17.018 89.7993 16.2198 89.0011C16.0602 88.8415 15.5813 88.6819 15.262 88.8415C12.8675 89.6397 10.1536 88.203 9.35547 85.4892C10.1536 85.4892 10.9518 85.4892 11.75 85.4892C11.4307 84.5314 11.1114 83.7332 10.7922 82.7754C10.1536 80.7001 11.2711 79.423 13.506 79.5827C14.4638 79.7423 15.4216 80.0616 16.3794 80.2212C16.3794 79.423 16.3794 78.7845 16.3794 77.9863C18.7739 78.146 20.6896 80.7001 20.2107 83.2543C20.0511 83.7332 20.051 84.2121 20.5299 84.5314C21.3281 85.1699 21.3281 85.8084 21.1685 86.7663C21.1685 87.0855 21.3281 87.5644 21.4878 87.7241C25.4787 91.5553 29.3099 95.2269 33.3008 98.8985C33.62 99.2178 34.099 99.3774 34.5779 99.3774C36.1742 99.2178 37.6109 99.5371 38.888 100.495C39.0476 100.655 39.3669 100.814 39.6862 100.814C42.7193 100.814 45.7523 100.495 48.4661 99.2178C48.6258 99.2178 48.7854 99.0582 48.9451 98.8985C48.7854 98.5793 48.6258 98.26 48.4661 97.9407C47.0294 95.7058 45.912 93.3113 45.4331 90.5975C44.7945 85.9681 47.9872 82.6158 52.457 82.2965C52.9359 82.2965 53.4148 82.2965 53.8937 82.2965C53.8937 82.6158 53.8937 82.935 53.8937 83.2543C53.8937 85.1699 53.8937 87.2452 53.8937 89.1608C53.8937 91.3957 55.3305 92.992 57.5654 93.3113C59.0021 93.4709 60.4388 93.4709 61.8755 93.3113C64.4297 93.1517 66.5049 94.1095 67.9417 96.1847C68.4206 96.6636 68.5802 96.6636 69.0591 96.1847C70.4958 94.2691 72.5711 93.3113 74.9656 93.4709C76.4023 93.4709 77.8391 93.4709 79.2758 93.4709C81.6703 93.3113 83.107 91.7149 83.2667 89.3204C83.2667 87.2452 83.2667 85.3295 83.2667 83.2543C83.2667 82.6157 83.4263 82.2965 84.0648 82.4561C85.1823 82.6157 86.1401 82.7754 87.2576 83.0947C90.9292 84.3717 92.2062 88.0433 91.7273 91.3957C91.4081 93.7902 90.131 96.0251 88.8539 98.1003C88.0557 99.2178 88.0557 99.3774 89.4924 99.8563C91.7273 100.814 94.1219 100.974 96.5164 101.133C96.8357 101.133 97.1549 100.654 97.3146 100.335C97.7935 98.8985 98.5917 97.7811 99.8687 96.9829C100.348 96.6636 100.507 96.6636 100.986 96.9829C101.944 97.7811 102.902 98.4196 103.86 99.2178C104.339 99.6967 104.817 99.6967 105.296 99.2178C106.254 98.4196 107.212 97.7811 108.01 96.9829C108.489 96.504 108.808 96.6636 109.287 96.9829C111.522 98.8985 112.64 101.133 112.001 104.166C111.362 107.04 108.808 109.115 105.935 109.594C103.221 110.073 100.667 109.275 98.9109 107.2C97.1549 105.284 95.0797 104.007 92.6852 103.528C90.2906 102.889 87.7364 102.57 85.3419 102.251C84.3841 102.091 84.2245 101.932 84.3841 100.814C84.5437 99.8563 84.7034 98.8985 84.7034 98.1003C84.2245 95.2269 81.3511 93.9498 78.4776 95.3865C77.2005 96.0251 76.0831 97.1425 75.1253 98.26C74.1674 99.5371 73.5289 101.133 72.7307 102.57C72.4115 103.209 72.8904 103.368 73.3693 103.528C75.9234 104.486 78.318 105.284 80.7125 106.401C83.5859 107.678 86.2997 109.594 88.5346 112.148C88.6943 112.308 88.6943 112.308 88.8539 112.467C91.2484 115.341 89.9713 118.853 86.2997 119.811C85.6612 119.97 85.6612 119.651 85.5016 119.172C84.5437 115.979 82.7877 113.106 80.3932 110.711C78.1583 108.477 75.6042 106.721 72.5711 105.763C72.2518 105.603 71.6133 105.763 71.4536 105.922C71.1343 106.401 71.6133 106.721 72.0922 107.04C76.562 109.434 79.7547 112.946 81.351 117.895C82.1492 119.97 81.6703 121.407 79.9143 122.844C79.2758 123.323 78.6372 123.802 77.839 124.121C77.0409 124.6 76.8813 124.44 76.8813 123.482C76.7216 120.609 76.0831 117.895 74.806 115.341C73.8482 113.425 72.8904 111.669 71.7729 109.913C71.4536 109.434 70.9747 109.115 70.6554 108.796C70.4958 108.796 70.4958 108.956 70.3362 108.956C70.4958 109.754 70.4958 110.552 70.6554 111.19C71.4536 114.383 72.0922 117.416 72.8904 120.609C73.05 121.247 73.05 121.886 73.2096 122.524C73.5289 124.44 72.7307 125.877 71.294 126.994C70.4958 127.633 70.9747 127.314 70.0169 127.792C68.2609 127.792 69.0591 127.633 68.8995 127.633Z" fill="white" stroke="white" stroke-width="6.38541" stroke-miterlimit="10"/>
<path d="M6.00508 40.3123C6.16471 39.5142 6.16473 39.0353 6.32437 38.3967C6.32437 38.0775 6.48402 37.9178 6.64366 37.5986C6.96293 37.7582 7.2822 37.7582 7.44184 38.0774C9.83637 40.1527 12.0713 42.2279 14.4658 44.1436C18.6163 47.017 23.0861 49.2519 28.0348 50.3694C28.3541 50.529 28.6733 50.529 28.9926 50.529C29.6312 49.2519 29.4715 48.6134 28.354 47.8152C25.6402 46.0592 22.7668 44.4628 20.2127 42.7069C16.8603 40.3123 13.8273 37.5986 12.2309 33.6077C10.3153 28.9783 10.7942 24.6681 14.3061 20.6772C14.4658 20.9965 14.785 21.1562 14.9447 21.4754C18.297 26.5837 21.6494 31.5324 25.6403 36.1618C30.589 41.9087 35.5376 47.4959 41.923 51.6464C42.4019 51.9657 42.8809 52.285 42.2423 53.0831C40.0074 55.318 39.2092 58.1915 40.4863 61.2245C41.7634 64.4172 44.3176 66.0136 47.6699 66.3329C49.7452 66.6521 51.8204 66.3328 53.8957 65.8539C54.5342 65.6943 54.6939 65.8539 54.6939 66.4925C54.6939 67.6099 54.6939 68.7274 54.6939 69.8448C54.6939 72.399 54.6939 74.9532 54.6939 77.5073C54.6939 77.6669 54.6939 77.8266 54.6939 78.1458C54.3746 77.6669 54.215 77.5073 54.0553 77.188C52.6186 74.3146 50.0645 73.0375 47.0314 72.5586C45.435 72.2393 45.435 72.2393 45.1157 73.8357C44.6368 76.3898 43.8387 78.944 42.7212 81.1789C41.4441 83.5734 39.5285 85.1697 36.8147 85.6487C34.8991 85.9679 33.1431 85.489 31.5467 84.0523C32.0256 83.733 32.3449 83.4138 32.8238 83.0945C36.0166 81.0193 38.5707 78.4651 40.3267 75.1128C40.8056 74.3146 40.9652 73.3568 41.2845 72.399C41.4441 71.7604 41.2845 71.6008 40.646 71.2815C40.1671 71.1219 39.6882 70.8026 39.3689 71.4412C37.9322 73.676 36.3358 75.5917 34.4202 77.3477C32.3449 79.1036 30.1101 80.3807 27.3963 80.5404C24.8421 80.5404 22.7668 79.7422 21.1704 77.3477C21.4897 77.188 21.809 77.0284 22.1283 77.0284C26.5981 76.0706 30.7486 74.4742 34.1009 71.1219C34.7395 70.643 35.2184 69.8448 35.6973 69.3659C36.0165 68.887 36.1762 68.5677 35.6973 67.9292C35.2184 67.4503 34.7395 67.4503 34.1009 67.7696C32.1853 68.887 30.4293 70.0045 28.5137 70.9623C25.4806 72.5586 22.4475 73.6761 18.9356 73.1971C17.6585 73.0375 16.3814 72.7182 15.264 72.0797C13.3483 71.2815 12.5502 69.5255 12.2309 67.6099C12.0713 67.131 12.3905 66.9714 12.8694 66.9714C13.6676 66.9714 14.4658 66.9714 15.264 66.9714C20.6916 66.9714 26.1192 66.0136 31.0679 63.7787C32.0257 63.2998 32.1853 63.1402 31.5467 62.1823C31.2275 61.7034 30.9082 61.7034 30.4293 61.7034C27.2366 62.1823 24.2036 62.8209 21.0108 63.2998C18.297 63.619 15.7429 63.7787 13.0291 62.9805C9.19783 61.8631 6.96293 59.1493 6.64366 55.1584C6.64366 54.6795 6.64366 54.2006 6.64366 53.5621C6.96293 53.7217 7.2822 53.7217 7.44184 53.8813C14.3062 56.9144 21.4897 57.8722 28.833 57.2336C29.1522 57.2336 29.7908 57.2337 29.6311 56.5951C29.4715 56.1162 29.7908 55.318 28.833 55.1584C25.9595 54.6795 23.0861 54.3602 20.3723 53.8813C17.1796 53.2428 13.9869 52.4446 11.1134 50.8482C8.23999 49.2519 6.32439 46.6977 5.84548 43.3454C5.68585 43.505 6.00508 39.5142 6.00508 39.6738" fill="white"/>
<path d="M6.00508 40.3123C6.16471 39.5142 6.16473 39.0353 6.32437 38.3967C6.32437 38.0775 6.48402 37.9178 6.64366 37.5986C6.96293 37.7582 7.2822 37.7582 7.44184 38.0774C9.83637 40.1527 12.0713 42.2279 14.4658 44.1436C18.6163 47.017 23.0861 49.2519 28.0348 50.3694C28.3541 50.529 28.6733 50.529 28.9926 50.529C29.6312 49.2519 29.4715 48.6134 28.354 47.8152C25.6402 46.0592 22.7668 44.4628 20.2127 42.7069C16.8603 40.3123 13.8273 37.5986 12.2309 33.6077C10.3153 28.9783 10.7942 24.6681 14.3061 20.6772C14.4658 20.9965 14.785 21.1562 14.9447 21.4754C18.297 26.5837 21.6494 31.5324 25.6403 36.1618C30.589 41.9087 35.5376 47.4959 41.923 51.6464C42.4019 51.9657 42.8809 52.285 42.2423 53.0831C40.0074 55.318 39.2092 58.1915 40.4863 61.2245C41.7634 64.4172 44.3176 66.0136 47.6699 66.3329C49.7452 66.6521 51.8204 66.3328 53.8957 65.8539C54.5342 65.6943 54.6939 65.8539 54.6939 66.4925C54.6939 67.6099 54.6939 68.7274 54.6939 69.8448C54.6939 72.399 54.6939 74.9532 54.6939 77.5073C54.6939 77.6669 54.6939 77.8266 54.6939 78.1458C54.3746 77.6669 54.215 77.5073 54.0553 77.188C52.6186 74.3146 50.0645 73.0375 47.0314 72.5586C45.435 72.2393 45.435 72.2393 45.1157 73.8357C44.6368 76.3898 43.8387 78.944 42.7212 81.1789C41.4441 83.5734 39.5285 85.1698 36.8147 85.6487C34.8991 85.9679 33.1431 85.489 31.5467 84.0523C32.0256 83.733 32.3449 83.4138 32.8238 83.0945C36.0166 81.0193 38.5707 78.4651 40.3267 75.1128C40.8056 74.3146 40.9652 73.3568 41.2845 72.399C41.4441 71.7604 41.2845 71.6008 40.646 71.2815C40.1671 71.1219 39.6882 70.8026 39.3689 71.4412C37.9322 73.676 36.3358 75.5917 34.4202 77.3477C32.3449 79.1037 30.1101 80.3807 27.3963 80.5404C24.8421 80.5404 22.7668 79.7422 21.1704 77.3477C21.4897 77.188 21.809 77.0284 22.1283 77.0284C26.5981 76.0706 30.7486 74.4742 34.1009 71.1219C34.7395 70.643 35.2184 69.8448 35.6973 69.3659C36.0165 68.887 36.1762 68.5678 35.6973 67.9292C35.2184 67.4503 34.7395 67.4503 34.1009 67.7696C32.1853 68.887 30.4293 70.0045 28.5137 70.9623C25.4806 72.5586 22.4475 73.6761 18.9356 73.1971C17.6585 73.0375 16.3814 72.7182 15.264 72.0797C13.3483 71.2815 12.5502 69.5255 12.2309 67.6099C12.0713 67.131 12.3905 66.9714 12.8694 66.9714C13.6676 66.9714 14.4658 66.9714 15.264 66.9714C20.6916 66.9714 26.1192 66.0136 31.0679 63.7787C32.0257 63.2998 32.1853 63.1402 31.5467 62.1823C31.2275 61.7034 30.9082 61.7034 30.4293 61.7034C27.2366 62.1823 24.2036 62.8209 21.0108 63.2998C18.297 63.619 15.7429 63.7787 13.0291 62.9805C9.19783 61.8631 6.96293 59.1493 6.64366 55.1584C6.64366 54.6795 6.64366 54.2006 6.64366 53.5621C6.96293 53.7217 7.2822 53.7217 7.44184 53.8813C14.3062 56.9144 21.4897 57.8722 28.833 57.2336C29.1522 57.2336 29.7908 57.2337 29.6311 56.5951C29.4715 56.1162 29.7908 55.318 28.833 55.1584C25.9595 54.6795 23.0861 54.3602 20.3723 53.8813C17.1796 53.2428 13.9869 52.4446 11.1134 50.8482C8.23999 49.2519 6.32439 46.6977 5.84548 43.3454C5.68585 43.505 6.00508 39.5142 6.00508 39.6738" stroke="white" stroke-width="6.38541" stroke-miterlimit="10"/>
<path d="M109.289 50.5294C117.43 48.6138 124.295 44.623 130.201 38.7165C130.361 38.5568 130.52 38.3972 130.68 38.0779C131.478 37.2798 131.638 37.2798 131.957 38.3972C133.553 43.1863 131.478 48.4542 127.008 50.8487C123.816 52.6047 120.463 53.5625 116.792 54.0414C114.397 54.3607 112.162 54.8396 109.768 55.1589C109.289 55.3185 108.65 55.1589 108.491 55.9571C108.331 56.9149 108.331 57.2341 109.448 57.2341C116.792 57.8727 123.816 56.9149 130.52 54.0414C130.84 53.8818 130.999 53.8818 131.478 53.5625C131.478 54.2011 131.478 54.68 131.478 55.1589C131.318 58.9901 129.243 61.7039 125.572 62.981C123.656 63.6195 121.581 63.7792 119.505 63.6195C115.515 63.4599 111.524 62.8213 107.692 61.8635C106.735 61.7039 106.575 62.0232 106.415 62.6617C106.096 63.4599 106.575 63.6195 107.054 63.7792C110.726 65.3755 114.557 66.493 118.548 66.8122C120.623 66.9719 122.858 66.9719 125.093 67.1315C125.412 67.1315 125.731 67.1315 126.05 67.2911C125.891 70.4838 124.135 72.5591 120.783 73.1976C117.909 73.8362 115.036 73.5169 112.322 72.2398C109.608 70.9627 106.894 69.3664 104.34 67.9297C103.702 67.6104 103.223 67.4508 102.744 68.0893C102.105 68.7278 102.584 69.2067 102.903 69.6856C104.659 72.2398 107.054 73.9958 109.927 75.1133C112.003 76.0711 114.397 76.55 116.472 77.3481C116.632 77.3481 116.951 77.5078 117.271 77.6674C116.153 79.583 114.557 80.5409 112.481 80.7005C109.927 81.0198 107.533 80.2216 105.458 78.6252C102.903 76.8692 100.988 74.4747 99.3914 72.0802C98.9125 71.282 97.795 71.282 97.3161 71.9206C97.1565 72.0802 97.1565 72.3995 97.3161 72.7187C98.2739 76.3904 100.668 79.4234 103.542 81.6583C104.34 82.2968 105.298 82.9354 106.256 83.7335C106.415 83.8932 106.575 84.0528 106.894 84.2124C105.298 85.9684 102.424 86.4473 100.03 85.3299C97.9547 84.3721 96.5179 82.9354 95.7198 80.7005C94.762 78.306 94.1234 75.9114 93.4849 73.5169C93.3252 72.7187 93.0059 72.5591 92.2078 72.5591C88.8554 73.038 86.1416 74.1554 84.5453 77.3481C84.5453 77.5078 84.3856 77.6674 84.226 77.827C84.226 77.6674 84.0664 77.5078 84.0664 77.3481C84.0664 73.6765 84.0664 70.0049 84.0664 66.4929C84.0664 65.6948 84.3856 65.6948 85.0242 65.8544C87.4187 66.493 89.8132 66.6526 92.2078 66.1737C97.6354 65.2159 101.147 58.3516 96.8372 53.4029C96.518 53.0836 96.3583 52.7643 96.0391 52.2854C107.852 43.9844 116.472 32.81 124.294 20.6777C126.21 22.4337 127.328 24.509 127.487 27.0631C127.966 31.8522 126.21 35.6834 122.858 38.8761C119.186 42.3881 114.876 45.1019 110.406 47.656C108.81 48.4542 108.65 49.2524 109.289 50.5294Z" fill="white" stroke="white" stroke-width="6.38541" stroke-miterlimit="10"/>
<path d="M78.4783 36.8005C76.5626 35.6831 74.9663 34.406 74.0084 32.65C73.6892 32.0115 73.5295 31.3729 73.2103 30.5747C73.6892 30.5747 74.0084 30.5747 74.1681 30.5747C76.0837 30.894 77.9993 31.2132 79.915 31.3729C83.5866 31.5325 87.2582 31.3729 90.9298 31.6922C92.6858 31.8518 94.4418 32.1711 96.1977 32.65C99.2308 33.6078 100.029 37.439 97.9537 39.8336C97.7941 39.5143 97.6345 39.3547 97.4749 39.0354C96.6767 37.9179 95.5592 37.5987 94.2822 37.5987C88.6949 37.2794 84.8636 40.1528 81.9902 44.463C80.5535 46.6979 79.4361 49.252 79.2764 51.9658C78.9572 55.3182 79.7553 58.3512 82.3095 60.5861C82.3095 60.5861 82.4691 60.7457 82.4691 60.9054C73.6892 60.9054 65.0689 60.9054 56.1293 60.9054C56.6082 60.4265 57.0871 60.1072 57.4064 59.6283C59.322 57.553 59.9605 54.8392 59.6413 52.1254C58.8431 45.5804 55.6504 40.951 49.5843 38.2372C47.8283 37.439 46.0723 37.4391 44.1567 37.5987C42.8796 37.7583 41.7621 38.2372 41.1235 39.3546C41.1235 39.5143 40.9639 39.5143 40.8043 39.6739H40.6447C38.4098 36.3216 39.8465 32.9692 43.3585 32.3307C45.5934 31.8518 47.8282 31.6922 50.0631 31.5325C52.6173 31.3729 55.3311 31.3729 57.8853 31.3729C60.2798 31.3729 62.5147 31.2132 64.7496 30.5747C64.9092 30.5747 65.0689 30.5747 65.2285 30.5747C64.59 33.6078 62.5147 35.3638 60.1202 36.9601C65.7074 42.5473 68.2616 49.4116 69.2194 57.0741C70.3368 49.252 72.7314 42.2281 78.4783 36.8005Z" fill="white" stroke="white" stroke-width="6.38541" stroke-miterlimit="10"/>
<path d="M82.3107 26.7435C81.9914 25.6261 81.5125 24.5086 81.3528 23.3912C81.0336 21.6352 82.3107 20.1985 84.0667 20.1985C84.3859 20.1985 84.8648 20.3581 85.1841 20.6774C85.9823 21.4756 86.9401 22.2737 87.7383 23.0719C88.5364 22.2737 89.3346 21.6352 90.1328 20.9966C91.2502 20.0388 92.687 20.1985 93.6448 21.3159C94.2833 22.2737 94.4429 23.3912 93.964 24.349C93.4851 25.4664 92.8466 26.5839 92.0484 27.7013C91.8888 27.861 91.5695 28.0206 91.2502 28.0206C87.8979 28.0206 84.3859 28.0206 81.0335 27.7013C76.883 27.2224 74.1693 24.8279 72.8922 20.837C72.7325 20.1985 72.4133 20.0389 71.7747 20.0389C70.0187 20.0389 68.1031 20.0389 66.3471 20.0389C65.8682 20.0389 65.5489 20.1985 65.3893 20.6774C63.7929 25.3068 60.4406 27.3821 56.1305 27.7013C53.257 27.861 50.3836 27.861 47.6698 27.861C47.0312 27.861 46.5523 27.7013 46.0734 27.0628C45.2752 25.7857 44.4771 24.5086 44.3174 23.0719C44.1578 21.7948 44.7964 20.837 45.7542 20.1985C46.8716 19.7196 47.1909 19.7196 48.1487 20.5177C48.7872 21.1563 49.4257 21.6352 49.9047 22.2737C50.3836 22.7526 50.7028 22.593 51.0221 22.2737C51.6607 21.7948 52.1396 21.1563 52.7781 20.6774C54.0552 19.5599 55.9708 20.0389 56.6094 21.6352C57.0883 23.0719 56.6094 24.349 55.9708 25.6261C55.8112 25.9454 55.6515 26.105 55.4919 26.5839C55.9708 26.5839 56.2901 26.5839 56.769 26.5839C59.6424 25.6261 61.8773 23.8701 62.8351 20.9966C62.9948 20.3581 62.9948 20.0388 62.6755 19.4003C61.3984 17.325 60.1213 15.2498 59.8021 12.8553C59.4828 10.3011 61.5581 8.06621 64.1122 8.38548C64.4315 8.38548 64.7508 8.70478 64.9104 8.86442C66.1875 10.3011 67.3049 11.7378 68.582 13.1745C69.0609 13.8131 69.3802 13.8131 69.8591 13.1745C70.9765 11.7378 72.2536 10.3011 73.5307 8.86442C73.6903 8.70478 74.0096 8.38548 74.3289 8.38548C77.362 8.38548 79.1179 10.3011 78.639 13.1745C78.1601 15.5691 77.0427 17.4847 75.7656 19.4003C75.606 19.7196 75.4463 20.1985 75.4463 20.5177C75.9252 23.7104 79.4372 26.7435 82.3107 26.7435Z" fill="white" stroke="white" stroke-width="6.38541" stroke-miterlimit="10"/>
<path d="M32.1836 32.3307C32.1836 31.6921 32.1836 31.2132 32.1836 30.7343C32.1836 29.9361 31.8643 29.4573 30.9065 29.6169C29.9487 29.9362 28.8312 30.2554 27.8734 30.5747C27.8734 30.2554 28.0331 29.7765 28.0331 29.2976C28.3523 27.7013 28.033 26.2645 26.9156 25.1471C26.4367 24.6682 25.9578 24.0296 25.6385 23.5507C24.8404 22.2737 25.1596 21.1562 26.5964 20.6773C27.5542 20.3581 28.6716 20.1984 29.6294 20.0388C31.0661 19.8792 32.1835 19.2406 33.1414 18.2828C33.7799 17.4846 34.5781 16.8461 35.3763 16.0479C35.8552 15.569 36.3341 15.2497 36.9726 14.9305C37.9305 14.4516 38.7286 14.6112 39.3672 15.569C39.5268 15.8883 39.6864 16.0479 39.8461 16.3672C40.325 17.1653 40.325 17.8039 39.6864 18.602C38.4093 20.1984 37.9304 21.9544 38.7286 23.87C39.5268 25.7856 40.9635 26.9031 43.0388 27.2224C43.1984 27.2224 43.358 27.2223 43.5177 27.382C43.6773 27.5416 43.837 27.7013 43.9966 27.8609C43.837 28.0205 43.6773 28.1802 43.3581 28.0205C40.0057 27.7013 36.813 25.7856 36.3341 21.9544C36.3341 21.1562 36.4937 20.5177 36.3341 19.7195C36.3341 19.5599 36.0148 19.081 35.8552 19.081C34.2588 19.081 32.8221 19.081 31.3854 20.0388C29.7891 21.1562 29.3101 22.9122 30.4276 24.6682C30.7469 25.1471 31.0661 25.626 31.545 26.1049C32.0239 26.7434 32.6625 27.382 33.1414 28.0205C34.4184 29.7765 34.0992 31.0536 32.1836 32.3307Z" fill="white" stroke="white" stroke-width="6.38541" stroke-miterlimit="10"/>
<path d="M110.405 30.7347C109.766 30.4154 108.968 30.0961 108.33 29.7769C106.574 29.1383 105.935 29.7769 106.095 31.6925C106.095 31.8521 106.095 32.0118 106.095 32.1714C104.977 31.8521 104.179 30.5751 104.498 29.298C104.818 28.4998 105.297 27.8613 105.775 27.2228C106.254 26.5842 107.053 25.9456 107.531 25.1475C108.968 23.2318 108.649 20.997 106.414 19.8795C105.137 19.241 103.7 19.241 102.423 18.9217C101.944 18.7621 101.785 19.241 101.944 19.5602C101.944 20.3584 102.104 21.1566 102.104 21.9548C101.785 24.3493 100.508 26.1053 98.2726 27.0631C97.3148 27.542 96.1974 27.7016 95.0799 27.8613C94.9203 27.8613 94.7607 27.7016 94.4414 27.7016C94.601 27.542 94.601 27.2228 94.9203 27.2228C95.2396 27.0631 95.7185 27.0631 96.0378 27.0631C100.029 26.1053 101.306 21.7952 98.9112 18.4428C98.5919 17.9639 98.113 17.3253 98.2726 17.0061C98.5919 16.2079 99.2305 15.4097 99.869 14.7712C100.188 14.4519 100.986 14.6116 101.465 14.9308C102.264 15.4097 102.902 16.0483 103.541 16.6868C104.019 17.0061 104.339 17.485 104.658 17.9639C105.935 19.4006 107.372 20.0391 109.287 20.1988C110.086 20.3584 110.884 20.3584 111.522 20.6777C112.959 21.1566 113.278 22.274 112.48 23.3915C112.321 23.5511 112.161 23.7108 112.001 24.0301C109.766 26.9035 109.607 27.2227 110.405 30.7347Z" fill="white" stroke="white" stroke-width="6.38541" stroke-miterlimit="10"/>
<path d="M79.5963 92.5131C76.0844 92.5131 71.4549 93.6305 69.22 95.3865C66.5062 97.6214 62.0365 92.5131 58.3649 92.5131C58.0456 92.5131 56.6089 92.5131 55.3318 91.236C54.5336 90.4378 54.0547 89.3204 54.0547 88.203V61.5439H83.7469V88.3626C83.9065 90.5975 81.8312 92.5131 79.5963 92.5131Z" fill="#00A2E5"/>
<path d="M68.8995 127.633C68.5802 127.473 67.9416 126.835 67.6224 126.675C64.27 124.759 64.1104 123.961 64.749 120.13C65.3875 116.937 66.1857 113.745 66.9838 110.552C67.1435 109.754 67.9417 107.359 67.3031 107.838C65.0682 109.754 63.9508 112.308 62.8333 115.022C61.7159 117.735 61.0774 120.449 60.9177 123.482C59.0021 122.844 57.5654 122.046 56.6075 120.29C55.969 119.172 56.2883 118.055 56.6075 116.937C58.2039 112.308 61.237 108.796 65.7068 106.242C65.8664 106.082 66.1857 106.082 66.3453 105.763C66.5049 105.603 66.505 105.444 66.505 105.284C66.505 105.124 66.1857 104.965 66.026 104.965C65.7068 104.965 65.3875 104.965 65.0682 105.124C58.8424 107.678 54.3726 111.989 52.2974 118.534C52.1377 119.013 51.9781 119.172 51.4992 119.013C50.0625 118.534 48.9451 117.735 47.9872 116.299C47.3487 115.181 47.5084 114.064 48.1469 112.946C49.1047 111.35 50.5414 109.913 51.9781 108.796C55.6497 106.082 59.8002 104.166 64.27 102.889C65.3875 102.57 65.3875 102.57 64.9086 101.612C63.9508 99.2178 62.6737 96.9829 60.4388 95.3865C59.0021 94.2691 57.5654 93.9498 55.8094 94.2691C54.0534 94.748 52.9359 96.3444 53.0956 98.26C53.0956 98.8985 53.2552 99.3774 53.4148 100.016C53.7341 101.293 53.5745 101.293 52.2974 101.612C49.7432 102.091 47.1891 102.41 44.6349 103.049C43.1982 103.368 41.9211 104.166 40.8037 104.645C41.9211 105.922 42.8789 107.04 43.9964 108.157C44.6349 108.796 44.6349 109.275 44.156 109.913C43.6771 110.552 42.8789 110.712 42.2404 110.073C41.2826 109.275 40.1651 108.317 39.2073 107.359C38.7284 107.04 38.5687 106.88 37.9302 107.2C35.5357 108.317 32.6622 107.2 31.7044 104.805C31.2255 103.688 31.3852 102.57 31.8641 101.612C32.0237 101.133 32.0237 100.974 31.7044 100.655C27.7135 96.9829 23.8823 93.1517 19.8914 89.4801C19.5721 89.1608 19.2529 89.1608 18.7739 89.3204C17.6565 89.959 17.018 89.7993 16.2198 89.0011C16.0602 88.8415 15.5813 88.6819 15.262 88.8415C12.8675 89.6397 10.1536 88.203 9.35547 85.4892C10.1536 85.4892 10.9518 85.4892 11.75 85.4892C11.4307 84.5314 11.1114 83.7332 10.7922 82.7754C10.1536 80.7001 11.2711 79.423 13.506 79.5827C14.4638 79.7423 15.4216 80.0616 16.3794 80.2212C16.3794 79.423 16.3794 78.7845 16.3794 77.9863C18.7739 78.146 20.6896 80.7001 20.2107 83.2543C20.0511 83.7332 20.051 84.2121 20.5299 84.5314C21.3281 85.1699 21.3281 85.8084 21.1685 86.7663C21.1685 87.0855 21.3281 87.5644 21.4878 87.7241C25.4787 91.5553 29.3099 95.2269 33.3008 98.8985C33.62 99.2178 34.099 99.3774 34.5779 99.3774C36.1742 99.2178 37.6109 99.5371 38.888 100.495C39.0476 100.655 39.3669 100.814 39.6862 100.814C42.7193 100.814 45.7523 100.495 48.4661 99.2178C48.6258 99.2178 48.7854 99.0582 48.9451 98.8985C48.7854 98.5793 48.6258 98.26 48.4661 97.9407C47.0294 95.7058 45.912 93.3113 45.4331 90.5975C44.7945 85.9681 47.9872 82.6158 52.457 82.2965C52.9359 82.2965 53.4148 82.2965 53.8937 82.2965C53.8937 82.6158 53.8937 82.935 53.8937 83.2543C53.8937 85.1699 53.8937 87.2452 53.8937 89.1608C53.8937 91.3957 55.3305 92.992 57.5654 93.3113C59.0021 93.4709 60.4388 93.4709 61.8755 93.3113C64.4297 93.1517 66.5049 94.1095 67.9417 96.1847C68.4206 96.6636 68.5802 96.6636 69.0591 96.1847C70.4958 94.2691 72.5711 93.3113 74.9656 93.4709C76.4023 93.4709 77.8391 93.4709 79.2758 93.4709C81.6703 93.3113 83.107 91.7149 83.2667 89.3204C83.2667 87.2452 83.2667 85.3295 83.2667 83.2543C83.2667 82.6157 83.4263 82.2965 84.0648 82.4561C85.1823 82.6157 86.1401 82.7754 87.2576 83.0947C90.9292 84.3717 92.2062 88.0433 91.7273 91.3957C91.4081 93.7902 90.131 96.0251 88.8539 98.1003C88.0557 99.2178 88.0557 99.3774 89.4924 99.8563C91.7273 100.814 94.1219 100.974 96.5164 101.133C96.8357 101.133 97.1549 100.654 97.3146 100.335C97.7935 98.8985 98.5917 97.7811 99.8687 96.9829C100.348 96.6636 100.507 96.6636 100.986 96.9829C101.944 97.7811 102.902 98.4196 103.86 99.2178C104.339 99.6967 104.817 99.6967 105.296 99.2178C106.254 98.4196 107.212 97.7811 108.01 96.9829C108.489 96.504 108.808 96.6636 109.287 96.9829C111.522 98.8985 112.64 101.133 112.001 104.166C111.362 107.04 108.808 109.115 105.935 109.594C103.221 110.073 100.667 109.275 98.9109 107.2C97.1549 105.284 95.0797 104.007 92.6852 103.528C90.2906 102.889 87.7364 102.57 85.3419 102.251C84.3841 102.091 84.2245 101.932 84.3841 100.814C84.5437 99.8563 84.7034 98.8985 84.7034 98.1003C84.2245 95.2269 81.3511 93.9498 78.4776 95.3865C77.2005 96.0251 76.0831 97.1425 75.1253 98.26C74.1674 99.5371 73.5289 101.133 72.7307 102.57C72.4115 103.209 72.8904 103.368 73.3693 103.528C75.9234 104.486 78.318 105.284 80.7125 106.401C83.5859 107.678 86.2997 109.594 88.5346 112.148C88.6943 112.308 88.6943 112.308 88.8539 112.467C91.2484 115.341 89.9713 118.853 86.2997 119.811C85.6612 119.97 85.6612 119.651 85.5016 119.172C84.5437 115.979 82.7877 113.106 80.3932 110.711C78.1583 108.477 75.6042 106.721 72.5711 105.763C72.2518 105.603 71.6133 105.763 71.4536 105.922C71.1343 106.401 71.6133 106.721 72.0922 107.04C76.562 109.434 79.7547 112.946 81.351 117.895C82.1492 119.97 81.6703 121.407 79.9143 122.844C79.2758 123.323 78.6372 123.802 77.839 124.121C77.0409 124.6 76.8813 124.44 76.8813 123.482C76.7216 120.609 76.0831 117.895 74.806 115.341C73.8482 113.425 72.8904 111.669 71.7729 109.913C71.4536 109.434 70.9747 109.115 70.6554 108.796C70.4958 108.796 70.4958 108.956 70.3362 108.956C70.1766 108.317 70.3362 109.754 70.6554 111.19C71.4536 114.383 72.4114 117.416 73.2096 120.609C73.3692 121.247 73.5289 122.046 73.6886 122.684C74.0078 124.6 72.7307 126.036 71.294 127.154C70.4958 127.792 70.6555 128.271 69.6977 128.271C69.0591 127.952 69.0591 127.633 68.8995 127.633Z" fill="#84DAF5" stroke="#0587D6" stroke-width="2.39453" stroke-miterlimit="10"/>
<path d="M6.00508 40.3123C6.16471 39.5142 6.16473 39.0353 6.32437 38.3967C6.32437 38.0775 6.48402 37.9178 6.64366 37.5986C6.96293 37.7582 7.2822 37.7582 7.44184 38.0774C9.83637 40.1527 12.0713 42.2279 14.4658 44.1436C18.6163 47.017 23.0861 49.2519 28.0348 50.3694C28.3541 50.529 28.6733 50.529 28.9926 50.529C29.6312 49.2519 29.4715 48.6134 28.354 47.8152C25.6402 46.0592 22.7668 44.4628 20.2127 42.7069C16.8603 40.3123 13.8273 37.5986 12.2309 33.6077C10.3153 28.9783 10.7942 24.6681 14.3061 20.6772C14.4658 20.9965 14.785 21.1562 14.9447 21.4754C18.297 26.5837 21.6494 31.5324 25.6403 36.1618C30.589 41.9087 35.5376 47.4959 41.923 51.6464C42.4019 51.9657 42.8809 52.285 42.2423 53.0831C40.0074 55.318 39.2092 58.1915 40.4863 61.2245C41.7634 64.4172 44.3176 66.0136 47.6699 66.3329C49.7452 66.6521 51.8204 66.3328 53.8957 65.8539C54.5342 65.6943 54.6939 65.8539 54.6939 66.4925C54.6939 67.6099 54.6939 68.7274 54.6939 69.8448C54.6939 72.399 54.6939 74.9532 54.6939 77.5073C54.6939 77.6669 54.6939 77.8266 54.6939 78.1458C54.3746 77.6669 54.215 77.5073 54.0553 77.188C52.6186 74.3146 50.0645 73.0375 47.0314 72.5586C45.435 72.2393 45.435 72.2393 45.1157 73.8357C44.6368 76.3898 43.8387 78.944 42.7212 81.1789C41.4441 83.5734 39.5285 85.1697 36.8147 85.6487C34.8991 85.9679 33.1431 85.489 31.5467 84.0523C32.0256 83.733 32.3449 83.4138 32.8238 83.0945C36.0166 81.0193 38.5707 78.4651 40.3267 75.1128C40.8056 74.3146 40.9652 73.3568 41.2845 72.399C41.4441 71.7604 41.2845 71.6008 40.646 71.2815C40.1671 71.1219 39.6882 70.8026 39.3689 71.4412C37.9322 73.676 36.3358 75.5917 34.4202 77.3477C32.3449 79.1036 30.1101 80.3807 27.3963 80.5404C24.8421 80.5404 22.7668 79.7422 21.1704 77.3477C21.4897 77.188 21.809 77.0284 22.1283 77.0284C26.5981 76.0706 30.7486 74.4742 34.1009 71.1219C34.7395 70.643 35.2184 69.8448 35.6973 69.3659C36.0165 68.887 36.1762 68.5677 35.6973 67.9292C35.2184 67.4503 34.7395 67.4503 34.1009 67.7696C32.1853 68.887 30.4293 70.0045 28.5137 70.9623C25.4806 72.5586 22.4475 73.6761 18.9356 73.1971C17.6585 73.0375 16.3814 72.7182 15.264 72.0797C13.3483 71.2815 12.5502 69.5255 12.2309 67.6099C12.0713 67.131 12.3905 66.9714 12.8694 66.9714C13.6676 66.9714 14.4658 66.9714 15.264 66.9714C20.6916 66.9714 26.1192 66.0136 31.0679 63.7787C32.0257 63.2998 32.1853 63.1402 31.5467 62.1823C31.2275 61.7034 30.9082 61.7034 30.4293 61.7034C27.2366 62.1823 24.2036 62.8209 21.0108 63.2998C18.297 63.619 15.7429 63.7787 13.0291 62.9805C9.19783 61.8631 6.96293 59.1493 6.64366 55.1584C6.64366 54.6795 6.64366 54.2006 6.64366 53.5621C6.96293 53.7217 7.2822 53.7217 7.44184 53.8813C14.3062 56.9144 21.4897 57.8722 28.833 57.2336C29.1522 57.2336 29.7908 57.2337 29.6311 56.5951C29.4715 56.1162 29.7908 55.318 28.833 55.1584C25.9595 54.6795 23.0861 54.3602 20.3723 53.8813C17.1796 53.2428 13.9869 52.4446 11.1134 50.8482C8.23999 49.2519 6.32439 46.6977 5.84548 43.3454C5.68585 43.505 6.00508 39.5142 6.00508 39.6738" fill="#84DAF5"/>
<path d="M6.00508 40.3123C6.16471 39.5142 6.16473 39.0353 6.32437 38.3967C6.32437 38.0775 6.48402 37.9178 6.64366 37.5986C6.96293 37.7582 7.2822 37.7582 7.44184 38.0774C9.83637 40.1527 12.0713 42.2279 14.4658 44.1436C18.6163 47.017 23.0861 49.2519 28.0348 50.3694C28.3541 50.529 28.6733 50.529 28.9926 50.529C29.6312 49.2519 29.4715 48.6134 28.354 47.8152C25.6402 46.0592 22.7668 44.4628 20.2127 42.7069C16.8603 40.3123 13.8273 37.5986 12.2309 33.6077C10.3153 28.9783 10.7942 24.6681 14.3061 20.6772C14.4658 20.9965 14.785 21.1562 14.9447 21.4754C18.297 26.5837 21.6494 31.5324 25.6403 36.1618C30.589 41.9087 35.5376 47.4959 41.923 51.6464C42.4019 51.9657 42.8809 52.285 42.2423 53.0831C40.0074 55.318 39.2092 58.1915 40.4863 61.2245C41.7634 64.4172 44.3176 66.0136 47.6699 66.3329C49.7452 66.6521 51.8204 66.3328 53.8957 65.8539C54.5342 65.6943 54.6939 65.8539 54.6939 66.4925C54.6939 67.6099 54.6939 68.7274 54.6939 69.8448C54.6939 72.399 54.6939 74.9532 54.6939 77.5073C54.6939 77.6669 54.6939 77.8266 54.6939 78.1458C54.3746 77.6669 54.215 77.5073 54.0553 77.188C52.6186 74.3146 50.0645 73.0375 47.0314 72.5586C45.435 72.2393 45.435 72.2393 45.1157 73.8357C44.6368 76.3898 43.8387 78.944 42.7212 81.1789C41.4441 83.5734 39.5285 85.1698 36.8147 85.6487C34.8991 85.9679 33.1431 85.489 31.5467 84.0523C32.0256 83.733 32.3449 83.4138 32.8238 83.0945C36.0166 81.0193 38.5707 78.4651 40.3267 75.1128C40.8056 74.3146 40.9652 73.3568 41.2845 72.399C41.4441 71.7604 41.2845 71.6008 40.646 71.2815C40.1671 71.1219 39.6882 70.8026 39.3689 71.4412C37.9322 73.676 36.3358 75.5917 34.4202 77.3477C32.3449 79.1037 30.1101 80.3807 27.3963 80.5404C24.8421 80.5404 22.7668 79.7422 21.1704 77.3477C21.4897 77.188 21.809 77.0284 22.1283 77.0284C26.5981 76.0706 30.7486 74.4742 34.1009 71.1219C34.7395 70.643 35.2184 69.8448 35.6973 69.3659C36.0165 68.887 36.1762 68.5678 35.6973 67.9292C35.2184 67.4503 34.7395 67.4503 34.1009 67.7696C32.1853 68.887 30.4293 70.0045 28.5137 70.9623C25.4806 72.5586 22.4475 73.6761 18.9356 73.1971C17.6585 73.0375 16.3814 72.7182 15.264 72.0797C13.3483 71.2815 12.5502 69.5255 12.2309 67.6099C12.0713 67.131 12.3905 66.9714 12.8694 66.9714C13.6676 66.9714 14.4658 66.9714 15.264 66.9714C20.6916 66.9714 26.1192 66.0136 31.0679 63.7787C32.0257 63.2998 32.1853 63.1402 31.5467 62.1823C31.2275 61.7034 30.9082 61.7034 30.4293 61.7034C27.2366 62.1823 24.2036 62.8209 21.0108 63.2998C18.297 63.619 15.7429 63.7787 13.0291 62.9805C9.19783 61.8631 6.96293 59.1493 6.64366 55.1584C6.64366 54.6795 6.64366 54.2006 6.64366 53.5621C6.96293 53.7217 7.2822 53.7217 7.44184 53.8813C14.3062 56.9144 21.4897 57.8722 28.833 57.2336C29.1522 57.2336 29.7908 57.2337 29.6311 56.5951C29.4715 56.1162 29.7908 55.318 28.833 55.1584C25.9595 54.6795 23.0861 54.3602 20.3723 53.8813C17.1796 53.2428 13.9869 52.4446 11.1134 50.8482C8.23999 49.2519 6.32439 46.6977 5.84548 43.3454C5.68585 43.505 6.00508 39.5142 6.00508 39.6738" stroke="#0587D6" stroke-width="2.39453" stroke-miterlimit="10"/>
<path d="M109.289 50.5294C117.43 48.6138 124.295 44.623 130.201 38.7165C130.361 38.5568 130.52 38.3972 130.68 38.0779C131.478 37.2798 131.638 37.2798 131.957 38.3972C133.553 43.1863 131.478 48.4542 127.008 50.8487C123.816 52.6047 120.463 53.5625 116.792 54.0414C114.397 54.3607 112.162 54.8396 109.768 55.1589C109.289 55.3185 108.65 55.1589 108.491 55.9571C108.331 56.9149 108.331 57.2341 109.448 57.2341C116.792 57.8727 123.816 56.9149 130.52 54.0414C130.84 53.8818 130.999 53.8818 131.478 53.5625C131.478 54.2011 131.478 54.68 131.478 55.1589C131.318 58.9901 129.243 61.7039 125.572 62.981C123.656 63.6195 121.581 63.7792 119.505 63.6195C115.515 63.4599 111.524 62.8213 107.692 61.8635C106.735 61.7039 106.575 62.0232 106.415 62.6617C106.096 63.4599 106.575 63.6195 107.054 63.7792C110.726 65.3755 114.557 66.493 118.548 66.8122C120.623 66.9719 122.858 66.9719 125.093 67.1315C125.412 67.1315 125.731 67.1315 126.05 67.2911C125.891 70.4838 124.135 72.5591 120.783 73.1976C117.909 73.8362 115.036 73.5169 112.322 72.2398C109.608 70.9627 106.894 69.3664 104.34 67.9297C103.702 67.6104 103.223 67.4508 102.744 68.0893C102.105 68.7278 102.584 69.2067 102.903 69.6856C104.659 72.2398 107.054 73.9958 109.927 75.1133C112.003 76.0711 114.397 76.55 116.472 77.3481C116.632 77.3481 116.951 77.5078 117.271 77.6674C116.153 79.583 114.557 80.5409 112.481 80.7005C109.927 81.0198 107.533 80.2216 105.458 78.6252C102.903 76.8692 100.988 74.4747 99.3914 72.0802C98.9125 71.282 97.795 71.282 97.3161 71.9206C97.1565 72.0802 97.1565 72.3995 97.3161 72.7187C98.2739 76.3904 100.668 79.4234 103.542 81.6583C104.34 82.2968 105.298 82.9354 106.256 83.7335C106.415 83.8932 106.575 84.0528 106.894 84.2124C105.298 85.9684 102.424 86.4473 100.03 85.3299C97.9547 84.3721 96.5179 82.9354 95.7198 80.7005C94.762 78.306 94.1234 75.9114 93.4849 73.5169C93.3252 72.7187 93.0059 72.5591 92.2078 72.5591C88.8554 73.038 86.1416 74.1554 84.5453 77.3481C84.5453 77.5078 84.3856 77.6674 84.226 77.827C84.226 77.6674 84.0664 77.5078 84.0664 77.3481C84.0664 73.6765 84.0664 70.0049 84.0664 66.4929C84.0664 65.6948 84.3856 65.6948 85.0242 65.8544C87.4187 66.493 89.8132 66.6526 92.2078 66.1737C97.6354 65.2159 101.147 58.3516 96.8372 53.4029C96.518 53.0836 96.3583 52.7643 96.0391 52.2854C107.852 43.9844 116.472 32.81 124.294 20.6777C126.21 22.4337 127.328 24.509 127.487 27.0631C127.966 31.8522 126.21 35.6834 122.858 38.8761C119.186 42.3881 114.876 45.1019 110.406 47.656C108.81 48.4542 108.65 49.2524 109.289 50.5294Z" fill="#84DAF5" stroke="#0587D6" stroke-width="2.39453" stroke-miterlimit="10"/>
<path d="M78.4783 36.8005C76.5626 35.6831 74.9663 34.406 74.0084 32.65C73.6892 32.0115 73.5295 31.3729 73.2103 30.5747C73.6892 30.5747 74.0085 30.5747 74.3277 30.7344C76.0837 31.0536 77.9993 31.3729 79.7553 31.5325C83.4269 31.6922 87.2582 31.5325 90.9298 31.8518C92.6858 32.0115 94.4418 32.3307 96.1977 32.8096C99.2308 33.7674 100.029 37.5987 97.9537 39.9932C97.7941 39.6739 97.6345 39.5143 97.4749 39.195C96.6767 38.0776 95.5592 37.7583 94.2822 37.7583C88.6949 37.439 84.8636 40.3125 81.9902 44.6226C80.5535 46.8575 79.4361 49.4116 79.2764 52.1254C78.9572 55.4778 79.7553 58.5109 82.3095 60.7458C82.3095 60.7458 82.4691 60.9054 82.4691 61.065C73.6892 61.065 65.0689 61.065 56.1293 61.065C56.6082 60.5861 57.0871 60.2668 57.4064 59.7879C59.322 57.7127 59.9605 54.9989 59.6413 52.2851C58.8431 45.74 55.6504 41.1107 49.5843 38.3969C47.8283 37.5987 46.0723 37.5986 44.1567 37.7583C42.8796 37.9179 41.7621 38.3968 41.1235 39.5143C41.1235 39.6739 40.9639 39.6739 40.8043 39.8336H40.6447C38.4098 36.4812 39.8465 33.1289 43.3585 32.4903C45.753 32.0114 48.3071 31.8518 50.8613 31.6922C52.7769 31.5325 54.8522 31.5325 56.9275 31.6922C59.6413 31.6922 62.3551 31.6922 64.9093 30.894C65.0689 30.894 65.2285 30.894 65.3881 30.894C64.7496 33.9271 62.6743 35.683 60.2798 37.2794C65.7074 42.707 68.2616 49.252 69.2194 56.7549C69.2194 56.9145 69.379 56.9145 69.379 56.7549C70.4965 48.9328 72.891 42.0685 78.4783 36.8005Z" fill="#84DAF5" stroke="#0587D6" stroke-width="2.39453" stroke-miterlimit="10"/>
<path d="M82.3107 26.7435C81.9914 25.6261 81.5125 24.5086 81.3528 23.3912C81.0336 21.6352 82.3107 20.1985 84.0667 20.1985C84.3859 20.1985 84.8648 20.3581 85.1841 20.6774C85.9823 21.4756 86.9401 22.2737 87.7383 23.0719C88.5364 22.2737 89.3346 21.6352 90.1328 20.9966C91.2502 20.0388 92.687 20.1985 93.6448 21.3159C94.2833 22.2737 94.4429 23.3912 93.964 24.349C93.4851 25.4664 92.8466 26.5839 92.0484 27.7013C91.8888 27.861 91.5695 28.0206 91.2502 28.0206C87.8979 28.0206 84.3859 28.0206 81.0335 27.7013C76.883 27.2224 74.1693 24.8279 72.8922 20.837C72.7325 20.1985 72.4133 20.0389 71.7747 20.0389C70.0187 20.0389 68.1031 20.0389 66.3471 20.0389C65.8682 20.0389 65.5489 20.1985 65.3893 20.6774C63.7929 25.3068 60.4406 27.3821 56.1305 27.7013C53.257 27.861 50.3836 27.861 47.6698 27.861C47.0312 27.861 46.5523 27.7013 46.0734 27.0628C45.2752 25.7857 44.4771 24.5086 44.3174 23.0719C44.1578 21.7948 44.7964 20.837 45.7542 20.1985C46.8716 19.7196 47.1909 19.7196 48.1487 20.5177C48.7872 21.1563 49.4257 21.6352 49.9047 22.2737C50.3836 22.7526 50.7028 22.593 51.0221 22.2737C51.6607 21.7948 52.1396 21.1563 52.7781 20.6774C54.0552 19.5599 55.9708 20.0389 56.6094 21.6352C57.0883 23.0719 56.6094 24.349 55.9708 25.6261C55.8112 25.9454 55.6515 26.105 55.4919 26.5839C55.9708 26.5839 56.2901 26.5839 56.769 26.5839C59.6424 25.6261 61.8773 23.8701 62.8351 20.9966C62.9948 20.3581 62.9948 20.0388 62.6755 19.4003C61.3984 17.325 60.1213 15.2498 59.8021 12.8553C59.4828 10.3011 61.5581 8.06621 64.1122 8.38548C64.4315 8.38548 64.7508 8.70478 64.9104 8.86442C66.1875 10.3011 67.3049 11.7378 68.582 13.1745C69.0609 13.8131 69.3802 13.8131 69.8591 13.1745C70.9765 11.7378 72.2536 10.3011 73.5307 8.86442C73.6903 8.70478 74.0096 8.38548 74.3289 8.38548C77.362 8.38548 79.1179 10.3011 78.639 13.1745C78.1601 15.5691 77.0427 17.4847 75.7656 19.4003C75.606 19.7196 75.4463 20.1985 75.4463 20.5177C75.9252 23.7104 79.4372 26.7435 82.3107 26.7435Z" fill="#84DAF5" stroke="#0587D6" stroke-width="2.39453" stroke-miterlimit="10"/>
<path d="M32.1836 32.3307C32.1836 31.6921 32.1836 31.2132 32.1836 30.7343C32.1836 29.9361 31.8643 29.4573 30.9065 29.6169C29.9487 29.9362 28.8312 30.2554 27.8734 30.5747C27.8734 30.2554 28.0331 29.7765 28.0331 29.2976C28.3523 27.7013 28.033 26.2645 26.9156 25.1471C26.4367 24.6682 25.9578 24.0296 25.6385 23.5507C24.8404 22.2737 25.1596 21.1562 26.5964 20.6773C27.5542 20.3581 28.6716 20.1984 29.6294 20.0388C31.0661 19.8792 32.1835 19.2406 33.1414 18.2828C33.7799 17.4846 34.5781 16.8461 35.3763 16.0479C35.8552 15.569 36.3341 15.2497 36.9726 14.9305C37.9305 14.4516 38.7286 14.6112 39.3672 15.569C39.5268 15.8883 39.6864 16.0479 39.8461 16.3672C40.325 17.1653 40.325 17.8039 39.6864 18.602C38.4093 20.1984 37.9304 21.9544 38.7286 23.87C39.5268 25.7856 40.9635 26.9031 43.0388 27.2224C43.1984 27.2224 43.358 27.2223 43.5177 27.382C43.6773 27.5416 43.837 27.7013 43.9966 27.8609C43.837 28.0205 43.6773 28.1802 43.3581 28.0205C40.0057 27.7013 36.813 25.7856 36.3341 21.9544C36.3341 21.1562 36.4937 20.5177 36.3341 19.7195C36.3341 19.5599 36.0148 19.081 35.8552 19.081C34.2588 19.081 32.8221 19.081 31.3854 20.0388C29.7891 21.1562 29.3101 22.9122 30.4276 24.6682C30.7469 25.1471 31.0661 25.626 31.545 26.1049C32.0239 26.7434 32.6625 27.382 33.1414 28.0205C34.4184 29.7765 34.0992 31.0536 32.1836 32.3307Z" fill="#0587D6" stroke="#0587D6" stroke-width="2.39453" stroke-miterlimit="10"/>
<path d="M110.405 30.7347C109.766 30.4154 108.968 30.0961 108.33 29.7769C106.574 29.1383 105.935 29.7769 106.095 31.6925C106.095 31.8521 106.095 32.0118 106.095 32.1714C104.977 31.8521 104.179 30.5751 104.498 29.298C104.818 28.4998 105.297 27.8613 105.775 27.2228C106.254 26.5842 107.053 25.9456 107.531 25.1475C108.968 23.2318 108.649 20.997 106.414 19.8795C105.137 19.241 103.7 19.241 102.423 18.9217C101.944 18.7621 101.785 19.241 101.944 19.5602C101.944 20.3584 102.104 21.1566 102.104 21.9548C101.785 24.3493 100.508 26.1053 98.2726 27.0631C97.3148 27.542 96.1974 27.7016 95.0799 27.8613C94.9203 27.8613 94.7607 27.7016 94.4414 27.7016C94.601 27.542 94.601 27.2228 94.9203 27.2228C95.2396 27.0631 95.7185 27.0631 96.0378 27.0631C100.029 26.1053 101.306 21.7952 98.9112 18.4428C98.5919 17.9639 98.113 17.3253 98.2726 17.0061C98.5919 16.2079 99.2305 15.4097 99.869 14.7712C100.188 14.4519 100.986 14.6116 101.465 14.9308C102.264 15.4097 102.902 16.0483 103.541 16.6868C104.019 17.0061 104.339 17.485 104.658 17.9639C105.935 19.4006 107.372 20.0391 109.287 20.1988C110.086 20.3584 110.884 20.3584 111.522 20.6777C112.959 21.1566 113.278 22.274 112.48 23.3915C112.321 23.5511 112.161 23.7108 112.001 24.0301C109.766 26.9035 109.607 27.2227 110.405 30.7347Z" fill="#0587D6" stroke="#0587D6" stroke-width="2.39453" stroke-miterlimit="10"/>
<path d="M135.466 136.572V81.4982C135.466 80.3807 134.508 79.7422 133.71 79.7422H93.3224C92.205 79.7422 91.5664 80.7 91.5664 81.4982V136.572C91.5664 137.69 92.5242 138.328 93.3224 138.328H133.71C134.508 138.647 135.466 137.69 135.466 136.572Z" stroke="white" stroke-width="8.02406" stroke-miterlimit="79.8403" stroke-linecap="round" stroke-linejoin="round"/>
<path fill-rule="evenodd" clip-rule="evenodd" d="M123.17 78.4652H103.375V73.0377C103.375 72.0799 104.173 71.1221 105.291 71.1221H121.414C122.372 71.1221 123.329 71.9202 123.329 73.0377V78.4652H123.17Z" fill="white" stroke="white" stroke-width="7.04151" stroke-miterlimit="10" stroke-linecap="round"/>
<path d="M105.775 138.967H99.2305V142H105.775V138.967Z" fill="#0587D6" stroke="white" stroke-width="3.12582" stroke-miterlimit="79.8403" stroke-linecap="round" stroke-linejoin="round"/>
<path fill-rule="evenodd" clip-rule="evenodd" d="M135.466 136.572V81.4982C135.466 80.3807 134.508 79.7422 133.71 79.7422H93.3224C92.205 79.7422 91.5664 80.7 91.5664 81.4982V136.572C91.5664 137.69 92.5242 138.328 93.3224 138.328H133.71C134.508 138.647 135.466 137.69 135.466 136.572Z" fill="white"/>
<path d="M135.305 80.5405H92.3633V138.328H135.305V80.5405Z" fill="#85DBF6"/>
<path d="M135.466 136.572V81.4982C135.466 80.3807 134.508 79.7422 133.71 79.7422H93.3224C92.205 79.7422 91.5664 80.7 91.5664 81.4982V136.572C91.5664 137.69 92.5242 138.328 93.3224 138.328H133.71C134.508 138.647 135.466 137.69 135.466 136.572Z" stroke="#0587D6" stroke-width="2.67357" stroke-miterlimit="79.8403" stroke-linecap="round" stroke-linejoin="round"/>
<path fill-rule="evenodd" clip-rule="evenodd" d="M123.17 78.4652H103.375V73.0377C103.375 72.0799 104.173 71.1221 105.291 71.1221H121.414C122.372 71.1221 123.329 71.9202 123.329 73.0377V78.4652H123.17Z" fill="white" stroke="#0587D6" stroke-width="3.12582" stroke-miterlimit="10" stroke-linecap="round"/>
<path d="M105.775 138.967H99.2305V142H105.775V138.967Z" fill="#0587D6" stroke="#0587D6" stroke-width="1.33694" stroke-miterlimit="79.8403" stroke-linecap="round" stroke-linejoin="round"/>
<path d="M128.123 138.967H121.578V142H128.123V138.967Z" fill="#0587D6" stroke="#0587D6" stroke-width="1.33694" stroke-miterlimit="79.8403" stroke-linecap="round" stroke-linejoin="round"/>
<path d="M128.123 138.967H121.578V142H128.123V138.967Z" fill="#0587D6" stroke="#0587D6" stroke-width="1.33694" stroke-miterlimit="79.8403" stroke-linecap="round" stroke-linejoin="round"/>
<path d="M100.664 90.2783V125.079" stroke="#0587D6" stroke-width="1.56299" stroke-miterlimit="10" stroke-linecap="round"/>
<path d="M127.32 90.2783V125.079" stroke="#0587D6" stroke-width="1.56299" stroke-miterlimit="10" stroke-linecap="round"/>
<path d="M113.914 90.2783V125.079" stroke="#0587D6" stroke-width="1.56299" stroke-miterlimit="10" stroke-linecap="round"/>
</svg>
