<svg width="153" height="141" viewBox="0 0 153 141" fill="none" xmlns="http://www.w3.org/2000/svg">
<path d="M69.0203 136C105.935 136 135.861 106.003 135.861 69C135.861 31.9969 105.935 2 69.0203 2C32.1052 2 2.17969 31.9969 2.17969 69C2.17969 106.003 32.1052 136 69.0203 136Z" stroke="#0587D6" stroke-width="2.72898" stroke-miterlimit="79.8403" stroke-linecap="round" stroke-linejoin="round"/>
<path d="M80.184 92.4501C76.6745 92.4501 72.0483 93.5667 69.815 95.3215C67.103 97.5548 62.6364 92.4501 58.9673 92.4501C58.6483 92.4501 57.2126 92.45 55.9364 91.1738C55.1388 90.3762 54.6602 89.2596 54.6602 88.1429V61.5024H84.3317V88.3024C84.4912 90.5358 82.4174 92.4501 80.184 92.4501Z" fill="white" stroke="white" stroke-width="1.59524" stroke-miterlimit="10"/>
<path d="M69.4947 127.546C69.1757 127.386 69.0162 127.067 68.6971 126.907C65.3471 124.993 64.709 123.876 65.347 120.048C65.9851 116.857 66.7828 113.667 67.5804 110.476C67.7399 109.679 67.8995 108.722 67.8995 107.765C65.6662 109.679 64.5494 112.231 63.4327 114.943C62.3161 117.655 61.6781 120.367 61.5185 123.398C59.6042 122.76 58.1685 121.962 57.2114 120.207C56.5733 119.091 56.8923 117.974 57.2114 116.857C58.8066 112.231 61.8376 108.722 66.3043 106.169C66.4638 106.01 66.7828 106.01 66.9423 105.691C67.1018 105.531 67.1019 105.372 67.1019 105.212C67.1019 105.053 66.7827 104.893 66.6232 104.893C66.3042 104.893 65.9852 104.893 65.6661 105.053C59.4447 107.605 54.978 111.912 52.9042 118.453C52.7447 118.931 52.5851 119.091 52.1066 118.931C50.6708 118.453 49.5542 117.655 48.597 116.219C47.9589 115.103 48.1185 113.986 48.7566 112.869C49.7137 111.274 51.1494 109.838 52.5851 108.722C56.2542 106.01 60.4018 104.096 64.8685 102.819C65.9852 102.5 65.9852 102.5 65.5066 101.543C64.5495 99.1502 63.2732 96.9169 61.0399 95.3217C59.6042 94.205 58.1685 93.886 56.4137 94.205C54.659 94.6836 53.5423 96.2789 53.7018 98.1931C53.7018 98.8312 53.8613 99.3098 54.0209 99.9479C54.3399 101.224 54.1804 101.224 52.9042 101.543C50.3518 102.022 47.7994 102.341 45.247 102.979C43.8113 103.298 42.5351 104.096 41.4184 104.574C42.5351 105.85 43.4922 106.967 44.6089 108.084C45.247 108.722 45.2471 109.2 44.7685 109.838C44.2899 110.476 43.4923 110.636 42.8542 109.998C41.897 109.2 40.7803 108.243 39.8232 107.286C39.3446 106.967 39.1851 106.807 38.547 107.126C36.1541 108.243 33.2827 107.126 32.3256 104.734C31.847 103.617 32.0065 102.5 32.4851 101.543C32.6446 101.065 32.6446 100.905 32.3256 100.586C28.3375 96.9169 24.5089 93.0884 20.5208 89.4193C20.2017 89.1003 19.8827 89.1003 19.4041 89.2598C18.2874 89.8979 17.6493 89.7383 16.8517 88.9407C16.6922 88.7812 16.2136 88.6217 15.8946 88.7812C13.5017 89.5788 10.7898 88.1431 9.99219 85.4312C10.7898 85.4312 11.5874 85.4312 12.3851 85.4312C12.066 84.4741 11.7469 83.6765 11.4279 82.7193C10.7898 80.6455 11.9065 79.3693 14.1398 79.5288C15.097 79.6884 16.0541 80.0074 17.0112 80.1669C17.0112 79.3693 17.0112 78.7312 17.0112 77.9336C19.4041 78.0931 21.3184 80.6455 20.8398 83.1979C20.6803 83.6764 20.6803 84.155 21.1589 84.4741C21.9565 85.1122 21.9565 85.7503 21.797 86.7074C21.797 87.0265 21.9565 87.505 22.116 87.6646C26.1041 91.4931 29.9327 95.1622 33.9208 98.8312C34.2399 99.1503 34.7184 99.3098 35.197 99.3098C36.7922 99.1503 38.228 99.4693 39.5042 100.426C39.6637 100.586 39.9827 100.745 40.3017 100.745C43.3327 100.745 46.3637 100.426 49.0756 99.1502C49.2351 99.1502 49.3947 98.9907 49.5542 98.8312C49.3947 98.5122 49.2351 98.1931 49.0756 97.8741C47.6398 95.6407 46.5232 93.2479 46.0447 90.536C45.4066 85.9098 48.597 82.5598 53.0637 82.2408C53.5422 82.2408 54.0209 82.2408 54.4994 82.2408C54.4994 82.5598 54.4994 82.8788 54.4994 83.1979C54.4994 85.1121 54.4994 87.186 54.4994 89.1003C54.4994 91.3336 55.9351 92.9288 58.1685 93.2479C59.6042 93.4074 61.0399 93.4074 62.4756 93.2479C65.028 93.0884 67.1018 94.0455 68.5375 96.1193C69.0161 96.5979 69.1756 96.5979 69.6542 96.1193C71.0899 94.205 73.1638 93.2479 75.5566 93.4074C76.9924 93.4074 78.4281 93.4074 79.8638 93.4074C82.2567 93.2479 83.6924 91.6527 83.8519 89.2598C83.8519 87.186 83.8519 85.2717 83.8519 83.1979C83.8519 82.5598 84.0114 82.2407 84.6495 82.4002C85.7662 82.5598 86.7233 82.7193 87.84 83.0384C91.5091 84.3146 92.7852 87.9836 92.3067 91.3336C91.9876 93.7264 90.7114 95.9598 89.4353 98.0336C88.6376 99.1503 88.6376 99.3098 90.0733 99.7884C92.3066 100.746 94.6995 100.905 97.0924 101.065C97.4114 101.065 97.7305 100.586 97.89 100.267C98.3686 98.8312 99.1662 97.7145 100.442 96.9169C100.921 96.5979 101.08 96.5979 101.559 96.9169C102.516 97.7145 103.473 98.3526 104.43 99.1502C104.909 99.6288 105.388 99.6288 105.866 99.1502C106.823 98.3526 107.781 97.7145 108.578 96.9169C109.057 96.4383 109.376 96.5979 109.854 96.9169C112.088 98.8312 113.204 101.065 112.566 104.095C111.928 106.967 109.376 109.041 106.504 109.519C103.792 109.998 101.24 109.2 99.4853 107.126C97.7305 105.212 95.6566 103.936 93.2638 103.457C90.8709 102.819 88.3186 102.5 85.9257 102.181C84.9686 102.022 84.809 101.862 84.9685 100.745C85.128 99.7883 85.2876 98.8312 85.2876 98.0336C84.809 95.1622 81.9376 93.886 79.0662 95.3217C77.79 95.9598 76.6733 97.0765 75.7161 98.1931C74.759 99.4693 74.1209 101.065 73.3233 102.5C73.0042 103.138 73.4828 103.298 73.9614 103.457C76.5138 104.415 78.9066 105.212 81.2995 106.329C84.1709 107.605 86.8829 109.519 89.1162 112.072C89.2757 112.231 89.2757 112.231 89.4353 112.391C91.8281 115.262 90.5519 118.772 86.8828 119.729C86.2447 119.888 86.2447 119.569 86.0852 119.091C85.128 115.9 83.3733 113.029 80.9804 110.636C78.7471 108.403 76.1947 106.648 73.1638 105.691C72.8447 105.531 72.2066 105.691 72.0471 105.85C71.728 106.329 72.2066 106.648 72.6852 106.967C77.1519 109.36 80.3424 112.869 81.9376 117.815C82.7352 119.888 82.2566 121.324 80.5018 122.76C79.8637 123.238 79.2257 123.717 78.428 124.036C77.6304 124.515 77.4709 124.355 77.4709 123.398C77.3114 120.526 76.6732 117.815 75.397 115.262C74.4399 113.348 73.4828 111.593 72.3661 109.838C72.0471 109.36 71.5685 109.041 71.2495 108.722C71.0899 108.722 71.0899 108.881 70.9304 108.881C71.0899 109.679 71.0899 110.476 71.2495 111.115C72.0471 114.305 72.6852 117.336 73.4828 120.526C73.6424 121.165 73.6423 121.803 73.8018 122.441C74.1209 124.355 73.3233 125.791 71.8876 126.907C71.09 127.546 71.5685 127.226 70.6113 127.705C68.8566 127.705 69.6543 127.546 69.4947 127.546Z" fill="white" stroke="white" stroke-width="6.38096" stroke-miterlimit="10"/>
<path d="M6.64561 40.2855C6.80513 39.4879 6.80515 39.0093 6.96467 38.3712C6.96467 38.0522 7.12417 37.8926 7.28369 37.5736C7.60274 37.7331 7.92179 37.7331 8.08131 38.0521C10.4742 40.126 12.7075 42.1997 15.1004 44.114C19.248 46.9855 23.7147 49.2188 28.6599 50.3355C28.979 50.495 29.298 50.495 29.6171 50.495C30.2552 49.2188 30.0957 48.5807 28.979 47.7831C26.2671 46.0283 23.3956 44.4331 20.8432 42.6783C17.4932 40.2855 14.4623 37.5736 12.867 33.5855C10.9527 28.9593 11.4314 24.6522 14.9409 20.6641C15.1004 20.9831 15.4194 21.1426 15.579 21.4617C18.929 26.5664 22.279 31.5117 26.2671 36.1378C31.2123 41.8807 36.1576 47.4641 42.5386 51.6117C43.0171 51.9307 43.4957 52.2498 42.8576 53.0474C40.6243 55.2807 39.8266 58.1521 41.1028 61.1831C42.379 64.3736 44.9314 65.9688 48.2814 66.2879C50.3552 66.6069 52.4291 66.2879 54.5029 65.8093C55.141 65.6498 55.3005 65.8093 55.3005 66.4474C55.3005 67.564 55.3005 68.6807 55.3005 69.7974C55.3005 72.3498 55.3005 74.9022 55.3005 77.4545C55.3005 77.6141 55.3005 77.7736 55.3005 78.0926C54.9814 77.6141 54.8219 77.4545 54.6623 77.1355C53.2266 74.2641 50.6743 72.9879 47.6433 72.5093C46.0481 72.1903 46.0481 72.1902 45.729 73.7855C45.2505 76.3379 44.4528 78.8902 43.3362 81.1236C42.06 83.5164 40.1457 85.1116 37.4338 85.5902C35.5195 85.9093 33.7647 85.4307 32.1695 83.995C32.6481 83.6759 32.9671 83.3569 33.4457 83.0379C36.6361 80.9641 39.1885 78.4117 40.9433 75.0617C41.4219 74.2641 41.5814 73.3069 41.9004 72.3498C42.0599 71.7117 41.9005 71.5521 41.2624 71.2331C40.7838 71.0736 40.3052 70.7545 39.9862 71.3926C38.5504 73.6259 36.9552 75.5403 35.0409 77.295C32.9671 79.0498 30.7337 80.326 28.0218 80.4855C25.4694 80.4855 23.3956 79.6879 21.8004 77.295C22.1195 77.1355 22.4385 76.9759 22.7576 76.9759C27.2242 76.0188 31.3719 74.4236 34.7219 71.0736C35.36 70.595 35.8385 69.7974 36.3171 69.3188C36.6362 68.8403 36.7957 68.5212 36.3171 67.8831C35.8385 67.4045 35.36 67.4045 34.7219 67.7236C32.8076 68.8403 31.0528 69.9569 29.1385 70.9141C26.1076 72.5093 23.0766 73.626 19.5671 73.1474C18.2909 72.9879 17.0147 72.6688 15.898 72.0307C13.9837 71.2331 13.1861 69.4783 12.867 67.5641C12.7075 67.0855 13.0266 66.926 13.5051 66.926C14.3027 66.926 15.1004 66.926 15.898 66.926C21.3218 66.926 26.7457 65.9688 31.6909 63.7355C32.6481 63.2569 32.8076 63.0974 32.1695 62.1403C31.8504 61.6617 31.5314 61.6617 31.0528 61.6617C27.8623 62.1402 24.8314 62.7783 21.6409 63.2569C18.929 63.5759 16.3766 63.7355 13.6647 62.9379C9.83608 61.8212 7.60274 59.1093 7.28369 55.1212C7.28369 54.6426 7.28369 54.1641 7.28369 53.526C7.60274 53.6855 7.92179 53.6855 8.08131 53.845C14.9409 56.8759 22.1194 57.8331 29.4575 57.195C29.7766 57.195 30.4147 57.195 30.2552 56.5569C30.0956 56.0783 30.4147 55.2807 29.4575 55.1212C26.5861 54.6426 23.7147 54.3236 21.0028 53.845C17.8123 53.2069 14.6218 52.4093 11.7504 50.8141C8.87896 49.2188 6.96464 46.6664 6.48607 43.3164C6.32655 43.4759 6.64561 39.4879 6.64561 39.6474" fill="white"/>
<path d="M6.64561 40.2855C6.80513 39.4879 6.80515 39.0093 6.96467 38.3712C6.96467 38.0522 7.12417 37.8926 7.28369 37.5736C7.60274 37.7331 7.92179 37.7331 8.08131 38.0521C10.4742 40.126 12.7075 42.1997 15.1004 44.114C19.248 46.9855 23.7147 49.2188 28.6599 50.3355C28.979 50.495 29.298 50.495 29.6171 50.495C30.2552 49.2188 30.0957 48.5807 28.979 47.7831C26.2671 46.0283 23.3956 44.4331 20.8432 42.6783C17.4932 40.2855 14.4623 37.5736 12.867 33.5855C10.9527 28.9593 11.4314 24.6522 14.9409 20.6641C15.1004 20.9831 15.4194 21.1426 15.579 21.4617C18.929 26.5664 22.279 31.5117 26.2671 36.1378C31.2123 41.8807 36.1576 47.4641 42.5385 51.6117C43.0171 51.9307 43.4957 52.2498 42.8576 53.0474C40.6243 55.2807 39.8266 58.1521 41.1028 61.1831C42.379 64.3736 44.9314 65.9688 48.2814 66.2879C50.3552 66.6069 52.429 66.2879 54.5029 65.8093C55.141 65.6498 55.3005 65.8093 55.3005 66.4474C55.3005 67.564 55.3005 68.6807 55.3005 69.7974C55.3005 72.3498 55.3005 74.9022 55.3005 77.4545C55.3005 77.6141 55.3005 77.7736 55.3005 78.0926C54.9814 77.6141 54.8219 77.4545 54.6623 77.1355C53.2266 74.2641 50.6743 72.9879 47.6433 72.5093C46.0481 72.1903 46.0481 72.1902 45.729 73.7855C45.2505 76.3379 44.4528 78.8902 43.3362 81.1236C42.06 83.5164 40.1457 85.1117 37.4338 85.5902C35.5195 85.9093 33.7647 85.4307 32.1695 83.995C32.648 83.6759 32.9671 83.3569 33.4457 83.0379C36.6361 80.9641 39.1885 78.4117 40.9433 75.0617C41.4219 74.2641 41.5814 73.3069 41.9004 72.3498C42.0599 71.7117 41.9005 71.5521 41.2624 71.2331C40.7838 71.0736 40.3052 70.7545 39.9862 71.3926C38.5504 73.6259 36.9552 75.5403 35.0409 77.295C32.9671 79.0498 30.7337 80.326 28.0218 80.4855C25.4694 80.4855 23.3956 79.6879 21.8004 77.295C22.1195 77.1355 22.4385 76.9759 22.7576 76.9759C27.2242 76.0188 31.3719 74.4236 34.7219 71.0736C35.36 70.595 35.8385 69.7974 36.3171 69.3188C36.6362 68.8403 36.7957 68.5212 36.3171 67.8831C35.8385 67.4045 35.36 67.4045 34.7219 67.7236C32.8076 68.8403 31.0528 69.9569 29.1385 70.9141C26.1076 72.5093 23.0766 73.626 19.5671 73.1474C18.2909 72.9879 17.0147 72.6688 15.898 72.0307C13.9837 71.2331 13.1861 69.4783 12.867 67.5641C12.7075 67.0855 13.0266 66.926 13.5051 66.926C14.3027 66.926 15.1004 66.926 15.898 66.926C21.3218 66.926 26.7457 65.9688 31.6909 63.7355C32.6481 63.2569 32.8076 63.0974 32.1695 62.1403C31.8504 61.6617 31.5314 61.6617 31.0528 61.6617C27.8623 62.1402 24.8314 62.7783 21.6409 63.2569C18.929 63.5759 16.3766 63.7355 13.6647 62.9379C9.83608 61.8212 7.60274 59.1093 7.28369 55.1212C7.28369 54.6426 7.28369 54.1641 7.28369 53.526C7.60274 53.6855 7.92179 53.6855 8.08131 53.845C14.9409 56.8759 22.1194 57.8331 29.4575 57.195C29.7766 57.195 30.4147 57.195 30.2552 56.5569C30.0956 56.0783 30.4147 55.2807 29.4575 55.1212C26.5861 54.6426 23.7147 54.3236 21.0028 53.845C17.8123 53.2069 14.6218 52.4093 11.7504 50.8141C8.87896 49.2188 6.96464 46.6664 6.48607 43.3164C6.32655 43.4759 6.64561 39.4879 6.64561 39.6474" stroke="white" stroke-width="6.38096" stroke-miterlimit="10"/>
<path d="M109.853 50.4955C117.989 48.5812 124.848 44.5931 130.751 38.6907C130.91 38.5312 131.07 38.3717 131.229 38.0526C132.027 37.255 132.187 37.255 132.506 38.3717C134.101 43.1574 132.027 48.4217 127.56 50.8145C124.37 52.5693 121.02 53.5264 117.351 54.005C114.958 54.3241 112.725 54.8027 110.332 55.1217C109.853 55.2812 109.215 55.1217 109.056 55.9193C108.896 56.8765 108.896 57.1955 110.013 57.1955C117.351 57.8336 124.37 56.8764 131.07 54.005C131.389 53.8455 131.548 53.8455 132.027 53.5265C132.027 54.1646 132.027 54.6431 132.027 55.1217C131.868 58.9503 129.794 61.6622 126.125 62.9384C124.21 63.5765 122.137 63.736 120.063 63.5764C116.075 63.4169 112.087 62.7788 108.258 61.8217C107.301 61.6622 107.141 61.9812 106.982 62.6193C106.663 63.4169 107.141 63.5765 107.62 63.736C111.289 65.3312 115.118 66.4479 119.106 66.7669C121.179 66.9264 123.413 66.9265 125.646 67.086C125.965 67.086 126.284 67.0859 126.603 67.2455C126.444 70.436 124.689 72.5098 121.339 73.1479C118.468 73.786 115.596 73.4669 112.884 72.1907C110.172 70.9145 107.46 69.3193 104.908 67.8836C104.27 67.5646 103.791 67.405 103.313 68.0431C102.675 68.6812 103.153 69.1598 103.472 69.6383C105.227 72.1907 107.62 73.9455 110.491 75.0622C112.565 76.0193 114.958 76.4979 117.032 77.2955C117.191 77.2955 117.51 77.455 117.829 77.6145C116.713 79.5288 115.118 80.486 113.044 80.6455C110.491 80.9646 108.098 80.1669 106.025 78.5717C103.472 76.8169 101.558 74.424 99.9627 72.0312C99.4841 71.2336 98.3675 71.2336 97.8889 71.8717C97.7294 72.0312 97.7294 72.3503 97.8889 72.6693C98.8461 76.3384 101.239 79.3693 104.11 81.6026C104.908 82.2407 105.865 82.8788 106.822 83.6765C106.982 83.836 107.141 83.9955 107.46 84.155C105.865 85.9098 102.994 86.3884 100.601 85.2717C98.527 84.3146 97.0913 82.8788 96.2937 80.6455C95.3365 78.2527 94.6984 75.8598 94.0603 73.4669C93.9008 72.6693 93.5818 72.5098 92.7841 72.5098C89.4341 72.9884 86.7222 74.105 85.127 77.2955C85.127 77.455 84.9674 77.6145 84.8079 77.7741C84.8079 77.6145 84.6484 77.455 84.6484 77.2955C84.6484 73.6265 84.6484 69.9574 84.6484 66.4479C84.6484 65.6502 84.9674 65.6502 85.6055 65.8098C87.9984 66.4479 90.3913 66.6074 92.7841 66.1288C98.208 65.1717 101.718 58.3122 97.4104 53.3669C97.0913 53.0479 96.9318 52.7288 96.6128 52.2502C108.418 43.955 117.032 32.7884 124.848 20.6646C126.763 22.4193 127.879 24.4931 128.039 27.0455C128.518 31.8312 126.763 35.6598 123.413 38.8503C119.744 42.3598 115.437 45.0717 110.97 47.6241C109.375 48.4217 109.215 49.2193 109.853 50.4955Z" fill="white" stroke="white" stroke-width="6.38096" stroke-miterlimit="10"/>
<path d="M79.0644 36.7766C77.1502 35.66 75.5548 34.3838 74.5977 32.629C74.2786 31.9909 74.1191 31.3528 73.8001 30.5552C74.2786 30.5552 74.5978 30.5552 74.7573 30.5552C76.6716 30.8742 78.5858 31.1933 80.5001 31.3528C84.1692 31.5123 87.8383 31.3528 91.5073 31.6719C93.2621 31.8314 95.0168 32.1504 96.7716 32.629C99.8026 33.5862 100.6 37.4147 98.5263 39.8076C98.3668 39.4885 98.2073 39.329 98.0478 39.01C97.2501 37.8933 96.1335 37.5743 94.8573 37.5743C89.2739 37.2552 85.4453 40.1266 82.5739 44.4338C81.1382 46.6671 80.0216 49.2195 79.8621 51.9314C79.543 55.2814 80.3406 58.3123 82.893 60.5457C82.893 60.5457 83.0526 60.7052 83.0526 60.8647C74.2787 60.8647 65.6644 60.8647 56.7311 60.8647C57.2096 60.3861 57.6882 60.0671 58.0072 59.5885C59.9215 57.5147 60.5596 54.8028 60.2405 52.0909C59.4429 45.5504 56.2524 40.9243 50.1905 38.2123C48.4357 37.4147 46.681 37.4147 44.7667 37.5743C43.4906 37.7338 42.3738 38.2123 41.7358 39.329C41.7358 39.4885 41.5762 39.4885 41.4167 39.6481H41.2572C39.0239 36.2981 40.4596 32.948 43.9691 32.3099C46.2025 31.8314 48.4357 31.6719 50.6691 31.5123C53.2215 31.3528 55.9334 31.3528 58.4858 31.3528C60.8787 31.3528 63.112 31.1933 65.3453 30.5552C65.5048 30.5552 65.6643 30.5552 65.8239 30.5552C65.1858 33.5861 63.112 35.3409 60.7192 36.9361C66.3025 42.5195 68.8548 49.379 69.812 57.0361C70.9286 49.2195 73.3216 42.2005 79.0644 36.7766Z" fill="white" stroke="white" stroke-width="6.38096" stroke-miterlimit="10"/>
<path d="M82.8974 26.7263C82.5784 25.6096 82.0998 24.493 81.9403 23.3763C81.6213 21.6215 82.8975 20.1858 84.6522 20.1858C84.9713 20.1858 85.4498 20.3454 85.7688 20.6644C86.5665 21.462 87.5237 22.2597 88.3213 23.0573C89.1189 22.2597 89.9165 21.6215 90.7141 20.9834C91.8308 20.0263 93.2665 20.1858 94.2237 21.3025C94.8618 22.2596 95.0212 23.3763 94.5427 24.3334C94.0641 25.4501 93.4261 26.5668 92.6285 27.6835C92.4689 27.843 92.1499 28.0025 91.8308 28.0025C88.4808 28.0025 84.9713 28.0025 81.6212 27.6835C77.4736 27.2049 74.7617 24.812 73.4855 20.824C73.326 20.1859 73.007 20.0263 72.3689 20.0263C70.6141 20.0263 68.6998 20.0263 66.945 20.0263C66.4664 20.0263 66.1474 20.1858 65.9879 20.6644C64.3927 25.2906 61.0427 27.3644 56.7355 27.6835C53.8641 27.843 50.9926 27.843 48.2806 27.843C47.6426 27.843 47.164 27.6835 46.6854 27.0454C45.8878 25.7692 45.0902 24.493 44.9307 23.0573C44.7712 21.7811 45.4093 20.8239 46.3664 20.1858C47.4831 19.7072 47.8022 19.7073 48.7593 20.5049C49.3974 21.143 50.0355 21.6216 50.514 22.2597C50.9926 22.7382 51.3117 22.5787 51.6307 22.2597C52.2688 21.7811 52.7473 21.143 53.3854 20.6644C54.6616 19.5478 56.576 20.0263 57.2141 21.6216C57.6926 23.0573 57.214 24.3335 56.5759 25.6097C56.4164 25.9287 56.2569 26.0882 56.0974 26.5668C56.5759 26.5668 56.895 26.5668 57.3735 26.5668C60.245 25.6096 62.4783 23.8549 63.4354 20.9834C63.595 20.3453 63.595 20.0263 63.276 19.3882C61.9998 17.3144 60.7236 15.2406 60.4045 12.8478C60.0855 10.2954 62.1593 8.06202 64.7117 8.38107C65.0308 8.38107 65.3498 8.70014 65.5093 8.85967C66.7855 10.2954 67.9022 11.7311 69.1784 13.1668C69.6569 13.8049 69.976 13.8049 70.4545 13.1668C71.5712 11.7311 72.8474 10.2954 74.1236 8.85967C74.2831 8.70014 74.6022 8.38107 74.9212 8.38107C77.9522 8.38107 79.707 10.2954 79.2284 13.1668C78.7498 15.5596 77.6332 17.4739 76.357 19.3882C76.1974 19.7072 76.0379 20.1858 76.0379 20.5049C76.5165 23.6954 80.026 26.7263 82.8974 26.7263Z" fill="white" stroke="white" stroke-width="6.38096" stroke-miterlimit="10"/>
<path d="M32.8076 32.3096C32.8076 31.6715 32.8076 31.1929 32.8076 30.7143C32.8076 29.9167 32.4886 29.4382 31.5315 29.5977C30.5743 29.9167 29.4577 30.2358 28.5005 30.5548C28.5005 30.2358 28.66 29.7572 28.66 29.2786C28.979 27.6834 28.66 26.2477 27.5434 25.131C27.0648 24.6524 26.5862 24.0143 26.2671 23.5358C25.4695 22.2596 25.7886 21.1429 27.2243 20.6644C28.1814 20.3453 29.2981 20.1858 30.2552 20.0263C31.691 19.8667 32.8076 19.2286 33.7648 18.2715C34.4029 17.4739 35.2005 16.8358 35.9981 16.0382C36.4767 15.5596 36.9553 15.2405 37.5934 14.9215C38.5505 14.4429 39.3481 14.6024 39.9862 15.5596C40.1458 15.8786 40.3053 16.0381 40.4648 16.3572C40.9434 17.1548 40.9433 17.7929 40.3052 18.5905C39.0291 20.1858 38.5505 21.9405 39.3481 23.8548C40.1458 25.7691 41.5815 26.8858 43.6553 27.2048C43.8148 27.2048 43.9743 27.2048 44.1339 27.3643C44.2934 27.5238 44.4529 27.6834 44.6124 27.8429C44.4529 28.0024 44.2934 28.162 43.9744 28.0025C40.6244 27.6834 37.4338 25.7691 36.9553 21.9405C36.9553 21.1429 37.1148 20.5048 36.9553 19.7072C36.9553 19.5477 36.6362 19.0691 36.4767 19.0691C34.8815 19.0691 33.4457 19.0691 32.01 20.0263C30.4148 21.1429 29.9362 22.8977 31.0529 24.6524C31.3719 25.131 31.691 25.6096 32.1696 26.0882C32.6481 26.7262 33.2862 27.3644 33.7648 28.0025C35.041 29.7572 34.7219 31.0334 32.8076 32.3096Z" fill="white" stroke="white" stroke-width="6.38096" stroke-miterlimit="10"/>
<path d="M110.976 30.7147C110.338 30.3956 109.54 30.0766 108.902 29.7575C107.147 29.1194 106.509 29.7575 106.669 31.6718C106.669 31.8313 106.669 31.9908 106.669 32.1504C105.552 31.8313 104.754 30.5552 105.073 29.279C105.392 28.4813 105.871 27.8433 106.35 27.2052C106.828 26.5671 107.626 25.929 108.104 25.1313C109.54 23.217 109.221 20.9837 106.988 19.8671C105.712 19.229 104.276 19.229 103 18.9099C102.521 18.7504 102.361 19.229 102.521 19.548C102.521 20.3456 102.681 21.1432 102.681 21.9409C102.362 24.3337 101.085 26.0885 98.852 27.0456C97.8948 27.5242 96.7781 27.6837 95.6615 27.8433C95.502 27.8433 95.3425 27.6837 95.0234 27.6837C95.183 27.5242 95.1829 27.2052 95.502 27.2052C95.821 27.0456 96.2996 27.0456 96.6187 27.0456C100.607 26.0885 101.883 21.7814 99.4901 18.4314C99.171 17.9528 98.6924 17.3147 98.852 16.9956C99.171 16.198 99.8091 15.4004 100.447 14.7623C100.766 14.4432 101.564 14.6028 102.042 14.9218C102.84 15.4004 103.478 16.0385 104.116 16.6766C104.595 16.9956 104.914 17.4742 105.233 17.9528C106.509 19.3885 107.945 20.0266 109.859 20.1861C110.657 20.3456 111.454 20.3456 112.092 20.6647C113.528 21.1433 113.847 22.2599 113.05 23.3766C112.89 23.5361 112.731 23.6956 112.571 24.0147C110.338 26.8861 110.178 27.2051 110.976 30.7147Z" fill="white" stroke="white" stroke-width="6.38096" stroke-miterlimit="10"/>
<path d="M80.184 92.4501C76.6745 92.4501 72.0483 93.5667 69.815 95.3215C67.103 97.5548 62.6364 92.4501 58.9673 92.4501C58.6483 92.4501 57.2126 92.45 55.9364 91.1738C55.1388 90.3762 54.6602 89.2596 54.6602 88.1429V61.5024H84.3317V88.3024C84.4912 90.5358 82.4174 92.4501 80.184 92.4501Z" fill="#00A2E5"/>
<path d="M69.4947 127.546C69.1757 127.386 68.5375 126.748 68.2185 126.588C64.8685 124.674 64.709 123.876 65.347 120.048C65.9851 116.857 66.7828 113.667 67.5804 110.476C67.7399 109.679 68.5376 107.286 67.8995 107.765C65.6662 109.679 64.5494 112.231 63.4327 114.943C62.3161 117.655 61.6781 120.367 61.5185 123.398C59.6042 122.76 58.1685 121.962 57.2114 120.207C56.5733 119.091 56.8923 117.974 57.2114 116.857C58.8066 112.231 61.8376 108.722 66.3043 106.169C66.4638 106.01 66.7828 106.01 66.9423 105.691C67.1018 105.531 67.1019 105.372 67.1019 105.212C67.1019 105.053 66.7827 104.893 66.6232 104.893C66.3042 104.893 65.9852 104.893 65.6661 105.053C59.4447 107.605 54.978 111.912 52.9042 118.453C52.7447 118.931 52.5851 119.091 52.1066 118.931C50.6708 118.453 49.5542 117.655 48.597 116.219C47.9589 115.103 48.1185 113.986 48.7566 112.869C49.7137 111.274 51.1494 109.838 52.5851 108.722C56.2542 106.01 60.4018 104.096 64.8685 102.819C65.9852 102.5 65.9852 102.5 65.5066 101.543C64.5495 99.1502 63.2732 96.9169 61.0399 95.3217C59.6042 94.205 58.1685 93.886 56.4137 94.205C54.659 94.6836 53.5423 96.2789 53.7018 98.1931C53.7018 98.8312 53.8613 99.3098 54.0209 99.9479C54.3399 101.224 54.1804 101.224 52.9042 101.543C50.3518 102.022 47.7994 102.341 45.247 102.979C43.8113 103.298 42.5351 104.096 41.4184 104.574C42.5351 105.85 43.4922 106.967 44.6089 108.084C45.247 108.722 45.2471 109.2 44.7685 109.838C44.2899 110.476 43.4923 110.636 42.8542 109.998C41.897 109.2 40.7803 108.243 39.8232 107.286C39.3446 106.967 39.1851 106.807 38.547 107.126C36.1541 108.243 33.2827 107.126 32.3256 104.734C31.847 103.617 32.0065 102.5 32.4851 101.543C32.6446 101.065 32.6446 100.905 32.3256 100.586C28.3375 96.9169 24.5089 93.0884 20.5208 89.4193C20.2017 89.1003 19.8827 89.1003 19.4041 89.2598C18.2874 89.8979 17.6493 89.7383 16.8517 88.9407C16.6922 88.7812 16.2136 88.6217 15.8946 88.7812C13.5017 89.5788 10.7898 88.1431 9.99219 85.4312C10.7898 85.4312 11.5874 85.4312 12.3851 85.4312C12.066 84.4741 11.7469 83.6765 11.4279 82.7193C10.7898 80.6455 11.9065 79.3693 14.1398 79.5288C15.097 79.6884 16.0541 80.0074 17.0112 80.1669C17.0112 79.3693 17.0112 78.7312 17.0112 77.9336C19.4041 78.0931 21.3184 80.6455 20.8398 83.1979C20.6803 83.6764 20.6803 84.155 21.1589 84.4741C21.9565 85.1122 21.9565 85.7503 21.797 86.7074C21.797 87.0265 21.9565 87.505 22.116 87.6646C26.1041 91.4931 29.9327 95.1622 33.9208 98.8312C34.2399 99.1503 34.7184 99.3098 35.197 99.3098C36.7922 99.1503 38.228 99.4693 39.5042 100.426C39.6637 100.586 39.9827 100.745 40.3017 100.745C43.3327 100.745 46.3637 100.426 49.0756 99.1502C49.2351 99.1502 49.3947 98.9907 49.5542 98.8312C49.3947 98.5122 49.2351 98.1931 49.0756 97.8741C47.6398 95.6407 46.5232 93.2479 46.0447 90.536C45.4066 85.9098 48.597 82.5598 53.0637 82.2408C53.5422 82.2408 54.0209 82.2408 54.4994 82.2408C54.4994 82.5598 54.4994 82.8788 54.4994 83.1979C54.4994 85.1121 54.4994 87.186 54.4994 89.1003C54.4994 91.3336 55.9351 92.9288 58.1685 93.2479C59.6042 93.4074 61.0399 93.4074 62.4756 93.2479C65.028 93.0884 67.1018 94.0455 68.5375 96.1193C69.0161 96.5979 69.1756 96.5979 69.6542 96.1193C71.0899 94.205 73.1638 93.2479 75.5566 93.4074C76.9924 93.4074 78.4281 93.4074 79.8638 93.4074C82.2567 93.2479 83.6924 91.6527 83.8519 89.2598C83.8519 87.186 83.8519 85.2717 83.8519 83.1979C83.8519 82.5598 84.0114 82.2407 84.6495 82.4002C85.7662 82.5598 86.7233 82.7193 87.84 83.0384C91.5091 84.3146 92.7852 87.9836 92.3067 91.3336C91.9876 93.7264 90.7114 95.9598 89.4353 98.0336C88.6376 99.1503 88.6376 99.3098 90.0733 99.7884C92.3066 100.746 94.6995 100.905 97.0924 101.065C97.4114 101.065 97.7305 100.586 97.89 100.267C98.3686 98.8312 99.1662 97.7145 100.442 96.9169C100.921 96.5979 101.08 96.5979 101.559 96.9169C102.516 97.7145 103.473 98.3526 104.43 99.1502C104.909 99.6288 105.388 99.6288 105.866 99.1502C106.823 98.3526 107.781 97.7145 108.578 96.9169C109.057 96.4383 109.376 96.5979 109.854 96.9169C112.088 98.8312 113.204 101.065 112.566 104.095C111.928 106.967 109.376 109.041 106.504 109.519C103.792 109.998 101.24 109.2 99.4853 107.126C97.7305 105.212 95.6566 103.936 93.2638 103.457C90.8709 102.819 88.3186 102.5 85.9257 102.181C84.9686 102.022 84.809 101.862 84.9685 100.745C85.128 99.7883 85.2876 98.8312 85.2876 98.0336C84.809 95.1622 81.9376 93.886 79.0662 95.3217C77.79 95.9598 76.6733 97.0765 75.7161 98.1931C74.759 99.4693 74.1209 101.065 73.3233 102.5C73.0042 103.138 73.4828 103.298 73.9614 103.457C76.5138 104.415 78.9066 105.212 81.2995 106.329C84.1709 107.605 86.8829 109.519 89.1162 112.072C89.2757 112.231 89.2757 112.231 89.4353 112.391C91.8281 115.262 90.5519 118.772 86.8828 119.729C86.2447 119.888 86.2447 119.569 86.0852 119.091C85.128 115.9 83.3733 113.029 80.9804 110.636C78.7471 108.403 76.1947 106.648 73.1638 105.691C72.8447 105.531 72.2066 105.691 72.0471 105.85C71.728 106.329 72.2066 106.648 72.6852 106.967C77.1519 109.36 80.3424 112.869 81.9376 117.815C82.7352 119.888 82.2566 121.324 80.5018 122.76C79.8637 123.238 79.2257 123.717 78.428 124.036C77.6304 124.515 77.4709 124.355 77.4709 123.398C77.3114 120.526 76.6732 117.815 75.397 115.262C74.4399 113.348 73.4828 111.593 72.3661 109.838C72.0471 109.36 71.5685 109.041 71.2495 108.722C71.0899 108.722 71.0899 108.881 70.9304 108.881C70.7709 108.243 70.9304 109.679 71.2495 111.115C72.0471 114.305 73.0042 117.336 73.8018 120.526C73.9613 121.165 74.1209 121.962 74.2805 122.6C74.5995 124.515 73.3233 125.95 71.8876 127.067C71.09 127.705 71.2495 128.184 70.2924 128.184C69.6543 127.865 69.6543 127.546 69.4947 127.546Z" fill="#84DAF5" stroke="#0587D6" stroke-width="2.39286" stroke-miterlimit="10"/>
<path d="M6.64561 40.2855C6.80513 39.4879 6.80515 39.0093 6.96467 38.3712C6.96467 38.0522 7.12417 37.8926 7.28369 37.5736C7.60274 37.7331 7.92179 37.7331 8.08131 38.0521C10.4742 40.126 12.7075 42.1997 15.1004 44.114C19.248 46.9855 23.7147 49.2188 28.6599 50.3355C28.979 50.495 29.298 50.495 29.6171 50.495C30.2552 49.2188 30.0957 48.5807 28.979 47.7831C26.2671 46.0283 23.3956 44.4331 20.8432 42.6783C17.4932 40.2855 14.4623 37.5736 12.867 33.5855C10.9527 28.9593 11.4314 24.6522 14.9409 20.6641C15.1004 20.9831 15.4194 21.1426 15.579 21.4617C18.929 26.5664 22.279 31.5117 26.2671 36.1378C31.2123 41.8807 36.1576 47.4641 42.5386 51.6117C43.0171 51.9307 43.4957 52.2498 42.8576 53.0474C40.6243 55.2807 39.8266 58.1521 41.1028 61.1831C42.379 64.3736 44.9314 65.9688 48.2814 66.2879C50.3552 66.6069 52.4291 66.2879 54.5029 65.8093C55.141 65.6498 55.3005 65.8093 55.3005 66.4474C55.3005 67.564 55.3005 68.6807 55.3005 69.7974C55.3005 72.3498 55.3005 74.9022 55.3005 77.4545C55.3005 77.6141 55.3005 77.7736 55.3005 78.0926C54.9814 77.6141 54.8219 77.4545 54.6623 77.1355C53.2266 74.2641 50.6743 72.9879 47.6433 72.5093C46.0481 72.1903 46.0481 72.1902 45.729 73.7855C45.2505 76.3379 44.4528 78.8902 43.3362 81.1236C42.06 83.5164 40.1457 85.1116 37.4338 85.5902C35.5195 85.9093 33.7647 85.4307 32.1695 83.995C32.6481 83.6759 32.9671 83.3569 33.4457 83.0379C36.6361 80.9641 39.1885 78.4117 40.9433 75.0617C41.4219 74.2641 41.5814 73.3069 41.9004 72.3498C42.0599 71.7117 41.9005 71.5521 41.2624 71.2331C40.7838 71.0736 40.3052 70.7545 39.9862 71.3926C38.5504 73.6259 36.9552 75.5403 35.0409 77.295C32.9671 79.0498 30.7337 80.326 28.0218 80.4855C25.4694 80.4855 23.3956 79.6879 21.8004 77.295C22.1195 77.1355 22.4385 76.9759 22.7576 76.9759C27.2242 76.0188 31.3719 74.4236 34.7219 71.0736C35.36 70.595 35.8385 69.7974 36.3171 69.3188C36.6362 68.8403 36.7957 68.5212 36.3171 67.8831C35.8385 67.4045 35.36 67.4045 34.7219 67.7236C32.8076 68.8403 31.0528 69.9569 29.1385 70.9141C26.1076 72.5093 23.0766 73.626 19.5671 73.1474C18.2909 72.9879 17.0147 72.6688 15.898 72.0307C13.9837 71.2331 13.1861 69.4783 12.867 67.5641C12.7075 67.0855 13.0266 66.926 13.5051 66.926C14.3027 66.926 15.1004 66.926 15.898 66.926C21.3218 66.926 26.7457 65.9688 31.6909 63.7355C32.6481 63.2569 32.8076 63.0974 32.1695 62.1403C31.8504 61.6617 31.5314 61.6617 31.0528 61.6617C27.8623 62.1402 24.8314 62.7783 21.6409 63.2569C18.929 63.5759 16.3766 63.7355 13.6647 62.9379C9.83608 61.8212 7.60274 59.1093 7.28369 55.1212C7.28369 54.6426 7.28369 54.1641 7.28369 53.526C7.60274 53.6855 7.92179 53.6855 8.08131 53.845C14.9409 56.8759 22.1194 57.8331 29.4575 57.195C29.7766 57.195 30.4147 57.195 30.2552 56.5569C30.0956 56.0783 30.4147 55.2807 29.4575 55.1212C26.5861 54.6426 23.7147 54.3236 21.0028 53.845C17.8123 53.2069 14.6218 52.4093 11.7504 50.8141C8.87896 49.2188 6.96464 46.6664 6.48607 43.3164C6.32655 43.4759 6.64561 39.4879 6.64561 39.6474" fill="#84DAF5"/>
<path d="M6.64561 40.2855C6.80513 39.4879 6.80515 39.0093 6.96467 38.3712C6.96467 38.0522 7.12417 37.8926 7.28369 37.5736C7.60274 37.7331 7.92179 37.7331 8.08131 38.0521C10.4742 40.126 12.7075 42.1997 15.1004 44.114C19.248 46.9855 23.7147 49.2188 28.6599 50.3355C28.979 50.495 29.298 50.495 29.6171 50.495C30.2552 49.2188 30.0957 48.5807 28.979 47.7831C26.2671 46.0283 23.3956 44.4331 20.8432 42.6783C17.4932 40.2855 14.4623 37.5736 12.867 33.5855C10.9527 28.9593 11.4314 24.6522 14.9409 20.6641C15.1004 20.9831 15.4194 21.1426 15.579 21.4617C18.929 26.5664 22.279 31.5117 26.2671 36.1378C31.2123 41.8807 36.1576 47.4641 42.5385 51.6117C43.0171 51.9307 43.4957 52.2498 42.8576 53.0474C40.6243 55.2807 39.8266 58.1521 41.1028 61.1831C42.379 64.3736 44.9314 65.9688 48.2814 66.2879C50.3552 66.6069 52.429 66.2879 54.5029 65.8093C55.141 65.6498 55.3005 65.8093 55.3005 66.4474C55.3005 67.564 55.3005 68.6807 55.3005 69.7974C55.3005 72.3498 55.3005 74.9022 55.3005 77.4545C55.3005 77.6141 55.3005 77.7736 55.3005 78.0926C54.9814 77.6141 54.8219 77.4545 54.6623 77.1355C53.2266 74.2641 50.6743 72.9879 47.6433 72.5093C46.0481 72.1903 46.0481 72.1902 45.729 73.7855C45.2505 76.3379 44.4528 78.8902 43.3362 81.1236C42.06 83.5164 40.1457 85.1117 37.4338 85.5902C35.5195 85.9093 33.7647 85.4307 32.1695 83.995C32.648 83.6759 32.9671 83.3569 33.4457 83.0379C36.6361 80.9641 39.1885 78.4117 40.9433 75.0617C41.4219 74.2641 41.5814 73.3069 41.9004 72.3498C42.0599 71.7117 41.9005 71.5521 41.2624 71.2331C40.7838 71.0736 40.3052 70.7545 39.9862 71.3926C38.5504 73.6259 36.9552 75.5403 35.0409 77.295C32.9671 79.0498 30.7337 80.326 28.0218 80.4855C25.4694 80.4855 23.3956 79.6879 21.8004 77.295C22.1195 77.1355 22.4385 76.9759 22.7576 76.9759C27.2242 76.0188 31.3719 74.4236 34.7219 71.0736C35.36 70.595 35.8385 69.7974 36.3171 69.3188C36.6362 68.8403 36.7957 68.5212 36.3171 67.8831C35.8385 67.4045 35.36 67.4045 34.7219 67.7236C32.8076 68.8403 31.0528 69.9569 29.1385 70.9141C26.1076 72.5093 23.0766 73.626 19.5671 73.1474C18.2909 72.9879 17.0147 72.6688 15.898 72.0307C13.9837 71.2331 13.1861 69.4783 12.867 67.5641C12.7075 67.0855 13.0266 66.926 13.5051 66.926C14.3027 66.926 15.1004 66.926 15.898 66.926C21.3218 66.926 26.7457 65.9688 31.6909 63.7355C32.6481 63.2569 32.8076 63.0974 32.1695 62.1403C31.8504 61.6617 31.5314 61.6617 31.0528 61.6617C27.8623 62.1402 24.8314 62.7783 21.6409 63.2569C18.929 63.5759 16.3766 63.7355 13.6647 62.9379C9.83608 61.8212 7.60274 59.1093 7.28369 55.1212C7.28369 54.6426 7.28369 54.1641 7.28369 53.526C7.60274 53.6855 7.92179 53.6855 8.08131 53.845C14.9409 56.8759 22.1194 57.8331 29.4575 57.195C29.7766 57.195 30.4147 57.195 30.2552 56.5569C30.0956 56.0783 30.4147 55.2807 29.4575 55.1212C26.5861 54.6426 23.7147 54.3236 21.0028 53.845C17.8123 53.2069 14.6218 52.4093 11.7504 50.8141C8.87896 49.2188 6.96464 46.6664 6.48607 43.3164C6.32655 43.4759 6.64561 39.4879 6.64561 39.6474" stroke="#0587D6" stroke-width="2.39286" stroke-miterlimit="10"/>
<path d="M109.853 50.4955C117.989 48.5812 124.848 44.5931 130.751 38.6907C130.91 38.5312 131.07 38.3717 131.229 38.0526C132.027 37.255 132.187 37.255 132.506 38.3717C134.101 43.1574 132.027 48.4217 127.56 50.8145C124.37 52.5693 121.02 53.5264 117.351 54.005C114.958 54.3241 112.725 54.8027 110.332 55.1217C109.853 55.2812 109.215 55.1217 109.056 55.9193C108.896 56.8765 108.896 57.1955 110.013 57.1955C117.351 57.8336 124.37 56.8764 131.07 54.005C131.389 53.8455 131.548 53.8455 132.027 53.5265C132.027 54.1646 132.027 54.6431 132.027 55.1217C131.868 58.9503 129.794 61.6622 126.125 62.9384C124.21 63.5765 122.137 63.736 120.063 63.5764C116.075 63.4169 112.087 62.7788 108.258 61.8217C107.301 61.6622 107.141 61.9812 106.982 62.6193C106.663 63.4169 107.141 63.5765 107.62 63.736C111.289 65.3312 115.118 66.4479 119.106 66.7669C121.179 66.9264 123.413 66.9265 125.646 67.086C125.965 67.086 126.284 67.0859 126.603 67.2455C126.444 70.436 124.689 72.5098 121.339 73.1479C118.468 73.786 115.596 73.4669 112.884 72.1907C110.172 70.9145 107.46 69.3193 104.908 67.8836C104.27 67.5646 103.791 67.405 103.313 68.0431C102.675 68.6812 103.153 69.1598 103.472 69.6383C105.227 72.1907 107.62 73.9455 110.491 75.0622C112.565 76.0193 114.958 76.4979 117.032 77.2955C117.191 77.2955 117.51 77.455 117.829 77.6145C116.713 79.5288 115.118 80.486 113.044 80.6455C110.491 80.9646 108.098 80.1669 106.025 78.5717C103.472 76.8169 101.558 74.424 99.9627 72.0312C99.4841 71.2336 98.3675 71.2336 97.8889 71.8717C97.7294 72.0312 97.7294 72.3503 97.8889 72.6693C98.8461 76.3384 101.239 79.3693 104.11 81.6026C104.908 82.2407 105.865 82.8788 106.822 83.6765C106.982 83.836 107.141 83.9955 107.46 84.155C105.865 85.9098 102.994 86.3884 100.601 85.2717C98.527 84.3146 97.0913 82.8788 96.2937 80.6455C95.3365 78.2527 94.6984 75.8598 94.0603 73.4669C93.9008 72.6693 93.5818 72.5098 92.7841 72.5098C89.4341 72.9884 86.7222 74.105 85.127 77.2955C85.127 77.455 84.9674 77.6145 84.8079 77.7741C84.8079 77.6145 84.6484 77.455 84.6484 77.2955C84.6484 73.6265 84.6484 69.9574 84.6484 66.4479C84.6484 65.6502 84.9674 65.6502 85.6055 65.8098C87.9984 66.4479 90.3913 66.6074 92.7841 66.1288C98.208 65.1717 101.718 58.3122 97.4104 53.3669C97.0913 53.0479 96.9318 52.7288 96.6128 52.2502C108.418 43.955 117.032 32.7884 124.848 20.6646C126.763 22.4193 127.879 24.4931 128.039 27.0455C128.518 31.8312 126.763 35.6598 123.413 38.8503C119.744 42.3598 115.437 45.0717 110.97 47.6241C109.375 48.4217 109.215 49.2193 109.853 50.4955Z" fill="#84DAF5" stroke="#0587D6" stroke-width="2.39286" stroke-miterlimit="10"/>
<path d="M79.0644 36.7766C77.1502 35.66 75.5548 34.3838 74.5977 32.629C74.2786 31.9909 74.1191 31.3528 73.8001 30.5552C74.2786 30.5552 74.5977 30.5552 74.9168 30.7147C76.6715 31.0338 78.5859 31.3528 80.3406 31.5123C84.0097 31.6719 87.8383 31.5123 91.5073 31.8314C93.2621 31.9909 95.0168 32.31 96.7716 32.7885C99.8026 33.7457 100.6 37.5743 98.5263 39.9671C98.3668 39.6481 98.2073 39.4885 98.0478 39.1695C97.2501 38.0528 96.1335 37.7337 94.8573 37.7337C89.2739 37.4147 85.4453 40.2862 82.5739 44.5933C81.1382 46.8266 80.0216 49.379 79.8621 52.0909C79.543 55.4409 80.3406 58.4719 82.893 60.7052C82.893 60.7052 83.0526 60.8647 83.0526 61.0242C74.2787 61.0242 65.6644 61.0242 56.7311 61.0242C57.2096 60.5457 57.6882 60.2266 58.0072 59.7481C59.9215 57.6743 60.5596 54.9623 60.2405 52.2504C59.4429 45.7099 56.2524 41.0838 50.1905 38.3719C48.4357 37.5743 46.681 37.5742 44.7667 37.7337C43.4906 37.8933 42.3738 38.3719 41.7358 39.4885C41.7358 39.648 41.5762 39.6481 41.4167 39.8076H41.2572C39.0239 36.4576 40.4596 33.1076 43.9691 32.4695C46.362 31.9909 48.9143 31.8314 51.4667 31.6719C53.381 31.5123 55.4549 31.5123 57.5287 31.6719C60.2406 31.6719 62.9525 31.6719 65.5049 30.8742C65.6644 30.8742 65.8239 30.8742 65.9834 30.8742C65.3453 33.9052 63.2715 35.66 60.8787 37.2552C66.3025 42.679 68.8548 49.2195 69.812 56.7171C69.812 56.8766 69.9715 56.8766 69.9715 56.7171C71.0882 48.9005 73.4811 42.0409 79.0644 36.7766Z" fill="#84DAF5" stroke="#0587D6" stroke-width="2.39286" stroke-miterlimit="10"/>
<path d="M82.8974 26.7263C82.5784 25.6096 82.0998 24.493 81.9403 23.3763C81.6213 21.6215 82.8975 20.1858 84.6522 20.1858C84.9713 20.1858 85.4498 20.3454 85.7688 20.6644C86.5665 21.462 87.5237 22.2597 88.3213 23.0573C89.1189 22.2597 89.9165 21.6215 90.7141 20.9834C91.8308 20.0263 93.2665 20.1858 94.2237 21.3025C94.8618 22.2596 95.0212 23.3763 94.5427 24.3334C94.0641 25.4501 93.4261 26.5668 92.6285 27.6835C92.4689 27.843 92.1499 28.0025 91.8308 28.0025C88.4808 28.0025 84.9713 28.0025 81.6212 27.6835C77.4736 27.2049 74.7617 24.812 73.4855 20.824C73.326 20.1859 73.007 20.0263 72.3689 20.0263C70.6141 20.0263 68.6998 20.0263 66.945 20.0263C66.4664 20.0263 66.1474 20.1858 65.9879 20.6644C64.3927 25.2906 61.0427 27.3644 56.7355 27.6835C53.8641 27.843 50.9926 27.843 48.2806 27.843C47.6426 27.843 47.164 27.6835 46.6854 27.0454C45.8878 25.7692 45.0902 24.493 44.9307 23.0573C44.7712 21.7811 45.4093 20.8239 46.3664 20.1858C47.4831 19.7072 47.8022 19.7073 48.7593 20.5049C49.3974 21.143 50.0355 21.6216 50.514 22.2597C50.9926 22.7382 51.3117 22.5787 51.6307 22.2597C52.2688 21.7811 52.7473 21.143 53.3854 20.6644C54.6616 19.5478 56.576 20.0263 57.2141 21.6216C57.6926 23.0573 57.214 24.3335 56.5759 25.6097C56.4164 25.9287 56.2569 26.0882 56.0974 26.5668C56.5759 26.5668 56.895 26.5668 57.3735 26.5668C60.245 25.6096 62.4783 23.8549 63.4354 20.9834C63.595 20.3453 63.595 20.0263 63.276 19.3882C61.9998 17.3144 60.7236 15.2406 60.4045 12.8478C60.0855 10.2954 62.1593 8.06202 64.7117 8.38107C65.0308 8.38107 65.3498 8.70014 65.5093 8.85967C66.7855 10.2954 67.9022 11.7311 69.1784 13.1668C69.6569 13.8049 69.976 13.8049 70.4545 13.1668C71.5712 11.7311 72.8474 10.2954 74.1236 8.85967C74.2831 8.70014 74.6022 8.38107 74.9212 8.38107C77.9522 8.38107 79.707 10.2954 79.2284 13.1668C78.7498 15.5596 77.6332 17.4739 76.357 19.3882C76.1974 19.7072 76.0379 20.1858 76.0379 20.5049C76.5165 23.6954 80.026 26.7263 82.8974 26.7263Z" fill="#84DAF5" stroke="#0587D6" stroke-width="2.39286" stroke-miterlimit="10"/>
<path d="M32.8076 32.3096C32.8076 31.6715 32.8076 31.1929 32.8076 30.7143C32.8076 29.9167 32.4886 29.4382 31.5315 29.5977C30.5743 29.9167 29.4577 30.2358 28.5005 30.5548C28.5005 30.2358 28.66 29.7572 28.66 29.2786C28.979 27.6834 28.66 26.2477 27.5434 25.131C27.0648 24.6524 26.5862 24.0143 26.2671 23.5358C25.4695 22.2596 25.7886 21.1429 27.2243 20.6644C28.1814 20.3453 29.2981 20.1858 30.2552 20.0263C31.691 19.8667 32.8076 19.2286 33.7648 18.2715C34.4029 17.4739 35.2005 16.8358 35.9981 16.0382C36.4767 15.5596 36.9553 15.2405 37.5934 14.9215C38.5505 14.4429 39.3481 14.6024 39.9862 15.5596C40.1458 15.8786 40.3053 16.0381 40.4648 16.3572C40.9434 17.1548 40.9433 17.7929 40.3052 18.5905C39.0291 20.1858 38.5505 21.9405 39.3481 23.8548C40.1458 25.7691 41.5815 26.8858 43.6553 27.2048C43.8148 27.2048 43.9743 27.2048 44.1339 27.3643C44.2934 27.5238 44.4529 27.6834 44.6124 27.8429C44.4529 28.0024 44.2934 28.162 43.9744 28.0025C40.6244 27.6834 37.4338 25.7691 36.9553 21.9405C36.9553 21.1429 37.1148 20.5048 36.9553 19.7072C36.9553 19.5477 36.6362 19.0691 36.4767 19.0691C34.8815 19.0691 33.4457 19.0691 32.01 20.0263C30.4148 21.1429 29.9362 22.8977 31.0529 24.6524C31.3719 25.131 31.691 25.6096 32.1696 26.0882C32.6481 26.7262 33.2862 27.3644 33.7648 28.0025C35.041 29.7572 34.7219 31.0334 32.8076 32.3096Z" fill="#0587D6" stroke="#0587D6" stroke-width="2.39286" stroke-miterlimit="10"/>
<path d="M110.976 30.7147C110.338 30.3956 109.54 30.0766 108.902 29.7575C107.147 29.1194 106.509 29.7575 106.669 31.6718C106.669 31.8313 106.669 31.9908 106.669 32.1504C105.552 31.8313 104.754 30.5552 105.073 29.279C105.392 28.4813 105.871 27.8433 106.35 27.2052C106.828 26.5671 107.626 25.929 108.104 25.1313C109.54 23.217 109.221 20.9837 106.988 19.8671C105.712 19.229 104.276 19.229 103 18.9099C102.521 18.7504 102.361 19.229 102.521 19.548C102.521 20.3456 102.681 21.1432 102.681 21.9409C102.362 24.3337 101.085 26.0885 98.852 27.0456C97.8948 27.5242 96.7781 27.6837 95.6615 27.8433C95.502 27.8433 95.3425 27.6837 95.0234 27.6837C95.183 27.5242 95.1829 27.2052 95.502 27.2052C95.821 27.0456 96.2996 27.0456 96.6187 27.0456C100.607 26.0885 101.883 21.7814 99.4901 18.4314C99.171 17.9528 98.6924 17.3147 98.852 16.9956C99.171 16.198 99.8091 15.4004 100.447 14.7623C100.766 14.4432 101.564 14.6028 102.042 14.9218C102.84 15.4004 103.478 16.0385 104.116 16.6766C104.595 16.9956 104.914 17.4742 105.233 17.9528C106.509 19.3885 107.945 20.0266 109.859 20.1861C110.657 20.3456 111.454 20.3456 112.092 20.6647C113.528 21.1433 113.847 22.2599 113.05 23.3766C112.89 23.5361 112.731 23.6956 112.571 24.0147C110.338 26.8861 110.178 27.2051 110.976 30.7147Z" fill="#0587D6" stroke="#0587D6" stroke-width="2.39286" stroke-miterlimit="10"/>
<path d="M147.821 134.564V92.45C147.821 91.6524 146.385 91.1738 145.268 91.1738H86.4039C84.8087 91.1738 83.8516 91.9715 83.8516 92.45V134.564C83.8516 135.362 85.2872 135.84 86.4039 135.84H145.268C146.385 136.16 147.821 135.521 147.821 134.564Z" stroke="white" stroke-width="8.46195" stroke-miterlimit="79.8403" stroke-linecap="round" stroke-linejoin="round"/>
<path fill-rule="evenodd" clip-rule="evenodd" d="M127.403 90.2168H103.793V83.3572C103.793 82.081 104.75 80.9644 106.026 80.9644H125.169C126.286 80.9644 127.403 81.9215 127.403 83.3572V90.2168Z" fill="white" stroke="white" stroke-width="8.63838" stroke-miterlimit="10" stroke-linecap="round"/>
<path fill-rule="evenodd" clip-rule="evenodd" d="M147.821 134.564V92.45C147.821 91.6524 146.385 91.1738 145.268 91.1738H86.4039C84.8087 91.1738 83.8516 91.9715 83.8516 92.45V134.564C83.8516 135.362 85.2872 135.84 86.4039 135.84H145.268C146.385 136.16 147.821 135.521 147.821 134.564Z" fill="white"/>
<path d="M147.819 91.812H85.2852V136H147.819V91.812Z" fill="#85DBF6"/>
<path d="M147.821 134.564V92.45C147.821 91.6524 146.385 91.1738 145.268 91.1738H86.4039C84.8087 91.1738 83.8516 91.9715 83.8516 92.45V134.564C83.8516 135.362 85.2872 135.84 86.4039 135.84H145.268C146.385 136.16 147.821 135.521 147.821 134.564Z" stroke="#0587D6" stroke-width="2.81943" stroke-miterlimit="79.8403" stroke-linecap="round" stroke-linejoin="round"/>
<path fill-rule="evenodd" clip-rule="evenodd" d="M126.286 90.0571H105.707V83.9952C105.707 82.8785 106.505 81.9214 107.781 81.9214H124.531C125.488 81.9214 126.605 82.8785 126.605 83.9952V90.0571H126.286Z" fill="white" stroke="#0587D6" stroke-width="3.35543" stroke-miterlimit="10" stroke-linecap="round"/>
<path d="M85.125 100.745L87.8369 102.659C104.427 114.624 126.92 114.783 143.511 102.819L146.382 100.745" stroke="#0587D6" stroke-width="1.58328" stroke-miterlimit="10" stroke-linecap="round"/>
<path d="M120.7 108.562H112.086V115.422H120.7V108.562Z" fill="#0587D6" stroke="#0587D6" stroke-width="1.58328" stroke-miterlimit="10" stroke-linecap="round"/>
</svg>
