<svg width="157" height="139" viewBox="0 0 157 139" fill="none" xmlns="http://www.w3.org/2000/svg">
<path d="M68.6257 136C105.541 136 135.466 106.003 135.466 69C135.466 31.9969 105.541 2 68.6257 2C31.7107 2 1.78516 31.9969 1.78516 69C1.78516 106.003 31.7107 136 68.6257 136Z" stroke="#0587D6" stroke-width="2.72898" stroke-miterlimit="79.8403" stroke-linecap="round" stroke-linejoin="round"/>
<path d="M79.7895 92.4501C76.28 92.4501 71.6538 93.5667 69.4204 95.3215C66.7085 97.5548 62.2419 92.4501 58.5728 92.4501C58.2537 92.4501 56.818 92.45 55.5418 91.1738C54.7442 90.3762 54.2656 89.2596 54.2656 88.1429V61.5024H83.9372V88.3024C84.0967 90.5358 82.0228 92.4501 79.7895 92.4501Z" fill="white" stroke="white" stroke-width="1.59524" stroke-miterlimit="10"/>
<path d="M69.1002 127.546C68.7811 127.386 68.6216 127.067 68.3025 126.907C64.9525 124.993 64.3145 123.876 64.9526 120.048C65.5907 116.857 66.3883 113.667 67.1859 110.476C67.3455 109.679 67.5049 108.722 67.5049 107.765C65.2716 109.679 64.1549 112.231 63.0383 114.943C61.9216 117.655 61.2835 120.367 61.124 123.398C59.2097 122.76 57.774 121.962 56.8169 120.207C56.1788 119.091 56.4978 117.974 56.8169 116.857C58.4121 112.231 61.443 108.722 65.9097 106.169C66.0692 106.01 66.3883 106.01 66.5478 105.691C66.7073 105.531 66.7073 105.372 66.7073 105.212C66.7073 105.053 66.3883 104.893 66.2287 104.893C65.9097 104.893 65.5907 104.893 65.2716 105.053C59.0502 107.605 54.5835 111.912 52.5097 118.453C52.3502 118.931 52.1907 119.091 51.7121 118.931C50.2764 118.453 49.1597 117.655 48.2025 116.219C47.5644 115.103 47.7239 113.986 48.362 112.869C49.3192 111.274 50.7549 109.838 52.1906 108.722C55.8597 106.01 60.0073 104.096 64.474 102.819C65.5907 102.5 65.5906 102.5 65.1121 101.543C64.1549 99.1502 62.8787 96.9169 60.6454 95.3217C59.2097 94.205 57.774 93.886 56.0193 94.205C54.2645 94.6836 53.1478 96.2789 53.3073 98.1931C53.3073 98.8312 53.4669 99.3098 53.6264 99.9479C53.9454 101.224 53.7859 101.224 52.5097 101.543C49.9573 102.022 47.4049 102.341 44.8526 102.979C43.4168 103.298 42.1406 104.096 41.0239 104.574C42.1406 105.85 43.0978 106.967 44.2144 108.084C44.8525 108.722 44.8525 109.2 44.3739 109.838C43.8953 110.476 43.0978 110.636 42.4597 109.998C41.5026 109.2 40.3858 108.243 39.4287 107.286C38.9501 106.967 38.7906 106.807 38.1525 107.126C35.7597 108.243 32.8882 107.126 31.931 104.734C31.4525 103.617 31.6121 102.5 32.0906 101.543C32.2501 101.065 32.2501 100.905 31.931 100.586C27.9429 96.9169 24.1144 93.0884 20.1263 89.4193C19.8073 89.1003 19.4882 89.1003 19.0096 89.2598C17.893 89.8979 17.2548 89.7383 16.4572 88.9407C16.2977 88.7812 15.8191 88.6217 15.5001 88.7812C13.1072 89.5788 10.3953 88.1431 9.59766 85.4312C10.3953 85.4312 11.1929 85.4312 11.9905 85.4312C11.6715 84.4741 11.3525 83.6765 11.0334 82.7193C10.3953 80.6455 11.512 79.3693 13.7453 79.5288C14.7025 79.6884 15.6596 80.0074 16.6168 80.1669C16.6168 79.3693 16.6168 78.7312 16.6168 77.9336C19.0096 78.0931 20.9239 80.6455 20.4453 83.1979C20.2858 83.6764 20.2858 84.155 20.7643 84.4741C21.562 85.1122 21.562 85.7503 21.4025 86.7074C21.4025 87.0265 21.562 87.505 21.7216 87.6646C25.7097 91.4931 29.5382 95.1622 33.5263 98.8312C33.8453 99.1503 34.3239 99.3098 34.8025 99.3098C36.3977 99.1503 37.8334 99.4693 39.1096 100.426C39.2692 100.586 39.5882 100.745 39.9073 100.745C42.9382 100.745 45.9692 100.426 48.6811 99.1502C48.8406 99.1502 49.0001 98.9907 49.1596 98.8312C49.0001 98.5122 48.8406 98.1931 48.6811 97.8741C47.2454 95.6407 46.1288 93.2479 45.6502 90.536C45.0121 85.9098 48.2025 82.5598 52.6692 82.2408C53.1478 82.2408 53.6264 82.2408 54.1049 82.2408C54.1049 82.5598 54.1049 82.8788 54.1049 83.1979C54.1049 85.1121 54.1049 87.186 54.1049 89.1003C54.1049 91.3336 55.5406 92.9288 57.774 93.2479C59.2097 93.4074 60.6454 93.4074 62.0812 93.2479C64.6335 93.0884 66.7073 94.0455 68.1431 96.1193C68.6216 96.5979 68.7812 96.5979 69.2597 96.1193C70.6955 94.205 72.7693 93.2479 75.1622 93.4074C76.5979 93.4074 78.0335 93.4074 79.4692 93.4074C81.8621 93.2479 83.2978 91.6527 83.4573 89.2598C83.4573 87.186 83.4573 85.2717 83.4573 83.1979C83.4573 82.5598 83.6169 82.2407 84.255 82.4002C85.3716 82.5598 86.3288 82.7193 87.4454 83.0384C91.1145 84.3146 92.3908 87.9836 91.9122 91.3336C91.5931 93.7264 90.3169 95.9598 89.0407 98.0336C88.2431 99.1503 88.2431 99.3098 89.6788 99.7884C91.9122 100.746 94.3051 100.905 96.6979 101.065C97.017 101.065 97.336 100.586 97.4955 100.267C97.9741 98.8312 98.7717 97.7145 100.048 96.9169C100.526 96.5979 100.686 96.5979 101.165 96.9169C102.122 97.7145 103.079 98.3526 104.036 99.1502C104.515 99.6288 104.993 99.6288 105.472 99.1502C106.429 98.3526 107.386 97.7145 108.184 96.9169C108.662 96.4383 108.981 96.5979 109.46 96.9169C111.693 98.8312 112.81 101.065 112.172 104.095C111.534 106.967 108.981 109.041 106.11 109.519C103.398 109.998 100.846 109.2 99.0908 107.126C97.336 105.212 95.2622 103.936 92.8693 103.457C90.4764 102.819 87.9241 102.5 85.5312 102.181C84.5741 102.022 84.4145 101.862 84.574 100.745C84.7336 99.7883 84.8931 98.8312 84.8931 98.0336C84.4145 95.1622 81.543 93.886 78.6716 95.3217C77.3954 95.9598 76.2788 97.0765 75.3216 98.1931C74.3645 99.4693 73.7264 101.065 72.9288 102.5C72.6097 103.138 73.0883 103.298 73.5669 103.457C76.1193 104.415 78.5121 105.212 80.905 106.329C83.7764 107.605 86.4884 109.519 88.7217 112.072C88.8812 112.231 88.8812 112.231 89.0407 112.391C91.4335 115.262 90.1574 118.772 86.4883 119.729C85.8502 119.888 85.8502 119.569 85.6907 119.091C84.7336 115.9 82.9788 113.029 80.5859 110.636C78.3526 108.403 75.8003 106.648 72.7693 105.691C72.4502 105.531 71.8121 105.691 71.6526 105.85C71.3336 106.329 71.8121 106.648 72.2906 106.967C76.7573 109.36 79.9479 112.869 81.5431 117.815C82.3407 119.888 81.8621 121.324 80.1074 122.76C79.4693 123.238 78.8312 123.717 78.0336 124.036C77.236 124.515 77.0764 124.355 77.0764 123.398C76.9168 120.526 76.2788 117.815 75.0026 115.262C74.0454 113.348 73.0883 111.593 71.9717 109.838C71.6526 109.36 71.174 109.041 70.855 108.722C70.6955 108.722 70.6954 108.881 70.5359 108.881C70.6954 109.679 70.6955 110.476 70.855 111.115C71.6526 114.305 72.2906 117.336 73.0883 120.526C73.2478 121.165 73.2478 121.803 73.4073 122.441C73.7264 124.355 72.9287 125.791 71.493 126.907C70.6954 127.546 71.174 127.226 70.2169 127.705C68.4621 127.705 69.2597 127.546 69.1002 127.546Z" fill="white" stroke="white" stroke-width="6.38096" stroke-miterlimit="10"/>
<path d="M6.25112 40.2855C6.41064 39.4879 6.41066 39.0093 6.57019 38.3712C6.57019 38.0522 6.72963 37.8926 6.88916 37.5736C7.2082 37.7331 7.52725 37.7331 7.68678 38.0521C10.0796 40.126 12.313 42.1997 14.7059 44.114C18.8535 46.9855 23.3202 49.2188 28.2654 50.3355C28.5845 50.495 28.9035 50.495 29.2225 50.495C29.8606 49.2188 29.7012 48.5807 28.5845 47.7831C25.8726 46.0283 23.0011 44.4331 20.4487 42.6783C17.0987 40.2855 14.0677 37.5736 12.4725 33.5855C10.5582 28.9593 11.0369 24.6522 14.5464 20.6641C14.7059 20.9831 15.0249 21.1426 15.1844 21.4617C18.5344 26.5664 21.8845 31.5117 25.8726 36.1378C30.8178 41.8807 35.7631 47.4641 42.1441 51.6117C42.6226 51.9307 43.1012 52.2498 42.4631 53.0474C40.2298 55.2807 39.4321 58.1521 40.7083 61.1831C41.9845 64.3736 44.5369 65.9688 47.8869 66.2879C49.9607 66.6069 52.0346 66.2879 54.1084 65.8093C54.7465 65.6498 54.906 65.8093 54.906 66.4474C54.906 67.564 54.906 68.6807 54.906 69.7974C54.906 72.3498 54.906 74.9022 54.906 77.4545C54.906 77.6141 54.906 77.7736 54.906 78.0926C54.5869 77.6141 54.4274 77.4545 54.2679 77.1355C52.8321 74.2641 50.2798 72.9879 47.2489 72.5093C45.6536 72.1903 45.6536 72.1902 45.3345 73.7855C44.856 76.3379 44.0583 78.8902 42.9417 81.1236C41.6655 83.5164 39.7512 85.1116 37.0393 85.5902C35.125 85.9093 33.3702 85.4307 31.775 83.995C32.2536 83.6759 32.5726 83.3569 33.0512 83.0379C36.2416 80.9641 38.7941 78.4117 40.5488 75.0617C41.0274 74.2641 41.1869 73.3069 41.5059 72.3498C41.6655 71.7117 41.506 71.5521 40.8679 71.2331C40.3893 71.0736 39.9107 70.7545 39.5916 71.3926C38.1559 73.6259 36.5607 75.5403 34.6464 77.295C32.5726 79.0498 30.3392 80.326 27.6273 80.4855C25.0749 80.4855 23.0012 79.6879 21.4059 77.295C21.725 77.1355 22.044 76.9759 22.363 76.9759C26.8297 76.0188 30.9773 74.4236 34.3273 71.0736C34.9654 70.595 35.444 69.7974 35.9226 69.3188C36.2416 68.8403 36.4012 68.5212 35.9226 67.8831C35.444 67.4045 34.9654 67.4045 34.3273 67.7236C32.413 68.8403 30.6583 69.9569 28.744 70.9141C25.713 72.5093 22.6821 73.626 19.1725 73.1474C17.8963 72.9879 16.6202 72.6688 15.5035 72.0307C13.5892 71.2331 12.7916 69.4783 12.4725 67.5641C12.313 67.0855 12.6321 66.926 13.1106 66.926C13.9083 66.926 14.7059 66.926 15.5035 66.926C20.9273 66.926 26.3512 65.9688 31.2964 63.7355C32.2536 63.2569 32.4131 63.0974 31.775 62.1403C31.4559 61.6617 31.1369 61.6617 30.6583 61.6617C27.4678 62.1402 24.4368 62.7783 21.2463 63.2569C18.5344 63.5759 15.982 63.7355 13.2701 62.9379C9.44154 61.8212 7.2082 59.1093 6.88916 55.1212C6.88916 54.6426 6.88916 54.1641 6.88916 53.526C7.2082 53.6855 7.52725 53.6855 7.68678 53.845C14.5463 56.8759 21.7249 57.8331 29.0631 57.195C29.3821 57.195 30.0202 57.195 29.8607 56.5569C29.7012 56.0783 30.0202 55.2807 29.0631 55.1212C26.1916 54.6426 23.3202 54.3236 20.6083 53.845C17.4178 53.2069 14.2273 52.4093 11.3559 50.8141C8.48448 49.2188 6.57011 46.6664 6.09154 43.3164C5.93201 43.4759 6.25112 39.4879 6.25112 39.6474" fill="white"/>
<path d="M6.25112 40.2855C6.41064 39.4879 6.41066 39.0093 6.57019 38.3712C6.57019 38.0522 6.72963 37.8926 6.88916 37.5736C7.20821 37.7331 7.52725 37.7331 7.68678 38.0521C10.0796 40.126 12.313 42.1997 14.7059 44.114C18.8535 46.9855 23.3202 49.2188 28.2654 50.3355C28.5845 50.495 28.9035 50.495 29.2225 50.495C29.8606 49.2188 29.7012 48.5807 28.5845 47.7831C25.8726 46.0283 23.0011 44.4331 20.4487 42.6783C17.0987 40.2855 14.0677 37.5736 12.4725 33.5855C10.5582 28.9593 11.0369 24.6522 14.5464 20.6641C14.7059 20.9831 15.0249 21.1426 15.1844 21.4617C18.5344 26.5664 21.8845 31.5117 25.8726 36.1378C30.8178 41.8807 35.7631 47.4641 42.1441 51.6117C42.6226 51.9307 43.1012 52.2498 42.4631 53.0474C40.2298 55.2807 39.4321 58.1521 40.7083 61.1831C41.9845 64.3736 44.5369 65.9688 47.8869 66.2879C49.9607 66.6069 52.0346 66.2879 54.1084 65.8093C54.7465 65.6498 54.906 65.8093 54.906 66.4474C54.906 67.564 54.906 68.6807 54.906 69.7974C54.906 72.3498 54.906 74.9022 54.906 77.4545C54.906 77.6141 54.906 77.7736 54.906 78.0926C54.5869 77.6141 54.4274 77.4545 54.2679 77.1355C52.8321 74.2641 50.2798 72.9879 47.2489 72.5093C45.6536 72.1903 45.6536 72.1902 45.3345 73.7855C44.856 76.3379 44.0584 78.8902 42.9417 81.1236C41.6655 83.5164 39.7512 85.1117 37.0393 85.5902C35.125 85.9093 33.3702 85.4307 31.775 83.995C32.2536 83.6759 32.5726 83.3569 33.0512 83.0379C36.2416 80.9641 38.7941 78.4117 40.5488 75.0617C41.0274 74.2641 41.1869 73.3069 41.5059 72.3498C41.6654 71.7117 41.506 71.5521 40.8679 71.2331C40.3893 71.0736 39.9107 70.7545 39.5916 71.3926C38.1559 73.6259 36.5607 75.5403 34.6464 77.295C32.5726 79.0498 30.3392 80.326 27.6273 80.4855C25.0749 80.4855 23.0012 79.6879 21.4059 77.295C21.725 77.1355 22.044 76.9759 22.363 76.9759C26.8297 76.0188 30.9773 74.4236 34.3273 71.0736C34.9654 70.595 35.444 69.7974 35.9226 69.3188C36.2416 68.8403 36.4012 68.5212 35.9226 67.8831C35.444 67.4045 34.9654 67.4045 34.3273 67.7236C32.413 68.8403 30.6583 69.9569 28.744 70.9141C25.713 72.5093 22.6821 73.626 19.1725 73.1474C17.8963 72.9879 16.6202 72.6688 15.5035 72.0307C13.5892 71.2331 12.7916 69.4783 12.4725 67.5641C12.313 67.0855 12.6321 66.926 13.1106 66.926C13.9083 66.926 14.7059 66.926 15.5035 66.926C20.9273 66.926 26.3512 65.9688 31.2964 63.7355C32.2536 63.2569 32.4131 63.0974 31.775 62.1403C31.4559 61.6617 31.1369 61.6617 30.6583 61.6617C27.4678 62.1402 24.4368 62.7783 21.2463 63.2569C18.5344 63.5759 15.982 63.7355 13.2701 62.9379C9.44154 61.8212 7.20821 59.1093 6.88916 55.1212C6.88916 54.6426 6.88916 54.1641 6.88916 53.526C7.20821 53.6855 7.52725 53.6855 7.68678 53.845C14.5463 56.8759 21.7249 57.8331 29.0631 57.195C29.3821 57.195 30.0202 57.195 29.8607 56.5569C29.7012 56.0783 30.0202 55.2807 29.0631 55.1212C26.1916 54.6426 23.3202 54.3236 20.6083 53.845C17.4178 53.2069 14.2273 52.4093 11.3559 50.8141C8.48448 49.2188 6.57011 46.6664 6.09154 43.3164C5.93201 43.4759 6.25112 39.4879 6.25112 39.6474" stroke="white" stroke-width="6.38096" stroke-miterlimit="10"/>
<path d="M109.463 50.4955C117.598 48.5812 124.458 44.5931 130.36 38.6907C130.52 38.5312 130.679 38.3717 130.839 38.0526C131.637 37.255 131.796 37.255 132.115 38.3717C133.71 43.1574 131.637 48.4217 127.17 50.8145C123.979 52.5693 120.629 53.5264 116.96 54.005C114.567 54.3241 112.334 54.8027 109.941 55.1217C109.463 55.2812 108.825 55.1217 108.665 55.9193C108.506 56.8765 108.506 57.1955 109.622 57.1955C116.96 57.8336 123.979 56.8764 130.679 54.005C130.998 53.8455 131.158 53.8455 131.637 53.5265C131.637 54.1646 131.637 54.6431 131.637 55.1217C131.477 58.9503 129.403 61.6622 125.734 62.9384C123.82 63.5765 121.746 63.736 119.672 63.5764C115.684 63.4169 111.696 62.7788 107.867 61.8217C106.91 61.6622 106.751 61.9812 106.591 62.6193C106.272 63.4169 106.751 63.5765 107.229 63.736C110.898 65.3312 114.727 66.4479 118.715 66.7669C120.789 66.9264 123.022 66.9265 125.256 67.086C125.575 67.086 125.894 67.0859 126.213 67.2455C126.053 70.436 124.298 72.5098 120.948 73.1479C118.077 73.786 115.206 73.4669 112.494 72.1907C109.782 70.9145 107.07 69.3193 104.517 67.8836C103.879 67.5646 103.401 67.405 102.922 68.0431C102.284 68.6812 102.763 69.1598 103.082 69.6383C104.837 72.1907 107.229 73.9455 110.101 75.0622C112.175 76.0193 114.567 76.4979 116.641 77.2955C116.801 77.2955 117.12 77.455 117.439 77.6145C116.322 79.5288 114.727 80.486 112.653 80.6455C110.101 80.9646 107.708 80.1669 105.634 78.5717C103.082 76.8169 101.167 74.424 99.5722 72.0312C99.0936 71.2336 97.977 71.2336 97.4984 71.8717C97.3389 72.0312 97.3389 72.3503 97.4984 72.6693C98.4555 76.3384 100.848 79.3693 103.72 81.6026C104.517 82.2407 105.475 82.8788 106.432 83.6765C106.591 83.836 106.751 83.9955 107.07 84.155C105.475 85.9098 102.603 86.3884 100.21 85.2717C98.1364 84.3146 96.7008 82.8788 95.9032 80.6455C94.946 78.2527 94.3079 75.8598 93.6698 73.4669C93.5103 72.6693 93.1912 72.5098 92.3936 72.5098C89.0436 72.9884 86.3317 74.105 84.7365 77.2955C84.7365 77.455 84.5769 77.6145 84.4174 77.7741C84.4174 77.6145 84.2578 77.455 84.2578 77.2955C84.2578 73.6265 84.2578 69.9574 84.2578 66.4479C84.2578 65.6502 84.5769 65.6502 85.215 65.8098C87.6079 66.4479 90.0007 66.6074 92.3936 66.1288C97.8174 65.1717 101.327 58.3122 97.0197 53.3669C96.7007 53.0479 96.5412 52.7288 96.2221 52.2502C108.027 43.955 116.641 32.7884 124.458 20.6646C126.372 22.4193 127.489 24.4931 127.648 27.0455C128.127 31.8312 126.372 35.6598 123.022 38.8503C119.353 42.3598 115.046 45.0717 110.579 47.6241C108.984 48.4217 108.825 49.2193 109.463 50.4955Z" fill="white" stroke="white" stroke-width="6.38096" stroke-miterlimit="10"/>
<path d="M78.6737 36.7766C76.7595 35.66 75.1642 34.3838 74.2071 32.629C73.888 31.9909 73.7285 31.3528 73.4095 30.5552C73.888 30.5552 74.2071 30.5552 74.3667 30.5552C76.281 30.8742 78.1952 31.1933 80.1095 31.3528C83.7786 31.5123 87.4477 31.3528 91.1167 31.6719C92.8715 31.8314 94.6262 32.1504 96.381 32.629C99.4119 33.5862 100.21 37.4147 98.1357 39.8076C97.9762 39.4885 97.8167 39.329 97.6572 39.01C96.8595 37.8933 95.7429 37.5743 94.4667 37.5743C88.8833 37.2552 85.0547 40.1266 82.1833 44.4338C80.7476 46.6671 79.6309 49.2195 79.4714 51.9314C79.1523 55.2814 79.95 58.3123 82.5024 60.5457C82.5024 60.5457 82.6619 60.7052 82.6619 60.8647C73.888 60.8647 65.2737 60.8647 56.3404 60.8647C56.8189 60.3861 57.2976 60.0671 57.6166 59.5885C59.5309 57.5147 60.169 54.8028 59.8499 52.0909C59.0523 45.5504 55.8618 40.9243 49.7999 38.2123C48.0451 37.4147 46.2903 37.4147 44.3761 37.5743C43.0999 37.7338 41.9832 38.2123 41.3452 39.329C41.3452 39.4885 41.1856 39.4885 41.0261 39.6481H40.8666C38.6333 36.2981 40.0689 32.948 43.5784 32.3099C45.8118 31.8314 48.0451 31.6719 50.2785 31.5123C52.8309 31.3528 55.5428 31.3528 58.0952 31.3528C60.4881 31.3528 62.7214 31.1933 64.9547 30.5552C65.1142 30.5552 65.2737 30.5552 65.4333 30.5552C64.7952 33.5861 62.7213 35.3409 60.3285 36.9361C65.9118 42.5195 68.4642 49.379 69.4214 57.0361C70.538 49.2195 72.9309 42.2005 78.6737 36.7766Z" fill="white" stroke="white" stroke-width="6.38096" stroke-miterlimit="10"/>
<path d="M82.5029 26.7263C82.1838 25.6096 81.7053 24.493 81.5458 23.3763C81.2267 21.6215 82.5028 20.1858 84.2576 20.1858C84.5767 20.1858 85.0553 20.3454 85.3743 20.6644C86.1719 21.462 87.1291 22.2597 87.9267 23.0573C88.7244 22.2597 89.522 21.6215 90.3196 20.9834C91.4363 20.0263 92.8719 20.1858 93.8291 21.3025C94.4672 22.2596 94.6267 23.3763 94.1481 24.3334C93.6696 25.4501 93.0314 26.5668 92.2338 27.6835C92.0743 27.843 91.7552 28.0025 91.4362 28.0025C88.0862 28.0025 84.5767 28.0025 81.2267 27.6835C77.0791 27.2049 74.3671 24.812 73.0909 20.824C72.9314 20.1859 72.6124 20.0263 71.9743 20.0263C70.2196 20.0263 68.3052 20.0263 66.5505 20.0263C66.0719 20.0263 65.7529 20.1858 65.5934 20.6644C63.9981 25.2906 60.648 27.3644 56.3409 27.6835C53.4694 27.843 50.598 27.843 47.8861 27.843C47.248 27.843 46.7695 27.6835 46.2909 27.0454C45.4933 25.7692 44.6957 24.493 44.5362 23.0573C44.3766 21.7811 45.0147 20.8239 45.9718 20.1858C47.0885 19.7072 47.4075 19.7073 48.3647 20.5049C49.0028 21.143 49.6409 21.6216 50.1195 22.2597C50.5981 22.7382 50.9171 22.5787 51.2362 22.2597C51.8743 21.7811 52.3528 21.143 52.9909 20.6644C54.2671 19.5478 56.1814 20.0263 56.8195 21.6216C57.2981 23.0573 56.8195 24.3335 56.1814 25.6097C56.0219 25.9287 55.8624 26.0882 55.7028 26.5668C56.1814 26.5668 56.5004 26.5668 56.979 26.5668C59.8505 25.6096 62.0838 23.8549 63.0409 20.9834C63.2004 20.3453 63.2005 20.0263 62.8814 19.3882C61.6052 17.3144 60.3291 15.2406 60.01 12.8478C59.691 10.2954 61.7647 8.06202 64.3171 8.38107C64.6361 8.38107 64.9552 8.70014 65.1147 8.85967C66.3909 10.2954 67.5077 11.7311 68.7838 13.1668C69.2624 13.8049 69.5814 13.8049 70.06 13.1668C71.1767 11.7311 72.4529 10.2954 73.7291 8.85967C73.8886 8.70014 74.2076 8.38107 74.5267 8.38107C77.5576 8.38107 79.3124 10.2954 78.8339 13.1668C78.3553 15.5596 77.2386 17.4739 75.9624 19.3882C75.8029 19.7072 75.6434 20.1858 75.6434 20.5049C76.1219 23.6954 79.6315 26.7263 82.5029 26.7263Z" fill="white" stroke="white" stroke-width="6.38096" stroke-miterlimit="10"/>
<path d="M32.4131 32.3096C32.4131 31.6715 32.4131 31.1929 32.4131 30.7143C32.4131 29.9167 32.094 29.4382 31.1369 29.5977C30.1798 29.9167 29.0631 30.2358 28.106 30.5548C28.106 30.2358 28.2655 29.7572 28.2655 29.2786C28.5845 27.6834 28.2655 26.2477 27.1488 25.131C26.6702 24.6524 26.1917 24.0143 25.8726 23.5358C25.075 22.2596 25.394 21.1429 26.8297 20.6644C27.7869 20.3453 28.9036 20.1858 29.8607 20.0263C31.2964 19.8667 32.4131 19.2286 33.3703 18.2715C34.0084 17.4739 34.8059 16.8358 35.6036 16.0382C36.0821 15.5596 36.5607 15.2405 37.1988 14.9215C38.1559 14.4429 38.9536 14.6024 39.5917 15.5596C39.7512 15.8786 39.9108 16.0381 40.0703 16.3572C40.5489 17.1548 40.5488 17.7929 39.9107 18.5905C38.6345 20.1858 38.156 21.9405 38.9536 23.8548C39.7512 25.7691 41.187 26.8858 43.2608 27.2048C43.4203 27.2048 43.5798 27.2048 43.7393 27.3643C43.8989 27.5238 44.0584 27.6834 44.2179 27.8429C44.0584 28.0024 43.8988 28.162 43.5798 28.0025C40.2298 27.6834 37.0393 25.7691 36.5608 21.9405C36.5608 21.1429 36.7203 20.5048 36.5608 19.7072C36.5608 19.5477 36.2417 19.0691 36.0822 19.0691C34.487 19.0691 33.0512 19.0691 31.6155 20.0263C30.0202 21.1429 29.5417 22.8977 30.6583 24.6524C30.9774 25.131 31.2965 25.6096 31.775 26.0882C32.2536 26.7262 32.8917 27.3644 33.3703 28.0025C34.6465 29.7572 34.3274 31.0334 32.4131 32.3096Z" fill="white" stroke="white" stroke-width="6.38096" stroke-miterlimit="10"/>
<path d="M110.577 30.7147C109.939 30.3956 109.142 30.0766 108.504 29.7575C106.749 29.1194 106.111 29.7575 106.27 31.6718C106.27 31.8313 106.27 31.9908 106.27 32.1504C105.154 31.8313 104.356 30.5552 104.675 29.279C104.994 28.4813 105.473 27.8433 105.951 27.2052C106.43 26.5671 107.227 25.929 107.706 25.1313C109.142 23.217 108.823 20.9837 106.589 19.8671C105.313 19.229 103.877 19.229 102.601 18.9099C102.123 18.7504 101.963 19.229 102.123 19.548C102.123 20.3456 102.282 21.1432 102.282 21.9409C101.963 24.3337 100.687 26.0885 98.4536 27.0456C97.4965 27.5242 96.3798 27.6837 95.2631 27.8433C95.1036 27.8433 94.944 27.6837 94.625 27.6837C94.7845 27.5242 94.7846 27.2052 95.1037 27.2052C95.4227 27.0456 95.9012 27.0456 96.2202 27.0456C100.208 26.0885 101.485 21.7814 99.0918 18.4314C98.7727 17.9528 98.2941 17.3147 98.4536 16.9956C98.7727 16.198 99.4108 15.4004 100.049 14.7623C100.368 14.4432 101.166 14.6028 101.644 14.9218C102.442 15.4004 103.08 16.0385 103.718 16.6766C104.196 16.9956 104.516 17.4742 104.835 17.9528C106.111 19.3885 107.547 20.0266 109.461 20.1861C110.258 20.3456 111.056 20.3456 111.694 20.6647C113.13 21.1433 113.449 22.2599 112.651 23.3766C112.492 23.5361 112.332 23.6956 112.173 24.0147C109.939 26.8861 109.78 27.2051 110.577 30.7147Z" fill="white" stroke="white" stroke-width="6.38096" stroke-miterlimit="10"/>
<path d="M79.7895 92.4501C76.28 92.4501 71.6538 93.5667 69.4204 95.3215C66.7085 97.5548 62.2419 92.4501 58.5728 92.4501C58.2537 92.4501 56.818 92.45 55.5418 91.1738C54.7442 90.3762 54.2656 89.2596 54.2656 88.1429V61.5024H83.9372V88.3024C84.0967 90.5358 82.0228 92.4501 79.7895 92.4501Z" fill="#00A2E5"/>
<path d="M69.1002 127.546C68.7811 127.386 68.143 126.748 67.824 126.588C64.474 124.674 64.3145 123.876 64.9526 120.048C65.5907 116.857 66.3883 113.667 67.1859 110.476C67.3455 109.679 68.143 107.286 67.5049 107.765C65.2716 109.679 64.1549 112.231 63.0383 114.943C61.9216 117.655 61.2835 120.367 61.124 123.398C59.2097 122.76 57.774 121.962 56.8169 120.207C56.1788 119.091 56.4978 117.974 56.8169 116.857C58.4121 112.231 61.443 108.722 65.9097 106.169C66.0692 106.01 66.3883 106.01 66.5478 105.691C66.7073 105.531 66.7073 105.372 66.7073 105.212C66.7073 105.053 66.3883 104.893 66.2287 104.893C65.9097 104.893 65.5907 104.893 65.2716 105.053C59.0502 107.605 54.5835 111.912 52.5097 118.453C52.3502 118.931 52.1907 119.091 51.7121 118.931C50.2764 118.453 49.1597 117.655 48.2025 116.219C47.5644 115.103 47.7239 113.986 48.362 112.869C49.3192 111.274 50.7549 109.838 52.1906 108.722C55.8597 106.01 60.0073 104.096 64.474 102.819C65.5907 102.5 65.5906 102.5 65.1121 101.543C64.1549 99.1502 62.8787 96.9169 60.6454 95.3217C59.2097 94.205 57.774 93.886 56.0193 94.205C54.2645 94.6836 53.1478 96.2789 53.3073 98.1931C53.3073 98.8312 53.4669 99.3098 53.6264 99.9479C53.9454 101.224 53.7859 101.224 52.5097 101.543C49.9573 102.022 47.4049 102.341 44.8526 102.979C43.4168 103.298 42.1406 104.096 41.0239 104.574C42.1406 105.85 43.0978 106.967 44.2144 108.084C44.8525 108.722 44.8525 109.2 44.3739 109.838C43.8953 110.476 43.0978 110.636 42.4597 109.998C41.5026 109.2 40.3858 108.243 39.4287 107.286C38.9501 106.967 38.7906 106.807 38.1525 107.126C35.7597 108.243 32.8882 107.126 31.931 104.734C31.4525 103.617 31.6121 102.5 32.0906 101.543C32.2501 101.065 32.2501 100.905 31.931 100.586C27.9429 96.9169 24.1144 93.0884 20.1263 89.4193C19.8073 89.1003 19.4882 89.1003 19.0096 89.2598C17.893 89.8979 17.2548 89.7383 16.4572 88.9407C16.2977 88.7812 15.8191 88.6217 15.5001 88.7812C13.1072 89.5788 10.3953 88.1431 9.59766 85.4312C10.3953 85.4312 11.1929 85.4312 11.9905 85.4312C11.6715 84.4741 11.3525 83.6765 11.0334 82.7193C10.3953 80.6455 11.512 79.3693 13.7453 79.5288C14.7025 79.6884 15.6596 80.0074 16.6168 80.1669C16.6168 79.3693 16.6168 78.7312 16.6168 77.9336C19.0096 78.0931 20.9239 80.6455 20.4453 83.1979C20.2858 83.6764 20.2858 84.155 20.7643 84.4741C21.562 85.1122 21.562 85.7503 21.4025 86.7074C21.4025 87.0265 21.562 87.505 21.7216 87.6646C25.7097 91.4931 29.5382 95.1622 33.5263 98.8312C33.8453 99.1503 34.3239 99.3098 34.8025 99.3098C36.3977 99.1503 37.8334 99.4693 39.1096 100.426C39.2692 100.586 39.5882 100.745 39.9073 100.745C42.9382 100.745 45.9692 100.426 48.6811 99.1502C48.8406 99.1502 49.0001 98.9907 49.1596 98.8312C49.0001 98.5122 48.8406 98.1931 48.6811 97.8741C47.2454 95.6407 46.1288 93.2479 45.6502 90.536C45.0121 85.9098 48.2025 82.5598 52.6692 82.2408C53.1478 82.2408 53.6264 82.2408 54.1049 82.2408C54.1049 82.5598 54.1049 82.8788 54.1049 83.1979C54.1049 85.1121 54.1049 87.186 54.1049 89.1003C54.1049 91.3336 55.5406 92.9288 57.774 93.2479C59.2097 93.4074 60.6454 93.4074 62.0812 93.2479C64.6335 93.0884 66.7073 94.0455 68.1431 96.1193C68.6216 96.5979 68.7812 96.5979 69.2597 96.1193C70.6955 94.205 72.7693 93.2479 75.1622 93.4074C76.5979 93.4074 78.0335 93.4074 79.4692 93.4074C81.8621 93.2479 83.2978 91.6527 83.4573 89.2598C83.4573 87.186 83.4573 85.2717 83.4573 83.1979C83.4573 82.5598 83.6169 82.2407 84.255 82.4002C85.3716 82.5598 86.3288 82.7193 87.4454 83.0384C91.1145 84.3146 92.3908 87.9836 91.9122 91.3336C91.5931 93.7264 90.3169 95.9598 89.0407 98.0336C88.2431 99.1503 88.2431 99.3098 89.6788 99.7884C91.9122 100.746 94.3051 100.905 96.6979 101.065C97.017 101.065 97.336 100.586 97.4955 100.267C97.9741 98.8312 98.7717 97.7145 100.048 96.9169C100.526 96.5979 100.686 96.5979 101.165 96.9169C102.122 97.7145 103.079 98.3526 104.036 99.1502C104.515 99.6288 104.993 99.6288 105.472 99.1502C106.429 98.3526 107.386 97.7145 108.184 96.9169C108.662 96.4383 108.981 96.5979 109.46 96.9169C111.693 98.8312 112.81 101.065 112.172 104.095C111.534 106.967 108.981 109.041 106.11 109.519C103.398 109.998 100.846 109.2 99.0908 107.126C97.336 105.212 95.2622 103.936 92.8693 103.457C90.4764 102.819 87.9241 102.5 85.5312 102.181C84.5741 102.022 84.4145 101.862 84.574 100.745C84.7336 99.7883 84.8931 98.8312 84.8931 98.0336C84.4145 95.1622 81.543 93.886 78.6716 95.3217C77.3954 95.9598 76.2788 97.0765 75.3216 98.1931C74.3645 99.4693 73.7264 101.065 72.9288 102.5C72.6097 103.138 73.0883 103.298 73.5669 103.457C76.1193 104.415 78.5121 105.212 80.905 106.329C83.7764 107.605 86.4884 109.519 88.7217 112.072C88.8812 112.231 88.8812 112.231 89.0407 112.391C91.4335 115.262 90.1574 118.772 86.4883 119.729C85.8502 119.888 85.8502 119.569 85.6907 119.091C84.7336 115.9 82.9788 113.029 80.5859 110.636C78.3526 108.403 75.8003 106.648 72.7693 105.691C72.4502 105.531 71.8121 105.691 71.6526 105.85C71.3336 106.329 71.8121 106.648 72.2906 106.967C76.7573 109.36 79.9479 112.869 81.5431 117.815C82.3407 119.888 81.8621 121.324 80.1074 122.76C79.4693 123.238 78.8312 123.717 78.0336 124.036C77.236 124.515 77.0764 124.355 77.0764 123.398C76.9168 120.526 76.2788 117.815 75.0026 115.262C74.0454 113.348 73.0883 111.593 71.9717 109.838C71.6526 109.36 71.174 109.041 70.855 108.722C70.6955 108.722 70.6954 108.881 70.5359 108.881C70.3764 108.243 70.5359 109.679 70.855 111.115C71.6526 114.305 72.6097 117.336 73.4073 120.526C73.5669 121.165 73.7264 121.962 73.8859 122.6C74.2049 124.515 72.9287 125.95 71.493 127.067C70.6954 127.705 70.8549 128.184 69.8978 128.184C69.2597 127.865 69.2597 127.546 69.1002 127.546Z" fill="#84DAF5" stroke="#0587D6" stroke-width="2.39286" stroke-miterlimit="10"/>
<path d="M6.25112 40.2855C6.41064 39.4879 6.41066 39.0093 6.57019 38.3712C6.57019 38.0522 6.72963 37.8926 6.88916 37.5736C7.2082 37.7331 7.52725 37.7331 7.68678 38.0521C10.0796 40.126 12.313 42.1997 14.7059 44.114C18.8535 46.9855 23.3202 49.2188 28.2654 50.3355C28.5845 50.495 28.9035 50.495 29.2225 50.495C29.8606 49.2188 29.7012 48.5807 28.5845 47.7831C25.8726 46.0283 23.0011 44.4331 20.4487 42.6783C17.0987 40.2855 14.0677 37.5736 12.4725 33.5855C10.5582 28.9593 11.0369 24.6522 14.5464 20.6641C14.7059 20.9831 15.0249 21.1426 15.1844 21.4617C18.5344 26.5664 21.8845 31.5117 25.8726 36.1378C30.8178 41.8807 35.7631 47.4641 42.1441 51.6117C42.6226 51.9307 43.1012 52.2498 42.4631 53.0474C40.2298 55.2807 39.4321 58.1521 40.7083 61.1831C41.9845 64.3736 44.5369 65.9688 47.8869 66.2879C49.9607 66.6069 52.0346 66.2879 54.1084 65.8093C54.7465 65.6498 54.906 65.8093 54.906 66.4474C54.906 67.564 54.906 68.6807 54.906 69.7974C54.906 72.3498 54.906 74.9022 54.906 77.4545C54.906 77.6141 54.906 77.7736 54.906 78.0926C54.5869 77.6141 54.4274 77.4545 54.2679 77.1355C52.8321 74.2641 50.2798 72.9879 47.2489 72.5093C45.6536 72.1903 45.6536 72.1902 45.3345 73.7855C44.856 76.3379 44.0583 78.8902 42.9417 81.1236C41.6655 83.5164 39.7512 85.1116 37.0393 85.5902C35.125 85.9093 33.3702 85.4307 31.775 83.995C32.2536 83.6759 32.5726 83.3569 33.0512 83.0379C36.2416 80.9641 38.7941 78.4117 40.5488 75.0617C41.0274 74.2641 41.1869 73.3069 41.5059 72.3498C41.6655 71.7117 41.506 71.5521 40.8679 71.2331C40.3893 71.0736 39.9107 70.7545 39.5916 71.3926C38.1559 73.6259 36.5607 75.5403 34.6464 77.295C32.5726 79.0498 30.3392 80.326 27.6273 80.4855C25.0749 80.4855 23.0012 79.6879 21.4059 77.295C21.725 77.1355 22.044 76.9759 22.363 76.9759C26.8297 76.0188 30.9773 74.4236 34.3273 71.0736C34.9654 70.595 35.444 69.7974 35.9226 69.3188C36.2416 68.8403 36.4012 68.5212 35.9226 67.8831C35.444 67.4045 34.9654 67.4045 34.3273 67.7236C32.413 68.8403 30.6583 69.9569 28.744 70.9141C25.713 72.5093 22.6821 73.626 19.1725 73.1474C17.8963 72.9879 16.6202 72.6688 15.5035 72.0307C13.5892 71.2331 12.7916 69.4783 12.4725 67.5641C12.313 67.0855 12.6321 66.926 13.1106 66.926C13.9083 66.926 14.7059 66.926 15.5035 66.926C20.9273 66.926 26.3512 65.9688 31.2964 63.7355C32.2536 63.2569 32.4131 63.0974 31.775 62.1403C31.4559 61.6617 31.1369 61.6617 30.6583 61.6617C27.4678 62.1402 24.4368 62.7783 21.2463 63.2569C18.5344 63.5759 15.982 63.7355 13.2701 62.9379C9.44154 61.8212 7.2082 59.1093 6.88916 55.1212C6.88916 54.6426 6.88916 54.1641 6.88916 53.526C7.2082 53.6855 7.52725 53.6855 7.68678 53.845C14.5463 56.8759 21.7249 57.8331 29.0631 57.195C29.3821 57.195 30.0202 57.195 29.8607 56.5569C29.7012 56.0783 30.0202 55.2807 29.0631 55.1212C26.1916 54.6426 23.3202 54.3236 20.6083 53.845C17.4178 53.2069 14.2273 52.4093 11.3559 50.8141C8.48448 49.2188 6.57011 46.6664 6.09154 43.3164C5.93201 43.4759 6.25112 39.4879 6.25112 39.6474" fill="#84DAF5"/>
<path d="M6.25112 40.2855C6.41064 39.4879 6.41066 39.0093 6.57019 38.3712C6.57019 38.0522 6.72963 37.8926 6.88916 37.5736C7.20821 37.7331 7.52725 37.7331 7.68678 38.0521C10.0796 40.126 12.313 42.1997 14.7059 44.114C18.8535 46.9855 23.3202 49.2188 28.2654 50.3355C28.5845 50.495 28.9035 50.495 29.2225 50.495C29.8606 49.2188 29.7012 48.5807 28.5845 47.7831C25.8726 46.0283 23.0011 44.4331 20.4487 42.6783C17.0987 40.2855 14.0677 37.5736 12.4725 33.5855C10.5582 28.9593 11.0369 24.6522 14.5464 20.6641C14.7059 20.9831 15.0249 21.1426 15.1844 21.4617C18.5344 26.5664 21.8845 31.5117 25.8726 36.1378C30.8178 41.8807 35.7631 47.4641 42.1441 51.6117C42.6226 51.9307 43.1012 52.2498 42.4631 53.0474C40.2298 55.2807 39.4321 58.1521 40.7083 61.1831C41.9845 64.3736 44.5369 65.9688 47.8869 66.2879C49.9607 66.6069 52.0346 66.2879 54.1084 65.8093C54.7465 65.6498 54.906 65.8093 54.906 66.4474C54.906 67.564 54.906 68.6807 54.906 69.7974C54.906 72.3498 54.906 74.9022 54.906 77.4545C54.906 77.6141 54.906 77.7736 54.906 78.0926C54.5869 77.6141 54.4274 77.4545 54.2679 77.1355C52.8321 74.2641 50.2798 72.9879 47.2489 72.5093C45.6536 72.1903 45.6536 72.1902 45.3345 73.7855C44.856 76.3379 44.0584 78.8902 42.9417 81.1236C41.6655 83.5164 39.7512 85.1117 37.0393 85.5902C35.125 85.9093 33.3702 85.4307 31.775 83.995C32.2536 83.6759 32.5726 83.3569 33.0512 83.0379C36.2416 80.9641 38.7941 78.4117 40.5488 75.0617C41.0274 74.2641 41.1869 73.3069 41.5059 72.3498C41.6654 71.7117 41.506 71.5521 40.8679 71.2331C40.3893 71.0736 39.9107 70.7545 39.5916 71.3926C38.1559 73.6259 36.5607 75.5403 34.6464 77.295C32.5726 79.0498 30.3392 80.326 27.6273 80.4855C25.0749 80.4855 23.0012 79.6879 21.4059 77.295C21.725 77.1355 22.044 76.9759 22.363 76.9759C26.8297 76.0188 30.9773 74.4236 34.3273 71.0736C34.9654 70.595 35.444 69.7974 35.9226 69.3188C36.2416 68.8403 36.4012 68.5212 35.9226 67.8831C35.444 67.4045 34.9654 67.4045 34.3273 67.7236C32.413 68.8403 30.6583 69.9569 28.744 70.9141C25.713 72.5093 22.6821 73.626 19.1725 73.1474C17.8963 72.9879 16.6202 72.6688 15.5035 72.0307C13.5892 71.2331 12.7916 69.4783 12.4725 67.5641C12.313 67.0855 12.6321 66.926 13.1106 66.926C13.9083 66.926 14.7059 66.926 15.5035 66.926C20.9273 66.926 26.3512 65.9688 31.2964 63.7355C32.2536 63.2569 32.4131 63.0974 31.775 62.1403C31.4559 61.6617 31.1369 61.6617 30.6583 61.6617C27.4678 62.1402 24.4368 62.7783 21.2463 63.2569C18.5344 63.5759 15.982 63.7355 13.2701 62.9379C9.44154 61.8212 7.20821 59.1093 6.88916 55.1212C6.88916 54.6426 6.88916 54.1641 6.88916 53.526C7.20821 53.6855 7.52725 53.6855 7.68678 53.845C14.5463 56.8759 21.7249 57.8331 29.0631 57.195C29.3821 57.195 30.0202 57.195 29.8607 56.5569C29.7012 56.0783 30.0202 55.2807 29.0631 55.1212C26.1916 54.6426 23.3202 54.3236 20.6083 53.845C17.4178 53.2069 14.2273 52.4093 11.3559 50.8141C8.48448 49.2188 6.57011 46.6664 6.09154 43.3164C5.93201 43.4759 6.25112 39.4879 6.25112 39.6474" stroke="#0587D6" stroke-width="2.39286" stroke-miterlimit="10"/>
<path d="M109.463 50.4955C117.598 48.5812 124.458 44.5931 130.36 38.6907C130.52 38.5312 130.679 38.3717 130.839 38.0526C131.637 37.255 131.796 37.255 132.115 38.3717C133.71 43.1574 131.637 48.4217 127.17 50.8145C123.979 52.5693 120.629 53.5264 116.96 54.005C114.567 54.3241 112.334 54.8027 109.941 55.1217C109.463 55.2812 108.825 55.1217 108.665 55.9193C108.506 56.8765 108.506 57.1955 109.622 57.1955C116.96 57.8336 123.979 56.8764 130.679 54.005C130.998 53.8455 131.158 53.8455 131.637 53.5265C131.637 54.1646 131.637 54.6431 131.637 55.1217C131.477 58.9503 129.403 61.6622 125.734 62.9384C123.82 63.5765 121.746 63.736 119.672 63.5764C115.684 63.4169 111.696 62.7788 107.867 61.8217C106.91 61.6622 106.751 61.9812 106.591 62.6193C106.272 63.4169 106.751 63.5765 107.229 63.736C110.898 65.3312 114.727 66.4479 118.715 66.7669C120.789 66.9264 123.022 66.9265 125.256 67.086C125.575 67.086 125.894 67.0859 126.213 67.2455C126.053 70.436 124.298 72.5098 120.948 73.1479C118.077 73.786 115.206 73.4669 112.494 72.1907C109.782 70.9145 107.07 69.3193 104.517 67.8836C103.879 67.5646 103.401 67.405 102.922 68.0431C102.284 68.6812 102.763 69.1598 103.082 69.6383C104.837 72.1907 107.229 73.9455 110.101 75.0622C112.175 76.0193 114.567 76.4979 116.641 77.2955C116.801 77.2955 117.12 77.455 117.439 77.6145C116.322 79.5288 114.727 80.486 112.653 80.6455C110.101 80.9646 107.708 80.1669 105.634 78.5717C103.082 76.8169 101.167 74.424 99.5722 72.0312C99.0936 71.2336 97.977 71.2336 97.4984 71.8717C97.3389 72.0312 97.3389 72.3503 97.4984 72.6693C98.4555 76.3384 100.848 79.3693 103.72 81.6026C104.517 82.2407 105.475 82.8788 106.432 83.6765C106.591 83.836 106.751 83.9955 107.07 84.155C105.475 85.9098 102.603 86.3884 100.21 85.2717C98.1364 84.3146 96.7008 82.8788 95.9032 80.6455C94.946 78.2527 94.3079 75.8598 93.6698 73.4669C93.5103 72.6693 93.1912 72.5098 92.3936 72.5098C89.0436 72.9884 86.3317 74.105 84.7365 77.2955C84.7365 77.455 84.5769 77.6145 84.4174 77.7741C84.4174 77.6145 84.2578 77.455 84.2578 77.2955C84.2578 73.6265 84.2578 69.9574 84.2578 66.4479C84.2578 65.6502 84.5769 65.6502 85.215 65.8098C87.6079 66.4479 90.0007 66.6074 92.3936 66.1288C97.8174 65.1717 101.327 58.3122 97.0197 53.3669C96.7007 53.0479 96.5412 52.7288 96.2221 52.2502C108.027 43.955 116.641 32.7884 124.458 20.6646C126.372 22.4193 127.489 24.4931 127.648 27.0455C128.127 31.8312 126.372 35.6598 123.022 38.8503C119.353 42.3598 115.046 45.0717 110.579 47.6241C108.984 48.4217 108.825 49.2193 109.463 50.4955Z" fill="#84DAF5" stroke="#0587D6" stroke-width="2.39286" stroke-miterlimit="10"/>
<path d="M78.6737 36.7766C76.7595 35.66 75.1642 34.3838 74.2071 32.629C73.888 31.9909 73.7285 31.3528 73.4095 30.5552C73.888 30.5552 74.2071 30.5552 74.5262 30.7147C76.2809 31.0338 78.1953 31.3528 79.95 31.5123C83.6191 31.6719 87.4477 31.5123 91.1167 31.8314C92.8715 31.9909 94.6262 32.31 96.381 32.7885C99.4119 33.7457 100.21 37.5743 98.1357 39.9671C97.9762 39.6481 97.8167 39.4885 97.6572 39.1695C96.8595 38.0528 95.7429 37.7337 94.4667 37.7337C88.8833 37.4147 85.0547 40.2862 82.1833 44.5933C80.7476 46.8266 79.6309 49.379 79.4714 52.0909C79.1523 55.4409 79.95 58.4719 82.5024 60.7052C82.5024 60.7052 82.6619 60.8647 82.6619 61.0242C73.888 61.0242 65.2737 61.0242 56.3404 61.0242C56.8189 60.5457 57.2976 60.2266 57.6166 59.7481C59.5309 57.6743 60.169 54.9623 59.8499 52.2504C59.0523 45.7099 55.8618 41.0838 49.7999 38.3719C48.0451 37.5743 46.2903 37.5742 44.3761 37.7337C43.0999 37.8933 41.9832 38.3719 41.3452 39.4885C41.3452 39.648 41.1856 39.6481 41.0261 39.8076H40.8666C38.6333 36.4576 40.0689 33.1076 43.5784 32.4695C45.9713 31.9909 48.5237 31.8314 51.0761 31.6719C52.9904 31.5123 55.0642 31.5123 57.138 31.6719C59.8499 31.6719 62.5618 31.6719 65.1142 30.8742C65.2737 30.8742 65.4333 30.8742 65.5928 30.8742C64.9547 33.9052 62.8809 35.66 60.4881 37.2552C65.9119 42.679 68.4642 49.2195 69.4214 56.7171C69.4214 56.8766 69.5809 56.8766 69.5809 56.7171C70.6976 48.9005 73.0904 42.0409 78.6737 36.7766Z" fill="#84DAF5" stroke="#0587D6" stroke-width="2.39286" stroke-miterlimit="10"/>
<path d="M82.5029 26.7263C82.1838 25.6096 81.7053 24.493 81.5458 23.3763C81.2267 21.6215 82.5028 20.1858 84.2576 20.1858C84.5767 20.1858 85.0553 20.3454 85.3743 20.6644C86.1719 21.462 87.1291 22.2597 87.9267 23.0573C88.7244 22.2597 89.522 21.6215 90.3196 20.9834C91.4363 20.0263 92.8719 20.1858 93.8291 21.3025C94.4672 22.2596 94.6267 23.3763 94.1481 24.3334C93.6696 25.4501 93.0314 26.5668 92.2338 27.6835C92.0743 27.843 91.7552 28.0025 91.4362 28.0025C88.0862 28.0025 84.5767 28.0025 81.2267 27.6835C77.0791 27.2049 74.3671 24.812 73.0909 20.824C72.9314 20.1859 72.6124 20.0263 71.9743 20.0263C70.2196 20.0263 68.3052 20.0263 66.5505 20.0263C66.0719 20.0263 65.7529 20.1858 65.5934 20.6644C63.9981 25.2906 60.648 27.3644 56.3409 27.6835C53.4694 27.843 50.598 27.843 47.8861 27.843C47.248 27.843 46.7695 27.6835 46.2909 27.0454C45.4933 25.7692 44.6957 24.493 44.5362 23.0573C44.3766 21.7811 45.0147 20.8239 45.9718 20.1858C47.0885 19.7072 47.4075 19.7073 48.3647 20.5049C49.0028 21.143 49.6409 21.6216 50.1195 22.2597C50.5981 22.7382 50.9171 22.5787 51.2362 22.2597C51.8743 21.7811 52.3528 21.143 52.9909 20.6644C54.2671 19.5478 56.1814 20.0263 56.8195 21.6216C57.2981 23.0573 56.8195 24.3335 56.1814 25.6097C56.0219 25.9287 55.8624 26.0882 55.7028 26.5668C56.1814 26.5668 56.5004 26.5668 56.979 26.5668C59.8505 25.6096 62.0838 23.8549 63.0409 20.9834C63.2004 20.3453 63.2005 20.0263 62.8814 19.3882C61.6052 17.3144 60.3291 15.2406 60.01 12.8478C59.691 10.2954 61.7647 8.06202 64.3171 8.38107C64.6361 8.38107 64.9552 8.70014 65.1147 8.85967C66.3909 10.2954 67.5077 11.7311 68.7838 13.1668C69.2624 13.8049 69.5814 13.8049 70.06 13.1668C71.1767 11.7311 72.4529 10.2954 73.7291 8.85967C73.8886 8.70014 74.2076 8.38107 74.5267 8.38107C77.5576 8.38107 79.3124 10.2954 78.8339 13.1668C78.3553 15.5596 77.2386 17.4739 75.9624 19.3882C75.8029 19.7072 75.6434 20.1858 75.6434 20.5049C76.1219 23.6954 79.6315 26.7263 82.5029 26.7263Z" fill="#84DAF5" stroke="#0587D6" stroke-width="2.39286" stroke-miterlimit="10"/>
<path d="M32.4131 32.3096C32.4131 31.6715 32.4131 31.1929 32.4131 30.7143C32.4131 29.9167 32.094 29.4382 31.1369 29.5977C30.1798 29.9167 29.0631 30.2358 28.106 30.5548C28.106 30.2358 28.2655 29.7572 28.2655 29.2786C28.5845 27.6834 28.2655 26.2477 27.1488 25.131C26.6702 24.6524 26.1917 24.0143 25.8726 23.5358C25.075 22.2596 25.394 21.1429 26.8297 20.6644C27.7869 20.3453 28.9036 20.1858 29.8607 20.0263C31.2964 19.8667 32.4131 19.2286 33.3703 18.2715C34.0084 17.4739 34.8059 16.8358 35.6036 16.0382C36.0821 15.5596 36.5607 15.2405 37.1988 14.9215C38.1559 14.4429 38.9536 14.6024 39.5917 15.5596C39.7512 15.8786 39.9108 16.0381 40.0703 16.3572C40.5489 17.1548 40.5488 17.7929 39.9107 18.5905C38.6345 20.1858 38.156 21.9405 38.9536 23.8548C39.7512 25.7691 41.187 26.8858 43.2608 27.2048C43.4203 27.2048 43.5798 27.2048 43.7393 27.3643C43.8989 27.5238 44.0584 27.6834 44.2179 27.8429C44.0584 28.0024 43.8988 28.162 43.5798 28.0025C40.2298 27.6834 37.0393 25.7691 36.5608 21.9405C36.5608 21.1429 36.7203 20.5048 36.5608 19.7072C36.5608 19.5477 36.2417 19.0691 36.0822 19.0691C34.487 19.0691 33.0512 19.0691 31.6155 20.0263C30.0202 21.1429 29.5417 22.8977 30.6583 24.6524C30.9774 25.131 31.2965 25.6096 31.775 26.0882C32.2536 26.7262 32.8917 27.3644 33.3703 28.0025C34.6465 29.7572 34.3274 31.0334 32.4131 32.3096Z" fill="#0587D6" stroke="#0587D6" stroke-width="2.39286" stroke-miterlimit="10"/>
<path d="M110.577 30.7147C109.939 30.3956 109.142 30.0766 108.504 29.7575C106.749 29.1194 106.111 29.7575 106.27 31.6718C106.27 31.8313 106.27 31.9908 106.27 32.1504C105.154 31.8313 104.356 30.5552 104.675 29.279C104.994 28.4813 105.473 27.8433 105.951 27.2052C106.43 26.5671 107.227 25.929 107.706 25.1313C109.142 23.217 108.823 20.9837 106.589 19.8671C105.313 19.229 103.877 19.229 102.601 18.9099C102.123 18.7504 101.963 19.229 102.123 19.548C102.123 20.3456 102.282 21.1432 102.282 21.9409C101.963 24.3337 100.687 26.0885 98.4536 27.0456C97.4965 27.5242 96.3798 27.6837 95.2631 27.8433C95.1036 27.8433 94.944 27.6837 94.625 27.6837C94.7845 27.5242 94.7846 27.2052 95.1037 27.2052C95.4227 27.0456 95.9012 27.0456 96.2202 27.0456C100.208 26.0885 101.485 21.7814 99.0918 18.4314C98.7727 17.9528 98.2941 17.3147 98.4536 16.9956C98.7727 16.198 99.4108 15.4004 100.049 14.7623C100.368 14.4432 101.166 14.6028 101.644 14.9218C102.442 15.4004 103.08 16.0385 103.718 16.6766C104.196 16.9956 104.516 17.4742 104.835 17.9528C106.111 19.3885 107.547 20.0266 109.461 20.1861C110.258 20.3456 111.056 20.3456 111.694 20.6647C113.13 21.1433 113.449 22.2599 112.651 23.3766C112.492 23.5361 112.332 23.6956 112.173 24.0147C109.939 26.8861 109.78 27.2051 110.577 30.7147Z" fill="#0587D6" stroke="#0587D6" stroke-width="2.39286" stroke-miterlimit="10"/>
<path d="M152.059 104.095L141.211 108.562L116.326 118.771C116.007 118.931 115.688 118.931 115.528 118.771L90.6422 108.562L79.7945 104.095C78.6779 103.617 78.6779 101.862 79.7945 101.383L115.528 86.707C115.847 86.5475 116.166 86.5475 116.326 86.707L152.059 101.383C153.176 101.862 153.176 103.617 152.059 104.095Z" fill="#83D9F4" stroke="white" stroke-width="7.57946" stroke-miterlimit="10" stroke-linecap="round"/>
<path d="M141.374 108.562V123.716C141.374 126.109 140.098 128.183 138.024 129.14L131.962 131.692C121.912 135.84 110.905 135.84 100.855 131.852L94.1547 129.14C92.0808 128.342 90.8047 126.109 90.8047 123.716V108.562L115.69 118.771C116.009 118.931 116.329 118.931 116.488 118.771L141.374 108.562Z" fill="#84DAF5" stroke="white" stroke-width="7.57946" stroke-miterlimit="10" stroke-linecap="round"/>
<path d="M152.375 104.255L141.528 108.721L116.642 118.931C116.323 119.091 116.004 119.091 115.844 118.931L90.9586 108.721L80.1109 104.255C78.9943 103.776 78.9943 102.021 80.1109 101.543L115.844 86.8667C116.163 86.7072 116.482 86.7072 116.642 86.8667L152.375 101.543C153.492 102.021 153.492 103.936 152.375 104.255Z" fill="#83D9F4" stroke="#0587D6" stroke-width="2.5484" stroke-miterlimit="10" stroke-linecap="round"/>
<path d="M141.526 108.721V123.876C141.526 126.269 140.25 128.343 138.176 129.3L132.114 131.852C122.064 136 111.057 136 101.007 132.012L94.3071 129.3C92.2333 128.502 90.957 126.269 90.957 123.876V108.721L115.843 118.931C116.162 119.09 116.481 119.09 116.64 118.931L141.526 108.721Z" fill="#84DAF5" stroke="#0587D6" stroke-width="2.09726" stroke-miterlimit="10" stroke-linecap="round"/>
<path d="M116.805 101.224L136.267 110.636V123.078" stroke="#0587D6" stroke-width="1.91636" stroke-miterlimit="10" stroke-linecap="round"/>
</svg>
