<svg width="66" height="72" viewBox="0 0 66 72" fill="none" xmlns="http://www.w3.org/2000/svg">
<path fill-rule="evenodd" clip-rule="evenodd" d="M25.8238 1.3025L26.1797 2.95794L17.6793 2.07782L17.6581 1.79327L17.6865 0.530011L17.7278 0.36377L25.8238 1.3025Z" fill="#BCE1F7"/>
<path fill-rule="evenodd" clip-rule="evenodd" d="M32.5078 2.37898L32.2161 3.06007C31.1084 2.80238 30.0252 2.34052 28.7685 2.02929C28.1405 1.87423 27.5844 1.75656 26.958 1.60094C26.3791 1.45815 25.4989 1.02082 25.283 1.01245L25.4113 0.56569L25.8218 0.434636L25.7895 0.335938C26.4666 0.351555 28.6464 0.935486 29.3737 1.13294C29.9025 1.27628 30.4491 1.44981 31.0108 1.63722C31.2562 1.71865 31.6249 1.81121 31.8156 1.90324C32.3098 2.1403 31.8669 2.23006 32.5078 2.37898Z" fill="#BCE1F7"/>
<path fill-rule="evenodd" clip-rule="evenodd" d="M38.155 4.90819C37.431 4.37943 34.7008 2.95048 33.6761 2.86515L33.4804 2.47689L33.5596 2.54051L34.1631 1.69775C35.4688 2.0023 37.291 4.00578 38.4707 4.65L38.155 4.90819Z" fill="#BCE1F7"/>
<path fill-rule="evenodd" clip-rule="evenodd" d="M33.8711 5.29818L27.6051 3.46593L27.6464 3.34882L27.0563 1.89307C29.2662 2.07601 33.6803 3.00352 33.8711 5.29818Z" fill="#95D1F2"/>
<path fill-rule="evenodd" clip-rule="evenodd" d="M38.1558 4.90779L39.0449 5.50303L38.6417 6.07529C38.2456 5.98326 36.5048 5.10307 35.9789 4.84482C35.4836 4.60219 35.1528 4.46883 34.6207 4.25688C34.006 4.0109 33.663 3.56974 33.3267 3.52121L33.677 2.86475C34.7016 2.95008 37.4319 4.37903 38.1558 4.90779Z" fill="#4BB5E6"/>
<path fill-rule="evenodd" clip-rule="evenodd" d="M28.9159 4.13095L29.0994 4.71389V5.10313L29.3147 5.15226L30.0732 6.27008C28.5829 6.27008 25.5023 5.87179 24.1955 5.62581C21.9471 5.20247 22.0074 3.86215 20.435 2.86486L20.4908 2.56201L28.9159 4.13095Z" fill="#95D1F2"/>
<path fill-rule="evenodd" clip-rule="evenodd" d="M19.5091 2.42578L19.5593 3.44992L19.7841 3.50733L21.1172 4.90839V5.20068C17.8197 5.20068 9.72923 7.9723 9.62772 3.44992L9.60374 3.09456L19.5091 2.42578Z" fill="#BCE1F7"/>
<path fill-rule="evenodd" clip-rule="evenodd" d="M39.6147 7.43745V8.02191C39.0034 7.97115 37.3011 7.1585 36.7584 6.88742C35.5263 6.27164 35.3166 6.11498 34.9418 4.71387C35.7918 4.78415 39.6147 6.73076 39.6147 7.43745Z" fill="#2893D1"/>
<path fill-rule="evenodd" clip-rule="evenodd" d="M44.1919 8.21655C43.7529 8.47257 44.125 8.11894 43.802 8.11894C43.5789 8.11894 43.6893 8.15297 43.4133 8.21655C42.8019 7.30516 40.2306 6.53489 39.3215 5.29274L39.6154 5.20068C40.3372 5.82762 44.0151 7.55393 44.1919 8.21655Z" fill="#95D1F3"/>
<path fill-rule="evenodd" clip-rule="evenodd" d="M36.7422 7.53854L31.0753 6.41026L31.242 5.97908L31.0106 5.93442L30.0936 4.69894L30.2782 4.30469L36.7422 7.53854Z" fill="#2893D1"/>
<path fill-rule="evenodd" clip-rule="evenodd" d="M40.7834 9.67581L40.9775 10.4545C40.8453 10.4194 38.9238 9.54249 38.7063 9.41588C37.9695 8.98863 37.4904 8.44822 37.2784 7.53516C37.7006 7.57085 38.7855 8.23451 39.1687 8.46822C39.49 8.66344 39.7159 8.78174 40.0271 8.9725C40.6646 9.36294 40.176 9.5135 40.7834 9.67581Z" fill="#4BB5E6"/>
<path fill-rule="evenodd" clip-rule="evenodd" d="M43.5911 8.53326L43.7065 9.00681L43.315 9.18983C42.9965 9.10505 41.8414 8.28347 41.4465 8.0414C41.1163 7.83837 40.877 7.7022 40.5317 7.49583C40.0336 7.19575 39.8362 6.80754 39.7124 6.75679L39.6348 6.66255L40.2227 6.18115V6.38639L43.5911 8.53326Z" fill="#2893D1"/>
<path fill-rule="evenodd" clip-rule="evenodd" d="M34.1626 9.87065C31.5199 10.4853 26.6813 8.44162 26.1793 6.5625C29.083 6.80401 33.4782 6.93512 34.1626 9.87065Z" fill="#2893D1"/>
<path fill-rule="evenodd" clip-rule="evenodd" d="M27.3467 9.18993C24.8211 9.39965 23.8696 10.1889 20.6546 9.84695C18.6684 9.63555 16.2739 7.02686 15.3714 6.95156V6.75689C17.3202 6.59569 20.2324 5.56443 22.3892 5.86228C23.9627 6.07925 26.8218 8.19822 27.3467 9.18993Z" fill="#95D1F2"/>
<path fill-rule="evenodd" clip-rule="evenodd" d="M43.6069 10.0656V10.6496C43.2628 10.557 42.3051 9.81459 41.9515 9.57866C40.9916 8.93834 40.8538 9.21664 40.8806 8.02246C41.3775 8.28517 41.8806 8.5769 42.3252 8.91435C42.8116 9.28415 43.3292 9.91836 43.6069 10.0656Z" fill="#4BB5E6"/>
<path fill-rule="evenodd" clip-rule="evenodd" d="M38.9336 10.746V11.2329H38.6408C38.4684 11.2329 38.1003 10.9373 37.9597 10.8436C36.7867 10.8436 34.5585 9.457 34.4547 8.50879H35.0387C35.1642 8.50879 37.1532 9.15303 37.3004 9.2657C37.6758 9.55462 38.5292 10.6523 38.9336 10.746Z" fill="#4BB5E6"/>
<path fill-rule="evenodd" clip-rule="evenodd" d="M46.2357 9.87068L47.7339 11.0888L47.6965 11.4269L47.4896 11.5384L47.2029 11.3119L46.9447 11.3934L46.2357 10.8434C46.016 10.0196 44.3404 9.42172 44.2891 8.7998H44.6779C44.9138 8.7998 45.9814 9.70056 46.2357 9.87068Z" fill="#4BB5E6"/>
<path fill-rule="evenodd" clip-rule="evenodd" d="M46.2362 10.8428C46.3695 11.4134 46.7237 11.3928 46.7237 11.7191V11.8161C46.7237 12.1882 46.7527 11.8512 46.6261 12.1072C45.756 11.5255 44.9734 10.8422 44.3604 9.92747L44.7827 9.66699L46.2362 10.8428Z" fill="#2893D1"/>
<path fill-rule="evenodd" clip-rule="evenodd" d="M44.6784 13.1787C44.2518 12.8925 44.0186 12.5546 43.4497 12.3638C42.4719 12.0381 42.6677 11.5405 42.2694 11.4206L42.1267 10.6698L41.855 10.3569C42.4513 10.3703 43.2863 11.1317 43.7068 11.4256C44.3042 11.8428 44.8681 12.2829 44.6784 13.1787Z" fill="#4AB4E5"/>
<path fill-rule="evenodd" clip-rule="evenodd" d="M43.1206 13.2767H42.7307C42.4948 13.2767 42.3275 13.014 42.1004 12.9332C41.6459 12.7708 41.7641 12.9979 41.2861 12.6771C40.5928 12.212 40.7032 11.8885 40.199 11.6224L40.1499 11.2777L39.7366 10.812L39.8102 10.7461C40.3083 10.9854 40.3184 10.6804 40.9213 11.0954C41.4189 11.4373 41.3168 11.3508 41.8868 11.5895C42.2516 11.7423 43.11 12.8066 43.1206 13.2767Z" fill="#4AB4E5"/>
<path fill-rule="evenodd" clip-rule="evenodd" d="M37.9598 13.4703C36.5124 13.4703 36.1465 13.4391 34.8447 12.7893C34.3226 12.5294 32.7324 11.319 32.6047 10.88L34.9417 10.8438C35.5709 11.1767 36.3596 11.4735 36.8086 11.9945C37.1165 12.3542 37.2113 12.3821 37.6307 12.6325C37.8561 12.767 38.4903 13.4703 37.9598 13.4703Z" fill="#4BB5E6"/>
<path fill-rule="evenodd" clip-rule="evenodd" d="M46.9175 13.179V13.4701H46.7228V13.6653C46.1941 13.3865 44.6775 12.3909 44.6775 11.7199V11.3306C45.0361 11.4142 46.9175 12.9202 46.9175 13.179Z" fill="#4BB5E6"/>
<path fill-rule="evenodd" clip-rule="evenodd" d="M17.8066 9.96848V10.1626C15.3363 10.7377 12.6908 12.7428 10.1055 13.2688C7.02276 13.8952 4.04037 12.2972 2.90978 10.1626C4.87703 9.21998 8.14331 7.31405 10.39 6.92919C14.7791 6.17732 16.3046 9.84298 17.8066 9.96848Z" fill="#BCE1F7"/>
<path fill-rule="evenodd" clip-rule="evenodd" d="M48.6694 12.3034L48.864 12.5957L50.1318 14.0593L49.6427 14.249C49.4028 13.8914 49.071 13.6059 48.7441 13.2986C48.299 12.8803 48.2321 12.6716 47.913 12.1289L48.3777 12.3034H48.6694Z" fill="#2893D1"/>
<path fill-rule="evenodd" clip-rule="evenodd" d="M33.7744 13.1788C33.1865 13.9803 29.9029 14.5514 28.4633 13.7192C27.7355 13.2981 24.4218 11.3671 24.2327 10.8433C25.4324 10.5645 28.5286 9.87514 29.7524 10.2823C30.9019 10.6661 33.3165 13.0717 33.7744 13.1788Z" fill="#2893D1"/>
<path fill-rule="evenodd" clip-rule="evenodd" d="M49.0596 12.1082L49.3519 12.2058L50.1305 12.8869L51.4932 14.3465V14.7354L51.337 14.7922L48.8644 12.5957L48.6697 12.3034L48.6731 12L49.0596 12.1082Z" fill="#4BB5E6"/>
<path fill-rule="evenodd" clip-rule="evenodd" d="M40.683 12.6132C40.862 12.7119 41.4962 13.0913 41.6228 13.2157C41.9452 13.5314 41.716 13.8877 42.3423 14.0539C42.3524 14.5392 42.832 14.8622 42.4411 14.8137L41.1309 14.7813L38.5445 12.4085L38.6521 12.2451L40.683 12.6132Z" fill="#4AB4E5"/>
<path fill-rule="evenodd" clip-rule="evenodd" d="M49.4482 14.7352L48.8643 14.9298C48.6462 14.6041 47.3064 13.5331 47.3064 13.2766V13.179C47.3064 12.8744 47.4816 12.9028 47.6963 12.7891C48.2479 13.0819 49.0929 14.2042 49.4482 14.7352Z" fill="#4BB5E6"/>
<path fill-rule="evenodd" clip-rule="evenodd" d="M50.5193 15.0336L51.7854 16.3901C51.7854 17.0143 52.0236 16.9552 51.6092 17.0634L51.4931 16.7783L51.0514 16.7493L49.8405 14.9873L50.5193 15.0336Z" fill="#4BB5E6"/>
<path fill-rule="evenodd" clip-rule="evenodd" d="M53.3428 17.2656C52.1938 16.9594 52.3566 16.449 51.6879 16.0011L51.6656 15.536L51.298 15.1255C51.8301 15.1696 53.2128 16.7787 53.3428 17.2656Z" fill="#2893D1"/>
<path fill-rule="evenodd" clip-rule="evenodd" d="M42.3413 16.5836L41.5621 17.1676C41.2068 16.9975 40.9703 17.0299 40.4906 16.7794C40.1225 16.5865 39.934 16.3812 39.5982 16.1146C39.1709 15.7755 38.2082 15.1067 37.9572 14.7162L39.5168 14.5405H39.9072C40.5581 14.5405 42.0117 16.0933 42.3413 16.5836Z" fill="#4AB4E5"/>
<path fill-rule="evenodd" clip-rule="evenodd" d="M27.3467 14.5417C24.9366 15.1028 23.8567 18.3751 19.7198 17.3979C16.8707 16.7247 15.2548 14.7759 12.1586 14.0547C12.3633 13.5483 18.8446 10.8074 19.9434 10.8091C22.2219 10.8108 25.9801 13.3547 27.3467 14.5417Z" fill="#95D1F2"/>
<path fill-rule="evenodd" clip-rule="evenodd" d="M35.6234 14.6384C36.1567 14.8542 38.0665 15.9771 38.4446 16.343C39.5172 17.3821 37.0307 17.8065 36.1528 17.5315C35.7685 17.4105 33.7315 16.0663 33.3628 15.7813C32.1636 14.8543 35.0004 14.3852 35.6234 14.6384Z" fill="#4BB5E6"/>
<path fill-rule="evenodd" clip-rule="evenodd" d="M53.441 16.3906L54.1221 17.2657L55.3882 19.0171L55.1935 19.1147C54.9821 18.7154 54.6101 18.0572 54.0177 18.0477L53.4912 16.9148L52.6618 15.709L53.441 16.3906Z" fill="#4BB5E6"/>
<path fill-rule="evenodd" clip-rule="evenodd" d="M53.9275 18.5299L53.9944 19.0765L54.3096 19.647L54.1975 19.723L52.7411 18.4535L52.8493 18.392L52.3697 17.459C53.1634 17.5259 53.4222 18.1918 53.9275 18.5299Z" fill="#4BB5E6"/>
<path fill-rule="evenodd" clip-rule="evenodd" d="M41.5621 17.8491L43.5093 19.5028C43.4451 20.2686 43.2376 20.7015 42.5064 20.9095L39.3221 18.9189C39.9825 17.9333 40.2776 17.8491 41.5621 17.8491Z" fill="#4AB4E5"/>
<path fill-rule="evenodd" clip-rule="evenodd" d="M56.0693 20.8651L55.4842 20.1841C54.7112 20.1673 54.3536 18.6608 54.4133 18.5303C55.1234 19.0044 55.844 19.9023 56.0693 20.8651Z" fill="#2893D1"/>
<path fill-rule="evenodd" clip-rule="evenodd" d="M25.1077 18.1403C28.7678 13.1483 35.1124 17.4778 35.0578 18.5754C34.9691 20.3508 32.8724 21.6833 30.4885 20.7429C29.0763 20.1857 26.5088 18.8822 25.1077 18.1403Z" fill="#2893D1"/>
<path fill-rule="evenodd" clip-rule="evenodd" d="M56.2268 21.6809C56.1002 21.8593 56.0695 21.8454 56.0695 22.0328C56.0695 22.2348 56.2201 21.9954 56.2642 22.5197L56.1883 22.5933L54.742 21.1203L54.8519 21.0466L54.6662 20.127L56.2268 21.6809Z" fill="#4BB5E6"/>
<path fill-rule="evenodd" clip-rule="evenodd" d="M57.3338 21.644L58.0154 22.8108L58.4053 23.5895H58.1124C58.021 23.1952 57.8101 22.9414 57.6244 22.619C57.2869 22.0345 57.1648 22.2826 56.8268 21.8593C56.2963 21.1944 56.6444 21.2597 56.4637 20.867C56.3159 20.5458 55.9829 20.3003 55.8736 19.8926H56.0688L57.3338 21.644Z" fill="#4BB5E6"/>
<path fill-rule="evenodd" clip-rule="evenodd" d="M37.5695 19.6975C38.4574 20.2057 39.8162 20.4439 40.8045 21.1495C41.7042 21.792 40.1754 23.5507 39.2444 23.5194C38.7648 23.5033 36.7919 22.3386 36.1522 21.9699C35.1493 21.3909 36.9911 19.3662 37.5695 19.6975Z" fill="#4BB5E6"/>
<path fill-rule="evenodd" clip-rule="evenodd" d="M58.4056 24.7571C58.0921 24.5273 56.9453 23.3314 56.9453 22.9086C56.9453 22.5366 56.9152 22.8735 57.0569 22.6052L56.8455 22.3196L57.1394 22.2275C57.314 22.8818 58.617 24.2462 58.4056 24.7571Z" fill="#2893D1"/>
<path fill-rule="evenodd" clip-rule="evenodd" d="M45.5539 25.0493L42.3418 23.9794C42.3418 19.7632 46.2004 22.2766 45.5539 25.0493Z" fill="#4AB4E5"/>
<path fill-rule="evenodd" clip-rule="evenodd" d="M57.9185 25.0487L57.822 25.6326C57.7004 25.5997 57.0623 24.8272 56.8202 24.5896C56.4694 24.2438 56.2463 23.6592 56.4582 23.2002C57.4583 23.869 57.2938 24.1161 57.9185 25.0487Z" fill="#4BB5E6"/>
<path fill-rule="evenodd" clip-rule="evenodd" d="M18.001 18.4328C17.2642 19.8256 12.1857 24.8695 10.4856 25.7106C7.82394 27.0275 0.489841 23.6033 0.0246639 22.485C-0.432707 21.389 5.66314 15.8504 7.3872 15.3172C11.1488 14.1548 14.9148 16.9525 18.001 18.4328Z" fill="#BCE1F7"/>
<path fill-rule="evenodd" clip-rule="evenodd" d="M59.1843 24.9521L60.2558 26.8975C60.2948 27.0481 60.6445 27.7532 60.6445 27.7738C60.6445 27.9958 60.6116 27.886 60.5469 28.1632H60.2558L60.0605 27.9673C60.2028 27.723 59.5357 26.6293 59.3466 26.2489C59.0465 25.651 58.3036 24.7468 59.1843 24.9521Z" fill="#4BB5E6"/>
<path fill-rule="evenodd" clip-rule="evenodd" d="M60.0611 27.9671L60.2563 28.1629V28.8434C59.7136 28.6989 58.6985 27.0401 58.6985 26.411C58.6985 26.324 58.8067 26.2163 58.8926 26.2163C59.3316 26.2163 59.616 27.6419 60.0611 27.9671Z" fill="#2893D1"/>
<path fill-rule="evenodd" clip-rule="evenodd" d="M59.3184 28.3329L59.0869 28.6492H58.7946C58.4427 28.6492 57.7159 26.861 57.5285 26.5068L57.794 26.0718L59.3184 28.3329Z" fill="#4BB5E6"/>
<path fill-rule="evenodd" clip-rule="evenodd" d="M14.3983 25.7302C14.9767 24.6381 19.5075 19.5195 20.6615 19.1608C23.061 18.4151 28.7921 21.1085 29.9818 22.2151C30.4458 22.6469 28.1952 29.2034 24.3556 28.6379C21.0525 28.1521 17.4599 25.7302 14.3983 25.7302Z" fill="#95D1F2"/>
<path fill-rule="evenodd" clip-rule="evenodd" d="M46.917 25.924C47.8206 26.4232 48.2713 26.295 48.5563 27.507C48.7973 28.5294 49.2234 29.521 47.7074 29.3704C45.1428 29.1155 45.5472 25.1665 46.917 25.924Z" fill="#4AB4E5"/>
<path fill-rule="evenodd" clip-rule="evenodd" d="M39.0317 24.9523C39.0317 33.0589 35.8519 29.463 30.2686 28.1634C31.1008 26.591 31.4701 23.5718 33.1663 22.9716C35.2713 22.227 37.798 24.9523 39.0317 24.9523Z" fill="#2893D1"/>
<path fill-rule="evenodd" clip-rule="evenodd" d="M40.7842 29.3283C40.7842 28.6066 40.6102 26.3253 41.1663 25.9578C41.6912 25.6114 43.9808 26.1368 44.3936 26.5981C44.9608 27.2323 44.765 29.5565 44.1253 29.9587C43.4353 30.392 41.5283 29.5024 40.7842 29.3283Z" fill="#4BB5E6"/>
<path fill-rule="evenodd" clip-rule="evenodd" d="M52.0767 32.4432C51.737 32.9502 51.0732 33.4517 50.3241 33.5136C50.3241 32.4868 48.358 29.4268 50.13 29.4268H50.8116C51.322 29.4268 52.0198 31.7571 52.0767 32.4432Z" fill="#4AB4E5"/>
<path fill-rule="evenodd" clip-rule="evenodd" d="M57.9185 29.8164L57.3819 31.2292L56.3483 30.2157L56.1961 30.3049L56.1911 31.8199L55.0426 30.3841L54.873 30.4919L54.6516 31.8908L53.5372 29.8164L52.9694 29.8258L52.5644 30.5945H52.3692L52.7351 30.2481L50.3261 27.7047L50.2101 27.8888L47.6031 24.6219L45.1773 21.2814L45.3798 21.2317L43.5615 18.1334L43.2296 18.366L44.3279 17.9527L44.3809 17.7635L42.7304 15.9018L44.0886 16.0439L44.189 15.9336L43.1365 14.3009L44.749 14.9034L44.8014 14.8181L44.0758 13.5L45.9437 14.5408C45.9437 12.863 45.3809 13.4799 47.1396 14.6111C48.3884 15.4143 47.0358 14.0878 48.1586 14.8687C48.6567 15.2162 48.602 15.4907 49.268 15.7913C51.5521 16.8204 52.1601 18.8188 53.5059 19.7347C54.1184 20.153 55.8787 23.5505 56.4404 24.5003C56.4515 24.5193 57.2 26.8557 57.2447 27.1062C57.4165 28.0538 56.8185 26.926 57.2815 28.3835C57.4728 28.9831 57.8259 29.417 57.9185 29.8164Z" fill="#1AA4DC"/>
<path fill-rule="evenodd" clip-rule="evenodd" d="M59.8657 31.6655H59.2823C59.0782 31.1607 59.1138 31.8038 58.8288 31.1451C58.7061 30.8595 58.6559 30.6509 58.5338 30.3698C58.3614 29.9682 58.0045 29.3073 57.9202 28.9548L58.3084 28.8438C59.0731 29.3558 58.8249 29.0875 59.2232 30.0698C59.4223 30.5578 59.7519 31.1752 59.8657 31.6655Z" fill="#4BB5E6"/>
<path fill-rule="evenodd" clip-rule="evenodd" d="M60.9377 31.275L61.3276 31.8596L61.5005 32.7013L61.23 32.9299C60.6226 32.5239 60.6203 32.2779 60.3665 31.5534C60.2137 31.1144 59.8054 30.3435 59.7686 29.918L60.2829 30.0463L60.9377 31.275Z" fill="#2893D1"/>
<path fill-rule="evenodd" clip-rule="evenodd" d="M60.9367 29.5242L61.2256 29.6352L62.0082 31.6649L62.4795 33.0192L62.2993 33.5134L62.1582 33.4905L61.3266 31.8596L60.9367 31.275L60.5468 30.0111H60.7415C60.7125 29.6525 60.4632 29.329 60.9367 29.5242Z" fill="#4BB5E6"/>
<path fill-rule="evenodd" clip-rule="evenodd" d="M61.814 36.8215L61.1329 36.6263C61.1212 36.1455 59.9638 34.2837 59.9638 33.1235C60.9009 33.4627 60.7977 33.8508 61.2272 34.5859C61.4659 34.9937 61.7638 36.223 61.814 36.8215Z" fill="#4BB5E6"/>
<path fill-rule="evenodd" clip-rule="evenodd" d="M58.5888 31.2103C58.7544 31.8384 59.0344 31.574 59.2073 32.6153C59.2999 33.1714 59.6273 33.756 59.6714 34.2925L59.6084 34.369L58.9167 33.7979L58.9898 33.7086C58.4588 33.6646 58.5692 33.2902 58.3673 32.7737C58.3104 32.6287 57.9189 31.6817 57.9189 31.6655L57.9312 30.9521L58.5888 31.2103Z" fill="#4AB4E5"/>
<path fill-rule="evenodd" clip-rule="evenodd" d="M48.5717 31.5677C48.9756 31.9136 49.3275 34.129 49.3136 34.8898C49.2885 36.345 47.353 36.6139 46.7495 36.2201C46.4254 36.0076 45.9842 33.4519 45.9965 32.9181C46.0255 31.6576 47.9755 31.0557 48.5717 31.5677Z" fill="#4BB5E6"/>
<path fill-rule="evenodd" clip-rule="evenodd" d="M58.5999 34.2915L58.794 35.7507C58.8102 35.8533 58.7405 35.9543 58.6975 36.1395C58.1832 36.0201 57.8887 35.2124 57.5535 34.8498C57.0727 34.3283 57.042 33.7767 57.075 33.0265L57.042 32.1509C57.6059 32.3009 58.4861 33.5497 58.5999 34.2915Z" fill="#4AB4E5"/>
<path fill-rule="evenodd" clip-rule="evenodd" d="M54.9004 34.5832C54.9004 34.6864 54.2076 36.0752 54.1217 36.2376C53.8981 36.0741 52.6615 33.1943 52.6615 32.8323C52.6615 32.1162 53.1791 31.6181 53.7319 31.4697C53.7653 31.8585 54.1803 32.684 54.3884 32.9557C54.5613 33.1799 54.9004 34.345 54.9004 34.5832Z" fill="#4AB4E5"/>
<path fill-rule="evenodd" clip-rule="evenodd" d="M44.3855 32.0539C44.3855 33.7573 45.6985 36.4105 44.8663 38.1731C44.173 39.6395 40.6947 39.0906 38.7593 39.2529L38.641 36.4323V33.5135C38.641 29.4301 42.6218 32.0935 44.3855 32.0539Z" fill="#2893D1"/>
<path fill-rule="evenodd" clip-rule="evenodd" d="M56.8477 37.017L55.3875 34.6812C55.3875 34.0632 55.209 33.931 55.2051 33.613C55.1984 33.1646 55.4734 33.0323 55.484 32.5415C56.0875 32.6809 56.6949 33.6933 56.9085 34.3297C57.3129 35.5328 56.8477 35.819 56.8477 37.017Z" fill="#4AB4E5"/>
<path fill-rule="evenodd" clip-rule="evenodd" d="M59.6125 35.7321C59.9678 35.7846 59.9471 35.972 60.2678 36.3233C60.4692 36.5437 60.3761 36.5872 60.4798 36.7924C60.602 37.0356 60.5707 36.8237 60.7804 37.1729C61.1976 37.8628 61.0348 38.6453 61.0348 39.4485C61.0348 39.8149 61.0984 39.6332 61.1201 40.0487L60.5473 39.7408V39.4485C59.989 39.4016 60.2623 39.1195 60.0949 38.637C59.9605 38.2493 59.8188 38.2309 59.772 37.6943C59.6894 36.7685 59.3799 36.3167 59.4569 35.4209L59.6125 35.7321Z" fill="#4BB5E6"/>
<path fill-rule="evenodd" clip-rule="evenodd" d="M63.3706 38.3779L62.8887 38.4945L62.9233 38.3969L62.6611 38.2625L61.5629 34.2204L61.7157 33.9019H62.0085C62.1363 34.2555 62.3521 34.1512 62.5328 34.8379C62.6567 35.3086 62.7264 35.5311 62.8268 36.003C62.9813 36.7286 63.355 37.6779 63.3706 38.3779Z" fill="#4BB5E6"/>
<path fill-rule="evenodd" clip-rule="evenodd" d="M64.2466 39.3506C63.5226 39.0884 63.4702 37.5864 63.2716 36.8228C62.9749 35.675 62.7601 35.1127 62.7914 33.9112L62.981 33.8047C63.179 34.6519 64.4842 38.7788 64.2466 39.3506Z" fill="#4BB5E6"/>
<path fill-rule="evenodd" clip-rule="evenodd" d="M58.8314 38.0299L58.91 38.4572L59.3802 38.8644C59.3802 39.623 59.6714 39.9605 59.6714 40.7129C59.6714 40.7714 59.537 40.9142 59.4773 41.0052C59.5096 41.3917 59.5749 41.2394 59.5749 41.4915C59.5749 41.8914 59.3908 41.9522 59.2988 42.515L58.3026 41.1028L57.9222 37.601L58.1888 37.064L58.8314 38.0299Z" fill="#4BB5E6"/>
<path fill-rule="evenodd" clip-rule="evenodd" d="M52.0773 41.296C51.9831 40.1631 49.7592 35.3284 52.6619 35.2637C53.2313 37.7067 54.8829 39.8134 52.0773 41.296Z" fill="#4BB5E6"/>
<path fill-rule="evenodd" clip-rule="evenodd" d="M64.6368 45.6758L64.9626 45.6714L64.3445 41.5891L64.4974 40.4346L66 45.4812C65.6029 45.7467 65.1639 45.7757 65.0462 46.2838L64.9263 45.7863L64.6368 45.6758Z" fill="#BCE1F7"/>
<path fill-rule="evenodd" clip-rule="evenodd" d="M62.3889 38.3009C62.3973 39.1638 62.9947 39.4845 63.0778 40.7143C63.1486 41.7551 63.162 42.6387 63.3706 43.535C63.1062 43.4396 62.5713 42.9192 62.3744 42.6821C61.9338 42.1517 62.0833 41.9961 61.8886 41.2214C61.7849 40.8053 61.3269 38.2691 61.3414 37.8574L62.3889 38.3009Z" fill="#2893D1"/>
<path fill-rule="evenodd" clip-rule="evenodd" d="M36.6936 32.0538C36.6936 36.077 37.5816 42.2699 32.8975 42.2699H31.1444C30.5532 42.2699 28.3528 41.682 27.423 41.6112C26.4112 41.5342 23.711 41.977 23.6028 41.1353C23.5549 40.7678 25.0067 35.0563 25.2092 34.0032C26.6588 26.4393 33.2556 32.0538 36.6936 32.0538Z" fill="#95D1F2"/>
<path fill-rule="evenodd" clip-rule="evenodd" d="M56.36 43.0489L55.2194 40.3214L55.095 39.1568C55.1497 39.0787 55.2897 38.917 55.2897 38.8651C55.2897 38.1188 55.3968 37.8081 55.5814 37.0166C56.1141 37.1588 56.828 39.0926 56.9858 39.7971C57.2385 40.9249 56.9245 42.4008 56.36 43.0489Z" fill="#4BB5E6"/>
<path fill-rule="evenodd" clip-rule="evenodd" d="M23.5503 30.6923C23.2374 34.4438 20.8897 43.826 16.9301 43.826H14.9824C10.373 43.826 7.33821 40.9848 4.07861 40.7131C4.39933 36.8617 7.17757 30.0648 9.53359 28.3591C13.472 25.5089 20.2768 30.6923 23.5503 30.6923Z" fill="#BCE1F7"/>
<path fill-rule="evenodd" clip-rule="evenodd" d="M47.1116 47.6214C47.1116 44.9525 45.9442 43.451 45.9565 41.3081C45.9726 38.3435 49.0878 37.2809 49.901 38.3039C50.4722 39.0217 51.5804 42.8943 51.2251 44.132C50.9206 45.194 48.2132 47.53 47.1116 47.6214Z" fill="#2893D1"/>
<path fill-rule="evenodd" clip-rule="evenodd" d="M64.3449 41.5886L64.9629 45.6709L64.6372 45.6754L64.1988 45.5293L63.9221 45.2783L63.1764 39.7401C63.3956 39.6894 63.4006 39.6431 63.6638 39.6431C64.0158 39.6431 64.2551 41.2021 64.3449 41.5886Z" fill="#95D1F2"/>
<path fill-rule="evenodd" clip-rule="evenodd" d="M60.5477 41.1032L62.2188 47.6753L61.1612 47.8684L59.7707 40.9079L60.2565 40.8115H60.5477V41.1032Z" fill="#2893D1"/>
<path fill-rule="evenodd" clip-rule="evenodd" d="M58.7951 50.735L57.0398 42.0694L57.8224 41.978C58.4895 42.248 59.629 44.7574 59.6714 45.8724C59.7467 47.8419 58.9329 49.0818 58.7951 50.735Z" fill="#2893D1"/>
<path fill-rule="evenodd" clip-rule="evenodd" d="M54.6077 41.2969C54.64 42.7197 56.1387 43.2429 56.0958 46.517C56.0835 47.463 54.5608 50.9808 54.0298 50.7432C53.0883 50.3243 51.005 42.2585 54.6077 41.2969Z" fill="#2893D1"/>
<path fill-rule="evenodd" clip-rule="evenodd" d="M62.598 44.6035C63.3855 44.8807 63.9556 46.1982 63.9556 46.4536V51.1237C63.9556 53.1964 63.6148 51.4958 62.8835 51.4155C62.8523 51.1249 62.2025 49.7807 62.2025 49.1772L62.1612 48.0054L62.598 44.6035Z" fill="#95D1F2"/>
<path fill-rule="evenodd" clip-rule="evenodd" d="M47.5985 61.535C47.5985 58.6034 46.2526 56.2352 46.4522 52.8088C46.5867 50.5058 49.9963 47.3861 51.4928 47.0381C51.7198 49.7611 54.15 52.1684 52.6998 55.7353C52.4198 56.4242 47.9872 61.4313 47.5985 61.535Z" fill="#95D1F2"/>
<path fill-rule="evenodd" clip-rule="evenodd" d="M64.9287 47.4267C64.9287 47.9494 65.2215 47.8863 65.2215 48.2053L65.2583 48.3047L65.0263 53.7508H64.7346L64.7312 54.1255L64.1941 54.217L64.0518 53.7551L64.2454 46.9287L64.9287 46.8433V47.4267Z" fill="#BCE1F7"/>
<path fill-rule="evenodd" clip-rule="evenodd" d="M62.3978 61.5348C59.295 61.4656 62.3002 54.6854 62.3002 52.2915H62.5925C62.7001 53.2721 64.1872 52.3104 63.5926 56.5969C63.3795 58.1319 62.462 60.7684 62.3978 61.5348Z" fill="#BCE1F7"/>
<path fill-rule="evenodd" clip-rule="evenodd" d="M60.8399 57.7399C60.2057 57.2753 59.0261 54.5138 59.0947 52.8913C59.1783 50.9112 60.1589 49.4816 60.1589 47.3286C63.7621 49.968 60.913 54.4714 60.8399 57.7399Z" fill="#95D1F2"/>
<path fill-rule="evenodd" clip-rule="evenodd" d="M44.4821 41.5892L45.7783 49.5307L45.553 49.5675V49.8586C45.553 51.6479 43.1334 52.788 41.6692 53.2744C40.6742 53.6052 36.7614 55.2773 36.4017 55.3074C36.4017 45.4795 33.4288 41.2969 44.4821 41.2969V41.5892Z" fill="#95D1F2"/>
<path fill-rule="evenodd" clip-rule="evenodd" d="M18.2364 51.9051C18.1238 47.4697 19.903 44.1187 24.2324 44.1187H25.7897L32.7936 44.8605L33.9688 44.8003V46.2594L34.313 52.2883L34.2611 55.1129C34.2611 61.7816 25.3658 60.854 18.58 60.854L18.2364 51.9051Z" fill="#BCE1F7"/>
<path fill-rule="evenodd" clip-rule="evenodd" d="M56.7505 48.7886C56.8844 50.3927 59.0803 51.6309 58.276 55.2737C57.9626 56.6977 55.7951 60.3377 55.7767 61.1453H55.4844C55.4844 59.1351 53.501 57.0982 53.9918 54.5062C54.1809 53.5045 56.2346 49.0613 56.7505 48.7886Z" fill="#95D1F2"/>
<path fill-rule="evenodd" clip-rule="evenodd" d="M58.6013 56.2808C58.8584 56.3494 60.105 58.6318 60.2422 59.0183C60.6784 60.2454 60.2796 61.1255 59.917 62.3626C59.5779 63.5217 57.7579 67.812 57.0702 67.9805C55.3885 68.391 55.2346 64.0298 55.9909 62.2399C56.441 61.1752 58.6013 57.3115 58.6013 56.2808Z" fill="#BCE1F7"/>
<path fill-rule="evenodd" clip-rule="evenodd" d="M44.8722 54.2373C44.8722 58.3157 47.6314 62.9781 44.9887 66.0296C43.7616 67.4475 37.8716 71.3613 35.5256 71.3613C35.4509 68.0393 31.9213 63.0249 35.0175 59.3732C36.4588 57.6737 37.4304 57.3173 39.6263 56.4873C40.342 56.2163 44.8047 54.2423 44.8722 54.2373Z" fill="#BCE1F7"/>
<path fill-rule="evenodd" clip-rule="evenodd" d="M48.3592 71.8062C46.6329 69.497 46.1633 66.1945 47.8344 63.5217C48.2404 62.8707 53.1231 57.0806 53.2453 58.0321C53.6558 61.232 56.0754 62.5679 53.6865 66.5481C53.0439 67.6179 49.2109 72.9457 48.3592 71.8062Z" fill="#BCE1F7"/>
</svg>
