<svg xmlns="http://www.w3.org/2000/svg">
	<symbol id="arrow" viewBox="0 0 24 24">
		<path fill-rule="evenodd" clip-rule="evenodd"
			d="M12.0015 13.6667L19.4049 5.66699C19.7906 5.25121 20.3287 5.00328 20.9062 5.00328C21.1908 5.00328 21.4705 5.06381 21.7287 5.1791C21.9865 5.29424 22.2164 5.46101 22.4073 5.66675C22.7916 6.08102 23 6.63319 23 7.20026C23 7.48203 22.9486 7.76192 22.8477 8.02431C22.7469 8.28669 22.598 8.52811 22.4073 8.73377L13.5033 18.3324C13.3131 18.5391 13.0831 18.7072 12.8252 18.823C12.5668 18.939 12.2866 19 12.0015 19C11.7164 19 11.4362 18.939 11.1779 18.823C10.92 18.7072 10.6903 18.5395 10.5001 18.3329L1.59655 8.7346C1.4048 8.52947 1.25469 8.2878 1.15328 8.02539C1.05178 7.76278 1 7.48246 1 7.20026C1 6.91805 1.05178 6.63774 1.15328 6.37513C1.25463 6.11287 1.40423 5.87175 1.59582 5.66669C1.78598 5.46024 2.01547 5.29275 2.27315 5.17702C2.53155 5.06096 2.81171 5 3.09682 5C3.38193 5 3.6621 5.06096 3.92049 5.17702C4.17839 5.29284 4.40804 5.46052 4.59829 5.6672M4.59829 5.6672L12.0015 13.6667L4.59829 5.6672Z"
			fill="#0587D6" />
	</symbol>
	<symbol id="arrow-spollers" viewBox="0 0 13 8">
		<path d="M6.5 7.5L0.00480902 0.75L12.9952 0.750001L6.5 7.5Z" fill="#444444" />
	</symbol>
	<symbol id="calendar" viewBox="0 0 30 30">
		<path
			d="M3.125 11.875H26.875M3.125 11.875V25C3.125 25.3315 3.2567 25.6495 3.49112 25.8839C3.72554 26.1183 4.04348 26.25 4.375 26.25H25.625C25.9565 26.25 26.2745 26.1183 26.5089 25.8839C26.7433 25.6495 26.875 25.3315 26.875 25V11.875M3.125 11.875V5.625C3.125 5.29348 3.2567 4.97554 3.49112 4.74112C3.72554 4.5067 4.04348 4.375 4.375 4.375H25.625C25.9565 4.375 26.2745 4.5067 26.5089 4.74112C26.7433 4.97554 26.875 5.29348 26.875 5.625V11.875"
			stroke="#0587D6" stroke-width="1.8" stroke-linejoin="round" />
		<path
			d="M10 2.5V7.5M20 2.5V7.5M17.5 21.25H21.25M8.75 21.25H12.5M17.5 16.25H21.25M8.75 16.25H12.5"
			stroke="#0587D6" stroke-width="1.8" stroke-linecap="round" stroke-linejoin="round" />
	</symbol>
	<symbol id="arrows-top-bottom" viewBox="0 0 24 24">
		<path
			d="M6.96896 3.96878L3.96896 6.96879C3.82823 7.10952 3.74916 7.30039 3.74916 7.49941C3.74916 7.69843 3.82823 7.88931 3.96896 8.03004C4.10969 8.17077 4.30056 8.24983 4.49958 8.24983C4.69861 8.24983 4.88948 8.17077 5.03021 8.03004L6.74958 6.30972L6.74958 19.4994C6.74958 19.6983 6.8286 19.8891 6.96925 20.0297C7.1099 20.1704 7.30067 20.2494 7.49958 20.2494C7.69849 20.2494 7.88926 20.1704 8.02991 20.0297C8.17057 19.8891 8.24958 19.6983 8.24958 19.4994L8.24958 6.30972L9.96896 8.03004C10.1097 8.17077 10.3006 8.24983 10.4996 8.24983C10.6986 8.24983 10.8895 8.17077 11.0302 8.03004C11.1709 7.88931 11.25 7.69843 11.25 7.49941C11.25 7.30039 11.1709 7.10952 11.0302 6.96879L8.03021 3.96878C7.96055 3.89905 7.87784 3.84373 7.78679 3.80599C7.69574 3.76825 7.59814 3.74882 7.49958 3.74882C7.40102 3.74882 7.30343 3.76825 7.21238 3.80599C7.12133 3.84373 7.03861 3.89905 6.96896 3.96878ZM12.969 17.03C12.8282 16.8893 12.7492 16.6984 12.7492 16.4994C12.7492 16.3004 12.8282 16.1095 12.969 15.9688C13.1097 15.8281 13.3006 15.749 13.4996 15.749C13.6986 15.749 13.8895 15.8281 14.0302 15.9688L15.7496 17.6891L15.7496 4.49941C15.7496 4.3005 15.8286 4.10973 15.9693 3.96908C16.1099 3.82843 16.3007 3.74941 16.4996 3.74941C16.6985 3.74941 16.8893 3.82843 17.0299 3.96908C17.1706 4.10973 17.2496 4.3005 17.2496 4.49941L17.2496 17.6891L18.969 15.9688C19.1097 15.8281 19.3006 15.749 19.4996 15.749C19.6986 15.749 19.8895 15.8281 20.0302 15.9688C20.1709 16.1095 20.25 16.3004 20.25 16.4994C20.25 16.6984 20.1709 16.8893 20.0302 17.03L17.0302 20.03C16.9606 20.0998 16.8778 20.1551 16.7868 20.1928C16.6957 20.2306 16.5981 20.25 16.4996 20.25C16.401 20.25 16.3034 20.2306 16.2124 20.1928C16.1213 20.1551 16.0386 20.0998 15.969 20.03L12.969 17.03Z"
			fill="#0587D6" />
	</symbol>
	<symbol id="calendar-2" viewBox="0 0 32 32">
		<path
			d="M3.33203 12.6665H28.6654M3.33203 12.6665V26.6665C3.33203 27.0201 3.47251 27.3593 3.72256 27.6093C3.9726 27.8594 4.31174 27.9998 4.66536 27.9998H27.332C27.6857 27.9998 28.0248 27.8594 28.2748 27.6093C28.5249 27.3593 28.6654 27.0201 28.6654 26.6665V12.6665M3.33203 12.6665V5.99984C3.33203 5.64622 3.47251 5.30708 3.72256 5.05703C3.9726 4.80698 4.31174 4.6665 4.66536 4.6665H27.332C27.6857 4.6665 28.0248 4.80698 28.2748 5.05703C28.5249 5.30708 28.6654 5.64622 28.6654 5.99984V12.6665"
			stroke="#C2C2C2" stroke-width="1.6" stroke-linejoin="round" />
		<path
			d="M10.6654 2.6665V7.99984M21.332 2.6665V7.99984M18.6654 22.6665H22.6654M9.33203 22.6665H13.332M18.6654 17.3332H22.6654M9.33203 17.3332H13.332"
			stroke="#C2C2C2" stroke-width="1.6" stroke-linecap="round" stroke-linejoin="round" />
	</symbol>
	<symbol id="check" viewBox="0 0 23 16">
		<path fill-rule="evenodd" clip-rule="evenodd"
			d="M19.931 0.318608C19.4852 -0.106202 18.7669 -0.106203 18.3211 0.318607L9.41128 8.80806C9.20628 9.0034 8.86915 9.0034 8.66414 8.80806L4.67135 5.00359C4.23414 4.587 3.53325 4.57794 3.08453 4.98218L0.862398 6.98406C0.388699 7.4109 0.377694 8.13183 0.839354 8.57172L8.30095 15.6814C8.74679 16.1062 9.465 16.1062 9.91084 15.6814L22.1607 4.00933C22.6131 3.57822 22.6131 2.87422 22.1607 2.44312L19.931 0.318608Z"
			fill="white" />
	</symbol>
	<symbol id="check-soc" viewBox="0 0 40 40">
		<path
			d="M30.625 0H9.375C4.19733 0 0 4.19733 0 9.375V30.625C0 35.8027 4.19733 40 9.375 40H30.625C35.8027 40 40 35.8027 40 30.625V9.375C40 4.19733 35.8027 0 30.625 0Z"
			fill="#0CBC8D" />
		<g clip-path="url(#clip0_734_28192)">
			<path
				d="M19.3772 32.9861C18.2931 32.9322 17.2197 32.7452 16.1813 32.4293C16.0611 32.3841 15.9398 32.3422 15.8173 32.3036C12.3474 31.1618 9.40508 28.4101 7.98916 24.9825C7.40858 23.5838 7.07855 22.0939 7.01416 20.5809C7.00549 20.4086 7.00116 18.1 7.00007 14.3019C7.00007 7.76937 6.99466 8.23195 7.07591 7.97845C7.24924 7.42704 7.72916 7.05437 8.32608 7.00562C8.78216 6.96879 9.08441 7.10095 10.0627 7.76287C10.6715 8.17454 11.2749 8.60787 12.0083 9.15929C12.3496 9.41604 12.3907 9.44204 12.4157 9.42687L12.7948 9.1777C13.4232 8.76495 13.9973 8.44429 14.6365 8.15395C15.5771 7.7286 16.5653 7.41763 17.5799 7.2277C18.3088 7.08795 19.0489 7.01543 19.791 7.01104C21.026 6.9937 22.0411 7.10962 23.2057 7.40104C27.0515 8.36304 30.2885 11.0963 31.9027 14.746C32.4357 15.9518 32.8181 17.3785 32.9264 18.5615C32.9622 18.958 32.9687 19.0274 32.9838 19.2235C32.9925 19.3372 33.0001 19.6633 33.0001 19.9482C33.0001 20.7965 32.9297 21.649 32.817 22.1842C32.7981 22.2777 32.7815 22.3716 32.7672 22.4659C32.7065 22.8754 32.5353 23.5351 32.3349 24.1288C32.1128 24.7929 31.9373 25.211 31.5939 25.8979C30.8809 27.3011 29.9179 28.5625 28.7523 29.6202C28.2757 30.0492 27.8542 30.384 27.3873 30.7068C26.6864 31.1889 25.9714 31.5865 25.1784 31.9353C24.5284 32.2224 23.6184 32.5192 22.9023 32.6785C22.4811 32.7741 22.0552 32.8472 21.6262 32.8973C20.8803 32.9904 20.128 33.0201 19.3772 32.9861ZM18.7163 26.5728C19.0348 26.5078 19.4508 26.3464 19.6523 26.2077C19.8083 26.1005 20.116 25.8004 21.8883 24.027C22.5205 23.389 23.1575 22.756 23.7993 22.1279C23.8177 22.1279 25.6269 20.3187 25.6269 20.2981C25.6269 20.2765 27.4036 18.5128 27.4263 18.5128C27.4372 18.5128 27.4946 18.4619 27.5542 18.398C28.0601 17.8617 28.293 17.3612 28.3298 16.722C28.358 16.253 28.2648 15.7373 28.0947 15.4264C27.8518 14.9633 27.4826 14.5787 27.0298 14.317C26.7254 14.1405 26.4752 14.0646 26.0678 14.0245C25.7363 13.991 25.3225 14.0245 25.0408 14.1058C24.7776 14.1816 24.3876 14.4026 24.1167 14.6269C24.0712 14.6648 22.7312 15.9973 21.1397 17.5876L18.2462 20.4801L17.0621 19.2993C16.4121 18.6493 15.8487 18.0925 15.8108 18.0621C15.3945 17.7359 14.8892 17.5433 14.3613 17.5096C13.9237 17.4955 13.3755 17.6071 13.0353 17.7805C12.7708 17.9345 12.5302 18.1265 12.3214 18.3503C12.2044 18.4803 12.0105 18.737 12.0072 18.7674C12.004 18.7999 11.9975 18.815 11.9368 18.9407C11.7895 19.2493 11.7069 19.5848 11.6942 19.9265C11.6822 20.1746 11.6833 20.2136 11.7147 20.4585C11.7635 20.8409 11.9747 21.3045 12.2672 21.6664C12.3214 21.7346 13.3181 22.741 14.4816 23.9024C16.1142 25.5328 16.6266 26.0365 16.7284 26.1113C17.0827 26.3713 17.4683 26.5316 17.9212 26.6053C18.1183 26.6378 18.4628 26.6226 18.7163 26.5728Z"
				fill="white" />
		</g>
		<defs>
			<clipPath id="clip0_734_28192">
				<rect width="26" height="26" fill="white" transform="translate(7 7)" />
			</clipPath>
		</defs>
	</symbol>
	<symbol id="clock" viewBox="0 0 28 28">
		<path
			d="M14.5 14L20.6254 18.1694C21.1725 18.5418 21.5 19.1608 21.5 19.8227V22.5C21.5 22.7761 21.2761 23 21 23H8C7.72386 23 7.5 22.7761 7.5 22.5V19.8227C7.5 19.1608 7.82746 18.5418 8.37462 18.1694L14.5 14ZM14.5 14L20.6254 9.83062C21.1725 9.45819 21.5 8.83917 21.5 8.17729V5.5C21.5 5.22386 21.2761 5 21 5H8C7.72386 5 7.5 5.22386 7.5 5.5V8.17729C7.5 8.83917 7.82746 9.45819 8.37462 9.83062L14.5 14Z"
			stroke="url(#paint0_linear_734_28154)" stroke-width="2" stroke-linecap="round"
			stroke-linejoin="round" />
		<path
			d="M18.5 20.7771V22.85C18.5 22.9328 18.4328 23 18.35 23H10.65C10.5672 23 10.5 22.9328 10.5 22.85V20.7771C10.5 20.6047 10.5888 20.4445 10.735 20.3531L14.076 18.265C14.3354 18.1029 14.6646 18.1029 14.924 18.265L18.265 20.3531C18.4112 20.4445 18.5 20.6047 18.5 20.7771Z"
			fill="url(#paint1_linear_734_28154)" />
		<defs>
			<linearGradient id="paint0_linear_734_28154" x1="27.7222" y1="34.5" x2="-2.90988"
				y2="12.0515" gradientUnits="userSpaceOnUse">
				<stop stop-color="#017AC3" />
				<stop offset="1" stop-color="#65CFF0" />
			</linearGradient>
			<linearGradient id="paint1_linear_734_28154" x1="22.0556" y1="26.1944" x2="13.8347"
				y2="13.801" gradientUnits="userSpaceOnUse">
				<stop stop-color="#017AC3" />
				<stop offset="1" stop-color="#65CFF0" />
			</linearGradient>
		</defs>
	</symbol>
	<symbol id="coffe" viewBox="0 0 25 24">
		<path
			d="M22.9998 5C22.9998 4.20435 22.6837 3.44129 22.1211 2.87868C21.5585 2.31607 20.7954 2 19.9998 2H19.8288C19.6212 1.41549 19.2379 0.909511 18.7314 0.551443C18.2249 0.193376 17.62 0.000756748 16.9998 0L6.99977 0C6.37949 0.000756748 5.77464 0.193376 5.26815 0.551443C4.76167 0.909511 4.37835 1.41549 4.17077 2H3.99977C3.39363 2.00399 2.80293 2.1915 2.30546 2.53783C1.808 2.88415 1.42711 3.37305 1.21297 3.94011C0.998837 4.50717 0.961498 5.1258 1.10587 5.7145C1.25025 6.3032 1.56957 6.83435 2.02177 7.238L3.56977 19.62C3.72232 20.8286 4.31027 21.9402 5.22349 22.7464C6.13671 23.5527 7.31255 23.9984 8.53077 24H15.4688C16.6869 23.9982 17.8626 23.5524 18.7758 22.7462C19.689 21.94 20.277 20.8285 20.4298 19.62L21.9778 7.238C22.2976 6.95918 22.5542 6.6153 22.7304 6.22935C22.9067 5.84341 22.9985 5.42428 22.9998 5ZM19.1168 14H15.9168C15.0248 8.713 8.96977 8.716 8.07877 14H4.87877L4.12877 8H19.8668L19.1168 14ZM13.9998 15C13.8948 18.954 10.1048 18.953 9.99977 15C10.1048 11.046 13.8998 11.047 13.9998 15ZM3.99977 4H4.99977C5.26498 4 5.51934 3.89464 5.70687 3.70711C5.89441 3.51957 5.99977 3.26522 5.99977 3C5.99977 2.73478 6.10512 2.48043 6.29266 2.29289C6.4802 2.10536 6.73455 2 6.99977 2H16.9998C17.265 2 17.5193 2.10536 17.7069 2.29289C17.8944 2.48043 17.9998 2.73478 17.9998 3C17.9998 3.26522 18.1051 3.51957 18.2927 3.70711C18.4802 3.89464 18.7346 4 18.9998 4H19.9998C20.265 4 20.5193 4.10536 20.7069 4.29289C20.8944 4.48043 20.9998 4.73478 20.9998 5C20.9998 5.26522 20.8944 5.51957 20.7069 5.70711C20.5193 5.89464 20.265 6 19.9998 6H3.99977C3.73455 6 3.4802 5.89464 3.29266 5.70711C3.10512 5.51957 2.99977 5.26522 2.99977 5C2.99977 4.73478 3.10512 4.48043 3.29266 4.29289C3.4802 4.10536 3.73455 4 3.99977 4ZM18.4448 19.372C18.3541 20.0974 18.0017 20.7648 17.4537 21.2487C16.9057 21.7326 16.1998 21.9998 15.4688 22H8.53077C7.79952 22 7.09343 21.733 6.54522 21.2491C5.99702 20.7651 5.64444 20.0976 5.55377 19.372L5.13277 16H8.08077C8.97277 21.287 15.0288 21.284 15.9188 16H18.8668L18.4448 19.372Z"
			fill="url(#paint0_linear_1723_23102)" />
		<defs>
			<linearGradient id="paint0_linear_1723_23102" x1="32.7688" y1="39.3333" x2="-9.60168"
				y2="2.77058" gradientUnits="userSpaceOnUse">
				<stop stop-color="#017AC3" />
				<stop offset="1" stop-color="#65CFF0" />
			</linearGradient>
		</defs>
	</symbol>
	<symbol id="conference" viewBox="0 0 20 20">
		<path fill-rule="evenodd" clip-rule="evenodd"
			d="M3.10136 2C1.93054 2 1 2.90519 1 4V10C1 11.0948 1.93054 12 3.10136 12H16.8986C18.0695 12 19 11.0948 19 10V4C19 2.9052 18.0695 2 16.8986 2H3.10136ZM2.69412 4C2.69412 3.76932 2.88672 3.6 3.10136 3.6H16.8986C17.1133 3.6 17.3059 3.76931 17.3059 4V10C17.3059 10.2307 17.1133 10.4 16.8986 10.4H3.10136C2.88672 10.4 2.69412 10.2307 2.69412 10V4ZM7 13.9091C7 13.407 6.61279 13 6.13514 13C5.65748 13 5.27027 13.407 5.27027 13.9091V15.3091C5.27027 15.6123 4.89888 16.1818 4.01622 16.1818H3.86486C3.38721 16.1818 3 16.5888 3 17.0909C3 17.593 3.38721 18 3.86486 18H4.01622C5.47405 18 7 16.9741 7 15.3091V13.9091ZM14.7297 13.9091C14.7297 13.407 14.3425 13 13.8649 13C13.3872 13 13 13.407 13 13.9091V15.3091C13 16.9741 14.5259 18 15.9838 18H16.1351C16.6128 18 17 17.593 17 17.0909C17 16.5888 16.6128 16.1818 16.1351 16.1818H15.9838C15.1011 16.1818 14.7297 15.6123 14.7297 15.3091V13.9091ZM10 13C10.5523 13 11 13.3705 11 13.8276V18.1724C11 18.6295 10.5523 19 10 19C9.44771 19 9 18.6295 9 18.1724V13.8276C9 13.3705 9.44771 13 10 13Z"
			fill="url(#paint0_linear_4025_21045)" />
		<defs>
			<linearGradient id="paint0_linear_4025_21045" x1="27" y1="29.8611" x2="-3.33903"
				y2="-0.406639" gradientUnits="userSpaceOnUse">
				<stop stop-color="#017AC3" />
				<stop offset="1" stop-color="#65CFF0" />
			</linearGradient>
		</defs>
	</symbol>
	<symbol id="e-soc" viewBox="0 0 40 40">
		<path
			d="M30.625 0H9.375C4.19733 0 0 4.19733 0 9.375V30.625C0 35.8027 4.19733 40 9.375 40H30.625C35.8027 40 40 35.8027 40 30.625V9.375C40 4.19733 35.8027 0 30.625 0Z"
			fill="#F07C00" />
		<path
			d="M13.0761 32.9366C12.2001 32.7983 11.3575 32.4932 10.5926 32.0374C8.86744 31.031 7.57993 29.2284 7.16675 27.2427C7.00597 26.466 6.9857 25.4845 7.00701 19.4353C7.02723 12.9257 7.01231 13.2616 7.31691 12.1891C7.46811 11.655 7.88878 10.7374 8.19334 10.2749C9.31686 8.57405 10.9696 7.48208 13.0175 7.08671C13.4264 7.00764 14.0185 7.00003 19.4668 7.00003C26.1237 7.00003 25.9043 6.99028 26.9916 7.3402C28.0473 7.68765 29.0105 8.27699 29.807 9.06282C30.6035 9.84865 31.212 10.81 31.5857 11.8728C31.9372 12.8878 31.9542 13.0503 31.9787 15.7239L32 18.1397L31.5836 18.43C30.9894 18.8427 30.2099 19.5783 29.1172 20.7591C27.8585 22.1198 26.5869 23.3807 25.9416 23.9083C24.5476 25.0468 23.2707 25.6968 21.9736 25.9276C21.2985 26.0467 20.1824 26.0001 19.5222 25.8246C18.9333 25.6686 18.9716 25.6426 18.749 26.3273C18.5682 26.8691 18.4544 27.4317 18.4104 28.0021L18.3774 28.443L18.2219 28.4105C16.928 28.1494 15.6458 27.0185 15.1506 25.7023C14.9832 25.2819 14.8895 24.835 14.8737 24.3817L14.8567 24.0134L14.5276 23.7057C13.8418 23.0666 13.3956 22.2845 13.2551 21.473C13.0293 20.1806 13.6171 18.7193 14.8929 17.4041C16.239 16.0142 18.223 14.9234 20.1676 14.5009C20.8683 14.3492 22.1036 14.3091 22.7266 14.4196C23.9385 14.6341 24.9278 15.2571 25.5434 16.1952C25.7372 16.4887 25.7511 16.531 25.7319 16.7964C25.727 16.9915 25.6584 17.1794 25.537 17.3305C25.0418 18.0357 23.569 18.7907 21.9844 19.1504C19.1889 19.7841 17.4116 18.9966 17.6895 17.2449C17.7172 17.0683 17.7321 16.9156 17.7225 16.9058C17.6884 16.8712 17.4105 17.0185 17.1101 17.2308C16.6 17.5926 16.1485 18.2968 15.992 18.9717C15.9536 19.1407 15.9387 19.4115 15.9558 19.6759C15.9771 20.0344 16.0122 20.1677 16.1602 20.4732C16.2582 20.6747 16.4531 20.9607 16.5947 21.1112L16.8503 21.3832L16.7481 21.5153C16.4466 21.9172 16.2038 22.3612 16.0271 22.8337C15.8267 23.4689 15.7882 24.1455 15.9153 24.7999C16.025 25.2994 16.3636 25.9862 16.7023 26.3902C16.96 26.699 17.551 27.2179 17.6458 27.2179C17.6713 27.2179 17.6926 27.1659 17.6926 27.1031C17.6937 26.8539 17.8886 26.049 18.0398 25.6655C18.4903 24.5194 19.4785 23.5423 21.043 22.6973C21.3039 22.5565 22.0568 22.1881 22.717 21.8772C24.1653 21.1948 24.9566 20.7777 25.3911 20.4635C26.6435 19.5611 27.4176 18.2265 27.67 16.5366C27.7616 15.9191 27.7616 14.7664 27.67 14.1457C27.2781 11.5046 25.3325 9.70848 22.5392 9.41162C19.4242 9.07906 15.4595 11.5273 13.0165 15.2907C11.828 17.1215 11.0251 19.1527 10.6875 21.1872C10.5565 21.9758 10.5075 23.4404 10.5884 24.1663C10.794 26.0122 11.4638 27.5007 12.615 28.6685C13.1915 29.258 13.8656 29.7395 14.6064 30.0909C17.1282 31.315 19.9204 31.3421 22.3751 30.1678C23.4358 29.6597 24.4773 28.8721 25.5945 27.7304C26.6807 26.62 27.4155 25.6937 29.4197 22.901C30.5272 21.3594 31.4047 20.3357 31.8392 20.079L31.999 19.9858L31.9787 23.3343C31.9596 26.5766 31.9553 26.7001 31.8477 27.1919C31.2088 30.0931 29.1428 32.2141 26.3154 32.8706L25.817 32.9865L19.667 32.9974C14.6256 33.006 13.4371 32.9952 13.0751 32.9367L13.0761 32.9366Z"
			fill="white" />
	</symbol>
	<symbol id="day" viewBox="0 0 24 24">
		<path
			d="M11.9993 20.4C12.3176 20.4 12.6229 20.5264 12.8479 20.7515C13.073 20.9765 13.1994 21.2817 13.1994 21.6V22.8C13.1994 23.1183 13.073 23.4235 12.8479 23.6485C12.6229 23.8736 12.3176 24 11.9993 24C11.6811 24 11.3758 23.8736 11.1508 23.6485C10.9257 23.4235 10.7993 23.1183 10.7993 22.8V21.6C10.7993 21.2817 10.9257 20.9765 11.1508 20.7515C11.3758 20.5264 11.6811 20.4 11.9993 20.4ZM19.6366 17.94L20.485 18.7884C20.7036 19.0147 20.8246 19.3178 20.8218 19.6325C20.8191 19.9471 20.6929 20.2481 20.4704 20.4706C20.2479 20.6931 19.9469 20.8193 19.6322 20.822C19.3176 20.8247 19.0144 20.7038 18.7881 20.4852L17.9397 19.6368C17.7211 19.4105 17.6001 19.1074 17.6028 18.7927C17.6056 18.4781 17.7318 18.1771 17.9543 17.9546C18.1768 17.7321 18.4778 17.6059 18.7924 17.6032C19.1071 17.6005 19.4102 17.7214 19.6366 17.94ZM4.36211 17.94C4.57807 17.7248 4.86786 17.5998 5.17262 17.5905C5.47737 17.5812 5.77425 17.6883 6.00294 17.8899C6.23163 18.0915 6.37499 18.3727 6.4039 18.6762C6.43282 18.9797 6.34512 19.2828 6.15861 19.524L6.05901 19.6368L5.21056 20.4852C4.9946 20.7004 4.70481 20.8254 4.40005 20.8347C4.0953 20.844 3.79843 20.7369 3.56973 20.5353C3.34104 20.3337 3.19768 20.0525 3.16877 19.749C3.13985 19.4455 3.22756 19.1424 3.41406 18.9012L3.51367 18.7884L4.36211 17.94ZM2.3988 10.8C2.70468 10.8003 2.99888 10.9175 3.22129 11.1274C3.44371 11.3374 3.57755 11.6243 3.59548 11.9297C3.6134 12.235 3.51406 12.5357 3.31774 12.7702C3.12142 13.0047 2.84294 13.1555 2.53921 13.1916L2.3988 13.2H1.19874C0.892865 13.1997 0.598665 13.0825 0.376249 12.8726C0.153834 12.6626 0.0199897 12.3757 0.00206416 12.0703C-0.0158614 11.765 0.0834847 11.4643 0.279804 11.2298C0.476123 10.9953 0.754597 10.8445 1.05833 10.8084L1.19874 10.8H2.3988ZM22.7999 10.8C23.1182 10.8 23.4235 10.9264 23.6485 11.1515C23.8736 11.3765 24 11.6817 24 12C24 12.3183 23.8736 12.6235 23.6485 12.8485C23.4235 13.0736 23.1182 13.2 22.7999 13.2H21.5999C21.2816 13.2 20.9763 13.0736 20.7513 12.8485C20.5262 12.6235 20.3998 12.3183 20.3998 12C20.3998 11.6817 20.5262 11.3765 20.7513 11.1515C20.9763 10.9264 21.2816 10.8 21.5999 10.8H22.7999ZM3.51367 3.5148C3.72031 3.30819 3.99524 3.18407 4.28689 3.16573C4.57854 3.1474 4.86686 3.2361 5.09775 3.4152L5.21056 3.5148L6.05901 4.3632C6.27424 4.57915 6.39919 4.86892 6.4085 5.17366C6.41781 5.4784 6.31076 5.77526 6.10911 6.00393C5.90746 6.23261 5.62632 6.37597 5.3228 6.40488C5.01927 6.43379 4.71612 6.34609 4.47492 6.1596L4.36211 6.06L3.51367 5.2116C3.28869 4.98657 3.1623 4.6814 3.1623 4.3632C3.1623 4.045 3.28869 3.73983 3.51367 3.5148ZM20.485 3.5148C20.71 3.73983 20.8364 4.045 20.8364 4.3632C20.8364 4.6814 20.71 4.98657 20.485 5.2116L19.6366 6.06C19.5259 6.17461 19.3934 6.26603 19.247 6.32892C19.1006 6.39181 18.9431 6.42492 18.7838 6.4263C18.6244 6.42769 18.4664 6.39732 18.3189 6.33699C18.1715 6.27665 18.0375 6.18755 17.9248 6.07487C17.8121 5.9622 17.723 5.82822 17.6627 5.68075C17.6023 5.53327 17.572 5.37525 17.5733 5.21592C17.5747 5.05658 17.6078 4.89912 17.6707 4.75272C17.7336 4.60631 17.825 4.4739 17.9397 4.3632L18.7881 3.5148C19.0132 3.28983 19.3183 3.16346 19.6366 3.16346C19.9548 3.16346 20.26 3.28983 20.485 3.5148ZM11.9993 0C12.3176 0 12.6229 0.126428 12.8479 0.351472C13.073 0.576515 13.1994 0.88174 13.1994 1.2V2.4C13.1994 2.71826 13.073 3.02348 12.8479 3.24853C12.6229 3.47357 12.3176 3.6 11.9993 3.6C11.6811 3.6 11.3758 3.47357 11.1508 3.24853C10.9257 3.02348 10.7993 2.71826 10.7993 2.4V1.2C10.7993 0.88174 10.9257 0.576515 11.1508 0.351472C11.3758 0.126428 11.6811 0 11.9993 0Z"
			fill="url(#paint0_linear_4025_15903)" />
		<circle cx="12" cy="12" r="6" fill="url(#paint1_linear_4025_15903)" />
		<defs>
			<linearGradient id="paint0_linear_4025_15903" x1="34.6667" y1="39.3333" x2="-8.08929"
				y2="-0.952421" gradientUnits="userSpaceOnUse">
				<stop stop-color="#017AC3" />
				<stop offset="1" stop-color="#65CFF0" />
			</linearGradient>
			<linearGradient id="paint1_linear_4025_15903" x1="23.3333" y1="25.6667" x2="1.95535"
				y2="5.52379" gradientUnits="userSpaceOnUse">
				<stop stop-color="#017AC3" />
				<stop offset="1" stop-color="#65CFF0" />
			</linearGradient>
		</defs>
	</symbol>
	<symbol id="fly" viewBox="0 0 27 20">
		<path
			d="M25 1.50001H21.78C21.5575 1.49887 21.3412 1.57375 21.1667 1.71238C20.9922 1.85099 20.87 2.04508 20.82 2.2627L19.8 6.27687L9.8 4.26979C8.73594 4.06037 7.63898 4.08883 6.5872 4.35314C5.5352 4.61746 4.5544 5.11114 3.7142 5.79907C2.874 6.48698 2.1952 7.35223 1.7262 8.33329C1.257 9.31436 1.0092 10.3871 1 11.4752C1 12.0075 1.2108 12.518 1.5858 12.8944C1.9608 13.2708 2.4696 13.4823 3 13.4823H11.8L13.8 16.6535C14.1614 17.2189 14.6584 17.6841 15.2454 18.0067C15.8324 18.3292 16.4907 18.4988 17.16 18.5H19.36C19.531 18.4986 19.6988 18.4532 19.8474 18.3683C19.9959 18.2832 20.1203 18.1616 20.2086 18.0145C20.2968 17.8676 20.3461 17.7004 20.3516 17.5288C20.3571 17.3574 20.3187 17.1872 20.24 17.0348L18.48 13.5425H24C24.5304 13.5425 25.0391 13.3311 25.4142 12.9546C25.7893 12.5783 26 12.0677 26 11.5354V2.50356C26 2.2374 25.8946 1.98213 25.7071 1.79393C25.5196 1.60573 25.2652 1.50001 25 1.50001Z"
			stroke="url(#paint0_linear_1723_23095)" stroke-width="2" stroke-linecap="round"
			stroke-linejoin="round" />
		<defs>
			<linearGradient id="paint0_linear_1723_23095" x1="-10.1111" y1="29.3611" x2="18.6829"
				y2="-10.5366" gradientUnits="userSpaceOnUse">
				<stop stop-color="#017AC3" />
				<stop offset="1" stop-color="#65CFF0" />
			</linearGradient>
		</defs>
	</symbol>
	<symbol id="instagram" viewBox="0 0 40 40">
		<g clip-path="url(#clip0_734_28175)">
			<path
				d="M30.625 0H9.375C4.19733 0 0 4.19733 0 9.375V30.625C0 35.8027 4.19733 40 9.375 40H30.625C35.8027 40 40 35.8027 40 30.625V9.375C40 4.19733 35.8027 0 30.625 0Z"
				fill="url(#paint0_radial_734_28175)" />
			<path
				d="M30.625 0H9.375C4.19733 0 0 4.19733 0 9.375V30.625C0 35.8027 4.19733 40 9.375 40H30.625C35.8027 40 40 35.8027 40 30.625V9.375C40 4.19733 35.8027 0 30.625 0Z"
				fill="url(#paint1_radial_734_28175)" />
			<path
				d="M20.0012 6.99976C16.4706 6.99976 16.0275 7.01523 14.6409 7.07828C13.2569 7.14171 12.3122 7.36076 11.4857 7.68225C10.6305 8.01427 9.90524 8.45847 9.1827 9.18126C8.45951 9.90393 8.0153 10.6292 7.68224 11.4839C7.35984 12.3107 7.14053 13.2558 7.07826 14.6391C7.01625 16.0258 7 16.4691 7 19.9998C7 23.5304 7.0156 23.9721 7.07852 25.3587C7.14222 26.7427 7.36127 27.6874 7.6825 28.5139C8.01478 29.369 8.45899 30.0943 9.18179 30.8168C9.9042 31.54 10.6295 31.9852 11.484 32.3173C12.3112 32.6387 13.256 32.8578 14.6397 32.9212C16.0264 32.9843 16.4692 32.9998 19.9996 32.9998C23.5305 32.9998 23.9723 32.9843 25.3589 32.9212C26.7428 32.8578 27.6886 32.6387 28.5158 32.3173C29.3705 31.9852 30.0948 31.54 30.817 30.8168C31.5402 30.0943 31.9843 29.369 32.3175 28.5143C32.637 27.6874 32.8565 26.7424 32.9215 25.359C32.9837 23.9724 33 23.5304 33 19.9998C33 16.4691 32.9837 16.0261 32.9215 14.6394C32.8565 13.2554 32.637 12.3109 32.3175 11.4843C31.9843 10.6292 31.5402 9.90393 30.817 9.18126C30.094 8.45821 29.3708 8.01401 28.515 7.68238C27.6862 7.36076 26.741 7.14158 25.357 7.07828C23.9703 7.01523 23.5288 6.99976 19.9971 6.99976H20.0012ZM18.8349 9.34246C19.1811 9.34194 19.5674 9.34246 20.0012 9.34246C23.4723 9.34246 23.8836 9.35494 25.2543 9.41721C26.5218 9.47519 27.2098 9.68696 27.668 9.86493C28.2748 10.1005 28.7073 10.3822 29.162 10.8373C29.617 11.2923 29.8986 11.7256 30.1348 12.3323C30.3128 12.7899 30.5248 13.4779 30.5825 14.7453C30.6448 16.1158 30.6583 16.5274 30.6583 19.9968C30.6583 23.4662 30.6448 23.8779 30.5825 25.2482C30.5245 26.5157 30.3128 27.2036 30.1348 27.6614C29.8992 28.2681 29.617 28.7 29.162 29.1548C28.707 29.6098 28.275 29.8914 27.668 30.127C27.2103 30.3058 26.5218 30.517 25.2543 30.575C23.8839 30.6373 23.4723 30.6508 20.0012 30.6508C16.5299 30.6508 16.1185 30.6373 14.7481 30.575C13.4806 30.5165 12.7927 30.3048 12.334 30.1268C11.7274 29.8911 11.294 29.6095 10.839 29.1545C10.384 28.6995 10.1024 28.2673 9.86624 27.6603C9.68827 27.2026 9.47624 26.5146 9.41852 25.2472C9.35625 23.8767 9.34377 23.4651 9.34377 19.9935C9.34377 16.522 9.35625 16.1125 9.41852 14.7421C9.4765 13.4746 9.68827 12.7866 9.86624 12.3284C10.1019 11.7217 10.384 11.2884 10.8392 10.8334C11.2942 10.3784 11.7274 10.0967 12.3342 9.86064C12.7924 9.68189 13.4806 9.47064 14.7481 9.4124C15.9474 9.35819 16.4121 9.34194 18.8349 9.33921V9.34246ZM26.9406 11.501C26.0793 11.501 25.3806 12.1991 25.3806 13.0604C25.3806 13.9217 26.0793 14.6204 26.9406 14.6204C27.8018 14.6204 28.5006 13.9217 28.5006 13.0604C28.5006 12.1992 27.8018 11.5004 26.9406 11.5004V11.501ZM20.0012 13.3237C16.3144 13.3237 13.3251 16.3129 13.3251 19.9998C13.3251 23.6866 16.3144 26.6744 20.0012 26.6744C23.6881 26.6744 26.6763 23.6866 26.6763 19.9998C26.6763 16.313 23.6878 13.3237 20.0009 13.3237H20.0012ZM20.0012 15.6664C22.3943 15.6664 24.3346 17.6064 24.3346 19.9998C24.3346 22.3929 22.3943 24.3331 20.0012 24.3331C17.6079 24.3331 15.6679 22.3929 15.6679 19.9998C15.6679 17.6064 17.6079 15.6664 20.0012 15.6664Z"
				fill="white" />
		</g>
		<defs>
			<radialGradient id="paint0_radial_734_28175" cx="0" cy="0" r="1"
				gradientUnits="userSpaceOnUse"
				gradientTransform="translate(10.625 43.0808) rotate(-90) scale(39.643 36.8711)">
				<stop stop-color="#FFDD55" />
				<stop offset="0.1" stop-color="#FFDD55" />
				<stop offset="0.5" stop-color="#FF543E" />
				<stop offset="1" stop-color="#C837AB" />
			</radialGradient>
			<radialGradient id="paint1_radial_734_28175" cx="0" cy="0" r="1"
				gradientUnits="userSpaceOnUse"
				gradientTransform="translate(-6.70016 2.88141) rotate(78.681) scale(17.7206 73.045)">
				<stop stop-color="#3771C8" />
				<stop offset="0.128" stop-color="#3771C8" />
				<stop offset="1" stop-color="#6600FF" stop-opacity="0" />
			</radialGradient>
			<clipPath id="clip0_734_28175">
				<rect width="40" height="40" fill="white" />
			</clipPath>
		</defs>
	</symbol>
	<symbol id="location" viewBox="0 0 24 24">
		<path
			d="M19.3838 2.0824C20.3433 1.71188 21.2874 2.65598 20.9181 3.61671L14.5245 20.2388C14.1113 21.3147 12.5616 21.2292 12.2683 20.1141L10.4015 13.0209C10.3747 12.9193 10.3215 12.8267 10.2472 12.7524C10.173 12.6782 10.0803 12.6249 9.97877 12.5981L2.8858 10.7313C1.76954 10.438 1.68642 8.88824 2.76111 8.47497L19.3838 2.0824Z"
			fill="#C2C2C2" />
	</symbol>
	<symbol id="map-location" viewBox="0 0 24 24">
		<path
			d="M12 11.45C11.2422 11.45 10.5155 11.1603 9.9797 10.6445C9.44388 10.1288 9.14286 9.42935 9.14286 8.7C9.14286 7.97065 9.44388 7.27118 9.9797 6.75546C10.5155 6.23973 11.2422 5.95 12 5.95C12.7578 5.95 13.4845 6.23973 14.0203 6.75546C14.5561 7.27118 14.8571 7.97065 14.8571 8.7C14.8571 9.42935 14.5561 10.1288 14.0203 10.6445C13.4845 11.1603 12.7578 11.45 12 11.45ZM4 8.7C4 14.475 12 23 12 23C12 23 20 14.475 20 8.7C20 4.443 16.4229 1 12 1C7.57714 1 4 4.443 4 8.7Z"
			fill="#C2C2C2" />
	</symbol>
	<symbol id="night" viewBox="0 0 24 24">
		<path
			d="M10.5 4.27757C10.5976 4.39618 10.6574 4.54134 10.6717 4.69429C10.6859 4.84724 10.654 5.00095 10.58 5.13557C10.0019 6.19704 9.69993 7.38686 9.702 8.59557C9.702 12.6166 12.98 15.8726 17.02 15.8726C17.547 15.8726 18.06 15.8176 18.553 15.7126C18.7041 15.6798 18.8615 15.6924 19.0056 15.7486C19.1497 15.8048 19.274 15.9021 19.363 16.0286C19.457 16.16 19.5049 16.3188 19.4993 16.4803C19.4937 16.6418 19.4349 16.797 19.332 16.9216C18.5477 17.885 17.5582 18.6613 16.4358 19.1938C15.3134 19.7262 14.0863 20.0015 12.844 19.9996C8.234 19.9996 4.5 16.2856 4.5 11.7096C4.5 8.26557 6.614 5.31157 9.624 4.05957C9.77394 3.9962 9.94039 3.98319 10.0983 4.0225C10.2563 4.06181 10.3973 4.15131 10.5 4.27757Z"
			fill="url(#paint0_linear_4025_15908)" />
		<defs>
			<linearGradient id="paint0_linear_4025_15908" x1="26.1663" y1="30.2214" x2="-2.16877"
				y2="5.19136" gradientUnits="userSpaceOnUse">
				<stop stop-color="#017AC3" />
				<stop offset="1" stop-color="#65CFF0" />
			</linearGradient>
		</defs>
	</symbol>
	<symbol id="nutrition" viewBox="0 0 20 20">
		<g clip-path="url(#clip0_4025_21031)">
			<path fill-rule="evenodd" clip-rule="evenodd"
				d="M10.9507 1.66674C10.9507 1.14075 10.5243 0.714355 9.99828 0.714355C9.47229 0.714355 9.0459 1.14075 9.0459 1.66674V3.26038C6.70577 3.48673 4.50709 4.54041 2.83665 6.25136C0.941559 8.19238 -0.119141 10.8202 -0.119141 13.5556C-0.119141 14.184 0.124346 14.7912 0.564907 15.2424L1.24629 14.577L0.564909 15.2424C1.00604 15.6941 1.60932 15.9525 2.2435 15.9525H17.7563C18.3904 15.9525 18.9938 15.6942 19.435 15.2423C19.8753 14.7913 20.119 14.1841 20.119 13.5556C20.119 10.8202 19.0583 8.19238 17.1632 6.25136C15.4919 4.53962 13.292 3.48575 10.9507 3.26006V1.66674ZM4.19955 7.582C5.74188 6.00228 7.8288 5.11912 9.99991 5.11912C12.171 5.11912 14.2579 6.00228 15.8003 7.58201C17.3434 9.16249 18.2142 11.3109 18.2142 13.5556C18.2142 13.6933 18.1605 13.8211 18.0721 13.9117C17.9844 14.0015 17.8702 14.0477 17.7563 14.0477H2.2435C2.12962 14.0477 2.0155 14.0015 1.92768 13.9116C1.8393 13.8211 1.78562 13.6934 1.78562 13.5556C1.78562 11.3109 2.65646 9.16249 4.19955 7.58201L4.19955 7.582Z"
				fill="url(#paint0_linear_4025_21031)" />
			<path fill-rule="evenodd" clip-rule="evenodd"
				d="M-0.119141 19.1667C-0.119141 18.6408 0.307255 18.2144 0.83324 18.2144H19.1666C19.6926 18.2144 20.119 18.6408 20.119 19.1667C20.119 19.6927 19.6926 20.1191 19.1666 20.1191H0.83324C0.307255 20.1191 -0.119141 19.6927 -0.119141 19.1667Z"
				fill="url(#paint1_linear_4025_21031)" />
		</g>
		<defs>
			<linearGradient id="paint0_linear_4025_21031" x1="29.1137" y1="25.6879" x2="2.58872"
				y2="-7.50522" gradientUnits="userSpaceOnUse">
				<stop stop-color="#017AC3" />
				<stop offset="1" stop-color="#65CFF0" />
			</linearGradient>
			<linearGradient id="paint1_linear_4025_21031" x1="29.1137" y1="21.336" x2="28.4413"
				y2="14.6045" gradientUnits="userSpaceOnUse">
				<stop stop-color="#017AC3" />
				<stop offset="1" stop-color="#65CFF0" />
			</linearGradient>
			<clipPath id="clip0_4025_21031">
				<rect width="20" height="20" fill="white" />
			</clipPath>
		</defs>
	</symbol>
	<symbol id="pdf" viewBox="0 0 37 40">
		<path
			d="M23.7752 4H5.11823C4.59881 4 4.17773 4.42107 4.17773 5.23814V39.3571C4.17773 39.5789 4.59881 40 5.11823 40H30.8801C31.3995 40 31.8206 39.5789 31.8206 39.3571V12.343C31.8206 11.8956 31.7608 11.7516 31.6554 11.6455L24.1751 4.16521C24.069 4.05979 23.925 4 23.7752 4Z"
			fill="white" />
		<path d="M24.1064 4.09717V11.7144H31.7237L24.1064 4.09717Z" fill="#D6D6D6" />
		<path
			d="M33.2025 31H2.79751C2.18446 31 1.6875 30.5665 1.6875 30.0318V20.75C1.6875 20.1977 2.13522 19.75 2.6875 19.75H33.3125C33.8648 19.75 34.3125 20.1977 34.3125 20.75V30.0318C34.3125 30.5665 33.8155 31 33.2025 31Z"
			fill="#FF6A00" />
		<path
			d="M11.176 28.4774H10.1211V22H11.9841C12.2592 22 12.5318 22.0437 12.8012 22.1318C13.0705 22.2199 13.3122 22.3516 13.5263 22.5271C13.7404 22.7026 13.9133 22.9154 14.0451 23.1642C14.1769 23.413 14.2431 23.6926 14.2431 24.0038C14.2431 24.3323 14.1872 24.6293 14.076 24.8961C13.9647 25.1629 13.8092 25.3872 13.6099 25.5685C13.4106 25.7498 13.1702 25.8906 12.8892 25.9902C12.6083 26.0899 12.2972 26.1394 11.9577 26.1394H11.1754L11.176 28.4774ZM11.176 22.7997V25.366H12.1429C12.2715 25.366 12.3987 25.3441 12.5254 25.2998C12.6514 25.2561 12.7671 25.1841 12.8725 25.0844C12.978 24.9848 13.0628 24.8459 13.1271 24.6672C13.1914 24.4885 13.2235 24.2674 13.2235 24.0038C13.2235 23.8984 13.2087 23.7762 13.1798 23.6393C13.1502 23.5017 13.0905 23.3699 12.9998 23.2439C12.9085 23.1179 12.7812 23.0125 12.6173 22.9276C12.4534 22.8428 12.2361 22.8004 11.9667 22.8004L11.176 22.7997Z"
			fill="white" />
		<path
			d="M20.7121 25.0587C20.7121 25.5916 20.6549 26.0474 20.5404 26.4254C20.426 26.8034 20.2814 27.1197 20.1052 27.3749C19.9291 27.6301 19.7317 27.8307 19.5119 27.9773C19.292 28.1239 19.0799 28.2331 18.8748 28.3071C18.6697 28.3804 18.482 28.4273 18.3123 28.4479C18.1426 28.4671 18.0166 28.4774 17.9343 28.4774H15.4824V22H17.4335C17.9786 22 18.4576 22.0868 18.8703 22.2591C19.283 22.4314 19.6263 22.6621 19.8989 22.9489C20.1714 23.2356 20.3746 23.5628 20.5096 23.9286C20.6446 24.295 20.7121 24.6717 20.7121 25.0587ZM17.5833 27.7041C18.2981 27.7041 18.8137 27.4759 19.13 27.0188C19.4463 26.5617 19.6044 25.8996 19.6044 25.0324C19.6044 24.763 19.5723 24.4962 19.508 24.2326C19.4431 23.9691 19.319 23.7306 19.1345 23.5165C18.95 23.3024 18.6993 23.1295 18.383 22.9977C18.0667 22.8659 17.6566 22.7997 17.1526 22.7997H16.5374V27.7041H17.5833Z"
			fill="white" />
		<path
			d="M23.3135 22.7997V24.8389H26.0206V25.5595H23.3135V28.4774H22.2412V22H26.2925V22.7997H23.3135Z"
			fill="white" />
	</symbol>
	<symbol id="person" viewBox="0 0 28 28">
		<circle cx="10.4987" cy="10.4999" r="3.66667" stroke="url(#paint0_linear_734_28144)"
			stroke-width="2" stroke-linecap="round" />
		<path
			d="M14.167 10.4165C14.4985 9.84229 15.0445 9.4233 15.685 9.25169C16.3254 9.08008 17.0078 9.16992 17.582 9.50144C18.1562 9.83296 18.5752 10.379 18.7468 11.0195C18.9185 11.6599 18.8286 12.3423 18.4971 12.9165C18.1656 13.4907 17.6195 13.9097 16.9791 14.0813C16.3386 14.2529 15.6562 14.1631 15.082 13.8316C14.5078 13.5 14.0888 12.954 13.9172 12.3136C13.7456 11.6731 13.8354 10.9907 14.167 10.4165L14.167 10.4165Z"
			stroke="url(#paint1_linear_734_28144)" stroke-width="2" />
		<path
			d="M16.1951 22.1667L15.2148 22.3641L15.3764 23.1667H16.1951V22.1667ZM20.7344 21.0673L21.685 20.7569L21.685 20.7569L20.7344 21.0673ZM13.7441 18.329L13.1393 17.5326L11.9827 18.4111L13.216 19.1781L13.7441 18.329ZM19.8671 21.1667H16.1951V23.1667H19.8671V21.1667ZM19.7838 21.3776C19.7782 21.3604 19.7731 21.3273 19.7811 21.2871C19.7886 21.2491 19.8045 21.2201 19.8197 21.2014C19.849 21.1652 19.8735 21.1667 19.8671 21.1667V23.1667C21.0237 23.1667 22.12 22.0892 21.685 20.7569L19.7838 21.3776ZM16.3332 18.5C18.4437 18.5 19.3677 20.1031 19.7838 21.3776L21.685 20.7569C21.2003 19.2722 19.8142 16.5 16.3332 16.5V18.5ZM14.349 19.1253C14.8261 18.7629 15.4585 18.5 16.3332 18.5V16.5C15.0146 16.5 13.9587 16.9102 13.1393 17.5326L14.349 19.1253ZM13.216 19.1781C14.4858 19.9678 15.0079 21.3368 15.2148 22.3641L17.1754 21.9692C16.9248 20.7248 16.2314 18.6982 14.2723 17.4798L13.216 19.1781Z"
			fill="url(#paint2_linear_734_28144)" />
		<path
			d="M10.4993 17.5C14.8043 17.5 15.9323 20.6771 16.2278 22.3419C16.3243 22.8857 15.885 23.3333 15.3327 23.3333H5.66602C5.11373 23.3333 4.6744 22.8857 4.77093 22.3419C5.06644 20.6771 6.19435 17.5 10.4993 17.5Z"
			stroke="url(#paint3_linear_734_28144)" stroke-width="2" stroke-linecap="round" />
		<defs>
			<linearGradient id="paint0_linear_734_28144" x1="19.3135" y1="21.1295" x2="2.6862"
				y2="5.46287" gradientUnits="userSpaceOnUse">
				<stop stop-color="#017AC3" />
				<stop offset="1" stop-color="#65CFF0" />
			</linearGradient>
			<linearGradient id="paint1_linear_734_28144" x1="22.9431" y1="19.6387" x2="10.4727"
				y2="7.88871" gradientUnits="userSpaceOnUse">
				<stop stop-color="#017AC3" />
				<stop offset="1" stop-color="#65CFF0" />
			</linearGradient>
			<linearGradient id="paint2_linear_734_28144" x1="23.9027" y1="25.1481" x2="16.0613"
				y2="14.0136" gradientUnits="userSpaceOnUse">
				<stop stop-color="#017AC3" />
				<stop offset="1" stop-color="#65CFF0" />
			</linearGradient>
			<linearGradient id="paint3_linear_734_28144" x1="21.5179" y1="27.0602" x2="12.8967"
				y2="10.8141" gradientUnits="userSpaceOnUse">
				<stop stop-color="#017AC3" />
				<stop offset="1" stop-color="#65CFF0" />
			</linearGradient>
		</defs>
	</symbol>
	<symbol id="persons" viewBox="0 0 27 28">
		<circle cx="13.499" cy="9.50024" r="3.375" stroke="url(#paint0_linear_1723_23098)"
			stroke-width="2.25" stroke-linecap="round" />
		<path
			d="M17.1755 9.5C17.4738 8.98321 17.9653 8.60611 18.5417 8.45167C19.1181 8.29722 19.7322 8.37807 20.249 8.67644C20.7658 8.97481 21.1429 9.46625 21.2974 10.0427C21.4518 10.6191 21.3709 11.2332 21.0726 11.75C20.7742 12.2668 20.2828 12.6439 19.7064 12.7983C19.13 12.9528 18.5158 12.8719 17.999 12.5736C17.4822 12.2752 17.1051 11.7837 16.9507 11.2073C16.7962 10.6309 16.8771 10.0168 17.1755 9.5L17.1755 9.5Z"
			stroke="url(#paint1_linear_1723_23098)" stroke-width="2.25" />
		<path
			d="M5.92742 9.5C6.22579 8.98321 6.71723 8.60611 7.29363 8.45167C7.87004 8.29722 8.48419 8.37807 9.00098 8.67644C9.51777 8.97481 9.89486 9.46625 10.0493 10.0427C10.2038 10.6191 10.1229 11.2332 9.82453 11.75C9.52617 12.2668 9.03472 12.6439 8.45832 12.7983C7.88192 12.9528 7.26777 12.8719 6.75098 12.5736C6.23419 12.2752 5.85709 11.7837 5.70264 11.2073C5.5482 10.6309 5.62905 10.0168 5.92742 9.5L5.92742 9.5Z"
			stroke="url(#paint2_linear_1723_23098)" stroke-width="2.25" />
		<path
			d="M18.9943 20.7498L17.8914 20.9719L18.0732 21.8748H18.9943V20.7498ZM23.3127 19.5169L22.2524 19.893V19.893L23.3127 19.5169ZM16.6309 17.0491L15.9504 16.1532L14.6493 17.1415L16.0367 18.0044L16.6309 17.0491ZM22.3531 19.6248H18.9943V21.8748H22.3531V19.6248ZM22.2524 19.893C22.2445 19.8707 22.2372 19.8284 22.2465 19.777C22.2554 19.7284 22.2755 19.6915 22.2945 19.6678C22.3307 19.6227 22.3607 19.6248 22.3531 19.6248V21.8748C23.6423 21.8748 24.9115 20.6591 24.3729 19.1409L22.2524 19.893ZM19.1274 17.3748C20.9742 17.3748 21.8305 18.7035 22.2524 19.893L24.3729 19.1409C23.8498 17.6659 22.4445 15.1248 19.1274 15.1248V17.3748ZM17.3113 17.945C17.7439 17.6165 18.3197 17.3748 19.1274 17.3748V15.1248C17.8203 15.1248 16.7681 15.5322 15.9504 16.1532L17.3113 17.945ZM16.0367 18.0044C17.2058 18.7315 17.6954 19.9987 17.8914 20.9719L20.0971 20.5276C19.8519 19.3102 19.1695 17.3032 17.225 16.0938L16.0367 18.0044Z"
			fill="url(#paint3_linear_1723_23098)" />
		<path
			d="M10.3705 17.0502L10.9648 18.0054L12.3517 17.1426L11.0511 16.1544L10.3705 17.0502ZM3.68826 19.5177L2.62798 19.1416L3.68826 19.5177ZM8.00763 20.7505V21.8755H8.92864L9.11048 20.9726L8.00763 20.7505ZM7.8735 17.3755C8.68145 17.3755 9.25735 17.6173 9.68992 17.9459L11.0511 16.1544C10.2334 15.5331 9.18094 15.1255 7.8735 15.1255V17.3755ZM4.74853 19.8937C5.17046 18.7042 6.02671 17.3755 7.8735 17.3755V15.1255C4.55642 15.1255 3.15116 17.6666 2.62798 19.1416L4.74853 19.8937ZM4.64786 19.6255C4.64024 19.6255 4.6702 19.6235 4.70645 19.6686C4.72546 19.6922 4.74554 19.7291 4.7544 19.7778C4.76375 19.8291 4.75646 19.8714 4.74853 19.8937L2.62798 19.1416C2.08945 20.6598 3.3586 21.8755 4.64786 21.8755V19.6255ZM8.00763 19.6255H4.64786V21.8755H8.00763V19.6255ZM9.11048 20.9726C9.30646 19.9996 9.79603 18.7325 10.9648 18.0054L9.77624 16.0949C7.83221 17.3044 7.14995 19.311 6.90477 20.5284L9.11048 20.9726Z"
			fill="url(#paint4_linear_1723_23098)" />
		<path
			d="M13.501 16.2498C17.519 16.2498 18.6669 19.1198 18.9948 20.7597C19.1167 21.369 18.6223 21.8748 18.001 21.8748H9.00098C8.37966 21.8748 7.8853 21.369 8.00714 20.7597C8.33509 19.1198 9.483 16.2498 13.501 16.2498Z"
			stroke="url(#paint5_linear_1723_23098)" stroke-width="2.25" stroke-linecap="round" />
		<defs>
			<linearGradient id="paint0_linear_1723_23098" x1="21.999" y1="19.7502" x2="5.96554"
				y2="4.64309" gradientUnits="userSpaceOnUse">
				<stop stop-color="#017AC3" />
				<stop offset="1" stop-color="#65CFF0" />
			</linearGradient>
			<linearGradient id="paint1_linear_1723_23098" x1="25.499" y1="18.3125" x2="13.4739"
				y2="6.98213" gradientUnits="userSpaceOnUse">
				<stop stop-color="#017AC3" />
				<stop offset="1" stop-color="#65CFF0" />
			</linearGradient>
			<linearGradient id="paint2_linear_1723_23098" x1="14.251" y1="18.3125" x2="2.22586"
				y2="6.98213" gradientUnits="userSpaceOnUse">
				<stop stop-color="#017AC3" />
				<stop offset="1" stop-color="#65CFF0" />
			</linearGradient>
			<linearGradient id="paint3_linear_1723_23098" x1="26.361" y1="23.6248" x2="18.7827"
				y2="12.9358" gradientUnits="userSpaceOnUse">
				<stop stop-color="#017AC3" />
				<stop offset="1" stop-color="#65CFF0" />
			</linearGradient>
			<linearGradient id="paint4_linear_1723_23098" x1="13.3644" y1="23.6255" x2="5.7862"
				y2="12.9362" gradientUnits="userSpaceOnUse">
				<stop stop-color="#017AC3" />
				<stop offset="1" stop-color="#65CFF0" />
			</linearGradient>
			<linearGradient id="paint5_linear_1723_23098" x1="24.126" y1="25.4685" x2="15.8127"
				y2="9.80264" gradientUnits="userSpaceOnUse">
				<stop stop-color="#017AC3" />
				<stop offset="1" stop-color="#65CFF0" />
			</linearGradient>
		</defs>
	</symbol>
	<symbol id="swimming" viewBox="0 0 20 20">
		<path fill-rule="evenodd" clip-rule="evenodd"
			d="M1.66709 4.02745C1.66709 2.26321 3.09729 0.833008 4.86153 0.833008C6.62577 0.833008 8.05598 2.26321 8.05598 4.02745V7.54808C8.14332 7.517 8.23737 7.50008 8.33538 7.50008H14.1687C14.629 7.50008 15.002 7.87318 15.002 8.33342C15.002 8.79365 14.629 9.16675 14.1687 9.16675H8.33538C8.23737 9.16675 8.14332 9.14983 8.05598 9.11875V10.881C8.14332 10.8499 8.23737 10.833 8.33538 10.833H14.1687C14.629 10.833 15.002 11.2061 15.002 11.6663C15.002 12.1266 14.629 12.4997 14.1687 12.4997H8.33538C8.23737 12.4997 8.14332 12.4828 8.05598 12.4517V15.833C8.05598 15.9988 8.00756 16.1533 7.9241 16.2831C8.025 16.3939 8.11733 16.5172 8.19914 16.6528C8.44574 17.0616 9.03862 17.0616 9.28522 16.6528C10.1799 15.1695 12.3309 15.1695 13.2256 16.6528C13.4722 17.0616 14.0651 17.0616 14.3117 16.6528L14.3383 16.6086C14.6919 16.0224 15.2413 15.6635 15.8338 15.5349V4.02745C15.8338 3.18368 15.1497 2.49967 14.306 2.49967C13.4622 2.49967 12.7782 3.18368 12.7782 4.02745V5.44412C12.7782 5.90436 12.4051 6.27745 11.9449 6.27745C11.4846 6.27745 11.1115 5.90436 11.1115 5.44412V4.02745C11.1115 2.26321 12.5417 0.833008 14.306 0.833008C16.0702 0.833008 17.5004 2.26321 17.5004 4.02745V15.7898C17.803 15.9638 18.0736 16.2117 18.2849 16.5338L19.0289 17.6677C19.2814 18.0526 19.1741 18.5692 18.7893 18.8216C18.4045 19.0741 17.8878 18.9668 17.6354 18.582L16.8914 17.4481C16.6227 17.0385 16.0185 17.05 15.7655 17.4694L15.7388 17.5136C14.8441 18.9969 12.6931 18.9969 11.7984 17.5136C11.5518 17.1048 10.959 17.1048 10.7124 17.5136C9.81768 18.9969 7.66668 18.9969 6.77199 17.5136C6.52539 17.1048 5.93251 17.1048 5.68591 17.5136L5.65926 17.5578C4.77243 19.0281 2.65453 19.0682 1.71264 17.6326L0.968699 16.4987C0.716232 16.1139 0.823516 15.5973 1.20833 15.3448C1.59314 15.0923 2.10975 15.1996 2.36222 15.5844L3.10616 16.7183C3.37487 17.1279 3.9791 17.1164 4.23211 16.697L4.25876 16.6528C4.73753 15.8591 5.57606 15.4901 6.38931 15.5458V4.02745C6.38931 3.18368 5.7053 2.49967 4.86153 2.49967C4.01776 2.49967 3.33375 3.18368 3.33375 4.02745V5.44412C3.33375 5.90436 2.96066 6.27745 2.50042 6.27745C2.04018 6.27745 1.66709 5.90436 1.66709 5.44412V4.02745Z"
			fill="url(#paint0_linear_4025_21059)" />
		<defs>
			<linearGradient id="paint0_linear_4025_21059" x1="27.3138" y1="30.5384" x2="-4.99623"
				y2="-0.254697" gradientUnits="userSpaceOnUse">
				<stop stop-color="#017AC3" />
				<stop offset="1" stop-color="#65CFF0" />
			</linearGradient>
		</defs>
	</symbol>
	<symbol id="tea" viewBox="0 0 20 20">
		<path fill-rule="evenodd" clip-rule="evenodd"
			d="M4.40476 0.938284C4.40476 0.420084 3.97837 0 3.45238 0C2.9264 0 2.5 0.420084 2.5 0.938284V3.28379H1.69312C1.23036 3.28379 0.795399 3.47335 0.481404 3.79651C0.168769 4.11827 0 4.54633 0 4.98443V11.8456C0 12.8904 0.40286 13.9 1.13223 14.6507C1.86298 15.4028 2.8632 15.8333 3.91534 15.8333H11.3228C12.3749 15.8333 13.3751 15.4028 14.1059 14.6507C14.5173 14.2272 14.8249 13.7213 15.0148 13.1732C15.4173 13.2527 15.8311 13.2734 16.2426 13.2334C16.9245 13.1671 17.5793 12.9361 18.1489 12.5609C18.7186 12.1858 19.1855 11.678 19.5084 11.0826C19.8313 10.4871 20.0001 9.82246 20 9.14739C19.9999 8.47232 19.8307 7.8077 19.5076 7.21241C19.1845 6.61712 18.7173 6.10952 18.1475 5.73459C17.5777 5.35966 16.9228 5.12896 16.2409 5.06293C15.9057 5.03047 15.569 5.0383 15.2381 5.08535V4.22208C15.2381 3.70388 14.8117 3.28379 14.2857 3.28379H12.7348V0.938284C12.7348 0.420084 12.3084 0 11.7825 0C11.2565 0 10.8301 0.420084 10.8301 0.938284V3.28379H8.5698V0.938284C8.5698 0.420084 8.14341 0 7.61742 0C7.09143 0 6.66504 0.420084 6.66504 0.938284V3.28379H4.40476V0.938284ZM16.0619 11.4295C15.7847 11.4565 15.5057 11.4341 15.2381 11.3643V6.93212C15.5054 6.86243 15.7841 6.84003 16.0609 6.86684C16.4417 6.90371 16.8074 7.03254 17.1257 7.24192C17.4439 7.4513 17.7047 7.73476 17.8852 8.06719C18.0656 8.39963 18.1601 8.77078 18.1602 9.14776C18.1602 9.52475 18.066 9.89593 17.8856 10.2284C17.7053 10.561 17.4446 10.8445 17.1265 11.054C16.8083 11.2635 16.4427 11.3925 16.0619 11.4295ZM7.59752 5.16036H3.47228L3.45238 5.16056L3.43248 5.16036H2.19335H1.90476V11.8456C1.90476 12.4184 2.12623 12.9599 2.50821 13.3531C2.88877 13.7448 3.39585 13.9568 3.91534 13.9568H11.3228C11.7915 13.9568 12.2501 13.7842 12.6147 13.4628C12.6542 13.428 12.6927 13.3914 12.7299 13.3531C13.1119 12.9599 13.3333 12.4184 13.3333 11.8456V5.16036H11.8024L11.7825 5.16056L11.7626 5.16036H7.63732L7.61742 5.16056L7.59752 5.16036ZM0.941176 18.3333C0.421379 18.3333 0 18.7064 0 19.1667C0 19.6269 0.421379 20 0.941176 20H19.0588C19.5786 20 20 19.6269 20 19.1667C20 18.7064 19.5786 18.3333 19.0588 18.3333H0.941176Z"
			fill="url(#paint0_linear_4025_21039)" />
		<defs>
			<linearGradient id="paint0_linear_4025_21039" x1="28.8889" y1="32.7778" x2="-6.74108"
				y2="-0.793684" gradientUnits="userSpaceOnUse">
				<stop stop-color="#017AC3" />
				<stop offset="1" stop-color="#65CFF0" />
			</linearGradient>
		</defs>
	</symbol>
	<symbol id="telegram" viewBox="0 0 40 40">
		<g clip-path="url(#clip0_734_28163)">
			<rect width="40" height="40" fill="#2BA9DC" />
			<path
				d="M29.7843 10.1763C29.7843 10.1763 32.1892 9.31063 31.988 11.4129C31.9218 12.2786 31.3207 15.3089 30.8527 18.586L29.2494 28.2945C29.2494 28.2945 29.1157 29.7168 27.9129 29.9643C26.7107 30.2111 24.9069 29.0985 24.5726 28.8511C24.3052 28.6654 19.5621 25.8826 17.8919 24.5226C17.4239 24.1511 16.8891 23.4094 17.9588 22.5437L24.9731 16.3597C25.7748 15.618 26.5764 13.8866 23.2361 15.9889L13.8824 21.8631C13.8824 21.8631 12.8133 22.482 10.8095 21.9254L6.46632 20.6883C6.46632 20.6883 4.86301 19.7609 7.60225 18.8334C14.2835 15.9272 22.5013 12.9592 29.783 10.1763H29.7843Z"
				fill="white" />
		</g>
		<defs>
			<clipPath id="clip0_734_28163">
				<rect width="40" height="40" rx="7" fill="white" />
			</clipPath>
		</defs>
	</symbol>
	<symbol id="time" viewBox="0 0 28 28">
		<circle cx="13.9993" cy="14.0001" r="10.3333" stroke="url(#paint0_linear_734_28136)"
			stroke-width="2" />
		<path d="M19.25 14.0001H14.25C14.1119 14.0001 14 13.8882 14 13.7501V9.91675"
			stroke="url(#paint1_linear_734_28136)" stroke-width="2" stroke-linecap="round" />
		<defs>
			<linearGradient id="paint0_linear_734_28136" x1="31.629" y1="35.2593" x2="-1.62566"
				y2="3.92598" gradientUnits="userSpaceOnUse">
				<stop stop-color="#017AC3" />
				<stop offset="1" stop-color="#65CFF0" />
			</linearGradient>
			<linearGradient id="paint1_linear_734_28136" x1="21.5833" y1="16.6089" x2="14.428"
				y2="7.94069" gradientUnits="userSpaceOnUse">
				<stop stop-color="#017AC3" />
				<stop offset="1" stop-color="#65CFF0" />
			</linearGradient>
		</defs>
	</symbol>
	<symbol id="wi-fi" viewBox="0 0 20 20">
		<path fill-rule="evenodd" clip-rule="evenodd"
			d="M3.21391 3.01266C3.21391 2.45338 3.66733 2 4.22666 2C6.03541 2 7.82643 2.35623 9.49749 3.04834C11.1685 3.74046 12.6869 4.75491 13.9658 6.03377C15.2448 7.31263 16.2594 8.83087 16.9516 10.5018C17.6437 12.1727 18 13.9635 18 15.7722C18 16.3314 17.5466 16.7848 16.9873 16.7848C16.4279 16.7848 15.9745 16.3314 15.9745 15.7722C15.9745 14.2296 15.6706 12.702 15.0802 11.2768C14.4899 9.85165 13.6245 8.55669 12.5336 7.4659L12.5336 7.46588C11.4428 6.3751 10.1477 5.50983 8.72236 4.91949C7.29705 4.32916 5.76942 4.02532 4.22666 4.02532C3.66733 4.02532 3.21391 3.57193 3.21391 3.01266ZM2 15.4177C2 13.9916 3.15622 12.8354 4.58251 12.8354C6.00879 12.8354 7.165 13.9916 7.165 15.4177C7.165 16.8438 6.00879 18 4.58251 18C3.15622 18 2 16.8438 2 15.4177ZM4.58251 14.4557C4.05115 14.4557 3.62039 14.8864 3.62039 15.4177C3.62039 15.949 4.05115 16.3797 4.58251 16.3797C5.11385 16.3797 5.54461 15.949 5.54461 15.4177C5.54461 14.8864 5.11385 14.4557 4.58251 14.4557ZM4.22666 6.9622C3.66733 6.9622 3.21391 7.41558 3.21391 7.97486C3.21391 8.53413 3.66733 8.98751 4.22666 8.98751C5.02463 8.98751 5.81478 9.14468 6.55202 9.45002L6.55202 9.45003C7.28925 9.75536 7.95912 10.2029 8.52337 10.7671C9.08762 11.3313 9.53521 12.0011 9.84057 12.7383C10.146 13.4755 10.3031 14.2656 10.3031 15.0635C10.3031 15.6227 10.7566 16.0761 11.3159 16.0761C11.8752 16.0761 12.3286 15.6227 12.3286 15.0635C12.3286 13.9996 12.1191 12.9462 11.7119 11.9632L11.7119 11.9632C11.3047 10.9803 10.7079 10.0873 9.95561 9.335C9.20327 8.58273 8.31011 7.98599 7.32714 7.57888C6.34417 7.17175 5.29062 6.9622 4.22666 6.9622Z"
			fill="url(#paint0_linear_4025_21054)" />
		<defs>
			<linearGradient id="paint0_linear_4025_21054" x1="25.1111" y1="28.2222" x2="-3.39286"
				y2="1.36505" gradientUnits="userSpaceOnUse">
				<stop stop-color="#017AC3" />
				<stop offset="1" stop-color="#65CFF0" />
			</linearGradient>
		</defs>
	</symbol>
</svg>