<svg width="24" height="24" viewBox="0 0 24 24" fill="none" xmlns="http://www.w3.org/2000/svg">
<path fill-rule="evenodd" clip-rule="evenodd" d="M12.0015 13.6667L19.4049 5.66699C19.7906 5.25121 20.3287 5.00328 20.9062 5.00328C21.1908 5.00328 21.4705 5.06381 21.7287 5.1791C21.9865 5.29424 22.2164 5.46101 22.4073 5.66675C22.7916 6.08102 23 6.63319 23 7.20026C23 7.48203 22.9486 7.76192 22.8477 8.02431C22.7469 8.28669 22.598 8.52811 22.4073 8.73377L13.5033 18.3324C13.3131 18.5391 13.0831 18.7072 12.8252 18.823C12.5668 18.939 12.2866 19 12.0015 19C11.7164 19 11.4362 18.939 11.1779 18.823C10.92 18.7072 10.6903 18.5395 10.5001 18.3329L1.59655 8.7346C1.4048 8.52947 1.25469 8.2878 1.15328 8.02539C1.05178 7.76278 1 7.48246 1 7.20026C1 6.91805 1.05178 6.63774 1.15328 6.37513C1.25463 6.11287 1.40423 5.87175 1.59582 5.66669C1.78598 5.46024 2.01547 5.29275 2.27315 5.17702C2.53155 5.06096 2.81171 5 3.09682 5C3.38193 5 3.6621 5.06096 3.92049 5.17702C4.17839 5.29284 4.40804 5.46052 4.59829 5.6672M4.59829 5.6672L12.0015 13.6667L4.59829 5.6672Z" fill="#0587D6"/>
</svg>
