<svg width="30" height="30" viewBox="0 0 30 30" fill="none" xmlns="http://www.w3.org/2000/svg">
<path d="M3.125 11.875H26.875M3.125 11.875V25C3.125 25.3315 3.2567 25.6495 3.49112 25.8839C3.72554 26.1183 4.04348 26.25 4.375 26.25H25.625C25.9565 26.25 26.2745 26.1183 26.5089 25.8839C26.7433 25.6495 26.875 25.3315 26.875 25V11.875M3.125 11.875V5.625C3.125 5.29348 3.2567 4.97554 3.49112 4.74112C3.72554 4.5067 4.04348 4.375 4.375 4.375H25.625C25.9565 4.375 26.2745 4.5067 26.5089 4.74112C26.7433 4.97554 26.875 5.29348 26.875 5.625V11.875" stroke="#0587D6" stroke-width="1.8" stroke-linejoin="round"/>
<path d="M10 2.5V7.5M20 2.5V7.5M17.5 21.25H21.25M8.75 21.25H12.5M17.5 16.25H21.25M8.75 16.25H12.5" stroke="#0587D6" stroke-width="1.8" stroke-linecap="round" stroke-linejoin="round"/>
</svg>
