<svg width="28" height="28" viewBox="0 0 28 28" fill="none" xmlns="http://www.w3.org/2000/svg">
<path d="M14.5 14L20.6254 18.1694C21.1725 18.5418 21.5 19.1608 21.5 19.8227V22.5C21.5 22.7761 21.2761 23 21 23H8C7.72386 23 7.5 22.7761 7.5 22.5V19.8227C7.5 19.1608 7.82746 18.5418 8.37462 18.1694L14.5 14ZM14.5 14L20.6254 9.83062C21.1725 9.45819 21.5 8.83917 21.5 8.17729V5.5C21.5 5.22386 21.2761 5 21 5H8C7.72386 5 7.5 5.22386 7.5 5.5V8.17729C7.5 8.83917 7.82746 9.45819 8.37462 9.83062L14.5 14Z" stroke="url(#paint0_linear_734_28154)" stroke-width="2" stroke-linecap="round" stroke-linejoin="round"/>
<path d="M18.5 20.7771V22.85C18.5 22.9328 18.4328 23 18.35 23H10.65C10.5672 23 10.5 22.9328 10.5 22.85V20.7771C10.5 20.6047 10.5888 20.4445 10.735 20.3531L14.076 18.265C14.3354 18.1029 14.6646 18.1029 14.924 18.265L18.265 20.3531C18.4112 20.4445 18.5 20.6047 18.5 20.7771Z" fill="url(#paint1_linear_734_28154)"/>
<defs>
<linearGradient id="paint0_linear_734_28154" x1="27.7222" y1="34.5" x2="-2.90988" y2="12.0515" gradientUnits="userSpaceOnUse">
<stop stop-color="#017AC3"/>
<stop offset="1" stop-color="#65CFF0"/>
</linearGradient>
<linearGradient id="paint1_linear_734_28154" x1="22.0556" y1="26.1944" x2="13.8347" y2="13.801" gradientUnits="userSpaceOnUse">
<stop stop-color="#017AC3"/>
<stop offset="1" stop-color="#65CFF0"/>
</linearGradient>
</defs>
</svg>
