<svg width="20" height="20" viewBox="0 0 20 20" fill="none" xmlns="http://www.w3.org/2000/svg">
<path fill-rule="evenodd" clip-rule="evenodd" d="M3.10136 2C1.93054 2 1 2.90519 1 4V10C1 11.0948 1.93054 12 3.10136 12H16.8986C18.0695 12 19 11.0948 19 10V4C19 2.9052 18.0695 2 16.8986 2H3.10136ZM2.69412 4C2.69412 3.76932 2.88672 3.6 3.10136 3.6H16.8986C17.1133 3.6 17.3059 3.76931 17.3059 4V10C17.3059 10.2307 17.1133 10.4 16.8986 10.4H3.10136C2.88672 10.4 2.69412 10.2307 2.69412 10V4ZM7 13.9091C7 13.407 6.61279 13 6.13514 13C5.65748 13 5.27027 13.407 5.27027 13.9091V15.3091C5.27027 15.6123 4.89888 16.1818 4.01622 16.1818H3.86486C3.38721 16.1818 3 16.5888 3 17.0909C3 17.593 3.38721 18 3.86486 18H4.01622C5.47405 18 7 16.9741 7 15.3091V13.9091ZM14.7297 13.9091C14.7297 13.407 14.3425 13 13.8649 13C13.3872 13 13 13.407 13 13.9091V15.3091C13 16.9741 14.5259 18 15.9838 18H16.1351C16.6128 18 17 17.593 17 17.0909C17 16.5888 16.6128 16.1818 16.1351 16.1818H15.9838C15.1011 16.1818 14.7297 15.6123 14.7297 15.3091V13.9091ZM10 13C10.5523 13 11 13.3705 11 13.8276V18.1724C11 18.6295 10.5523 19 10 19C9.44771 19 9 18.6295 9 18.1724V13.8276C9 13.3705 9.44771 13 10 13Z" fill="url(#paint0_linear_4025_21045)"/>
<defs>
<linearGradient id="paint0_linear_4025_21045" x1="27" y1="29.8611" x2="-3.33903" y2="-0.406639" gradientUnits="userSpaceOnUse">
<stop stop-color="#017AC3"/>
<stop offset="1" stop-color="#65CFF0"/>
</linearGradient>
</defs>
</svg>
