<svg width="27" height="20" viewBox="0 0 27 20" fill="none" xmlns="http://www.w3.org/2000/svg">
<path d="M25 1.50001H21.78C21.5575 1.49887 21.3412 1.57375 21.1667 1.71238C20.9922 1.85099 20.87 2.04508 20.82 2.2627L19.8 6.27687L9.8 4.26979C8.73594 4.06037 7.63898 4.08883 6.5872 4.35314C5.5352 4.61746 4.5544 5.11114 3.7142 5.79907C2.874 6.48698 2.1952 7.35223 1.7262 8.33329C1.257 9.31436 1.0092 10.3871 1 11.4752C1 12.0075 1.2108 12.518 1.5858 12.8944C1.9608 13.2708 2.4696 13.4823 3 13.4823H11.8L13.8 16.6535C14.1614 17.2189 14.6584 17.6841 15.2454 18.0067C15.8324 18.3292 16.4907 18.4988 17.16 18.5H19.36C19.531 18.4986 19.6988 18.4532 19.8474 18.3683C19.9959 18.2832 20.1203 18.1616 20.2086 18.0145C20.2968 17.8676 20.3461 17.7004 20.3516 17.5288C20.3571 17.3574 20.3187 17.1872 20.24 17.0348L18.48 13.5425H24C24.5304 13.5425 25.0391 13.3311 25.4142 12.9546C25.7893 12.5783 26 12.0677 26 11.5354V2.50356C26 2.2374 25.8946 1.98213 25.7071 1.79393C25.5196 1.60573 25.2652 1.50001 25 1.50001Z" stroke="url(#paint0_linear_1723_23095)" stroke-width="2" stroke-linecap="round" stroke-linejoin="round"/>
<defs>
<linearGradient id="paint0_linear_1723_23095" x1="-10.1111" y1="29.3611" x2="18.6829" y2="-10.5366" gradientUnits="userSpaceOnUse">
<stop stop-color="#017AC3"/>
<stop offset="1" stop-color="#65CFF0"/>
</linearGradient>
</defs>
</svg>
