<svg width="24" height="24" viewBox="0 0 24 24" fill="none" xmlns="http://www.w3.org/2000/svg">
<path d="M10.5 4.27757C10.5976 4.39618 10.6574 4.54134 10.6717 4.69429C10.6859 4.84724 10.654 5.00095 10.58 5.13557C10.0019 6.19704 9.69993 7.38686 9.702 8.59557C9.702 12.6166 12.98 15.8726 17.02 15.8726C17.547 15.8726 18.06 15.8176 18.553 15.7126C18.7041 15.6798 18.8615 15.6924 19.0056 15.7486C19.1497 15.8048 19.274 15.9021 19.363 16.0286C19.457 16.16 19.5049 16.3188 19.4993 16.4803C19.4937 16.6418 19.4349 16.797 19.332 16.9216C18.5477 17.885 17.5582 18.6613 16.4358 19.1938C15.3134 19.7262 14.0863 20.0015 12.844 19.9996C8.234 19.9996 4.5 16.2856 4.5 11.7096C4.5 8.26557 6.614 5.31157 9.624 4.05957C9.77394 3.9962 9.94039 3.98319 10.0983 4.0225C10.2563 4.06181 10.3973 4.15131 10.5 4.27757Z" fill="url(#paint0_linear_4025_15908)"/>
<defs>
<linearGradient id="paint0_linear_4025_15908" x1="26.1663" y1="30.2214" x2="-2.16877" y2="5.19136" gradientUnits="userSpaceOnUse">
<stop stop-color="#017AC3"/>
<stop offset="1" stop-color="#65CFF0"/>
</linearGradient>
</defs>
</svg>
