<svg width="20" height="20" viewBox="0 0 20 20" fill="none" xmlns="http://www.w3.org/2000/svg">
<g clip-path="url(#clip0_4025_21031)">
<path fill-rule="evenodd" clip-rule="evenodd" d="M10.9507 1.66674C10.9507 1.14075 10.5243 0.714355 9.99828 0.714355C9.47229 0.714355 9.0459 1.14075 9.0459 1.66674V3.26038C6.70577 3.48673 4.50709 4.54041 2.83665 6.25136C0.941559 8.19238 -0.119141 10.8202 -0.119141 13.5556C-0.119141 14.184 0.124346 14.7912 0.564907 15.2424L1.24629 14.577L0.564909 15.2424C1.00604 15.6941 1.60932 15.9525 2.2435 15.9525H17.7563C18.3904 15.9525 18.9938 15.6942 19.435 15.2423C19.8753 14.7913 20.119 14.1841 20.119 13.5556C20.119 10.8202 19.0583 8.19238 17.1632 6.25136C15.4919 4.53962 13.292 3.48575 10.9507 3.26006V1.66674ZM4.19955 7.582C5.74188 6.00228 7.8288 5.11912 9.99991 5.11912C12.171 5.11912 14.2579 6.00228 15.8003 7.58201C17.3434 9.16249 18.2142 11.3109 18.2142 13.5556C18.2142 13.6933 18.1605 13.8211 18.0721 13.9117C17.9844 14.0015 17.8702 14.0477 17.7563 14.0477H2.2435C2.12962 14.0477 2.0155 14.0015 1.92768 13.9116C1.8393 13.8211 1.78562 13.6934 1.78562 13.5556C1.78562 11.3109 2.65646 9.16249 4.19955 7.58201L4.19955 7.582Z" fill="url(#paint0_linear_4025_21031)"/>
<path fill-rule="evenodd" clip-rule="evenodd" d="M-0.119141 19.1667C-0.119141 18.6408 0.307255 18.2144 0.83324 18.2144H19.1666C19.6926 18.2144 20.119 18.6408 20.119 19.1667C20.119 19.6927 19.6926 20.1191 19.1666 20.1191H0.83324C0.307255 20.1191 -0.119141 19.6927 -0.119141 19.1667Z" fill="url(#paint1_linear_4025_21031)"/>
</g>
<defs>
<linearGradient id="paint0_linear_4025_21031" x1="29.1137" y1="25.6879" x2="2.58872" y2="-7.50522" gradientUnits="userSpaceOnUse">
<stop stop-color="#017AC3"/>
<stop offset="1" stop-color="#65CFF0"/>
</linearGradient>
<linearGradient id="paint1_linear_4025_21031" x1="29.1137" y1="21.336" x2="28.4413" y2="14.6045" gradientUnits="userSpaceOnUse">
<stop stop-color="#017AC3"/>
<stop offset="1" stop-color="#65CFF0"/>
</linearGradient>
<clipPath id="clip0_4025_21031">
<rect width="20" height="20" fill="white"/>
</clipPath>
</defs>
</svg>
