<svg width="37" height="40" viewBox="0 0 37 40" fill="none" xmlns="http://www.w3.org/2000/svg">
<path d="M23.7752 4H5.11823C4.59881 4 4.17773 4.42107 4.17773 5.23814V39.3571C4.17773 39.5789 4.59881 40 5.11823 40H30.8801C31.3995 40 31.8206 39.5789 31.8206 39.3571V12.343C31.8206 11.8956 31.7608 11.7516 31.6554 11.6455L24.1751 4.16521C24.069 4.05979 23.925 4 23.7752 4Z" fill="white"/>
<path d="M24.1064 4.09717V11.7144H31.7237L24.1064 4.09717Z" fill="#D6D6D6"/>
<path d="M33.2025 31H2.79751C2.18446 31 1.6875 30.5665 1.6875 30.0318V20.75C1.6875 20.1977 2.13522 19.75 2.6875 19.75H33.3125C33.8648 19.75 34.3125 20.1977 34.3125 20.75V30.0318C34.3125 30.5665 33.8155 31 33.2025 31Z" fill="#FF6A00"/>
<path d="M11.176 28.4774H10.1211V22H11.9841C12.2592 22 12.5318 22.0437 12.8012 22.1318C13.0705 22.2199 13.3122 22.3516 13.5263 22.5271C13.7404 22.7026 13.9133 22.9154 14.0451 23.1642C14.1769 23.413 14.2431 23.6926 14.2431 24.0038C14.2431 24.3323 14.1872 24.6293 14.076 24.8961C13.9647 25.1629 13.8092 25.3872 13.6099 25.5685C13.4106 25.7498 13.1702 25.8906 12.8892 25.9902C12.6083 26.0899 12.2972 26.1394 11.9577 26.1394H11.1754L11.176 28.4774ZM11.176 22.7997V25.366H12.1429C12.2715 25.366 12.3987 25.3441 12.5254 25.2998C12.6514 25.2561 12.7671 25.1841 12.8725 25.0844C12.978 24.9848 13.0628 24.8459 13.1271 24.6672C13.1914 24.4885 13.2235 24.2674 13.2235 24.0038C13.2235 23.8984 13.2087 23.7762 13.1798 23.6393C13.1502 23.5017 13.0905 23.3699 12.9998 23.2439C12.9085 23.1179 12.7812 23.0125 12.6173 22.9276C12.4534 22.8428 12.2361 22.8004 11.9667 22.8004L11.176 22.7997Z" fill="white"/>
<path d="M20.7121 25.0587C20.7121 25.5916 20.6549 26.0474 20.5404 26.4254C20.426 26.8034 20.2814 27.1197 20.1052 27.3749C19.9291 27.6301 19.7317 27.8307 19.5119 27.9773C19.292 28.1239 19.0799 28.2331 18.8748 28.3071C18.6697 28.3804 18.482 28.4273 18.3123 28.4479C18.1426 28.4671 18.0166 28.4774 17.9343 28.4774H15.4824V22H17.4335C17.9786 22 18.4576 22.0868 18.8703 22.2591C19.283 22.4314 19.6263 22.6621 19.8989 22.9489C20.1714 23.2356 20.3746 23.5628 20.5096 23.9286C20.6446 24.295 20.7121 24.6717 20.7121 25.0587ZM17.5833 27.7041C18.2981 27.7041 18.8137 27.4759 19.13 27.0188C19.4463 26.5617 19.6044 25.8996 19.6044 25.0324C19.6044 24.763 19.5723 24.4962 19.508 24.2326C19.4431 23.9691 19.319 23.7306 19.1345 23.5165C18.95 23.3024 18.6993 23.1295 18.383 22.9977C18.0667 22.8659 17.6566 22.7997 17.1526 22.7997H16.5374V27.7041H17.5833Z" fill="white"/>
<path d="M23.3135 22.7997V24.8389H26.0206V25.5595H23.3135V28.4774H22.2412V22H26.2925V22.7997H23.3135Z" fill="white"/>
</svg>
