<svg width="28" height="28" viewBox="0 0 28 28" fill="none" xmlns="http://www.w3.org/2000/svg">
<circle cx="10.4987" cy="10.4999" r="3.66667" stroke="url(#paint0_linear_734_28144)" stroke-width="2" stroke-linecap="round"/>
<path d="M14.167 10.4165C14.4985 9.84229 15.0445 9.4233 15.685 9.25169C16.3254 9.08008 17.0078 9.16992 17.582 9.50144C18.1562 9.83296 18.5752 10.379 18.7468 11.0195C18.9185 11.6599 18.8286 12.3423 18.4971 12.9165C18.1656 13.4907 17.6195 13.9097 16.9791 14.0813C16.3386 14.2529 15.6562 14.1631 15.082 13.8316C14.5078 13.5 14.0888 12.954 13.9172 12.3136C13.7456 11.6731 13.8354 10.9907 14.167 10.4165L14.167 10.4165Z" stroke="url(#paint1_linear_734_28144)" stroke-width="2"/>
<path d="M16.1951 22.1667L15.2148 22.3641L15.3764 23.1667H16.1951V22.1667ZM20.7344 21.0673L21.685 20.7569L21.685 20.7569L20.7344 21.0673ZM13.7441 18.329L13.1393 17.5326L11.9827 18.4111L13.216 19.1781L13.7441 18.329ZM19.8671 21.1667H16.1951V23.1667H19.8671V21.1667ZM19.7838 21.3776C19.7782 21.3604 19.7731 21.3273 19.7811 21.2871C19.7886 21.2491 19.8045 21.2201 19.8197 21.2014C19.849 21.1652 19.8735 21.1667 19.8671 21.1667V23.1667C21.0237 23.1667 22.12 22.0892 21.685 20.7569L19.7838 21.3776ZM16.3332 18.5C18.4437 18.5 19.3677 20.1031 19.7838 21.3776L21.685 20.7569C21.2003 19.2722 19.8142 16.5 16.3332 16.5V18.5ZM14.349 19.1253C14.8261 18.7629 15.4585 18.5 16.3332 18.5V16.5C15.0146 16.5 13.9587 16.9102 13.1393 17.5326L14.349 19.1253ZM13.216 19.1781C14.4858 19.9678 15.0079 21.3368 15.2148 22.3641L17.1754 21.9692C16.9248 20.7248 16.2314 18.6982 14.2723 17.4798L13.216 19.1781Z" fill="url(#paint2_linear_734_28144)"/>
<path d="M10.4993 17.5C14.8043 17.5 15.9323 20.6771 16.2278 22.3419C16.3243 22.8857 15.885 23.3333 15.3327 23.3333H5.66602C5.11373 23.3333 4.6744 22.8857 4.77093 22.3419C5.06644 20.6771 6.19435 17.5 10.4993 17.5Z" stroke="url(#paint3_linear_734_28144)" stroke-width="2" stroke-linecap="round"/>
<defs>
<linearGradient id="paint0_linear_734_28144" x1="19.3135" y1="21.1295" x2="2.6862" y2="5.46287" gradientUnits="userSpaceOnUse">
<stop stop-color="#017AC3"/>
<stop offset="1" stop-color="#65CFF0"/>
</linearGradient>
<linearGradient id="paint1_linear_734_28144" x1="22.9431" y1="19.6387" x2="10.4727" y2="7.88871" gradientUnits="userSpaceOnUse">
<stop stop-color="#017AC3"/>
<stop offset="1" stop-color="#65CFF0"/>
</linearGradient>
<linearGradient id="paint2_linear_734_28144" x1="23.9027" y1="25.1481" x2="16.0613" y2="14.0136" gradientUnits="userSpaceOnUse">
<stop stop-color="#017AC3"/>
<stop offset="1" stop-color="#65CFF0"/>
</linearGradient>
<linearGradient id="paint3_linear_734_28144" x1="21.5179" y1="27.0602" x2="12.8967" y2="10.8141" gradientUnits="userSpaceOnUse">
<stop stop-color="#017AC3"/>
<stop offset="1" stop-color="#65CFF0"/>
</linearGradient>
</defs>
</svg>
