<svg width="27" height="28" viewBox="0 0 27 28" fill="none" xmlns="http://www.w3.org/2000/svg">
<circle cx="13.499" cy="9.50024" r="3.375" stroke="url(#paint0_linear_1723_23098)" stroke-width="2.25" stroke-linecap="round"/>
<path d="M17.1755 9.5C17.4738 8.98321 17.9653 8.60611 18.5417 8.45167C19.1181 8.29722 19.7322 8.37807 20.249 8.67644C20.7658 8.97481 21.1429 9.46625 21.2974 10.0427C21.4518 10.6191 21.3709 11.2332 21.0726 11.75C20.7742 12.2668 20.2828 12.6439 19.7064 12.7983C19.13 12.9528 18.5158 12.8719 17.999 12.5736C17.4822 12.2752 17.1051 11.7837 16.9507 11.2073C16.7962 10.6309 16.8771 10.0168 17.1755 9.5L17.1755 9.5Z" stroke="url(#paint1_linear_1723_23098)" stroke-width="2.25"/>
<path d="M5.92742 9.5C6.22579 8.98321 6.71723 8.60611 7.29363 8.45167C7.87004 8.29722 8.48419 8.37807 9.00098 8.67644C9.51777 8.97481 9.89486 9.46625 10.0493 10.0427C10.2038 10.6191 10.1229 11.2332 9.82453 11.75C9.52617 12.2668 9.03472 12.6439 8.45832 12.7983C7.88192 12.9528 7.26777 12.8719 6.75098 12.5736C6.23419 12.2752 5.85709 11.7837 5.70264 11.2073C5.5482 10.6309 5.62905 10.0168 5.92742 9.5L5.92742 9.5Z" stroke="url(#paint2_linear_1723_23098)" stroke-width="2.25"/>
<path d="M18.9943 20.7498L17.8914 20.9719L18.0732 21.8748H18.9943V20.7498ZM23.3127 19.5169L22.2524 19.893V19.893L23.3127 19.5169ZM16.6309 17.0491L15.9504 16.1532L14.6493 17.1415L16.0367 18.0044L16.6309 17.0491ZM22.3531 19.6248H18.9943V21.8748H22.3531V19.6248ZM22.2524 19.893C22.2445 19.8707 22.2372 19.8284 22.2465 19.777C22.2554 19.7284 22.2755 19.6915 22.2945 19.6678C22.3307 19.6227 22.3607 19.6248 22.3531 19.6248V21.8748C23.6423 21.8748 24.9115 20.6591 24.3729 19.1409L22.2524 19.893ZM19.1274 17.3748C20.9742 17.3748 21.8305 18.7035 22.2524 19.893L24.3729 19.1409C23.8498 17.6659 22.4445 15.1248 19.1274 15.1248V17.3748ZM17.3113 17.945C17.7439 17.6165 18.3197 17.3748 19.1274 17.3748V15.1248C17.8203 15.1248 16.7681 15.5322 15.9504 16.1532L17.3113 17.945ZM16.0367 18.0044C17.2058 18.7315 17.6954 19.9987 17.8914 20.9719L20.0971 20.5276C19.8519 19.3102 19.1695 17.3032 17.225 16.0938L16.0367 18.0044Z" fill="url(#paint3_linear_1723_23098)"/>
<path d="M10.3705 17.0502L10.9648 18.0054L12.3517 17.1426L11.0511 16.1544L10.3705 17.0502ZM3.68826 19.5177L2.62798 19.1416L3.68826 19.5177ZM8.00763 20.7505V21.8755H8.92864L9.11048 20.9726L8.00763 20.7505ZM7.8735 17.3755C8.68145 17.3755 9.25735 17.6173 9.68992 17.9459L11.0511 16.1544C10.2334 15.5331 9.18094 15.1255 7.8735 15.1255V17.3755ZM4.74853 19.8937C5.17046 18.7042 6.02671 17.3755 7.8735 17.3755V15.1255C4.55642 15.1255 3.15116 17.6666 2.62798 19.1416L4.74853 19.8937ZM4.64786 19.6255C4.64024 19.6255 4.6702 19.6235 4.70645 19.6686C4.72546 19.6922 4.74554 19.7291 4.7544 19.7778C4.76375 19.8291 4.75646 19.8714 4.74853 19.8937L2.62798 19.1416C2.08945 20.6598 3.3586 21.8755 4.64786 21.8755V19.6255ZM8.00763 19.6255H4.64786V21.8755H8.00763V19.6255ZM9.11048 20.9726C9.30646 19.9996 9.79603 18.7325 10.9648 18.0054L9.77624 16.0949C7.83221 17.3044 7.14995 19.311 6.90477 20.5284L9.11048 20.9726Z" fill="url(#paint4_linear_1723_23098)"/>
<path d="M13.501 16.2498C17.519 16.2498 18.6669 19.1198 18.9948 20.7597C19.1167 21.369 18.6223 21.8748 18.001 21.8748H9.00098C8.37966 21.8748 7.8853 21.369 8.00714 20.7597C8.33509 19.1198 9.483 16.2498 13.501 16.2498Z" stroke="url(#paint5_linear_1723_23098)" stroke-width="2.25" stroke-linecap="round"/>
<defs>
<linearGradient id="paint0_linear_1723_23098" x1="21.999" y1="19.7502" x2="5.96554" y2="4.64309" gradientUnits="userSpaceOnUse">
<stop stop-color="#017AC3"/>
<stop offset="1" stop-color="#65CFF0"/>
</linearGradient>
<linearGradient id="paint1_linear_1723_23098" x1="25.499" y1="18.3125" x2="13.4739" y2="6.98213" gradientUnits="userSpaceOnUse">
<stop stop-color="#017AC3"/>
<stop offset="1" stop-color="#65CFF0"/>
</linearGradient>
<linearGradient id="paint2_linear_1723_23098" x1="14.251" y1="18.3125" x2="2.22586" y2="6.98213" gradientUnits="userSpaceOnUse">
<stop stop-color="#017AC3"/>
<stop offset="1" stop-color="#65CFF0"/>
</linearGradient>
<linearGradient id="paint3_linear_1723_23098" x1="26.361" y1="23.6248" x2="18.7827" y2="12.9358" gradientUnits="userSpaceOnUse">
<stop stop-color="#017AC3"/>
<stop offset="1" stop-color="#65CFF0"/>
</linearGradient>
<linearGradient id="paint4_linear_1723_23098" x1="13.3644" y1="23.6255" x2="5.7862" y2="12.9362" gradientUnits="userSpaceOnUse">
<stop stop-color="#017AC3"/>
<stop offset="1" stop-color="#65CFF0"/>
</linearGradient>
<linearGradient id="paint5_linear_1723_23098" x1="24.126" y1="25.4685" x2="15.8127" y2="9.80264" gradientUnits="userSpaceOnUse">
<stop stop-color="#017AC3"/>
<stop offset="1" stop-color="#65CFF0"/>
</linearGradient>
</defs>
</svg>
