<svg width="20" height="20" viewBox="0 0 20 20" fill="none" xmlns="http://www.w3.org/2000/svg">
<path fill-rule="evenodd" clip-rule="evenodd" d="M1.66709 4.02745C1.66709 2.26321 3.09729 0.833008 4.86153 0.833008C6.62577 0.833008 8.05598 2.26321 8.05598 4.02745V7.54808C8.14332 7.517 8.23737 7.50008 8.33538 7.50008H14.1687C14.629 7.50008 15.002 7.87318 15.002 8.33342C15.002 8.79365 14.629 9.16675 14.1687 9.16675H8.33538C8.23737 9.16675 8.14332 9.14983 8.05598 9.11875V10.881C8.14332 10.8499 8.23737 10.833 8.33538 10.833H14.1687C14.629 10.833 15.002 11.2061 15.002 11.6663C15.002 12.1266 14.629 12.4997 14.1687 12.4997H8.33538C8.23737 12.4997 8.14332 12.4828 8.05598 12.4517V15.833C8.05598 15.9988 8.00756 16.1533 7.9241 16.2831C8.025 16.3939 8.11733 16.5172 8.19914 16.6528C8.44574 17.0616 9.03862 17.0616 9.28522 16.6528C10.1799 15.1695 12.3309 15.1695 13.2256 16.6528C13.4722 17.0616 14.0651 17.0616 14.3117 16.6528L14.3383 16.6086C14.6919 16.0224 15.2413 15.6635 15.8338 15.5349V4.02745C15.8338 3.18368 15.1497 2.49967 14.306 2.49967C13.4622 2.49967 12.7782 3.18368 12.7782 4.02745V5.44412C12.7782 5.90436 12.4051 6.27745 11.9449 6.27745C11.4846 6.27745 11.1115 5.90436 11.1115 5.44412V4.02745C11.1115 2.26321 12.5417 0.833008 14.306 0.833008C16.0702 0.833008 17.5004 2.26321 17.5004 4.02745V15.7898C17.803 15.9638 18.0736 16.2117 18.2849 16.5338L19.0289 17.6677C19.2814 18.0526 19.1741 18.5692 18.7893 18.8216C18.4045 19.0741 17.8878 18.9668 17.6354 18.582L16.8914 17.4481C16.6227 17.0385 16.0185 17.05 15.7655 17.4694L15.7388 17.5136C14.8441 18.9969 12.6931 18.9969 11.7984 17.5136C11.5518 17.1048 10.959 17.1048 10.7124 17.5136C9.81768 18.9969 7.66668 18.9969 6.77199 17.5136C6.52539 17.1048 5.93251 17.1048 5.68591 17.5136L5.65926 17.5578C4.77243 19.0281 2.65453 19.0682 1.71264 17.6326L0.968699 16.4987C0.716232 16.1139 0.823516 15.5973 1.20833 15.3448C1.59314 15.0923 2.10975 15.1996 2.36222 15.5844L3.10616 16.7183C3.37487 17.1279 3.9791 17.1164 4.23211 16.697L4.25876 16.6528C4.73753 15.8591 5.57606 15.4901 6.38931 15.5458V4.02745C6.38931 3.18368 5.7053 2.49967 4.86153 2.49967C4.01776 2.49967 3.33375 3.18368 3.33375 4.02745V5.44412C3.33375 5.90436 2.96066 6.27745 2.50042 6.27745C2.04018 6.27745 1.66709 5.90436 1.66709 5.44412V4.02745Z" fill="url(#paint0_linear_4025_21059)"/>
<defs>
<linearGradient id="paint0_linear_4025_21059" x1="27.3138" y1="30.5384" x2="-4.99623" y2="-0.254697" gradientUnits="userSpaceOnUse">
<stop stop-color="#017AC3"/>
<stop offset="1" stop-color="#65CFF0"/>
</linearGradient>
</defs>
</svg>
