<svg width="20" height="20" viewBox="0 0 20 20" fill="none" xmlns="http://www.w3.org/2000/svg">
<path fill-rule="evenodd" clip-rule="evenodd" d="M4.40476 0.938284C4.40476 0.420084 3.97837 0 3.45238 0C2.9264 0 2.5 0.420084 2.5 0.938284V3.28379H1.69312C1.23036 3.28379 0.795399 3.47335 0.481404 3.79651C0.168769 4.11827 0 4.54633 0 4.98443V11.8456C0 12.8904 0.40286 13.9 1.13223 14.6507C1.86298 15.4028 2.8632 15.8333 3.91534 15.8333H11.3228C12.3749 15.8333 13.3751 15.4028 14.1059 14.6507C14.5173 14.2272 14.8249 13.7213 15.0148 13.1732C15.4173 13.2527 15.8311 13.2734 16.2426 13.2334C16.9245 13.1671 17.5793 12.9361 18.1489 12.5609C18.7186 12.1858 19.1855 11.678 19.5084 11.0826C19.8313 10.4871 20.0001 9.82246 20 9.14739C19.9999 8.47232 19.8307 7.8077 19.5076 7.21241C19.1845 6.61712 18.7173 6.10952 18.1475 5.73459C17.5777 5.35966 16.9228 5.12896 16.2409 5.06293C15.9057 5.03047 15.569 5.0383 15.2381 5.08535V4.22208C15.2381 3.70388 14.8117 3.28379 14.2857 3.28379H12.7348V0.938284C12.7348 0.420084 12.3084 0 11.7825 0C11.2565 0 10.8301 0.420084 10.8301 0.938284V3.28379H8.5698V0.938284C8.5698 0.420084 8.14341 0 7.61742 0C7.09143 0 6.66504 0.420084 6.66504 0.938284V3.28379H4.40476V0.938284ZM16.0619 11.4295C15.7847 11.4565 15.5057 11.4341 15.2381 11.3643V6.93212C15.5054 6.86243 15.7841 6.84003 16.0609 6.86684C16.4417 6.90371 16.8074 7.03254 17.1257 7.24192C17.4439 7.4513 17.7047 7.73476 17.8852 8.06719C18.0656 8.39963 18.1601 8.77078 18.1602 9.14776C18.1602 9.52475 18.066 9.89593 17.8856 10.2284C17.7053 10.561 17.4446 10.8445 17.1265 11.054C16.8083 11.2635 16.4427 11.3925 16.0619 11.4295ZM7.59752 5.16036H3.47228L3.45238 5.16056L3.43248 5.16036H2.19335H1.90476V11.8456C1.90476 12.4184 2.12623 12.9599 2.50821 13.3531C2.88877 13.7448 3.39585 13.9568 3.91534 13.9568H11.3228C11.7915 13.9568 12.2501 13.7842 12.6147 13.4628C12.6542 13.428 12.6927 13.3914 12.7299 13.3531C13.1119 12.9599 13.3333 12.4184 13.3333 11.8456V5.16036H11.8024L11.7825 5.16056L11.7626 5.16036H7.63732L7.61742 5.16056L7.59752 5.16036ZM0.941176 18.3333C0.421379 18.3333 0 18.7064 0 19.1667C0 19.6269 0.421379 20 0.941176 20H19.0588C19.5786 20 20 19.6269 20 19.1667C20 18.7064 19.5786 18.3333 19.0588 18.3333H0.941176Z" fill="url(#paint0_linear_4025_21039)"/>
<defs>
<linearGradient id="paint0_linear_4025_21039" x1="28.8889" y1="32.7778" x2="-6.74108" y2="-0.793684" gradientUnits="userSpaceOnUse">
<stop stop-color="#017AC3"/>
<stop offset="1" stop-color="#65CFF0"/>
</linearGradient>
</defs>
</svg>
