<svg width="20" height="20" viewBox="0 0 20 20" fill="none" xmlns="http://www.w3.org/2000/svg">
<path fill-rule="evenodd" clip-rule="evenodd" d="M3.21391 3.01266C3.21391 2.45338 3.66733 2 4.22666 2C6.03541 2 7.82643 2.35623 9.49749 3.04834C11.1685 3.74046 12.6869 4.75491 13.9658 6.03377C15.2448 7.31263 16.2594 8.83087 16.9516 10.5018C17.6437 12.1727 18 13.9635 18 15.7722C18 16.3314 17.5466 16.7848 16.9873 16.7848C16.4279 16.7848 15.9745 16.3314 15.9745 15.7722C15.9745 14.2296 15.6706 12.702 15.0802 11.2768C14.4899 9.85165 13.6245 8.55669 12.5336 7.4659L12.5336 7.46588C11.4428 6.3751 10.1477 5.50983 8.72236 4.91949C7.29705 4.32916 5.76942 4.02532 4.22666 4.02532C3.66733 4.02532 3.21391 3.57193 3.21391 3.01266ZM2 15.4177C2 13.9916 3.15622 12.8354 4.58251 12.8354C6.00879 12.8354 7.165 13.9916 7.165 15.4177C7.165 16.8438 6.00879 18 4.58251 18C3.15622 18 2 16.8438 2 15.4177ZM4.58251 14.4557C4.05115 14.4557 3.62039 14.8864 3.62039 15.4177C3.62039 15.949 4.05115 16.3797 4.58251 16.3797C5.11385 16.3797 5.54461 15.949 5.54461 15.4177C5.54461 14.8864 5.11385 14.4557 4.58251 14.4557ZM4.22666 6.9622C3.66733 6.9622 3.21391 7.41558 3.21391 7.97486C3.21391 8.53413 3.66733 8.98751 4.22666 8.98751C5.02463 8.98751 5.81478 9.14468 6.55202 9.45002L6.55202 9.45003C7.28925 9.75536 7.95912 10.2029 8.52337 10.7671C9.08762 11.3313 9.53521 12.0011 9.84057 12.7383C10.146 13.4755 10.3031 14.2656 10.3031 15.0635C10.3031 15.6227 10.7566 16.0761 11.3159 16.0761C11.8752 16.0761 12.3286 15.6227 12.3286 15.0635C12.3286 13.9996 12.1191 12.9462 11.7119 11.9632L11.7119 11.9632C11.3047 10.9803 10.7079 10.0873 9.95561 9.335C9.20327 8.58273 8.31011 7.98599 7.32714 7.57888C6.34417 7.17175 5.29062 6.9622 4.22666 6.9622Z" fill="url(#paint0_linear_4025_21054)"/>
<defs>
<linearGradient id="paint0_linear_4025_21054" x1="25.1111" y1="28.2222" x2="-3.39286" y2="1.36505" gradientUnits="userSpaceOnUse">
<stop stop-color="#017AC3"/>
<stop offset="1" stop-color="#65CFF0"/>
</linearGradient>
</defs>
</svg>
