<svg width="24" height="24" viewBox="0 0 24 24" fill="none" xmlns="http://www.w3.org/2000/svg">
<path d="M6.96896 3.96878L3.96896 6.96879C3.82823 7.10952 3.74916 7.30039 3.74916 7.49941C3.74916 7.69843 3.82823 7.88931 3.96896 8.03004C4.10969 8.17077 4.30056 8.24983 4.49958 8.24983C4.69861 8.24983 4.88948 8.17077 5.03021 8.03004L6.74958 6.30972L6.74958 19.4994C6.74958 19.6983 6.8286 19.8891 6.96925 20.0297C7.1099 20.1704 7.30067 20.2494 7.49958 20.2494C7.69849 20.2494 7.88926 20.1704 8.02991 20.0297C8.17057 19.8891 8.24958 19.6983 8.24958 19.4994L8.24958 6.30972L9.96896 8.03004C10.1097 8.17077 10.3006 8.24983 10.4996 8.24983C10.6986 8.24983 10.8895 8.17077 11.0302 8.03004C11.1709 7.88931 11.25 7.69843 11.25 7.49941C11.25 7.30039 11.1709 7.10952 11.0302 6.96879L8.03021 3.96878C7.96055 3.89905 7.87784 3.84373 7.78679 3.80599C7.69574 3.76825 7.59814 3.74882 7.49958 3.74882C7.40102 3.74882 7.30343 3.76825 7.21238 3.80599C7.12133 3.84373 7.03861 3.89905 6.96896 3.96878ZM12.969 17.03C12.8282 16.8893 12.7492 16.6984 12.7492 16.4994C12.7492 16.3004 12.8282 16.1095 12.969 15.9688C13.1097 15.8281 13.3006 15.749 13.4996 15.749C13.6986 15.749 13.8895 15.8281 14.0302 15.9688L15.7496 17.6891L15.7496 4.49941C15.7496 4.3005 15.8286 4.10973 15.9693 3.96908C16.1099 3.82843 16.3007 3.74941 16.4996 3.74941C16.6985 3.74941 16.8893 3.82843 17.0299 3.96908C17.1706 4.10973 17.2496 4.3005 17.2496 4.49941L17.2496 17.6891L18.969 15.9688C19.1097 15.8281 19.3006 15.749 19.4996 15.749C19.6986 15.749 19.8895 15.8281 20.0302 15.9688C20.1709 16.1095 20.25 16.3004 20.25 16.4994C20.25 16.6984 20.1709 16.8893 20.0302 17.03L17.0302 20.03C16.9606 20.0998 16.8778 20.1551 16.7868 20.1928C16.6957 20.2306 16.5981 20.25 16.4996 20.25C16.401 20.25 16.3034 20.2306 16.2124 20.1928C16.1213 20.1551 16.0386 20.0998 15.969 20.03L12.969 17.03Z" fill="#0587D6"/>
</svg>
