<svg width="32" height="32" viewBox="0 0 32 32" fill="none" xmlns="http://www.w3.org/2000/svg">
<path d="M3.33203 12.6665H28.6654M3.33203 12.6665V26.6665C3.33203 27.0201 3.47251 27.3593 3.72256 27.6093C3.9726 27.8594 4.31174 27.9998 4.66536 27.9998H27.332C27.6857 27.9998 28.0248 27.8594 28.2748 27.6093C28.5249 27.3593 28.6654 27.0201 28.6654 26.6665V12.6665M3.33203 12.6665V5.99984C3.33203 5.64622 3.47251 5.30708 3.72256 5.05703C3.9726 4.80698 4.31174 4.6665 4.66536 4.6665H27.332C27.6857 4.6665 28.0248 4.80698 28.2748 5.05703C28.5249 5.30708 28.6654 5.64622 28.6654 5.99984V12.6665" stroke="#C2C2C2" stroke-width="1.6" stroke-linejoin="round"/>
<path d="M10.6654 2.6665V7.99984M21.332 2.6665V7.99984M18.6654 22.6665H22.6654M9.33203 22.6665H13.332M18.6654 17.3332H22.6654M9.33203 17.3332H13.332" stroke="#C2C2C2" stroke-width="1.6" stroke-linecap="round" stroke-linejoin="round"/>
</svg>
