<svg width="24" height="24" viewBox="0 0 24 24" fill="none" xmlns="http://www.w3.org/2000/svg">
<path d="M12 11.45C11.2422 11.45 10.5155 11.1603 9.9797 10.6445C9.44388 10.1288 9.14286 9.42935 9.14286 8.7C9.14286 7.97065 9.44388 7.27118 9.9797 6.75546C10.5155 6.23973 11.2422 5.95 12 5.95C12.7578 5.95 13.4845 6.23973 14.0203 6.75546C14.5561 7.27118 14.8571 7.97065 14.8571 8.7C14.8571 9.42935 14.5561 10.1288 14.0203 10.6445C13.4845 11.1603 12.7578 11.45 12 11.45ZM4 8.7C4 14.475 12 23 12 23C12 23 20 14.475 20 8.7C20 4.443 16.4229 1 12 1C7.57714 1 4 4.443 4 8.7Z" fill="#C2C2C2"/>
</svg>
